<?xml version="1.0" encoding="utf-8"?>
<!-- Generator: Adobe Illustrator 16.0.0, SVG Export Plug-In . SVG Version: 6.00 Build 0)  -->
<!DOCTYPE svg PUBLIC "-//W3C//DTD SVG 1.1//EN" "http://www.w3.org/Graphics/SVG/1.1/DTD/svg11.dtd">
<svg version="1.1" id="Layer_1" xmlns="http://www.w3.org/2000/svg" xmlns:xlink="http://www.w3.org/1999/xlink" x="0px" y="0px"
	 width="163.273px" height="163.273px" viewBox="0 0 163.273 163.273" enable-background="new 0 0 163.273 163.273"
	 xml:space="preserve">
<g>
	<path fill="#EF4032" d="M18.231,150.939c-12.94,0-18.234-9.169-11.764-20.375L69.874,20.74c6.47-11.206,17.058-11.206,23.528,0
		l63.405,109.823c6.47,11.206,1.177,20.375-11.764,20.375H18.231z"/>
</g>
<path fill="#FFFFFF" d="M81.637,118.848c2.483,0,4.708,0.951,6.674,2.859c1.962,1.965,2.946,4.162,2.946,6.588
	c0,2.658-0.952,4.969-2.859,6.934c-1.908,1.904-4.159,2.859-6.761,2.859c-2.542,0-4.796-0.984-6.76-2.945
	c-1.907-2.025-2.86-4.307-2.86-6.848c0-2.426,0.982-4.623,2.948-6.588C76.928,119.799,79.152,118.848,81.637,118.848z"/>
<path fill="#FFFFFF" d="M91.704,56.717l-3.608,46.981c-0.17,2.434-0.846,4.322-2.026,5.664c-1.183,1.342-2.66,2.014-4.433,2.014
	c-1.773,0-3.251-0.672-4.433-2.014c-1.183-1.342-1.858-3.23-2.027-5.664l-3.673-46.981c-0.169-2.381-0.252-3.953-0.252-4.713
	c0-3.954,0.991-7.133,2.976-9.541c1.984-2.406,4.454-3.611,7.409-3.611c2.913,0,5.371,1.216,7.376,3.649
	c2.006,2.433,3.009,5.5,3.009,9.198C92.022,52.46,91.917,54.132,91.704,56.717z"/>
</svg>
