<?xml version="1.0" encoding="utf-8"?>
<!-- Generator: Adobe Illustrator 16.0.0, SVG Export Plug-In . SVG Version: 6.00 Build 0)  -->
<!DOCTYPE svg PUBLIC "-//W3C//DTD SVG 1.1//EN" "http://www.w3.org/Graphics/SVG/1.1/DTD/svg11.dtd">
<svg version="1.1" id="Layer_1" xmlns="http://www.w3.org/2000/svg" xmlns:xlink="http://www.w3.org/1999/xlink" x="0px" y="0px"
	 width="233px" height="160.174px" viewBox="249.5 185.499 233 160.174" enable-background="new 249.5 185.499 233 160.174"
	 xml:space="preserve">
<g id="Calque_2">
</g>
<g>
	<g>
		<path fill="#255492" d="M409.043,287.888l9.132-20.152l-6.42-63.069l-62.927,7.826l-0.233,0.028l-31.578,19.129l-0.004,0.042l0,0
			l-0.104,1.063l-3.084,31.711l0,0l0.07,0.503l10.058,27.939l36.736,11.718l0.517,0.201l0.551-0.221l46.553-15.934l0.448-0.153
			l0.02-0.043l0.381-0.044L409.043,287.888z M361.155,302.227l-18.673-14.06l30.705,3.709L361.155,302.227z M316.505,264.405
			l14.611-21.941l18.455,17.296l-11.38,24.979L316.505,264.405z M384.629,261.915l4.021-23.734l19.429-26.701l-9.745,34.723
			L384.629,261.915z M340.178,285.677l11.361-24.939l29.985,5.684l-6.538,23.461L340.178,285.677z M353.959,258.96l32.172-19.065
			l-4.124,24.382L353.959,258.96z M351.048,258.133l-18.506-17.344l19.813-17.958l32.889,15.037L351.048,258.133z M410.273,211.788
			l5.33,52.368l-15.063-17.685L410.273,211.788z M387.25,236.371l-32.325-14.78l27.159-11.021l26.321-3.273L387.25,236.371z
			 M330.818,239.387l-9.946-6.63l26.771-8.621L330.818,239.387z M383.895,266.099l14.806-16.976l7.813,37.396l-29.227,3.292
			L383.895,266.099z M401.279,250.727l14.486,17.006l-7.482,16.513L401.279,250.727z M349.332,214.643l24.331-3.026l-21.484,8.719
			l-0.227-0.104l-0.36,0.326l-25.669,8.266L349.332,214.643z M318.982,234.136l10.417,6.945l-12.989,19.505L318.982,234.136z
			 M317.419,268.273l19.122,17.93l-11.089,4.386L317.419,268.273z M328.069,291.916l10.326-4.084l16.986,12.794L328.069,291.916z
			 M366.24,300.75l10.011-8.612l22.578-2.542L366.24,300.75z"/>
	</g>
	<g>
		<g>
			<path fill="#255492" stroke="#255492" stroke-width="0.6275" stroke-miterlimit="10" d="M328.632,326.506
				c-0.878,0-1.925-0.273-2.757-1.056l0,0c-0.833-0.781-1.428-2.063-1.426-4.014l0,0c-0.001-1.965,0.544-3.29,1.343-4.119l0,0
				c0.798-0.829,1.833-1.147,2.769-1.147l0,0c1.518-0.002,2.653,0.811,3.447,2.019l0,0l0.108,0.163l-1.104,0.735l-0.1-0.196
				c-0.488-0.949-1.266-1.605-2.352-1.606l0,0c-1.109,0.022-2.85,0.622-2.871,4.009l0,0c0.017,3.213,1.636,4.082,2.926,4.098l0,0
				c0.95,0.005,1.815-0.669,2.448-1.427l0,0l0.141-0.169l0.729,0.774l-0.143,0.133l0.143-0.133l0.125,0.132l-0.125,0.135
				c-0.892,0.971-1.876,1.67-3.294,1.67l0,0C328.638,326.506,328.635,326.506,328.632,326.506L328.632,326.506z"/>
		</g>
		<g>
			<path fill="#255492" stroke="#255492" stroke-width="0.6275" stroke-miterlimit="10" d="M338.901,326.505
				c-0.846,0.002-1.815-0.286-2.568-1.09l0,0c-0.753-0.805-1.275-2.105-1.273-4.086l0,0c0-1.892,0.488-3.186,1.223-4.006l0,0
				c0.735-0.823,1.707-1.154,2.619-1.152l0,0c0.835-0.002,1.809,0.281,2.569,1.079l0,0c0.76,0.798,1.291,2.097,1.29,4.079l0,0
				c0.001,1.973-0.524,3.272-1.282,4.079l0,0c-0.757,0.804-1.728,1.097-2.573,1.097l0,0
				C338.904,326.505,338.902,326.505,338.901,326.505L338.901,326.505z M336.804,318.598c-0.387,0.782-0.506,1.818-0.505,2.731l0,0
				c-0.001,0.922,0.118,1.963,0.506,2.746l0,0c0.393,0.782,1.002,1.31,2.095,1.315l0,0c1.101-0.006,1.715-0.538,2.11-1.322l0,0
				c0.39-0.786,0.509-1.827,0.508-2.739l0,0c0.001-0.913-0.118-1.949-0.506-2.73l0,0c-0.396-0.78-1.011-1.308-2.112-1.314l0,0
				C337.808,317.291,337.198,317.818,336.804,318.598L336.804,318.598z"/>
		</g>
		<g>
			<path fill="#255492" stroke="#255492" stroke-width="0.6275" stroke-miterlimit="10" d="M351.861,326.307v-6.602
				c0-0.55-0.005-1.188-0.174-1.655l0,0c-0.18-0.466-0.442-0.754-1.109-0.766l0,0c-1.236,0.001-3.026,1.236-3.036,4.893l0,0v3.935
				v0.195h-1.239v-4.978c0-1.62-0.055-3.23-0.375-4.834l0,0l-0.047-0.234h1.206l0.274,2.203c0.612-1.238,1.938-2.282,3.324-2.293
				l0,0c0.923-0.006,1.563,0.416,1.926,1.022l0,0c0.367,0.604,0.488,1.372,0.489,2.114l0,0v6.999H351.861L351.861,326.307z"/>
		</g>
		<g>
			<path fill="#255492" stroke="#255492" stroke-width="0.6275" stroke-miterlimit="10" d="M364.416,324.569l0.125,0.132
				l-0.124,0.135c-0.892,0.971-1.875,1.67-3.293,1.67l0,0c-0.003,0-0.006,0-0.008,0l0,0c-0.879,0-1.926-0.273-2.758-1.056l0,0
				c-0.833-0.781-1.428-2.063-1.427-4.014l0,0c-0.001-1.965,0.545-3.29,1.344-4.119l0,0c0.797-0.829,1.833-1.147,2.769-1.147l0,0
				c1.517-0.002,2.653,0.811,3.448,2.019l0,0l0.107,0.163l-1.104,0.735l-0.099-0.196c-0.488-0.949-1.267-1.605-2.353-1.606l0,0
				c-1.11,0.022-2.849,0.622-2.871,4.009l0,0c0.018,3.213,1.636,4.082,2.926,4.098l0,0c0.951,0.005,1.815-0.669,2.448-1.427l0,0
				l0.142-0.169L364.416,324.569"/>
		</g>
		<g>
			<path fill="#255492" stroke="#255492" stroke-width="0.6275" stroke-miterlimit="10" d="M368.823,326.307l0.002-6.779
				l-0.366-3.267h1.204l0.27,2.245c0.647-1.168,1.62-2.327,3.148-2.335l0,0c0.863-0.007,1.448,0.452,1.769,1.059l0,0
				c0.325,0.605,0.429,1.354,0.43,2.024l0,0v0.194h-1.237l-0.002-0.19c-0.008-0.439-0.03-0.964-0.175-1.351l0,0
				c-0.156-0.386-0.36-0.613-0.855-0.623l0,0c-0.394-0.007-1.153,0.34-1.784,1.138l0,0c-0.633,0.796-1.16,2.034-1.161,3.81l0,0v3.88
				v0.195H368.823L368.823,326.307z"/>
		</g>
		<g>
			<path fill="#255492" stroke="#255492" stroke-width="0.6275" stroke-miterlimit="10" d="M385.962,325.362l0.082,0.18l-0.181,0.08
				c-1.108,0.49-2.221,0.883-3.489,0.883l0,0c-0.006,0-0.011,0-0.015,0l0,0c-1.451-0.001-2.481-0.673-3.112-1.645l0,0
				c-0.635-0.976-0.894-2.241-0.896-3.478l0,0c0.002-1.237,0.27-2.523,0.916-3.521l0,0c0.644-0.998,1.69-1.696,3.16-1.69l0,0
				c0.849-0.002,1.786,0.309,2.501,1.139l0,0c0.715,0.829,1.195,2.157,1.195,4.163l0,0v0.196h-6.519
				c0.23,3.129,1.456,3.696,2.804,3.723l0,0c1.034,0,2.03-0.382,2.914-0.911l0,0l0.188-0.113L385.962,325.362 M384.89,320.555
				c0-0.005,0-0.01,0-0.015l0,0c0.001-0.762-0.234-1.59-0.674-2.213l0,0c-0.442-0.624-1.069-1.042-1.896-1.043l0,0
				c-1.633,0.003-2.692,1.711-2.729,3.271l0,0H384.89L384.89,320.555z"/>
		</g>
		<g>
			<path fill="#255492" stroke="#255492" stroke-width="0.6275" stroke-miterlimit="10" d="M391.978,325.844
				c-0.478-0.503-0.759-1.313-0.758-2.548l0,0l-0.001-5.813h-2.147v-1.114h2.148v-3.067h1.239v3.067h3.502v0.918v0.196h-3.502v6.319
				c0.025,0.889,0.276,1.577,1.32,1.59l0,0c0.955,0.003,1.641-0.714,2.041-1.582l0,0l0.067-0.148l1.205,0.294l-0.106,0.22
				c-0.611,1.267-1.718,2.329-3.243,2.329l0,0c-0.002,0-0.004,0-0.006,0l0,0C393.097,326.504,392.453,326.346,391.978,325.844
				L391.978,325.844z"/>
		</g>
		<g>
			<path fill="#255492" stroke="#255492" stroke-width="0.6275" stroke-miterlimit="10" d="M407.618,325.362l0.083,0.18l-0.182,0.08
				c-1.108,0.49-2.222,0.883-3.49,0.883l0,0c-0.005,0-0.01,0-0.015,0l0,0c-1.451-0.001-2.48-0.673-3.111-1.645l0,0
				c-0.636-0.976-0.895-2.241-0.896-3.478l0,0c0.001-1.237,0.27-2.523,0.916-3.521l0,0c0.643-0.998,1.689-1.696,3.159-1.69l0,0
				c0.849-0.002,1.786,0.309,2.501,1.139l0,0c0.715,0.829,1.196,2.157,1.196,4.163l0,0v0.196h-6.52
				c0.23,3.129,1.456,3.696,2.804,3.723l0,0c1.034,0,2.03-0.382,2.913-0.911l0,0l0.188-0.113L407.618,325.362 M406.546,320.555
				c0-0.005,0-0.01,0-0.015l0,0c0.001-0.762-0.234-1.59-0.674-2.213l0,0c-0.443-0.624-1.07-1.042-1.897-1.043l0,0
				c-1.632,0.003-2.691,1.712-2.729,3.271l0,0H406.546L406.546,320.555z"/>
		</g>
	</g>
</g>
</svg>
