<?xml version="1.0" encoding="utf-8"?>
<!-- Generator: Adobe Illustrator 16.0.0, SVG Export Plug-In . SVG Version: 6.00 Build 0)  -->
<!DOCTYPE svg PUBLIC "-//W3C//DTD SVG 1.1//EN" "http://www.w3.org/Graphics/SVG/1.1/DTD/svg11.dtd">
<svg version="1.1" id="Layer_1" xmlns="http://www.w3.org/2000/svg" xmlns:xlink="http://www.w3.org/1999/xlink" x="0px" y="0px"
	 width="233px" height="160.174px" viewBox="249.5 185.499 233 160.174" enable-background="new 249.5 185.499 233 160.174"
	 xml:space="preserve">
<g>
	<path fill="#255492" d="M289.731,237.098c0.616-0.904,1.184-1.848,1.869-2.696c0.308-0.381,0.818-0.692,1.295-0.824
		c1.545-0.427,3.107-0.8,4.68-1.11c0.921-0.182,1.874-0.246,2.815-0.287c1.544-0.066,3.091-0.128,4.634-0.084
		c1.393,0.04,2.784,0.185,4.169,0.355c1.3,0.16,2.597,0.37,3.879,0.636c1.57,0.324,3.148,0.644,4.677,1.118
		c2.366,0.734,4.731,1.501,7.025,2.432c2.272,0.922,4.519,1.954,6.66,3.143c2.273,1.261,4.438,2.725,6.599,4.178
		c1.26,0.849,2.422,1.842,3.621,2.784c0.342,0.27,0.662,0.571,0.973,0.878c0.817,0.804,1.639,1.604,2.431,2.433
		c1.627,1.704,3.034,3.577,4.234,5.606c1.088,1.843,1.928,3.79,2.413,5.875c0.175,0.751,0.281,1.529,0.329,2.3
		c0.182,2.923-0.576,5.641-1.955,8.188c-0.797,1.474-1.876,2.731-3.154,3.832c-1.301,1.12-2.719,2.044-4.26,2.779
		c-2.194,1.048-4.494,1.788-6.88,2.261c-1.872,0.372-3.751,0.64-5.662,0.635c-1.296-0.003-2.599,0.082-3.886-0.02
		c-2.483-0.196-4.947-0.563-7.347-1.262c-0.388-0.111-0.522-0.046-0.526,0.395c-0.004,0.471-0.112,0.945-0.203,1.413
		c-0.146,0.756-0.809,0.966-1.395,1.175c-0.966,0.347-1.947,0.368-2.787-0.346c-0.614-0.521-0.917-1.25-1.061-2.02
		c-0.167-0.895-0.245-1.804-0.39-2.701c-0.025-0.158-0.154-0.349-0.291-0.431c-1.644-0.992-3.34-1.904-4.935-2.966
		c-1.228-0.817-2.354-1.793-3.48-2.75c-0.784-0.665-1.535-1.379-2.227-2.138c-1.098-1.203-2.187-2.427-2.923-3.898
		c-0.665-1.329-0.467-2.593,0.396-3.787c0.726-1.002,1.745-1.635,2.803-2.19c2.611-1.369,5.396-2.258,8.281-2.838
		c1.006-0.203,2.022-0.359,3.028-0.557c0.105-0.021,0.244-0.171,0.261-0.279c0.084-0.516,0.131-1.037,0.192-1.556
		c0.151-1.292,0.248-2.593,0.47-3.873c0.237-1.358,0.586-2.697,0.899-4.04c0.057-0.243,0.167-0.476,0.271-0.704
		c0.414-0.916,1.116-0.877,1.643-0.241c0.729,0.882,1.462,1.786,1.637,2.974c0.146,0.989,0.288,1.983,0.365,2.98
		c0.108,1.411,0.157,2.827,0.234,4.272c0.107,0.007,0.224,0.021,0.341,0.021c2.393-0.003,4.755,0.251,7.106,0.713
		c1.809,0.355,3.626,0.647,5.368,1.286c1.632,0.599,3.126,1.408,4.353,2.667c2.363,2.424,1.651,5.893-1.144,7.528
		c-1.697,0.992-3.245,0.521-4.792-0.267c-0.564-0.287-0.551-0.663,0.008-0.994c0.458-0.272,0.956-0.478,1.432-0.722
		c0.275-0.142,0.568-0.269,0.807-0.459c0.643-0.52,0.767-1.056-0.015-1.629c-1.02-0.749-2.218-1.083-3.417-1.353
		c-1.61-0.363-3.237-0.663-4.867-0.915c-1.066-0.165-2.151-0.198-3.228-0.289c-0.793-0.067-1.586-0.132-2.4-0.2
		c-0.02,0.113-0.047,0.197-0.048,0.282c-0.033,2.382-0.062,4.763-0.094,7.144c-0.027,2.047-0.057,4.094-0.094,6.14
		c-0.006,0.314,0.035,0.469,0.424,0.52c1.595,0.207,3.178,0.541,4.777,0.692c1.607,0.151,3.231,0.229,4.842,0.173
		c1.306-0.043,2.603-0.33,3.904-0.512c1.595-0.224,3.139-0.653,4.658-1.185c1.784-0.625,3.46-1.462,4.944-2.633
		c1.878-1.481,3.138-3.396,3.625-5.756c0.458-2.217,0.128-4.375-0.709-6.457c-0.797-1.981-1.9-3.781-3.308-5.39
		c-0.773-0.884-1.505-1.815-2.363-2.609c-1.275-1.18-2.59-2.332-3.99-3.357c-1.944-1.425-3.913-2.841-5.998-4.041
		c-2.332-1.342-4.775-2.503-7.228-3.621c-1.766-0.805-3.592-1.514-5.448-2.079c-2.425-0.738-4.896-1.34-7.369-1.904
		c-1.304-0.298-2.66-0.372-3.987-0.577c-2.33-0.361-4.679-0.345-7.014-0.236c-1.583,0.074-3.153,0.447-4.727,0.709
		c-0.235,0.039-0.449,0.205-0.672,0.312c-0.006,0.048-0.011,0.097-0.017,0.145c0.396,0.117,0.795,0.225,1.188,0.354
		c0.437,0.143,0.884,0.269,1.293,0.47c0.191,0.096,0.461,0.403,0.42,0.524c-0.082,0.247-0.312,0.504-0.55,0.624
		c-0.28,0.142-0.634,0.201-0.953,0.192c-0.915-0.027-1.832-0.074-2.741-0.174c-0.735-0.082-1.333-0.45-1.739-1.091
		C289.731,237.828,289.731,237.463,289.731,237.098z M313.289,261.561c-0.858,0.06-1.648,0.112-2.439,0.17
		c-0.793,0.058-1.592,0.085-2.379,0.194c-1.297,0.18-2.604,0.346-3.876,0.646c-1.236,0.292-2.47,0.663-3.639,1.153
		c-0.857,0.36-1.118,1.141-0.397,1.916c1.109,1.19,2.249,2.371,3.503,3.401c1.974,1.622,4.188,2.889,6.526,3.926
		c0.632,0.28,1.271,0.54,1.91,0.811c0.078-0.748,0.163-1.449,0.221-2.151c0.102-1.213,0.209-2.426,0.271-3.641
		c0.084-1.675,0.124-3.351,0.191-5.026C313.198,262.502,313.25,262.042,313.289,261.561z"/>
	<path fill="#255492" d="M442.268,268.208c-0.113,0.561-0.23,1.119-0.338,1.681c-0.373,1.917-1.297,3.571-2.473,5.093
		c-1.256,1.623-2.682,3.07-4.434,4.167c-1.396,0.873-2.883,1.507-4.553,1.55c-0.916,0.023-1.832-0.045-2.832-0.075
		c-0.666,1.704-1.377,3.495-2.068,5.295c-0.949,2.472-1.641,5.023-2.238,7.598c-0.346,1.49-0.6,3.005-0.852,4.516
		c-0.156,0.932-0.961,1.347-1.77,0.842c-1.777-1.109-2.793-2.752-3.148-4.779c-0.256-1.444-0.1-2.895,0.145-4.348
		c0.537-3.178,1.639-6.167,2.887-9.111c0.529-1.246,1.121-2.466,1.666-3.704c0.059-0.137,0.061-0.352-0.006-0.481
		c-0.783-1.537-1.066-3.18-0.955-4.876c0.113-1.779,0.572-3.48,1.309-5.118c0.709-1.572,1.578-3.041,2.625-4.4
		c1.086-1.408,2.311-2.695,3.705-3.806c0.291-0.232,0.701-0.533,1.055-0.289c0.193,0.133,0.211,0.587,0.227,0.9
		c0.061,1.272-0.422,2.381-1.066,3.448c-0.996,1.656-2.008,3.309-2.926,5.011c-0.57,1.058-0.951,2.212-1.02,3.439
		c-0.02,0.371-0.045,0.742,0.035,1.118c0.779-1.034,1.543-2.079,2.34-3.1c0.635-0.814,1.291-1.612,1.967-2.392
		c0.672-0.774,1.344-1.559,2.088-2.26c1.34-1.262,2.713-2.494,4.424-3.259c0.961-0.429,1.941-0.659,3.004-0.425
		c1.309,0.289,2.076,1.178,2.551,2.337c0.293,0.715,0.441,1.489,0.654,2.237C442.268,266.079,442.268,267.143,442.268,268.208z
		 M430.369,274.959c0.027,0.046,0.057,0.092,0.082,0.138c0.5-0.106,1.002-0.196,1.496-0.322c1.43-0.361,2.795-0.913,3.914-1.872
		c1.314-1.129,2.428-2.45,3.098-4.087c0.412-1.01,0.67-2.065,0.553-3.148c-0.092-0.867-0.531-1.218-1.336-0.694
		c-0.313,0.203-0.592,0.47-0.844,0.747c-0.68,0.743-1.367,1.481-1.992,2.27c-1.123,1.413-2.232,2.841-3.291,4.303
		C431.432,273.14,430.926,274.067,430.369,274.959z"/>
	<path fill="#255492" d="M372.35,278.854c-2.114,0.042-4.113-0.415-5.988-1.353c-1.529-0.765-2.894-1.784-3.832-3.246
		c-0.815-1.271-0.945-2.741-0.076-3.953c0.814-1.135,1.939-1.815,3.359-1.907c0.935-0.06,1.878-0.142,2.808-0.076
		c1.128,0.078,2.258,0.243,3.362,0.48c1.012,0.216,2.01,0.528,2.979,0.894c0.471,0.18,0.893,0.541,1.281,0.884
		c0.404,0.355,0.309,0.943-0.111,1.283c-0.66,0.535-1.447,0.758-2.254,0.901c-1.508,0.264-2.986,0.041-4.414-0.466
		c-0.724-0.257-1.379-0.704-2.102-0.968c-0.563-0.205-1.178-0.302-1.778-0.369c-0.509-0.059-1.155,0.513-1.304,1.055
		c-0.127,0.463,0.168,0.967,0.726,1.269c0.775,0.419,1.61,0.604,2.479,0.676c0.673,0.055,1.346,0.171,2.017,0.168
		c0.779-0.003,1.562-0.078,2.335-0.176c0.943-0.12,1.895-0.239,2.818-0.463c1.379-0.335,2.711-0.797,3.758-1.852
		c0.674-0.677,0.488-1.396-0.199-1.875c-0.961-0.67-2.088-0.935-3.203-1.168c-1.311-0.272-2.637-0.487-3.969-0.645
		c-1.282-0.15-2.581-0.157-3.864-0.296c-1.479-0.161-2.966-0.286-4.386-0.801c-1.177-0.428-1.599-1.021-1.637-2.268
		c-0.033-1.1,0.195-2.147,0.582-3.153c0.381-0.991,1.186-1.627,2.092-2.124c1.714-0.941,3.565-1.482,5.49-1.767
		c1.226-0.181,2.457-0.378,3.693-0.441c1.207-0.061,2.424,0.025,3.637,0.076c0.795,0.033,1.59,0.091,2.381,0.185
		c1.33,0.159,2.654,0.351,3.873,0.968c0.691,0.351,0.852,0.631,0.6,1.316c-0.416,1.131-0.83,1.89-2.555,1.914
		c-1.326,0.019-2.65,0.107-3.977,0.177c-0.932,0.049-1.863,0.102-2.793,0.183c-1.551,0.137-3.104,0.269-4.651,0.458
		c-1.091,0.133-2.173,0.351-3.256,0.543c-0.141,0.025-0.295,0.09-0.395,0.187c-0.108,0.105-0.245,0.29-0.216,0.4
		c0.034,0.132,0.216,0.29,0.358,0.32c0.83,0.173,1.662,0.325,2.499,0.457c0.854,0.136,1.714,0.248,2.573,0.354
		c0.432,0.054,0.867,0.084,1.303,0.104c2.156,0.098,4.287,0.34,6.324,1.102c1.584,0.592,2.896,1.512,3.404,3.234
		c0.361,1.227,0.414,2.484,0.209,3.749c-0.111,0.688-0.174,1.396-0.385,2.056c-0.414,1.291-1.4,2.087-2.627,2.522
		c-1.311,0.467-2.65,0.878-4.006,1.177C374.352,278.788,373.34,278.77,372.35,278.854z"/>
	<path fill="#255492" d="M407.772,263.39c-0.51-0.134-0.973-0.231-1.416-0.379c-1.234-0.41-1.846-1.407-2.291-2.531
		c-0.129-0.324,0.279-0.848,0.727-0.93c1.258-0.232,2.518-0.476,3.785-0.639c1.529-0.196,3.066-0.35,4.605-0.458
		c1.506-0.106,3.018-0.199,4.523-0.165c0.869,0.02,1.797-0.042,2.568,0.6c0.945,0.788,1.67,1.727,2.072,2.877
		c0.309,0.887-0.174,1.436-1.209,1.516c-1.527,0.118-3.053,0.261-4.58,0.359c-1.34,0.086-2.684,0.136-4.023,0.178
		c-0.271,0.009-0.391,0.083-0.471,0.347c-0.229,0.75-0.49,1.491-0.771,2.329c0.5-0.029,0.928-0.067,1.355-0.077
		c0.758-0.017,1.516-0.026,2.273-0.021c0.391,0.004,0.781,0.048,1.17,0.077s0.783,0.035,1.164,0.102
		c0.451,0.079,0.723,0.413,0.73,0.841c0.014,0.707-0.027,1.419-0.105,2.122c-0.051,0.462-0.441,0.651-0.848,0.744
		c-0.291,0.066-0.594,0.104-0.891,0.109c-2.047,0.039-4.094,0.071-6.141,0.089c-0.301,0.002-0.449,0.067-0.545,0.382
		c-0.328,1.081-0.678,2.155-1.055,3.217c-0.135,0.382,0.025,0.462,0.322,0.415c1.014-0.16,2.021-0.365,3.035-0.516
		c1.035-0.153,2.076-0.271,3.115-0.386c0.715-0.079,1.436-0.172,2.152-0.176c1.313-0.011,2.492,1.957,1.775,2.998
		c-0.359,0.521-0.875,0.966-1.396,1.342c-1.807,1.312-3.783,2.315-5.926,2.948c-0.92,0.271-1.889,0.401-2.842,0.541
		c-1.162,0.171-2.25-0.043-3.186-0.806c-1.365-1.111-2.32-2.423-2.33-4.293c-0.012-1.941,0.525-3.737,1.248-5.502
		c0.066-0.167,0.041-0.389,0.012-0.577c-0.1-0.645-0.285-1.282-0.322-1.929c-0.057-0.983,0.1-1.222,1.113-1.376
		c0.791-0.12,1.215-0.521,1.521-1.19C407.03,264.84,407.406,264.126,407.772,263.39z"/>
	<path fill="#255492" d="M388.918,266.701c-0.098,0.888-0.223,1.774-0.287,2.663c-0.111,1.531-0.139,3.07-0.297,4.597
		c-0.131,1.269-0.383,2.528-0.619,3.785c-0.17,0.911-0.875,1.28-1.691,1.394c-0.736,0.103-1.338-0.213-1.834-0.796
		c-0.574-0.675-0.623-1.504-0.748-2.3c-0.109-0.696-0.137-1.417-0.096-2.122c0.076-1.315,0.232-2.628,0.35-3.941
		c0.193-2.188,0.621-4.334,1.199-6.446c0.35-1.273,0.729-2.558,1.547-3.632c0.777-1.019,1.904-1.32,2.914-0.306
		c1.283,1.289,2.289,2.798,3.236,4.337c1.441,2.344,2.828,4.722,4.242,7.083c0.068,0.115,0.154,0.225,0.256,0.311
		c0.084,0.072,0.242,0.174,0.293,0.142c0.092-0.057,0.176-0.205,0.174-0.313c-0.018-0.862,0.004-1.732-0.105-2.585
		c-0.15-1.18-0.395-2.348-0.619-3.516c-0.221-1.152-0.443-2.306-0.707-3.449c-0.373-1.619-0.826-3.221-1.162-4.848
		c-0.111-0.54-0.041-1.148,0.074-1.698c0.125-0.584,0.811-0.72,1.4-0.339c1.375,0.888,2.385,2.114,3.236,3.491
		c1.252,2.02,2.002,4.231,2.328,6.556c0.232,1.65,0.32,3.337,0.275,5.002c-0.047,1.829-0.32,3.66-0.98,5.387
		c-0.553,1.446-1.398,2.614-3.039,3.018c-1.107,0.272-2.486-0.388-3.174-1.214c-2.371-2.848-3.775-6.241-5.461-9.476
		c-0.148-0.286-0.348-0.546-0.521-0.816C389.041,266.68,388.981,266.691,388.918,266.701z"/>
	<path fill="#255492" d="M354.531,253.478c-0.405,0.494-0.744,0.952-1.129,1.363c-0.488,0.521-1.223,0.504-1.734-0.009
		c-0.735-0.736-1.214-1.598-1.168-2.668c0.015-0.347,0.136-0.69,0.188-0.933c-0.406-0.67-0.881-1.265-1.151-1.941
		c-0.505-1.263-0.478-2.567,0.03-3.847c0.457-1.152,1.167-2.134,1.976-3.063c2.035-2.338,4.673-3.598,7.629-4.261
		c1.309-0.293,2.658-0.397,3.997-0.275c1.063,0.097,2.143,0.253,3,0.994c0.265,0.229,0.524,0.505,0.67,0.814
		c0.138,0.289,0.331,0.343,0.578,0.364c1.18,0.105,2.219,0.527,2.982,1.45c0.644,0.779,0.816,1.728,0.677,2.707
		c-0.268,1.884-1.241,3.409-2.485,4.805c-1.85,2.078-4.1,3.567-6.687,4.51c-1.02,0.371-2.138,0.508-3.223,0.658
		C357.221,254.347,355.817,254.042,354.531,253.478z M356.373,249.799c0.019,0.057,0.038,0.113,0.057,0.17
		c0.657,0.088,1.312,0.226,1.972,0.256c1.383,0.062,2.746-0.106,4.078-0.511c1.632-0.497,2.99-1.402,4.061-2.721
		c0.524-0.646,1.024-1.328,1.163-2.178c0.172-1.062-0.211-1.645-1.128-1.776c-0.847-0.121-1.66,0.09-2.442,0.431
		c-1.97,0.861-3.66,2.135-5.207,3.596C358.023,247.92,357.221,248.884,356.373,249.799z M352.722,247.805
		c1.662-2.334,3.618-4.313,6.015-5.875c-0.71,0.027-1.404,0.067-2.056,0.255c-1.958,0.565-3.226,1.925-4.019,3.747
		C352.41,246.512,352.297,247.146,352.722,247.805z"/>
	<path fill="#255492" d="M359.157,272.041c0,0.913,0.047,1.828-0.012,2.736c-0.064,0.982-0.233,1.956-0.346,2.935
		c-0.082,0.704-0.469,1.088-1.168,1.203c-0.912,0.151-1.79,0.064-2.626-0.329c-0.66-0.313-0.855-0.949-0.94-1.584
		c-0.116-0.862-0.17-1.736-0.19-2.606c-0.03-1.341-0.042-2.684,0.001-4.024c0.055-1.701,0.162-3.4,0.271-5.1
		c0.067-1.063,0.144-2.128,0.276-3.184c0.174-1.4,0.276-2.817,0.81-4.151c0.216-0.54,0.629-0.837,1.16-0.938s0.91,0.205,1.214,0.618
		c0.55,0.746,1.071,1.506,1.219,2.451c0.058,0.369,0.138,0.738,0.144,1.109c0.042,2.426,0.072,4.853,0.095,7.279
		c0.011,1.195,0.002,2.391,0.002,3.584C359.097,272.041,359.127,272.041,359.157,272.041z"/>
	<path fill="#255492" d="M428.221,296.262c0,0.88-0.523,1.374-1.375,1.426c-0.801,0.05-1.463-0.725-1.447-1.447
		c0.02-0.749,0.691-1.449,1.447-1.404C427.698,294.887,428.221,295.383,428.221,296.262z M427.946,296.328
		c0.006-0.728-0.422-1.255-1.09-1.264c-0.59-0.008-1.107,0.454-1.102,1.158c0.006,0.732,0.508,1.294,1.158,1.267
		C427.453,297.468,427.942,296.92,427.946,296.328z"/>
	<path fill="#255492" d="M427.5,296.846c-0.037,0.077-0.055,0.195-0.121,0.241c-0.23,0.157-0.904,0.011-1.113-0.223
		c-0.271-0.305-0.277-0.87-0.012-1.186c0.232-0.277,0.793-0.376,1.115-0.183c0.057,0.033,0.072,0.131,0.107,0.199
		c-0.094,0.002-0.193,0.025-0.279,0.003c-0.334-0.087-0.639,0-0.768,0.298c-0.121,0.274-0.102,0.641,0.232,0.782
		C426.887,296.873,427.17,296.825,427.5,296.846z"/>
</g>
</svg>
