<?xml version="1.0" encoding="utf-8"?>
<!-- Generator: Adobe Illustrator 16.0.0, SVG Export Plug-In . SVG Version: 6.00 Build 0)  -->
<!DOCTYPE svg PUBLIC "-//W3C//DTD SVG 1.1//EN" "http://www.w3.org/Graphics/SVG/1.1/DTD/svg11.dtd">
<svg version="1.1" id="Layer_1" xmlns="http://www.w3.org/2000/svg" xmlns:xlink="http://www.w3.org/1999/xlink" x="0px" y="0px"
	 width="233px" height="160.174px" viewBox="0 0 233 160.174" enable-background="new 0 0 233 160.174" xml:space="preserve">
<g>
	<path fill-rule="evenodd" clip-rule="evenodd" fill="#255492" d="M181.322,110.573c-1.022-0.587-1.892-1.082-2.758-1.584
		c-1.471-0.852-2.947-1.698-4.409-2.566c-0.788-0.467-1.535-1.006-2.331-1.459c-1.544-0.88-3.113-1.717-4.662-2.588
		c-0.223-0.125-0.391-0.346-0.628-0.563c-0.556,0.141-1.406-0.508-1.406-1.171c0-10.222,0.001-20.444,0.001-30.667
		c0-0.295,0-0.591,0-0.988c0.225,0.091,0.388,0.137,0.531,0.219c2.271,1.306,4.544,2.607,6.807,3.928
		c1.514,0.884,3.004,1.808,4.519,2.692c1.021,0.596,2.066,1.153,3.099,1.731c0.35,0.196,0.707,0.385,1.033,0.615
		c0.109,0.077,0.182,0.268,0.193,0.414c0.029,0.345,0.014,0.694,0.014,1.042c0,10.057-0.002,20.113-0.002,30.171
		C181.322,110.005,181.322,110.212,181.322,110.573z"/>
	<path fill-rule="evenodd" clip-rule="evenodd" fill="#255492" d="M113.702,80.837c0-4.731,0-9.462,0-14.192
		c0-0.771,0.14-0.885,0.933-0.88c2.512,0.015,5.023-0.015,7.534,0.034c1.302,0.025,2.618,0.074,3.896,0.299
		c1.816,0.32,3.512,1.029,4.839,2.365c0.724,0.728,1.281,1.632,1.508,2.635c0.36,1.589,0.751,3.199,0.841,4.815
		c0.15,2.72,0.094,5.454,0.084,8.181c-0.004,1.022-0.056,2.054-0.199,3.065c-0.313,2.21-0.84,4.379-2.518,5.992
		c-1.191,1.145-2.614,1.86-4.305,2.194c-1.992,0.394-3.976,0.364-5.971,0.38c-2.018,0.018-4.036-0.006-6.054,0.01
		c-0.422,0.003-0.564-0.107-0.562-0.561c0.018-4.779,0.011-9.559,0.011-14.338C113.726,80.837,113.714,80.837,113.702,80.837z
		 M119.928,80.611c0.002,0,0.004,0,0.007,0c0,3.11-0.003,6.22,0.003,9.329c0.002,0.672,0.175,0.852,0.842,0.898
		c0.445,0.031,0.896,0.055,1.339,0.018c0.655-0.053,1.364-0.028,1.943-0.281c0.773-0.338,1.376-0.959,1.835-1.721
		c0.822-1.366,0.889-2.898,0.99-4.401c0.126-1.829,0.18-3.671,0.107-5.502c-0.068-1.726-0.262-3.458-0.548-5.163
		c-0.305-1.812-1.702-2.728-3.181-3.065c-0.745-0.171-1.543-0.124-2.318-0.145c-0.947-0.026-1.016,0.043-1.018,1.001
		C119.924,74.59,119.928,77.601,119.928,80.611z"/>
	<path fill-rule="evenodd" clip-rule="evenodd" fill="#255492" d="M106.691,95.73c-0.811,0-1.621,0-2.432-0.001
		c-0.571,0-0.853-0.205-0.992-0.746c-0.46-1.789-0.919-3.578-1.371-5.37c-0.1-0.396-0.32-0.581-0.737-0.58
		c-2.316,0.009-4.632,0.012-6.948,0.001c-0.383-0.002-0.548,0.137-0.642,0.512c-0.337,1.358-0.715,2.707-1.065,4.063
		c-0.057,0.221,0.001,0.48-0.086,0.684c-0.195,0.459-0.439,0.9-0.687,1.334c-0.041,0.07-0.202,0.102-0.308,0.102
		c-1.652,0.01-3.305,0.025-4.958,0.006c-0.588-0.008-0.677-0.235-0.514-0.806c0.417-1.456,0.792-2.925,1.202-4.383
		c0.66-2.349,1.339-4.69,1.998-7.039c0.262-0.935,0.477-1.882,0.738-2.817c0.598-2.138,1.216-4.271,1.818-6.409
		c0.601-2.136,1.192-4.274,1.787-6.412c0.105-0.38,0.198-0.764,0.302-1.145c0.157-0.572,0.537-0.929,1.068-0.927
		c2.131,0.005,4.263,0.033,6.394,0.043c0.35,0.002,0.535,0.11,0.478,0.493c-0.014,0.093,0.009,0.198,0.039,0.29
		c0.289,0.9,0.599,1.793,0.871,2.698c0.256,0.851,0.474,1.714,0.71,2.571c0.431,1.557,0.863,3.113,1.296,4.668
		c0.335,1.204,0.68,2.405,1.006,3.612c0.515,1.909,1.01,3.823,1.529,5.73c0.385,1.413,0.806,2.815,1.19,4.228
		c0.368,1.353,0.707,2.713,1.067,4.066c0.076,0.287,0.186,0.564,0.29,0.843c0.2,0.536,0.101,0.69-0.463,0.692
		C108.412,95.731,107.552,95.73,106.691,95.73z M97.665,84.155c0,0.001,0,0.002,0,0.003c0.628,0,1.256,0.001,1.884-0.001
		c0.775-0.002,0.858-0.117,0.677-0.881c-0.439-1.859-0.879-3.717-1.311-5.578c-0.256-1.106-0.479-2.221-0.76-3.32
		c-0.052-0.202-0.293-0.457-0.487-0.498c-0.353-0.074-0.379,0.276-0.435,0.532c-0.32,1.48-0.623,2.964-0.962,4.439
		c-0.365,1.588-0.753,3.172-1.157,4.751c-0.106,0.416,0.028,0.555,0.417,0.553C96.244,84.153,96.955,84.155,97.665,84.155z"/>
	<path fill-rule="evenodd" clip-rule="evenodd" fill="#255492" d="M138.456,80.671c0-4.831,0.005-9.662-0.009-14.493
		c-0.002-0.425,0.093-0.571,0.543-0.57c4.963,0.015,9.926,0.009,14.889,0.01c0.555,0,0.715,0.16,0.717,0.699
		c0.001,1.305-0.008,2.609,0.004,3.914c0.004,0.335-0.091,0.457-0.453,0.454c-2.842-0.018-5.686-0.013-8.527-0.016
		c-0.678,0-0.74,0.046-0.744,0.729c-0.009,1.87,0.002,3.739-0.012,5.608c-0.004,0.458,0.189,0.599,0.63,0.598
		c2.53-0.006,5.061,0.004,7.591,0.019c0.813,0.005,0.818,0.02,0.823,0.858c0.007,1.208-0.015,2.415,0.011,3.622
		c0.01,0.424-0.147,0.538-0.546,0.536c-2.53-0.012-5.063,0.019-7.593-0.021c-0.682-0.01-0.965,0.437-0.963,0.978
		c0.01,1.817,0.03,3.636,0.06,5.454c0.007,0.411,0.034,0.83,0.122,1.229c0.033,0.152,0.246,0.331,0.41,0.372
		c0.248,0.065,0.524,0.024,0.789,0.024c2.713-0.001,5.426-0.003,8.139-0.005c0.515,0,0.707,0.191,0.705,0.709
		c-0.006,1.29-0.021,2.58-0.016,3.871c0.002,0.367-0.144,0.484-0.502,0.483c-5.193-0.007-10.389-0.009-15.583,0.002
		c-0.4,0.001-0.493-0.142-0.493-0.524C138.461,90.365,138.456,85.518,138.456,80.671z"/>
	<path fill-rule="evenodd" clip-rule="evenodd" fill="#255492" d="M79.787,75.048c-0.827,0-1.654-0.013-2.481,0.006
		c-0.375,0.008-0.542-0.124-0.555-0.507c-0.02-0.545-0.034-1.096-0.128-1.631c-0.105-0.593-0.287-1.174-0.456-1.754
		c-0.379-1.304-2.254-1.651-3.297-1.357c-1.514,0.426-2.085,1.593-2.361,2.937c-0.723,3.513-0.469,7.077-0.417,10.626
		c0.019,1.285,0.126,2.572,0.263,3.852c0.114,1.07,0.352,2.123,1.136,2.945c0.423,0.445,0.866,0.846,1.563,0.75
		c0.661-0.092,1.35-0.063,1.984-0.238c0.863-0.238,1.376-0.941,1.531-1.783c0.199-1.08,0.272-2.188,0.358-3.285
		c0.055-0.707,0.026-0.715,0.733-0.715c1.604-0.002,3.209-0.006,4.813-0.002c0.625,0.002,0.636,0.039,0.657,0.64
		c0.064,1.832-0.086,3.639-0.745,5.362c-0.205,0.535-0.568,1.014-0.882,1.504c-0.269,0.42-0.568,0.818-0.858,1.225
		c-0.047,0.066-0.103,0.137-0.171,0.178c-0.648,0.389-1.266,0.863-1.961,1.134c-0.751,0.293-1.586,0.36-2.367,0.587
		c-1.394,0.406-2.809,0.287-4.215,0.198c-1.831-0.116-3.538-0.679-4.955-1.872c-1.506-1.268-2.253-2.954-2.621-4.887
		c-0.628-3.303-0.671-6.637-0.63-9.971c0.031-2.522,0.108-5.059,0.69-7.536c0.327-1.394,0.838-2.737,1.825-3.792
		c0.609-0.651,1.338-1.26,2.13-1.653c2.108-1.046,4.374-1.32,6.717-1.08c1.335,0.137,2.656,0.289,3.856,0.936
		c0.274,0.148,0.491,0.402,0.742,0.596c0.303,0.234,0.635,0.434,0.918,0.689c0.312,0.281,0.65,0.568,0.859,0.922
		c0.893,1.519,1.407,3.152,1.356,4.939c-0.014,0.479,0.004,0.96,0.04,1.438c0.033,0.446-0.123,0.628-0.59,0.612
		c-0.826-0.029-1.653-0.008-2.48-0.008C79.787,75.05,79.787,75.049,79.787,75.048z"/>
	<path fill-rule="evenodd" clip-rule="evenodd" fill="#255492" d="M164.943,49.408c5.507,0,10.926,0,16.375,0
		c0,5.429,0,10.831,0,16.297c-0.163,0.011-0.336,0.032-0.51,0.032c-5.095,0.001-10.189-0.003-15.285,0.009
		c-0.435,0.001-0.594-0.095-0.592-0.572c0.018-5.079,0.012-10.157,0.012-15.236C164.943,49.776,164.943,49.614,164.943,49.408z"/>
	<path fill-rule="evenodd" clip-rule="evenodd" fill="#255492" d="M58.375,80.799c0,4.798-0.005,9.596,0.009,14.394
		c0.001,0.407-0.095,0.547-0.517,0.542c-1.72-0.019-3.441-0.009-5.162-0.002c-0.288,0.001-0.403-0.058-0.542-0.383
		c-0.275-0.647-0.189-1.288-0.19-1.931c-0.009-8.918-0.006-17.835-0.006-26.753c0-0.083,0.001-0.166,0-0.248
		c-0.011-0.795-0.011-0.797,0.819-0.798c1.622-0.002,3.243-0.002,4.864-0.001c0.564,0.001,0.73,0.174,0.73,0.737
		c0,4.814,0,9.628,0,14.443C58.379,80.799,58.377,80.799,58.375,80.799z"/>
</g>
</svg>
