<?xml version="1.0" encoding="utf-8"?>
<!-- Generator: Adobe Illustrator 16.0.0, SVG Export Plug-In . SVG Version: 6.00 Build 0)  -->
<!DOCTYPE svg PUBLIC "-//W3C//DTD SVG 1.1//EN" "http://www.w3.org/Graphics/SVG/1.1/DTD/svg11.dtd">
<svg version="1.1" id="Layer_1" xmlns="http://www.w3.org/2000/svg" xmlns:xlink="http://www.w3.org/1999/xlink" x="0px" y="0px"
	 width="163.274px" height="163.274px" viewBox="0 0 163.274 163.274" enable-background="new 0 0 163.274 163.274"
	 xml:space="preserve">
<g transform="translate(0,-952.36218)">
	<path fill="#235591" d="M163.274,1034c0,45.087-36.55,81.637-81.637,81.637S0,1079.087,0,1034s36.55-81.638,81.637-81.638
		S163.274,988.913,163.274,1034z"/>
	<g>
		<path fill="#FFFFFF" d="M92.041,979.88c3.161,0,5.826,1.097,7.993,3.289c2.168,2.193,3.252,4.845,3.252,7.955
			c0,3.111-1.097,5.763-3.289,7.956c-2.193,2.192-4.846,3.289-7.956,3.289c-3.06,0-5.687-1.097-7.879-3.289
			c-2.192-2.193-3.29-4.845-3.29-7.956c0-3.11,1.083-5.762,3.251-7.955C86.291,980.976,88.93,979.88,92.041,979.88z
			 M96.784,1015.067l-15.682,54.388c-0.867,3.111-1.3,5.151-1.3,6.12c0,0.561,0.229,1.083,0.688,1.567
			c0.459,0.485,0.943,0.728,1.454,0.728c0.866,0,1.733-0.383,2.6-1.147c2.295-1.887,5.049-5.304,8.262-10.25l2.602,1.529
			c-7.701,13.412-15.886,20.118-24.555,20.118c-3.315,0-5.954-0.931-7.917-2.792s-2.945-4.22-2.945-7.075
			c0-1.887,0.433-4.284,1.3-7.19l10.633-36.565c1.02-3.519,1.53-6.17,1.53-7.955c0-1.122-0.484-2.116-1.453-2.983
			c-0.969-0.867-2.295-1.301-3.978-1.301c-0.765,0.001-1.683,0.026-2.754,0.077l0.995-3.061l25.932-4.207H96.784z"/>
	</g>
</g>
</svg>
