<?xml version="1.0" encoding="utf-8"?>
<!-- Generator: Adobe Illustrator 16.0.0, SVG Export Plug-In . SVG Version: 6.00 Build 0)  -->
<!DOCTYPE svg PUBLIC "-//W3C//DTD SVG 1.1//EN" "http://www.w3.org/Graphics/SVG/1.1/DTD/svg11.dtd">
<svg version="1.1" id="Layer_1" xmlns="http://www.w3.org/2000/svg" xmlns:xlink="http://www.w3.org/1999/xlink" x="0px" y="0px"
	 width="233px" height="160.174px" viewBox="0 0 233 160.174" enable-background="new 0 0 233 160.174" xml:space="preserve">
<g>
	<path fill-rule="evenodd" clip-rule="evenodd" fill="#255492" d="M118.121,39.206c0.969,1.133,1.938,2.266,2.977,3.484
		c2.025-0.215,3.951-0.379,5.867-0.638c1.529-0.208,2.742,0.195,3.717,1.427c1.064,1.35,2.197,2.647,3.27,3.932
		c1.994-0.101,4.092-0.725,5.779-0.146c1.699,0.583,2.986,2.363,4.455,3.619c-0.131,0.224-0.262,0.449-0.395,0.673
		c1.697-0.117,3.393-0.234,5.455-0.375c2.924,2.591,5.359,5.905,6.91,9.702c0.641,1.564,0.438,3.681,0.043,5.415
		c-0.645,2.831-0.074,5.097,1.965,7.078c0.129,0.128,0.111,0.407,0.111,0.408c-0.982,2.519-1.934,4.858-2.803,7.226
		c-0.748,2.038-1.455,2.439-3.674,1.876c-1.148-0.291-2.291-0.612-3.441-0.897c-0.195-0.049-0.422,0.017-0.795,0.043
		c-0.191,0.246-0.488,0.551-0.695,0.908c-0.836,1.455-2.039,1.77-3.586,1.297c-1.744-0.533-3.506-0.999-5.238-1.488
		c-1.693,3.248-2.434,3.567-5.932,2.559c-1.445-0.412-2.873-0.892-4.211-1.311c-0.305,0.211-0.586,0.298-0.627,0.453
		c-0.896,3.325-2.018,3.993-5.336,3.068c-1.559-0.433-3.078-1.016-4.652-1.375c-1.55-0.355-3.159-0.762-4.751,0.164
		c-0.764,2.77,0.682,4.75,2.862,7.063c-3.229-0.816-5.733-1.699-8.308-2.027c-2.507-0.319-5.086-0.07-7.815-0.07
		c0.071-0.574,0.059-1.21,0.233-1.787c1.246-4.113,0.16-7.395-3.324-9.958c-2.797-2.059-5.179-4.528-7.206-7.388
		c-1.541-2.173-2.61-4.46-2.944-7.085c-0.286-2.244-0.743-4.5-0.692-6.741c0.031-1.436,0.644-2.963,1.345-4.261
		c3.426-6.351,8.998-10.109,15.698-12.201c3.168-0.989,6.523-1.375,9.788-2.058c0.698-0.145,1.373-0.388,2.059-0.588
		C115.527,39.206,116.824,39.206,118.121,39.206z M151.203,67.114c-1.432,0.632-2.35,1.75-3.094,3.03
		c0.949,1.418,1.809,2.704,2.783,4.162c-2.771,1.409-2.043,4.255-3.586,6.263c2.447,0.215,4.398,2.159,6.678,1.215
		c0.934-2.906,1.781-5.546,2.629-8.181c-0.66-1.686-1.385-3.536-2.234-5.708c-0.26-0.032-0.893-0.05-1.49-0.2
		c-0.602-0.152-1.168-0.434-1.752-0.66c1.234,0,2.469,0,3.844,0c0-0.885,0-1.568,0-2.75C153.5,65.394,152.352,66.254,151.203,67.114
		z M142.787,65.175c-1.775,0.688-3.133,1.836-4.186,3.894c0.701,0.896,1.469,1.875,2.232,2.857c0.971,1.244,0.936,1.873-0.123,3.069
		c-0.408,0.46-0.951,0.894-1.143,1.441c-0.576,1.656-1.012,3.362-1.555,5.222c2.459,0.242,4.775,2.387,7.611,1.374
		c1.066-3.342,1.537-6.681,3.684-9.593c-1.986-1.693-2.791-4.061-2.723-6.651c-1.477-0.531-3.158-0.027-3.855-1.685
		c1.232,0.22,2.463,0.44,3.881,0.692c0-1.219,0-2.113,0-3.298c-1.215,0.665-2.178,1.14-3.078,1.71
		C143.211,64.412,143.033,64.846,142.787,65.175z M136.932,64.517c0.984-1.43,0.705-2.899,0.336-4.571
		c-3.26,1.381-5.793,3.355-8.152,5.563c-1.477,1.383-1.592,2.143-0.643,3.98c0.387,0.75,1.008,1.375,1.494,2.075
		c0.646,0.931,1.264,1.882,2.221,3.312c-1.146,0.842-2.084,1.53-2.41,1.77c-0.723,2.487-1.262,4.344-1.842,6.335
		c2.686,0.527,5.172,2.544,7.883,1.374c1.049-3.18,1.973-5.992,3.057-9.287c0.293-0.258,1-0.886,1.691-1.499
		c-3.115-4.508-3.115-4.508-3.58-9.138L136.932,64.517z M88.961,70.239c2.754,0.454,4.643-0.55,6.313-1.992
		c2.287-1.971,4.479-4.052,6.726-6.07c4.569-4.104,9.699-7.229,15.769-8.49c2.799-0.582,5.682-0.782,8.857-1.198
		c-1.463-2.188-2.809-4.202-4.23-6.33c-4.215,3.066-8.635,4.685-13.31,5.719c-2.45,0.542-5.17,0.18-7.195,2.326
		c-0.34,0.36-1.889-0.015-2.579-0.488c-0.86-0.59-0.832-1.689-0.266-2.635c0.563-0.938,1.418-1.4,2.456-1.039
		c0.779,0.27,1.461,0.815,2.258,1.28c5.529-2.281,10.779-5.046,15.073-9.273c-0.727-1.399-1.547-1.557-2.616-1.171
		c-2.734,0.99-5.542,1.805-8.215,2.935c-8.129,3.438-15.213,8.46-21.722,14.506C86.831,62.433,86.58,66.595,88.961,70.239z
		 M112.035,90.876c-0.272-0.845-0.592-1.627-0.771-2.438c-0.49-2.224,0.491-3.558,2.791-3.724c0.845-0.062,1.731,0.043,2.559,0.243
		c1.464,0.355,2.89,0.859,4.343,1.266c1.547,0.43,3.109,0.934,4.66-0.011c0.781-1.587-0.002-3.416,1.316-4.946
		c1.074-1.249,1.455-3.019,1.4-4.879c-0.023-0.737,1.381-1.518,2.193-2.339c-0.998-1.413-2.219-2.697-2.898-4.222
		c-0.68-1.526-0.82-3.292-1.193-4.934c-1.813-0.406-3.58-0.803-5.346-1.198c0.021-0.184,0.047-0.369,0.068-0.554
		c1.863,0.163,3.727,0.326,5.842,0.51c0-1.465,0-2.991,0-4.743c-5.289,2.354-9.49,5.653-12.493,10.303
		c-0.837,1.296-1.223,2.963-1.505,4.515c-0.252,1.382-0.067,2.937,1.407,3.661c1.448,0.708,1.8-1.153,2.838-1.541
		c-0.064,2.53-0.734,3.504-2.525,3.719c-2.173,0.26-3.099-0.672-4.234-4.432c-2.607,4.045-6.482,5.536-10.846,5.688
		c0.464,1.665,1.062,3.089,1.214,4.561c0.162,1.553-0.1,3.15-0.179,4.78C104.467,90.399,108.17,90.631,112.035,90.876z
		 M87.792,55.068c7.02-5.545,14.556-10.205,22.775-13.753C101.059,42.718,92.408,45.549,87.792,55.068z M136.846,53.953
		c-1.256-2.139-2.266-4.212-4.064-5.717c-1.9,1.076-3.66,2.073-5.563,3.15c0.498,1.188,0.979,2.331,1.457,3.467
		C131.5,54.542,134.037,54.262,136.846,53.953z M139.029,58.056c2.545-0.34,4.721-0.631,7.34-0.982
		c-1.152-1.623-2.096-2.951-3.035-4.273c-1.65,1.021-3,1.855-4.305,2.664C139.029,56.308,139.029,57.017,139.029,58.056z
		 M129.76,44.382c-0.123-0.305-0.244-0.611-0.365-0.916c-2.156,0.157-4.25,0.53-6.287,2.04c0.713,0.847,1.301,1.542,2.066,2.45
		C126.811,46.682,128.285,45.531,129.76,44.382z M152.609,56.665c-3.898,2.12-3.898,2.12-4.355,3.936
		c2.068-0.276,4.027-0.537,6.23-0.832C153.813,58.657,153.27,57.755,152.609,56.665z M137.084,52.002
		c1.262-1.171,2.533-1.742,3.174-3.124c-1.912-0.408-3.996,0.049-4.527,1.08C136.051,50.442,136.438,51.021,137.084,52.002z
		 M149.475,53.366c-0.068-0.251-0.139-0.501-0.207-0.753c-1.26,0.274-2.521,0.547-4.141,0.899c0.793,0.875,1.252,1.385,1.775,1.964
		C147.865,54.688,148.668,54.027,149.475,53.366z M103.001,52.21c-1.005-0.621-1.542-1.17-2.127-1.225
		c-0.306-0.029-0.972,0.817-0.963,1.259c0.01,0.44,0.687,1.244,1.018,1.217C101.493,53.416,102.016,52.847,103.001,52.21z"/>
	<path fill-rule="evenodd" clip-rule="evenodd" fill="#255492" d="M205.045,74.234c-2.945,1.576-6.26,1.399-9.414,1.883
		c-8.617,1.327-17.262,2.457-25.893,3.669c-2.025,0.285-4.043,0.641-6.074,0.864c-3.246,0.353-3.975-0.384-4.109-4.184
		c3.164-0.286,6.346-0.61,9.533-0.857c10.842-0.837,21.686-1.67,32.533-2.441c1.125-0.08,2.281,0.267,3.424,0.419
		C205.045,73.803,205.045,74.02,205.045,74.234z"/>
	<path fill-rule="evenodd" clip-rule="evenodd" fill="#255492" d="M27.956,99.534c3.928-0.951,7.855-1.904,12.151-2.944
		c-1.932,2.959-2.302,3.246-4.797,3.527c-2.447,0.272-4.903,0.479-7.354,0.715C27.956,100.397,27.956,99.968,27.956,99.534z"/>
	<path fill-rule="evenodd" clip-rule="evenodd" fill="#255492" d="M60.49,116.021c-0.541,0.326-1.077,0.679-1.641,0.977
		c-0.666,0.349-1.342,0.881-2.042,0.93c-2.196,0.151-4.293,0.774-6.441,1.132c-1.39,0.231-2.589-0.258-3.148-1.851
		c-2.877,2.493-5.946,3.893-9.596,3.75c-2.81-0.106-3.903-1.1-3.293-3.822c1.151-5.15,2.438-10.29,4.065-15.304
		c1.166-3.592,6.587-5.906,10.308-4.896c1.156,0.315,1.516,1.089,1.2,2.489c-1.138,0.646-2.432,1.381-3.923,2.225
		c-0.3-0.761-0.544-1.378-0.931-2.358c-0.618,0.674-1.336,1.104-1.496,1.687c-1.539,5.605-2.984,11.236-4.445,16.863
		c-0.016,0.063,0.118,0.164,0.181,0.247c3.79,0.125,7.416-2.151,8.662-5.372c0.619-1.605,1.234-3.227,2.043-4.739
		c0.937-1.744,2.528-2.578,4.534-2.621c1.794-0.036,3.586-0.125,5.706-0.204c-0.69,2.903-1.412,5.943-2.235,9.409
		c2.467-1.021,3.818-2.372,4.427-4.474c0.653-2.257,1.337-4.504,2.032-6.835c1.183,0.306,2.11,0.544,3.168,0.816
		c1.728-0.975,3.567-1.829,5.744-1.174c0.416,0.125,0.983-0.22,1.472-0.377c0.921-0.3,1.813-0.74,2.755-0.904
		c2.036-0.353,3.08,0.554,3.032,2.651c-0.025,1.063-0.283,2.129-0.488,3.185c-0.197,1.015-0.462,2.017-0.766,3.316
		c2.482-0.547,3.643-1.996,4.303-3.851c0.577-1.621,0.901-3.329,1.384-4.986c0.206-0.704,0.531-1.374,0.84-2.155
		c1.336,0.507,2.52,0.957,3.92,1.489c-0.642,2.71-1.252,5.28-1.932,8.149c2.443-0.475,3.532-1.925,4.227-3.771
		c0.341-0.906,0.5-1.879,0.834-2.789c0.827-2.253,2.221-3.91,4.711-4.459c0.818-0.181,1.562-0.683,2.375-0.91
		c0.983-0.271,2.004-0.408,3.142-0.63c0.414,1.307,0.726,2.291,1.033,3.264c2.504,0.106,1.752-2.396,2.988-3.58
		c1.735,0.842,3.548,0.704,5.306-0.301c0.361-0.208,0.823-0.262,1.249-0.334c1.991-0.331,3.152,0.57,3.041,2.632
		c-0.081,1.489-0.545,2.957-0.829,4.434c-0.135,0.697-0.25,1.397-0.453,2.546c2.444-1.185,3.87-2.618,4.469-4.829
		c0.561-2.067,1.121-4.135,1.742-6.435c1.174,0.251,2.189,0.47,2.689,0.574c1.893-0.487,3.311-1.04,4.768-1.181
		c1.855-0.183,2.646,0.602,2.531,2.47c-0.094,1.487-0.568,2.95-0.85,4.432c-0.133,0.693-0.207,1.397-0.348,2.387
		c2.621-1.07,3.9-2.776,4.443-5.121c1.092-4.718,3.018-5.856,8.035-6.481c0.879-0.112,1.818,0.3,2.602,0.446
		c0.928,5.021-0.008,6.188-6.34,8.178c-0.139,0.247-0.389,0.594-0.535,0.979c-0.141,0.374-0.176,0.791-0.258,1.202
		c0.393,0.236,0.697,0.578,0.914,0.529c4.01-0.908,7.273-2.687,8.25-7.139c0.322-1.471,0.793-2.904,1.273-4.627
		c1.297-0.177,2.621-0.357,4.236-0.577c0.012,3.708-2.217,6.727-1.803,10.79c2.113-4.112,2.213-8.224,3.939-12.17
		c1.236,0.374,2.41,0.731,3.953,1.199c-0.594,2.802-1.156,5.461-1.805,8.522c2.303-0.76,3.334-2.168,4.195-3.762
		c0.514-0.948,0.91-1.984,1.555-2.833c1.002-1.319,1.619-2.6,1.635-4.38c0.018-2.758,1.541-3.749,4.57-3.462
		c1.363,1.643,0.115,2.987-0.676,4.43c0.828,1.159,1.879,2.188,2.371,3.441c0.48,1.226,0.395,2.675,0.578,4.197
		c1.572-0.8,2.469-2.067,3.033-3.602c0.262-0.704,0.418-1.448,0.613-2.176c1.287-4.795,4.959-5.499,9.082-5.438
		c1.113,0.017,1.713,0.809,1.799,1.932c0.162,2.127-0.563,3.861-2.457,4.905c-1.025,0.563-2.188,0.879-3.295,1.296
		c-1.395,0.525-1.395,0.521-1.768,2.878c0.736,0,1.484,0.17,2.119-0.025c3.004-0.934,5.418-2.625,6.746-5.616
		c0.348-0.783,0.766-1.553,1.258-2.255c0.926-1.321,1.59-2.551,1.568-4.369c-0.035-2.859,1.729-3.963,4.746-3.565
		c1.313,1.699-0.156,3.008-0.732,4.642c1.752,1.989,3.994,3.968,2.287,7.593c2.055-0.794,2.77-2.3,3.805-3.338
		c1.115,0.229,1.336,0.782,0.844,1.638c-2.111,3.65-5.436,5.463-9.473,6.026c-1.877,0.26-3.195-1.013-4.152-2.031
		c-2.393,1.278-4.541,2.71-6.893,3.607c-2.307,0.877-4.824,1.251-6.879-0.802c-7.242,4.163-9.078,4.295-12.018,0.885
		c-1.266,0.989-2.471,2.077-3.82,2.937c-1.244,0.793-2.514,1.531-4.227,1.022c-0.762-0.226-1.781,0.404-2.678,0.657
		c-1.844,0.528-3.66,0.964-4.805-1.444c-2.814,2.534-6.064,3.829-9.752,3.666c-0.934-0.041-1.834-0.807-2.902-1.313
		c-1.463,0.782-3.176,1.929-5.053,2.648c-2.473,0.942-3.787-0.196-3.355-2.832c0.295-1.8,0.955-3.535,1.41-5.312
		c0.174-0.679,0.236-1.385,0.469-2.814c-1.99,2.166-1.869,4.325-2.506,6.176c-0.627,1.823-1.061,3.714-1.621,5.732
		c-1.559,0.226-3.031,0.44-4.588,0.666c-0.182-0.404-0.348-0.778-0.563-1.257c-1.192,0.623-2.363,1.285-3.581,1.851
		c-1.231,0.568-2.485,0.722-3.676-0.264c-0.804-1.728-0.07-3.361,0.371-5.008c0.437-1.623,0.907-3.237,0.983-4.965
		c-2.156,3.376-2.355,7.411-3.956,11.258c-1.413,0.238-2.95,0.5-4.944,0.836c0.747-2.982,1.383-5.522,2.039-8.144
		c-1.612-0.202-1.985,0.747-2.336,1.789c-0.482,1.423-0.848,2.925-1.57,4.225c-1.946,3.508-6.764,4.468-10.116,2.04
		c-1.116,0.715-2.231,1.545-3.448,2.185c-2.575,1.35-3.088,1.256-5.353-0.48c-1.571,0.838-3.02,1.823-4.612,2.41
		c-2.545,0.944-4.031-0.455-3.424-3.123c0.381-1.678,0.972-3.308,1.413-4.974c0.184-0.691,0.223-1.425,0.046-2.214
		c-2.04,3.384-2.238,7.386-3.77,11.141c-1.467,0.276-3.016,0.567-4.944,0.932c0.949-3.849,1.803-7.312,2.656-10.771
		c-0.225-0.062-0.449-0.126-0.672-0.188c-1.719,3.489-1.865,7.544-3.51,11.155C63.751,116.771,61.996,118.099,60.49,116.021z
		 M189.715,93.382c1.447,0.47,2.035-0.217,2.498-1.123c0.705-1.381,0.332-2.567-0.625-3.887
		C190.145,89.823,189.305,91.263,189.715,93.382z M164.318,97.426c2.814-0.596,3.293-2.416,1.311-4.853
		C164.42,94.01,163.549,95.473,164.318,97.426z M98.138,101.238c-1.969,4.871-2.2,6.041-1.736,8.243
		C97.847,107.149,98.629,103.88,98.138,101.238z M54.786,107.505c-1.902,2.47-2.801,5.723-2.496,8.622
		C53.559,113.625,54.176,110.945,54.786,107.505z M140.918,93.356c-0.604,1.691-0.992,2.778-1.383,3.865
		c0.234,0.087,0.469,0.177,0.699,0.262C141.158,96.599,141.926,95.651,140.918,93.356z M179.832,91.567
		c1.426-1.372,2.236-2.236,1.383-3.95C180.248,88.67,179.82,89.634,179.832,91.567z"/>
	<path fill-rule="evenodd" clip-rule="evenodd" fill="#255492" d="M166.094,107.701c-0.861,0.295-1.699,0.688-2.584,0.874
		c-13.387,2.782-26.773,5.559-40.174,8.281c-1.893,0.383-3.84,0.543-5.771,0.686c-7.308,0.542-14.62,1.021-21.928,1.551
		c-5.374,0.387-10.743,0.823-16.116,1.215c-0.928,0.067-1.865,0.008-2.802,0.008c-0.126-1.838,1.026-1.778,1.925-1.912
		c4.367-0.648,8.736-1.278,13.109-1.878c8.539-1.171,17.077-2.341,25.622-3.455c1.221-0.157,2.479-0.021,4.273-0.021
		c2.096-1.713,5.387-1.327,8.416-1.804c8.51-1.343,17.051-2.489,25.58-3.687c2.883-0.406,5.771-0.758,8.662-1.068
		c0.547-0.06,1.127,0.191,1.691,0.3C166.031,107.095,166.061,107.396,166.094,107.701z"/>
	<path fill-rule="evenodd" clip-rule="evenodd" fill="#255492" d="M79.956,78.495c-1.867-1.923-3.757-0.615-6.084-0.266
		c0.507-0.861,0.662-1.521,1.052-1.718c2.153-1.092,4.354-1.058,6.349-0.028c1.32-0.541,2.468-1.199,3.7-1.471
		c1.552-0.342,2.617,0.444,2.947,1.82c0.355,1.48-0.329,2.912-1.775,3.359c-0.897,0.276-1.879,0.276-3.109,0.438
		c-1.061,2.721-2.181,5.593-3.351,8.59c1.87,1.172,3.53,2.282,5.614,2.659c2.144,0.39,3.361-1.47,5.576-2.672
		c-2.926,5.14-5.773,5.703-12.755,3.242c-1.573,0.804-3.03,1.746-4.62,2.316c-1.795,0.643-3.037,0.074-3.544-1.226
		c-0.592-1.515,0.094-3.351,1.709-4.061c1.065-0.468,2.26-0.643,3.672-1.023c0.639-1.529,1.29-3.225,2.05-4.867
		C78.153,81.931,79.027,80.324,79.956,78.495z"/>
	<path fill-rule="evenodd" clip-rule="evenodd" fill="#255492" d="M88.608,82.615c0.324,2.52,0.227,2.731-1.549,3.542
		c-0.753,0.343-1.499,0.7-2.239,1.07c-0.063,0.032-0.057,0.2-0.112,0.419c1.685,0.594,3.054-0.164,3.956-1.342
		c1.081-1.413,2.542-2.634,2.809-4.604c0.167-1.229,0.946-1.892,2.562-1.5c-0.538,2.148,0.444,4.063,1.01,6.12
		c0.62-0.396,1.139-0.728,1.782-1.136c-1.051,3.504-4.26,4.555-7.454,2.865c-1.864,0.553-3.461,1.215-5.123,1.473
		c-1.624,0.251-2.351-0.756-2.055-2.385C82.933,83.058,85.005,81.597,88.608,82.615z"/>
	<path fill-rule="evenodd" clip-rule="evenodd" fill="#255492" d="M52.075,97.724c-1.049-0.975-1.922-1.782-3.025-2.806
		c6.27-1.314,12.457-2.61,18.838-3.948c0.31,1.453,0.588,2.759,0.935,4.387C63.1,96.164,57.495,96.958,52.075,97.724z"/>
	<path fill-rule="evenodd" clip-rule="evenodd" fill="#255492" d="M87.823,98.619c-1.104-1.608-0.264-2.91,0.975-3.814
		c1.066-0.776,2.398-1.331,3.693-1.602c0.627-0.132,1.776,0.426,2.075,0.993c0.306,0.583,0.084,1.691-0.296,2.338
		C93.028,98.647,90.813,99.298,87.823,98.619z"/>
	<path fill-rule="evenodd" clip-rule="evenodd" fill="#255492" d="M126.867,68.473c-1.301,0.909-1.982,1.384-2.707,1.887
		c-0.875-0.479-1.707-0.934-2.729-1.493C123.021,67.061,124.584,68.414,126.867,68.473z"/>
	<path fill-rule="evenodd" clip-rule="evenodd" fill="#255492" d="M136.918,68.603c-0.969,0.282-1.727,0.502-2.484,0.723
		c0.24,0.297,0.482,0.592,0.723,0.889c-0.877-0.522-1.756-1.044-2.902-1.726C134.016,67.344,135.334,67.983,136.918,68.603z"/>
	<path fill-rule="evenodd" clip-rule="evenodd" fill="#255492" d="M136.986,64.432c-1.488,1.117-2.836-0.125-4.242-0.309
		c1.484-0.945,2.854-0.5,4.188,0.395L136.986,64.432z"/>
	<path fill-rule="evenodd" clip-rule="evenodd" fill="#255492" d="M142.945,69.285c0.961,0,1.918,0,3.385,0
		c-0.563,0.785-0.84,1.167-1.271,1.769c-0.797-0.456-1.531-0.876-2.268-1.298C142.844,69.599,142.895,69.442,142.945,69.285z"/>
</g>
</svg>
