<?xml version="1.0" encoding="utf-8"?>
<!-- Generator: Adobe Illustrator 16.0.0, SVG Export Plug-In . SVG Version: 6.00 Build 0)  -->
<!DOCTYPE svg PUBLIC "-//W3C//DTD SVG 1.1//EN" "http://www.w3.org/Graphics/SVG/1.1/DTD/svg11.dtd">
<svg version="1.1" id="Layer_1" xmlns="http://www.w3.org/2000/svg" xmlns:xlink="http://www.w3.org/1999/xlink" x="0px" y="0px"
	 width="100px" height="100px" viewBox="0 0 100 100" enable-background="new 0 0 100 100" xml:space="preserve">
<g>
	<path fill="#255492" d="M65.962,58.035c0.021-0.034,0.042-0.067,0.063-0.1c0-0.014,0-0.026,0.002-0.039
		c-0.01,0.011-0.014,0.021-0.021,0.03C65.99,57.964,65.977,57.999,65.962,58.035z"/>
	<path fill="#255492" d="M27.794,53.25c1.268-1.557,2.326-3.203,3.376-4.853c0.451-0.708,0.924-1.41,1.342-2.13
		c0.494-0.85,0.945-1.715,1.405-2.575c0.515-0.963,1.013-1.931,1.528-2.893c0.509-0.95,1.061-1.885,1.537-2.845
		c0.532-1.076,1.039-2.163,1.48-3.265c0.291-0.726,0.517-1.479,0.641-2.234c0.073-0.442-0.029-0.932-0.213-1.358
		c-0.091-0.213-0.249-0.426-0.281-0.695c-0.27-0.028-0.518,0.005-0.649-0.078c-0.524-0.329-1.012-0.202-1.467,0.047
		c-0.776,0.423-1.526,0.876-2.284,1.321c-0.542,0.317-1.072,0.646-1.621,0.956c-0.181,0.103-0.401,0.164-0.604,0.244
		c-0.031-0.029-0.062-0.059-0.093-0.088c0.483-0.617,0.965-1.234,1.45-1.85c0.035-0.045,0.091-0.08,0.135-0.12
		c0.198-0.186,0.413-0.363,0.589-0.561c0.284-0.32,0.548-0.651,0.81-0.982c0.365-0.46,0.929-0.838,0.921-1.451
		c-0.001-0.091,0.116-0.184,0.184-0.274c0.29-0.388,0.582-0.776,0.873-1.165c-0.347,0.082-0.507,0.461-0.991,0.26
		c0.158-0.188,0.304-0.342,0.422-0.509c0.074-0.104,0.192-0.261,0.145-0.335c-0.206-0.319-0.096-0.623,0.098-1.034
		c-0.224,0.157-0.342,0.216-0.421,0.299c-0.828,0.869-1.708,1.711-2.458,2.621c-1.341,1.626-2.61,3.289-3.894,4.944
		c-0.317,0.408-0.57,0.846-0.863,1.267c-0.53,0.763-1.08,1.519-1.601,2.285c-0.529,0.778-0.974,1.579-1.758,2.25
		c-2.729,2.339-5.259,4.813-7.769,7.299c-0.857,0.849-1.75,1.675-2.621,2.512c-1.676,1.612-3.2,3.323-4.813,4.977
		c-1.28,1.313-2.592,2.611-3.902,3.906c-1.116,1.102-2.265,2.183-3.37,3.291c-0.387,0.387-0.7,0.825-1.021,1.252
		c-0.21,0.28-0.049,0.76,0.284,0.963c0.21,0.127,0.452,0.053,0.836-0.256c0.031-0.025,0.073-0.043,0.111-0.063
		c0.478,0.21,0.611,0.193,0.937-0.135c0.096-0.098,0.144-0.225,0.244-0.319c0.156-0.147,0.307-0.347,0.515-0.407
		c0.45-0.132,0.74-0.384,1.025-0.658c0.342-0.33,0.688-0.66,1.032-0.988c1.033-0.991,2.065-1.983,3.099-2.975
		c0.214-0.205,0.381-0.486,0.658-0.598c0.435-0.178,0.683-0.461,0.947-0.744c1.182-1.259,2.334-2.537,3.531-3.788
		c1.178-1.234,2.398-2.442,3.594-3.665c0.757-0.773,1.501-1.555,2.258-2.329c0.194-0.198,0.416-0.379,0.625-0.567
		c0.082,0.146,0.085,0.255,0.04,0.347c-0.706,1.447-1.41,2.894-2.132,4.335c-0.421,0.843-0.929,1.66-1.301,2.517
		c-0.636,1.459-1.208,2.938-1.782,4.416c-0.437,1.125-0.859,2.256-1.24,3.393c-0.628,1.878-1.215,3.764-1.83,5.645
		c-0.047,0.144-0.159,0.28-0.276,0.399c-0.303,0.303-0.644,0.587-0.76,0.998c0.204,0.104,0.388,0.196,0.597,0.305
		c-0.264,1.147-0.516,2.284-0.79,3.417c0,0-1.871,13.721-1.334,21.998c0.015,0.229,0.158,0.44,0.45,0.493
		c0.323,0.06,0.688,0.205,0.993,0.017c0.293-0.186,0.641-0.235,0.989-0.328c0.054-0.457,0.135-0.895,0.146-1.33
		c0.413-15.348,1.919-22.875,1.919-22.875c0.104-0.545,0.212-1.09,0.307-1.637c0.098-0.562,0.386-1.007,1.07-1.27
		c0.231-0.09,0.411-0.271,0.595-0.426c0.17-0.141,0.307-0.309,0.472-0.452c0.419-0.37,0.902-0.702,1.258-1.104
		c0.929-1.054,1.818-2.129,2.698-3.207c1.304-1.601,2.595-3.207,3.874-4.818C26.412,55.085,27.064,54.146,27.794,53.25z
		 M15.055,69.318c-0.046-0.018-0.091-0.034-0.137-0.053c0.063-0.27,0.125-0.537,0.188-0.808c0.037,0.005,0.073,0.011,0.11,0.017
		C15.162,68.756,15.108,69.037,15.055,69.318z M15.312,68.139c-0.026-0.002-0.053-0.004-0.079-0.006
		c0.016-0.145,0.031-0.287,0.046-0.434c0.033,0.003,0.065,0.005,0.098,0.008C15.355,67.852,15.333,67.995,15.312,68.139z
		 M19.673,52.657c0.477-1.105,1.009-2.196,1.525-3.291c0.173-0.367,0.357-0.73,0.551-1.089c0.055-0.101,0.164-0.185,0.365-0.232
		c-0.041,0.099-0.075,0.2-0.123,0.296c-0.524,1.057-1.121,2.097-1.552,3.179c-0.324,0.81-0.666,1.609-1.081,2.394
		c-0.021,0.039-0.069,0.067-0.109,0.101C19.118,53.511,19.484,53.096,19.673,52.657z M18.372,55.761
		c0.17-0.44,0.332-0.885,0.53-1.317c0.067-0.146,0.224-0.27,0.342-0.402c0.02,0.048,0.054,0.098,0.039,0.134
		c-0.265,0.61-0.538,1.218-0.937,1.8C18.354,55.902,18.346,55.827,18.372,55.761z M18.316,56.413
		c-0.055,0.138-0.111,0.274-0.188,0.466C18.063,56.605,18.063,56.605,18.316,56.413z M17.114,59.064
		c0.219-0.61,0.457-1.217,0.692-1.824c0.019-0.049,0.07-0.088,0.212-0.094c-0.258,0.723-0.515,1.443-0.78,2.164
		c-0.021,0.054-0.092,0.098-0.146,0.144C17.094,59.323,17.071,59.188,17.114,59.064z M16.349,62.592
		c-0.098,0.326-0.32,0.629-0.563,0.938c-0.004-0.088-0.035-0.18-0.01-0.262c0.341-1.107,0.685-2.218,1.043-3.322
		c0.048-0.149,0.159-0.287,0.249-0.43c-0.029,0.23-0.045,0.461-0.1,0.688C16.774,61.001,16.587,61.802,16.349,62.592z
		 M20.982,57.686c-0.777,0.959-1.58,1.905-2.374,2.855c-0.34,0.406-0.688,0.809-1.122,1.318c0.091-0.539,0.161-0.952,0.23-1.363
		c-0.047-0.007-0.093-0.014-0.14-0.02c-0.328,0.651-0.25,1.409-0.712,2.026c-0.048-0.01-0.097-0.021-0.145-0.028
		c0.09-0.33,0.168-0.664,0.272-0.99c0.288-0.911,0.567-1.826,0.886-2.73c0.319-0.906,0.672-1.809,1.025-2.707
		c0.673-1.716,1.404-3.416,2.235-5.087c0.492-0.99,1.055-1.957,1.568-2.939c0.316-0.607,0.583-1.23,0.901-1.837
		c0.36-0.688,0.758-1.365,1.125-2.052c0.112-0.209,0.176-0.436,0.262-0.654c-0.057,0.096-0.081,0.231-0.176,0.279
		c-0.434,0.216-0.647,0.582-0.996,0.918c0.101-0.67,0.726-1.717,1.139-1.888c0.039,0.192,0.075,0.374,0.112,0.555
		c0.226-0.364,0.459-0.726,0.677-1.094c0.115-0.196,0.2-0.396,0.517-0.458c0.098-0.018,0.239-0.096,0.251-0.159
		c0.078-0.418,0.613-0.688,0.554-1.169c-0.024-0.197,0.041-0.517,0.456-0.583c0.035-0.006,0.064-0.048,0.088-0.078
		c1.094-1.278,2.546-2.308,3.875-3.42c1.124-0.942,2.271-1.882,3.611-2.649c0.16-0.092,0.257-0.25,0.415-0.344
		c0.103-0.061,0.263-0.061,0.532-0.116c-0.162,0.417-0.281,0.733-0.406,1.048c-0.161,0.405-0.319,0.811-0.492,1.212
		c-0.267,0.625-0.52,1.254-0.825,1.867c-0.512,1.029-1.07,2.043-1.593,3.07c-0.614,1.206-1.155,2.436-1.83,3.619
		c-0.74,1.298-1.579,2.561-2.409,3.826c-0.571,0.87-1.175,1.726-1.812,2.567c-0.866,1.145-1.772,2.273-2.668,3.404
		C23.008,55.154,22.003,56.424,20.982,57.686z"/>
	<path fill="#255492" d="M38.04,46.603c0.113-0.047,0.188-0.111,0.228-0.188c0.207-0.397,0.407-0.796,0.609-1.195
		C38.236,45.546,38.229,46.108,38.04,46.603z"/>
	<path fill="#255492" d="M38.876,45.22c0.013-0.006,0.021-0.014,0.034-0.021c-0.002-0.001-0.018-0.012-0.018-0.012
		C38.887,45.198,38.881,45.208,38.876,45.22z"/>
	<path fill="#255492" d="M66.025,57.896c0.373-0.472,0.531-1.002,0.685-1.535c-0.392,0.309-0.419,0.75-0.629,1.123
		C66.014,57.604,66.033,57.756,66.025,57.896z"/>
	<path fill="#255492" d="M66.738,56.336c0.015-0.037,0.027-0.075,0.041-0.111c-0.021,0.031-0.039,0.064-0.059,0.099
		c-0.003,0.014-0.008,0.026-0.012,0.038C66.721,56.354,66.729,56.346,66.738,56.336z"/>
	<path fill="#255492" d="M39.788,43.729h0.003H39.788z"/>
	<path fill="#255492" d="M38.853,44.913c-0.037,0.068,0.021,0.167,0.047,0.255c0.295-0.481,0.591-0.96,0.888-1.439
		c-0.092,0.009-0.242-0.004-0.265,0.033C39.284,44.14,39.056,44.522,38.853,44.913z"/>
	<path fill="#255492" d="M38.91,45.199c-0.001-0.01-0.006-0.021-0.01-0.031c-0.003,0.006-0.007,0.012-0.01,0.017
		C38.892,45.188,38.908,45.198,38.91,45.199z"/>
	<path fill="#255492" d="M39.782,43.338c-0.051,0.113,0.001,0.256,0.008,0.385c0.157-0.354,0.315-0.708,0.472-1.062
		C40.057,42.874,39.891,43.098,39.782,43.338z"/>
	<polygon fill="#255492" points="39.791,43.729 39.79,43.723 39.787,43.729 	"/>
	<path fill="#255492" d="M42.317,39.017c0.03,0.011,0.06,0.022,0.089,0.033c0.187-0.262,0.373-0.524,0.559-0.787
		c-0.117,0.052-0.279,0.083-0.335,0.161C42.497,38.609,42.418,38.817,42.317,39.017z"/>
	<polygon fill="#255492" points="42.965,38.262 42.971,38.261 42.966,38.261 	"/>
	<path fill="#255492" d="M40.85,41.589c-0.172,0.26-0.296,0.448-0.419,0.636C40.687,42.093,40.967,41.976,40.85,41.589z"/>
	<path fill="#255492" d="M69.039,52.725c0.088-0.184,0.174-0.367,0.262-0.552c-0.049-0.014-0.096-0.026-0.145-0.04
		c-0.083,0.184-0.168,0.369-0.252,0.553C68.95,52.699,68.995,52.712,69.039,52.725z"/>
	<path fill="#255492" d="M41.907,39.677c-0.116,0.179-0.212,0.329-0.31,0.479l0.003-0.001
		C41.946,40.004,41.946,40.004,41.907,39.677z"/>
	<path fill="#255492" d="M41.342,40.658c0.04,0.009,0.078,0.017,0.117,0.026c0.047-0.177,0.094-0.354,0.142-0.531
		c0,0-0.003,0.001-0.004,0.001C41.512,40.323,41.427,40.491,41.342,40.658z"/>
	<path fill="#255492" d="M42.971,38.261c0-0.007-0.001-0.014-0.001-0.021c-0.002,0.007-0.003,0.013-0.005,0.021
		C42.966,38.261,42.971,38.261,42.971,38.261z"/>
	<path fill="#255492" d="M42.947,37.797c0.007,0.148,0.015,0.295,0.023,0.443c0.035-0.146,0.071-0.292,0.108-0.437
		C43.034,37.801,42.99,37.799,42.947,37.797z"/>
	<path fill="#255492" d="M69.585,50.648c0.013-0.022,0.017-0.035,0.019-0.039C69.43,50.965,69.387,51.053,69.585,50.648z"/>
	<path fill="#255492" d="M97.352,62.273c0,0.276-0.267,0.131-0.424,0.104c-0.324-0.057-0.637-0.223-0.955-0.225
		c-0.681-0.01-1.347-0.092-2.018-0.152c-0.723-0.066-1.446-0.133-2.173-0.163c-0.804-0.032-1.609-0.014-2.414-0.034
		c-0.58-0.015-1.159-0.066-1.738-0.085c-0.522-0.017-1.045,0.001-1.565-0.013c-0.709-0.02-1.416-0.063-2.123-0.077
		c-0.826-0.017-1.653-0.009-2.479-0.019c-0.771-0.008-1.542-0.041-2.313-0.028c-1.539,0.024-3.078,0.075-4.616,0.11
		c-1.194,0.029-2.388,0.043-3.582,0.076c-1.46,0.041-2.921,0.105-4.382,0.146c-0.764,0.021-1.526,0.014-2.291,0.028l0.213-0.629
		c0.229-0.488,0.508-0.965,0.728-1.455c0.267-0.604,0.501-1.215,0.745-1.822c-0.18,0.288-0.37,0.572-0.523,0.869
		c-0.453,0.869-0.885,1.742-1.33,2.613c-0.028,0.058-0.094,0.102-0.176,0.187c-0.002-0.396,2.18-5.164,3.242-7.142
		c0.071-0.131,0.164-0.256,0.309-0.361c0.011,0.398-0.203,0.738-0.357,1.093c-0.133,0.306-0.234,0.618-0.346,0.931
		c0.195-0.344,0.404-0.681,0.572-1.033c0.263-0.549,0.487-1.108,0.729-1.666c-0.09,0.095-0.188,0.186-0.271,0.281
		c-0.078,0.09-0.146,0.188-0.22,0.283c-0.047-0.018-0.093-0.033-0.139-0.05c0.202-0.435,0.405-0.869,0.608-1.304
		c0.049,0.002,0.099,0.007,0.147,0.011c-0.015,0.133-0.021,0.267-0.044,0.397c-0.025,0.135-0.07,0.268-0.105,0.399
		c0.141-0.142,0.279-0.282,0.43-0.437c0.084,0.091,0.14,0.148,0.195,0.207c0.352-0.246-0.174-0.352-0.115-0.535
		c0.063-0.201,0.16-0.396,0.246-0.602c-0.127-0.044-0.23-0.082-0.328-0.117c0.231-0.803,0.58-1.439,0.963-1.683
		c-0.19,0.474-0.357,0.89-0.528,1.313c0.209,0.035,0.33,0.056,0.452,0.072c0.005,0.002,0.018-0.027,0.023-0.041
		c-0.104-0.148-0.17-0.311-0.127-0.449c0.06-0.192,0.342-0.701,0.334-0.666c0.121-0.25,0.307-0.628,0.52-1.067
		c0.014-0.015,0.025-0.029,0.04-0.043l0.167-0.385c0.003-0.006,0.007-0.012,0.009-0.018l0,0l0.545-1.25c0,0,0,0,0.001,0
		c0.1-0.091,0.197-0.182,0.325-0.299c0.041,0.146,0.065,0.234,0.091,0.323c0.146-0.159,0.186-0.325,0.266-0.478
		c0.379-0.737,0.787-1.464,1.152-2.205c0.563-1.14,1.108-2.286,1.645-3.434c0.13-0.278,0.365-0.556,0.104-0.884
		c-0.053-0.067,0.06-0.232,0.13-0.338c0.36-0.561,0.756-1.109,1.096-1.678c0.27-0.449,3.392-6.37,3.621-6.833
		c0.151-0.303,0.293-0.611,0.441-0.915c0.154-0.313,0.445-0.603,0.198-0.976c-0.046-0.071,0.015-0.201,0.062-0.294
		c0.327-0.664,0.692-1.317,0.994-1.988c0.4-0.895,0.965-1.747,1.167-2.696c0.025-0.119,0.202-0.282,0.153-0.337
		c-0.26-0.288-0.084-0.557-0.002-0.831c-0.59-0.182-0.822-0.139-1.021,0.179c-1.094,1.747-2.089,3.527-2.966,5.349
		c-0.478,0.991-3.926,7.412-4.43,8.395c-0.431,0.839-0.851,1.681-1.271,2.523c-0.397,0.792-0.787,1.588-1.19,2.38
		c-0.304,0.597-0.609,1.193-0.94,1.78c0,0-0.73,1.388-1.002,1.841c-1.597,2.682-7.727,7.592-8.742,8.555
		c-0.789,0.729-1.183,0.779-1.998,1.492c-0.054,0.045-0.137,0.069-0.265,0.133c-0.013-0.203-0.063-0.36-0.021-0.498
		c0.274-0.857,0.656-2.875,0.968-3.724c0.78-2.13,1.636-4.239,2.696-6.294c0.658-1.276,1.312-2.554,1.951-3.836
		c0.67-1.341,1.313-2.69,1.985-4.03c0.362-0.725,0.815-1.418,1.106-2.17c0.221-0.567,2.426-3.638,2.74-4.182
		c0.956-1.661,1.807-3.364,3.049-4.919c-0.563-0.298,0.047-0.508,0.039-0.759c-0.164,0.016-0.328,0.031-0.597,0.058
		c0.396-0.513-0.167-0.734-0.39-1.125c-0.369,0.346-0.766,0.631-1.03,0.979c-0.839,1.098-1.521,2.263-2.237,3.412
		c-0.773,1.235-3.14,5.084-3.865,6.331c-0.588,1.011-1.146,2.033-1.717,3.051c-0.285,0.51-0.572,1.019-0.842,1.535
		c-0.443,0.851-0.869,1.708-1.309,2.562c-0.65,1.273-1.295,2.548-1.961,3.817c-0.549,1.046-0.939,2.144-1.709,3.118
		c-0.571,0.725-1.071,1.485-1.627,2.216c-0.471,0.621-0.944,1.242-1.471,1.836c-0.859,0.968-1.756,1.916-2.648,2.863
		c-0.117,0.125-0.246,0.287-0.529,0.279c0.02-0.199,0.014-0.374,0.059-0.54c0.307-1.139,0.568-2.288,0.947-3.413
		c0.891-2.645,1.913-5.258,3.114-7.826c0.612-1.31,1.19-2.629,1.797-3.94c1.062-2.29,2.169-4.563,3.483-6.771
		c0.089-0.149,0.072-0.335,0.125-0.5c0.066-0.215,0.125-0.437,0.24-0.637c0.131-0.227,0.319-0.433,0.483-0.647
		c-0.024-0.017-0.051-0.033-0.073-0.05c-0.277,0.137-0.552,0.274-0.826,0.411c-0.039-0.015-0.082-0.031-0.123-0.046
		c0.604-0.462,0.434-0.982,0.275-1.501c-0.379,0.066-0.639,0.363-1.09,0.359c-0.012-0.503-0.074-0.962,0.046-1.461
		c0.192-0.802,0.167-1.637-0.793-2.226c-0.149-0.092-0.356-0.248-0.345-0.36c0.025-0.235-0.09-0.325-0.336-0.362
		c-0.211-0.033-0.461-0.11-0.639-0.056c-0.554,0.166-1.109,0.349-1.611,0.593c-0.704,0.344-1.202,0.871-1.688,1.392
		c-0.597,0.643-1.175,1.296-1.773,1.938c-0.058,0.061-0.2,0.072-0.34,0.118c0-0.166,0.002-0.276,0.004-0.414
		c-0.125,0.019-0.217,0.017-0.287,0.045c-0.711,0.277-1.15,0.772-1.495,1.295c-0.816,1.235-1.635,2.472-2.339,3.748
		c-1.34,2.427-2.602,4.881-3.894,7.325c-0.552,1.043-1.124,2.082-1.639,3.136c-0.946,1.936-1.971,3.85-2.695,5.85
		c-0.077,0.218-0.182,0.435-0.333,0.623c-0.671,0.843-1.361,1.673-2.052,2.505c-0.811,0.975-1.628,1.945-2.447,2.916
		c-0.11,0.131-0.232,0.258-0.366,0.372c-0.459,0.396-0.924,0.788-1.393,1.179c-0.129,0.105-0.278,0.197-0.508,0.359
		c0.007-0.247-0.015-0.4,0.021-0.546c0.182-0.731,0.331-1.474,0.583-2.192c0.54-1.541,1.072-3.09,1.729-4.602
		c0.765-1.764,1.658-3.492,2.497-5.234c0.161-0.333,0.329-0.666,0.494-0.999c-0.048-0.014-0.095-0.029-0.142-0.043
		c-0.205,0.396-0.406,0.791-0.617,1.185c-0.215,0.402-0.442,0.8-0.66,1.201c-0.216,0.4-0.444,0.797-0.636,1.205
		c-0.184,0.389-0.315,0.793-0.718,1.092c0.366-0.969,0.774-1.921,1.252-2.853c0.244-0.475,0.332-0.981,0.68-1.445
		c0.49-0.653,0.8-1.391,1.179-2.095c0.379-0.705,0.714-1.427,1.133-2.117c0.684-1.13,1.437-2.234,2.129-3.362
		c0.49-0.799,0.917-1.623,1.393-2.427c0.458-0.774,0.944-1.539,1.417-2.308c0.231-0.375,0.47-0.746,0.692-1.123
		c0.472-0.801,0.921-1.61,1.406-2.406c0.726-1.189,1.477-2.369,2.215-3.553c0.08-0.129,0.155-0.263-0.124-0.359
		c-0.311,0.443-0.623,0.888-0.935,1.332c-0.051-0.021-0.103-0.043-0.154-0.064c0.302-0.695,0.783-1.326,1.244-1.963
		c0.029-0.04,0.153-0.037,0.226-0.053c0.071,0.104,0.125,0.183,0.213,0.311c0.134-0.208,0.331-0.367,0.313-0.51
		c-0.054-0.435,0.199-0.709,0.592-0.963c0.146-0.095,0.239-0.251,0.32-0.392c0.222-0.385,0.462-0.752,0.943-0.983
		c0.086-0.041,0.146-0.124,0.198-0.196c0.167-0.229,0.419-0.452,0.464-0.697c0.061-0.332,0.369-0.504,0.549-0.755
		c0.629-0.875,1.254-1.752,1.866-2.633c0.509-0.729,0.966-1.48,1.506-2.193c0.905-1.194,1.865-2.362,2.784-3.549
		c0.168-0.216,0.252-0.471,0.385-0.705c0.088-0.158,0.174-0.319,0.295-0.459c0.62-0.714,1.254-1.421,1.877-2.134
		c0.066-0.078,0.152-0.212,0.113-0.272c-0.179-0.272,0.012-0.448,0.188-0.654c0.639-0.747,1.258-1.504,1.896-2.271
		c-0.356-0.212-0.705-0.395-0.713-0.811c-0.435,0.288-0.81,0.537-1.22,0.809c0.332,0.144,0.017,0.268-0.1,0.371
		c-0.238,0.215-0.602,0.362-0.775,0.6c-0.366,0.507-0.814,0.964-1.242,1.436c-0.461,0.508-0.922,1.018-1.339,1.547
		c-0.462,0.587-0.864,1.202-1.313,1.796c-0.322,0.428-0.689,0.835-1.016,1.262c-0.294,0.383-0.549,0.785-0.84,1.169
		c-0.393,0.522-0.818,1.03-1.209,1.555c-0.452,0.612-0.879,1.236-1.323,1.854c-0.415,0.575-0.863,1.137-1.253,1.723
		c-0.779,1.169-1.526,2.352-2.292,3.528c-0.594,0.912-1.206,1.816-1.792,2.73c-0.718,1.119-1.409,2.25-2.129,3.368
		c-0.448,0.696-0.954,1.37-1.391,2.07c-0.65,1.044-1.253,2.106-1.894,3.153c-0.527,0.862-1.101,1.708-1.62,2.573
		c-1.164,1.938-2.352,3.869-3.449,5.831c-1.161,2.076-2.289,4.167-3.318,6.286c-0.871,1.793-1.613,3.625-2.348,5.455
		c-0.42,1.047-0.758,2.119-1.048,3.192c-0.221,0.817-0.304,1.657-0.457,2.486c-0.094,0.513,0.213,0.948,0.576,1.297
		c0.337,0.321,0.871,0.522,1.485,0.412c0.298-0.054,0.633-0.132,0.909-0.074c0.539,0.112,0.977-0.035,1.375-0.251
		c0.396-0.215,0.787-0.466,1.084-0.76c0.683-0.678,1.334-1.375,1.949-2.092c0.456-0.531,0.83-1.107,1.249-1.66
		c0.077-0.102,0.191-0.186,0.358-0.346c0.101,0.437-0.067,1.771-0.084,2.094c-0.024,0.479,0.232,0.826,0.574,1.184
		c0.518,0.541,1.283,0.721,2.026,0.684c0.485-0.023,1.024-0.084,1.513-0.207c0.285-0.072,0.601-0.166,0.8-0.33
		c0.489-0.398,0.955-0.822,1.365-1.272c1.171-1.291,2.626-3.606,3.78-4.905c0.062-0.068,0.15-0.123,0.242-0.197
		c0.032,0.063,0.048,0.078,0.047,0.095c-0.012,0.087-0.025,0.173-0.042,0.26c-0.24,1.21-0.506,2.989-0.241,4.22
		c0.033,0.153,0.113,0.321,0.069,0.461c-0.094,0.297,0.131,0.391,0.375,0.533c0.244,0.145,0.416,0.377,0.785,0.271
		c0.431-0.127,0.867-0.065,1.304-0.044c0.58,0.029,1.063-0.104,1.484-0.455c0.951-0.789,1.695-2.277,2.513-3.146
		c0.082-0.088,0.187-0.164,0.313-0.275c0.062,0.125,0.101,0.188,0.123,0.255c0.193,0.579,0.235,2.688,0.838,2.944
		c0.33,0.143,0.714,0.155,1.086-0.004c0.142-0.062,0.349-0.104,0.498-0.07c0.629,0.134,1.154-0.036,1.576-0.36
		c0.633-0.487,1.215-1.015,1.806-1.534v-0.003c0.646-0.54,2.981-2.821,4.882-4.683c-0.041,0.082-0.08,0.164-0.12,0.246
		c-0.813,1.658-2.179,5.129-2.993,6.785c-0.5,1.016-0.455,0.217-0.938,1.236c-0.696,0.037-1.393,0.074-2.088,0.104
		c-1.113,0.049-2.23,0.061-3.346,0.115c-2.494,0.121-4.99,0.226-7.479,0.4c-2.634,0.186-5.268,0.398-7.887,0.688
		c-2.215,0.242-4.414,0.586-6.607,0.933c-1.075,0.17-2.139,0.388-3.192,0.63c-0.264,0.044-0.523,0.104-0.78,0.169l-0.005-0.002
		c0,0-9.063,1.011-6.917,9.04h0.013c0.017,0.075,0.023,0.152,0.044,0.229c0.199,0.713,0.424,1.438,0.8,2.104
		c0,0,4.859,9.757,15.027,10.648c0,0,9.129,0.636,16.494-10.515c0.896-1.354,1.817-2.709,2.759-4.05
		c1.118-1.592,1.962-3.279,2.821-4.962c0.569-1.114,1.099-2.241,1.631-3.368c0.091-0.189,0.225-0.27,0.466-0.314l0.159-0.475
		c0.897-0.053,1.795-0.113,2.693-0.152c1.534-0.067,3.07-0.114,4.606-0.172c0.167-0.008,0.337-0.02,0.312-0.238
		c-0.591-0.002-1.183-0.002-1.772-0.002c-0.003-0.041-0.003-0.084-0.003-0.127c0.843-0.115,1.699-0.09,2.555-0.082
		c0.053,0,0.105,0.082,0.154,0.121c-0.075,0.09-0.133,0.16-0.223,0.271c0.271-0.007,0.521,0.048,0.658-0.026
		c0.419-0.229,0.813-0.188,1.246-0.054c0.161,0.052,0.362,0.041,0.543,0.03c0.49-0.03,0.971-0.042,1.421,0.162
		c0.079,0.035,0.191,0.037,0.287,0.039c0.31,0.004,0.647,0.064,0.917-0.017c0.366-0.11,0.68,0.011,1.016,0.013
		c1.172,0.011,2.344,0.019,3.516,0.016c0.969-0.001,1.938-0.044,2.906-0.018c1.619,0.043,3.236,0.133,4.855,0.189
		c0.297,0.012,0.594-0.05,0.891-0.07c0.199-0.014,0.402-0.031,0.602-0.016c1.004,0.075,2.006,0.165,3.009,0.242
		c0.11,0.008,0.286,0.005,0.33-0.049c0.197-0.233,0.461-0.191,0.749-0.172c1.046,0.074,2.094,0.131,3.16,0.194
		c0.059-0.321,0.09-0.623,0.509-0.813C98.23,62.543,97.813,62.415,97.352,62.273z M74.201,40.366
		c0.061,0.016,0.119,0.031,0.178,0.046c-0.063,0.143-0.124,0.285-0.227,0.519C73.952,40.631,74.15,40.513,74.201,40.366z
		 M45.04,32.591c0.54-0.911,1.109-1.811,1.674-2.712c0.03-0.047,0.113-0.073,0.225-0.082c-0.486,1.122-1.149,2.172-1.864,3.205
		C45.051,32.86,44.976,32.7,45.04,32.591z M40.336,40.376c0.959-1.566,1.931-3.127,2.891-4.694c0.478-0.78,0.947-1.563,1.395-2.354
		c0.098-0.172,0.187-0.295,0.434-0.294c-0.486,0.81-0.982,1.614-1.467,2.421c-0.558,0.927-1.105,1.857-1.657,2.786
		c-0.394,0.662-0.785,1.325-1.184,1.985c-0.09,0.149-0.203,0.289-0.424,0.406C40.326,40.546,40.293,40.447,40.336,40.376z
		 M50.144,48.066c-1.027,1.524-2.038,3.056-3.127,4.553c-0.681,0.936-1.455,1.835-2.258,2.709c-0.895,0.975-1.868,1.904-2.812,2.852
		c-0.108,0.107-0.24,0.202-0.368,0.299c-0.023,0.017-0.082,0.004-0.187,0.008c0.009-0.355-0.017-0.713,0.034-1.064
		c0.108-0.761,0.245-1.521,0.392-2.277c0.059-0.307,0.168-0.605,0.271-0.905c0.32-0.939,0.626-1.884,0.977-2.814
		c0.708-1.886,1.568-3.73,2.515-5.55c0.443-0.85,0.817-1.725,1.302-2.56c0.368-0.632,0.667-1.282,0.987-1.926
		c0.232-0.468,0.57-0.901,0.827-1.362c0.3-0.536,0.548-1.09,0.848-1.625c0.257-0.461,0.561-0.906,0.835-1.361
		c0.281-0.469,0.531-0.951,0.834-1.411c0.345-0.522,0.726-1.031,1.104-1.539c0.339-0.45,0.697-0.89,1.049-1.333
		c0.058-0.072,0.109-0.158,0.193-0.204c0.576-0.319,0.912-0.794,1.312-1.229c0.205-0.223,0.378-0.443,0.794-0.502
		c0.214-0.031,0.387-0.266,0.568-0.416c0.338-0.275,0.652-0.569,1.009-0.829c0.163-0.119,0.399-0.177,0.603-0.262
		c0.051,0.033,0.104,0.066,0.154,0.101c-0.113,0.721-0.189,1.448-0.352,2.163c-0.232,1.041-0.502,2.076-0.805,3.106
		c-0.197,0.674-0.467,1.336-0.726,1.999c-0.453,1.161-0.877,2.33-1.394,3.473c-0.43,0.949-0.965,1.869-1.469,2.795
		c-0.436,0.798-0.867,1.599-1.346,2.381C51.35,46.253,50.753,47.163,50.144,48.066z M57.295,70.486
		C50.146,83.889,41.48,84.541,41.48,84.541s-3.442,0.83-7.797-1.703c-4.358-2.536-7.374-7.423-7.587-10.346
		c0,0-0.468-2.742,1.353-4.032c0.886-0.627,1.843-0.985,2.95-1.188l3.336-0.707c1.813-0.342,3.628-0.692,5.462-0.947
		c2.138-0.299,4.297-0.498,6.449-0.74c0.412-0.046,0.825-0.087,1.238-0.13c-0.006-0.036-0.012-0.073-0.019-0.108
		c-0.494,0.045-0.988,0.094-1.483,0.135c-0.505,0.041-1.012,0.074-1.518,0.115c-0.504,0.039-1.011,0.07-1.512,0.131
		c-0.477,0.057-0.948,0.15-1.432,0.028c1.15-0.198,2.304-0.362,3.465-0.472c0.594-0.057,1.149-0.227,1.776-0.211
		c0.884,0.021,1.774-0.11,2.662-0.182c0.888-0.072,1.773-0.182,2.664-0.223c1.457-0.068,2.918-0.081,4.375-0.143
		c1.033-0.045,2.063-0.139,3.095-0.193c0.7-0.038,1.401-0.064,2.103-0.091l-0.264,0.481c-0.15,0.381-0.253,0.713-0.408,1.026
		C59.465,66.896,58.286,68.627,57.295,70.486z M61.059,67.811c-0.447,0.685-0.55,1.484-1.207,2.09
		c0.537-1.504,1.471-2.873,2.162-4.324c0.065,0.021,0.131,0.042,0.194,0.063C61.831,66.364,61.514,67.115,61.059,67.811z
		 M62.559,64.982c-0.183-0.441-0.181-0.453,0.203-0.909c0.049,0.009,0.096,0.018,0.145,0.026
		C62.79,64.395,62.674,64.688,62.559,64.982z"/>
</g>
</svg>
