<?xml version="1.0" encoding="utf-8"?>
<!-- Generator: Adobe Illustrator 16.0.0, SVG Export Plug-In . SVG Version: 6.00 Build 0)  -->
<!DOCTYPE svg PUBLIC "-//W3C//DTD SVG 1.1//EN" "http://www.w3.org/Graphics/SVG/1.1/DTD/svg11.dtd">
<svg version="1.1" id="Layer_1" xmlns="http://www.w3.org/2000/svg" xmlns:xlink="http://www.w3.org/1999/xlink" x="0px" y="0px"
	 width="233px" height="160.174px" viewBox="249.5 185.499 233 160.174" enable-background="new 249.5 185.499 233 160.174"
	 xml:space="preserve">
<g>
	<path fill="#255492" d="M375.083,267.293c1.3-3.113,1.291-26.924,0.118-29.839c5.727,0,11.417,0,16.902,0
		c0,4.694,0.012,9.365-0.008,14.038c-0.005,1.108,0.268,1.908,1.579,1.763c1.117-0.124,2.646,0.619,2.845-1.479
		c0.118-1.247,0.435-2.504,0.856-3.688c1.642-4.598,4.734-7.618,9.579-8.81c1.271-0.313,2.423-1.569,3.628-1.568
		c1.204,0.002,2.353,1.227,3.62,1.582c2.944,0.822,5.482,2.174,7.334,4.666c0.354,0.476,0.75,0.921,1.751,1.188
		c-0.17-1.999-0.34-3.997-0.518-6.084c2.546,0,5.443,0,8.453,0c-0.287,0.732-0.694,1.296-0.699,1.862
		c-0.043,5.381-0.135,10.767,0.047,16.144c0.068,2.048,2.03,3.513,4.131,3.729c1.802,0.186,3.892-0.979,4.679-2.653
		c0.222-0.473,0.449-1.003,0.453-1.509c0.031-5.681,0.021-11.362,0.021-17.517c2.147-0.05,4.753-0.31,7.32-0.102
		c1.739,0.142-0.369,1.243,0.386,2.093c5.474-4.144,11.393-2.301,17.417-0.633c0,2.235,0,4.747,0,7.453
		c-2.011-0.865-3.828-1.834-5.762-2.412c-1.372-0.409-2.932-0.504-4.352-0.317c-0.729,0.097-1.758,1.049-1.874,1.744
		c-0.11,0.661,0.618,1.866,1.281,2.177c1.996,0.932,4.158,1.503,6.228,2.289c3.072,1.167,4.699,3.456,4.983,6.711
		c0.354,4.021-1.414,6.978-5.173,8.504c-3.688,1.5-7.396,1.361-11.15,0.11c-1.147-0.385-2.434-0.351-3.825-0.528
		c0.048-0.938,0.116-2.275,0.186-3.627c-2.583,1.513-4.895,3.281-7.503,4.278c-2.717,1.04-5.621,0.528-8.289-0.823
		c-2.743-1.391-4.729-3.481-6.131-6.993c-2.749,5.353-6.738,8.109-12.402,8.249c-5.472,0.134-9.838-1.784-13.331-6.378
		c0,1.429-0.042,2.859,0.011,4.287c0.053,1.376-0.286,2.138-1.917,2.122C389.097,267.254,382.235,267.293,375.083,267.293z
		 M410.631,259.634c3.865,0.017,6.57-2.676,6.555-6.522c-0.017-3.775-2.853-6.563-6.618-6.505c-3.642,0.057-6.332,2.745-6.41,6.406
		C404.076,256.764,406.867,259.618,410.631,259.634z M385.397,259.115c0.27-1.168,0.571-1.881,0.577-2.595
		c0.041-5.385,0.032-10.771,0.013-16.156c-0.001-0.517-0.055-1.106-0.308-1.526c-0.226-0.374-0.739-0.705-1.171-0.776
		c-0.272-0.045-0.757,0.36-0.918,0.679c-0.229,0.452-0.339,1.011-0.342,1.523c-0.025,6.125-0.005,12.25-0.04,18.374
		c-0.008,1.377,0.614,1.868,1.923,1.851c3.273-0.044,6.548,0.006,9.818-0.074c0.712-0.018,1.412-0.417,2.118-0.64
		c-0.042-0.22-0.086-0.439-0.127-0.658C393.185,259.115,389.427,259.115,385.397,259.115z M447.131,253.766
		c-0.071,0.782,0.015,1.774-0.276,2.637c-0.737,2.178,0.569,3.299,2.18,3.861c1.854,0.647,3.868,0.966,5.835,1.104
		c1.229,0.086,2.6-0.367,2.945-1.872c0.365-1.595-0.875-2.221-2.008-2.8c-0.555-0.282-1.187-0.41-1.781-0.61
		C451.854,255.354,449.68,254.624,447.131,253.766z"/>
	<path fill="#255492" d="M335.957,250.665c0.522,2.006-0.335,3.646-1.816,4.72c-1.759,1.274-1.457,2.509-0.631,4.055
		c1.364,2.559,2.659,5.154,4.041,7.845c-2.383,0-5.085,0.025-7.787-0.039c-0.287-0.006-0.688-0.49-0.823-0.838
		c-0.903-2.327-1.656-4.718-2.679-6.99c-0.24-0.535-1.302-0.848-2.025-0.932c-0.221-0.025-0.849,1.071-0.813,1.623
		c0.153,2.338-0.832,4.852,1.366,7.18c-4.213,0-8.005-0.002-11.797,0.002c-0.86,0.002-1.22-0.121-1.047-1.241
		c0.284-1.834-0.728-2.684-2.637-2.548c-1.472,0.104-2.958,0.01-4.438,0.021c-3.201,0.024-3.371,0.202-3.542,3.683
		c-3.785,0-7.572,0-11.403,0c2.177-4.585-0.432-9.143,0.542-13.651c-0.256-0.077-0.511-0.154-0.767-0.231
		c-2.244,4.938-4.489,9.877-7.085,15.588c-2.551-5.646-4.776-10.573-7-15.5c-0.499,4.584-1.913,9.092-0.528,13.78
		c-2.858,0-5.795,0-8.615,0c1.391-4.917,1.274-9.962,1.655-14.934c0.371-4.844,1.648-9.707,0.456-14.73c2.391,0,5.183,0,7.978,0
		c0.083,2.449,3.185,9.85,6.247,14.662c1.837-4.903,5.027-8.919,5.67-14.054c0.035-0.284,0.556-0.72,0.86-0.727
		c2.528-0.059,5.058-0.033,7.382-0.033c-0.225,1.462-0.672,2.788-0.585,4.078c0.34,5.035,0.849,10.06,1.802,15.268
		c2.796-6.184,5.591-12.366,8.729-19.307c3.452,6.843,5.983,13.424,9.572,19.579c0-6.285,0-12.569,0-18.875
		c4.753,1.564,9.51,0.615,14.134,1.217l-0.108-0.099c0.451,0.673,0.903,1.345,1.353,2.018l-0.081-0.113
		c0.237,0.461,0.473,0.923,0.709,1.384l-0.074-0.113c1.294,2.788,2.587,5.576,3.882,8.365L335.957,250.665z M323.363,248.528
		c0.186,1.253-0.678,3.072,1.879,2.984c2.434-0.083,3.709-0.886,3.771-2.74c0.067-1.964-1.346-2.961-3.869-3.042
		C322.796,245.654,323.51,247.301,323.363,248.528z M306.651,253.233c-0.43,1.066-0.766,1.698-0.921,2.371
		c-0.068,0.306,0.15,0.934,0.364,0.997c0.462,0.138,1.031,0.087,1.498-0.065c0.141-0.046,0.202-0.722,0.097-1.041
		C307.478,254.846,307.128,254.242,306.651,253.233z"/>
	<path fill="#255492" d="M330.372,239.335c-0.328-0.51-0.657-1.02-1.127-1.751c3.208,0,6.287,0,9.188,0
		c0.626,5.356,4.059,9.534,5.71,14.429c0.246,0.044,0.492,0.086,0.738,0.129c1.675-3.965,3.518-7.872,4.912-11.934
		c0.37-1.075,0.604-1.3,1.514-1.298c6.867,0.006,13.735,0.034,20.601-0.014c1.663-0.012,2.243,0.645,2.143,2.271
		c-0.109,1.784-0.024,3.58-0.024,5.605c-3.362-1.78-6.826-0.898-10.197-0.997c-1.697-0.049-1.101,1.467-1.17,2.396
		c-0.066,0.919-0.2,2.05,1.266,2.018c1.869-0.043,3.735-0.159,5.806-0.253c0,2.024,0,4.293,0,6.467
		c-2.003-0.138-3.943-0.316-5.887-0.384c-1.229-0.043-1.27,0.94-1.182,1.789c0.096,0.936-0.575,2.515,0.995,2.549
		c3.413,0.075,6.918,0.819,10.368-0.901c0,2.08-0.04,4.082,0.015,6.08c0.031,1.16-0.328,1.766-1.588,1.761
		c-6.003-0.024-12.007-0.011-17.744-0.011c0.274-1.497,0.701-2.799,0.717-4.107c0.076-5.702,0.033-11.406-0.222-17.223
		c-3.819,6.902-6.791,14.223-10.556,21.682c-0.647-1.043-1.129-1.669-1.457-2.368c-1.932-4.104-3.806-8.235-5.75-12.334
		c-0.384-0.81-0.984-1.517-1.485-2.271l0.097,0.111c-1.294-2.789-2.588-5.577-3.882-8.365l0.075,0.113
		c-0.236-0.461-0.473-0.923-0.709-1.384l0.081,0.113c-0.451-0.673-0.902-1.345-1.353-2.018L330.372,239.335z"/>
	<path fill="#255492" d="M386.128,293.21c-1.151,0.061-2.306,0.191-3.451,0.141c-0.384-0.017-1.05-0.476-1.072-0.771
		c-0.207-2.795-2.522-4.231-3.687-6.394c-0.246,0.036-0.491,0.07-0.737,0.105c0,1.709-0.063,3.419,0.021,5.124
		c0.066,1.355-0.441,1.947-1.811,1.896c-1.478-0.055-2.96,0.013-4.438-0.047c-0.498-0.02-1.286-0.122-1.432-0.429
		c-1.29-2.717-3.674-1.268-5.585-1.527c-0.348-0.047-1.045,0.241-1.076,0.447c-0.387,2.67-2.439,1.761-3.933,1.806
		c-3.046,0.091-6.097,0.027-9.187,0.027c0-5.882,0-11.526,0-17.294c1.491,0,3.043,0,4.563,0c0,3.658-0.026,7.217,0.008,10.775
		c0.023,2.387,0.129,2.465,2.543,2.329c1.564-0.089,2.935-0.084,3.701-2.117c1.371-3.637,3.222-7.093,5.137-11.19
		c1.717,2.502,2.553,4.944,3.602,7.265c1.02,2.259,2.035,4.521,3.558,6.613c0-4.492,0-8.984,0-13.637c1.371,0,2.926,0,4.486,0
		c0.083,2.568,1.094,4.349,4.072,6.992c0-2.392,0-4.646,0-7.061c4.025,0,8.153-0.255,12.236,0.065
		c5.11,0.399,8.281,4.067,8.155,8.793c-0.125,4.664-3.217,7.939-8.265,8.324c-2.479,0.189-5.002-0.2-7.505-0.327
		c1.6,0.409,1.476-0.851,1.484-1.698c0.048-4.436,0.032-8.873-0.028-13.309c-0.007-0.463-0.46-0.921-0.705-1.382
		c-0.219,0.045-0.438,0.087-0.657,0.13C386.128,282.311,386.128,287.761,386.128,293.21z M397.365,285.489
		c-0.083-2.847-1.321-4.4-3.311-4.827c-1.196-0.257-2.107-0.143-2.05,1.451c0.053,1.477-0.049,2.96,0.024,4.435
		c0.046,0.896,0.295,1.781,0.453,2.673c1.175-0.339,2.595-0.383,3.454-1.1C396.8,287.4,397.104,286.012,397.365,285.489z
		 M365.726,285.579c-0.19,0.396-0.418,0.65-0.377,0.85c0.039,0.19,0.358,0.323,0.554,0.481c0.142-0.203,0.408-0.418,0.391-0.607
		C366.278,286.094,366,285.907,365.726,285.579z"/>
	<path fill="#255492" d="M348.661,281.503c-2.117-0.569-3.893-1.157-5.716-1.466c-0.5-0.086-1.142,0.663-1.719,1.029
		c0.412,0.534,0.716,1.275,1.259,1.559c1.013,0.529,2.195,0.724,3.253,1.182c2.273,0.983,3.153,2.514,3.055,4.996
		c-0.09,2.298-1.361,3.642-3.404,4.456c-2.75,1.098-5.389,0.315-8.017-0.441c-0.343-0.099-0.744-0.663-0.777-1.043
		c-0.104-1.139-0.037-2.293-0.037-3.705c1.233,0.526,2.213,1.029,3.248,1.361c0.788,0.254,1.676,0.485,2.461,0.363
		c0.601-0.096,1.237-0.682,1.588-1.225c0.113-0.174-0.542-1.099-1.018-1.34c-0.927-0.472-1.996-0.654-2.972-1.043
		c-2.716-1.081-3.486-2.348-3.346-5.372c0.107-2.324,1.222-3.635,3.755-4.45c2.665-0.857,5.203,0.038,7.747,0.617
		c0.291,0.066,0.58,0.788,0.612,1.226C348.718,279.351,348.661,280.507,348.661,281.503z"/>
	<path fill="#255492" d="M335.311,276.393c0,5.216-0.103,10.353,0.065,15.48c0.048,1.512-0.354,1.861-1.667,1.75
		c-0.522-0.044-1.053-0.022-1.579,0.001c-1.15,0.051-1.491-0.198-1.439-1.601c0.188-5.143,0.075-10.295,0.075-15.631
		C332.197,276.393,333.722,276.393,335.311,276.393z"/>
</g>
</svg>
