<?xml version="1.0" encoding="utf-8"?>
<!-- Generator: Adobe Illustrator 16.0.0, SVG Export Plug-In . SVG Version: 6.00 Build 0)  -->
<!DOCTYPE svg PUBLIC "-//W3C//DTD SVG 1.1//EN" "http://www.w3.org/Graphics/SVG/1.1/DTD/svg11.dtd">
<svg version="1.1" id="Layer_1" xmlns="http://www.w3.org/2000/svg" xmlns:xlink="http://www.w3.org/1999/xlink" x="0px" y="0px"
	 width="233px" height="160.174px" viewBox="0 0 233 160.174" enable-background="new 0 0 233 160.174" xml:space="preserve">
<g>
	<path fill-rule="evenodd" clip-rule="evenodd" fill="#255492" d="M105.981,86.881c-1.27,1.547-2.337,3.108-3.664,4.407
		c-2.982,2.92-8.077,3.166-11.197,0.659c-0.511-0.41-0.918-0.947-1.456-1.515c-0.69,0.802-1.375,1.59-2.05,2.386
		c-1.449,1.709-3.145,3.102-5.159,4.104c-1.292,0.644-2.652,0.877-4.067,0.699c-2.073-0.259-3.313-1.548-3.925-3.454
		c-0.683-2.128-0.661-4.365-0.264-6.492c0.833-4.466,1.878-8.898,2.94-13.319c1.013-4.215,2.252-8.379,2.673-12.715
		c0.063-0.646,0.009-1.304,0.009-2.253c-0.476,0.536-0.829,0.852-1.082,1.232c-3.864,5.8-7.247,11.864-9.542,18.462
		c-2.121,6.1-4.056,12.264-6.084,18.396c-0.6,1.814-2.043,2.521-3.687,1.847c-1.298-0.533-1.947-1.779-1.658-3.275
		c0.772-3.989,1.569-7.975,2.343-11.966c1.347-6.938,2.693-13.875,4.02-20.815c0.401-2.1,0.736-4.211,1.107-6.349
		c-0.855,1.071-1.775,2.164-2.629,3.306c-4.853,6.484-8.354,13.71-11.474,21.134c-1.633,3.887-3.185,7.808-4.765,11.716
		c-0.393,0.972-0.972,1.745-2.021,2.066c-2.136,0.654-4.003-1.029-3.479-3.194c0.699-2.89,1.468-5.762,2.203-8.643
		c1.479-5.79,2.942-11.582,4.44-17.366c0.448-1.731,1.028-3.429,1.475-5.16c0.326-1.266,0.532-2.562,0.792-3.844
		c-0.133-0.064-0.265-0.129-0.398-0.193c-0.551,0.564-1.143,1.096-1.647,1.698c-2.739,3.269-5.119,6.769-6.917,10.652
		c-0.691,1.491-1.815,1.901-3.194,1.31c-1.453-0.622-2.331-2.215-1.776-3.538c0.511-1.225,1.195-2.384,1.881-3.524
		c2.054-3.413,4.35-6.664,7.144-9.506c1.237-1.259,2.68-2.4,4.217-3.261c2.363-1.322,4.43-0.443,5.551,2.056
		c0.999,2.226,0.987,4.529,0.566,6.869c-0.084,0.469-0.172,0.937-0.117,1.451c0.999-1.534,1.883-3.161,3.027-4.58
		c1.418-1.76,2.983-3.418,4.619-4.979c0.947-0.904,2.209-1.328,3.595-1.296c2.079,0.049,3.47,1.091,4.056,3.108
		c0.591,2.035,0.458,4.084,0.143,6.135c-0.238,1.551-0.521,3.095-0.659,4.711c0.432-0.763,0.863-1.524,1.293-2.288
		c1.465-2.6,3.089-5.082,5.348-7.08c1.353-1.196,2.848-2.146,4.741-1.914c2.651,0.322,4.179,2.211,4.486,5.15
		c0.325,3.107-0.226,6.107-0.956,9.083c-1.625,6.627-3.332,13.234-4.954,19.863c-0.234,0.955-0.272,1.985-0.227,2.973
		c0.021,0.435,0.393,1.02,0.771,1.214c0.259,0.132,0.868-0.213,1.21-0.482c2.484-1.963,4.405-4.417,5.992-7.132
		c0.34-0.582,0.606-1.293,0.636-1.957c0.208-4.561,1.406-8.913,2.682-13.251c0.265-0.901,0.554-1.8,0.899-2.673
		c0.641-1.619,2.292-2.284,3.885-1.61c1.353,0.573,1.847,1.76,1.465,3.182c-0.952,3.539-2.067,7.055-2.689,10.653
		c-0.427,2.469-0.215,5.065-0.129,7.599c0.038,1.135,0.369,2.396,1.666,2.796c1.214,0.374,2.139-0.44,2.997-1.166
		c1.781-1.507,2.721-3.567,3.46-5.689c1.684-4.838,3.265-9.712,4.891-14.571c0.389-1.163,0.57-2.438,2.002-2.934
		c2.065-0.716,3.963,0.799,3.779,2.972c-0.219,2.565-0.281,5.145-0.463,7.713c-0.554,7.834-1.167,15.666-3.056,23.322
		c-0.953,3.86-2.454,7.483-5.038,10.59c-2.662,3.203-6.134,4.836-10.182,5.435c-3.271,0.485-6.463-0.118-9.67-0.606
		c-4.192-0.639-8.362-1.622-12.633-1.355c-2.163,0.134-4.302,0.636-6.45,0.991c-0.417,0.069-0.813,0.244-1.226,0.341
		c-1.677,0.39-2.772-0.213-3.256-1.776c-0.454-1.468,0.208-2.955,1.656-3.49c3.004-1.113,6.115-1.741,9.317-1.944
		c4.632-0.292,9.121,0.549,13.582,1.649c2.549,0.629,5.143,0.911,7.762,0.721c4.047-0.294,6.752-2.592,8.633-6.009
		c1.934-3.515,2.732-7.372,3.289-11.293C105.584,89.675,105.783,88.278,105.981,86.881z"/>
	<path fill-rule="evenodd" clip-rule="evenodd" fill="#255492" d="M163.659,88.672c-1.033,1.204-1.982,2.423-3.048,3.531
		c-3.847,4.007-8.467,2.684-10.785-1.473c-1.85-3.314-2.267-6.96-1.92-10.672c0.195-2.072,2.048-3.219,3.848-2.61
		c1.155,0.391,1.674,1.073,1.689,2.301c0.016,1.366-0.124,2.745,0.032,4.09c0.144,1.243,0.445,2.514,0.936,3.661
		c0.716,1.675,1.589,1.812,2.765,0.439c0.936-1.096,1.642-2.389,2.452-3.592c0.436-0.648,0.432-1.294,0.24-2.063
		c-1.286-5.164,0.079-9.737,3.363-13.765c0.979-1.2,2.183-2.313,3.494-3.126c2.99-1.858,5.783-1.522,8.753,0.767
		c3.659,2.819,4.973,8.451,2.89,12.398c-1.372,2.6-4.187,4.099-7.112,3.788c-1.404-0.151-2.372-1.325-2.357-2.861
		c0.015-1.523,0.86-2.489,2.334-2.604c1.254-0.097,2.487-0.261,2.972-1.643c0.507-1.44-0.015-2.705-0.99-3.76
		c-0.995-1.075-2.312-1.271-3.608-0.765c-2.519,0.984-3.93,2.936-4.446,5.563c-0.352,1.796-0.211,3.56,0.367,5.289
		c0.948,2.833,3.455,4.466,6.44,4.313c2.928-0.147,5.352-1.464,7.6-3.172c5.762-4.375,9.345-10.333,12.107-16.866
		c0.685-1.617,1.68-2.235,3.418-2.058c1.657,0.169,2.658,1.675,2.049,3.223c-2.173,5.504-4.957,10.655-8.825,15.184
		c-3.203,3.75-6.895,6.832-11.624,8.452c-4.472,1.529-8.721,1.142-12.599-1.752c-0.097-0.071-0.202-0.131-0.306-0.193
		C163.763,88.686,163.729,88.687,163.659,88.672z"/>
	<path fill-rule="evenodd" clip-rule="evenodd" fill="#255492" d="M149.794,64.721c0.101,3.899-1.667,7.016-4.237,9.736
		c-2.916,3.086-6.5,5.236-10.292,7.073c-1.521,0.736-1.507,0.539-1.349,2.281c0.431,4.767,0.753,9.542,1.114,14.314
		c0.108,1.438-0.715,2.521-2.078,2.758c-1.578,0.271-3.081-0.634-3.421-2.146c-0.173-0.763-0.206-1.561-0.264-2.345
		c-0.268-3.625-0.506-7.253-0.784-10.877c-0.258-3.353-0.56-6.703-0.829-10.055c-0.216-2.688-0.412-5.376-0.619-8.064
		c-0.304-3.927-0.612-7.854-0.913-11.78c-0.042-0.539-0.302-0.756-0.839-0.672c-1.972,0.309-3.954,0.561-5.914,0.932
		c-1.617,0.305-2.944-0.373-3.361-1.868c-0.443-1.59,0.21-3.089,1.791-3.454c2.237-0.515,4.528-0.795,6.802-1.139
		c0.506-0.077,1.007-0.043,0.981-0.754c-0.049-1.343,1.092-2.345,2.322-2.492c1.331-0.159,2.666,0.703,3.123,2.013
		c0.079,0.228,0.158,0.468,0.171,0.705c0.032,0.618,0.397,0.805,0.947,0.878c3.115,0.413,6.135,1.175,8.981,2.539
		c4.474,2.143,7.746,5.282,8.587,10.422c0.028,0.179,0.072,0.359,0.076,0.54C149.801,63.751,149.794,64.236,149.794,64.721z
		 M133.337,76.208c0.205-0.026,0.334-0.01,0.433-0.058c3.333-1.658,6.506-3.535,8.811-6.571c2.562-3.376,2.181-8.038-0.907-10.684
		c-2.636-2.257-5.853-3.103-9.178-3.648c-0.584-0.096-0.815,0.121-0.754,0.758c0.164,1.688,0.269,3.382,0.396,5.073
		c0.32,4.259,0.636,8.519,0.961,12.776C133.157,74.626,133.254,75.396,133.337,76.208z"/>
	<path fill-rule="evenodd" clip-rule="evenodd" fill="#255492" d="M155.808,70.663c0.015,1.604-1.292,2.942-2.853,2.92
		c-1.477-0.021-2.611-1.234-2.631-2.81c-0.02-1.716,1.103-2.919,2.762-2.963C154.481,67.774,155.793,69.148,155.808,70.663z"/>
</g>
</svg>
