<?xml version="1.0" encoding="utf-8"?>
<!-- Generator: Adobe Illustrator 16.0.0, SVG Export Plug-In . SVG Version: 6.00 Build 0)  -->
<!DOCTYPE svg PUBLIC "-//W3C//DTD SVG 1.1//EN" "http://www.w3.org/Graphics/SVG/1.1/DTD/svg11.dtd">
<svg version="1.1" id="Layer_1" xmlns="http://www.w3.org/2000/svg" xmlns:xlink="http://www.w3.org/1999/xlink" x="0px" y="0px"
	 width="4041.676px" height="564.176px" viewBox="0 0 4041.676 564.176" enable-background="new 0 0 4041.676 564.176"
	 xml:space="preserve">
<g id="path_1_">
	<g>
		<g>
			<g>
				<g>
					<path fill="#C9C9C8" d="M289.612,100.392l6.875,0.638c0,0-14.219-1.569-28.436-3.139c-14.205-1.694-28.408-3.388-28.408-3.388
						s12.486,1.531,24.971,3.062C277.114,98.979,289.612,100.392,289.612,100.392z"/>
					<path fill="#C9C9C8" d="M124.584,77.742l10.432,1.803l28.9,3.808"/>
					<path fill="#C9C9C8" d="M-50.004,49.52l32.246,5.251"/>
				</g>
				<g>
					<path fill="#C9C9C8" d="M1281.018,20.929c-42.154,2.174-81.271,6.085-108.691,9.237c17.018-1.67,49.666-5.179,86.217-7.655
						c4.57-0.306,9.197-0.617,13.861-0.929c4.67-0.237,9.375-0.476,14.092-0.716"/>
					<path fill="#C9C9C8" d="M981.067,58.801c5.906-0.964-4.373,1.019-5.447,1.226c0.525-0.1,1.375-0.262,8.469-1.613
						c3.623-0.678,8.615-1.613,15.373-2.879c6.762-1.243,15.283-2.854,25.992-4.744c-4.314,0.724-5.6,0.94-8.02,1.347
						C1009.737,53.54,999.086,55.432,981.067,58.801z"/>
					<path fill="#C9C9C8" d="M1017.434,52.138c18.807-3.336,12.641-2.305,4.855-0.955C1014.5,52.518,1005.112,54.26,1017.434,52.138
						z"/>
					<path fill="#C9C9C8" d="M844.098,84.796c0,0,12.355-2.334,24.711-4.669c12.346-2.385,24.693-4.771,24.693-4.771
						c-10.42,1.847-54.455,9.951-38.043,6.788c-12.701,2.349-21.574,3.989-27.285,5.045c-2.855,0.528-4.922,0.911-6.281,1.162
						c-0.678,0.132-1.18,0.229-1.518,0.294c-0.336,0.069-0.504,0.11-0.518,0.124c-0.027,0.028,0.57-0.051,1.707-0.222
						c1.137-0.179,2.813-0.443,4.947-0.779C830.774,87.049,836.86,86.02,844.098,84.796z"/>
					<path fill="#C9C9C8" d="M797.205,93.5c0,0,6.43-1.068,12.844-2.223c6.418-1.134,12.836-2.269,12.836-2.269
						C818.336,89.703,811.545,90.917,797.205,93.5z"/>
					<path fill="#C9C9C8" d="M877.158,78.89c0,0-13.561,2.573-27.121,5.146c-13.576,2.486-27.152,4.973-27.152,4.973
						c7.121-1.119,7.912-1.057,24.895-4.531C843.442,85.479,854.121,83.347,877.158,78.89z"/>
					<path fill="#C9C9C8" d="M907.918,73.174c27.75-5.135,63.625-11.892,14.105-2.181c47.217-9.095,67.369-12.945,63.857-12.427
						S955.207,64.059,907.918,73.174z"/>
					<path fill="#C9C9C8" d="M1154.002,33.146c0,0,2.34-0.284,5.85-0.709c1.754-0.213,3.801-0.461,5.994-0.728
						c2.197-0.236,4.541-0.489,6.883-0.741c9.373-1.009,18.744-2.018,18.744-2.018s8.117-0.862,16.232-1.723
						c4.059-0.425,8.117-0.85,11.162-1.168c3.049-0.275,5.08-0.458,5.08-0.458c-2.031,0.196-4.689,0.383-7.771,0.697
						c-3.084,0.303-6.598,0.648-10.35,1.017c-3.752,0.363-7.744,0.749-11.783,1.14c-4.039,0.381-8.113,0.882-12.051,1.304
						C1166.244,31.432,1152.848,33.188,1154.002,33.146z"/>
					<path fill="#C9C9C8" d="M532.885,114.785c-3.143,0.143,16.936,0.45,20.617,0.655c0,0,2.322-0.005,5.809-0.012
						c3.484-0.072,8.131-0.168,12.777-0.264c9.291-0.198,18.582-0.395,18.582-0.395c-4.77,0.057-10.609,0.125-16.725,0.198
						c-3.057,0.037-6.182,0.074-9.277,0.111c-1.549,0.018-3.088,0.036-4.609,0.054c-1.52-0.01-3.02-0.02-4.488-0.029
						C543.824,115.006,534.149,114.9,532.885,114.785z"/>
					<path fill="#C9C9C8" d="M553.502,115.439c0,0-13.875,0.019-27.752,0.038c-13.875-0.223-27.748-0.446-27.748-0.446
						c12.396,0.254,22.266,0.491,30.045,0.596c7.781-0.002,13.471-0.004,17.51-0.005
						C553.637,115.595,555.112,115.526,553.502,115.439z"/>
					<path fill="#C9C9C8" d="M788.405,95.746c0,0,5.633-0.958,14.082-2.396c8.436-1.526,19.697-3.468,30.928-5.579
						c5.617-1.044,11.234-2.089,16.5-3.069c5.26-1.005,10.17-1.944,14.379-2.749c8.416-1.621,14.025-2.702,14.025-2.702
						c0,0.001-26.744,5.187-53.549,10.067c-6.707,1.193-13.412,2.386-19.699,3.504c-6.295,1.072-12.17,2.073-17.207,2.931
						c-5.037,0.854-9.234,1.57-12.18,2.021c-2.943,0.467-4.625,0.734-4.625,0.734s4.34-0.669,8.68-1.339
						C784.073,96.458,788.405,95.746,788.405,95.746z"/>
					<path fill="#C9C9C8" d="M321.129,102.075c0,0,1.961,0.188,4.9,0.469c2.939,0.298,6.863,0.631,10.787,0.954
						c7.848,0.659,15.695,1.317,15.695,1.317s-3.492-0.299-8.732-0.748c-5.24-0.472-12.234-0.992-19.211-1.71
						c-13.963-1.366-27.924-2.732-27.924-2.732L321.129,102.075z"/>
					<path fill="#C9C9C8" d="M403.369,110.178c-4.275-0.387-12.521-1.134-43.52-3.941c0,0,1.357,0.153,3.393,0.382
						c2.039,0.208,4.756,0.485,7.473,0.763c5.436,0.555,10.871,1.109,10.871,1.109C388.233,109.035,395.719,109.697,403.369,110.178
						z"/>
					<path fill="#C9C9C8" d="M382.348,108.567l-0.762-0.076c-5.904-0.489-11.357-0.941-16.328-1.353
						c-4.971-0.408-9.447-0.885-13.412-1.249c-7.93-0.758-13.787-1.319-17.297-1.655c3.014,0.289,8.109,0.778,15.875,1.523
						c3.883,0.367,8.434,0.797,13.727,1.297C369.449,107.495,375.49,107.997,382.348,108.567z"/>
					<path fill="#C9C9C8" d="M408.877,110.558c-1.988-0.137-3.518-0.242-5.508-0.379
						C405.51,110.368,406.733,110.464,408.877,110.558z"/>
					<path fill="#C9C9C8" d="M643.766,113.041c-4.066,0.387-8.697,0.634-13.545,0.961c-4.852,0.307-9.924,0.628-14.889,0.943
						c-4.971,0.22-9.832,0.435-14.254,0.631c-4.424,0.189-8.406,0.417-11.623,0.468c-6.43,0.176-9.779,0.305-7.398,0.345
						c1.191,0.02,3.814,0.017,8.203-0.013c4.389-0.018,10.537-0.279,18.783-0.52c11.689-0.574,8.094-0.628,7.727-0.703
						c-0.186-0.056,0.434-0.161,4.166-0.454c1.865-0.136,4.51-0.328,8.219-0.597c1.855-0.126,3.977-0.271,6.4-0.437
						C637.981,113.513,640.707,113.322,643.766,113.041z"/>
					<path fill="#C9C9C8" d="M435.932,112.828c0,0,3.686,0.204,9.213,0.509c2.764,0.153,5.988,0.331,9.443,0.522
						c3.453,0.197,7.139,0.404,10.828,0.526c7.375,0.291,14.75,0.581,20.283,0.799c2.766,0.109,5.07,0.199,6.684,0.263
						c1.613,0.072,2.537,0.081,2.537,0.081c-0.537-0.052-3.484-0.238-4.268-0.337c-0.783-0.126,0.596-0.05,8.725,0.033
						c0,0-0.992-0.016-2.729-0.044c-1.736-0.014-4.215-0.079-7.189-0.188c-5.949-0.196-13.881-0.458-21.814-0.72
						c-7.936-0.203-15.857-0.697-21.805-0.958C439.895,113.021,435.932,112.828,435.932,112.828z"/>
					<path fill="#C9C9C8" d="M407.147,111.11c0,0,7.195,0.459,14.391,0.917c3.596,0.232,7.193,0.468,9.895,0.58
						c2.699,0.132,4.5,0.22,4.5,0.22s-1.363-0.075-3.41-0.188c-2.045-0.114-4.773-0.25-7.498-0.458
						c-5.451-0.382-10.902-0.765-10.902-0.765L407.147,111.11z"/>
					<path fill="#C9C9C8" d="M548.213,117.908c-3.531-0.047-3.377-0.078-3.607-0.109
						C537.237,117.832,534.395,117.859,548.213,117.908z"/>
					<path fill="#C9C9C8" d="M501.324,117.064c4.145,0.047,7.943,0.089,14.072,0.159c3.064,0.049,6.713,0.107,11.277,0.181
						c4.564,0.012,10.047,0.026,16.781,0.043c23.406,0.192-0.076,0.206,1.15,0.352c4.049-0.017,9.623-0.039,14.91-0.061
						c5.287-0.135,10.287-0.263,13.189-0.337c2.9-0.093,3.703-0.154,0.596-0.152c-1.555,0.011-4.084,0.028-7.82,0.054
						c-1.867,0.015-4.035,0.033-6.533,0.054c-2.498-0.018-5.324-0.039-8.51-0.062l-7.98,0.037
						c-5.736-0.049-11.678-0.039-17.666-0.154c-5.986-0.157-12.023-0.315-17.949-0.47c-2.965-0.081-5.9-0.16-8.791-0.238
						c-1.443-0.04-2.877-0.079-4.297-0.118c-1.418-0.063-2.822-0.126-4.209-0.188c-5.551-0.252-10.836-0.492-15.701-0.713
						c-4.863-0.227-9.307-0.435-13.172-0.616c-3.861-0.248-7.146-0.458-9.699-0.622c-5.104-0.335-7.273-0.496-5.264-0.403
						C459.016,114.943,470.805,115.791,501.324,117.064z"/>
				</g>
			</g>
		</g>
	</g>
	<g>
		<g>
			<g>
				<g>
					<g>
						<g>
							<path fill="#E05241" d="M944.6,64.324c4.361-0.885,8.236-1.305,6.621-0.855c8.842-2.063,9.113-1.678,10.121-2.613
								c5.658-1.446,11.865-2.091,5.406-0.585l16.42-3.524l-9.896,1.735c2.582-1.1,15.811-2.771,18.814-4.053l-17.869,3.401
								l0.861-0.365c-4.029,0.969-11.953,2.366-14.715,2.811c0.42-0.181,0.104-0.286,3.25-0.902
								c-21.559,4.048-5.605,2.144-23.451,5.74C941.276,64.885,942.66,64.632,944.6,64.324z"/>
							<path fill="#E05241" d="M926.004,66.362l-7.373,2.184l-12.646,2.21c-0.086,0.283-9.24,2.243-2.979,1.286
								c1.213-0.273,3.602-0.808,5.553-1.155c-1.305,0.826-16.717,3.471-12.908,3.331c9.949-2.047,11.5-2.215,17.557-3.838
								c9.148-1.69,15.832-2.837,20.143-3.45c2.693-0.603,3.01-1.017,6.451-1.745c-0.762,0.153-1.467,0.294-2.344,0.47l-0.531-0.767
								c-2.838,0.725-5.582,1.163-8.766,1.789l14.582-3.799c-4.922,0.123-19.332,3.357-25.195,4.139
								C924.875,66.348,911.891,68.461,926.004,66.362z"/>
							<path fill="#E05241" d="M939.801,65.185c0.094-0.019,0.246-0.049,0.361-0.071C940.047,65.136,939.895,65.166,939.801,65.185z
								"/>
							<path fill="#E05241" d="M-50.797,40.752l3.092,0.076"/>
							<path fill="#E05241" d="M824.531,85.353c0.73-0.106,1.555-0.227,2.219-0.323C826.256,85.078,825.422,85.208,824.531,85.353z"
								/>
							<path fill="#E05241" d="M173.672,80.451l4.221,0.638C176.246,80.821,174.903,80.623,173.672,80.451z"/>
							<path fill="#E05241" d="M269.049,90.53l6.221,0.533C272.824,90.789,270.899,90.641,269.049,90.53z"/>
							<path fill="#E05241" d="M774.285,93.686l-0.211,0.027c-0.344,0.071-0.609,0.125-0.971,0.2L774.285,93.686z"/>
							<path fill="#E05241" d="M460.246,109.145c0.945,0.13,2.008,0.221,3.457,0.33
								C463.533,109.378,462.239,109.288,460.246,109.145z"/>
							<path fill="#E05241" d="M267.908,90.433c0.152,0.024,0.248,0.04,0.373,0.06c0.242,0.012,0.514,0.025,0.768,0.038
								L267.908,90.433z"/>
							<path fill="#E05241" d="M132.27,71.67c-0.914-0.115-1.742-0.219-2.715-0.341C130.832,71.512,131.623,71.604,132.27,71.67z"/>
							<path fill="#E05241" d="M137.854,74.979c-0.98-0.132-1.904-0.25-2.639-0.329L137.854,74.979z"/>
							<path fill="#E05241" d="M-7.771,49.365l-5.707-0.847C-10.679,48.98-9.008,49.217-7.771,49.365z"/>
							<path fill="#E05241" d="M122.889,72.067c-0.332-0.009-0.664-0.019-0.9-0.025C122.78,72.14,123.17,72.15,122.889,72.067z"/>
							<path fill="#E05241" d="M860.967,81.338c-0.123,0.024-0.266,0.051-0.342,0.066l-0.117,0.122L860.967,81.338z"/>
							<path fill="#E05241" d="M874.506,77.562c1.617-0.328,3.311-0.67,4.967-1.005C877.621,76.899,875.832,77.262,874.506,77.562z"
								/>
							<path fill="#E05241" d="M543.649,112.517c1.521,0.127,5.098,0.283,3.43,0.418
								C549.987,112.766,549.793,112.336,543.649,112.517z"/>
							<path fill="#E05241" d="M834.293,91.577c0.881-0.272,1.994-0.558,3.109-0.843C835.317,91.229,833.496,91.654,834.293,91.577z
								"/>
							<path fill="#E05241" d="M837.403,90.733c1.021-0.246,2.119-0.511,3.037-0.732C839.369,90.246,838.346,90.493,837.403,90.733z
								"/>
							<path fill="#E05241" d="M504.778,119.051c-0.389-0.065-0.971-0.125-1.768-0.158
								C503.24,119.014,503.881,119.052,504.778,119.051z"/>
							<path fill="#E05241" d="M883.506,75.937c0.861-0.356,22.395-4.886,4.193-1.545c0.59-0.742,11.602-2.499,16.418-3.574
								c-3.537,0.523,1.68-0.731,0.57-0.748c-2.391,0.532-5.217,1.255-9.193,1.966c-1.885,0.066,4.105-1.273,8.838-2.065
								c-5.861,0.778,7.27-1.892-0.99-0.578c-17.498,3.567-29.854,6.106-42.033,9.305c9.975-1.991,21.135-4.305,29.389-5.591
								l-3.354,1.184c-9.361,1.267-15.018,2.708-24.15,4.352l20.547-3.556c9.682-1.358,3.271-0.048-4.268,1.469
								C881.324,76.215,883.02,75.93,883.506,75.937z"/>
							<path fill="#E05241" d="M870.584,83.222l0.346-0.049c0.293-0.075,0.662-0.157,0.85-0.216L870.584,83.222z"/>
							<path fill="#E05241" d="M-8.576,60.395l-1.807-0.098C-8.892,60.456-8.422,60.471-8.576,60.395z"/>
							<path fill="#E05241" d="M857.858,82.895l0.02-0.003C857.744,82.922,857.707,82.929,857.858,82.895z"/>
							<path fill="#E05241" d="M35.371,67.877c-0.061,0.004-0.121,0.011-0.238,0.008C35.289,67.894,35.291,67.878,35.371,67.877z"/>
							<path fill="#E05241" d="M49.069,58.284c-0.082-0.04-0.107-0.067-0.295-0.124C47.83,58.035,48.285,58.136,49.069,58.284z"/>
							<path fill="#E05241" d="M35.416,67.833c-0.002,0.016,0.023,0.038-0.045,0.043C35.412,67.866,35.49,67.862,35.416,67.833z"/>
							<path fill="#E05241" d="M250.158,98.314c0,0-0.662-0.179-1.73-0.406C248.016,97.907,248.414,98.017,250.158,98.314z"/>
							<path fill="#E05241" d="M207.819,91.875c-0.266-0.058-0.42-0.091-0.762-0.165L207.819,91.875z"/>
							<path fill="#E05241" d="M533.569,110.04c-2.109-0.014-3.695-0.004-5.031,0.016
								C530.084,110.074,531.75,110.076,533.569,110.04z"/>
							<path fill="#E05241" d="M35.133,67.885c-0.451-0.018-1.092-0.065-2.139-0.167C34.156,67.834,34.76,67.875,35.133,67.885z"/>
							<path fill="#E05241" d="M315.303,103.175c-0.457-0.028-0.885-0.054-1.311-0.081c0.25,0.036,0.52,0.074,0.77,0.11
								L315.303,103.175z"/>
							<path fill="#E05241" d="M337.475,105.86c-0.76-0.01-1.115,0.021-1.545,0.036c7.951,0.529,22.512,2.162,24.285,1.749
								c-2.689-0.242-16.619-1.909-14.209-2.02c-5.543-0.386-13.682-1.556-16.668-1.761c9.055,1.185,0.934,0.622-5.205,0.131
								c-5.545-0.763,1.09-0.352-3.689-0.971l-12.889-1.313l11.213,1.276l-3.467,0.189c0.416,0.025,0.707,0.043,1.154,0.07
								c9.506,0.886,9.887,1.132,10.326,1.371C327.223,104.844,327.717,105.129,337.475,105.86z"/>
							<path fill="#E05241" d="M335.93,105.896c-1.203-0.079-2.252-0.136-3.07-0.155
								C334.658,105.903,335.362,105.914,335.93,105.896z"/>
							<path fill="#E05241" d="M413.627,113.297c0.971,0.041,2.039,0.086,3.379,0.143
								C416.365,113.413,414.889,113.35,413.627,113.297z"/>
							<path fill="#E05241" d="M626.057,113.563l-3.721,0.214c-0.27,0.042-0.521,0.08-0.715,0.11
								C622.381,113.903,624.819,113.677,626.057,113.563z"/>
							<path fill="#E05241" d="M349.448,105.75c-2.035-0.127-2.951-0.147-3.441-0.125
								C347.324,105.717,348.547,105.777,349.448,105.75z"/>
							<path fill="#E05241" d="M626.813,114.536c1.578,0.027,3.916,0.073,4.256,0.215c3.221-0.19,5.477-0.552,8.75-0.83
								C636.117,114.208,631.826,114.424,626.813,114.536z"/>
							<path fill="#E05241" d="M640.088,113.897c-0.096,0.009-0.193,0.017-0.27,0.024
								C639.914,113.913,639.992,113.906,640.088,113.897z"/>
							<path fill="#E05241" d="M-40.951,43.934l2.246-0.115c9.164,1.614,17.791,3.244,11.809,2.854
								c-0.297-0.217-1.51-0.384-3.498-0.747c-0.279,0.02-0.746-0.012-1.328-0.072c-0.195,0.002-0.314,0.004-0.473,0.006
								c9.85,1.511,15.994,2.454,16.57,2.542c-16.797-2.142-0.992,0.735-3.924,1.119l16.887,2.586
								c-10.158-2.007-0.111-0.451,3.537,0.05c0.914,0.65,13.555,2.307,19.461,3.368l-0.457,0.025
								c5.447,1.089,15.049,2.658,21.887,3.675c-0.279-0.208,8.604,0.468,12.877,0.681c-11.67-2.12-4.686-1.162-5.574-1.617
								c1.201,0.227,3.385,0.594,3.643,0.574c1.699,0.141-2.248-0.561-2.547-0.774c-12.482-1.854-25.281-3.956-30.469-4.133
								c3.758,0.947,6.559,0.805,10.793,1.728c-6.24-0.585-14.172-2.007-24.508-3.784l-3.318-0.981l-10.434-1.548
								c4.373,0.523,1.832-0.344,12.758,1.431c-1.334-0.619-10.832-1.753-17.492-3.017l-3.518-0.047
								c1.371-0.074-12.922-2.571-2.684-1.245l16.596,2.374l-4.531-1.148L7.35,49.992l-3.34-0.283
								c22.518,3.445,6.441,2.201,29.139,5.376c7.193,0.543,14.805,1.761,28.631,4.205c-10.047-1.516-1.1,0.289-4.934,0.041
								c10.18,1.966,13.715,2,19.061,2.625c2.547,0.774,4.359,1.363-4.768-0.2c-1.268,0.538,12.029,1.857,12.752,2.722
								c30.275,4.879,24.633,1.55,59.887,7.995l-1.369,0.099c11.275,1.514,20.145,2.853,28.805,4.173
								c8.664,1.264,17.119,2.516,27.557,3.902c0,0,4.078,0.766,8.154,1.532c4.08,0.751,8.16,1.502,8.16,1.502
								c-3.686-0.384-13.641-1.161-9.08-0.164c-7.885-1.868-16.402-2.864-24.945-4.506c-0.912,0.073,2.58,0.725,4.078,1.067
								c-5.182-0.756-7.742-1.476-14.613-2.335c0.301,0.21,7.762,1.479,2.104,0.759l-9.254-1.872
								c-12.502-1.659-6.309,0.207-20.934-2.227c2.789-0.011,8.445,0.218,14.139,0.975c-6.68-1.104,8.957,1.093,2.887-0.084
								c-9.73-0.849-14.322-1.99-27.195-3.619c1.518,0.148,1.939,0.089,5.09,0.544l-18.551-3.184
								c4.543,1.09-15.416-2.007-13.775-1.21c19.781,3.365,14.006,2.115,36.541,5.954c-6.404-0.855-14.732-1.613-18.686-1.707
								c-0.189-0.051-0.512-0.12-1.201-0.238c-3.535-0.003-0.049,0.692-0.256,1.625c10.414,0.946,17.219,2.606,29.447,4.04
								c2.373-0.173-6.961-1.718-13.025-2.514l10.779,1.288l-2.148-0.082l27.188,4.266c-5.172-0.71-6.959-0.706-9.68-0.877
								c3.508,0.552,6.961,1.219,10.648,1.894c-0.715-0.606-0.164-0.882,3.252-0.379c17.518,2.657,27.193,4.501,33.6,5.921
								c0.674,0.08,1.426,0.17,2.043,0.243c-2.871-0.907,12.584,0.792,18.092,1.017c-0.34,0.511,9.002,1.49,14.027,2.401
								c2.771-0.256-0.721-1.545-6.811-2.821c-11.939-0.987-6.725-0.331-12.424-0.297l-19.104-2.078l4.314,0.101
								c-9.469-1.478-18.658-2.195-17.879-2.711c2.537,0.152,5.863,0.599,9.189,1.025c3.326,0.412,6.646,0.823,9.164,0.955
								l-6.252-1.085c11.174,0.901,5.607,1.365,19.08,2.77c-4.867-1.204,1.217,0.127,7.01,0.557
								c-4.564-0.999-23.639-3.073-19.479-3.421c7.027,0.55,23.316,4.296,32.672,4.525l-0.455,0.046
								c13.602,1.845,18.453,1.971,23.602,2.259c5.768,0.976,13.824,1.508,20.123,2.216l-0.186,0.244l8.887,0.936
								c-4.279-0.02-10.393-1.237-18.023-2.065l0.885,0.598c-8.719-1.612-14.686-1.408-21.547-1.883
								c2.49,0.207,5.482,0.556,8.611,0.913c3.129,0.354,6.396,0.724,9.426,1.066c6.061,0.677,11.18,1.175,12.398,0.836l6.086,1.216
								l2.945,0.167c4.545,0.876-0.203,0.956-9.074,0.005c-1.527-0.305-2.289-0.457-1.816-0.504
								c-4.146-0.268-7.965-0.334-17.91-1.619l5.348,0.368c-3.102-0.361-6.133-0.715-9.002-1.049
								c-2.869-0.328-5.578-0.636-8.029-0.917c-4.91-0.522-8.809-0.851-10.955-0.881c17.852,2.555,35.471,4.622,52.291,6.572
								c5.08-0.572,11.045-0.56,13.68-1.315c5.654,0.507,12.314,1.144,18.781,1.813c6.473,0.604,12.754,1.26,17.645,1.915
								l-0.926,0.116c4.773,0.56,9.195,0.925,12.889,1.159c5.029,0.75-3.52,0.212-0.004,0.694c0,0,1.014,0.073,2.535,0.184
								c1.521,0.092,3.551,0.216,5.578,0.34c4.057,0.247,8.115,0.494,8.115,0.494c-1.041,0.364-14.682-0.683-21.143-1.329
								c1.219,0.076,3.695,0.234,2.91,0.096c-7.504-0.907-21.598-1.45-24.82-2.434c-3.676-0.241,7.494,0.232-4.902-1.021
								c-8.277-1.141-11.037-0.827-11.926-0.719c-0.164,0.249,12.99,1.754,8.391,1.582c6.459,0.68,9.072,0.533,17.314,1.587
								c-6.41-0.566-15.166-0.872-18.533-1.679c-12.717-0.865-11.039,0.562-5.066,1.27c-1.387-0.521,23.156,1.965,6.602-0.285
								c7.512,0.322,21.162,1.537,30.951,2.18l-0.451,0.058c0,0,3.033,0.257,6.068,0.515c3.037,0.223,6.074,0.445,6.074,0.445
								c-1.721-0.003-5.4-0.186-5.541,0.064l16.865,0.679c-9.504-0.305,5.844,0.812,10.137,1.376
								c1.828-0.255,8.416-0.009,2.139-0.758c-7.064-0.876-4.141-0.122-10.584-0.621l9.164,0.115l0.787,0.127
								c0,0,1.381-0.018,2.762-0.035c1.381-0.026,2.762-0.052,2.762-0.052c12.42,0.888-5.52,0.838,10.441,1.419l-2.018-0.851
								c4.605,0.341,9.537,0.749,14.547,1.177c2.506,0.216,5.031,0.435,7.545,0.651c2.516,0.185,5.021,0.369,7.482,0.55
								c9.852,0.701,19.033,1.311,25.557,1.497c-3.615,0.211-5.234,0.775-0.299,1.427c-5.625-0.425-16.926-1.005-24.998-1.372
								c-1.549-0.208,10.127-0.299,18.881,0.324c-4.195-1.391-22.092-0.48-23.049-1.713c-22.277-1.859-16.719,0.019-35.613-1.957
								c-0.291,0.505-5.389-0.186-6.43,0.195c1.383,0.33,3.658,0.623,6.482,0.898c2.826,0.237,6.203,0.446,9.791,0.654
								c7.176,0.414,15.191,0.815,21.33,1.387c-1.211-0.045-3.643-0.132-4.113-0.064c2.193,0.176,4.066,0.327,5.736,0.461
								c1.674,0.083,3.145,0.157,4.533,0.227c2.777,0.114,5.229,0.167,8.305,0.235l-0.77-0.104
								c10.758,0.062,6.625,0.75,12.926,1.319c2.461,0.07,11.244,0.659,9.848,0.183l11.426,0.932l-0.527-0.609
								c6.459,0.209,7.859,0.651,13.721,0.514l0.287-0.516l-16.023-0.788c8.139,0.135,2.285-0.418,11.211-0.192
								c-9.988,0.2,7.055,0.558,8.018,1.083c0,0,1.645-0.017,3.291-0.034c1.645-0.04,3.291-0.08,3.291-0.08l-1.689,0.106
								c5.145,0.377,6.145-0.069,12.164,0.125c-3.549-0.22-6.482-0.447-9.66-0.596c-1.59-0.077-3.238-0.122-5.057-0.16
								c-1.818-0.055-3.805-0.083-6.068-0.075c1.648,0,3.701,0,5.902,0c2.201-0.017,4.553-0.035,6.797-0.052
								c4.49-0.028,8.557-0.03,10.158-0.006c6.914-0.092,11.725,0.455,18.191,0.586c-12.412,0.016,4.338,1.705-20.545,0.824
								c0.467-0.091,2.48-0.027,3.254,0.051c-3.297-0.764-14.914-0.217-20.307-0.172c1.373,0.422-4.277,0.362,5.287,0.858
								c-3.131-0.313,8.082-0.696,17.18-0.19l-1.623,0.796l13.256,0.373l-1.242,0.013c4.977,0.655,14.152-0.036,23.281,0.327
								c1.648-0.069,4.465-0.103,7.592-0.127c1.564-0.011,3.205-0.023,4.816-0.034c1.611-0.044,3.193-0.088,4.639-0.127
								c5.781-0.182,9.377-0.399,3.939-0.743c8.203,0.383,15.381-0.397,24.307-0.656l-11.145-0.154
								c13.152-0.811,9.377-0.316,19.85-1.666c1.07,0.186,3.414,0.283,1.297,0.603c4.41-0.152,9.291-0.321,14.295-0.494
								c5.002-0.244,10.123-0.571,15.018-0.868c4.893-0.333,9.564-0.562,13.639-1c4.08-0.404,7.58-0.801,10.148-1.18
								c6.207-0.505,9.822-0.482,14.051-0.709c4.227-0.222,9.076-0.559,17.752-1.62c1.822-0.241,1.09-0.362,1.344-0.538
								c0.252-0.197,1.498-0.352,7.256-0.93c0.777-0.029-11.008,1.912,1.791,0.342c4.521-0.852,9.885-1.394,15.594-1.965
								c5.713-0.553,11.752-1.325,17.641-2.364c3.145-0.303,7.426-0.834,10.645-1.195c3.217-0.402,5.373-0.613,4.277-0.197
								c-9.91,1.322-23.922,3.208-26.021,3.758c1.324-0.483-7.084,0.646,0.184-0.558c-15.035,1.483-9.689,1.481-23.18,2.827
								c-0.902,0.31,6.986-0.259,9.852-0.777c0.07,0.339-6.559,1.202-11.697,1.907c-5.137,0.712-8.799,1.127-2.758,0.959
								c7.203-0.815,11.832-1.707,16.227-2.486c4.395-0.781,8.559-1.419,14.826-1.918c-4.939,1.126-12.795,1.669-19.064,3.133
								l10.275-0.928c0,0,1.85-0.324,3.691-0.703c1.844-0.371,3.689-0.742,3.689-0.742l-0.428,0.16
								c18.145-1.797,16.635-2.855,32.705-5.592c-9.406,0.898,1.992-1.501-5.082-0.758c10.773-1.675,18.701-2.731,18.881-2.094
								c-20.098,3.564-1.037,0.901-19.598,4.333c3.105-0.207-4.309,1.653,6.834,0.093c12.479-2.331-3.824-0.019,8.641-2.08
								c0.748-0.048,1.525-0.099,1.1,0.065c5.695-1.232,6.725-0.928,13.619-2.416l-1.627,0.398
								c8.629-0.958,9.295-1.931,16.736-2.702c-3.029-0.007,4.875-1.25,9.385-2.335c-7.492,1.072-11.643,1.059-26.377,3.413
								c-1.717,0.683-0.609,0.734-6.631,1.889l9.566-1.57c-2.057,0.394-3.611,0.747-5.494,1.128c0,0-2.314,0.314-4.623,0.628
								c-1.154,0.157-2.311,0.314-3.176,0.432c-0.869,0.107-1.447,0.179-1.447,0.179c11.641-2.108,6.209-1.708,11.104-2.904
								c10.707-1.525,8.797-1.503,15.523-2.452c-0.285,0.35,4.898-0.269,11.697-1.188c6.801-0.909,15.217-2.134,21.379-3.056
								c-1.912,0.331-4.369,0.756-5.697,0.986c-8.85,1.948,6.217-0.599,6.57-0.496l6.445-1.443
								c-1.215,0.257-2.873,0.691-0.088,0.283c8.771-1.664,8.152-2.145,16.912-3.87c0.707,0.203-6.611,2.05-1.129,1.218
								c1.93-0.066,8.064-0.411,19.658-2.845c0.809-0.279,3.82-0.917,7.303-1.625c-0.475,0.107-1.082,0.234-1.309,0.3l7.814-1.105
								c-6.502,1.779-13.385,2.268-19.91,4.021l-0.477,0.626c-5.156,0.948-12.125,2.459-15.305,3.322
								c7.887-1.355,9.523-1.797,18.309-3.521c1.283,0.105-4.859,1.485-5.752,1.686l1.264-0.539
								c-10.586,1.484-15.604,3.416-28.707,5.615c-1.975,0.328-0.775,0.076-0.354-0.101c-5.254,1.184-10.504,2.09-15.719,2.953
								c-5.219,0.854-10.395,1.722-15.49,2.926l3.305-0.842c-6.963,1.455-20.633,4.15-34.301,6.823l-0.074,0.221
								c1.549-0.104-3.623,0.668-6.406,0.983l0.02-0.006c-6.871,1.251-13.473,2.454-18.879,3.439c1.76-0.13,3.986-0.349,6.549-0.696
								c2.121-0.556,14.807-2.22,12.994-2.509c5.904-0.485,15.215-2.528,19.541-2.979c-7.867,0.892,5.352-1.376,6.664-1.892
								c2.689-0.045,11.553-1.951,10.615-1.311c1.553-0.14-3.883,0.342-7.152,1.177c-8.098,1.781,15.014-2.129,4.902-0.019
								c6.439-1.26,13.934-2.557,21.467-3.912c7.527-1.393,15.102-2.808,21.723-4.2l-7.496,1.133
								c5.949-0.955,19.918-3.627,21.008-3.603c-4.389,0.841-9.521,1.825-15.133,2.9c-0.17,0.59,13.516-2.459,14.203-2.257
								l16.16-3.862l-7.15,1.292c4.457-1.12,19.451-3.573,30.539-5.574c-6.215,1.899-16.699,3.169-28.297,5.619
								c-8.416,1.822,5.363-0.276-2.633,1.367c2.115-0.214,7.348-1.198,9.891-1.867l3.176-0.463
								c-7.018,2.01-23.086,4.785-33.666,7.292c0.926-0.235,1.727-0.453,2.02-0.585c-8.275,1.215-16.639,2.702-24.631,4.295
								c4.277-0.547,5.928-0.982,8.346-1.488c0.334,0.102-7.232,1.525-10.076,2.196c7.502-1.119,1.463,0.138,6.213-0.59
								c-4.834,1.03-8.797,1.64-14.744,2.576c-3.119,0.275,2.484-0.766,1.807-0.98c-6.076,1.222-9.002,0.938-17.887,2.805
								c11.924-1.852-3.02,1.235-7.105,2.065l2.002-0.295c-3.715,0.976-6.924,1.501-9.592,1.572c4.857-0.93,9.592-1.572,8.146-1.735
								c-3.225,0.529-6.432,1.055-10.064,1.75l3.281-0.805c0,0-4.002,0.657-8.006,1.313c-2,0.336-4.004,0.646-5.51,0.87
								c-1.504,0.229-2.508,0.381-2.508,0.381c-2.49,0.711-6.666,1.813-8.818,2.638c-3.9,0.245-9.221,1.335-12.865,1.925l1.68-0.368
								c-7.146,0.656-22.906,3.002-24.203,3.478c-5.102,0.409,35.592-6.677-0.205-1.632c-13.65,1.607-8.393,1.958-16.152,3.206
								c0,0,0.436-0.15-0.346-0.123c-5.99,0.616-6.541,1.113-11.455,1.743c3.609-0.177,8.811-0.838,10.461-1.157
								c-0.877,0.303-3.988,0.67-7.453,1.043c-3.471,0.328-7.289,0.68-9.572,1.069c5.891-1.216-11.605,0.924-7.02,0.144
								c-2.988,0.19-6.02,0.477-8.99,0.733c-2.973,0.238-5.881,0.513-8.609,0.799c-5.457,0.574-10.201,1.197-13.326,1.681
								c-8.168-0.208-14.229,0.994-27.436,1.435c2.027-0.086,5.701-0.435,8.529-0.519c7.488-0.948-13.662,0.564-2.123-0.586
								c-2.467,0.228-0.16,0.274,2.367,0.043c4.436-0.324,8.586-0.793,7.463-0.951l-10.756,0.211l3.738-0.346
								c0,0-4.078,0.095-8.154,0.189c-4.08,0.014-8.16,0.027-8.16,0.027c-0.443,0.117,1.1,0.182,1.881,0.214
								c-18.916,0.615-40.5,1.209-57.045,1.28c-1.553,0.695-11.744,0.817-23.221,0.869c-5.738,0.074-11.795-0.091-17.254-0.123
								c-5.459-0.045-10.322-0.035-13.672,0.11c3.594-0.327,5.574-0.993,3.363-1.33c2.979,0.003,9.096-0.435,15.842-0.177
								c1.086,0.247,9.428,0.674,4.057,0.819c18.682-0.036-2.523-0.599,2.99-1.088c-10.348-0.112-18.557-0.068-25.818,0.051
								c-7.264,0.157-13.572,0.181-20.111,0.095l-0.324-0.178l-9.871-0.06c8.047,0.396,7.631,1.173-2.758,0.504l1.266,0.009
								c-2.953-0.3-7.521-0.386-12.498-0.623c-4.98-0.217-10.377-0.421-15.002-0.695l-6.305,0.12
								c-9.271-0.535-9.605-1.433-12.582-2.153c-7.25-0.527-12.982-0.759-18.193-0.896c-5.209-0.152-9.906-0.139-15.068-0.387
								c-4.627-0.754-26.316-2.627-14.781-2.131c-6.547-0.375-9.205-0.011-13.018,0.078c-3.809,0.052-8.77-0.205-19.916-1.817
								l5.846,0.196c-5.355-0.463-11.281-0.976-17.314-1.498c-6.029-0.562-12.162-1.133-17.934-1.671
								c-5.771-0.565-11.18-1.095-15.764-1.544c-4.576-0.514-8.322-0.988-10.773-1.37c8.031-0.375-26.51-4.382-30.135-6.226
								c1.023,0.421-6.99-0.504-8.186-0.501c-1.736-0.371-4.629-0.885-7.768-1.022c8.279,1.313-6.012,0.555,9.945,2.077
								c-4.076-0.083-8.727-0.288-14.561-0.758c-5.838-0.463-12.842-1.302-21.648-2.512l0.342-0.486l13.908,2.06
								c-1.355-0.574,5.809,0.435,8.768,0.611c-25.865-3.747,3.547-0.738-22.93-4.264c-2.607-0.011-0.932,0.075-7.826-0.729
								c3.238,0.424,3.865,0.143-1.354-0.576l-5.064-0.273c-4.555-1.11-0.715-0.673,3.297-0.243
								c4.012,0.436,8.186,0.927,4.281,0.083c10.283,0.985,28.004,3.181,24.801,2.064c-16.656-2.524-15.189-0.791-32.588-3.494
								l-1.814-0.552c-6.152-0.69-7.219-0.375-10.605-0.582c-0.285-0.206-1.826-0.551-5.762-1.167
								c-10.449-0.803-17.33-1.707-26.99-2.429c6.373,0.823,10.912,1.472,14.547,2.036c3.639,0.54,6.371,1.001,9.129,1.468
								c5.518,0.927,11.133,1.904,24.295,3.525c-4.152-0.35-22.645-2.877-23.887-2.314l0.326-0.487
								c-8.586-0.938-17.141-1.969-27.822-3.762l6.58,0.695c-7.121-0.891-12.986-1.98-18.49-2.951
								c-5.5-0.982-10.633-1.876-16.299-2.317c3.949,0.667,7.158,1.156,9.609,1.459c-7.334-0.914-16.486-2.405-24.402-3.738
								L91.922,77.55c0.176-0.237-10.201-1.933-5.127-1.534c-11.736-2.295-17.42-2.457-24.268-3.457
								c-11.986-2.554,10.51,1.488,11.816,0.966c-16.602-2.993-34.273-5.7-43.738-6.829c3.375,0.676,5.008,1.043,4.814,1.14
								c-0.471-0.248-7.184-1.334-10.918-1.969l-2.625-0.094c-6.189-1.277-5.273-1.328,0.059-0.692
								c-5.93-1.062-13.125-1.62-19.172-3.149c10.217,1.327,23.102,3.858,28.441,4.496C9.918,63.191,10.02,61.79-16.941,57.649
								c-0.307-0.219,4.293,0.242-0.875-0.644c-12.027-1.923-3.26,0.161-7.076-0.104c9.283,1.368,13.539,2.304,18.828,3.642
								l-2.508-0.144c-0.35-0.207-6.15-1.2-7.832-1.629l-1.588,0.304c0.795-0.501-8.41-2.556-15.746-3.568
								c7.295,1.706,5.309,1.343,7.199,2.39c-10.377-1.081-11.473-2.635-23.08-3.88c0.895-0.053,10.953,1.504,2.305-0.122
								c-7.174-1.247-6.299-0.603-11.139-1.267c5.514,0.407,4.182-0.213,10.164,0.174c12.762,2.104,5.148,0.884,17.65,2.784
								l-10.475-2.235c10.814,1.758,7.951,0.75,8.885,0.706c-18.369-3.673-14.055-1.588-25.902-3.742
								c-5.783-0.619,11.111,1.964,2.09,0.812 M59.184,65.394c-14.787-2.595-29.709-5.213-43.922-7.707
								c25.475,5.554,43.385,9.522,0.52,2.28l-2.83-0.39c5.586,1.104,15.238,2.742,24.352,4.188
								c3.713,0.406,11.57,1.203,18.471,1.854c3.451,0.32,6.662,0.618,8.992,0.833c2.332,0.205,3.787,0.316,3.725,0.27
								c-2.549-0.775-6.404-1.028-11.119-1.917L59.184,65.394z M69.383,69.194c8.371,1.527,6.498,0.94,7.842,0.907
								c-2.955-0.458-5.912-0.915-8.83-1.366C69.496,68.982,70.037,69.161,69.383,69.194z M76.768,69.776
								c-0.939-0.16-1.742-0.306-2.158-0.408L76.768,69.776z M-14.998,56.168c3.537,0.049,15.107,1.991,15.922,1.491
								c0.754-0.036-1.666-0.51-4.377-1.023c-3.043-0.534-6.295-1.104-9.738-1.709c-0.131,0.071-0.834,0.038-1.996-0.078
								c3.395,0.659,5.646,1.2,4.203,1.347c-8.609-2.32-7.951-0.747-17.373-2.572C-31.437,53.548-17.9,55.853-14.998,56.168z
								 M718.373,106.009c0.275,0.019,1.217,0.036,2.549,0.035c0,0-1.666,0.3-3.332,0.601c-1.668,0.275-3.338,0.551-3.338,0.551
								c-12.01,1.257-21.686,1.577-32.42,3.357c-5.068,0.312-7.814,0.171-10.436,0.092c2.477-0.223,4.799-0.423,6.727-0.563
								c7.539-1.05,12.303-1.566,15.584-1.888c3.279-0.338,5.086-0.388,6.711-0.406C703.67,107.747,706.209,107.862,718.373,106.009
								z M580.139,115.129c1.242-0.06,1.686-0.169,1.686-0.169c-6.725,0.4-13.156,0.744-19.248,1.037
								c-6.092,0.286-11.846,0.34-17.211,0.462c-10.73,0.191-19.914,0.286-27.178,0.046c1.404,0.248,5.365,0.565,9.748,0.782
								c4.387,0.154,9.193,0.324,12.289,0.433l-5.496,0.507l-3.418-0.419c0,0-2.383,0.111-4.768,0.221
								c-2.383,0.069-4.766,0.139-4.766,0.139c1.33,0.188,3.92,0.36,6.818,0.411c2.9,0.067,6.109,0.125,8.676,0.267
								c0.451-0.099,16.926-0.663,21.529-0.972l-13.162-0.396c1.779,0.078,7.031,0.098,12.705,0.084
								c5.674-0.069,11.766-0.271,15.225-0.383c0.131-0.265-11.803-0.47-13.295,0.123c-1.42-0.364,12.314-0.595,3.627-0.868
								c5.145-0.292,11.811-0.419,18.143-0.465c3.166-0.006,6.248-0.013,9.014-0.019c2.768,0.021,5.217-0.068,7.119-0.076
								l1.313,0.603c8.344-0.065,5.604-1,15.523-1.001c-12.174,0.591,2.092,0.635-7.602,1.054c3.1,0.128,0.086,0.687,9.807,0.267
								c8.033-1.317,10.266-0.069,17.854-1.283c5.127-0.04-5.463,0.851,4.588,0.358c2.875-0.269,4.982-0.548,6.541-0.785
								c1.559-0.23,2.568-0.416,3.24-0.579c1.346-0.326,1.342-0.565,1.676-0.907c-10.762,0.737-12.023,1.684-20.848,2.095
								c0,0,4.361-0.533,8.721-1.066c2.18-0.265,4.359-0.524,5.988-0.775c1.631-0.233,2.719-0.389,2.719-0.389
								c-3.227,0.117-5.609,0.289-7.607,0.434c3.51-0.244,6.477-0.708,9.016-1.117c1.445-0.232,2.771-0.446,4.002-0.645
								c-9.885,0.872-18.693,1.314-20.27,1.148l1.348-0.386c-3.523-0.067-9.225,0.497-11.848,0.878
								c-4.436,0.328-8.869,0.562-12.436,0.768c-3.568,0.197-6.27,0.308-7.246,0.147l3.363-0.408
								c-5.457,0.253-8.492,0.393-11.877,0.55C590.754,114.972,587.01,115,580.139,115.129z M223.162,90.215
								c3.207,0.99,6.582,2.018,12.998,3.209c6.42,1.175,15.871,2.609,31.221,4.43l-2.43-0.212
								c15.396,2.491,30.268,2.741,49.041,5.453c-9.201-0.572-8.697-0.52-18.904-0.694c0,0,2.461,0.196,4.922,0.393
								c2.463,0.184,4.926,0.368,4.926,0.368c-2.791,0.313,7.041,1.048,14.246,1.848l-6.436,0.039
								c-4.307-0.67-15.508-1.944-15.199-1.745c2.459,0.213-14.682-2.648-24.064-3.541c0.906,0.6,20.695,2.731,11.781,2.488
								c7.822,0.56,8.723,1.233,16.883,1.917c-7.848-0.51-2.01,0.48-7.855,0.159c0,0,3.338,0.361,6.684,0.663
								c3.342,0.316,6.684,0.631,6.684,0.631c0.33,0.218-19.49-1.752-8.615,0.049c5.387,0.318,19.646,2.167,19.953,1.67l0.313,0.196
								c5.002,0.593,6.125,0.525,7.529,0.511c1.402-0.007,3.09,0.033,9.232,0.758c0.162-0.252-2.162-0.654-6.582-1.024
								c-3.725-0.28-4.342,0.019-12.008-0.727c-3.398-0.778,9.238,1.04,3.994-0.223c-2.613-0.628-20.277-1.867-14.584-2.046
								l9.982,1.182c0.307-0.499,7.533,0.305,7.383-0.139c6.123,0.491,11.836,1.581,18.131,1.731
								c2.625-0.093-1.842-1.156,8.463,0.102c7.984,1.651,31.826,3.386,40.754,4.023c0,0,1.959,0.074,3.916,0.147
								c1.961,0.05,3.92,0.1,3.92,0.1c-0.639-0.313-14.922-1.118-9.873-1.131c0,0,3.043,0.215,6.086,0.43
								c3.047,0.177,6.092,0.354,6.092,0.354l-0.945,0.139c4.031,0.321,8.176,0.386,11.867,0.522
								c-3.826,0.119-12.6-0.635-10.893,0.033c5.711,0.5,6.57,0.764,11.854,1.02c-1.156-0.04-2.15-0.054-2.01,0.033
								c11.564,1.031,11.23,0.152,14.141,0.172c11.686,0.052-11.699-1.448-10.166-1.929c0,0,2.125,0.126,5.311,0.316
								c3.189,0.188,7.434,0.464,11.689,0.628c8.504,0.38,17.006,0.761,17.006,0.761c-2.908,0.023-5.836,0.044-4.762,0.327
								c8.328,0.701,0.172,0.437,11.891,1.039c-0.398-0.413,3.291-0.276,8.123-0.2c4.83,0.104,10.797,0.292,14.943,0.231
								c3.861,0.454,4.656,0.546-3.809,0.235c0.953,0.524,12.316,0.766,16.354,0.962c2.344-0.025,6.336-0.067,8.865-0.094
								c-3.373-0.313-1.928-0.589,5.416-0.645l0.43-0.094c-12.02-0.26-30.676-1.625-38.225-1.383l2.145-0.162
								c-3.473-0.241-7.104-0.361-10.693-0.469c-3.59-0.117-7.141-0.232-10.457-0.34c-6.631-0.199-12.326-0.41-15.502-1.042
								c0.611-0.333-2.787-0.233-2.514-0.747c0,0-0.641-0.008-1.604-0.021c-0.961-0.013-2.244-0.024-3.523-0.068
								c-2.564-0.072-5.127-0.145-5.127-0.145l2.146-0.093l-17.398-1.072l0.473-0.066c-4.152-0.042-7.854-0.078-11.166-0.111
								c-3.309-0.07-6.23-0.132-8.826-0.188c-0.039,0.228,0.498,0.343-2.273,0.285c-2.768-0.114-4.871-0.269-6.736-0.453
								c-0.02,0-0.02,0-0.02,0.001v-0.003c-4.254-0.417-7.07-0.981-12.305-1.547l16.166,1.274c1.348-0.281,0.006-0.798-7.883-1.722
								c3.232,0.251,4.611,0.06,0.609-0.315c-0.453,0.064-10.602-0.623-6.76,0.006c-15.354-1.196-40.064-4.578-63.373-6.415
								c16.746,1.342-13.316-1.951,5.229-0.128c-12.861-1.994-11.205-0.57-24.363-2.223c-1.092-0.355,7.17,0.874,10.246,0.79
								c-10.936-1.414-20.203-2.251-29.385-3.071c-9.174-0.902-18.26-1.797-28.832-3.24l-0.842-0.599
								C232.239,91.337,227.791,90.765,223.162,90.215z M181.274,84.951c-4.072-0.535-8.203-1.077-12.402-1.628
								c0.402,0.066,0.787,0.128,1.209,0.197l-12.254-1.455c7.463,1.32,12.33,2.598,1.795,1.257
								c0.914-0.066-2.121-0.775,1.545-0.339c-6.986-1.352-22.373-3.965-18.463-2.629c13.627,1.356,3.01,1.403,13.709,2.499
								c-5.777-0.388-11.393-1.456-16.803-2.057c5.67,0.45-1.17-1.081-9.543-2.606c-3.684-0.458-13.566-2.125-19.68-2.889
								c2.098,0.785-3.24,0.208,6.645,1.875c-3.645-0.458-9.295-1.23-15.557-2.491c2.506,0.327,6.887,0.981,6.605,0.766
								c-4.002-1.06-8.758-1.817-11.357-2.415c-2.094-0.314-4.217-0.634-6.281-0.944c0.607,0.139,1.137,0.275,1.51,0.401
								l-7.025-0.734c9.297,1.29,4.244,0.897,4.086,1.139c0.334-0.48-5.953-1.033-9.139-1.531l6.814,1.667
								c-3.383-0.265-11.711-2.304-10.055-1.477c14.598,2.581,20.23,3.418,33.494,5.368l-5.303-1.282
								c14.975,2.065,9.094,2.186,25.854,4.803c7.023,0.741,25.229,3.815,25.689,3.1c-2.129-0.087,10.344,2.295,16.146,2.771
								c6.471,0.203,25.713,2.882,19.934,1.714c-5.189-0.758-12.246-1.375-16.352-2.443l10.098,1.305l-6.557-1.345
								C183.037,86.182,182.766,85.752,181.274,84.951z M-42.937,44.025c-0.115-0.022-0.248-0.049-0.381-0.075
								c0.143,0.025,0.287,0.05,0.42,0.074L-42.937,44.025z"/>
							<path fill="#E05241" d="M866.864,80.324c2.848-0.718,9.973-2.027,8.508-2.146C875.621,78.565,862.672,80.63,866.864,80.324z"
								/>
							<path fill="#E05241" d="M875.451,79.134c0.479-0.193,0.104-0.289,3.289-0.902l-8.76,1.756L875.451,79.134z"/>
							<path fill="#E05241" d="M884.905,80.321c4.486-1.164,7.316-1.878,14.439-3.209c2.865,0.515-11.586,2.503-14.637,4.052
								c13.063-2.352,16.895-4.032,27.604-6.152C906.906,75.602,885.164,79.485,884.905,80.321z"/>
							<polygon fill="#E05241" points="879.362,82.699 886.574,81.105 885.838,81.182 878.625,82.776 							"/>
							<path fill="#E05241" d="M720.305,99.67c-0.693-0.225-5.201,0.685-7.635,1.028C714.653,100.492,717.449,100.248,720.305,99.67
								z"/>
							<path fill="#E05241" d="M534.711,112.603c7.543-0.133,12.988-0.335,18.471-0.517c5.48-0.137,10.994-0.423,18.672-0.627
								c-5.051-0.087-9.242-0.013-12.955,0.072c-3.715,0.045-6.947,0.164-10.082,0.282c-6.266,0.237-12.131,0.473-20.611,0.115
								L534.711,112.603z"/>
							<path fill="#E05241" d="M540.035,110.025c2.494,0.618-11.621,0.686-9.439,1.141c10.15-0.123,4.729-0.571,13.945-0.494
								L540.035,110.025z"/>
							<polygon fill="#E05241" points="608.66,119.041 604.074,119.535 607.774,119.277 							"/>
							<polygon fill="#E05241" points="471.364,109.001 473.033,108.925 465.494,108.447 							"/>
							<path fill="#E05241" d="M474.703,108.848l-1.67,0.078L474.703,108.848z"/>
							<polygon fill="#E05241" points="602.805,120.578 609.647,120.448 613.018,120.038 							"/>
							<path fill="#E05241" d="M542.489,118.175l6.105-0.18C547.379,118.031,539.028,117.756,542.489,118.175z"/>
							<polygon fill="#E05241" points="425.278,106.387 417.879,106.116 418.629,106.228 426.008,106.498 							"/>
							<path fill="#E05241" d="M494.69,119.157c4.207,0.625-12.178-0.299-3.518,0.428
								C498.899,119.756,495.774,119.385,494.69,119.157z"/>
							<path fill="#E05241" d="M405.42,111.4c-1.008-0.069-2.055-0.125-3.066-0.141C403.557,111.314,404.567,111.36,405.42,111.4z"
								/>
							<path fill="#E05241" d="M405.42,111.4c3.219,0.22,6.424,0.62,8.643,0.636C410.065,111.548,408.596,111.528,405.42,111.4z"/>
							<path fill="#E05241" d="M368.516,108.613l2.922,0.274c-3.002-0.014-1.586,0.068,1.082,0.101
								c3.1,0.239,2.938,0.076,3.314,0.005c0.625-0.008,1.248-0.017,1.912-0.026c-0.953-0.015-1.811-0.028-2.551-0.04
								C370.414,108.53,367.489,108.313,368.516,108.613z"/>
							<path fill="#E05241" d="M232.938,85.624c10.684,1.564,13.443,1.984,12.82,2.278c10.139,1.411,8.641,0.586,14.793,1.225
								C249.045,87.723,246.719,87.275,232.938,85.624z"/>
							<path fill="#E05241" d="M260.551,89.126c1.289,0.155,2.52,0.303,4.021,0.484C262.901,89.386,261.649,89.241,260.551,89.126z"
								/>
							<polygon fill="#E05241" points="411.364,115.917 404.604,116.014 407.076,116.106 							"/>
							<path fill="#E05241" d="M217.096,83.276c1.975,0.293,5.166,0.712,6.705,1.048C224.426,84.04,215.121,82.984,217.096,83.276z"
								/>
							<path fill="#E05241" d="M257.469,95.798c1.072,0.351,7.941,1.13,10.732,1.52C264.192,96.813,261.014,95.689,257.469,95.798z"
								/>
							<path fill="#E05241" d="M186.219,80.455c1.975,0.309,4.992,0.992,3.625,1.101C192.748,81.794,196.737,81.719,186.219,80.455z
								"/>
							<polygon fill="#E05241" points="237.885,93.232 239.391,93.549 246.76,94.254 							"/>
							<path fill="#E05241" d="M263.406,101.925c8.309,0.616-12.988-2.713,1.291-1.267c-18.305-2.796,1.332,0.792-12.199-1.006
								C260.408,100.81,264.229,101.853,263.406,101.925z"/>
							<path fill="#E05241" d="M252.498,99.652c-1.156-0.16-2.408-0.332-3.756-0.518C250.244,99.342,251.448,99.507,252.498,99.652z
								"/>
							<path fill="#E05241" d="M136.823,80.515c1.195,0.143,2.029,0.22,2.787,0.281C138.662,80.691,137.754,80.595,136.823,80.515z"
								/>
							<path fill="#E05241" d="M209.213,94.282l12.455,1.04c-4.16-0.348-11.439-1.238-17.523-1.938
								c-6.088-0.698-10.973-1.281-10.375-0.855c6.713,1.128,14.834,2.034,18.205,2.215L209.213,94.282z"/>
							<path fill="#E05241" d="M69.487,60.919l5.355,0.625l-6.623-1.174C70.1,60.781,66.594,60.685,69.487,60.919z"/>
							<path fill="#E05241" d="M66.94,60.144l1.279,0.226C67.936,60.307,67.533,60.234,66.94,60.144z"/>
							<path fill="#E05241" d="M160.207,83.74c3.971,0.643,7.16,1.12,10.82,1.538C169.535,84.946,159.623,83.318,160.207,83.74z"/>
							<polygon fill="#E05241" points="31.918,55.613 40.705,56.979 31.125,55.415 							"/>
							<polygon fill="#E05241" points="-8.808,47.589 -10.301,47.21 -17.615,46.201 -16.103,46.583 							"/>
							<path fill="#E05241" d="M42.582,69.283c5.938,1.068,10.686,1.252,9.152,0.875l-11.543-1.9
								c2.848,0.996,3.201,0.532,9.871,1.765L42.582,69.283z"/>
						</g>
					</g>
				</g>
			</g>
		</g>
	</g>
</g>
<g id="path_4_">
	<g>
		<g>
			<g>
				<path fill="#C9C9C8" d="M2709.369,34.666l-34.156,5.822l-12.463,1.733c-38.012,5.624-85.607,12.629-128.932,17.372
					c-21.648,2.478-42.229,4.312-59.924,5.755c-8.852,0.667-16.986,1.187-24.172,1.665c-7.189,0.457-13.439,0.683-18.52,0.904
					c32.779-1.704,79.396-5.411,129.203-11.668c24.908-3.071,50.629-6.629,75.873-10.385
					C2661.524,42.106,2686.305,38.23,2709.369,34.666z"/>
				<path fill="#C9C9C8" d="M2245.334,67.32c2.914,0.13,4.459,0.199,9.648,0.43c-3.227-0.113-6.291-0.221-9.199-0.323
					c-2.906-0.144-5.658-0.28-8.262-0.409c-5.207-0.257-9.82-0.484-13.9-0.686c-8.162-0.4-14.189-0.695-18.564-0.91
					c-8.572-0.414-9.6-0.463-10.234-0.494c1.299,0.061,13.729,0.636,6.635,0.134C2223.215,66.182,2236.049,66.843,2245.334,67.32z"
					/>
				<path fill="#C9C9C8" d="M2245.334,67.319c-7.416-0.437-8.291-0.512-6.141-0.415c2.152,0.096,7.33,0.39,12.018,0.543
					C2260.588,67.811,2268.008,68.153,2245.334,67.319z"/>
				<path fill="#C9C9C8" d="M2049.865,56.021c-19.84-1.13,33.287,2.253,45.83,3.207L2036,55.717
					c-8.707-0.624-16.025-1.148-21.15-1.516c-2.561-0.212-4.572-0.378-5.936-0.491c-1.361-0.122-2.074-0.196-2.035-0.217
					c0.02-0.01,0.227-0.006,0.633,0.012c0.408,0.021,1.016,0.054,1.836,0.098c1.641,0.098,4.135,0.247,7.582,0.452
					C2023.824,54.466,2034.533,55.106,2049.865,56.021z"/>
				<path fill="#C9C9C8" d="M2010.319,54.49l-30.928-2.087C1996.684,53.429,2004.865,54.034,2010.319,54.49z"/>
				<path fill="#C9C9C8" d="M2040.344,56.328c-20.588-0.881-21.486-1.131-30.025-1.838l65.518,3.93
					C2047.989,56.816,2035.053,56.206,2040.344,56.328z"/>
				<path fill="#C9C9C8" d="M2129.846,62.384c29.961,1.407,34.107,1.533,26.576,1.073c-3.766-0.214-10.449-0.595-18.283-1.041
					c-3.918-0.217-8.125-0.451-12.398-0.688c-4.27-0.288-8.607-0.58-12.791-0.862c14.281,0.959,27.057,1.492,38.232,2.096
					c11.178,0.584,20.766,1.085,28.699,1.5c15.865,0.845,25.109,1.374,27.211,1.544
					C2211.297,66.346,2186.934,65.251,2129.846,62.384z"/>
				<path fill="#C9C9C8" d="M2492.742,64.167c0,0-9.676,0.883-19.35,1.767c-9.689,0.761-19.373,1.521-19.373,1.521
					s-2.799,0.187-6.998,0.467c-4.201,0.223-9.805,0.519-15.406,0.815c-5.604,0.281-11.205,0.626-15.41,0.749
					c-4.205,0.158-7.008,0.264-7.008,0.264c-0.689-0.027,2.986-0.205,9.186-0.471c6.193-0.34,14.912-0.818,24.322-1.335
					c9.408-0.545,19.496-1.325,28.451-1.931C2480.098,65.248,2487.903,64.581,2492.742,64.167z"/>
				<path fill="#C9C9C8" d="M1732.908,34.198c0,0-11.029-0.734-22.059-1.469c-2.758-0.184-5.516-0.367-8.102-0.539
					c-2.586-0.149-5-0.289-7.07-0.408c-4.139-0.238-6.898-0.397-6.898-0.397c-4.354-0.464-28.182-2.185-24.443-2.105
					c1.496,0.205,12.98,0.992,26.924,1.915c3.486,0.229,7.125,0.469,10.799,0.711c3.674,0.271,7.383,0.545,11.01,0.813
					C1720.323,33.26,1727.248,33.776,1732.908,34.198z"/>
				<path fill="#C9C9C8" d="M1622.881,27.588l65.898,3.797C1692.592,31.786,1681.752,31.244,1622.881,27.588z"/>
				<path fill="#C9C9C8" d="M1947.781,50.962c0,0,32.314,2.152,64.631,4.305c32.332,1.902,64.664,3.804,64.664,3.804
					s-27.123-1.571-54.246-3.142c-6.783-0.374-13.561-0.81-19.914-1.239c-6.354-0.418-12.283-0.809-17.367-1.144
					c-10.166-0.669-16.943-1.115-16.943-1.115L1947.781,50.962z"/>
				<polygon fill="#C9C9C8" points="1382.86,17.191 1449.596,18.62 1412.123,17.872 				"/>
				<path fill="#C9C9C8" d="M1484.375,20.792l-25.959-1.191c18.498,0.613,30.209,0.986,37.928,1.375
					c7.713,0.483,11.445,0.717,13.992,0.877c-4.553-0.217-9.061-0.432-13.42-0.64C1492.557,20.985,1488.338,20.932,1484.375,20.792z
					"/>
				<path fill="#C9C9C8" d="M1428.233,19.118c8.387,0.25,27.98,0.835,56.143,1.675l0.91,0.041
					C1452.569,19.85,1435.436,19.334,1428.233,19.118z"/>
				<path fill="#C9C9C8" d="M1510.336,21.854c2.369,0.113,4.189,0.2,6.557,0.313C1514.342,22.099,1512.885,22.018,1510.336,21.854z"
					/>
				<path fill="#C9C9C8" d="M1754.524,37.458c-78.182-5.881,2.588-0.438,41.348,2.056
					C1737.553,35.759,1782.28,39.124,1754.524,37.458z"/>
				<path fill="#C9C9C8" d="M1624.508,27.851c-19.299-1.069-6.568-0.121-5.301,0.071c0,0-4.379-0.275-10.947-0.689
					c-6.564-0.461-15.33-0.87-24.094-1.293c-17.529-0.855-35.059-1.71-35.059-1.71s18.855,0.819,37.709,1.638
					c4.713,0.208,9.428,0.416,13.846,0.611c4.416,0.254,8.537,0.492,12.07,0.695C1619.799,27.58,1624.508,27.851,1624.508,27.851z"
					/>
				<polygon fill="#C9C9C8" points="1523.155,22.962 1549.108,24.229 1514.862,22.741 				"/>
				<path fill="#C9C9C8" d="M1678.071,33.113c0.273,0.048,0.088,0.067,4.27,0.362C1665.965,32.456,1669.334,32.628,1678.071,33.113z
					"/>
				<path fill="#C9C9C8" d="M1560.742,25.238c-4.783-0.197,10.326,0.668,33.434,1.925c23.094,1.514,54.18,3.551,81.377,5.333
					l9.467,0.524c7.549,0.499,13.402,0.886,17.83,1.178c4.422,0.348,7.42,0.584,9.26,0.729c3.678,0.309,2.723,0.29-0.719,0.091
					c-6.879-0.451-23.719-1.362-33.32-1.906c-1.445-0.232,26.398,1.406-1.342-0.432c-31.932-2.01-40.131-2.342-49.959-2.887
					c-9.047-0.662-16.707-1.222-23.355-1.708c-6.648-0.5-12.291-0.778-17.295-1.12C1576.114,26.327,1568.655,25.807,1560.742,25.238
					z"/>
			</g>
			<g>
				<path fill="#C9C9C8" d="M4037.797,9.613l-34.643,0.575l-12.582-0.163c-76.852-0.254-192.359,0.575-233.021-0.14
					C3823.19,10.084,3944.442,9.704,4037.797,9.613z"/>
				<path fill="#C9C9C8" d="M3571.571,8.359c2.918,0.021,4.467,0.032,9.662,0.069c-103.383,0.152-39.383,0.191-53.604-0.086
					C3549.418,8.351,3562.27,8.355,3571.571,8.359z"/>
				<path fill="#C9C9C8" d="M3571.571,8.358C3541.85,8.125,3616.973,8.338,3571.571,8.358L3571.571,8.358z"/>
				<path fill="#C9C9C8" d="M3375.746,7.95c-19.875,0.119,33.365,0.156,45.945,0.32l-59.803,0.248
					C3326.971,8.249,3314.299,8.084,3375.746,7.95z"/>
				<path fill="#C9C9C8" d="M3336.18,8.934l-30.998,0.105C3322.506,8.84,3330.709,8.865,3336.18,8.934z"/>
				<path fill="#C9C9C8" d="M3366.262,8.854c-20.602,0.427-21.514,0.195-30.082,0.08l65.639-0.223
					C3373.922,8.861,3360.975,9.065,3366.262,8.854z"/>
				<path fill="#C9C9C8" d="M3455.971,9.32c59.986-0.246,16.592-0.344-16.957-0.5C3553.522,8.721,3570.295,9.223,3455.971,9.32z"/>
				<path fill="#C9C9C8" d="M3819.178,10.594l-38.836,0.24l-44.854-0.211C3732.754,10.4,3799.762,10.713,3819.178,10.594z"/>
				<path fill="#C9C9C8" d="M3058.03,3.573c0,0-11.053,0.044-22.107,0.088c-2.764,0.011-5.527,0.022-8.117,0.032
					c-2.592,0.033-5.012,0.063-7.086,0.089c-4.146,0.053-6.912,0.088-6.912,0.088c-2.189-0.051-9.262-0.188-15.316-0.122
					c-6.057,0.052-11.1,0.083-9.232-0.041c1.51,0.081,13.027-0.228,27.01-0.201c3.496-0.016,7.145-0.032,10.83-0.049
					c3.682,0.013,7.4,0.025,11.037,0.038C3045.408,3.523,3052.356,3.55,3058.03,3.573z"/>
				<path fill="#C9C9C8" d="M2947.824,6.216c0,0,4.115-0.297,10.301-0.558c3.092-0.146,6.699-0.315,10.563-0.497
					c3.865-0.171,7.986-0.41,12.113-0.503c8.25-0.237,16.5-0.524,22.689-0.657c6.189-0.079,10.316-0.132,10.316-0.132
					c1.916,0.066,0.16,0.155-9.447,0.287C2994.752,4.418,2977.285,4.694,2947.824,6.216z"/>
				<polygon fill="#C9C9C8" points="3273.547,9.838 3403.096,9.283 3294.424,9.831 				"/>
				<path fill="#C9C9C8" d="M2709.172,33.377c0,0,16.475-2.644,32.951-5.288c8.244-1.29,16.488-2.579,22.672-3.545
					c6.188-0.942,10.313-1.57,10.313-1.57s-2.316,0.35-5.791,0.876c-3.473,0.544-8.102,1.271-12.73,1.997
					c-9.254,1.471-18.508,2.941-18.508,2.941L2709.172,33.377z"/>
				<path fill="#C9C9C8" d="M2809.778,19.363c0,0-6.453,0.757-12.906,1.515c-3.227,0.388-6.453,0.776-8.871,1.067
					c-2.418,0.302-4.031,0.503-4.031,0.503c9.164-1.299,16.668-2.216,22.826-3.018c6.156-0.805,10.988-1.358,14.828-1.792
					c7.684-0.841,11.4-1.249,13.939-1.526C2826.516,17.255,2817.641,18.31,2809.778,19.363z"/>
				<path fill="#C9C9C8" d="M2754.153,27.164c8.303-1.197,27.686-4.145,55.625-7.801l0.904-0.107
					C2778.225,23.52,2761.285,26.149,2754.153,27.164z"/>
				<path fill="#C9C9C8" d="M2835.563,16.112c2.355-0.271,4.168-0.479,6.521-0.75C2839.555,15.707,2838.104,15.853,2835.563,16.112z
					"/>
				<path fill="#C9C9C8" d="M3079.817,5.303c-78.402-0.363,2.555-0.619,41.393-0.859C3062.77,4.803,3107.623,5.012,3079.817,5.303z"
					/>
				<path fill="#C9C9C8" d="M2949.471,6.281c-19.293,1.263-6.537,0.671-5.258,0.709c0,0-4.379,0.254-10.949,0.634
					c-1.643,0.097-3.422,0.202-5.305,0.313c-1.879,0.138-3.861,0.283-5.914,0.433c-4.102,0.301-8.477,0.621-12.854,0.942
					c-4.377,0.293-8.744,0.708-12.844,1.062c-4.098,0.359-7.922,0.694-11.199,0.982c-3.279,0.272-6.006,0.558-7.916,0.751
					s-3.002,0.303-3.002,0.303s1.174-0.125,3.227-0.343c2.051-0.226,4.984-0.533,8.508-0.847c3.523-0.328,7.635-0.71,12.039-1.12
					c2.203-0.205,4.479-0.416,6.791-0.631c2.314-0.182,4.666-0.367,7.02-0.552c4.703-0.37,9.408-0.74,13.818-1.087
					c4.408-0.361,8.533-0.563,12.064-0.804C2944.762,6.579,2949.471,6.281,2949.471,6.281z"/>
				<path fill="#C9C9C8" d="M2848.391,15.142c0,0,1.615-0.182,4.035-0.456c2.422-0.263,5.645-0.664,8.879-0.972
					c6.463-0.653,12.926-1.305,12.926-1.305s-8.52,0.916-17.041,1.831c-8.51,1.007-17.02,2.015-17.02,2.015L2848.391,15.142z"/>
				<path fill="#C9C9C8" d="M3003.268,6.346c0.273,0.029,0.092,0.061,4.279,0.062c-4.098,0.019-6.959,0.062-8.811,0.121
					c-1.852,0.042-2.695,0.058-2.752,0.051s0.672-0.036,1.961-0.081C2999.233,6.465,3001.082,6.372,3003.268,6.346z"/>
				<path fill="#C9C9C8" d="M2885.889,11.733c-2.383,0.227,0.197,0.042,6.256-0.437c3.029-0.243,6.926-0.555,11.51-0.922
					c4.586-0.313,9.857-0.673,15.627-1.066c23.082-1.55,54.191-2.987,81.428-3.378c0,0,0.592-0.018,1.479-0.044
					c0.889-0.013,2.072-0.031,3.258-0.049c2.367-0.035,4.736-0.071,4.736-0.071c7.561-0.032,13.424-0.057,17.857-0.076
					c4.436,0.036,7.443,0.061,9.289,0.076c3.689,0.049,2.736,0.097-0.711,0.142c-6.902,0.035-23.744,0.307-33.35,0.439
					c-1.461-0.129,26.406-0.453-1.373-0.335c-15.98,0.407-26.021,0.638-33.285,1.068c-7.266,0.375-11.768,0.606-16.68,0.86
					c-9.053,0.432-16.719,0.798-23.373,1.116c-6.65,0.399-12.289,0.738-17.291,1.038c-2.502,0.146-4.844,0.283-7.074,0.413
					c-2.23,0.154-4.346,0.3-6.398,0.442C2893.69,11.218,2889.846,11.472,2885.889,11.733z"/>
			</g>
		</g>
	</g>
</g>
<g id="path_2_">
	<g>
		<g>
			<g>
				<g>
					<g>
						<path fill="#636DB0" d="M3977.766,12.026c-2.992,0.015-3.861,0.217-4.297,0.318l33.572-0.017
							c-1.053-0.224-10.713-0.501-4.26-0.635c-2.883-0.248-11.656-0.036-12.926,0.267l2.43-0.342
							c-7.74,0.438-13.016-0.423-7.977-0.681l-0.652,0.005l-21.426,1.685C3970.098,12.725,3968.285,12.047,3977.766,12.026z"/>
						<path fill="#636DB0" d="M3288.196,11.169c4.35-0.078,4.875-0.159,4.387-0.242
							C3291.022,10.989,3289.535,11.062,3288.196,11.169z"/>
						<path fill="#636DB0" d="M3957.227,13.022l-6.715,0.526C3953.203,13.407,3955.561,13.218,3957.227,13.022z"/>
						<path fill="#636DB0" d="M4003.723,5.003c0.01-0.028,0.082-0.053-0.09-0.091l-3.018,0.27c0.045,0,0.063,0,0.08,0
							C4001.801,5.116,4002.799,5.058,4003.723,5.003z"/>
						<path fill="#636DB0" d="M3804.869,15.003c-0.715,0.012-1.342,0.022-2.193,0.037
							C3803.475,15.026,3804.199,15.014,3804.869,15.003z"/>
						<path fill="#636DB0" d="M4094.676,1.989l-14.928,0.507c1.994-0.239-5.211-0.168-2.066-0.447
							c-1.143,0.038-6.473,0.133-5.021,0.257l3.045-0.016c-7.867,0.699-3.1,0.968-16.15,1.501
							c8.102,0.415,11.654,0.035,15.951-0.283c1.451-0.036,2.664-0.066,3.896-0.097l12.418-0.979L4094.676,1.989z"/>
						<path fill="#636DB0" d="M3496.203,7.197l0.162-0.055C3496.221,7.162,3496.184,7.18,3496.203,7.197z"/>
						<path fill="#636DB0" d="M3497.018,6.919l-0.652,0.224C3497.164,7.031,3500.244,6.924,3497.018,6.919z"/>
						<path fill="#636DB0" d="M3959.694,12.569c-0.209,0.13-1.07,0.289-2.467,0.453l5.004-0.396
							C3961.524,12.611,3960.58,12.589,3959.694,12.569z"/>
						<path fill="#636DB0" d="M3971.076,11.041l12.58-0.099l4.641-0.363C3983.475,10.716,3977.856,10.811,3971.076,11.041z"/>
						<path fill="#636DB0" d="M3824.737,15.414c-26.049,0.107,6.398-0.823-5.564-1.021c-7.232,0.097-9.789,0.487-14.303,0.61
							c20.666-0.334-2.791,1.287,18.037,1.08c-2.955,0.707-15.027,0.771-22.098,0.579c-7.994-0.682,6.998-0.499,8.811-1.167
							c-8.357,0.111-6.889,0.235-10.441,0.615c-13.125-0.158-27.154,0.837-35.004-0.107c-9.498,0.15-8.873,0.476-14.338,0.835
							c-1.088,0.729,14.139,0.383,17.656,0.957c-0.727-0.062-2.158-0.185-1.74-0.287l8.211,0.153
							c-7.795-0.254,1.088-0.729,5.258-0.786c3.025-0.015,9.063-0.047,8.229,0.154l-4.586,0.157
							c5.91,0.229,13.033-0.532,19.27-0.138c0.326,0.164-2.031,0.241-2.393,0.343c6.996-0.498,13.74-0.469,24.09-0.821l-6,0.723
							c8.285-0.8,27.027-0.572,40.025-0.15c-1.451-0.122-4.043-0.208-2.484-0.348c7.633-0.173,13.396,0.323,9.861,0.704
							c7.451-0.6,28.404,0.505,38.564-0.274l46.715-3.676c-1.75,0.093-3.617,0.167-5.557,0.199
							c-4.242-0.635-6.525-0.558,0.906-1.156c-7.305,0.336-4.514,0.846-15.48,0.872c4.297-0.319,5.385-1.048-5.129-1.123
							c-26.285,0.634-43.705,2.438-68.25,3.361c-0.906-0.489-20.174-0.353-29.547-0.467c3.572-0.525,10.533-0.675,17.748-0.781
							c-4.533-0.018-12.328-0.048-18.109-0.07L3824.737,15.414z"/>
						<path fill="#636DB0" d="M3885.772,13.771c-0.654-0.044-1.342-0.068-2.031-0.092
							C3884.104,13.72,3884.719,13.751,3885.772,13.771z"/>
						<path fill="#636DB0" d="M3847.397,14.47c0.09-0.019,0.053-0.033,0.09-0.054c-0.762,0.013-1.514,0.025-2.283,0.038
							C3845.973,14.459,3846.852,14.466,3847.397,14.47z"/>
						<path fill="#636DB0" d="M3953.53,11.465c1.561-0.117,2.717-0.203,4.277-0.319c-0.961,0.037-2.174,0.083-3.334,0.128
							C3953.367,11.339,3952.84,11.405,3953.53,11.465z"/>
						<path fill="#636DB0" d="M3958.787,12.325l-0.834,0.201c0.67,0.016,1.141,0.028,1.74,0.043
							C3959.873,12.461,3959.674,12.37,3958.787,12.325z"/>
						<path fill="#636DB0" d="M3725.201,10.991l-2.502,0.106C3724.205,11.089,3724.858,11.046,3725.201,10.991z"/>
						<path fill="#636DB0" d="M3795.715,14.583c9.064-0.047,1.088-0.729,13.904-0.733l-3.762-0.044
							c9.199-0.313,25.352-0.169,36.281-0.194c-1.232,0.291,6.625,0.354,5.348,0.805c7.469-0.105,14.863-0.206,18.707-0.672
							c4.631,0.152,11.656-0.258,17.547-0.065c-2.482-0.273,8.375-0.924-5.945-0.59c1.16-0.037,0.436-0.1,1.576-0.138
							c-9.227-0.381-12.924,0.265-20.863,0.273c-4.75-0.269,7.758-0.435,3.281-0.543c-9.916,0.251-31.125-0.324-30.473,0.69
							c-7.215,0.071-8.211-0.152-10.369-0.338c-11.42,1.081-42.381-0.464-42.271,0.918c4.17-0.055,10.957-0.025,17.076-0.321
							L3795.715,14.583z"/>
						<path fill="#636DB0" d="M3938.321,11.536c-0.561-0.004-1.305-0.01-1.768-0.014
							C3937.071,11.526,3937.723,11.531,3938.321,11.536z"/>
						<path fill="#636DB0" d="M4052.629,15.54l-3.787,0.903c-21.572,0.216-29.367-0.038-48.227-0.002
							c-1.441-0.124,0.842-0.202,2.002-0.242c-13.25,0.104-33.1-0.085-42.744,0.33c-4.223-0.007-15.299-0.294-11.111-0.56
							c-2.049,0.079-4.396,0.157-6.762,0.128c-0.615-0.324,5.293-0.093,5.42-0.358c-1.867-0.022-2.592-0.085-3.027,0.018
							c3.154-0.279-3.262-1.102,11.42-1.081c5.693,0.759-10.186,0.088-6.834,0.925c4.877,0.006,4.314-0.318,4.732-0.421
							c6.199,0.02,6.035,0.229,5.709,0.421c2.375-0.26,10.188,0.102,13.469-0.293c12.072-0.064-0.652,0.629,7.232,0.619l4.551-0.848
							l13.105,0.16c18.979-0.298-2.719-1.465,18.979-1.944c-2.846,0.442,5.855,1.186,15.953,1.362
							c-6.047,0.031-17.213,0.584-25.016,0.332c11.002,0.664-15.127,0.08-9.426,0.84c5.438-0.359,14.5-0.408,21.561-0.214
							l-2.311,0.078c7.504,0.09,13.197-0.797,23.564-0.458c5.148-0.027,4.188,0.212,3.281,0.41
							C4048.723,15.519,4052.621,15.353,4052.629,15.54z M4041.408,15.717l-6.887-0.084
							C4036.153,15.773,4038.727,15.769,4041.408,15.717z"/>
						<path fill="#636DB0" d="M3997.235,10.671c0.307,0.164,10.693,0.502,10.504,0.073c-3.082-0.044-6.189-0.089-9.309-0.134
							L3997.235,10.671z"/>
						<path fill="#636DB0" d="M4086.565,13.087c-5.42,0.359,10.533,0.076,2.049,0.451c-10.514-0.076-2.393,0.341-14.193,0.568
							l1.977-0.24c-3.607-0.311-7.178,0.072-11.348,0.125c-4.586,0.158,5.203,1.816-13.678,1.852c0.926-0.146,1.26-0.238,1.26-0.299
							l18.418-4.391c-19.125,0.011-41.166-0.111-63.309-0.405c-5.211-0.858,15.807-0.708,14.457-1.095l10.096,0.176
							c-0.564,0.363-21.162,0.112-12.035,0.755c17.836-0.261,25.92,0.157,42.852-0.593c-5.258-0.86-22.297,0.152-33.299-0.513
							c4.621,0.057,8.52-0.038,12.307-0.161c-10.332-0.113-21.389-0.233-33.154-0.361l-2.646,0.208
							c7.932,0.097,13.414,0.17,14.121,0.201c-10.514-0.075-19.377,0.4-20.066,1.03l1.867,0.022l-3.807,0.196
							c-2.467-0.043-4.932-0.084-7.379-0.124c-0.889,0.029-1.814,0.059-2.756,0.09l1.432-0.114c-2.393-0.044-4.768-0.087-7.141-0.13
							c-0.861,0.02-1.795,0.042-2.939,0.068c0.453-0.016,0.816-0.061,1.033-0.107c-0.77-0.017-1.523-0.033-2.283-0.05
							c-5.693,0.442-19.84,0.767-23.928,1.027c-5.402,0.189-12.01,0.297-16.152,0.263c3.844,0.009,8.939-0.08,7.414-0.325
							c-7.814-0.255-11.602-0.99-25.068-0.358l7.902-0.01l-17.764,0.95c-6.219-0.394,8.863-0.474,11.328-0.816
							c-13.814,0.469-25.305-0.783-31.703,0.04c-0.906-0.488-2.412-1.303-11.475-1.255c6.525,0.558-5.439,0.358-0.072,0.954
							c-3.137,0.279-10.115-0.176-10.641,0.189l0.852-0.202c-15.48-0.773-20.537,0.438-27.164,0.837
							c-18.535,0.199-27.035-0.117-42.154-0.035c-0.598-0.327-4.713-1.227-10.768-1.192c-2.828,0.442-16.494,0.647-17.891,1.215
							c10.84,0.236,8.863-0.476,15.354-0.608c5.402,0.595,0.49,0.588,7.867,0.943c-5.955-0.231-26.9,0.31-33.426-0.248l2.301-0.078
							c-10.404-0.339-12.398-1.741-29.746-0.893l-8.266,0.348c0.398-0.057,0.436-0.123,0.652-0.174
							c-13.541-0.06-9.842-0.704-24.797-0.195c1.15-0.039,0.426-0.102,1.594-0.14c-8.52-0.318-17.111,0.321-23.564,0.455
							c-3.934-0.473,0.943-0.466,3.371-0.808c-14.99-0.183-31.178,0.628-40.496,1.205l-9.66-0.277
							c5.727-0.195,12.742-0.694,10.984-0.979c-5.311,0.095-4.277,0.318-11.801,0.228c1.287-0.303,4.441-0.585,7.977-0.965
							c-15.553-0.506-3.48,1.072-14.357,0.145c-4.895-0.007-7.723,0.436-8.266,0.801l-8.846-0.479
							c-0.979,0.466-11.91,0.492-19.07,0.563c-0.869,0.2,5.766,0.496,8.484,0.316c-0.545,0.365-8.158,0.537-13.053,0.529
							c-1.793-0.975-32.084,0.142-26.283-1.008c-22.006,0.316-52.932,0.416-67.451,0.823c-4.785-0.27-14.557-0.283-8.701-0.741
							c-17.709-0.004-26.846,0.997-44.43,0.73c-1.459-0.122,7.939-0.009,7.324-0.334c-11.492,0.391-20.918-0.413-38.746-0.152
							c3-0.018,3.869-0.219,4.287-0.32c0.316,0.161-7.307,0.335-11.91,0.492c-2.592-0.084,3.443-0.117,1.994-0.241
							c-34.441-0.474-60.689,0.853-94.949,0.809c9.789,0.013,13.486-0.634,13.586-0.898l-9.58-0.012
							c-3.697,0.323-10.895,0.322-16.912,0.563c-0.744-0.121-3.662-0.252-0.68-0.404c-18.934-0.654-29.574,1.18-52.777,0.844
							l28.096-1.304l-6.951-0.454l12.354-0.592c-7.377-0.357-13.795,0.469-14.682-0.021c1.559-0.138,5.311-0.094,5.439-0.358
							c-7.088-0.191-7.65,0.174-12.971,0.269c14.031-0.996,41.539-0.98,56.348-1.225c2.32-0.078-1.992,0.24-2.41,0.342
							c6.037-0.033,9.662,0.277,17.275,0.104c4.713-0.421-3.607-0.31-7.359-0.354c0.525-0.366,2.41-0.345,6.58-0.399
							c0.906,0.488,22.912,0.173,28.297,0.769c22.295-0.153-3.572-1.264,18.199-1.052l6.508,0.559
							c12.633-0.432,28.984-0.814,43.287-0.695l-3.02,0.018c-2.002,0.239,1.314,0.387,2.783,0.509
							c10.805,0.239,20.52-0.439,27.064,0.12c12.326-0.594,32.881-1.034,46.967-1.34c3.807,0.736-18.381,0.625-24.246,1.085
							l12.826-0.003c-7.922,0.01-11.059,0.29-15.807,0.709c11.238,0.137,14.936-0.508,25.596-0.694
							c-0.834,0.2,0.598,0.323,5.51,0.329l1.396-0.489c0.09,0.04,0.633,0.077,2.156,0.108l18.961-0.299
							c-4.023-0.21-4.223-0.635-9.117-0.641c1.748,0.285-2.412,0.342-7.307,0.334c4.297-0.319-4.785-0.27-4.676-0.533
							c9.824,0.013,21.896-0.053,28.35-0.187l2.086,0.45c9.371,0.114,19.27-0.138,25.613-0.006l-1.994,0.239
							c11.238,0.138,22.297-0.152,32.285,0.287c10.023-0.515,22.641-0.943,30.834-1.481c4.387-0.582,29.42,0.729,40.713-0.089
							c0.762,0.063-7.76,0.438-11.619,0.657c7.521,0.09,13.504-0.633,15.861-0.021c-16.877-0.205,0.906,0.488-6.699,0.662
							c7.895-0.011,16.232-0.121,20.104-0.34c-12.789,0.005,4.541-0.846-8.402-0.579c10.025-0.515,23.711-0.72,35.666-0.521
							c-0.119,0.264,1.35,0.387,5.809,0.496l3.59-0.383c5.602,0.069-10.805,0.453,0.453,0.59c11.582-0.655,34.877,0.371,39.951-0.84
							c8.828,0.478-16.803,0.484-3.498,1.07c-7.74,0.438-18.418-0.064-20.973,0.541c7.596-0.173,2.773,0.511,7.668,0.517
							l8.465-0.372l-1.877-0.023c14.203-0.571,36.699-0.297,54.826-0.394c15.354-0.609,25.93-1.489,44.357-1.423
							c-5.439,0.356,15.299,0.344,3.697,0.998c4.26,0.158,8.494,0.144,11.686,0.057c3.191-0.087,5.34-0.246,5.426-0.378
							c-7.504-0.091-2.646-0.085-8.955-0.215c4.26-0.32,14.086-0.306,18.127-0.097c-1.867-0.023-1.16,0.038-1.576,0.139
							c8.955,0.215,4.297-0.318,10.768-0.452c2.049,0.448,14.283,0.12,20.193,0.352l8.574-0.639c-4.713,0.42,8.211,0.153,9.563,0.54
							c6.145-0.296,11.301-0.816,20.654-0.703c-3.859,0.219,8.539,0.316,8.701,0.742c16.025,0.408,26.539-1.162,41.711-0.552
							c-0.471,0.1-3.535,0.38,0.906,0.486c3.498-0.119,9.607-0.068,13.352-0.115l-0.119,0.013c0.072-0.005,0.119-0.007,0.199-0.013
							c1.832-0.022,2.973-0.075,3.027-0.179c6.398-0.417,9.699-0.844,22.287-1.197c-0.924-0.488-11.555-0.299-16.16-0.142
							l-3.979,0.481c-3.797-0.736-11.357,0.128-14.256-0.121c7.559-0.862,29.311-0.65,42.361-1.181
							c-7.957-0.68-25.268-0.786-40.369-0.704l6.654,0.293l-7.904,0.01l7.65,0.519c-7.486-0.091-13.959,0.042-20.721,0.013
							c7.922-0.01,11.004,0.663,6.527,0.557c-8.828-0.479-9.209,0.313-15.953,0.283c3.752,0.045,8.646,0.053,5.492,0.332
							c-13.305-0.586-16.895-0.204-29.002-0.83c1.504,0.813-15.119,0.081-16.932,0.747l5.619,0.068l-11.908,0.491
							c-10.986-0.662,9.734-0.675-6.998-1.144c-15.426-0.082-15.027,0.772-27.154,0.836c3.988-0.482,13.613-0.896,23.402-0.882
							l-5.928-0.232c3.137-0.279,16.678-0.221,23.439-0.192c-11.168,0.554,5.219,0.17,10.295,0.604
							c0.943-0.467-6.234-0.394,2.23-0.768c-7.922,0.009-9.082,0.048-19.18-0.128c21.809,0.212,19.615-1.618,38.648-1.227
							c-8.773,0.211,3.064,0.673,4.113,0.898c4.133-0.056,12.508-0.167,15.953-0.283l-3.119-0.674
							c11.086-0.291,14.939,1.136,27.734,0.441c1.668-0.403-11.256-0.137-8.953-0.215c17.51-0.424,23.818,0.662,39.371,1.169
							c0.869-0.202,0.689-0.629,6.127-0.985c-1.705,0.404,2.32,0.611-3.799,0.907c5.193,0.171,11.357-0.126,15.943-0.283
							c-10.822-0.237,4.424-0.581,6.418-0.823c5.609,0.068-1.705,0.403-5.148,0.521c4.494,0.108,9.842,0.704,12.398,0.099
							c0.182,0.426-12.58,1.12-20.918,1.23l5.619,0.068c-3.879,0.218-4.605,0.156-10.188,0.09c5.475,0.33,4.93,0.694,3.662,0.997
							c-0.727-0.062,0.398-0.101-0.291-0.161c-4.496-0.108-7.939,0.008-6.906,0.234c-4.043,0.571,6.236,0.357,9.281,0.643
							c2.303-0.039,4.604-0.077,6.869-0.114l23.348-1.837c9.988-0.214,14.467,0.226,21.97,0.503l2.049-0.491 M4102.699,13.229
							 M4094.977,15.312c0.816-0.201,10.314-0.352,2.101-0.506c-6.797-0.027-5.89,0.461-10.449,0.617
							c5.139-0.522,3.816-0.911,9.381-1.531 M3309.783,10.341c0.635-0.061,1.143-0.131,1.506-0.219
							C3310.908,10.214,3311.344,10.273,3309.783,10.341z M4059.209,9.514c0.363-0.006,0.49-0.009,0.816-0.015
							c-1.867-0.019-3.752-0.038-5.709-0.058C4055.076,9.48,4056.528,9.512,4059.209,9.514z M4075.344,10.122l1.885-0.454
							c-1.76-0.018-3.535-0.035-5.365-0.053C4072.461,9.821,4073.096,10,4075.344,10.122z M4099.561,4.343
							c-0.109-0.003-0.236-0.007-0.363-0.011c0.137,0.001,0.273,0.002,0.4,0.003L4099.561,4.343z"/>
						<path fill="#636DB0" d="M3464.643,3.608l-52.531,0.314C3427.229,3.832,3441.186,3.749,3464.643,3.608z"/>
						<path fill="#636DB0" d="M3843.969,3.077c2.43-0.342,14.375-0.145,14.992,0.181c-1.596,0.142-8.066,0.276-4.006,0.483
							l9.443-0.84c12.563,0.523-9.553,1.104-15.752,1.4c12.797,0.108,16.586-0.443,30.199-0.44
							c-4.006-0.075-6.543-0.285-8.664-0.465c-0.473-0.591,12.217-0.33,21.281-0.376c-5.766-0.257-2.43-0.474,1.775-0.705
							c0.762-0.019,1.26-0.053,1.613-0.092c0.49-0.029,0.961-0.056,1.434-0.083l-1.088,0.001c0.072-0.066-0.164-0.146-0.943-0.256
							c-7.613,0.172-13.432-0.322-18.326-0.33c4.84,0.961-16.686,0.223-22.84,0.519l-7.115,0.095l-2.656,0.002
							c-0.543-0.105,0.219-0.238,4.279-0.428c-3.391,0.189-14.684,0.123-13.633,0.432l-25.768,0.014
							c-0.807-0.039-1.604-0.088-2.201-0.157c-0.889,0.061-1.033,0.11-0.926,0.159l-112.242,0.062
							c5.537,0.076,10.332,0.295,16.043,0.401c-8.574,0.638,9.354,0.115,6.842,0.719c-3.852,0.219-9.488,0.15-12.842,0.003
							c-1.252,0.305,3.535,0.575,2.973,0.939c14.156,0.383,16.332-1.075,30.164-0.854c-0.545,0.365-4.822,0.685,4.24,0.635
							l-2.301,0.079c14.5-0.409,11.293,0.825,20.428-0.176l-0.234,0.527c6.58-0.397,19.377-0.4,26.592-0.473l-0.436,0.104
							c20.248-0.604,11.365-0.128,34.098-0.381l-10.459,0.615c7.83,0.254,9.607-0.415,15.227-0.346
							c-0.398,0.102,0.906,0.487-4.406,0.583l27.572-0.938C3852.906,3.291,3844.985,3.302,3843.969,3.077z"/>
						<path fill="#636DB0" d="M3878.846,3.861c1.469,0.028,3.117,0.04,5.076,0.02C3882.037,3.874,3880.405,3.867,3878.846,3.861z"/>
						<path fill="#636DB0" d="M3684.942,2.257l7.885-0.005C3690.379,2.22,3687.842,2.21,3684.942,2.257z"/>
						<path fill="#636DB0" d="M3918.381,2.71c-4.785-0.272,3.57-0.382,4.404-0.584l-17.121,0.01
							c0.082,0.203-1.621,0.431-1.277,0.616L3918.381,2.71z"/>
						<path fill="#636DB0" d="M3900.707,1.753c-0.58,0.142-2.393,0.268-4.422,0.388l9.379-0.005
							C3905.602,1.982,3904.551,1.845,3900.707,1.753z"/>
						<polygon fill="#636DB0" points="3902.52,12.594 3899.492,12.611 3894.906,12.769 						"/>
						<path fill="#636DB0" d="M3855.1,11.7c3.625,0.308,10.496,0.074,12.797-0.004C3859.977,11.706,3863.403,11.589,3855.1,11.7z"/>
						<polygon fill="#636DB0" points="3864.889,15 3857.256,15.175 3857.963,15.235 						"/>
						<path fill="#636DB0" d="M3626.662,4.332c-1.25,0.011-2.465,0.022-3.734,0.034C3624.633,4.368,3625.756,4.354,3626.662,4.332z"
							/>
						<path fill="#636DB0" d="M3692.137,3.829c-18.199-0.592,11.928-0.492,6.219-1.25l-9.916,0.251l0.852-0.203l-12.09,0.066
							c2.482,0.348,4.35,0.369,3.807,0.735c-16.133-0.143-5.084-0.434-16.912-0.895l-18.037,0.066l1.469-0.109
							c-1.523,0.008-2.193,0.054-2.719,0.113l-60.744,0.228c-11.059,0.29,6.109,0.657-2.049,1.195
							c12.816-0.003,31.85,0.387,32.938-0.342c-0.426,0.101-1.27,0.302,1.322,0.388l7.414-0.6l-7.068-0.191
							c7.449-0.598,31.504-0.465,35.854-0.094c-13.676,0.204-6.814,0.924-25.867,0.532c0.854,0.185,4.342,0.51,0.055,0.611
							C3648.996,4.12,3669.008,4.452,3692.137,3.829z"/>
						<path fill="#636DB0" d="M3468.123,4.18l0.182-0.065C3467.897,4.149,3467.762,4.176,3468.123,4.18z"/>
						<path fill="#636DB0" d="M3475.619,4.271l10.885-0.715l-16.967,0.058l-1.232,0.501c1.496-0.127,7.451-0.381,9.752-0.186
							L3475.619,4.271z"/>
						<path fill="#636DB0" d="M3499.139,3.124c-8.756,0.213-8.283,0.803-3.498,1.071c-8.049,0.274-4.25-0.634-9.789-0.011
							c0.182,0.426,10.098,0.176,12.381,0.098L3499.139,3.124z"/>
						<polygon fill="#636DB0" points="3563.817,3.435 3561.352,3.679 3567.424,3.744 						"/>
						<path fill="#636DB0" d="M3561.352,3.679l-6.037-0.065c0.418,0.182,0.834,0.358,1.813,0.482L3561.352,3.679z"/>
						<path fill="#636DB0" d="M3539.508,3.443c-2.557-0.027-5.385-0.057-8.811-0.094L3539.508,3.443z"/>
						<path fill="#636DB0" d="M3546.397,3.594l-0.199-0.077l-6.689-0.073C3541.973,3.497,3544.184,3.545,3546.397,3.594z"/>
						<path fill="#636DB0" d="M3555.315,3.613c-0.979-0.413-2.121-0.848-10.84-0.732l1.723,0.636L3555.315,3.613z"/>
						<polygon fill="#636DB0" points="3809.383,14.378 3802.494,14.611 3803.221,14.676 3810.108,14.441 						"/>
						<path fill="#636DB0" d="M3769.614,14c-1.705,0.073-2.992,0.149-4.17,0.228C3767.239,14.182,3768.67,14.113,3769.614,14z"/>
						<path fill="#636DB0" d="M3740.047,16.823c-8.102-0.416,11.186-0.55-3.824-0.734c-1.324-0.387,5.709-0.886,12.779-0.693
							c-0.564,0.364-6.889,0.233-2.537,0.604c4.693-0.421,6.471-0.134,4.84-0.683c7.902-0.343,8.773-0.732,14.139-1.09
							c-9.553,0.242-29.602-0.322-41.711,0.383c-6.689,0.66-2.627,1.561-2.664,2.514
							C3722.084,17.348,3739.395,17.454,3740.047,16.823z"/>
						<path fill="#636DB0" d="M3752.809,17.774c3.752,0.047,4.895,0.009,7.197-0.07C3759.389,17.378,3755.836,17.76,3752.809,17.774
							z"/>
						<path fill="#636DB0" d="M3666.578,10.598c-0.725,0.136-7.504,0.304-6.055,0.538l10.297-0.171
							C3668.41,10.942,3667.557,10.776,3666.578,10.598z"/>
						<path fill="#636DB0" d="M3675.334,10.892l-4.514,0.073C3671.944,10.977,3673.34,10.958,3675.334,10.892z"/>
						<path fill="#636DB0" d="M3666.09,10.514c0.162,0.028,0.309,0.053,0.488,0.084C3666.723,10.569,3666.688,10.54,3666.09,10.514z
							"/>
						<path fill="#636DB0" d="M3514.53,3.206c0.145-0.262-4.441-0.105-6.744-0.028C3509.653,3.2,3512.281,3.286,3514.53,3.206z"/>
						<path fill="#636DB0" d="M3341.887,4.235l-4.061-0.208C3339.258,4.151,3340.002,4.213,3341.887,4.235z"/>
						<path fill="#636DB0" d="M3279.44,11.38c-0.109,0.051-0.418,0.094-0.816,0.134C3279.022,11.48,3279.313,11.438,3279.44,11.38z"
							/>
						<path fill="#636DB0" d="M3278.623,11.514c-2.773,0.217-11.311-0.121-14.393,0.21l0.398-0.102l-5.729,0.197
							C3264.268,11.79,3275.524,11.83,3278.623,11.514z"/>
					</g>
				</g>
			</g>
		</g>
	</g>
</g>
</svg>
