<?xml version="1.0" encoding="utf-8"?>
<!-- Generator: Adobe Illustrator 16.0.0, SVG Export Plug-In . SVG Version: 6.00 Build 0)  -->
<!DOCTYPE svg PUBLIC "-//W3C//DTD SVG 1.1//EN" "http://www.w3.org/Graphics/SVG/1.1/DTD/svg11.dtd">
<svg version="1.1" id="Layer_1" xmlns="http://www.w3.org/2000/svg" xmlns:xlink="http://www.w3.org/1999/xlink" x="0px" y="0px"
	 width="4041.676px" height="564.176px" viewBox="0 0 4041.676 564.176" enable-background="new 0 0 4041.676 564.176"
	 xml:space="preserve">
<g id="path_1_">
	<g>
		<g>
			<g>
				<g>
					<path fill="#C9C9C8" d="M1246.726,10.291l6.872,0.626c0,0-0.889-0.097-2.443-0.267c-1.556-0.151-3.771-0.46-6.442-0.642
						c-5.349-0.428-12.475-0.999-19.601-1.569c-3.563-0.263-7.121-0.621-10.467-0.788c-3.348-0.16-6.47-0.309-9.146-0.436
						c-5.354-0.255-8.924-0.425-8.924-0.425s3.142,0.157,7.849,0.393c2.354,0.118,5.1,0.255,8.041,0.402
						c1.471,0.085,2.993,0.124,4.534,0.253c1.543,0.127,3.105,0.256,4.675,0.386C1234.197,9.257,1246.726,10.291,1246.726,10.291z"
						/>
					<path fill="#C9C9C8" d="M884.348,5.382c34.204,0.714,131.369-0.115,196.017,0.139l10.583,0.163l29.146-0.575
						C1041.56,5.199,939.564,5.581,884.348,5.382z"/>
					<path fill="#C9C9C8" d="M690.939,3.839c11.963,0.276-41.873,0.238,45.092,0.086c-4.371-0.038-5.674-0.049-8.128-0.07
						C720.08,3.851,709.268,3.847,690.939,3.839z"/>
					<path fill="#C9C9C8" d="M727.903,3.854C766.094,3.835,702.902,3.622,727.903,3.854L727.903,3.854z"/>
					<path fill="#C9C9C8" d="M551.519,4.014l50.307-0.248c-10.582-0.164-55.365-0.201-38.646-0.32
						C511.487,3.581,522.147,3.744,551.519,4.014z"/>
					<path fill="#C9C9C8" d="M503.818,4.535l26.075-0.105C525.292,4.361,518.39,4.336,503.818,4.535z"/>
					<path fill="#C9C9C8" d="M585.108,4.208L529.893,4.43c7.208,0.115,7.975,0.347,25.306-0.08
						C550.752,4.561,561.642,4.357,585.108,4.208z"/>
					<path fill="#C9C9C8" d="M616.397,4.316c28.221,0.156,64.725,0.254,14.264,0.5C726.83,4.719,712.719,4.217,616.397,4.316z"/>
					<path fill="#C9C9C8" d="M865.79,6.12l37.73,0.21l32.669-0.24C919.856,6.209,863.489,5.896,865.79,6.12z"/>
					<path fill="#C9C9C8" d="M238.092,3.645c-3.144,0.151,16.949,0.404,20.63,0.6l37.194-0.176
						C276.82,3.965,240.624,3.869,238.092,3.645z"/>
					<path fill="#C9C9C8" d="M258.721,4.244L203.2,4.504C252.815,4.535,261.942,4.41,258.721,4.244z"/>
					<polygon fill="#C9C9C8" points="494.769,5.327 586.183,4.779 477.208,5.335 					"/>
					<polygon fill="#C9C9C8" points="25.741,3.625 57.26,3.273 1.124,3.805 					"/>
					<path fill="#C9C9C8" d="M108.412,4.429C104.118,4.337,95.835,4.097,64.7,3.995l21.855,0.428
						C93.227,4.425,100.743,4.427,108.412,4.429z"/>
					<path fill="#C9C9C8" d="M87.321,4.436l-0.766-0.013C62.858,4.411,46.37,4.402,39.313,4.398
						C45.374,4.403,59.791,4.414,87.321,4.436z"/>
					<path fill="#C9C9C8" d="M113.932,4.431c-1.993,0-3.526-0.001-5.521-0.002C110.559,4.472,111.786,4.484,113.932,4.431z"/>
					<path fill="#C9C9C8" d="M349.061,4.94c-32.67,0.24-100.77,0.496-34.818,0.86C337.634,5.508,299.903,5.3,349.061,4.94z"/>
					<path fill="#C9C9C8" d="M141.081,4.965l59.051,0.098c-1.074-0.113-11.812-0.277,4.448-0.396L141.081,4.965z"/>
					<polygon fill="#C9C9C8" points="112.246,5.101 141.081,4.965 119.223,4.929 					"/>
					<path fill="#C9C9C8" d="M253.429,6.727c-3.527-0.038-3.373-0.068-3.604-0.1C242.464,6.68,239.626,6.715,253.429,6.727z"/>
					<path fill="#C9C9C8" d="M206.574,6.467c8.281-0.061,15.184-0.232,42.102-0.188c23.389,0.13-0.077,0.206,1.15,0.349
						c16.182-0.115,56.748-0.31,5.828-0.52l-7.977,0.059c-45.859-0.147-104.833-0.686-96.78-0.744
						C164.242,5.81,176.052,6.086,206.574,6.467z"/>
				</g>
				<g>
					<path fill="#C9C9C8" d="M2477.864,186.971l6.813-1.136c0,0-14.148,2.108-28.301,4.216c-7.063,1.119-14.174,1.936-19.488,2.64
						c-5.322,0.682-8.871,1.137-8.871,1.137s3.121-0.393,7.803-0.981c2.34-0.294,5.07-0.638,7.996-1.006
						c2.926-0.371,6.049-0.738,9.158-1.221C2465.416,188.795,2477.864,186.971,2477.864,186.971z"/>
					<path fill="#C9C9C8" d="M2116.362,195.856c8.494,1,20.914,2.34,35.781,3.767c7.449,0.54,15.508,1.124,23.99,1.739
						c4.24,0.29,8.586,0.638,13.02,0.894c4.438,0.189,8.957,0.382,13.535,0.578c4.58,0.193,9.217,0.39,13.893,0.588
						c2.336,0.099,4.686,0.198,7.035,0.297c2.355,0.126,4.715,0.087,7.078,0.139c9.455,0.125,18.959,0.25,28.33,0.374
						c1.172,0.015,2.342,0.029,3.508,0.044c1.166-0.02,2.33-0.039,3.492-0.059c2.322-0.039,4.633-0.077,6.93-0.115
						c4.594-0.073,9.131-0.145,13.588-0.215c4.457-0.065,8.832-0.129,13.105-0.191c4.268-0.181,8.434-0.357,12.471-0.528
						l10.584-0.315c0,0,7.273-0.478,14.547-0.955c7.258-0.671,14.516-1.342,14.516-1.342c-4.895,0.362-9.881,0.73-14.939,1.104
						c-5.068,0.237-10.213,0.479-15.414,0.722c-5.201,0.245-10.459,0.492-15.758,0.742c-2.65,0.1-5.311,0.307-7.98,0.32
						c-2.67,0.047-5.348,0.094-8.029,0.142c-5.365,0.095-10.758,0.19-16.152,0.286c-5.396,0.069-10.801,0.277-16.189,0.129
						c-10.783-0.144-21.521-0.287-32.078-0.427C2183,202.285,2143.815,198.808,2116.362,195.856z"/>
					<path fill="#C9C9C8" d="M1925.81,163.333c5.819,1.384-4.426-0.743-5.496-0.965c0.523,0.11,1.37,0.288,8.433,1.772
						c3.605,0.755,8.597,1.698,15.334,3.034c6.746,1.304,15.236,3.046,25.916,5.05c-4.295-0.803-5.561-1.121-7.965-1.605
						c-3.834-0.764-8.397-1.674-14.255-2.84c-2.927-0.583-6.176-1.23-9.813-1.956C1934.32,165.093,1930.283,164.316,1925.81,163.333
						z"/>
					<path fill="#C9C9C8" d="M1962.031,170.618c4.677,0.95,7.816,1.5,9.761,1.846c1.944,0.347,2.695,0.475,2.617,0.451
						c-0.156-0.049-3.631-0.701-7.511-1.425C1959.159,169.924,1949.799,168.068,1962.031,170.618z"/>
					<path fill="#C9C9C8" d="M1789.982,132.114c0,0,12.224,2.954,24.445,5.907c6.104,1.498,12.229,2.913,16.825,3.977
						c4.593,1.067,7.65,1.779,7.65,1.779c-10.282-2.485-53.724-13.324-37.472-9.421c-6.275-1.529-11.604-2.829-16.07-3.917
						c-4.46-1.111-8.059-2.007-10.877-2.708c-2.822-0.689-4.863-1.188-6.206-1.517c-0.673-0.156-1.172-0.272-1.506-0.35
						c-0.334-0.074-0.506-0.106-0.524-0.099c-0.032,0.014,0.543,0.186,1.65,0.494c1.11,0.301,2.749,0.746,4.834,1.311
						C1776.913,128.676,1782.869,130.299,1789.982,132.114z"/>
					<path fill="#C9C9C8" d="M1743.633,120.861l25.286,6.357C1764.479,126.003,1757.786,124.325,1743.633,120.861z"/>
					<path fill="#C9C9C8" d="M1822.542,140.344c0,0-13.413-3.25-26.826-6.5c-3.354-0.814-6.707-1.627-9.854-2.39
						c-3.139-0.784-6.064-1.516-8.579-2.144c-5.021-1.255-8.368-2.093-8.368-2.093c6.965,1.864,7.633,2.356,24.56,6.104
						C1789.106,132.458,1799.724,134.882,1822.542,140.344z"/>
					<path fill="#C9C9C8" d="M1852.953,147.681c27.459,6.484,63.06,14.57,13.786,3.688c11.73,2.626,21.769,4.937,30.202,6.745
						c8.446,1.77,15.258,3.198,20.492,4.294c10.47,2.179,14.634,2.987,12.911,2.562c-1.721-0.431-9.325-2.113-22.387-4.938
						c-6.528-1.416-14.436-3.072-23.604-5.199C1875.179,152.727,1864.675,150.427,1852.953,147.681z"/>
					<path fill="#C9C9C8" d="M2097.84,194.4c0,0,2.342,0.298,5.852,0.746c1.756,0.224,3.805,0.485,6,0.765
						c2.195,0.28,4.533,0.594,6.883,0.815c9.395,0.973,18.781,1.946,18.781,1.946s8.145,0.729,16.283,1.458
						c8.158,0.53,16.314,1.06,16.314,1.06C2151.588,200.672,2095.557,194.079,2097.84,194.4z"/>
					<path fill="#C9C9C8" d="M1486.661,53.138c-3.091-0.598,16.375,4.412,19.904,5.475l36.108,8.951
						c-9.247-2.385-22.636-5.839-34.021-8.775C1497.26,55.904,1487.862,53.555,1486.661,53.138z"/>
					<path fill="#C9C9C8" d="M1506.564,58.613c0,0-13.502-3.229-27.005-6.457c-6.744-1.644-13.52-3.154-18.594-4.319
						c-5.076-1.159-8.459-1.932-8.459-1.932c24.179,5.576,38.416,9.19,46.288,11.021
						C1506.659,58.788,1508.107,59.085,1506.564,58.613z"/>
					<path fill="#C9C9C8" d="M1734.677,119.352c0,0,5.538,1.404,13.846,3.51c8.318,2.064,19.409,4.817,30.5,7.569
						c11.088,2.763,22.214,5.37,30.541,7.394c8.334,1.994,13.891,3.323,13.891,3.323s-6.621-1.592-16.555-3.979
						c-9.931-2.397-23.179-5.57-36.389-8.898c-6.609-1.646-13.223-3.291-19.416-4.833c-6.189-1.572-11.965-3.04-16.916-4.297
						c-9.902-2.52-16.502-4.2-16.502-4.2L1734.677,119.352z"/>
					<path fill="#C9C9C8" d="M1278.249,12.192l31.285,4.116c0,0-13.929-1.856-27.854-3.713c-3.479-0.503-6.979-0.83-10.25-1.188
						c-3.274-0.351-6.331-0.678-8.95-0.959c-5.238-0.563-8.729-0.935-8.729-0.935L1278.249,12.192z"/>
					<path fill="#C9C9C8" d="M1359.774,26.204c-4.218-0.81-12.261-2.879-43.002-7.965l21.5,4.008
						c3.297,0.517,6.777,1.213,10.389,1.878C1352.271,24.8,1356.004,25.498,1359.774,26.204z"/>
					<path fill="#C9C9C8" d="M1339.026,22.385l-0.754-0.139c-11.693-1.943-21.607-3.59-29.468-4.897
						c-7.893-1.131-13.718-1.967-17.212-2.469c3,0.431,8.065,1.16,15.797,2.27C1315.104,18.338,1325.44,20.138,1339.026,22.385z"/>
					<path fill="#C9C9C8" d="M1365.203,27.22c-1.96-0.367-3.469-0.649-5.429-1.016C1361.879,26.641,1363.083,26.878,1365.203,27.22z
						"/>
					<path fill="#C9C9C8" d="M1593.887,81.802c-15.819-4.076-40.244-10.246-52.732-13.335c-6.25-1.519-9.519-2.259-7.229-1.603
						c2.292,0.644,10.125,2.739,26.06,6.969c11.357,2.789,7.919,1.77,7.604,1.549c-0.159-0.11,0.461-0.021,4.102,0.845
						C1575.328,77.084,1581.977,78.768,1593.887,81.802z"/>
					<path fill="#C9C9C8" d="M1391.728,33.044c0,0,3.614,0.747,9.036,1.866c5.431,1.074,12.625,2.731,19.834,4.317
						c7.205,1.604,14.409,3.209,19.813,4.413c5.393,1.267,8.982,2.111,8.982,2.111c-1.02-0.354-11.441-2.954,4.421,0.624
						c0,0-3.869-0.883-9.673-2.209c-5.794-1.369-13.573-2.959-21.328-4.655c-3.88-0.835-7.76-1.671-11.396-2.454
						c-1.819-0.391-3.577-0.769-5.244-1.127c-1.672-0.334-3.253-0.65-4.713-0.942C1395.62,33.822,1391.728,33.044,1391.728,33.044z"
						/>
					<path fill="#C9C9C8" d="M1363.42,27.568c0,0,1.771,0.323,4.433,0.807s6.209,1.112,9.739,1.843
						c7.065,1.413,14.138,2.826,14.138,2.826s-5.352-1.105-10.703-2.21c-2.676-0.553-5.352-1.105-7.357-1.52
						c-2.015-0.38-3.354-0.633-3.354-0.633L1363.42,27.568z"/>
					<path fill="#C9C9C8" d="M1500.827,59.767c-3.416-0.873-3.259-0.866-3.476-0.951
						C1490.189,57.123,1487.427,56.485,1500.827,59.767z"/>
					<path fill="#C9C9C8" d="M1455.348,48.583c4.04,0.902,7.743,1.729,13.719,3.063c5.975,1.342,14.182,3.362,27.251,6.559
						c22.688,5.669-0.124,0.182,1.034,0.611c7.88,1.819,21.639,5.265,27.285,6.586c5.641,1.343,3.166,0.579-21.5-5.709l-7.761-1.833
						c-11.13-2.74-23.03-5.777-34.564-8.486c-11.521-2.754-22.61-5.483-32.108-7.597c-9.481-2.184-17.325-3.99-22.31-5.138
						c-4.994-1.091-7.117-1.567-5.142-1.179c1.624,0.38,3.224,0.756,4.84,1.134c1.608,0.399,3.238,0.802,4.918,1.218
						c3.359,0.819,6.938,1.69,11.036,2.688c4.102,0.978,8.726,2.08,14.179,3.379C1441.68,45.169,1447.938,46.773,1455.348,48.583z"
						/>
				</g>
				<g>
					<path fill="#C9C9C8" d="M3712.658,16.614c0,0,1.707,0.263,3.404,0.57c1.697,0.31,3.393,0.619,3.393,0.619
						s-0.875-0.176-2.406-0.483c-1.529-0.324-3.73-0.708-6.369-1.188c-2.637-0.474-5.715-1.027-9.012-1.62
						c-3.313-0.528-6.838-1.092-10.367-1.656c-3.521-0.592-7.076-0.998-10.395-1.477c-3.313-0.46-6.414-0.888-9.08-1.16
						c-5.32-0.6-8.873-0.999-8.873-0.999s3.121,0.359,7.805,0.897c4.688,0.474,10.895,1.435,17.125,2.276
						c3.104,0.458,6.205,0.993,9.109,1.455c2.908,0.471,5.625,0.897,7.939,1.346C3709.569,16.047,3712.658,16.614,3712.658,16.614z"
						/>
					<path fill="#C9C9C8" d="M3351.393,18.497c8.506-0.88,20.955-1.832,35.814-3.228c3.715-0.344,7.582-0.703,11.576-1.073
						c3.998-0.365,8.117-0.797,12.357-1.076c8.473-0.637,17.369-1.307,26.502-1.993c4.563-0.347,9.189-0.697,13.854-1.051
						c4.66-0.371,9.371-0.545,14.086-0.828c9.438-0.512,18.92-1.027,28.273-1.534c2.338-0.125,4.666-0.25,6.982-0.375
						c2.318-0.133,4.629-0.161,6.926-0.245c4.59-0.138,9.123-0.275,13.572-0.409c8.906-0.249,17.49-0.488,25.564-0.714
						c0,0,0.66-0.01,1.652-0.024c0.992-0.011,2.314-0.047,3.639-0.022c2.645,0.023,5.291,0.046,5.291,0.046l29.133-0.771
						c-9.814,0.081-19.998,0.165-30.41,0.25c-5.207-0.009-10.465,0.219-15.768,0.377c-5.301,0.169-10.643,0.34-16.004,0.511
						c-21.463,0.476-43.258,1.894-64.332,2.994c-5.271,0.239-10.484,0.664-15.641,1.051c-5.152,0.386-10.244,0.768-15.256,1.144
						c-5.014,0.374-9.941,0.742-14.779,1.102c-2.416,0.18-4.813,0.357-7.178,0.533c-2.363,0.22-4.701,0.437-7.012,0.652
						c-9.232,0.862-18.018,1.682-26.207,2.447c-4.094,0.377-8.043,0.74-11.822,1.088
						C3358.432,17.686,3354.824,18.141,3351.393,18.497z"/>
					<path fill="#C9C9C8" d="M3159.729,44.333c5.916-0.904-4.387,0.975-5.461,1.171c0.527-0.095,1.379-0.248,8.486-1.526
						c3.629-0.649,8.627-1.544,15.396-2.756c6.785-1.118,15.342-2.528,26.072-4.297c-4.322,0.665-5.611,0.862-8.037,1.235
						c-3.863,0.626-8.463,1.372-14.361,2.328C3175.926,41.437,3168.76,42.764,3159.729,44.333z"/>
					<path fill="#C9C9C8" d="M3196.186,38.16C3233.893,32.011,3171.461,41.943,3196.186,38.16L3196.186,38.16z"/>
					<path fill="#C9C9C8" d="M3022.864,71.052c0,0,12.299-2.638,24.604-5.276c12.318-2.531,24.645-5.062,24.645-5.062
						c-5.197,0.978-18.803,3.578-29.02,5.67c-10.223,2.094-17.1,3.494-8.928,1.722c-12.645,2.698-21.473,4.582-27.154,5.795
						c-2.834,0.639-4.887,1.101-6.234,1.405c-0.674,0.161-1.172,0.279-1.504,0.359c-0.334,0.083-0.5,0.131-0.514,0.146
						c-0.025,0.029,0.566-0.075,1.695-0.295c1.129-0.226,2.793-0.561,4.914-0.985C3009.602,73.688,3015.658,72.484,3022.864,71.052z
						"/>
					<path fill="#C9C9C8" d="M2976.324,81.555l25.461-5.634C2997.274,76.83,2990.522,78.269,2976.324,81.555z"/>
					<path fill="#C9C9C8" d="M3055.799,64.426c0,0-3.381,0.694-8.453,1.734c-5.063,1.081-11.814,2.522-18.564,3.964
						s-13.5,2.883-18.563,3.964c-5.061,1.099-8.432,1.832-8.432,1.832c7.064-1.424,7.875-1.312,24.75-5.294
						c-2.154,0.559-0.578,0.231,4.404-0.856c2.49-0.545,5.834-1.276,9.988-2.184C3045.08,66.668,3050.049,65.597,3055.799,64.426z"
						/>
					<path fill="#C9C9C8" d="M3086.506,58.396c27.746-5.189,63.646-11.799,14.104-2.208c11.813-2.253,21.924-4.183,30.402-5.8
						c8.477-1.614,15.34-2.785,20.598-3.764c10.525-1.917,14.691-2.723,12.938-2.476s-9.439,1.545-22.607,3.834
						c-6.596,1.104-14.523,2.632-23.781,4.37C3108.901,54.119,3098.317,56.047,3086.506,58.396z"/>
					<path fill="#C9C9C8" d="M3333.037,21.308c0,0,9.375-1.003,18.75-2.007c4.689-0.506,9.373-1.019,12.898-1.294
						c3.521-0.31,5.871-0.517,5.871-0.517l32.488-3.281c-8.123,0.82-26.215,2.464-41.988,3.904
						C3345.311,19.817,3331.883,21.333,3333.037,21.308z"/>
					<path fill="#C9C9C8" d="M2716.983,139.449c-3.031,0.851,16.625-3.312,20.256-3.933l36.234-8.389
						c-9.32,2.066-22.814,5.057-34.289,7.6C2727.705,137.242,2718.246,139.305,2716.983,139.449z"/>
					<path fill="#C9C9C8" d="M2737.239,135.516c0,0-3.381,0.778-8.453,1.945c-5.07,1.177-11.836,2.721-18.611,4.229
						c-13.541,3.042-27.084,6.083-27.084,6.083C2731.565,137.204,2740.41,134.937,2737.239,135.516z"/>
					<path fill="#C9C9C8" d="M2967.651,84.248c0,0,22.313-4.958,44.617-9.916c11.17-2.409,22.34-4.817,30.719-6.623
						c4.188-0.915,7.686-1.643,10.131-2.14c2.449-0.505,3.852-0.793,3.852-0.793s-1.668,0.342-4.588,0.941
						c-2.924,0.585-7.084,1.48-12.078,2.556c-9.986,2.149-23.305,5.014-36.623,7.879c-13.297,2.957-26.594,5.915-36.563,8.132
						c-9.963,2.265-16.604,3.774-16.604,3.774L2967.651,84.248z"/>
					<path fill="#C9C9C8" d="M2508.739,180.422c0,0,7.76-1.331,15.523-2.663c7.74-1.445,15.479-2.891,15.479-2.891
						s-3.443,0.642-8.615,1.604c-5.164,1.007-12.084,2.139-18.996,3.319c-6.916,1.174-13.83,2.348-19.018,3.228
						c-2.594,0.437-4.754,0.801-6.27,1.056c-1.518,0.229-2.385,0.36-2.385,0.36s1.523-0.209,3.801-0.583
						c2.273-0.381,5.311-0.89,8.344-1.398C2502.672,181.438,2508.739,180.422,2508.739,180.422z"/>
					<path fill="#C9C9C8" d="M2590.24,166.765c-2.115,0.364-5.215,0.896-11.619,1.996c-3.197,0.577-7.221,1.302-12.354,2.229
						c-5.141,0.936-11.408,1.958-19.072,3.299c0,0,5.395-0.844,10.795-1.687c5.404-0.814,10.787-1.754,10.787-1.754
						C2575.326,169.601,2582.707,168.198,2590.24,166.765z"/>
					<path fill="#C9C9C8" d="M2569.528,170.716l-0.754,0.131c-5.813,1.141-11.215,2.021-16.123,2.904
						c-4.912,0.864-9.346,1.643-13.27,2.333c-7.848,1.361-13.633,2.442-17.121,2.958c2.996-0.442,8.029-1.367,15.715-2.706
						c3.842-0.674,8.346-1.465,13.582-2.384C2556.789,173.011,2562.774,172.039,2569.528,170.716z"/>
					<path fill="#C9C9C8" d="M2595.664,165.734c-1.957,0.372-3.465,0.659-5.424,1.031
						C2592.358,166.406,2593.567,166.189,2595.664,165.734z"/>
					<path fill="#C9C9C8" d="M2825.467,116.094c-31.775,7.587-98.119,22.967-33.74,8.635
						C2814.459,119.221,2777.641,127.464,2825.467,116.094z"/>
					<path fill="#C9C9C8" d="M2622.391,160.953c0,0,3.617-0.726,9.045-1.814c2.715-0.544,5.881-1.18,9.271-1.86
						c3.387-0.71,7-1.468,10.609-2.225c14.447-3.039,28.895-6.078,28.895-6.078c-1.076,0.099-11.605,2.208,4.262-1.339
						c0,0-3.875,0.854-9.688,2.133c-5.814,1.262-13.572,2.945-21.33,4.628c-3.879,0.842-7.758,1.683-11.395,2.472
						c-3.645,0.757-7.041,1.464-9.957,2.07C2626.276,160.147,2622.391,160.953,2622.391,160.953z"/>
					<path fill="#C9C9C8" d="M2594.135,166.708c0,0,1.768-0.345,4.422-0.863c2.656-0.504,6.188-1.226,9.715-1.966
						c7.063-1.463,14.117-2.926,14.117-2.926l-21.434,4.281L2594.135,166.708z"/>
					<path fill="#C9C9C8" d="M2732.619,139.101c-3.445,0.738-3.305,0.674-3.537,0.694
						C2721.91,141.465,2719.149,142.123,2732.619,139.101z"/>
					<path fill="#C9C9C8" d="M2686.805,148.968c8.074-1.854,14.793-3.446,41.08-9.26c22.85-5.013-0.031,0.218,1.197,0.087
						c15.766-3.668,55.303-12.771,5.57-1.788l-7.77,1.81c-44.779,9.943-102.646,21.397-94.783,19.636
						c3.289-0.574,6.479-1.131,9.896-1.727c3.398-0.643,7.02-1.327,11.166-2.11C2661.446,154.008,2671.85,152.035,2686.805,148.968z
						"/>
				</g>
				<g>
					<path fill="#C9C9C8" d="M3950.699,68.232c-1.564-0.126,2.615,0.516,7.646,1.272c2.512,0.4,5.246,0.746,7.574,1.05
						c2.33,0.308,4.258,0.57,5.166,0.718c0,0,2.311,0.241,5.773,0.602c3.463,0.375,8.1,0.703,12.727,1.109
						c2.313,0.194,4.629,0.388,6.801,0.57c2.17,0.173,4.199,0.277,5.938,0.396c3.479,0.221,5.793,0.369,5.793,0.369
						c-4.754-0.368-10.582-0.716-16.664-1.336c-6.084-0.583-12.449-1.102-18.271-1.826
						C3961.508,69.902,3951.94,68.494,3950.699,68.232z"/>
					<path fill="#C9C9C8" d="M3971.086,71.273c0,0-3.449-0.359-8.623-0.898c-5.164-0.606-12.049-1.467-18.928-2.35
						c-3.432-0.495-6.863-0.99-10.082-1.454c-3.219-0.454-6.223-0.896-8.783-1.336c-5.137-0.839-8.559-1.398-8.559-1.398
						c12.211,2.137,21.982,3.526,29.686,4.626c7.717,0.97,13.354,1.733,17.371,2.154
						C3971.203,71.442,3972.678,71.53,3971.086,71.273z"/>
					<path fill="#C9C9C8" d="M3743.852,21.558c0,0,1.924,0.438,4.809,1.097c2.893,0.645,6.73,1.54,10.564,2.474
						c3.832,0.93,7.666,1.86,10.541,2.558c2.871,0.712,4.783,1.188,4.783,1.188s-3.406-0.852-8.52-2.129
						c-5.125-1.225-11.938-2.924-18.799-4.464c-6.838-1.617-13.73-3.026-18.875-4.153c-5.172-1.025-8.619-1.708-8.619-1.708
						s1.514,0.303,3.777,0.757c2.27,0.454,5.291,1.047,8.299,1.722c3.014,0.655,6.023,1.311,8.281,1.802
						C3742.352,21.215,3743.852,21.558,3743.852,21.558z"/>
					<path fill="#C9C9C8" d="M3823.696,43.117c-4.135-1.164-12.063-3.53-42.129-11.656l21.01,6.047
						C3809.024,39.221,3816.285,41.149,3823.696,43.117z"/>
					<path fill="#C9C9C8" d="M3803.313,37.719l-0.738-0.21c-22.879-6.168-38.848-10.31-45.703-11.993
						C3762.756,26.972,3776.733,30.545,3803.313,37.719z"/>
					<path fill="#C9C9C8" d="M3829.035,44.52c-1.926-0.506-3.406-0.896-5.338-1.403C3825.764,43.704,3826.946,44.03,3829.035,44.52z
						"/>
					<path fill="#C9C9C8" d="M4061.151,77.359c-4.084,0.031-8.719-0.13-13.578-0.224c-2.43-0.054-4.916-0.11-7.416-0.166
						c-1.25-0.028-2.502-0.056-3.754-0.084c-1.252-0.052-2.5-0.104-3.742-0.156c-4.971-0.207-9.834-0.409-14.258-0.592
						c-4.422-0.186-8.396-0.484-11.613-0.651c-6.424-0.369-9.771-0.525-7.4-0.284c1.184,0.121,3.799,0.34,8.174,0.682
						c2.188,0.167,4.814,0.369,7.926,0.607c3.113,0.205,6.709,0.378,10.828,0.607c11.697,0.419,8.117,0.121,7.76-0.03
						c-0.178-0.092,0.445-0.076,4.189-0.045c1.871,0.027,4.52,0.065,8.236,0.119c1.859,0.035,3.986,0.076,6.414,0.122
						C4055.346,77.32,4058.078,77.373,4061.151,77.359z"/>
					<path fill="#C9C9C8" d="M3855.233,51.638c0,0,3.592,0.847,8.98,2.117c2.689,0.646,5.838,1.375,9.219,2.108
						c3.379,0.744,6.984,1.537,10.588,2.33c7.23,1.485,14.455,3.007,19.904,3.984c5.438,1.021,9.068,1.701,9.068,1.701
						c-0.521-0.139-3.408-0.76-4.17-0.97c-0.379-0.106-0.229-0.114,1.021,0.084c0.623,0.105,1.52,0.256,2.762,0.465
						c1.244,0.197,2.834,0.449,4.84,0.768c0,0-0.979-0.16-2.688-0.44c-1.717-0.263-4.154-0.716-7.082-1.249
						c-2.928-0.532-6.344-1.153-10.002-1.819c-3.646-0.726-7.541-1.5-11.432-2.274c-3.898-0.747-7.77-1.634-11.406-2.4
						c-3.639-0.775-7.033-1.509-9.93-2.19C3859.102,52.524,3855.233,51.638,3855.233,51.638z"/>
					<path fill="#C9C9C8" d="M3827.235,44.741c0,0,6.992,1.757,13.984,3.515c7.006,1.691,14.014,3.382,14.014,3.382
						s-5.303-1.313-10.607-2.627c-2.645-0.671-5.295-1.343-7.277-1.847c-1.984-0.511-3.311-0.852-3.311-0.852L3827.235,44.741z"/>
					<path fill="#C9C9C8" d="M3965.549,73.167c-3.51-0.421-3.354-0.434-3.578-0.49c-1.834-0.188-3.381-0.401-4.461-0.521
						c-1.08-0.129-1.691-0.198-1.646-0.183c0.049,0.014,0.752,0.112,2.301,0.318c0.771,0.102,1.762,0.231,2.979,0.391
						C3962.371,72.817,3963.83,72.978,3965.549,73.167z"/>
					<path fill="#C9C9C8" d="M3919.114,66.331c4.102,0.638,7.844,1.289,13.926,2.11c3.037,0.438,6.65,0.958,11.176,1.61
						c4.527,0.585,9.973,1.287,16.652,2.149c23.271,2.676-0.1,0.199,1.105,0.476c4.031,0.412,9.582,0.979,14.848,1.517
						c5.27,0.506,10.262,0.852,13.156,1.08c2.896,0.212,3.701,0.236,0.607-0.088c-3.092-0.355-10.094-0.885-22.75-2.392
						c0,0-1.986-0.202-3.975-0.403c-0.994-0.101-1.988-0.202-2.73-0.278c-0.742-0.09-1.238-0.15-1.238-0.15
						c-5.688-0.77-11.59-1.502-17.521-2.372c-2.963-0.457-5.936-0.916-8.898-1.373s-5.928-0.903-8.846-1.436
						c-11.697-1.992-22.93-4.136-32.457-6.163c-19.068-4.008-31.4-7.21-27.479-6.297c3.227,0.872,6.369,1.654,9.734,2.478
						c3.365,0.81,6.936,1.741,11.061,2.646C3893.721,61.304,3904.069,63.608,3919.114,66.331z"/>
				</g>
			</g>
		</g>
	</g>
	<g>
		<g>
			<g>
				<g>
					<g>
						<g>
							<path fill="#9BBCC6" d="M3899.11,65.684c-3.186-0.566-4.139-0.602-4.623-0.582c0,0,2.221,0.475,5.572,1.081
								c3.35,0.623,7.814,1.452,12.279,2.282c4.479,0.751,8.959,1.503,12.318,2.067c3.354,0.583,5.604,0.893,5.604,0.893
								c-1.104-0.331-11.354-2.384-4.453-1.345c-3.031-0.764-12.422-2.124-13.83-2.06l2.65,0.103
								c-8.324-1.021-13.764-2.974-8.363-2.209l-0.693-0.125c0,0-1.439-0.162-3.604-0.405c-2.164-0.245-5.055-0.552-7.93-0.944
								c-5.766-0.746-11.525-1.492-11.525-1.492C3890.84,64.73,3889.043,63.723,3899.11,65.684z"/>
							<path fill="#9BBCC6" d="M3164.391,48.225c4.605-0.895,5.15-1.074,4.617-1.063
								C3167.364,47.516,3165.797,47.867,3164.391,48.225z"/>
							<path fill="#9BBCC6" d="M3877.141,62.174l-7.217-1.047C3872.803,61.614,3875.336,61.977,3877.141,62.174z"/>
							<path fill="#9BBCC6" d="M3927.871,63.642c0.018-0.026,0.098-0.038-0.082-0.105l-3.232-0.271
								c0.047,0.008,0.063,0.011,0.086,0.014C3925.821,63.412,3926.885,63.532,3927.871,63.642z"/>
							<path fill="#9BBCC6" d="M3717.256,24.628c-0.752-0.145-1.41-0.271-2.307-0.442
								C3715.787,24.346,3716.551,24.493,3717.256,24.628z"/>
							<path fill="#9BBCC6" d="M4025.088,70.605c0,0-3.998-0.066-7.998-0.132c-3.994-0.143-7.988-0.286-7.988-0.286
								c2.145-0.094-5.555-0.548-2.178-0.598c-1.223-0.045-6.92-0.34-5.381-0.11l3.254,0.207c-8.457,0.107-3.391,0.819-17.365,0.11
								c4.307,0.59,7.42,0.875,10.029,1.023c2.611,0.103,4.729,0.067,7.033,0.067c1.557,0.07,2.854,0.129,4.178,0.188
								c0,0,3.334-0.017,6.668-0.034c1.664,0.007,3.334-0.064,4.584-0.087c1.252-0.032,2.084-0.053,2.084-0.053L4025.088,70.605z"/>
							<path fill="#9BBCC6" d="M3386.229,14.188l0.17-0.069C3386.244,14.151,3386.207,14.172,3386.229,14.188z"/>
							<path fill="#9BBCC6" d="M3387.08,13.832l-0.682,0.286C3387.246,13.93,3390.553,13.527,3387.08,13.832z"/>
							<path fill="#9BBCC6" d="M3879.842,62.304c-0.248,0.079-1.191,0.034-2.701-0.13l5.371,0.773
								C3881.77,62.768,3880.778,62.529,3879.842,62.304z"/>
							<path fill="#9BBCC6" d="M3892.207,63.307c0,0,0.832,0.164,2.084,0.41c1.25,0.242,2.914,0.586,4.59,0.873
								c3.346,0.6,6.688,1.199,6.688,1.199l4.994,0.563c-2.572-0.419-5.355-0.873-8.398-1.369c-1.521-0.247-3.109-0.504-4.77-0.773
								C3895.739,63.921,3894.012,63.621,3892.207,63.307z"/>
							<path fill="#9BBCC6" d="M3737.969,29.547c-27.26-6.03,6.873,0.705-5.596-2.307c-3.795-0.816-6.387-1.261-8.623-1.583
								c-2.236-0.338-4.115-0.598-6.494-1.03c10.869,2.091,10.068,2.253,9.287,2.436c-0.779,0.185-1.537,0.343,9.357,2.705
								c-1.623,0.003-5.584-0.712-10.063-1.611c-4.486-0.84-9.48-1.948-13.166-2.764c-4.129-1.125-2.271-0.901,0.877-0.433
								c3.141,0.508,7.563,1.319,8.582,1.186c-8.779-1.712-7.264-1.289-11.066-1.617c-13.736-2.938-28.695-4.062-36.855-6.163
								c-10.082-1.041-9.453-0.694-15.281-0.954c-0.309,0.158,0.477,0.334,1.873,0.564c1.396,0.248,3.414,0.533,5.58,0.832
								c4.336,0.589,9.281,1.241,11.088,1.833c-0.754-0.171-2.248-0.511-1.793-0.549l8.629,1.4c-8.18-1.414,1.258-0.604,5.654,0.071
								c3.188,0.518,9.541,1.548,8.629,1.599l-4.848-0.651c6.178,1.203,13.777,1.903,20.242,3.527
								c0.314,0.22-2.176-0.167-2.572-0.14c7.422,0.959,14.473,2.434,25.35,4.563l-6.42-0.705
								c8.832,1.044,28.303,6.057,41.709,10.032c-1.479-0.511-4.15-1.295-2.496-1.009c7.98,1.883,13.855,3.984,10.08,3.368
								c7.895,1.451,29.443,8.416,40.291,10.44c0,0,12.451,2.349,24.957,4.488c3.125,0.532,6.252,1.063,9.182,1.562
								c2.939,0.466,5.68,0.901,8.029,1.274s4.303,0.683,5.672,0.9c1.373,0.2,2.158,0.315,2.158,0.315
								c-1.873-0.306-3.854-0.705-5.908-1.151c-4.33-1.665-6.748-2.152,1.217-0.903c-3.887-0.736-5.123-0.809-6.832-1.032
								c-1.711-0.224-3.9-0.58-9.662-1.998c4.592,0.8,5.898,0.372-5.117-2.416c-27.703-6.285-46.307-9.7-72.092-15.464
								c-0.816-0.748-20.916-5.768-30.68-8.13c3.846,0.391,11.154,1.943,18.697,3.767c-2.357-0.603-5.564-1.447-8.943-2.271
								c-3.379-0.821-6.922-1.682-9.938-2.416L3737.969,29.547z"/>
							<path fill="#9BBCC6" d="M3801.985,44.251c-0.67-0.225-1.381-0.44-2.092-0.655
								C3800.26,43.737,3800.895,43.939,3801.985,44.251z"/>
							<path fill="#9BBCC6" d="M3761.828,34.39c0.104,0.006,0.066-0.018,0.107-0.028c-0.797-0.187-1.584-0.373-2.389-0.562
								C3760.348,34.007,3761.264,34.244,3761.828,34.39z"/>
							<path fill="#9BBCC6" d="M3873.569,59.793c1.672,0.249,2.912,0.433,4.584,0.681c-1.021-0.187-2.313-0.423-3.549-0.649
								C3873.424,59.633,3872.854,59.575,3873.569,59.793z"/>
							<path fill="#9BBCC6" d="M3878.936,61.854l-0.924,0.003c0.705,0.172,1.201,0.293,1.83,0.446
								C3880.057,62.24,3879.865,62.105,3878.936,61.854z"/>
							<path fill="#9BBCC6" d="M3633.114,9.434c0,0-0.674-0.02-1.346-0.04c-0.674-0.003-1.348-0.006-1.348-0.006
								C3632.039,9.438,3632.74,9.469,3633.114,9.434z"/>
							<path fill="#9BBCC6" d="M3707.715,22.343c9.543,1.786,1.297-0.595,14.758,2.193l-3.941-0.866
								c9.75,1.576,26.617,5.676,38.025,8.508c-1.357-0.041,6.824,2.081,5.379,2.183c7.811,1.882,15.537,3.801,19.66,4.421
								c4.781,1.422,12.207,2.98,18.297,4.814c-2.518-0.957,8.965,1.444-6.043-2.229c1.217,0.288,0.479,0.025,1.678,0.307
								c-9.518-2.938-13.531-3.345-21.809-5.501c-4.883-1.553,8.195,1.69,3.559,0.364c-5.201-1.222-13.289-3.43-20.041-5.085
								c-6.742-1.712-12.156-2.818-11.928-2.266c-7.553-1.759-8.561-2.144-10.777-2.853c-3.053-0.406-7.342-1.297-12.088-2.224
								c-2.369-0.494-4.848-1.012-7.338-1.531c-2.494-0.493-4.998-0.987-7.406-1.463c-2.406-0.467-4.721-0.945-6.844-1.316
								c-2.125-0.359-4.053-0.672-5.68-0.911c-3.254-0.477-5.303-0.655-5.328-0.309c4.414,0.692,11.598,1.818,18.082,2.834
								L3707.715,22.343z"/>
							<path fill="#9BBCC6" d="M3857.531,56.187c-0.59-0.143-1.371-0.332-1.854-0.449
								C3856.219,55.87,3856.903,56.035,3857.531,56.187z"/>
							<path fill="#9BBCC6" d="M3978.889,80.833c0,0-1.045,0.132-2.092,0.239c-1.045,0.113-2.094,0.227-2.094,0.227
								c-5.832-0.589-10.736-1.073-15.121-1.579c-4.377-0.572-8.244-1.078-12.021-1.571c-3.777-0.473-7.447-1.068-11.447-1.677
								c-3.996-0.629-8.334-1.214-13.385-2.094c-1.525-0.382,0.938-0.048,2.188,0.122c-3.557-0.586-7.553-1.246-11.707-1.932
								c-4.152-0.706-8.443-1.556-12.629-2.313c-4.188-0.743-8.229-1.581-11.887-2.278c-3.656-0.677-6.918-1.28-9.496-1.757
								c-4.48-0.982-16.158-3.872-11.664-3.138c-2.182-0.426-4.68-0.933-7.172-1.544c-0.578-0.469,5.613,1.217,5.805,0.99
								c-1.967-0.483-2.717-0.723-3.197-0.731c1.693,0.254,0.896-0.216,1.607-0.293c0.713-0.074,2.938,0.257,10.711,1.959
								c5.867,2.067-10.813-2.287-7.439-0.689c5.166,1.143,4.643,0.695,5.104,0.692c6.564,1.463,6.35,1.63,5.961,1.741
								c2.561,0.345,10.813,2.334,14.377,2.679c12.877,2.446-0.822,0.515,7.594,2.101l5.014,0.074c0,0,0.873,0.173,2.184,0.433
								c1.311,0.25,3.049,0.628,4.801,0.929c3.502,0.63,7.004,1.26,7.004,1.26c10.188,1.581,9.521,1.021,9.217,0.602
								c-0.307-0.439-0.236-0.845,11.426,0.65c-1.559-0.008-0.031,0.519,3.236,1.272c3.277,0.69,8.307,1.57,13.729,2.359
								c-3.254-0.404-7.904-0.857-12.789-1.377c-4.875-0.574-9.979-1.287-14.148-2.027c5.857,1.208,1.795,0.623-2.984-0.057
								c-4.77-0.759-10.244-1.644-7.254-0.753c5.877,0.697,15.627,2.039,23.186,3.371l-2.494-0.292
								c4.023,0.667,7.615,0.856,11.572,1.22c3.961,0.34,8.297,0.798,13.877,1.537c5.561,0.579,4.498,0.703,3.498,0.794
								c2.359,0.192,4.596,0.374,6.24,0.508C3977.838,80.637,3978.893,80.745,3978.889,80.833z M3966.752,79.702
								c0,0-1.857-0.224-3.719-0.447c-0.928-0.112-1.854-0.225-2.553-0.309c-0.695-0.097-1.158-0.163-1.158-0.163
								C3961.067,79.163,3963.852,79.426,3966.752,79.702z"/>
							<path fill="#9BBCC6" d="M4065.832,73.546l-5.779,0.068C4062.893,73.627,4064.586,73.596,4065.832,73.546z"/>
							<path fill="#9BBCC6" d="M4066.776,84.564l-1.82,0.189C4066.469,84.675,4066.942,84.615,4066.776,84.564z"/>
							<path fill="#9BBCC6" d="M3920.063,68.076c0.15,0.108,2.979,0.711,5.754,1.23c2.77,0.542,5.506,0.876,5.436,0.664
								c-3.291-0.504-6.59-1.143-9.9-1.74L3920.063,68.076z"/>
							<path fill="#9BBCC6" d="M4058.022,83.162c-0.342-0.169,4.322-0.438-0.975-0.5c-12.297-0.226-3.229,0.614-7.086,0.884
								c4.742,0.037,8.211,0.135,11.184,0.217c2.973,0.107,5.439,0.291,8.188,0.533l-2.523,0.255
								c-0.385-0.148-6.332-0.212-8.076-0.368l-1.543,0.552c0.717-0.607-8.791-1.357-16.277-1.337
								c7.545,0.671,5.504,0.589,7.547,1.362c-5.277,0.188-8.246-0.064-11.369-0.315c-3.125-0.276-6.396-0.617-12.311-0.536
								c0.895-0.159,11.188,0.188,2.303-0.396c-7.361-0.386-6.404,0.158-11.354,0.063c5.6-0.24,4.188-0.706,10.24-1.031
								c13.066,0.535,5.275,0.353,18.061,0.498c0,0-2.699-0.188-5.396-0.375c-1.35-0.092-2.697-0.184-3.709-0.284
								c-1.012-0.09-1.686-0.151-1.686-0.151c11.063,0.35,8.061-0.334,8.986-0.481c-2.357-0.135-4.354-0.227-6.057-0.295
								c-1.705-0.097-3.117-0.158-4.324-0.192c-2.412-0.069-3.984-0.034-5.354,0.024c-2.73,0.112-4.625,0.329-10.695-0.048
								c-2.938-0.034-0.098,0.224,2.336,0.34c2.434,0.139,4.451,0.259-0.146,0.224c-11.363-0.779-2.605,0.185-15.385-0.445
								l2.152-0.093c-3.877-0.585-7.768-0.421-12.27-0.803c-4.971-0.289,5.479,2.324-14.951,0.518
								c1.012-0.031,1.385-0.105,1.393-0.162c0,0,5.074-0.652,10.148-1.304c2.529-0.327,5.057-0.654,6.951-0.899
								c0.945-0.116,1.732-0.238,2.289-0.321c0.551-0.083,0.867-0.13,0.867-0.13c-20.605-1.575-44.303-4.25-67.896-8.208
								c-5.428-1.698,16.979,1.862,15.602,1.169l10.783,1.569c-0.322,0.142-5.99-0.562-10.365-1.063
								c-2.188-0.238-4.053-0.462-4.762-0.505c-0.711-0.036-0.273,0.146,2.145,0.654c9.57,1.087,16.498,2.103,23.344,2.762
								c3.418,0.361,6.811,0.705,10.484,1.034c3.682,0.268,7.648,0.496,12.217,0.715c-1.396-0.34-3.59-0.633-6.281-0.908
								c-2.689-0.276-5.885-0.513-9.26-0.876c-6.754-0.686-14.295-1.352-20.133-2.503c2.471,0.341,4.748,0.645,6.922,0.867
								c2.178,0.186,4.244,0.362,6.281,0.535c-2.768-0.342-5.584-0.633-8.439-1.035c-2.854-0.398-5.76-0.802-8.711-1.213
								c-5.908-0.773-11.979-1.78-18.24-2.778l-2.854-0.215c8.443,1.366,14.281,2.31,15.035,2.432
								c-5.607-0.851-10.785-1.537-14.678-1.921c-3.889-0.381-6.467-0.594-6.889-0.327l1.986,0.357l-4.086-0.489
								c-2.656-0.47-5.275-0.951-7.875-1.43c-0.953-0.119-1.939-0.278-2.943-0.438l1.541,0.171c-2.533-0.517-5.045-1.03-7.559-1.543
								c-0.918-0.151-1.914-0.314-3.133-0.515c0.484,0.075,0.877,0.102,1.117,0.099c-0.814-0.169-1.607-0.334-2.416-0.501
								c-6.123-0.694-21.154-3.489-25.518-4.237c-5.752-1.031-12.721-2.592-17.07-3.638c4.041,0.955,9.422,2.122,7.875,1.508
								c-4.082-1.087-7.076-2.037-10.836-3.064c-3.748-1.073-8.271-2.181-15.396-3.652l8.283,2.05c0,0-1.18-0.229-2.945-0.572
								c-1.771-0.338-4.127-0.803-6.479-1.289c-4.705-0.958-9.412-1.916-9.412-1.916c-6.404-2.055,9.393,1.919,12.057,2.239
								c-14.58-3.207-26.242-7.621-33.125-8.605c-0.818-0.725-2.18-1.925-11.637-4.409c6.654,2.359-5.762-1.171-0.322,0.901
								c-3.338-0.61-10.496-2.982-11.139-2.773l0.938,0.04c-15.938-5.033-21.541-5.181-28.557-6.531
								c-9.711-2.311-16.785-4.021-23.43-5.538c-3.318-0.777-6.525-1.526-9.912-2.224c-3.385-0.699-6.918-1.506-10.92-2.225
								c-0.57-0.433-4.752-2.161-11.18-3.306c-1.541-0.034-5.949-0.607-10.168-1.132c-4.217-0.542-8.268-0.849-9.045-0.7
								c2.877,0.475,4.906,0.767,6.445,0.953c1.533,0.219,2.574,0.322,3.479,0.389c1.801,0.134,3.033,0.126,6.49,0.637
								c5.629,1.559,0.43,0.615,8.164,2.426c-3.115-0.76-10.266-1.866-17.479-3.029c-7.236-1.012-14.529-2.137-17.986-2.768
								l2.469,0.217c-5.531-0.83-8.791-1.674-13.008-2.449c-2.107-0.345-4.461-0.675-7.449-0.976
								c-2.988-0.295-6.615-0.616-11.297-0.686l-8.898-0.27c0.432-0.027,0.477-0.09,0.711-0.125
								c-7.273-0.454-9.92-0.668-12.752-0.92c-1.418-0.112-2.885-0.218-5.002-0.29c-2.121-0.028-4.896-0.022-8.926,0.033
								c1.242-0.017,0.461-0.093,1.723-0.109c-9.17-0.567-18.447,0.223-25.4,0.346c-4.242-0.461,1.018-0.468,3.635-0.817
								c-4.041-0.035-8.166-0.007-12.232,0.063c-4.064,0.065-8.078,0.173-11.896,0.393c-7.637,0.391-14.504,0.862-19.52,1.241
								c0,0-2.605-0.022-5.211-0.044c-2.604-0.038-5.209-0.007-5.209-0.007c6.166-0.381,13.723-0.963,11.82-1.231
								c-5.73,0.221-4.607,0.352-12.721,0.508c0.688-0.174,1.883-0.361,3.379-0.565c1.498-0.174,3.295-0.384,5.195-0.605
								c-4.195-0.061-6.527,0.003-7.85,0.121c-1.32,0.106-1.627,0.237-1.779,0.35c-0.301,0.225,0.025,0.377-5.854,0.108
								c-5.275,0.169-8.313,0.711-8.887,1.096l-9.555-0.162c-1.039,0.443-12.813,1.064-20.521,1.496
								c-0.928,0.245,6.23,0.199,9.152-0.121c-0.568,0.393-8.762,0.957-14.029,1.202c-1.99-1.017-34.525,2.145-28.354,0.614
								c-11.84,0.811-26.059,2.083-39.271,3.184c-13.209,1.178-25.395,2.475-33.176,3.347c-5.164,0.205-15.645,1.297-9.408,0.189
								c-9.502,0.971-16.68,1.941-23.836,2.906c-7.15,1.036-14.283,2.037-23.721,2.981c-1.576,0.057,8.506-0.981,7.811-1.229
								c-6.133,0.921-11.754,1.384-18.209,2.107c-6.457,0.695-13.768,1.48-23.287,2.813c3.209-0.423,4.111-0.74,4.547-0.896
								c0.357,0.121-7.777,1.297-12.672,2.161c-2.781,0.297,3.666-0.622,2.102-0.532c-9.219,1.148-17.871,2.331-26.238,3.542
								c-8.355,1.297-16.428,2.615-24.486,3.945c-16.105,2.768-32.184,5.532-50.389,8.662c5.205-0.869,8.766-1.627,11.031-2.204
								c2.268-0.577,3.236-0.971,3.271-1.11l-10.193,1.701c-3.879,0.982-11.533,2.257-17.893,3.585
								c-0.813,0.021-3.934,0.44-0.791-0.271c-10.111,1.458-17.914,3.139-26.273,4.958c-8.35,1.871-17.25,3.914-29.582,6.026
								l29.564-6.796l-7.457,0.911c0,0,3.25-0.752,6.5-1.504c3.254-0.727,6.51-1.453,6.51-1.453
								c-7.908,1.011-14.561,3.13-15.592,2.811c1.629-0.442,5.617-1.137,5.705-1.422c-7.555,1.206-8.086,1.676-13.713,2.815
								c7.354-1.873,18.324-4.175,29.445-6.26c5.563-1.044,11.146-2.093,16.322-3.066c5.189-0.93,9.963-1.786,13.898-2.492
								c2.457-0.492-2.082,0.594-2.512,0.768c6.424-1.108,10.33-1.463,18.408-2.978c4.955-1.224-3.895,0.308-7.895,0.959
								c0.5-0.455,2.51-0.772,6.938-1.57c1.045,0.333,24.459-3.71,30.291-4.012c23.787-3.682-4.002-0.684,19.281-3.922l7.031-0.478
								c6.719-1.191,14.445-2.424,22.4-3.665c7.951-1.266,16.156-2.357,23.826-3.259l-3.229,0.426
								c-2.115,0.507,1.457,0.205,3.045,0.128c5.801-0.612,11.281-1.415,16.199-2.104c4.926-0.634,9.281-1.162,12.822-1.286
								c13.146-2.188,35.189-4.881,50.307-6.665c4.154,0.281-19.695,2.606-25.945,3.708l13.775-1.408
								c-8.51,0.878-11.852,1.5-16.904,2.437c12.084-1.092,15.986-2.148,27.424-3.488c-0.877,0.279,0.674,0.265,5.957-0.201
								l1.457-0.621c0.104,0.031,0.688,0.016,2.33-0.099l20.371-2.116c-4.346,0.177-4.596-0.228-9.865,0.236
								c1.908,0.116-2.563,0.572-7.83,1.033c4.596-0.73-5.174,0.191-5.082-0.082c10.572-0.972,23.564-2.167,30.504-2.806
								l2.281,0.279c10.105-0.624,20.744-1.782,27.602-2.012l-2.137,0.372c6.064-0.307,12.072-0.718,17.914-1.081
								c2.92-0.166,5.803-0.329,8.623-0.489c2.824-0.119,5.598-0.172,8.295-0.196c10.791-1.005,24.387-2.188,33.223-2.938
								c2.357-0.37,10.313-0.451,19.193-0.593c8.887-0.119,18.701-0.094,24.801-0.638c0.82,0.047-8.379,0.589-12.545,0.885
								c8.129-0.058,14.582-0.897,17.139-0.332c-18.24,0.125,0.986,0.47-7.23,0.793c4.268-0.083,8.646-0.193,12.486-0.319
								c3.84-0.108,7.139-0.169,9.229-0.294c-13.818,0.051,4.898-0.877-9.086-0.536c5.414-0.309,11.82-0.479,18.49-0.597
								c3.334-0.054,6.734-0.086,10.109-0.095c1.686,0.001,3.367,0.003,5.029,0.005c1.67,0.047,3.32,0.094,4.943,0.141
								c-0.133,0.261,1.461,0.413,6.301,0.608l3.904-0.313c6.078,0.178-11.736,0.243,0.479,0.599
								c3.145-0.064,7.084,0.075,11.307,0.236c4.227,0.123,8.727,0.485,13.008,0.798c2.145,0.147,4.23,0.292,6.195,0.427
								c1.967,0.151,3.814,0.293,5.48,0.422c3.338,0.232,5.957,0.317,7.359,0.147c9.498,1.382-18.221-1.244-3.891,0.706
								c-2.102-0.09-4.395-0.256-6.695-0.451c-2.301-0.208-4.621-0.319-6.762-0.481c-4.281-0.292-7.863-0.515-9.266-0.309
								c8.23,0.397,2.971,0.718,8.26,1.091c0,0,2.293,0.066,4.59,0.132c1.146,0.024,2.295,0.072,3.152,0.127
								c0.857,0.046,1.434,0.078,1.434,0.078l-2.02-0.216c3.844,0.222,8.246,0.549,12.99,0.944
								c4.734,0.476,9.811,1.084,15.016,1.701c5.188,0.762,10.518,1.467,15.738,2.323c5.213,0.904,10.371,1.666,15.189,2.603
								c16.469,2.453,27.896,4.029,47.279,8.813c-5.793-1.085,15.979,4.364,3.645,1.942c4.43,1.281,8.883,2.365,12.234,3.164
								c3.359,0.784,5.646,1.214,5.771,1.11c-7.83-2.129-2.746-0.805-9.316-2.643c4.539,0.844,14.822,3.529,18.98,4.867
								c-1.943-0.54-1.223-0.285-1.684-0.303c9.291,2.692,4.57,0.877,11.354,2.554c2.021,1.008,14.855,4.1,20.949,5.961l9.094,1.732
								c-5.018-0.877,8.516,2.395,9.83,3.104c6.479,1.372,11.986,2.195,21.727,4.692c-4.092-0.732,8.854,2.397,8.934,2.853
								c4.164,1.104,8.02,1.899,11.682,2.628c3.666,0.725,7.146,1.361,10.607,1.91c3.461,0.57,6.891,1.141,10.443,1.81
								c3.563,0.614,7.254,1.316,11.229,2.214c-0.516,0.005-3.799-0.323,0.869,0.657c3.707,0.607,10.176,1.667,14.143,2.317
								l-0.127-0.009c0.076,0.009,0.127,0.014,0.213,0.023c1.941,0.304,3.158,0.455,3.232,0.362
								c3.422,0.339,6.029,0.485,9.451,0.799c3.424,0.298,7.654,0.783,14.373,1.431c-0.459-0.311-3.521-0.763-7.074-1.241
								c-3.551-0.523-7.598-1.038-10.049-1.324l-4.291-0.152c-3.904-1.356-12.027-1.881-15.057-2.632
								c2.033,0.124,4.992,0.471,8.506,0.95c1.754,0.25,3.646,0.52,5.635,0.803c1.988,0.263,4.07,0.539,6.197,0.82
								c2.127,0.288,4.301,0.582,6.471,0.876c1.084,0.147,2.168,0.293,3.246,0.439c1.082,0.124,2.154,0.246,3.219,0.367
								c4.248,0.479,8.303,0.916,11.781,1.232c-8.369-1.748-26.713-4.2-42.623-6.991l6.969,1.469l-8.34-1.393l7.984,1.87
								c-3.941-0.715-7.633-1.307-11.219-1.917c-3.58-0.658-7.063-1.299-10.625-1.953c8.338,1.546,11.467,2.815,6.771,1.83
								c-9.207-2.208-9.764-1.471-16.842-2.964c3.934,0.861,9.078,1.885,5.707,1.503c-6.934-1.726-11.363-2.642-15.623-3.623
								c-4.254-1.008-8.359-1.924-14.621-3.689c1.391,1.168-15.813-3.611-17.854-3.487l5.848,1.508l-12.547-2.58
								c-11.283-3.563,10.307,1.939-7.01-2.97c-16.043-4.221-15.842-3.317-28.488-6.614c4.279,0.648,14.404,2.923,24.594,5.571
								l-6.113-1.831c3.336,0.602,17.414,4.289,24.461,6.013c-11.771-2.352,5.393,1.56,10.604,3.172
								c1.092-0.224-6.422-1.907,2.504-0.202c-8.273-1.909-9.49-2.206-19.973-4.959c5.668,1.448,9.807,2.393,13.129,3.065
								c3.33,0.64,5.844,1.026,8.264,1.396c4.838,0.769,9.318,1.362,19.223,3.742c-9.217-1.804,3.063,1.368,4.129,1.763
								c2.176,0.413,5.461,1.038,8.66,1.645c3.197,0.605,6.322,1.088,8.145,1.382l-3.152-1.273
								c11.688,1.917,15.508,4.021,29.131,5.527c1.814-0.065-11.854-2.089-9.412-1.764c18.529,2.64,25.057,4.55,41.521,7.123
								c0.947-0.1,0.809-0.544,6.629-0.269c-1.857,0.204,2.4,0.876-4.145,0.461c2.754,0.386,5.779,0.684,8.73,0.932
								c2.945,0.258,5.818,0.449,8.27,0.566c-11.51-1.289,4.771-0.142,6.914-0.214c5.973,0.598-1.85,0.241-5.531,0.032
								c4.779,0.532,10.438,1.632,13.209,1.27c0.08,0.221-3.295,0.203-7.811,0.044c-4.51-0.176-10.168-0.406-14.607-0.883
								c0,0,1.496,0.18,2.988,0.36c1.492,0.193,2.992,0.327,2.992,0.327c-4.16-0.167-4.924-0.361-10.865-1.06
								c5.799,0.963,5.186,1.263,3.799,1.417c-0.77-0.146,0.438-0.054-0.293-0.194c-4.781-0.63-8.469-0.915-7.393-0.569
								c-4.379,0.098,6.611,1.08,9.832,1.718c2.459,0.25,4.926,0.428,7.354,0.599c0,0,6.279,0.096,12.561,0.191
								c3.139,0.044,6.281-0.014,8.635-0.013c2.354-0.012,3.922-0.02,3.922-0.02c2.676,0.129,4.979,0.274,7.055,0.432
								c2.074,0.151,3.928,0.285,5.693,0.413c3.533,0.314,6.738,0.599,10.75,0.956l2.217-0.385
								c9.303,0.404,18.09,0.749,12.102,1.219c-0.324-0.173-1.551-0.169-3.572-0.251c-0.273,0.059-0.74,0.093-1.326,0.114
								c-0.195,0.03-0.313,0.048-0.471,0.073c9.982,0.123,16.207,0.213,16.793,0.191c-16.959,0.247-0.877,0.873-3.725,1.667
								c0,0,1.07,0.013,2.678,0.033c1.605-0.009,3.75-0.021,5.896-0.033 M4066.707,71.732 M4060.918,72.727l-3.49,0.512
								c1.348-0.264-13.166-0.739-2.84-0.857c0,0,1.047,0.002,2.619,0.005c1.57-0.026,3.672-0.061,5.77-0.095 M4065.846,73.543
								 M3187.205,43.501c0.666-0.173,1.193-0.333,1.564-0.484C3188.381,43.175,3188.852,43.156,3187.205,43.501z M3986.549,75.462
								c0.389,0.028,0.523,0.038,0.877,0.063c-2.004-0.196-4.029-0.395-6.129-0.601C3982.11,75.036,3983.664,75.205,3986.549,75.462
								z M4003.852,77.471l2.061-0.314c-1.891-0.146-3.801-0.295-5.77-0.447C4000.77,76.958,4001.44,77.184,4003.852,77.471z
								 M4061.317,79.896c-0.119,0.091-0.824,0.169-2,0.24c3.48,0.112,5.809,0.29,4.395,0.663
								c-8.934-0.905-8.037,0.472-17.709,0.001c-3.088,0.334,10.762,0.796,13.703,0.607 M4030.207,73.209
								c-0.117-0.009-0.252-0.019-0.391-0.029c0.145,0.008,0.291,0.016,0.43,0.023L4030.207,73.209z"/>
							<path fill="#9BBCC6" d="M3351.934,13.977c0,0-0.883,0.095-2.428,0.261c-1.545,0.156-3.75,0.418-6.396,0.739
								c-5.287,0.635-12.338,1.48-19.389,2.326c-7.055,0.81-14.088,1.787-19.369,2.472c-5.275,0.696-8.799,1.16-8.799,1.16
								c8.104-1.046,15.895-2.119,24.813-3.207C3329.297,16.688,3339.328,15.398,3351.934,13.977z"/>
							<path fill="#9BBCC6" d="M4064.53,71.957l-1.533-0.138c0,0-1.846,0.041-3.689,0.083c-1.852,0.056-3.689,0.047-3.689,0.047
								l1.551,0.167L4064.53,71.957z"/>
							<path fill="#9BBCC6" d="M3761.031,22.442c2.652,0.282,15.125,3.722,15.682,4.211c-1.707-0.298-8.518-1.931-4.314-0.624
								l10.098,1.773c12.994,3.982-10.26-1.589-16.848-2.938c13.383,3.56,17.48,4.086,31.682,7.881
								c-4.152-1.192-6.75-2.1-8.92-2.861c-0.334-0.712,12.838,3.092,22.283,5.563c-5.939-1.849-2.406-1.132,2.031-0.188
								c0.797,0.193,1.32,0.299,1.699,0.359c0.52,0.109,1.018,0.213,1.516,0.317l-1.137-0.301c0.096-0.044-0.133-0.187-0.916-0.509
								c-7.967-1.944-13.902-4.047-19.008-5.422c4.813,2.277-17.471-4.441-24.02-5.797l-7.496-1.816l-2.795-0.701
								c-0.545-0.246,0.283-0.173,4.604,0.717c-1.807-0.357-5.678-1.298-8.967-2.079c-3.295-0.768-6.021-1.342-5.5-1.063
								c0,0-1.703-0.407-4.256-1.018c-2.549-0.626-5.961-1.41-9.387-2.167c-6.826-1.581-13.709-2.972-13.709-2.973
								c-0.854-0.217-1.693-0.442-2.318-0.643c-0.959-0.138-1.125-0.121-1.02-0.049c0,0-0.469-0.097-1.346-0.279
								c-0.877-0.184-2.164-0.454-3.811-0.753c-3.295-0.598-7.98-1.551-13.645-2.516c-11.309-2.001-26.488-4.189-41.732-5.784
								c-15.248-1.648-30.564-2.368-42.045-2.824c-5.74-0.109-10.525-0.2-13.877-0.264c-3.355-0.076-5.248-0.051-5.248-0.051
								c6.014,0.104,11.266,0.473,17.479,0.673c-4.686,0.241-2.135,0.296,1.24,0.408c3.373,0.171,7.57,0.374,6.189,0.616
								c-2.104,0.023-4.688-0.069-7.201-0.163c-2.518-0.053-4.963-0.151-6.787-0.257c-1.367,0.28,3.836,0.644,3.217,0.997
								c15.375,0.865,17.814-0.476,32.852,0.813c-0.311,0.161-1.635,0.241-1.645,0.36c-0.008,0.059,0.313,0.128,1.25,0.222
								c0.938,0.083,2.49,0.22,4.949,0.438l-2.502-0.158c15.768,1.097,12.156,1.917,22.146,2.118l-0.316,0.493
								c1.789,0.115,3.996,0.304,6.422,0.538c2.422,0.272,5.059,0.625,7.717,0.975c2.652,0.367,5.34,0.69,7.826,1.094
								c2.492,0.398,4.807,0.768,6.744,1.078l-0.482,0.022c5.465,0.729,8.941,1.32,11.482,1.758
								c2.541,0.435,4.145,0.732,5.826,1.056c1.689,0.309,3.441,0.709,6.295,1.299c2.848,0.618,6.818,1.337,12.846,2.667
								c0,0-2.807-0.465-5.609-0.931c-2.813-0.429-5.627-0.857-5.627-0.857c8.281,1.953,10.287,1.796,16.23,3.188
								c-0.445,0.004,0.852,0.691-4.793-0.482c0,0,1.836,0.354,4.594,0.884c2.764,0.511,6.418,1.281,10.082,2.039
								c3.666,0.75,7.324,1.518,10.059,2.128c2.738,0.598,4.563,0.996,4.563,0.996C3770.373,25.013,3762.045,22.929,3761.031,22.442
								z"/>
							<path fill="#9BBCC6" d="M3797.328,32.747c1.523,0.438,3.24,0.909,5.287,1.436
								C3800.651,33.649,3798.951,33.188,3797.328,32.747z"/>
							<path fill="#9BBCC6" d="M3589.78-0.328l8.537-0.028C3595.666-0.381,3592.92-0.383,3589.78-0.328z"/>
							<path fill="#9BBCC6" d="M3838.789,42.477c-4.914-1.538,3.814,0.581,4.73,0.606l-17.82-4.58
								c0.035,0.219-1.797-0.027-1.482,0.247c0,0,3.645,0.942,7.287,1.884C3835.145,41.556,3838.789,42.477,3838.789,42.477z"/>
							<path fill="#9BBCC6" d="M3820.639,36.778c-0.639-0.023-2.557-0.39-4.701-0.841l9.762,2.566
								C3825.672,38.338,3824.614,37.917,3820.639,36.778z"/>
							<polygon fill="#9BBCC6" points="3819.766,47.757 3816.598,46.944 3811.772,45.825 							"/>
							<path fill="#9BBCC6" d="M3770.551,33.773c3.705,1.271,10.926,2.93,13.344,3.501
								C3775.637,35.092,3779.239,35.919,3770.551,33.773z"/>
							<polygon fill="#9BBCC6" points="3779.914,39.636 3771.924,37.721 3772.645,37.971 							"/>
							<path fill="#9BBCC6" d="M3526.756,2.677c-1.354,0.056-2.664,0.111-4.035,0.168C3524.563,2.786,3525.778,2.731,3526.756,2.677
								z"/>
							<path fill="#9BBCC6" d="M3597.565,1.223c-9.844-0.269-6.619-0.401-1.701-0.558c4.896-0.21,11.584-0.167,8.467-0.626
								c0,0-0.676,0.004-1.688,0.009c-1.012,0.009-2.371,0-3.707,0.047c-2.686,0.07-5.367,0.14-5.367,0.14l0.924-0.206
								l-13.088,0.102c2.689,0.341,4.711,0.357,4.123,0.724c-17.459-0.093-5.504-0.425-18.313-0.839l-19.521,0.42l1.586-0.138
								c-1.645,0.038-2.373,0.097-2.938,0.167c0,0-4.105,0.089-10.271,0.222c-6.156,0.222-14.373,0.519-22.586,0.815
								c-4.104,0.162-8.215,0.275-12.061,0.468c-3.848,0.197-7.439,0.381-10.516,0.539c-6.154,0.316-10.26,0.526-10.26,0.526
								c-11.938,0.861,6.637,0.34-2.15,1.299c6.924-0.3,15.529-0.672,22.549-0.977c7.021-0.292,12.457-0.51,13.031-0.909
								c-0.457,0.116-1.361,0.347,1.445,0.34l7.996-0.865l-7.65,0.062c4.02-0.424,12.533-0.849,20.635-1.076
								c8.105-0.142,15.791-0.156,18.148-0.013c-7.398,0.236-9.236,0.5-11.803,0.704c-2.566,0.219-5.863,0.286-16.166,0.466
								c0.926,0.154,4.707,0.354,0.074,0.609c3.02-0.118,5.996-0.233,8.943-0.348c2.953-0.062,5.875-0.123,8.785-0.183
								c5.813-0.111,11.563-0.221,17.344-0.332c5.779-0.155,11.584-0.145,17.512-0.231
								C3585.266,1.508,3591.309,1.396,3597.565,1.223z"/>
							<path fill="#9BBCC6" d="M3355.737,14.163l0.189-0.085C3355.49,14.157,3355.346,14.198,3355.737,14.163z"/>
							<path fill="#9BBCC6" d="M3363.809,13.43l11.641-1.906l-18.25,1.919l-1.271,0.633c1.596-0.29,7.977-1.196,10.473-1.254
								L3363.809,13.43z"/>
							<path fill="#9BBCC6" d="M3389.018,9.85c-9.414,1.053-8.85,1.595-3.67,1.403c-8.643,1.06-4.643-0.257-10.541,0.969
								c0.232,0.364,10.887-0.839,13.34-1.132L3389.018,9.85z"/>
							<polygon fill="#9BBCC6" points="3458.809,4.864 3456.16,5.274 3462.721,4.932 							"/>
							<path fill="#9BBCC6" d="M3456.16,5.274l-6.52,0.338c0.461,0.153,0.922,0.302,1.988,0.36L3456.16,5.274z"/>
							<path fill="#9BBCC6" d="M3432.569,6.604c-2.758,0.182-5.811,0.383-9.51,0.627L3432.569,6.604z"/>
							<path fill="#9BBCC6" d="M3440.01,6.19l-0.221-0.061l-7.223,0.474C3435.231,6.456,3437.621,6.323,3440.01,6.19z"/>
							<path fill="#9BBCC6" d="M3449.641,5.612c-1.084-0.334-2.348-0.732-11.752,0.024l1.902,0.493L3449.641,5.612z"/>
							<polygon fill="#9BBCC6" points="3722.117,25.001 3714.842,23.726 3715.59,23.947 3722.865,25.222 							"/>
							<path fill="#9BBCC6" d="M3680.237,17.207c-1.813-0.188-3.188-0.31-4.449-0.413
								C3677.694,17.023,3679.223,17.174,3680.237,17.207z"/>
							<path fill="#9BBCC6" d="M3648.547,16.411c-8.566-1.212,11.926,0.538-4.002-1.074c-0.691-0.221,0.852-0.401,3.496-0.278
								c2.645,0.102,6.402,0.382,10.152,0.834c-0.639,0.306-7.348-0.462-2.762,0.346c2.518,0.027,4.238,0.157,5.123,0.191
								c0.885,0.054,0.93-0.005,0.094-0.382c8.42,0.679,9.396,0.364,15.141,0.746c-2.541-0.295-5.777-0.67-9.404-1.091
								c-1.813-0.224-3.721-0.46-5.691-0.703c-1.975-0.195-4.008-0.396-6.063-0.6c-8.213-0.896-16.814-1.345-23.295-1.457
								c-7.186,0.349-2.885,1.437-2.979,2.387c0.268,0.073,1.617,0.163,3.508,0.301c1.885,0.163,4.305,0.346,6.715,0.5
								c2.41,0.155,4.811,0.283,6.654,0.335C3647.076,16.518,3648.36,16.563,3648.547,16.411z"/>
							<path fill="#9BBCC6" d="M3661.975,18.682c3.957,0.523,5.166,0.63,7.607,0.843
								C3668.973,19.123,3665.172,19.051,3661.975,18.682z"/>
							<path fill="#9BBCC6" d="M3569.977,8.067c-0.781,0.104-8.088,0.416-6.521,0.621c0,0,0.693-0.023,1.734-0.058
								c1.041-0.031,2.428-0.092,3.814-0.107c2.771-0.05,5.551-0.101,5.551-0.101C3571.953,8.406,3571.033,8.242,3569.977,8.067z"/>
							<path fill="#9BBCC6" d="M3579.42,8.335l-4.865,0.086C3575.766,8.43,3577.27,8.407,3579.42,8.335z"/>
							<path fill="#9BBCC6" d="M3569.448,7.984c0.176,0.028,0.334,0.052,0.529,0.083C3570.133,8.038,3570.094,8.009,3569.448,7.984z
								"/>
							<path fill="#9BBCC6" d="M3405.608,8.453c0.135-0.274-4.793,0.322-7.268,0.62C3400.354,8.916,3403.194,8.749,3405.608,8.453z"
								/>
							<path fill="#9BBCC6" d="M3220.449,31.941l-4.367,0.481C3217.631,32.302,3218.434,32.237,3220.449,31.941z"/>
							<path fill="#9BBCC6" d="M3155.131,50.078c-0.107,0.071-0.428,0.171-0.844,0.285
								C3154.705,50.256,3155.006,50.159,3155.131,50.078z"/>
							<path fill="#9BBCC6" d="M3154.287,50.363c-2.9,0.743-12.031,1.99-15.238,2.928l0.402-0.178l-6.039,1.319
								C3139.09,53.316,3151.053,51.259,3154.287,50.363z"/>
						</g>
					</g>
				</g>
			</g>
		</g>
	</g>
</g>
</svg>
