<?xml version="1.0" encoding="utf-8"?>
<!-- Generator: Adobe Illustrator 16.0.0, SVG Export Plug-In . SVG Version: 6.00 Build 0)  -->
<!DOCTYPE svg PUBLIC "-//W3C//DTD SVG 1.1//EN" "http://www.w3.org/Graphics/SVG/1.1/DTD/svg11.dtd">
<svg version="1.1" id="Layer_1" xmlns="http://www.w3.org/2000/svg" xmlns:xlink="http://www.w3.org/1999/xlink" x="0px" y="0px"
	 width="4041.676px" height="564.176px" viewBox="0 0 4041.676 564.176" enable-background="new 0 0 4041.676 564.176"
	 xml:space="preserve">
<g id="path_1_">
	<g>
		<g>
			<g>
				<g>
					<path fill="#C9C9C8" d="M906.254,60.76l6.759,1.409c0,0-13.948-3.161-27.896-6.322c-6.973-1.581-13.942-3.161-19.176-4.346
						c-2.608-0.606-4.797-1.074-6.33-1.382c-1.528-0.318-2.403-0.5-2.403-0.5s0.771,0.162,2.115,0.445
						c1.349,0.284,3.271,0.676,5.563,1.217c4.599,1.053,10.728,2.458,16.854,3.862C893.995,57.952,906.254,60.76,906.254,60.76z"/>
					<path fill="#C9C9C8" d="M548.518,7.438c2.137,0.059,4.52,0.125,7.123,0.197c1.302,0.029,2.66,0.06,4.07,0.092
						c1.41,0.065,2.871,0.132,4.383,0.202c6.049,0.251,12.894,0.537,20.348,0.847c1.863,0.077,3.766,0.155,5.702,0.234
						c1.935,0.124,3.903,0.25,5.905,0.378c4.004,0.252,8.139,0.513,12.377,0.78c4.235,0.275,8.586,0.511,13.011,0.831
						c4.419,0.388,8.921,0.782,13.481,1.183c36.492,3.122,76.645,8.272,108.424,14.137l10.401,1.917c0,0,1.808,0.246,4.492,0.733
						c2.688,0.467,6.276,1.09,9.867,1.713c7.181,1.247,14.354,2.493,14.354,2.493c-4.816-0.929-9.729-1.875-14.709-2.834
						c-2.492-0.479-5-0.962-7.524-1.448c-2.522-0.49-5.063-0.987-7.64-1.39c-10.271-1.708-20.768-3.453-31.354-5.213
						c-10.627-1.499-21.347-3.01-32.021-4.515c-2.666-0.4-5.338-0.708-8.01-1.003c-2.67-0.304-5.334-0.608-7.992-0.911
						c-5.313-0.606-10.604-1.209-15.846-1.808c-5.232-0.662-10.456-1.018-15.604-1.498c-5.146-0.455-10.229-0.903-15.234-1.345
						c-2.504-0.204-4.98-0.48-7.449-0.62c-2.465-0.154-4.909-0.307-7.328-0.458c-4.838-0.304-9.58-0.602-14.207-0.893
						c-2.313-0.146-4.602-0.291-6.854-0.433c-2.256-0.14-4.483-0.183-6.68-0.277c-4.391-0.167-8.646-0.328-12.754-0.484
						c-4.105-0.157-8.066-0.309-11.865-0.454C555.599,7.538,551.968,7.486,548.518,7.438z"/>
					<path fill="#C9C9C8" d="M355.7,20.024c5.938-0.76-4.412,0.851-5.48,1.095c-0.535,0.113,1.225-0.274,8.516-1.379
						c3.646-0.564,8.668-1.341,15.465-2.394c6.812-0.988,15.416-2.104,26.201-3.542c-4.344,0.529-5.639,0.688-8.076,0.985
						c-3.881,0.511-8.506,1.121-14.433,1.902C371.972,17.519,364.77,18.663,355.7,20.024z"/>
					<path fill="#C9C9C8" d="M392.325,14.789c4.734-0.625,7.896-1.072,9.867-1.269c1.965-0.225,2.724-0.318,2.641-0.318
						c-0.162,0.023-3.693,0.313-7.611,0.845C389.379,15.056,379.905,16.313,392.325,14.789z"/>
					<path fill="#C9C9C8" d="M219.065,47.974c0,0,12.25-2.854,24.5-5.708c12.271-2.79,24.537-5.58,24.537-5.58
						c-10.391,2.051-54.082,11.949-37.799,8.134C179.944,56.471,190.372,54.246,219.065,47.974z"/>
					<path fill="#C9C9C8" d="M172.655,58.984l25.42-5.791C193.575,54.16,186.838,55.642,172.655,58.984z"/>
					<path fill="#C9C9C8" d="M251.868,40.729l-53.793,12.465c7.054-1.49,7.854-1.423,24.649-5.714
						C218.44,48.686,228.999,46.018,251.868,40.729z"/>
					<path fill="#C9C9C8" d="M282.476,34.192c13.828-2.831,29.722-5.91,35.983-6.954c3.127-0.546,3.836-0.638,0.666,0.001
						c-1.586,0.312-4.144,0.814-7.85,1.542c-3.708,0.719-8.547,1.76-14.729,3.022c23.557-4.833,40.463-7.741,51-9.581
						c5.267-0.957,8.955-1.534,11.104-1.89c2.146-0.36,2.752-0.485,1.87-0.382c-0.882,0.103-3.251,0.433-7.056,0.985
						c-3.791,0.629-9.01,1.496-15.604,2.59C324.679,25.739,306.05,29.234,282.476,34.192z"/>
					<path fill="#C9C9C8" d="M529.969,7.987c0,0,0.589-0.02,1.62,0.005c1.029,0.018,2.503,0.042,4.27,0.072
						c3.533,0.06,8.244,0.14,12.955,0.219c4.711,0.104,9.422,0.105,12.953,0.273c3.529,0.151,5.883,0.252,5.883,0.252
						s8.155,0.245,16.313,0.489c2.039,0.064,4.078,0.128,5.985,0.189c1.91,0.107,3.691,0.208,5.223,0.293
						c3.059,0.172,5.091,0.286,5.091,0.286c-8.142-0.618-26.284-1.267-42.104-1.836C542.323,8.026,528.819,7.819,529.969,7.987z"/>
					<path fill="#C9C9C8" d="M-52.089,72.983c2.313,0.194,4.629,0.388,6.8,0.57c2.17,0.173,4.2,0.277,5.938,0.396
						c3.479,0.221,5.794,0.369,5.794,0.369c-4.755-0.368-10.583-0.716-16.664-1.336"/>
					<path fill="#C9C9C8" d="M163.971,61.642c0,0,1.396-0.306,3.837-0.841c2.442-0.534,5.935-1.29,10.108-2.258
						c4.176-0.956,9.051-2.072,14.271-3.267c5.215-1.22,10.776-2.522,16.342-3.824c11.125-2.61,22.249-5.221,30.593-7.179
						c8.352-1.931,13.917-3.219,13.917-3.219s-6.64,1.531-16.593,3.827c-9.949,2.325-23.214,5.424-36.479,8.524
						c-6.641,1.527-13.275,3.054-19.5,4.486c-6.224,1.439-12.047,2.699-17.039,3.785c-4.99,1.096-9.149,2-12.076,2.576
						c-2.92,0.597-4.588,0.938-4.588,0.938s4.308-0.859,8.611-1.718C159.677,62.557,163.971,61.642,163.971,61.642z"/>
					<path fill="#C9C9C8" d="M19.475,77.359c-4.085,0.031-8.72-0.13-13.579-0.224c-2.43-0.054-4.915-0.11-7.415-0.166
						c-1.25-0.028-2.503-0.056-3.755-0.084c-1.251-0.052-2.5-0.104-3.741-0.156c-4.972-0.207-9.834-0.409-14.258-0.592
						c-4.423-0.186-8.396-0.484-11.613-0.651c-6.425-0.369-9.771-0.525-7.401-0.284c1.185,0.121,3.799,0.34,8.175,0.682
						c2.188,0.167,4.814,0.369,7.926,0.607c3.112,0.205,6.708,0.378,10.828,0.607c11.697,0.419,8.117,0.121,7.76-0.03
						c-0.179-0.092,0.445-0.076,4.188-0.045c1.871,0.027,4.521,0.065,8.237,0.119c1.858,0.035,3.985,0.076,6.414,0.122
						C13.671,77.32,16.403,77.373,19.475,77.359z"/>
					<path fill="#C9C9C8" d="M-51.698,75.273c2.896,0.212,3.7,0.236,0.607-0.088"/>
				</g>
				<g>
					<path fill="#C9C9C8" d="M2142.428,196.421l6.871-0.686c0,0-3.564,0.292-8.91,0.731c-5.35,0.404-12.48,0.942-19.611,1.48
						c-14.264,1.071-28.523,2.142-28.523,2.142L2142.428,196.421z"/>
					<path fill="#C9C9C8" d="M1780.173,210.509c4.275,0.16,9.535,0.204,15.593,0.223c6.06,0.005,12.913,0.011,20.379,0.018
						c3.733-0.014,7.619-0.027,11.634-0.042c4.016-0.064,8.159-0.131,12.409-0.199c8.5-0.146,17.424-0.301,26.586-0.459
						c36.642-0.927,77.075-2.346,109.371-3.755l10.581-0.314c0,0,7.271-0.472,14.544-0.944c7.269-0.529,14.537-1.059,14.537-1.059
						c-4.901,0.265-9.894,0.536-14.961,0.81c-5.069,0.237-10.212,0.478-15.413,0.721c-10.402,0.481-21.033,0.973-31.755,1.468
						c-21.454,0.813-43.274,1.729-64.379,2.235c-21.101,0.695-41.481,0.902-60.035,1.229c-9.276,0.097-18.101,0.082-26.327,0.115
						c-4.113,0.007-8.08,0.015-11.879,0.021c-1.9,0-3.758,0.001-5.573,0.001C1783.67,210.556,1781.899,210.532,1780.173,210.509z"/>
					<path fill="#C9C9C8" d="M1587.153,199.754c11.896,1.258-41.744-3.202,44.922,3.789c-4.352-0.396-5.647-0.515-8.094-0.738
						C1616.188,202.16,1605.413,201.267,1587.153,199.754z"/>
					<path fill="#C9C9C8" d="M1623.981,202.805C1662.036,205.922,1599.09,200.52,1623.981,202.805L1623.981,202.805z"/>
					<path fill="#C9C9C8" d="M1448.477,185.87c0,0,12.488,1.449,24.977,2.898c3.123,0.362,6.244,0.725,9.172,1.064
						c2.931,0.329,5.67,0.553,8.019,0.787c4.69,0.446,7.823,0.744,7.823,0.744c-2.629-0.284-7.383-0.798-12.771-1.381
						c-5.393-0.604-11.401-1.412-16.576-2.043c-10.347-1.297-17.301-2.179-9-1.234
						C1408.811,180.632,1419.362,182.073,1448.477,185.87z"/>
					<path fill="#C9C9C8" d="M1401.131,180.184c0,0,6.453,0.913,12.905,1.826c3.229,0.441,6.444,0.951,8.879,1.201
						c2.429,0.284,4.047,0.473,4.047,0.473C1422.403,183.066,1415.567,182.14,1401.131,180.184z"/>
					<path fill="#C9C9C8" d="M1481.79,190.098l-54.828-6.414c7.14,0.98,7.873,1.302,25.127,2.961
						C1447.649,186.32,1458.485,187.427,1481.79,190.098z"/>
					<path fill="#C9C9C8" d="M1512.903,193.361c28.062,2.964,64.371,6.694,14.145,1.917c11.963,1.167,22.206,2.23,30.802,2.987
						c8.604,0.676,15.543,1.222,20.874,1.641c10.664,0.82,14.896,1.1,13.135,0.892
						C1588.338,200.298,1560.797,198.345,1512.903,193.361z"/>
					<path fill="#C9C9C8" d="M1761.603,211.059c0,0,9.437,0.148,18.872,0.297c4.718,0.1,9.436,0.092,12.975,0.1
						s5.898,0.013,5.898,0.013s8.17-0.088,16.341-0.175c4.085-0.044,8.17-0.089,11.233-0.123c3.063-0.07,5.104-0.117,5.104-0.117
						c-4.083,0.124-10.671,0.133-18.221,0.149c-7.547,0.011-16.058,0.022-23.98,0.034
						C1773.975,211.15,1760.454,210.911,1761.603,211.059z"/>
					<path fill="#C9C9C8" d="M1142.008,123.068c-1.53-0.364,2.511,0.911,7.37,2.429c4.861,1.512,10.563,3.182,12.307,3.78
						c0,0,8.965,2.452,17.936,4.904c4.484,1.21,8.958,2.488,12.338,3.336c3.379,0.857,5.631,1.428,5.631,1.428
						c-2.311-0.609-4.871-1.287-7.602-2.007c-2.713-0.77-5.59-1.584-8.533-2.418c-5.883-1.669-12.033-3.414-17.684-5.018
						C1152.462,126.326,1143.192,123.529,1142.008,123.068z"/>
					<path fill="#C9C9C8" d="M1161.683,129.276c0,0-3.347-0.915-8.366-2.288c-5.007-1.418-11.684-3.31-18.361-5.202
						c-13.35-3.799-26.699-7.598-26.699-7.598c23.824,6.911,37.933,11.001,45.717,13.152
						C1161.77,129.462,1163.213,129.789,1161.683,129.276z"/>
					<path fill="#C9C9C8" d="M1392.063,179.664c0,0,5.66,0.79,14.148,1.974c4.244,0.591,9.195,1.281,14.501,2.02
						c5.321,0.612,10.999,1.265,16.675,1.917c22.703,2.61,45.406,5.221,45.406,5.221s-27.063-3.136-54.125-6.272
						c-3.381-0.414-6.772-0.736-10.09-1.218c-3.319-0.466-6.588-0.925-9.748-1.369c-6.324-0.888-12.229-1.717-17.285-2.427
						c-10.119-1.421-16.865-2.368-16.865-2.368L1392.063,179.664z"/>
					<path fill="#C9C9C8" d="M937.307,66.464l30.656,7.394c0,0-13.646-3.315-27.289-6.63c-6.826-1.637-13.633-3.36-18.771-4.512
						c-5.139-1.152-8.563-1.921-8.563-1.921s6.004,1.368,12.006,2.737C931.327,64.997,937.307,66.464,937.307,66.464z"/>
					<path fill="#C9C9C8" d="M1017.112,88.14c-2.063-0.598-5.084-1.473-11.328-3.281c-3.131-0.878-7.064-1.983-12.098-3.395
						c-2.518-0.697-5.309-1.469-8.407-2.327c-3.101-0.851-6.504-1.813-10.28-2.756c0,0,1.317,0.361,3.293,0.902
						c1.973,0.571,4.599,1.332,7.224,2.092c5.249,1.529,10.497,3.057,10.497,3.057C1002.45,84.175,1009.706,86.137,1017.112,88.14z"
						/>
					<path fill="#C9C9C8" d="M996.747,82.646l-0.737-0.212c-5.72-1.548-11.004-2.979-15.819-4.282
						c-4.824-1.271-9.199-2.346-13.058-3.334c-7.724-1.958-13.431-3.405-16.851-4.272c2.938,0.746,7.896,2.005,15.465,3.925
						c3.778,0.961,8.213,2.088,13.369,3.399C984.249,79.259,990.102,80.845,996.747,82.646z"/>
					<path fill="#C9C9C8" d="M1022.442,89.582c-1.924-0.521-3.402-0.921-5.33-1.442
						C1019.174,88.741,1020.356,89.073,1022.442,89.582z"/>
					<path fill="#C9C9C8" d="M1248.931,152.611c-3.983-0.898-8.508-1.918-13.249-2.987c-2.369-0.541-4.792-1.093-7.23-1.649
						c-2.424-0.611-4.858-1.226-7.271-1.834c-9.649-2.418-18.881-4.731-25.122-6.295c-12.482-3.116-13.061-3.074,18.835,5.366
						c11.36,2.79,7.92,1.77,7.603,1.549c-0.16-0.11,0.461-0.021,4.102,0.844c1.813,0.457,4.404,1.014,8.039,1.813
						C1238.261,150.229,1242.934,151.272,1248.931,152.611z"/>
					<path fill="#C9C9C8" d="M1048.435,97.44c0,0,14.19,4.069,28.382,8.138c14.169,4.145,28.338,8.29,28.338,8.29
						c-0.999-0.408-11.264-3.563,4.382,0.861c0,0-15.265-4.36-30.528-8.721c-7.627-2.202-15.278-4.304-21.015-5.907
						C1052.259,98.505,1048.435,97.44,1048.435,97.44z"/>
					<path fill="#C9C9C8" d="M1020.635,89.787c0,0,6.977,1.817,13.912,3.786c6.943,1.934,13.889,3.868,13.889,3.868l-21.018-5.997
						L1020.635,89.787z"/>
					<path fill="#C9C9C8" d="M1155.909,130.245c-3.392-0.983-3.231-0.971-3.445-1.063c-1.773-0.491-3.275-0.906-4.323-1.196
						c-1.046-0.292-1.638-0.453-1.595-0.432s0.724,0.226,2.221,0.665C1150.26,128.667,1152.585,129.317,1155.909,130.245z"/>
					<path fill="#C9C9C8" d="M1110.948,117.015c7.974,2.245,14.647,4.005,40.502,11.522c22.508,6.404-0.129,0.178,1.014,0.644
						c15.631,4.234,54.777,14.937,5.76,1.065l-7.702-2.089c-22.013-6.442-47.14-13.899-65.784-19.498
						c-9.32-2.807-17.035-5.11-21.941-6.546c-4.897-1.453-6.979-2.09-5.041-1.555
						C1070.495,104.533,1081.747,108.135,1110.948,117.015z"/>
				</g>
				<g>
					<path fill="#C9C9C8" d="M3382.758,27.453c0,0,1.713-0.21,3.426-0.421c1.715-0.189,3.432-0.378,3.432-0.378
						s-0.891,0.081-2.449,0.223c-1.555,0.161-3.775,0.392-6.441,0.669c-5.334,0.561-12.443,1.309-19.561,2.057
						c-14.223,1.496-28.441,2.992-28.441,2.992L3382.758,27.453z"/>
					<path fill="#C9C9C8" d="M3023.699,76.644c4.219-0.699,9.396-1.603,15.357-2.671c2.979-0.54,6.15-1.115,9.502-1.722
						c3.348-0.619,6.883-1.174,10.561-1.812c7.354-1.263,15.313-2.629,23.688-4.067c8.377-1.425,17.15-3.048,26.209-4.426
						c9.047-1.44,18.328-2.917,27.66-4.403c4.668-0.742,9.348-1.486,14.016-2.229c4.668-0.744,9.348-1.363,13.98-2.042
						c9.271-1.319,18.412-2.62,27.23-3.875c8.82-1.249,17.32-2.464,25.352-3.398l10.52-1.168l28.836-4.233
						c-38.961,4.872-83.688,10.91-125.371,17.597c-10.422,1.65-20.666,3.272-30.596,4.844c-9.904,1.712-19.494,3.37-28.635,4.95
						c-4.57,0.787-9.027,1.553-13.357,2.298c-4.328,0.747-8.533,1.44-12.568,2.22C3037.99,74.001,3030.487,75.389,3023.699,76.644z"
						/>
					<path fill="#C9C9C8" d="M2833.879,113.502c5.914-0.896-4.383,0.968-5.459,1.163c-1.09,0.127,7.125-1.021,49.764-9.422
						c-4.291,0.816-5.568,1.06-7.979,1.519c-3.828,0.787-8.412,1.613-14.277,2.707
						C2850.049,110.532,2842.905,111.94,2833.879,113.502z"/>
					<path fill="#C9C9C8" d="M2870.201,106.761C2907.631,99.298,2845.651,111.391,2870.201,106.761L2870.201,106.761z"/>
					<path fill="#C9C9C8" d="M2696.264,135.61c0,0,12.443-1.813,24.863-3.777c12.424-1.935,24.85-3.871,24.85-3.871
						c-5.236,0.757-18.932,2.736-29.252,4.228c-10.314,1.528-17.271,2.431-9.006,1.2
						C2656.588,140.873,2667.156,139.519,2696.264,135.61z"/>
					<path fill="#C9C9C8" d="M2649.108,142.769l25.814-3.672C2670.358,139.692,2663.514,140.58,2649.108,142.769z"/>
					<path fill="#C9C9C8" d="M2729.516,130.895c0,0-3.41,0.526-8.525,1.316c-5.115,0.786-11.932,1.862-18.762,2.851
						c-13.654,2.018-27.311,4.035-27.311,4.035c7.148-0.911,7.939-0.791,25.037-3.677
						C2695.58,136.248,2706.342,134.567,2729.516,130.895z"/>
					<path fill="#C9C9C8" d="M2760.451,126.239c6.973-1.071,14.457-2.22,20.979-3.222c6.521-1.035,12.082-1.917,15.215-2.414
						c6.271-0.978,2.854-0.279-22.027,3.909c11.867-1.917,22.018-3.664,30.523-5.084c8.514-1.424,15.354-2.714,20.617-3.646
						c10.521-1.903,14.688-2.703,12.936-2.458C2835.17,113.761,2808.014,118.708,2760.451,126.239z"/>
					<path fill="#C9C9C8" d="M3005.602,80.784l37.111-6.734c0,0,8.006-1.607,16.051-3.001c8.035-1.441,16.07-2.883,16.07-2.883
						C3058.717,70.774,3003.307,81.021,3005.602,80.784z"/>
					<path fill="#C9C9C8" d="M2385.184,173.333c-3.111,0.476,16.896-1.354,20.578-1.542c0,0,9.242-1.021,18.482-2.042
						c9.234-1.057,18.477-2.114,18.477-2.114C2423.737,169.682,2387.725,173.289,2385.184,173.333z"/>
					<path fill="#C9C9C8" d="M2405.762,171.792c0,0-13.797,1.503-27.596,3.006c-13.809,1.44-27.609,2.881-27.609,2.881
						c24.691-2.381,39.291-3.985,47.324-4.861C2405.912,171.933,2407.373,171.708,2405.762,171.792z"/>
					<path fill="#C9C9C8" d="M2640.248,144.786c0,0,5.652-0.812,14.141-2.03c8.482-1.213,19.795-2.827,31.094-4.547
						c22.611-3.326,45.184-6.91,45.184-6.91s-6.729,1.047-16.824,2.617c-10.105,1.513-23.576,3.529-37.049,5.545
						c-13.48,1.934-26.973,3.868-37.082,5.318c-5.063,0.708-9.271,1.298-12.229,1.711c-2.951,0.404-4.641,0.635-4.641,0.635
						s4.354-0.575,8.707-1.149C2635.899,145.381,2640.248,144.786,2640.248,144.786z"/>
					<path fill="#C9C9C8" d="M2173.727,192.309c0,0,7.848-0.683,15.697-1.365c7.846-0.725,15.689-1.45,15.689-1.45
						s-3.494,0.317-8.732,0.792c-5.24,0.488-12.229,1.105-19.221,1.68c-13.982,1.18-27.965,2.359-27.965,2.359L2173.727,192.309z"/>
					<path fill="#C9C9C8" d="M2256.176,186.374c-2.143,0.148-5.279,0.364-11.764,0.812c-6.479,0.494-16.307,1.243-31.826,2.425
						l21.814-1.344C2241.051,187.689,2248.535,187.038,2256.176,186.374z"/>
					<path fill="#C9C9C8" d="M2235.168,188.213l-0.766,0.054c-23.617,1.906-40.051,3.232-47.084,3.8
						C2193.36,191.581,2207.729,190.423,2235.168,188.213z"/>
					<path fill="#C9C9C8" d="M2261.676,185.896c-1.984,0.172-3.514,0.305-5.5,0.478
						C2258.319,186.229,2259.543,186.136,2261.676,185.896z"/>
					<path fill="#C9C9C8" d="M2495.627,162.544c-8.109,0.985-18.414,2.238-28.291,3.438c-9.879,1.167-19.328,2.283-25.717,3.037
						c-12.773,1.54-13.291,1.753,19.512-1.659C2484.34,164.429,2446.83,168.51,2495.627,162.544z"/>
					<path fill="#C9C9C8" d="M2288.764,184.023c0,0,14.701-1.344,29.402-2.688c7.354-0.656,14.699-1.368,20.209-1.908
						c5.51-0.535,9.186-0.891,9.186-0.891c-1.08-0.007-11.781,0.884,4.387-0.832c0,0-15.793,1.614-31.584,3.228
						C2304.563,182.478,2288.764,184.023,2288.764,184.023z"/>
					<polygon fill="#C9C9C8" points="2260.055,186.709 2288.764,184.023 2266.99,185.932 					"/>
					<path fill="#C9C9C8" d="M2400.758,174.81c-3.514,0.328-3.361,0.282-3.596,0.274
						C2389.844,175.899,2387.026,176.229,2400.758,174.81z"/>
					<path fill="#C9C9C8" d="M2354.11,179.301c8.238-0.874,15.105-1.603,41.873-4.444c23.281-2.295-0.055,0.213,1.184,0.228
						c16.09-1.767,56.41-6.287,5.744-1.121l-7.932,0.885c-22.811,2.363-48.922,4.679-68.311,6.447
						c-19.404,1.645-32.092,2.676-28.086,2.273C2311.903,182.703,2323.696,181.961,2354.11,179.301z"/>
				</g>
				<g>
					<path fill="#C9C9C8" d="M4078.44,15.931c5.924,0.854-4.479-0.341-5.563-0.466c0.531,0.063,1.395,0.163,8.563,1.004
						c1.832,0.216,4.008,0.474,6.58,0.778c2.568,0.332,5.533,0.715,8.943,1.155c3.41,0.441,7.268,0.94,11.617,1.503
						c4.352,0.563,9.188,1.267,14.574,2.008c-4.324-0.648-5.613-0.842-8.041-1.206c-3.873-0.567-8.496-1.16-14.42-1.944
						C4094.768,17.987,4087.547,16.998,4078.44,15.931z"/>
					<path fill="#C9C9C8" d="M4115.111,20.709C4152.949,26.019,4090.373,17,4115.111,20.709L4115.111,20.709z"/>
					<path fill="#C9C9C8" d="M3939.405,4.963c0,0,3.146,0.081,7.865,0.203c4.715,0.198,11.004,0.462,17.291,0.726
						c6.291,0.216,12.568,0.658,17.283,0.919c4.711,0.278,7.854,0.463,7.854,0.463c-5.281-0.388-19.1-1.452-29.529-1.89
						c-10.426-0.534-17.441-0.902-9.08-0.569c-1.617-0.071-3.17-0.14-4.666-0.206c-1.496-0.039-2.934-0.076-4.311-0.111
						c-2.756-0.07-5.279-0.134-7.582-0.192c-4.604-0.11-8.313-0.198-11.223-0.268c-2.908-0.052-5.018-0.021-6.396-0.024
						c-0.691,0.008-1.205,0.013-1.549,0.017c-0.342,0.007-0.52,0.017-0.533,0.028c-0.029,0.022,0.57,0.052,1.725,0.088
						c1.148,0.03,2.852,0.073,5.014,0.128C3925.887,4.443,3932.061,4.681,3939.405,4.963z"/>
					<path fill="#C9C9C8" d="M3891.68,4.783c0,0,6.518-0.097,13.039-0.02c6.521,0.038,13.043,0.075,13.043,0.075
						c-2.301-0.057-5.178-0.108-9.301-0.139C3904.338,4.693,3898.965,4.597,3891.68,4.783z"/>
					<path fill="#C9C9C8" d="M3972.973,6.648c0,0-0.861-0.052-2.369-0.142c-1.51-0.065-3.666-0.159-6.254-0.271
						c-5.174-0.217-12.074-0.506-18.975-0.795c-6.902-0.171-13.809-0.343-18.982-0.472c-2.588-0.067-4.746-0.123-6.256-0.116
						c-1.512-0.009-2.375-0.014-2.375-0.014c1.803,0.057,3.203,0.101,4.559,0.144c1.355,0.06,2.668,0.119,4.297,0.191
						c3.258,0.113,7.781,0.195,16.457,0.231c-2.229,0.05-0.617,0.069,4.482,0.214C3952.655,5.834,3961.246,6.087,3972.973,6.648z"/>
					<path fill="#C9C9C8" d="M4004.196,8.912c14.074,1.103,30.17,2.828,36.486,3.469c3.152,0.362,3.857,0.491,0.639,0.185
						c-3.223-0.283-10.375-0.91-22.941-2.012c23.943,2.164,41.002,4.011,51.631,5.21c10.627,1.221,14.852,1.661,13.098,1.386
						c-1.756-0.251-9.479-1.314-22.756-2.845C4047.057,12.829,4028.219,10.727,4004.196,8.912z"/>
					<path fill="#C9C9C8" d="M3625.977,9.626c-3.135,0.288,16.955-0.331,20.639-0.295c0,0,2.322-0.112,5.811-0.28
						c3.48-0.151,8.127-0.431,12.771-0.567c9.293-0.328,18.588-0.657,18.588-0.657C3664.688,8.141,3628.518,9.772,3625.977,9.626z"
						/>
					<path fill="#C9C9C8" d="M3646.615,9.331l-55.465,2.668C3640.727,9.878,3649.842,9.357,3646.615,9.331z"/>
					<path fill="#C9C9C8" d="M3882.633,5.629c0,0,5.713-0.068,14.281-0.17c4.285,0.013,9.283,0.028,14.639,0.044
						c5.355,0.024,11.068,0.005,16.779,0.181c5.713,0.131,11.424,0.261,16.779,0.384c5.354,0.172,10.348,0.41,14.629,0.575
						c4.283,0.175,7.852,0.321,10.35,0.423c2.496,0.141,3.922,0.222,3.922,0.222s-1.699-0.093-4.676-0.257
						c-2.979-0.125-7.23-0.302-12.336-0.516c-5.104-0.21-11.059-0.5-17.443-0.605c-6.385-0.13-13.188-0.363-20.002-0.425
						c-6.811-0.032-13.621-0.064-20.006-0.094c-6.383,0.011-12.344,0.12-17.451,0.163c-10.217,0.113-17.023,0.188-17.023,0.188
						L3882.633,5.629z"/>
					<polygon fill="#C9C9C8" points="3414.01,23.013 3445.401,20.032 3389.489,25.246 					"/>
					<path fill="#C9C9C8" d="M3496.518,17.535c-4.291,0.208-12.57,0.546-43.645,2.619l21.838-1.099
						C3481.367,18.591,3488.865,18.068,3496.518,17.535z"/>
					<path fill="#C9C9C8" d="M3475.479,19.014l-0.768,0.041c-5.91,0.41-11.371,0.79-16.352,1.135
						c-2.484,0.173-4.854,0.337-7.102,0.493c-2.24,0.186-4.354,0.361-6.338,0.525c-7.938,0.661-13.807,1.149-17.318,1.441
						C3433.647,22.186,3448.002,20.811,3475.479,19.014z"/>
					<path fill="#C9C9C8" d="M3502.028,17.151c-1.984,0.139-3.52,0.245-5.51,0.384C3498.662,17.428,3499.889,17.355,3502.028,17.151
						z"/>
					<path fill="#C9C9C8" d="M3736.936,7.073c-32.65,1.239-100.701,3.578-34.775,1.924C3725.53,7.99,3687.811,8.937,3736.936,7.073z
						"/>
					<path fill="#C9C9C8" d="M3529.153,15.932l58.963-3.236c-1.078-0.029-11.809,0.338,4.424-0.595c0,0-3.965,0.168-9.908,0.555
						c-5.938,0.364-13.865,0.85-21.787,1.335C3544.998,14.961,3529.153,15.932,3529.153,15.932z"/>
					<path fill="#C9C9C8" d="M3500.389,17.938c0,0,7.188-0.537,14.377-1.074c3.594-0.289,7.191-0.488,9.891-0.656
						c2.697-0.165,4.496-0.275,4.496-0.275s-5.455,0.301-10.912,0.603c-5.451,0.373-10.898,0.745-10.898,0.745L3500.389,17.938z"/>
					<path fill="#C9C9C8" d="M3641.43,12.041c-3.525,0.115-3.373,0.078-3.604,0.057C3630.475,12.469,3627.643,12.627,3641.43,12.041
						z"/>
					<path fill="#C9C9C8" d="M3594.619,13.813c8.27-0.419,15.152-0.891,42.043-2.014c23.367-0.884-0.068,0.209,1.162,0.299
						c8.08-0.384,22.244-1.157,28.037-1.386c2.896-0.133,3.695-0.205,0.592-0.16c-3.104,0.011-10.109,0.271-22.828,0.774
						l-7.965,0.404c-45.826,1.543-104.711,4.69-96.684,4.104c6.672-0.183,12.959-0.373,21.393-0.684
						c4.213-0.166,8.965-0.353,14.564-0.573C3580.543,14.373,3586.99,14.006,3594.619,13.813z"/>
				</g>
			</g>
		</g>
	</g>
	<g>
		<g>
			<g>
				<g>
					<g>
						<g>
							<path fill="#B4AE4F" d="M3955.862,9.012c-3.063-0.129-3.965,0.031-4.416,0.111c0,0,8.602,0.399,17.197,0.799
								c8.592,0.532,17.184,1.063,17.184,1.063c-1.061-0.292-10.938-1.202-4.316-0.913c-2.939-0.421-11.938-0.834-13.252-0.546
								l2.508-0.216c-7.955,0.049-13.318-1.052-8.145-1.071l-0.67-0.026c0,0-5.51,0.163-11.02,0.326
								c-2.754,0.075-5.506,0.162-7.572,0.278c-2.063,0.099-3.438,0.164-3.438,0.164C3947.979,9.3,3946.147,8.583,3955.862,9.012z"
								/>
							<path fill="#B4AE4F" d="M3248.989,43.081c4.424-0.641,4.951-0.79,4.441-0.809
								C3251.85,42.537,3250.344,42.801,3248.989,43.081z"/>
							<path fill="#B4AE4F" d="M3934.781,9.228l-6.896,0.328C3930.649,9.493,3933.067,9.374,3934.781,9.228z"/>
							<path fill="#B4AE4F" d="M3982.901,3.458c0.014-0.027,0.086-0.047-0.088-0.096l-3.123,0.07
								c0.047,0.003,0.066,0.004,0.084,0.005C3980.914,3.444,3981.946,3.451,3982.901,3.458z"/>
							<path fill="#B4AE4F" d="M3778.426,11.753c-0.736,0.029-1.377,0.055-2.252,0.089
								C3776.992,11.81,3777.737,11.78,3778.426,11.753z"/>
							<path fill="#B4AE4F" d="M4076.559,9.195c0,0-3.836-0.334-7.672-0.669c-3.834-0.354-7.68-0.619-7.68-0.619
								c2.07-0.017-5.326-0.746-2.068-0.674c-1.176-0.089-6.654-0.586-5.18-0.302l3.125,0.322c-8.146-0.169-3.283,0.599-16.723-0.28
								c8.27,1.272,11.938,1.317,16.383,1.468c1.49,0.125,2.734,0.23,4.006,0.336c0,0,0.801,0.025,2.006,0.063
								c1.203,0.037,2.813,0.085,4.41,0.163c3.207,0.14,6.414,0.28,6.414,0.28L4076.559,9.195z"/>
							<path fill="#B4AE4F" d="M3461.324,18.265l0.164-0.066C3461.342,18.229,3461.305,18.249,3461.324,18.265z"/>
							<path fill="#B4AE4F" d="M3462.141,17.926l-0.652,0.272C3462.297,18.027,3465.449,17.69,3462.141,17.926z"/>
							<path fill="#B4AE4F" d="M3937.321,8.848c-0.217,0.124-1.104,0.257-2.539,0.38l5.143-0.248
								C3939.196,8.943,3938.231,8.894,3937.321,8.848z"/>
							<path fill="#B4AE4F" d="M3949.047,7.706l12.904,0.506l4.775-0.14C3961.778,7.978,3956.01,7.801,3949.047,7.706z"/>
							<path fill="#B4AE4F" d="M3798.824,11.76c-26.736,0.57,6.557-0.979-5.729-0.957c-7.424,0.268-10.041,0.719-14.672,0.95
								c21.207-0.807-2.846,1.314,18.529,0.69c-3.021,0.7-15.41,1.105-22.668,1.065c-8.215-0.492,7.172-0.665,9.021-1.376
								c-8.576,0.31-7.066,0.399-10.705,0.863c-13.475,0.153-27.85,1.481-35.926,0.724c-9.746,0.375-9.096,0.688-14.693,1.175
								c-1.096,0.754,14.521,0.047,18.145,0.538c-0.746-0.044-2.219-0.133-1.793-0.246l8.432-0.042
								c-8.004-0.069,1.1-0.754,5.375-0.91c3.105-0.087,9.299-0.263,8.449-0.042l-4.703,0.266c6.066,0.089,13.361-0.842,19.77-0.595
								c0.338,0.156-2.078,0.289-2.449,0.399c7.172-0.64,14.09-0.848,24.709-1.339c0,0-1.537,0.192-3.074,0.385
								c-1.537,0.214-3.074,0.427-3.074,0.427c8.486-0.949,27.734-0.806,41.08-0.503c-1.49-0.111-4.15-0.177-2.555-0.329
								c7.834-0.232,13.754,0.22,10.129,0.628c7.645-0.657,29.154,0.285,39.582-0.574c0,0,2.996-0.252,7.49-0.631
								c4.494-0.372,10.498-0.922,16.461-1.278c5.98-0.401,11.963-0.802,16.449-1.103c2.244-0.168,4.115-0.216,5.426-0.292
								c1.313-0.063,2.061-0.099,2.061-0.099c-1.793,0.041-3.707,0.06-5.693,0.034c-4.332-0.672-6.678-0.644,0.953-1.129
								c-7.496,0.223-4.643,0.789-15.877,0.697c4.402-0.276,5.529-0.994-5.25-1.175c-3.367,0.025-6.6,0.142-9.723,0.287
								c-3.123,0.152-6.133,0.3-9.066,0.443c-5.867,0.317-11.422,0.673-16.918,1.038c-10.994,0.729-21.762,1.492-34.354,2.048
								c-0.938-0.482-20.717-0.196-30.342-0.238c3.66-0.553,10.807-0.756,18.213-0.919c-4.652,0.018-12.658,0.048-18.6,0.07
								L3798.824,11.76z"/>
							<path fill="#B4AE4F" d="M3861.481,9.644c-0.67-0.039-1.379-0.058-2.086-0.076C3859.768,9.605,3860.401,9.632,3861.481,9.644z
								"/>
							<path fill="#B4AE4F" d="M3822.078,10.64c0.092-0.019,0.057-0.033,0.092-0.054c-0.781,0.019-1.557,0.037-2.348,0.055
								C3820.617,10.641,3821.52,10.641,3822.078,10.64z"/>
							<path fill="#B4AE4F" d="M3931.033,7.561c1.604-0.07,2.793-0.122,4.396-0.192c-0.986,0.008-2.234,0.019-3.426,0.029
								C3930.869,7.43,3930.328,7.481,3931.033,7.561z"/>
							<path fill="#B4AE4F" d="M3936.401,8.577l-0.857,0.176c0.688,0.037,1.168,0.062,1.781,0.095
								C3937.51,8.745,3937.309,8.648,3936.401,8.577z"/>
							<path fill="#B4AE4F" d="M3696.524,9.634l-2.563,0.198C3695.504,9.762,3696.172,9.692,3696.524,9.634z"/>
							<path fill="#B4AE4F" d="M3769.02,11.551c9.307-0.263,1.105-0.756,14.26-1.063l-3.857,0.045
								c4.723-0.245,11.227-0.504,17.955-0.574c6.729-0.047,13.688-0.096,19.297-0.135c-1.266,0.301,6.811,0.302,5.502,0.764
								c7.666-0.164,15.264-0.322,19.203-0.817c4.758,0.116,11.969-0.348,18.021-0.201c-2.555-0.254,8.598-0.989-6.109-0.544
								c1.189-0.046,0.445-0.103,1.619-0.15c-9.479-0.31-13.271,0.365-21.426,0.436c-4.881-0.232,7.963-0.495,3.365-0.568
								c-10.184,0.328-31.975-0.083-31.289,0.926c-7.408,0.127-8.438-0.089-10.654-0.257c-11.707,1.337-43.521,0.539-43.383,1.914
								c4.277-0.154,11.248-0.286,17.523-0.727L3769.02,11.551z"/>
							<path fill="#B4AE4F" d="M3915.43,7.31c-0.576-0.01-1.338-0.023-1.813-0.031C3914.147,7.288,3914.817,7.299,3915.43,7.31z"/>
							<path fill="#B4AE4F" d="M4032.129,17.994l-3.947,0.534c-10.996-0.985-18.482-1.533-25.623-2.142
								c-3.566-0.287-7.051-0.633-10.848-0.888c-3.797-0.248-7.902-0.515-12.715-0.829c-1.463-0.218,0.873-0.146,2.059-0.111
								c-3.383-0.205-7.186-0.434-11.143-0.673c-3.957-0.182-8.07-0.371-12.066-0.554c-3.996-0.164-7.879-0.322-11.377-0.465
								c-3.5-0.07-6.619-0.085-9.086-0.056c-4.313-0.131-15.625-0.745-11.34-0.887c-2.096,0.016-4.498,0.019-6.914-0.016
								c-0.313-0.166,1.041-0.176,2.488-0.177c1.449,0.01,2.992,0.057,3.059-0.077c-1.908-0.075-2.645-0.168-3.096-0.063
								c3.232-0.204-3.316-1.203,11.707-0.752c5.801,0.926-10.424-0.213-7.016,0.723c4.984,0.15,4.42-0.191,4.85-0.281
								c6.34,0.202,6.168,0.407,5.828,0.589c2.436-0.185,10.412,0.373,13.779,0.187c12.344,0.514-0.693,0.597,7.361,0.965
								l4.689-0.628c0,0,3.352,0.197,6.695,0.394c3.344,0.249,6.689,0.498,6.689,0.498c19.412,0.956-2.691-1.667,19.525-0.671
								c-2.939,0.209,5.895,1.66,16.188,2.66c-6.18-0.43-17.609-0.905-25.568-1.59c11.195,1.381-15.459-0.908-9.684,0.223
								c2.789-0.002,6.498,0.133,10.41,0.35c3.912,0.208,8.025,0.513,11.621,0.922l-2.363-0.11
								c7.646,0.721,13.533,0.237,24.082,1.509c5.252,0.47,4.25,0.615,3.309,0.726C4028.147,17.596,4032.137,17.807,4032.129,17.994
								z M4020.674,17.088c0,0-1.754-0.186-3.508-0.373c-1.754-0.161-3.512-0.322-3.512-0.322
								C4015.309,16.661,4017.936,16.865,4020.674,17.088z"/>
							<path fill="#B4AE4F" d="M4115.264,15.913l-5.51-0.638C4112.459,15.611,4114.07,15.813,4115.264,15.913z"/>
							<path fill="#B4AE4F" d="M4114.762,26.959l-1.732-0.036C4114.461,27.032,4114.91,27.03,4114.762,26.959z"/>
							<path fill="#B4AE4F" d="M4156.973,33.167c-0.057,0.005-0.113,0.013-0.227,0.012
								C4156.895,33.186,4156.898,33.17,4156.973,33.167z"/>
							<path fill="#B4AE4F" d="M4157.018,33.123c-0.002,0.017,0.023,0.037-0.045,0.044
								C4157.014,33.156,4157.09,33.15,4157.018,33.123z"/>
							<path fill="#B4AE4F" d="M4156.746,33.18c-0.432-0.008-1.047-0.049-2.051-0.123
								C4155.811,33.143,4156.389,33.179,4156.746,33.18z"/>
							<path fill="#B4AE4F" d="M3975.887,8.688c0.307,0.184,10.926,1.202,10.76,0.762c-3.154-0.246-6.338-0.495-9.529-0.744
								L3975.887,8.688z"/>
							<path fill="#B4AE4F" d="M4152.414,32.097c3.24,0.586,4.807,0.929,4.621,1.029c-0.451-0.253-6.896-1.161-10.482-1.705
								l-2.516-0.029c-5.941-1.122-5.068-1.195,0.047-0.693c-5.693-0.92-12.596-1.292-18.418-2.591
								c9.82,0.931,22.188,3.227,27.316,3.707c-20.43-2.714-20.357-4.138-46.289-7.279c-0.305-0.205,4.121,0.055-0.855-0.604
								c-11.58-1.396-3.117,0.302-6.781,0.204c4.467,0.48,7.729,0.908,10.504,1.354c2.777,0.463,5.076,0.956,7.625,1.532
								l-2.402-0.059c-0.338-0.194-5.916-0.995-7.539-1.332L4105.709,26c0.748-0.534-8.129-2.184-15.183-2.875
								c7.037,1.384,5.123,1.109,6.967,2.071c-4.98-0.313-7.746-0.846-10.66-1.39c-2.916-0.514-5.982-1.041-11.563-1.352
								c0.854-0.1,10.539,0.916,2.201-0.245c-6.914-0.861-6.051-0.265-10.705-0.669c5.289,0.111,3.982-0.437,9.729-0.369
								c12.297,1.441,4.971,0.545,17,1.896c0,0-2.525-0.444-5.051-0.887c-2.527-0.423-5.061-0.846-5.061-0.846
								c10.42,1.201,7.643,0.378,8.533,0.275c-17.729-2.774-13.521-0.858-24.943-2.396c-5.563-0.309,10.717,1.368,2.033,0.699
								c-10.697-1.356-2.479,0.042-14.523-1.062l2.039-0.021c-3.645-0.707-7.324-0.72-11.58-1.128
								c-2.346-0.174-1.064,0.421-1.605,0.804c-0.27,0.192-0.994,0.328-2.854,0.295c-1.861-0.013-4.855-0.186-9.666-0.632
								c0.955-0.056,1.307-0.116,1.313-0.176c0,0,4.805-0.642,9.607-1.284c4.813-0.583,9.623-1.167,9.623-1.167
								c-9.756-1.112-20.275-2.07-31.178-3.179c-5.449-0.542-11.006-0.976-16.605-1.492c-2.801-0.253-5.617-0.507-8.438-0.761
								c-2.826-0.22-5.656-0.44-8.49-0.661c-2.643-0.599,1.418-0.517,5.975-0.344c4.557,0.195,9.59,0.575,8.914,0.315l10.328,1.001
								c-0.604,0.316-21.682-1.62-12.385-0.231c9.143,0.625,15.777,1.109,22.287,1.726c6.516,0.607,12.918,1.088,21.607,1.593
								c-2.639-0.74-8.35-1.201-14.791-1.761c-3.223-0.273-6.627-0.558-9.928-0.883c-3.301-0.3-6.502-0.6-9.307-0.996
								c4.729,0.438,8.73,0.637,12.619,0.907c-5.277-0.595-10.76-1.008-16.416-1.545c-5.658-0.505-11.496-1.08-17.529-1.491
								l-2.73,0.034c4.064,0.316,7.504,0.554,10.016,0.782c2.508,0.244,4.092,0.397,4.453,0.432
								c-5.379-0.502-10.357-0.682-14.08-0.737c-3.725-0.049-6.189,0.07-6.563,0.361l1.912,0.145l-3.914-0.053
								c-2.525-0.194-5.049-0.391-7.555-0.587c-0.914-0.014-1.859-0.028-2.832-0.043l1.479-0.045
								c-2.453-0.158-4.891-0.316-7.318-0.473c-0.883-0.021-1.842-0.045-3.018-0.073c0.465,0.007,0.84-0.021,1.063-0.058
								c-0.789-0.054-1.561-0.106-2.34-0.16c-2.932,0.106-8.021-0.011-12.916,0.025c-4.891,0.028-9.568,0.039-11.672,0.109
								c-2.771,0.015-5.854,0-8.771-0.038c-2.918-0.024-5.676-0.003-7.801-0.05c3.941,0.031,9.17,0.032,7.611-0.233
								c-8.01-0.366-11.896-1.123-25.729-0.622l8.111,0.063c0,0-1.141,0.048-2.852,0.121c-1.709,0.083-3.986,0.145-6.271,0.289
								c-4.563,0.272-9.125,0.544-9.125,0.544c-6.389-0.337,9.107-0.563,11.641-0.885c-14.188,0.536-26-0.598-32.568,0.266
								c-0.936-0.481-2.482-1.284-11.795-1.166c6.709,0.506-5.586,0.4-0.068,0.954c-3.221,0.304-10.395-0.097-10.932,0.272
								l0.875-0.208c-15.914-0.653-21.102,0.598-27.898,1.048c-9.52,0.178-16.463,0.18-22.967,0.214
								c-6.504,0.106-12.57,0.188-20.332,0.409c-0.621-0.313-4.865-1.115-11.084-0.937c-2.896,0.509-16.93,1.039-18.35,1.64
								c11.139-0.021,9.092-0.686,15.756-0.973c5.561,0.466,0.516,0.576,8.1,0.756c-6.121-0.09-27.619,0.948-34.334,0.546
								l2.361-0.133c-10.693-0.092-12.781-1.446-30.578-0.186l-8.479,0.543c0.408-0.066,0.441-0.133,0.664-0.189
								c-13.904,0.446-10.129-0.319-25.465,0.783c1.18-0.085,0.434-0.118,1.633-0.204c-8.758,0.025-17.557,1.01-24.176,1.403
								c-4.057-0.314,0.949-0.503,3.43-0.943c-15.396,0.421-31.982,1.883-41.52,2.834c0,0-2.48,0.028-4.965,0.056
								c-1.242,0.014-2.482,0.028-3.414,0.038c-0.934,0.021-1.551,0.036-1.551,0.036c5.869-0.461,13.049-1.216,11.229-1.438
								c-5.449,0.322-4.379,0.458-12.104,0.734c1.307-0.396,4.527-0.793,8.145-1.316c-8,0.041-8.875,0.419-9.16,0.638
								c-0.283,0.231,0.033,0.377-5.568,0.225c-5.021,0.274-7.9,0.877-8.439,1.273l-9.102,0.029
								c-0.979,0.521-12.191,1.173-19.533,1.653c-0.881,0.25,5.939,0.166,8.721-0.17c-0.539,0.396-8.338,1.003-13.355,1.276
								c-1.896-0.871-32.9,1.978-27.021,0.498c-11.285,0.691-24.83,1.889-37.424,2.903c-12.596,1.034-24.227,2.008-31.646,2.754
								c-4.924,0.088-14.939,0.805-8.975-0.089c-4.537,0.33-8.521,0.682-12.227,1.042c-3.705,0.355-7.131,0.714-10.545,1.156
								c-6.834,0.835-13.65,1.637-22.658,2.318c-1.504,0.014,8.123-0.744,7.463-1.011c-11.727,1.453-21.439,1.525-39.66,3.436
								c3.066-0.295,3.938-0.576,4.354-0.716c0.34,0.131-7.441,1.01-12.141,1.593c-2.66,0.156,3.514-0.436,2.018-0.425
								c-4.41,0.34-8.688,0.695-12.865,1.064c-4.18,0.339-8.24,0.869-12.244,1.309c-8,0.926-15.729,1.886-23.453,2.858
								c-7.723,0.968-15.438,1.935-23.408,2.934c-3.984,0.477-8.035,0.96-12.182,1.456c-4.146,0.482-8.395,0.934-12.752,1.515
								c4.982-0.657,8.414-1.149,10.598-1.586c2.186-0.432,3.127-0.763,3.164-0.9c0,0-2.445,0.263-4.895,0.525
								c-1.225,0.131-2.447,0.263-3.363,0.361c-0.918,0.106-1.525,0.177-1.525,0.177c-3.729,0.8-11.063,1.73-17.168,2.749
								c-0.771-0.024-3.766,0.224-0.742-0.313c-19.381,1.803-29.992,5-53.676,7.67l28.463-4.93l-7.146,0.45l12.52-2.188
								c-7.566,0.602-14.004,2.252-14.975,1.881c1.57-0.338,5.402-0.781,5.498-1.06c-7.252,0.728-7.775,1.163-13.188,1.946
								c14.174-2.805,42.23-6.354,57.311-8.516c2.355-0.378-2.004,0.497-2.418,0.652c6.146-0.852,9.896-0.899,17.652-1.922
								c4.771-0.941-3.725,0.093-7.563,0.465c0.496-0.422,2.424-0.609,6.682-1.126c0.98,0.384,23.438-2.371,29.006-2.375
								c22.771-2.626-3.785-0.861,18.492-3.065l6.709-0.167c3.219-0.446,6.674-0.925,10.273-1.425
								c3.604-0.461,7.359-0.857,11.172-1.279c7.621-0.825,15.461-1.601,22.791-2.204l-3.09,0.298
								c-2.027,0.423,1.381,0.263,2.896,0.249c11.082-0.763,20.975-2.339,27.723-2.388c6.287-0.842,14.678-1.941,23.313-2.834
								c8.641-0.827,17.506-1.676,24.715-2.365c3.959,0.449-18.801,1.997-24.777,2.894l13.15-0.962
								c-8.123,0.602-11.316,1.116-16.15,1.889c11.533-0.704,15.273-1.623,26.189-2.605c-0.84,0.262,0.639,0.277,5.674-0.084
								l1.396-0.592c0.096,0.033,0.652,0.03,2.221-0.053l19.42-1.715c-4.141,0.092-4.375-0.318-9.396,0.042
								c1.814,0.154-2.443,0.521-7.467,0.879c4.383-0.64-4.928,0.089-4.836-0.182c10.078-0.722,22.455-1.69,29.064-2.306l2.17,0.293
								c4.809-0.293,9.748-0.688,14.297-1.052c2.275-0.175,4.455-0.343,6.471-0.499c2.021-0.116,3.875-0.21,5.506-0.269
								l-2.033,0.353c11.547-0.506,22.881-1.43,33.16-1.563c10.264-1.088,23.191-2.239,31.576-3.246
								c2.238-0.416,9.799-0.655,18.246-0.974c8.449-0.253,17.789-0.442,23.572-1.095c0.785,0.032-7.953,0.75-11.91,1.125
								c7.732-0.213,13.848-1.176,16.295-0.66c-17.35,0.474,0.953,0.451-6.854,0.931c8.107-0.329,16.672-0.775,20.641-1.15
								c-13.141,0.52,4.631-1.028-8.658-0.24c10.277-0.918,24.336-1.674,36.629-1.957c-0.111,0.268,1.4,0.332,5.986,0.262
								l3.674-0.527c5.758-0.156-11.086,0.888,0.482,0.571c2.973-0.28,6.693-0.485,10.691-0.657c2-0.082,4.066-0.173,6.146-0.228
								c2.076-0.041,4.16-0.081,6.188-0.121c8.129-0.165,15.418-0.379,18.01-1.045c9.088,0.268-17.262,0.884-3.564,1.153
								c-7.941,0.624-18.936,0.369-21.541,1.044c7.801-0.363,2.865,0.442,7.895,0.33l8.689-0.574l-1.932,0.021
								c14.582-0.908,37.711-1.169,56.342-1.697c15.771-0.953,26.627-2.213,45.578-2.2c-5.586,0.399,15.734,0.225,3.814,0.97
								c4.381,0.125,8.732,0.077,12.016-0.035c3.281-0.112,5.486-0.288,5.576-0.42c-7.717-0.032-2.723-0.064-9.209-0.145
								c4.375-0.354,14.48-0.415,18.641-0.238c-1.92-0.009-1.191,0.047-1.621,0.151c9.209,0.145,4.416-0.352,11.066-0.536
								c2.107,0.433,14.689,0.009,20.768,0.195l8.813-0.705c-4.846,0.457,8.443,0.089,9.832,0.466
								c6.313-0.39,11.646-0.789,21.291-0.597c-3.982,0.18,8.805,0.403,8.961,0.831c8.252,0.434,15.098,0.347,21.834,0.274
								c6.736-0.047,13.361,0.094,21.162,0.744c-0.49,0.077-3.658,0.209,0.908,0.53c3.611,0.011,9.895,0.483,13.746,0.683
								l-0.123,0.004c0.076,0,0.123,0,0.207,0.001c1.885,0.098,3.064,0.12,3.125,0.021c6.607,0.018,10.039-0.271,23.008,0.451
								c-0.914-0.543-11.855-1.3-16.611-1.384l-4.129,0.218c-3.861-0.983-11.699-0.624-14.67-1.055
								c3.916-0.189,11.475,0.136,19.732,0.542c4.135,0.175,8.438,0.496,12.547,0.752c4.111,0.26,8.035,0.487,11.402,0.624
								c-4.064-0.666-10.551-1.381-17.965-2.075c-7.42-0.623-15.775-1.13-23.561-1.597l6.838,0.731l-8.146-0.511l7.854,1.021
								c-7.705-0.633-14.391-0.777-21.359-1.133c8.172,0.374,11.313,1.195,6.703,0.872c-9.08-0.905-9.508-0.133-16.457-0.489
								c3.865,0.227,8.91,0.471,5.645,0.598c-6.842-0.651-11.201-0.797-15.4-0.974c-4.201-0.177-8.248-0.355-14.49-0.848
								c1.539,0.77-15.611-0.089-17.488,0.546l5.799,0.125l-12.291,0.371c-11.316-0.688,10.021-0.694-7.205-1.127
								c-15.865,0.038-15.453,0.889-27.924,1.047c4.1-0.513,13.998-1.001,24.063-1.063l-6.1-0.187
								c3.229-0.3,17.145-0.397,24.146-0.215c-11.537,0.44,5.393,0.223,10.627,0.708c0.979-0.458-6.438-0.457,2.313-0.745
								c-8.186-0.072-9.381-0.044-19.813-0.322c11.268,0.216,16.334-0.138,21.055-0.474c4.717-0.295,9.078-0.494,18.908-0.025
								c-9.074-0.051,3.146,0.764,4.221,1.021c4.271,0.053,12.916,0.413,16.477,0.443l-3.186-0.824
								c5.729,0.125,9.572,0.583,13.635,1.016c4.057,0.494,8.336,0.951,14.955,1.026c1.746-0.292-11.6-0.878-9.221-0.805
								c9.039,0.388,15.18,0.875,21.035,1.63c5.854,0.75,11.451,1.597,19.43,2.489c0.914-0.132,0.764-0.58,6.383-0.402
								c-1.787,0.237,2.33,0.834-3.982,0.534c5.318,0.675,11.676,0.979,16.404,1.269c-11.098-1.285,4.602-0.158,6.676-0.186
								c5.748,0.692-1.789,0.194-5.342,0.008c4.613,0.515,10.029,1.741,12.717,1.413c0.068,0.222-3.188,0.151-7.527-0.077
								c-4.346-0.188-9.783-0.488-14.064-0.842l5.766,0.614c-4.004-0.16-4.742-0.292-10.467-0.9c5.59,0.86,4.996,1.17,3.666,1.349
								c-0.736-0.132,0.418-0.062-0.283-0.189c-4.604-0.544-8.146-0.763-7.107-0.438c-4.197,0.177,6.367,0.962,9.463,1.542
								c2.365,0.186,4.729,0.371,7.057,0.553c0,0,1.508,0.028,3.771,0.069c2.264,0.036,5.273,0.157,8.289,0.244
								c6.031,0.191,12.063,0.382,12.063,0.382c10.266,0.912,14.783,1.979,22.434,3.155l2.152-0.235
								c8.875,1.151,17.217,2.453,11.453,2.308c-0.293-0.204-1.465-0.319-3.386-0.595c-0.268,0.032-0.719,0.021-1.277-0.015
								c-0.188,0.011-0.305,0.018-0.455,0.027c9.521,1.084,15.455,1.76,16.015,1.823c-16.217-1.414-0.936,0.777-3.74,1.286
								c0,0,4.076,0.469,8.148,0.938c4.07,0.503,8.146,1.006,8.146,1.006c-9.813-1.663-0.117-0.447,3.398-0.069
								c0.895,0.618,13.082,1.83,18.771,2.782l-0.438,0.036c5.25,0.967,14.502,2.26,21.082,3.178 M4141.787,19.631
								c3.627,0.854,6.318,0.645,10.404,1.464c-6.016-0.412-13.648-1.712-23.631-3.121l-3.213-0.868l-10.066-1.197
								c4.217,0.376,1.752-0.405,12.307,1.001c-1.295-0.569-10.459-1.396-16.896-2.418l-3.391,0.104
								c1.318-0.132-12.51-2.01-2.619-1.127c0,0,4.014,0.42,8.021,0.841c4.006,0.453,8.012,0.906,8.012,0.906l-4.389-0.995
								l13.52,1.802l-3.223-0.17c10.879,1.33,12.428,1.887,14.01,2.35c1.578,0.476,3.176,0.921,14.117,2.23 M3270.893,39.463
								c0.639-0.146,1.15-0.261,1.51-0.392C3272.026,39.208,3272.475,39.208,3270.893,39.463z M4158.494,26.781
								c-7.078-1.117-14.088-2.224-20.926-3.304c12.271,2.452,22.705,4.575,24.918,5.335c2.215,0.745-3.771-0.007-24.385-3.071
								l-2.721-0.315c5.375,0.964,14.658,2.343,23.416,3.596 M4039.44,12.634c0.371,0.028,0.5,0.038,0.836,0.064
								c-1.91-0.2-3.836-0.401-5.836-0.611C4035.213,12.2,4036.694,12.371,4039.44,12.634z M4055.858,14.998l1.98-0.243
								c-1.795-0.211-3.605-0.425-5.48-0.645C4052.948,14.38,4053.574,14.628,4055.858,14.998z M4108.502,22.973
								c3.395-0.107,14.529,1.465,15.303,0.931c0.727-0.061-1.607-0.453-4.223-0.874c-2.93-0.429-6.063-0.888-9.379-1.374
								c-0.123,0.077-0.801,0.074-1.918,0.009c3.275,0.5,5.443,0.994,4.064,1.181c-8.316-1.98-7.646-0.411-16.73-1.832
								C4092.664,21.074,4105.709,22.785,4108.502,22.973z M4081.276,12.134c-0.107-0.017-0.24-0.036-0.369-0.055
								c0.143,0.018,0.277,0.035,0.406,0.051L4081.276,12.134z"/>
							<path fill="#B4AE4F" d="M3428.672,17.047l-53.807,5.167C3390.352,20.728,3404.647,19.354,3428.672,17.047z"/>
							<polygon fill="#B4AE4F" points="4153.553,20.999 4162.018,22.182 4152.787,20.82 							"/>
							<polygon fill="#B4AE4F" points="4114.221,14.173 4112.777,13.845 4105.705,13.14 4107.172,13.457 							"/>
							<path fill="#B4AE4F" d="M4161.596,33.459"/>
							<path fill="#B4AE4F" d="M4163.893,34.438"/>
							<path fill="#B4AE4F" d="M3818.426-0.725c2.496-0.36,14.785-0.255,15.422,0.065c-1.641,0.153-8.295,0.338-4.117,0.514
								l9.707-0.913c12.924,0.426-9.816,1.178-16.189,1.523c13.162,0.009,17.057-0.572,31.059-0.675
								c-4.121-0.044-6.729-0.234-8.914-0.397c-0.49-0.587,12.563-0.424,21.889-0.541c-5.934-0.212-2.5-0.455,1.824-0.719
								c0.783-0.024,1.297-0.062,1.66-0.104c0.502-0.032,0.984-0.063,1.473-0.094l-1.119,0.009c0.074-0.067-0.168-0.145-0.971-0.249
								c-7.832,0.231-13.82-0.218-18.855-0.188c4.984,0.924-17.166,0.352-23.494,0.696l-7.318,0.15l-2.729,0.022
								c-0.563-0.101,0.225-0.239,4.396-0.461c-3.482,0.216-15.104,0.237-14.02,0.538c0,0-6.627,0.054-13.254,0.107
								c-6.625,0.152-13.252,0.304-13.252,0.304c-0.83-0.02-1.65-0.05-2.27-0.105c-0.914,0.082-1.063,0.135-0.949,0.181
								c0,0-28.859,0.683-57.725,1.366c-7.215,0.171-14.432,0.341-21.193,0.501c-3.383,0.058-6.648,0.203-9.75,0.327
								c-3.1,0.123-6.027,0.239-8.732,0.347c-10.816,0.43-18.029,0.717-18.029,0.717c5.695-0.147,10.635-0.122,16.508-0.246
								c-8.793,0.983,9.621-0.262,7.061,0.442c-3.953,0.374-9.75,0.533-13.201,0.521c-1.275,0.355,3.652,0.432,3.088,0.819
								c14.563-0.166,16.75-1.817,30.979-1.881c-0.549,0.378-4.938,0.799,4.381,0.534l-2.365,0.133
								c14.898-0.753,11.633,0.557,21.002-0.661l-0.229,0.533c6.754-0.554,19.914-0.861,27.332-1.105l-0.443,0.112
								c20.809-1.084,11.686-0.398,35.055-1.191l-10.744,0.864c8.057,0.087,9.871-0.686,15.648-0.665
								c-0.408,0.117,0.938,0.453-4.521,0.645c0,0,1.771-0.112,4.428-0.208c2.656-0.108,6.199-0.252,9.742-0.396
								c7.086-0.288,14.172-0.576,14.172-0.576C3827.621-0.58,3819.473-0.508,3818.426-0.725z"/>
							<path fill="#B4AE4F" d="M3854.305-0.212c1.51,0.017,3.207,0.016,5.221-0.02C3857.586-0.224,3855.908-0.218,3854.305-0.212z"
								/>
							<path fill="#B4AE4F" d="M3654.86,2.517l8.107-0.322C3660.449,2.261,3657.84,2.354,3654.86,2.517z"/>
							<path fill="#B4AE4F" d="M3894.965-1.67c-4.918-0.222,3.666-0.438,4.541-0.586c0,0-1.111-0.026-2.762-0.009
								c-1.65,0.013-3.854,0.031-6.057,0.049c-4.4,0.036-8.811,0.071-8.811,0.071c0.084,0.202-1.668,0.443-1.313,0.626
								L3894.965-1.67z"/>
							<path fill="#B4AE4F" d="M3876.781-2.49c-0.598,0.146-2.459,0.287-4.549,0.422l9.648-0.078
								C3881.819-2.298,3880.737-2.428,3876.781-2.49z"/>
							<polygon fill="#B4AE4F" points="3878.678,8.337 3875.569,8.378 3870.858,8.571 							"/>
							<path fill="#B4AE4F" d="M3829.963,7.811c3.727,0.28,10.781-0.007,13.145-0.103C3834.971,7.779,3838.489,7.635,3829.963,7.811
								z"/>
							<polygon fill="#B4AE4F" points="3840.045,11.035 3832.211,11.269 3832.938,11.324 							"/>
							<path fill="#B4AE4F" d="M3595.047,7.053c-1.283,0.083-2.531,0.164-3.832,0.248C3592.963,7.206,3594.117,7.126,3595.047,7.053
								z"/>
							<path fill="#B4AE4F" d="M3662.317,3.798c-18.729,0.142,12.242-0.972,6.35-1.5l-10.188,0.65l0.867-0.237l-12.428,0.554
								c2.566,0.248,4.486,0.194,3.941,0.581c-16.59,0.508-5.244-0.228-17.422-0.212l-18.541,0.793l1.506-0.168
								c-1.564,0.069-2.254,0.142-2.791,0.223c0,0-3.902,0.167-9.756,0.418c-5.854,0.281-13.65,0.793-21.451,1.242
								c-15.6,0.927-31.195,1.854-31.195,1.854c-11.342,0.923,6.313,0.306-2.035,1.311c13.164-0.737,32.73-1.439,33.811-2.229
								c-0.432,0.125-1.287,0.374,1.379,0.312l7.586-1.024l-7.27,0.214c3.813-0.494,11.895-1.119,19.592-1.463
								c7.699-0.297,15.006-0.458,17.25-0.36c-7.023,0.377-8.77,0.677-11.201,0.929c-1.217,0.126-2.607,0.24-4.92,0.347
								c-2.313,0.091-5.543,0.219-10.438,0.414c0.885,0.136,4.482,0.26,0.086,0.607c5.729-0.41,11.316-0.637,16.846-0.855
								c5.527-0.222,10.994-0.442,16.484-0.663C3639.36,5.083,3650.442,4.576,3662.317,3.798z"/>
							<path fill="#B4AE4F" d="M3432.289,17.356l0.182-0.079C3432.055,17.343,3431.918,17.379,3432.289,17.356z"/>
							<path fill="#B4AE4F" d="M3439.989,16.886l11.113-1.527l-17.406,1.327l-1.225,0.592c1.523-0.238,7.613-0.937,9.992-0.914
								L3439.989,16.886z"/>
							<path fill="#B4AE4F" d="M3464.033,13.983c-8.973,0.867-8.439,1.42-3.51,1.331c-8.236,0.875-4.41-0.314-10.043,0.721
								c0.219,0.411,10.373-0.58,12.709-0.829L3464.033,13.983z"/>
							<polygon fill="#B4AE4F" points="3530.446,9.759 3527.93,10.145 3534.17,9.861 							"/>
							<path fill="#B4AE4F" d="M3527.93,10.145l-6.205,0.28c0.438,0.157,0.879,0.31,1.891,0.378L3527.93,10.145z"/>
							<path fill="#B4AE4F" d="M3505.485,11.282c-2.625,0.164-5.525,0.346-9.047,0.566L3505.485,11.282z"/>
							<path fill="#B4AE4F" d="M3512.563,10.917l-0.209-0.062l-6.869,0.427C3508.018,11.151,3510.289,11.034,3512.563,10.917z"/>
							<path fill="#B4AE4F" d="M3521.725,10.425c-1.031-0.341-2.234-0.758-11.182-0.076l1.811,0.506L3521.725,10.425z"/>
							<polygon fill="#B4AE4F" points="3783.047,11.021 3775.981,11.418 3776.727,11.465 3783.793,11.067 							"/>
							<path fill="#B4AE4F" d="M3742.211,11.587c-1.748,0.113-3.066,0.22-4.273,0.326
								C3739.778,11.826,3741.246,11.723,3742.211,11.587z"/>
							<path fill="#B4AE4F" d="M3711.94,15.111c-8.326-0.224,11.463-0.815-3.941-0.643c-1.371-0.355,5.834-1.021,13.1-0.997
								c-0.566,0.377-7.063,0.397-2.588,0.665c4.807-0.533,6.639-0.288,4.949-0.797c8.104-0.53,8.982-0.94,14.482-1.425
								c-9.799,0.476-30.396,0.366-42.811,1.388c-6.842,0.929-2.645,1.666-2.65,2.62
								C3693.522,16.013,3711.287,15.777,3711.94,15.111z"/>
							<path fill="#B4AE4F" d="M3725.061,15.759c3.852-0.042,5.021-0.107,7.381-0.241
								C3731.801,15.207,3728.164,15.673,3725.061,15.759z"/>
							<path fill="#B4AE4F" d="M3636.326,11.592c-0.738,0.164-7.691,0.605-6.193,0.781l10.563-0.585
								C3638.221,11.862,3637.34,11.73,3636.326,11.592z"/>
							<path fill="#B4AE4F" d="M3645.326,11.532l-4.631,0.255C3641.85,11.754,3643.281,11.679,3645.326,11.532z"/>
							<path fill="#B4AE4F" d="M3635.821,11.527c0.168,0.021,0.318,0.041,0.506,0.065
								C3636.475,11.557,3636.436,11.529,3635.821,11.527z"/>
							<path fill="#B4AE4F" d="M3479.834,12.914c0.131-0.272-4.564,0.227-6.922,0.477
								C3474.828,13.273,3477.533,13.162,3479.834,12.914z"/>
							<path fill="#B4AE4F" d="M3303.016,29.827l-4.176,0.244C3300.317,30.035,3301.084,30.014,3303.016,29.827z"/>
							<path fill="#B4AE4F" d="M3240.094,44.424c-0.104,0.065-0.412,0.147-0.814,0.238
								C3239.682,44.578,3239.973,44.498,3240.094,44.424z"/>
							<path fill="#B4AE4F" d="M3239.28,44.662c-2.797,0.575-11.541,1.344-14.637,2.072l0.393-0.152l-5.811,0.937
								C3224.688,46.795,3236.16,45.378,3239.28,44.662z"/>
						</g>
					</g>
				</g>
			</g>
		</g>
	</g>
	<g>
		<g>
			<g>
				<g>
					<g>
						<g>
							<path fill="#9BBCC6" d="M979.79,78.066c4.342,1.114,8.041,2.434,6.381,2.13c8.92,2.017,8.998,2.482,10.317,2.083
								c5.765,1.184,11.683,3.294,5.16,1.841l16.44,3.975l-9.74-2.746c2.824,0.134,15.563,4.387,18.852,4.542l-17.707-4.717
								l0.938,0.045c-4.082-0.877-11.883-3.076-14.584-3.893c0.461,0.021,0.223-0.212,3.347,0.612
								c-21.334-5.782-6.008-0.574-23.791-5.06C976.518,77.156,977.901,77.482,979.79,78.066z"/>
							<path fill="#9BBCC6" d="M961.948,72.003l-7.668-1.153l-12.498-3.361c-0.196,0.221-9.396-1.885-3.268-0.097
								c1.229,0.267,3.635,0.795,5.563,1.308c-1.541,0.195-16.748-3.941-13.203-2.453c9.959,2.362,11.444,2.867,17.668,3.964
								c9.076,2.349,15.666,4.149,19.862,5.424c2.716,0.598,3.185,0.356,6.635,1.157c-0.763-0.185-1.464-0.356-2.339-0.568
								l-0.154-0.919c-2.9-0.548-5.596-1.316-8.77-2.101l14.941,2.75c-4.545-1.973-19.097-5.167-24.785-6.947
								C960.923,71.511,948.159,67.912,961.948,72.003z"/>
							<path fill="#9BBCC6" d="M975.047,76.791c0.095,0.023,0.247,0.061,0.36,0.089C975.294,76.852,975.141,76.814,975.047,76.791z"
								/>
							<path fill="#9BBCC6" d="M-44.214,70.819c2.611,0.103,4.728,0.067,7.032,0.067c1.558,0.07,2.854,0.129,4.179,0.188
								c0,0,3.334-0.017,6.668-0.034c1.664,0.007,3.334-0.064,4.584-0.087c1.252-0.032,2.084-0.053,2.084-0.053l3.079-0.295
								c0,0-3.998-0.066-7.997-0.132c-3.994-0.143-7.989-0.286-7.989-0.286c2.146-0.094-5.555-0.548-2.177-0.598
								c-1.223-0.045-6.921-0.34-5.381-0.11l3.254,0.207"/>
							<path fill="#9BBCC6" d="M860.694,47.753c0.725,0.179,1.539,0.381,2.194,0.543C862.409,48.153,861.581,47.957,860.694,47.753z
								"/>
							<path fill="#9BBCC6" d="M206.276,49.604l4.199-0.93C208.829,49.023,207.495,49.322,206.276,49.604z"/>
							<path fill="#9BBCC6" d="M300.262,26.107l6.161-1.44C303.981,25.171,302.081,25.633,300.262,26.107z"/>
							<path fill="#9BBCC6" d="M810.454,36.861l-0.209-0.051c-0.351-0.059-0.617-0.104-0.984-0.167L810.454,36.861z"/>
							<path fill="#9BBCC6" d="M493.722,4.599c0.964,0.033,2.046,0.056,3.521,0.048C497.063,4.569,495.747,4.561,493.722,4.599z"/>
							<path fill="#9BBCC6" d="M299.135,26.372c0.155-0.025,0.252-0.041,0.378-0.061c0.236-0.064,0.503-0.137,0.75-0.205
								L299.135,26.372z"/>
							<path fill="#9BBCC6" d="M164.254,56.428c-0.899,0.22-1.712,0.42-2.668,0.654C162.847,56.796,163.622,56.599,164.254,56.428z"
								/>
							<path fill="#9BBCC6" d="M170.678,57.517c-0.969,0.228-1.879,0.449-2.596,0.639L170.678,57.517z"/>
							<path fill="#9BBCC6" d="M24.157,73.546l-5.78,0.068C21.218,73.627,22.911,73.596,24.157,73.546z"/>
							<path fill="#9BBCC6" d="M155.589,60.161c-0.314,0.111-0.63,0.221-0.854,0.3C155.511,60.268,155.883,60.138,155.589,60.161z"
								/>
							<path fill="#9BBCC6" d="M896.038,58.581c-0.125-0.028-0.271-0.06-0.348-0.077l-0.152,0.064L896.038,58.581z"/>
							<path fill="#9BBCC6" d="M910.059,60.597c1.625,0.357,3.327,0.731,4.99,1.096C913.202,61.255,911.405,60.861,910.059,60.597z"
								/>
							<path fill="#9BBCC6" d="M578.256,6.22c1.534,0.18,5.144,0.462,3.453,0.539C584.655,6.692,584.479,6.256,578.256,6.22z"/>
							<path fill="#9BBCC6" d="M867.339,57.308c0.919,0.098,2.061,0.275,3.202,0.454C868.421,57.393,866.573,57.064,867.339,57.308z
								"/>
							<path fill="#9BBCC6" d="M870.54,57.762c1.041,0.178,2.16,0.369,3.097,0.529C872.55,58.092,871.509,57.914,870.54,57.762z"/>
							<path fill="#9BBCC6" d="M539.048,12.331c-0.391-0.062-0.975-0.117-1.773-0.141C537.508,12.307,538.151,12.339,539.048,12.331
								z"/>
							<path fill="#9BBCC6" d="M919.019,62.762c0.966-0.084,22.569,4.937,4.502,0.29c0.858-0.463,11.668,2.64,16.528,3.701
								c-3.457-1.026,1.845,0.049,0.836-0.437c-2.412-0.531-5.306-1.075-9.24-2.117c-1.754-0.74,4.293,0.587,8.957,1.877
								c-5.692-1.781,7.451,1.369-0.664-0.944c-8.758-2.1-16.229-3.909-23.119-5.26c-6.879-1.406-13.129-2.575-19.4-3.572
								c10.02,2.21,21.27,4.59,29.387,6.836c0,0-0.891-0.085-1.778-0.17c-0.896-0.075-1.787-0.149-1.787-0.149
								c-9.149-2.635-14.955-3.627-24.056-5.81l20.402,5.075c9.479,2.685,3.031,1.282-4.537-0.39
								C916.897,62.132,918.575,62.559,919.019,62.762z"/>
							<path fill="#9BBCC6" d="M904.137,64.18l0.339,0.095c0.3,0.05,0.674,0.125,0.869,0.147L904.137,64.18z"/>
							<path fill="#9BBCC6" d="M25.099,84.564l-1.819,0.189C24.794,84.675,25.265,84.615,25.099,84.564z"/>
							<path fill="#9BBCC6" d="M892.54,58.757l0.02,0.005C892.425,58.736,892.386,58.728,892.54,58.757z"/>
							<path fill="#9BBCC6" d="M70.401,83.35c-0.058,0.018-0.115,0.038-0.229,0.062C70.325,83.385,70.323,83.369,70.401,83.35z"/>
							<path fill="#9BBCC6" d="M81.257,70.511c-0.089-0.017-0.12-0.037-0.314-0.043C80.005,70.59,80.468,70.57,81.257,70.511z"/>
							<path fill="#9BBCC6" d="M70.438,83.296c0,0.017,0.031,0.031-0.037,0.053C70.44,83.33,70.517,83.307,70.438,83.296z"/>
							<path fill="#9BBCC6" d="M284.711,39.572c0,0-0.688,0.05-1.776,0.19C282.544,39.896,282.956,39.869,284.711,39.572z"/>
							<path fill="#9BBCC6" d="M242.493,47.987c-0.271,0.04-0.431,0.063-0.776,0.115L242.493,47.987z"/>
							<path fill="#9BBCC6" d="M568.118,3.39c-2.145-0.088-3.754-0.134-5.109-0.161C564.579,3.301,566.269,3.362,568.118,3.39z"/>
							<path fill="#9BBCC6" d="M70.169,83.411c-0.45,0.086-1.098,0.186-2.159,0.326C69.19,83.585,69.798,83.487,70.169,83.411z"/>
							<path fill="#9BBCC6" d="M348.67,24.699c-0.45,0.098-0.871,0.189-1.292,0.281c0.252-0.034,0.523-0.07,0.775-0.104
								L348.67,24.699z"/>
							<path fill="#9BBCC6" d="M370.932,21.628c-0.744,0.175-1.083,0.292-1.5,0.412c1.973-0.357,4.363-0.749,6.868-1.148
								c2.513-0.348,5.134-0.711,7.563-1.048c4.854-0.682,8.928-1.304,9.754-1.705c-2.691,0.37-16.733,1.884-14.396,1.233
								c-5.525,0.868-13.754,1.797-16.723,2.318c9.138-1.071,1.059,0.333-5.039,1.458c-5.597,0.681,0.973-0.619-3.84,0.005
								l-12.854,2.251l11.215-1.836l-3.313,1.13c0.412-0.089,0.699-0.152,1.142-0.248c4.726-0.898,7.211-1.191,8.563-1.357
								c1.354-0.147,1.586-0.082,1.83-0.023C360.688,23.19,361.231,23.288,370.932,21.628z"/>
							<path fill="#9BBCC6" d="M369.432,22.04c-1.191,0.217-2.229,0.418-3.032,0.6C368.196,22.357,368.883,22.196,369.432,22.04z"/>
							<path fill="#9BBCC6" d="M447.459,14.047c0.972-0.095,2.037-0.246,3.379-0.362C450.196,13.735,448.719,13.895,447.459,14.047z
								"/>
							<path fill="#9BBCC6" d="M660.983,15.463l-3.729-0.444c-0.271-0.007-0.527-0.013-0.729-0.018
								C657.278,15.152,659.735,15.359,660.983,15.463z"/>
							<path fill="#9BBCC6" d="M382.627,18.718c-2.028,0.335-2.931,0.522-3.405,0.654C380.534,19.164,381.749,18.947,382.627,18.718
								z"/>
							<path fill="#9BBCC6" d="M661.571,16.556c1.563,0.304,3.869,0.76,4.184,0.96c3.225,0.378,5.521,0.419,8.813,0.721
								C670.845,17.869,666.56,17.328,661.571,16.556z"/>
							<path fill="#9BBCC6" d="M674.835,18.261c-0.098-0.009-0.193-0.017-0.271-0.024C674.659,18.246,674.737,18.252,674.835,18.261
								z"/>
							<path fill="#9BBCC6" d="M-50.945,76.293 M-52.603,79.516c2.528-0.327,5.056-0.654,6.951-0.899
								c0.945-0.116,1.731-0.238,2.288-0.321c0.552-0.083,0.868-0.13,0.868-0.13 M-45.564,71.102
								c3.138,0.044,6.281-0.014,8.634-0.013c2.354-0.012,3.923-0.02,3.923-0.02c2.676,0.129,4.978,0.274,7.054,0.432
								c2.075,0.151,3.928,0.285,5.694,0.413c3.532,0.314,6.737,0.599,10.75,0.956l2.216-0.385
								c9.303,0.404,18.09,0.749,12.103,1.219c-0.324-0.173-1.552-0.169-3.572-0.251c-0.273,0.059-0.741,0.093-1.326,0.114
								c-0.195,0.03-0.313,0.048-0.471,0.073c9.981,0.123,16.207,0.213,16.793,0.191c-16.959,0.247-0.877,0.873-3.726,1.667
								c0,0,1.07,0.013,2.678,0.033c1.606-0.009,3.75-0.021,5.896-0.033c4.284-0.031,8.569-0.062,8.569-0.062
								c-10.384-0.374-0.182-0.428,3.512-0.511c0.501,0.232,3.969,0.341,7.999,0.151c4.042-0.142,8.698-0.349,11.687-0.379
								l-0.438,0.11c2.769,0.021,6.568-0.264,10.539-0.494c1.982-0.136,4.013-0.274,5.974-0.408
								c1.961-0.128,3.849-0.405,5.563-0.588c-0.319-0.143,8.412-1.779,12.562-2.712c-11.767,1.015-4.808,0.103-5.78-0.097
								c1.213-0.092,3.401-0.302,3.646-0.388c1.664-0.304-2.309,0.041-2.646-0.089c-6.227,0.704-12.541,1.518-17.94,1.884
								c-2.699,0.233-5.168,0.466-7.276,0.704c-2.109,0.245-3.863,0.486-5.135,0.657c1.924,0.146,3.557-0.08,5.245-0.261
								c1.688-0.192,3.435-0.401,5.586-0.431c-1.543,0.211-3.199,0.395-4.979,0.562c-1.779,0.145-3.687,0.372-5.723,0.394
								c-4.072,0.088-8.673,0.188-13.874,0.302c0,0-0.852-0.08-1.715-0.2c-0.861-0.111-1.723-0.222-1.723-0.222l-10.563,0.123
								c4.407-0.175,1.76-0.629,12.842-0.607c-1.418-0.4-10.983-0.016-17.771-0.209l-3.489,0.512
								c1.348-0.264-13.166-0.739-2.841-0.857c0,0,1.048,0.002,2.619,0.005c1.571-0.026,3.672-0.061,5.77-0.095
								c4.194-0.072,8.39-0.144,8.39-0.144l-4.658-0.416c0,0,3.545,0.007,7.091,0.015c1.771,0.003,3.545,0.007,4.874,0.01
								c1.324-0.007,2.191-0.049,2.191-0.049s-0.824,0.088-1.646,0.177c-0.835,0.063-1.67,0.126-1.67,0.126
								c11.283-0.335,12.914-0.17,14.607,0.053c0.844,0.09,1.688,0.217,3.738,0.167c2.055-0.087,5.313-0.32,10.963-0.833
								c1.766-0.288,3.563-0.485,5.479-0.76c1.92-0.287,3.963-0.555,6.222-0.817c2.256-0.263,4.727-0.521,7.5-0.788
								c2.771-0.239,5.845-0.699,9.312-1.085c-10.001,1.455-0.966,0.595-4.692,1.467c10.271-1.077,13.653-1.993,18.903-3.136
								c2.651-0.066,4.554-0.079-4.58,1.313c-1.041,0.903,11.978-2.019,12.938-1.41c15.107-2.585,21.041-4.34,27.609-6.162
								c3.287-0.911,6.734-1.785,11.575-2.884c4.835-1.141,11.062-2.388,19.896-4.1l-1.248,0.588
								c22.246-5.286,35.215-7.983,55.881-12.926l16.5-2.954c-3.623,0.943-13.311,3.732-8.646,3.054
								c-8.12,1.037-16.487,3.233-25.121,4.785c-0.832,0.398,2.69-0.259,4.224-0.482c-5.146,1.172-7.818,1.43-14.59,3.108
								c0.358,0.083,7.832-1.42,2.252-0.053l-9.361,1.64c-12.331,3.032-5.843,2.491-20.443,5.524
								c2.611-1.019,8.004-2.852,13.617-4.205c-6.668,1.402,8.799-2.244,2.676-1.129c-4.715,1.387-8.256,2.198-12.199,3.081
								c-3.942,0.888-8.287,1.825-14.613,3.357c1.477-0.405,1.852-0.611,4.966-1.314c0,0-4.633,0.917-9.267,1.835
								c-2.315,0.457-4.631,0.913-6.369,1.255c-1.738,0.32-2.896,0.534-2.896,0.534c4.65-0.547-15.191,3.438-13.373,3.638
								c9.884-1.853,13.361-2.565,17.184-3.349c3.817-0.835,7.981-1.703,19.237-3.972c-6.317,1.506-14.397,3.774-18.146,5.106
								c-0.195,0.019-0.522,0.073-1.211,0.207c-3.33,1.218,0.192,0.666,0.332,1.61c10.121-2.852,17.104-3.72,29.104-6.821
								c2.163-1.023-7.157,0.925-13.135,2.36c0,0,2.646-0.668,5.292-1.337c2.646-0.677,5.29-1.353,5.29-1.353l-2.045,0.701
								c0,0,6.768-1.466,13.532-2.932c6.767-1.495,13.528-2.991,13.528-2.991c-5.121,1.195-6.787,1.884-9.403,2.714
								c3.492-0.774,6.974-1.425,10.685-2.115c-0.893-0.309-0.477-0.761,2.92-1.529c17.426-3.882,27.209-5.633,33.767-6.538
								c0.666-0.163,1.407-0.344,2.019-0.493c-3.041,0.142,12.186-3.644,17.483-5.352c-0.161,0.553,9.063-1.643,14.165-2.441
								c2.561-1.163-1.199-1.219-7.439-0.398c-11.705,3.094-6.506,1.995-11.908,3.98l-18.805,4.741l4.109-1.429
								c-9.478,1.933-18.383,4.606-17.832,3.842c4.885-1.546,13.172-3.16,18.021-4.694l-6.293,1.193
								c10.881-3.099,5.771-0.721,19.032-4.096c-5.032,0.566,1.194-0.304,6.84-1.92c-4.675,0.646-23.479,5.363-19.653,3.592
								c6.854-1.938,23.574-4.186,32.604-6.98l-0.42,0.194c13.599-2.809,18.308-4.197,23.351-5.564
								c2.934-0.432,6.373-1.18,9.883-1.922c3.513-0.729,7.078-1.509,10.231-2.116l-0.104,0.289l8.885-1.773
								c-4.152,1.266-10.434,1.937-18.066,3.436l1.039,0.305c-8.917,1.11-14.596,3.218-21.32,4.982
								c4.912-1.204,11.916-2.582,17.959-3.834c6.063-1.179,11.162-2.232,12.242-2.924l6.248-0.664l2.901-0.725
								c2.334-0.228,2.354,0.024,0.676,0.516c-1.672,0.522-5.03,1.327-9.458,2.211c-1.564,0.167-2.35,0.25-1.902,0.063
								c-4.084,1.012-7.813,2.001-17.769,3.924l5.257-1.322c-6.195,1.228-12.104,2.454-16.977,3.54
								c-4.869,1.099-8.689,2.113-10.75,2.789c8.918-1.837,17.807-3.507,26.535-5.238c8.734-1.697,17.367-3.244,25.776-4.834
								c4.772-1.939,10.599-3.564,12.964-5.014c2.833-0.526,5.915-1.115,9.107-1.669c3.203-0.509,6.51-1.034,9.771-1.552
								c6.525-0.993,12.867-1.96,17.865-2.377l-0.891,0.322c4.853-0.535,9.311-1.181,13.021-1.789
								c5.146-0.407-3.438,1.004,0.146,0.678c0,0,1.021-0.157,2.549-0.392c1.529-0.224,3.563-0.574,5.61-0.824
								c4.091-0.54,8.183-1.08,8.183-1.08c-0.479,0.288-4.172,0.815-8.562,1.364c-4.381,0.6-9.449,1.294-12.712,1.741
								c1.225-0.201,3.707-0.608,2.898-0.564c-3.813,0.407-9.233,1.276-14.127,2.014c-4.885,0.787-9.229,1.513-10.938,1.421
								c-3.676,0.678,7.431-1.635-5.076,0.233c-4.208,0.516-6.974,1.015-8.784,1.452c-1.809,0.456-2.671,0.808-3.09,0.982
								c-0.104,0.22,13.18-1.717,8.625-0.69c6.5-1.023,9.044-1.756,17.402-2.771c-6.444,1.014-15.121,2.877-18.621,2.995
								c-3.174,0.591-5.418,1.147-6.91,1.597c-1.492,0.444-2.235,0.777-2.396,0.998c-0.32,0.44,1.686,0.43,4.688-0.047
								c-1.508-0.207,23.166-4.024,6.379-1.99c3.717-0.819,9.008-1.752,14.592-2.706c5.584-0.963,11.492-1.736,16.396-2.569
								l-0.438,0.159c0,0,3.06-0.436,6.112-0.871c1.528-0.218,3.058-0.436,4.204-0.599c1.148-0.146,1.915-0.243,1.915-0.243
								c-1.715,0.307-5.396,0.956-5.479,1.218c0,0,4.207-0.77,8.439-1.379c4.229-0.646,8.458-1.292,8.458-1.292
								c-9.521,1.532,5.978-0.33,10.353-0.602c1.771-0.628,8.41-1.461,2-1.145c-7.207,0.474-4.15,0.671-10.666,1.417l9.16-1.655
								l0.81-0.026l5.519-1.011c12.605-1.072-5.396,1.692,10.705-0.236l-2.158-0.524c2.34-0.184,4.765-0.374,7.236-0.568
								c1.236-0.091,2.486-0.184,3.749-0.277c1.265-0.064,2.533-0.128,3.812-0.193c5.104-0.237,10.289-0.479,15.305-0.711
								c2.505-0.121,4.968-0.24,7.354-0.356c2.394-0.071,4.705-0.14,6.914-0.206c4.418-0.145,8.406-0.314,11.717-0.527
								c-3.644,0.549-5.226,1.262-0.186,1.449c-2.859,0.052-7.154,0.198-11.758,0.379c-2.302,0.098-4.682,0.176-6.996,0.307
								c-2.313,0.163-4.561,0.32-6.604,0.464c-0.793-0.011,1.748-0.385,5.603-0.808c3.854-0.406,9.03-0.696,13.481-0.813
								c-2.187-0.485-7.781-0.124-12.959,0.306c-5.174,0.506-9.938,0.984-10.492,0.428c-11.34,0.52-15.547,1.05-19.313,1.677
								c-3.771,0.581-7.11,1.09-16.74,1.589c-0.205,0.541-5.419,0.73-6.384,1.34c2.871,0.071,9.283-0.422,16.527-1.161
								c3.623-0.358,7.459-0.738,11.166-1.104c3.713-0.271,7.301-0.497,10.424-0.623c-1.226,0.117-3.681,0.354-4.144,0.483
								c8.908-0.417,12.583-0.77,18.797-1.364l-0.788-0.012c10.854-1.045,6.764,0.098,13.165,0.054
								c2.485-0.177,11.397-0.377,9.955-0.707c0,0,2.901,0.01,5.808,0.021c2.9,0.08,5.807,0.16,5.807,0.16l-0.57-0.581
								c6.549-0.128,7.985,0.24,13.912-0.204l0.271-0.53l-16.271,0.05c8.25-0.291,2.287-0.537,11.351-0.778
								c-10.112,0.722,7.183,0.189,8.174,0.664c0,0,1.667-0.098,3.334-0.196c0.834-0.049,1.667-0.098,2.293-0.135
								c0.625-0.021,1.042-0.035,1.042-0.035s-0.427,0.03-0.854,0.061c-0.43,0.04-0.854,0.079-0.854,0.079
								c5.228,0.293,6.229-0.136,12.34-0.006c-3.604-0.188-6.587-0.387-9.813-0.506c-3.229-0.129-6.703-0.012-11.291,0.221
								c1.67-0.086,3.752-0.193,5.982-0.308c1.117-0.051,2.271-0.103,3.434-0.155c1.162-0.02,2.328-0.04,3.467-0.059
								c4.56-0.07,8.688-0.11,10.314-0.1c3.514-0.071,6.491,0.008,9.412,0.122c2.921,0.124,5.786,0.223,9.063,0.41
								c-3.146-0.082-4.451,0.045-5.023,0.194c-0.574,0.147-0.421,0.33-0.663,0.49c-0.481,0.32-2.545,0.548-15.161,0.216
								c0.475-0.096,2.518-0.049,3.3,0.021c-1.676-0.355-5.459-0.388-9.504-0.307c-2.021,0.05-4.106,0.087-6.033,0.203
								c-1.922,0.123-3.683,0.235-5.045,0.322c1.403,0.368-4.313,0.545,5.382,0.621c-3.186-0.285,8.167-0.795,17.396-0.363
								l-1.643,0.811l13.417,0.25l-1.256,0.024c5.022,0.638,14.313,0.407,23.535,1.048c1.669-0.012,4.521,0.054,7.683,0.139
								c3.16,0.163,6.633,0.343,9.558,0.494c5.847,0.285,9.494,0.358,4.026-0.424c4.125,0.522,8.016,0.734,12.002,0.873
								c1.996,0.061,4.016,0.124,6.101,0.188c2.082,0.117,4.229,0.248,6.483,0.422c0,0-2.806-0.337-5.605-0.674
								c-1.4-0.184-2.811-0.278-3.861-0.388c-1.055-0.099-1.756-0.165-1.756-0.165c1.67,0.035,3.071,0.064,4.27,0.09
								c1.191,0.039,2.182,0.104,3.021,0.144c1.685,0.085,2.787,0.142,3.809,0.194c2.042,0.086,3.754,0.1,9.119,0.108
								c1.059,0.322,3.407,0.72,1.232,0.765c4.463,0.417,9.401,0.879,14.471,1.353c5.052,0.585,10.229,1.184,15.174,1.757
								c4.945,0.564,9.667,1.079,13.811,1.487c2.07,0.193,3.998,0.374,5.733,0.536c1.731,0.188,3.276,0.336,4.591,0.437
								c6.259,0.909,9.846,1.675,14.064,2.479c2.107,0.402,4.379,0.813,7.222,1.256c1.421,0.222,2.983,0.451,4.744,0.691
								c1.76,0.237,3.715,0.481,5.901,0.822c3.694,0.503-2.744-1.248,8.797,0.936c0.764,0.191-11.248-1.27,1.65,0.835
								c4.641,0.457,10.02,1.452,15.732,2.515c2.854,0.552,5.813,1.034,8.778,1.634c2.97,0.581,5.976,1.122,8.974,1.563
								c6.236,1.445,17.139,3.472,14.767,3.525c-9.915-2.037-23.991-4.677-26.175-4.831c1.432-0.068-7.049-1.486,0.348-0.479
								c-15.026-2.917-9.847-1.34-23.348-3.877c-0.961,0.043,6.873,1.724,9.807,2.034c-0.062,0.689-26.744-4.163-14.85-1.323
								c7.227,1.246,11.968,1.696,16.461,2.187c2.246,0.246,4.432,0.502,6.825,0.873c2.396,0.38,5.017,0.824,8.097,1.637
								c-2.535-0.311-5.76-0.816-9.158-1.334c-3.396-0.517-6.975-1.025-10.224-1.205l10.231,2.004c0,0,1.895,0.192,3.783,0.384
								c1.896,0.175,3.777,0.422,3.777,0.421l-0.461,0.014c17.971,4.129,16.868,2.55,33.132,5.354
								c-9.283-2.29,2.416-0.749-4.599-2.408c2.715,0.517,5.248,1,7.521,1.434c2.26,0.483,4.254,0.946,5.912,1.351
								c3.313,0.815,5.271,1.437,5.234,1.782c-10.137-1.898-10.459-1.781-10.596-1.607c-0.134,0.169-0.08,0.386-9.514-1.089
								c3.026,0.84-4.66,0.123,6.479,2.363c12.634,2.13-3.607-1.391,8.907,1.055c0.728,0.219,1.479,0.445,1.019,0.449
								c5.813,0.887,6.668,1.57,13.694,2.681l-1.674-0.22c8.465,2.253,9.456,1.554,16.729,3.588
								c-2.84-1.136,5.035,0.656,9.666,1.328c-7.422-1.798-11.307-3.387-26.055-6.525c-1.861,0.012-0.839,0.463-6.927-0.649
								l9.579,2.015c-2.081-0.381-3.671-0.617-5.583-0.946l-9.161-2.19c11.73,2.234,6.464,0.655,11.508,1.313
								c10.646,2.476,8.838,1.792,15.521,3.367c-0.793,0.436,20.381,5.432,32.582,8.454c-1.912-0.42-4.369-0.96-5.696-1.252
								c-9.008-1.559,6.034,1.808,6.323,2.037c0,0,1.646,0.267,3.277,0.585c1.639,0.307,3.271,0.614,3.271,0.614
								c-1.229-0.246-2.938-0.503-0.189,0.226c8.791,1.945,8.408,1.251,17.203,3.196c0.574,0.47-6.936-0.778-1.529,0.663
								c1.813,0.718,7.624,2.858,19.313,5.298c0.856,0.073,3.896,0.711,7.396,1.476c-0.479-0.095-1.093-0.225-1.327-0.256
								l7.649,2.158c-6.723-1.001-13.258-3.375-19.998-4.378l-0.689,0.382c-5.146-1.203-12.188-2.617-15.467-3.103
								c7.827,1.925,9.518,2.178,18.318,4.127c1.145,0.611-5.086-0.591-5.986-0.766l1.383,0.013
								c-10.376-2.881-15.771-3.171-28.771-6.317c-1.957-0.48-0.748-0.237-0.287-0.233c-10.687-1.873-20.932-4.733-31.354-6.309
								l3.404,0.448c-7.049-1.259-20.859-3.727-34.65-6.19l-0.146,0.179c1.494,0.45-3.646-0.666-6.381-1.342l0.021,0.001
								c-3.451-0.647-6.854-1.151-10.067-1.666c-3.213-0.514-6.242-0.999-8.971-1.435c1.711,0.461,3.896,0.995,6.438,1.518
								c1.1,0.09,4.791,0.795,8.008,1.369c3.211,0.604,5.938,1.129,5.137,0.667c5.742,1.577,15.193,3.128,19.422,4.253
								c-7.703-2.023,5.52,0.658,6.938,0.653c2.545,0.905,11.528,2.459,10.418,2.698c1.504,0.448-3.756-1.127-7.123-1.566
								c-8.23-1.33,14.826,3.588,4.59,1.805c6.483,1.23,13.973,2.796,21.51,4.362c7.537,1.579,15.121,3.168,21.783,4.563
								l-7.381-1.925c5.889,1.449,19.845,4.61,20.838,5.075c-4.388-0.985-9.519-2.137-15.125-3.396
								c-0.385,0.452,13.457,3.148,14.014,3.612l16.455,2.957l-7.111-1.696c4.562,0.761,19.375,4.558,30.375,7.306
								c-6.479-0.872-16.651-3.908-28.328-6.366c-8.494-1.708,5.058,1.899-2.979,0.196c2.037,0.649,7.254,1.851,9.865,2.276
								l3.108,0.862c-7.271-1.028-23.199-4.909-33.949-6.847c0.946,0.149,1.771,0.267,2.097,0.264
								c-4.063-1.082-8.172-2.107-12.271-3.074c-4.1-0.962-8.207-1.75-12.227-2.542c4.188,1.114,5.891,1.337,8.332,1.786
								c0.271,0.224-7.313-1.338-10.215-1.781c7.408,1.793,1.313,0.678,6.004,1.801c-4.885-0.894-8.811-1.786-14.705-3.127
								c-3.014-0.903,2.604,0.211,2.055-0.239c-6.125-1.121-8.748-2.482-17.74-4.037c11.824,2.689-3.271,0.018-7.401-0.65
								l1.979,0.451c-3.834-0.437-7.022-1.109-9.549-2.01c4.883,0.893,9.549,2.01,8.254,1.334
								c-3.211-0.675-6.403-1.347-10.061-2.015l3.361,0.438l-15.945-3.355c-1.295-0.098-3.02-0.28-4.711-0.384
								c-1.691-0.098-3.352-0.168-4.504-0.136c-3.768-1.046-9.146-1.828-12.795-2.414l1.711,0.187
								c-3.494-0.827-9.166-1.939-14.135-2.841c-2.484-0.448-4.795-0.853-6.568-1.126c-1.78-0.238-3.022-0.374-3.369-0.355
								c-1.252-0.279,0.373-0.162,2.957,0.082c2.576,0.308,6.109,0.731,8.685,1.039c2.574,0.29,4.19,0.411,2.94,0.046
								c-0.627-0.182-1.971-0.486-4.271-0.952c-2.308-0.439-5.545-1.159-10.022-1.833c-13.582-2.283-8.627-0.474-16.433-1.448
								c0,0,0.459-0.023-0.299-0.215c-5.931-1.069-6.584-0.807-11.485-1.476c3.529,0.743,8.695,1.62,10.373,1.76
								c-0.926,0.049-4.017-0.48-7.443-1.078c-3.434-0.589-7.203-1.294-9.518-1.424c6.016,0.228-11.479-1.873-6.842-1.536
								c-5.896-1.041-12.027-1.891-17.478-2.535c-2.726-0.318-5.271-0.6-7.537-0.801c-2.271-0.158-4.25-0.271-5.826-0.338
								c-7.978-1.709-14.149-1.547-27.211-3.413c2.015,0.242,5.683,0.562,8.479,0.967c7.521,0.376-13.539-1.834-1.994-0.949
								c-2.467-0.208-0.203,0.242,2.319,0.457c4.418,0.458,8.586,0.722,7.508,0.37l-10.631-1.676l3.74,0.314
								c0,0-4.037-0.622-8.074-1.243c-2.021-0.303-4.049-0.529-5.563-0.732c-1.521-0.193-2.533-0.323-2.533-0.323
								c-0.455,0.059,1.063,0.32,1.838,0.452c-4.709-0.49-9.592-0.958-14.521-1.408c-2.467-0.221-4.943-0.442-7.42-0.663
								c-2.477-0.218-4.945-0.449-7.408-0.568c-9.834-0.584-19.375-1.126-27.645-1.693c-1.597,0.617-11.795,0.403-23.273,0.051
								c-2.869-0.067-5.816-0.225-8.732-0.226c-2.918-0.007-5.799-0.013-8.526-0.02c-5.465,0.006-10.328,0.062-13.674,0.238
								c3.584-0.36,5.562-1.045,3.338-1.361c2.979-0.025,9.11-0.52,15.881-0.326c0.543,0.119,2.903,0.265,4.457,0.406
								c1.551,0.176,2.293,0.316-0.396,0.375c18.709,0.506-2.521-0.716,3.012-1.038c-10.381-0.171-18.619,0.062-25.895,0.215
								c-1.818,0.048-3.578,0.094-5.295,0.139c-1.717,0.091-3.396,0.18-5.047,0.267c-3.308,0.173-6.521,0.332-9.793,0.461
								l-0.334-0.161l-9.873,0.454c8.065-0.022,7.688,0.775-2.724,0.646l1.267-0.057c-5.938-0.164-18.267,0.764-27.527,1.064
								c0,0-0.393,0.047-0.979,0.117c-0.586,0.081-1.369,0.188-2.148,0.295c-1.563,0.215-3.125,0.43-3.125,0.43
								c-9.271,0.543-9.715-0.283-12.766-0.599c-3.635,0.241-6.894,0.409-9.871,0.764c-2.98,0.326-5.705,0.661-8.293,0.999
								c-5.172,0.702-9.824,1.333-14.951,2.029c-4.685,0.144-26.367,2.456-14.935,0.736c-13.028,1.739-10.127,3.517-32.592,5.335
								l5.744-1.121c-21.33,2.967-51.5,8.772-61.299,10.396c3.791-1.365-2.879-0.451-11.008,0.738
								c-8.108,1.288-17.672,2.891-19.688,2.648c1.106,0.048-6.808,1.808-7.938,2.216c-1.771,0.224-4.688,0.697-7.705,1.606
								c8.285-1.502-5.516,2.513,10.117-1.332c-3.896,1.271-8.367,2.616-14.047,4.102c-5.682,1.497-12.559,3.209-21.271,5.108
								l0.149-0.574l13.817-2.895c-1.477-0.067,5.621-1.628,8.486-2.4c-25.701,5.324,3.092-1.965-23.104,3.889
								c-2.461,0.903-0.854,0.397-7.627,2.073c3.196-0.744,3.688-1.228-1.479-0.063l-4.859,1.535
								c-9.348,1.22,15.023-3.998,7.076-2.826c10.025-2.713,27.525-6.763,24.119-6.713c-16.604,3.43-14.619,4.498-31.957,8.129
								l-1.903,0.138c-6.028,1.566-6.916,2.257-10.17,3.287c-0.342-0.089-1.912,0.146-5.832,0.996
								c-10.103,3.01-16.888,4.691-26.211,7.559c25.108-6.257,21.676-4.426,47.565-10.822c-4.028,1.126-22.291,5.477-23.254,6.446
								l0.131-0.572c-8.408,2.196-16.793,4.413-27.479,6.619l6.435-1.743c-7.01,1.763-12.926,2.861-18.449,3.953
								c-5.533,1.063-10.689,2.068-16.189,3.693c3.961-0.795,7.162-1.492,9.582-2.089c-3.621,0.891-7.725,1.81-11.91,2.706
								c-4.199,0.855-8.496,1.664-12.479,2.414c0,0-1.02,0.258-2.545,0.645c-1.522,0.392-3.563,0.907-5.608,1.374
								c-4.097,0.961-8.188,1.922-8.188,1.922c0.09-0.277-10.389,1.586-5.401,0.27c-6.002,0.795-10.396,1.549-14.14,2.316
								c-3.737,0.792-6.873,1.402-10.348,1.922c-12.4,1.038,10.662-1.58,11.721-2.667c-2.115,0.292-4.235,0.638-6.371,0.911
								c-2.133,0.269-4.266,0.537-6.375,0.803c-2.106,0.278-4.194,0.554-6.246,0.824c-2.047,0.287-4.057,0.558-6.02,0.749
								c-7.84,0.839-14.734,1.792-19.564,2.229c3.5-0.111,5.205-0.127,5.039,0.011c-0.524-0.133-7.434,0.341-11.285,0.575
								l-2.629,0.506c-3.214,0.118-4.604-0.054-4.502-0.142c0.104-0.129,1.696-0.215,4.41-0.545
								c-0.764,0.048-1.547,0.099-2.344,0.149c-0.799,0.034-1.611,0.069-2.437,0.104c-1.646,0.086-3.334,0.174-5.026,0.262
								c-3.386,0.157-6.813,0.309-9.967,0.079c5.232-0.268,11.199-0.447,16.531-0.546c5.324-0.25,10.018-0.57,12.734-0.852
								c-5.457,0.402-9.563,0.708-13.092,0.749c-3.527,0.002-6.472-0.062-9.593-0.119c-1.563-0.023-3.166-0.046-4.913-0.072
								c-1.747-0.018-3.615-0.119-5.729-0.159c-4.229-0.103-9.397-0.156-16.287-0.113c-0.343-0.169,4.321-0.438-0.975-0.5
								c-12.298-0.226-3.229,0.614-7.087,0.884c4.743,0.037,8.211,0.135,11.185,0.217c2.972,0.107,5.439,0.291,8.188,0.533
								l-2.523,0.255c-0.385-0.148-6.332-0.212-8.077-0.368l-1.542,0.552c0.716-0.607-8.792-1.357-16.277-1.337
								c7.544,0.671,5.504,0.589,7.546,1.362c-5.276,0.188-8.246-0.064-11.368-0.315c-3.125-0.276-6.396-0.617-12.311-0.536
								c0.895-0.159,11.188,0.188,2.303-0.396c-7.361-0.386-6.404,0.158-11.354,0.063c5.6-0.24,4.188-0.706,10.239-1.031
								c13.067,0.535,5.275,0.353,18.062,0.498c0,0-2.699-0.188-5.397-0.375c-1.35-0.092-2.696-0.184-3.709-0.284
								c-1.012-0.09-1.686-0.151-1.686-0.151c11.063,0.35,8.061-0.334,8.987-0.481c-2.358-0.135-4.354-0.227-6.058-0.295
								c-1.705-0.097-3.116-0.158-4.323-0.192c-2.412-0.069-3.985-0.034-5.354,0.024c-2.729,0.112-4.624,0.329-10.695-0.048
								c-2.938-0.034-0.097,0.224,2.336,0.34c2.435,0.139,4.451,0.259-0.146,0.224c-11.363-0.779-2.605,0.185-15.385-0.445
								l2.152-0.093c-3.877-0.585-7.769-0.421-12.271-0.803 M-44.12,69.152c0.08,0.221-3.295,0.203-7.811,0.044 M-51.798,67.85
								 M92.94,74.554l-5.619,0.695l-5.639,0.524c-3.757,0.339-7.51,0.677-11.244,1.014c-3.742,0.204-7.465,0.406-11.157,0.607
								c-1.847,0.1-3.683,0.2-5.511,0.3c-1.83,0.029-3.65,0.057-5.459,0.085c1.635,0.043,3.24,0.085,4.801,0.126
								c1.563,0.039,3.078-0.026,4.54-0.031c2.926-0.03,5.624-0.057,7.989-0.082c4.735,0.023,8.133-0.136,9.354-0.056
								c1.221,0.074,0.262,0.324-3.73,0.822c-1.996,0.234-4.763,0.404-8.391,0.669c-1.814,0.121-3.848,0.257-6.107,0.408
								c-2.259,0.187-4.754,0.233-7.491,0.283l-2.877,0.152c1.437-0.005,3.131-0.012,5.01-0.019
								c0.938-0.017,1.926-0.006,2.947-0.053c1.021-0.059,2.075-0.119,3.161-0.182c4.34-0.27,9.129-0.545,13.769-0.936
								c1.856-0.302,4.754-0.771,8.046-1.306c1.646-0.272,3.385-0.56,5.146-0.852c0.881-0.148,1.766-0.296,2.645-0.444
								c0.875-0.175,1.746-0.35,2.604-0.521c3.414-0.696,6.592-1.344,8.897-1.814c2.302-0.481,3.729-0.796,3.658-0.823
								c-2.679-0.001-6.456,0.875-11.248,1.393L92.94,74.554z M103.881,75.227c8.493-1.195,6.519-1.166,7.794-1.617
								c-2.975,0.488-5.939,1.034-8.884,1.466C103.927,74.996,104.499,74.994,103.881,75.227z M111.134,73.444
								c-0.948,0.144-1.762,0.26-2.191,0.295L111.134,73.444z M-37.824,77.471l2.062-0.314c-1.891-0.146-3.802-0.295-5.771-0.447
								C-40.906,76.958-40.237,77.184-37.824,77.471z M18.03,81.407c3.535-0.512,15.361-0.425,16.088-1.048
								c0.743-0.155-1.738-0.24-4.52-0.317c-3.111-0.046-6.438-0.095-9.958-0.146c-0.119,0.091-0.824,0.169-2,0.24
								c3.481,0.112,5.81,0.29,4.396,0.663c-8.934-0.905-8.037,0.472-17.709,0.001C1.239,81.134,15.089,81.596,18.03,81.407z
								 M753.155,29.811c0.265,0.1,1.162,0.394,2.44,0.788l-6.763-0.823c-5.975-1.074-11.314-2.237-16.53-3.264
								c-2.608-0.513-5.183-0.991-7.788-1.407c-1.302-0.208-2.611-0.4-3.936-0.573c-1.326-0.166-2.674-0.267-4.039-0.369
								c-5.021-0.912-7.67-1.706-10.217-2.412c2.476,0.377,4.793,0.74,6.713,1.066c7.635,0.738,12.396,1.56,15.664,2.143
								c3.268,0.597,5.026,1.057,6.604,1.498C738.466,27.34,740.885,28.142,753.155,29.811z M614.87,11.158
								c1.252,0.041,1.709-0.033,1.709-0.033c-6.795-0.143-13.28-0.317-19.418-0.514c-3.068-0.082-6.047-0.239-8.938-0.273
								c-2.894-0.041-5.688-0.08-8.394-0.118c-10.801-0.145-20.026-0.561-27.34-0.561c0.705,0.123,2.056,0.246,3.775,0.366
								c1.725,0.117,3.816,0.225,6.021,0.414c4.4,0.308,9.227,0.645,12.33,0.861l-5.528,0.315l-3.421-0.538
								c0,0-2.395,0.029-4.787,0.058c-1.195,0.001-2.395,0.063-3.292,0.094c-0.896,0.034-1.496,0.057-1.496,0.057
								c2.667,0.307,10.392,0.589,15.528,1.035c0.228-0.042,4.475-0.06,9.246-0.086c4.771-0.035,10.07-0.073,12.391-0.039
								c0,0-0.824-0.075-2.061-0.188c-1.233-0.128-2.883-0.233-4.533-0.336c-3.301-0.213-6.603-0.426-6.603-0.426
								c0.894,0.069,2.653,0.155,4.91,0.247c2.254,0.089,4.998,0.169,7.843,0.365c5.689,0.333,11.811,0.659,15.283,0.813
								c0.154-0.252-11.798-1.416-13.332-0.945c-1.4-0.478,12.393,0.396,3.691-0.574c5.185,0.122,11.883,0.531,18.24,0.994
								c3.184,0.2,6.269,0.531,9.035,0.841c2.769,0.311,5.217,0.586,7.121,0.799l1.236,0.766c8.325,1.003,5.717-0.275,15.609,0.993
								c-12.217-0.971,1.992,0.896-7.726,0.073c3.067,0.523-0.006,0.691,9.724,1.517c8.164,0.041,10.162,1.714,17.871,1.834
								c5.067,0.86-5.547-0.122,4.463,1.157c11.555,0.887,10.938,0.485,11.734-0.051c-10.752-1.431-12.188-0.595-20.979-1.771
								l17.633,0.965c-3.203-0.525-5.59-0.818-7.599-1.008c3.521,0.346,6.533,0.535,9.125,0.615
								c1.476,0.034,2.824,0.117,4.074,0.209c-9.913-1.271-18.743-2.23-20.271-2.703l1.402-0.144
								c-3.484-0.687-9.248-1.135-11.914-1.22c-4.448-0.551-8.923-0.779-12.516-1.051c-3.59-0.262-6.306-0.498-7.263-0.782
								l3.417,0.027c-5.491-0.449-8.543-0.698-11.95-0.977C625.536,11.979,621.788,11.54,614.87,11.158z M256.393,41.065
								c6.766-0.315,14.115-1.119,44.57-7.481l-2.393,0.56c3.878-0.598,7.676-1.341,11.494-2.138
								c3.825-0.758,7.665-1.591,11.607-2.441c3.949-0.831,7.99-1.764,12.252-2.5c4.258-0.759,8.713-1.474,13.446-2.084
								c-9.062,1.991-8.579,1.812-18.467,4.556c0,0,2.422-0.55,4.856-1.029c2.433-0.495,4.86-0.99,4.86-0.99
								c-2.606,1.062,7.101-0.913,14.283-2.11l-6.215,1.794c-4.349,0.53-15.521,2.36-15.165,2.467
								c2.432-0.522-14.876,1.819-24.145,3.831c1.043,0.236,20.672-3.586,12.043-1.174c3.836-0.888,6.02-1.257,8.244-1.614
								c2.229-0.365,4.5-0.707,8.537-1.467c-7.711,1.668-1.813,0.955-7.516,2.371c0,0,3.3-0.676,6.615-1.262
								c3.313-0.607,6.624-1.214,6.624-1.214c0.187,0.051-4.633,0.965-8.125,1.708c-1.748,0.363-3.158,0.716-3.448,0.881
								c-0.289,0.172,0.536,0.109,3.282-0.196c5.278-1.161,19.53-3.266,19.696-3.829l0.353,0.104
								c9.997-1.417,4.276-1.409,16.582-2.981c0.097-0.283-2.265-0.109-6.651,0.614c-3.683,0.697-4.213,1.088-11.818,2.4
								c-1.743,0.092,0.557-0.3,2.617-0.657c2.063-0.338,3.896-0.675,1.188-0.616c-2.701,0.044-20.088,3.713-14.646,1.975
								l9.964-1.585c0.083-0.275,1.921-0.739,3.715-1.125c1.793-0.386,3.535-0.751,3.402-0.947c6.07-1.121,11.91-1.408,18.078-2.812
								c2.543-0.698-2.074-0.715,8.308-1.813c2.045-0.073,5.063-0.334,8.583-0.705c3.52-0.368,7.529-0.879,11.585-1.268
								c8.101-0.843,16.288-1.84,20.755-2.357l7.811-1.025c-0.348-0.132-4.09,0.208-7.125,0.474
								c-3.033,0.268-5.347,0.559-2.854,0.056c0,0,0.76-0.104,1.901-0.218c1.146-0.113,2.672-0.263,4.199-0.413
								c3.055-0.301,6.104-0.601,6.104-0.601l-0.916,0.284c4.052-0.311,8.181-0.893,11.868-1.334
								c-3.785,0.714-12.611,1.338-10.813,1.731c5.748-0.396,6.641-0.27,11.922-0.841c-1.154,0.141-2.146,0.282-1.99,0.346
								c5.811-0.432,8.615-0.664,10.317-1.008c1.707-0.316,2.317-0.614,3.771-0.796c11.664-1.46-11.854,0.082-10.396-0.553
								c0,0,0.533-0.058,1.468-0.121c0.938-0.068,2.271-0.166,3.874-0.283c3.206-0.234,7.479-0.546,11.755-0.859
								c4.273-0.288,8.548-0.678,11.76-0.805c3.211-0.156,5.354-0.259,5.354-0.259c-2.916,0.294-5.85,0.588-4.742,0.77
								c8.412-0.079,0.217,0.418,12.013-0.075c-0.437-0.359,3.272-0.623,8.13-0.893c1.214-0.065,2.5-0.134,3.813-0.205
								c1.313-0.041,2.647-0.083,3.963-0.124c2.631-0.084,5.176-0.185,7.258-0.323c3.908,0.252,4.709,0.303-3.813,0.434
								c0.985,0.474,12.418,0.123,16.483,0.108c1.176-0.077,2.771-0.15,4.388-0.217c1.617-0.034,3.256-0.068,4.526-0.094
								c-3.4-0.282-1.957-0.571,5.439-0.695l0.434-0.098c-3.026-0.08-6.479-0.172-10.064-0.267
								c-3.589-0.007-7.316-0.014-10.907-0.021c-7.177,0.017-13.79,0.099-17.58,0.41l2.146-0.276
								c-7.021-0.035-14.645,0.56-21.316,0.958c-3.339,0.191-6.439,0.369-9.109,0.521c-2.672,0.157-4.916,0.209-6.543,0.082
								c0.574-0.402-2.818,0.097-2.606-0.445l-10.292,1.074l2.133-0.377c0,0-1.098,0.078-2.741,0.195
								c-1.646,0.13-3.84,0.243-6.026,0.458c-4.377,0.415-8.754,0.83-8.754,0.83l0.459-0.14c-4.143,0.608-7.832,1.15-11.137,1.634
								c-1.648,0.246-3.203,0.477-4.667,0.695c-1.46,0.251-2.831,0.488-4.121,0.71c0.005,0.231,0.558,0.241-2.194,0.716
								c-2.758,0.419-4.862,0.67-6.744,0.848c-0.02,0.003-0.02,0.003-0.02,0.005l-0.001-0.003c-4.28,0.418-7.183,0.369-12.461,0.87
								c0,0,1.01-0.152,2.533-0.315c1.521-0.174,3.55-0.405,5.579-0.637c4.059-0.463,8.115-0.927,8.115-0.927
								c1.279-0.535-0.143-0.785-8.134-0.175c3.248-0.375,4.578-0.828,0.542-0.427c-0.438,0.15-10.619,1.427-6.688,1.304
								c-3.851,0.509-8.291,1.085-13.168,1.656c-2.438,0.287-4.981,0.585-7.609,0.894c-1.314,0.155-2.648,0.313-4.002,0.472
								c-1.35,0.187-2.718,0.375-4.102,0.566c-5.535,0.769-11.314,1.594-17.162,2.495c-5.838,0.95-11.729,2.071-17.506,3.233
								c16.621-3.289-13.467,1.767,5.039-1.553c-6.521,0.8-9.285,1.413-12.062,2.129c-2.771,0.742-5.56,1.553-12.14,2.734
								c-1.158-0.012,7.164-1.31,10.105-2.311c-10.957,1.922-20.145,3.857-29.189,5.997c-9.063,2.045-18.002,4.238-28.539,6.386
								l-1.002-0.285C265.364,38.946,260.965,39.985,256.393,41.065z M215.052,51.053c-4.021,0.974-8.097,1.962-12.24,2.967
								c0.401-0.086,0.784-0.168,1.204-0.259l-12.021,3.14c7.479-1.508,12.508-2.104,2.145,0.513
								c0.833-0.396-2.271,0.057,1.324-0.883c-7.043,1.31-22.448,4.413-18.289,4.252c13.291-3.667,3.335,0.219,13.783-2.633
								c-5.564,1.73-11.229,2.767-16.527,4.166c5.49-1.632-1.49-0.58-9.914,0.992c-1.813,0.447-5.195,1.168-8.875,1.962
								c-3.69,0.749-7.686,1.561-10.705,2.262c2.256,0.01-2.992,1.317,6.938-0.543c-3.607,0.823-9.218,2.085-15.582,3.045
								c2.496-0.504,6.852-1.479,6.518-1.563c-4.143,0.436-8.918,1.292-11.586,1.596c-2.096,0.403-4.219,0.811-6.283,1.208
								c0.623-0.072,1.17-0.12,1.566-0.125c0,0-1.73,0.414-3.461,0.827c-1.729,0.428-3.469,0.796-3.469,0.796
								c9.276-1.828,4.334-0.554,4.267-0.259c0.079-0.288-1.418-0.017-3.345,0.359c-1.932,0.356-4.279,0.848-5.885,1.11
								c0,0,1.766-0.138,3.526-0.275c0.883-0.069,1.769-0.138,2.431-0.189c0.662-0.059,1.103-0.098,1.103-0.098
								c-3.321,0.832-11.954,1.487-10.104,1.758c3.703-0.542,6.836-1,9.66-1.414c2.813-0.502,5.313-0.949,7.771-1.389
								c4.914-0.906,9.65-1.792,16.255-3.23l-5.461,0.646c7.442-1.637,9.782-1.913,12.358-2.2c2.582-0.272,5.39-0.599,13.746-2.396
								c6.887-1.808,25.097-5.554,25.271-6.383c-2.024,0.714,10.532-1.674,16.157-3.321c6.15-2.144,25.189-6.613,19.341-5.609
								c-5.147,1.171-11.999,3.148-16.241,3.638l9.956-2.436l-6.646,1.119C217.155,51.562,216.745,51.26,215.052,51.053z
								 M-11.468,73.209c-0.117-0.009-0.252-0.019-0.392-0.029c0.146,0.008,0.292,0.016,0.43,0.023L-11.468,73.209z"/>
							<path fill="#9BBCC6" d="M901.888,60.022c2.918,0.499,10.017,2.191,8.716,1.489C910.677,61.966,897.903,58.603,901.888,60.022
								z"/>
							<path fill="#9BBCC6" d="M910.288,62.417c0.519,0.018,0.213-0.222,3.396,0.509l-8.787-1.946L910.288,62.417z"/>
							<path fill="#9BBCC6" d="M918.497,67.331c4.607,0.725,7.49,1.297,14.551,3.109c2.396,1.698-11.617-2.691-15.08-2.42
								c6.496,1.528,10.75,2.496,14.754,3.246c3.996,0.777,7.715,1.46,13.049,2.764C940.588,72.287,919.11,66.537,918.497,67.331z"
								/>
							<polygon fill="#9BBCC6" points="912.423,67.257 919.706,68.722 918.999,68.494 911.715,67.028 							"/>
							<path fill="#9BBCC6" d="M756.93,24.338c-0.6-0.442-5.246-0.892-7.718-1.231C751.202,23.466,753.995,24.015,756.93,24.338z"/>
							<path fill="#9BBCC6" d="M569.214,5.992c7.63,0.131,13.148,0.121,18.707,0.133c5.557,0.056,11.141,0.307,18.914,0.708
								c-20.398-2.081-27.051-0.37-44.189-1.744L569.214,5.992z"/>
							<path fill="#9BBCC6" d="M574.68,3.603c2.509,0.706-11.809,0.276-9.602,0.808c10.289,0.235,4.809-0.404,14.15-0.002
								L574.68,3.603z"/>
							<polygon fill="#9BBCC6" points="642.889,18.267 638.278,18.172 641.977,18.388 							"/>
							<path fill="#9BBCC6" d="M504.959,3.635l1.688-0.163c0,0-1.918-0.021-3.836-0.041c-1.918,0.026-3.834,0.052-3.834,0.052
								s1.496,0.024,2.99,0.048C503.463,3.555,504.959,3.635,504.959,3.635z"/>
							<path fill="#9BBCC6" d="M508.334,3.308l-1.688,0.165L508.334,3.308z"/>
							<polygon fill="#9BBCC6" points="636.888,19.045 643.674,19.787 647.067,19.809 							"/>
							<path fill="#9BBCC6" d="M576.877,11.834l6.134,0.033C581.79,11.86,573.419,11.295,576.877,11.834z"/>
							<polygon fill="#9BBCC6" points="458.155,5.598 450.677,6.313 451.446,6.325 458.905,5.611 							"/>
							<path fill="#9BBCC6" d="M528.95,12.578c4.229,0.41-12.197,0.303-3.504,0.594C533.177,12.988,530.042,12.787,528.95,12.578z"
								/>
							<path fill="#9BBCC6" d="M439.019,13.452c-1.013,0.089-2.063,0.198-3.069,0.339C437.155,13.658,438.165,13.546,439.019,13.452
								z"/>
							<path fill="#9BBCC6" d="M439.019,13.452c3.233-0.284,6.479-0.39,8.688-0.72C443.661,12.875,442.196,13.083,439.019,13.452z"
								/>
							<path fill="#9BBCC6" d="M401.987,17.331l2.938-0.292c-2.964,0.562-1.551,0.371,1.089-0.109
								c3.105-0.36,2.915-0.488,3.273-0.63c0.615-0.128,1.229-0.256,1.883-0.392c-0.944,0.168-1.793,0.32-2.526,0.451
								C403.844,16.885,400.911,17.233,401.987,17.331z"/>
							<path fill="#9BBCC6" d="M264.081,33.351c10.715-2.141,13.506-2.618,13.004-2.147c10.152-2.036,8.443-2.342,14.562-3.715
								c-5.746,1.195-9.205,1.915-12.948,2.693C274.96,30.968,270.927,31.786,264.081,33.351z"/>
							<path fill="#9BBCC6" d="M291.647,27.489c1.287-0.269,2.521-0.525,4.021-0.838C293.987,26.977,292.739,27.243,291.647,27.489z
								"/>
							<polygon fill="#9BBCC6" points="445.599,16.99 438.934,18.137 441.39,17.843 							"/>
							<path fill="#9BBCC6" d="M248.231,36.671c1.979-0.414,5.15-1.133,6.729-1.354C255.454,34.832,246.254,37.085,248.231,36.671z"
								/>
							<path fill="#9BBCC6" d="M290.844,34.798c1.139,0,7.938-1.504,10.734-1.979C297.584,33.575,294.198,33.569,290.844,34.798z"/>
							<path fill="#9BBCC6" d="M218.077,45.069c1.969-0.427,5.056-0.882,3.808-0.286C224.704,43.954,228.43,42.438,218.077,45.069z"
								/>
							<polygon fill="#9BBCC6" points="271.368,38.844 272.905,38.644 280.147,36.865 							"/>
							<path fill="#9BBCC6" d="M298.456,38.7c8.102-2.073-13.215,1.585,0.83-1.615c-18.309,3.225,1.516,0.302-11.92,2.976
								C295.251,38.582,299.218,38.378,298.456,38.7z"/>
							<path fill="#9BBCC6" d="M287.366,40.062c-1.148,0.232-2.396,0.484-3.731,0.755C285.128,40.514,286.323,40.272,287.366,40.062
								z"/>
							<path fill="#9BBCC6" d="M171.7,63.054c1.178-0.297,1.99-0.52,2.724-0.739C173.497,62.566,172.61,62.808,171.7,63.054z"/>
							<path fill="#9BBCC6" d="M244.653,49.748l12.1-3.373c-8.091,2.196-28.648,6.897-27.229,7.225
								c6.699-1.386,14.664-3.37,17.896-4.393L244.653,49.748z"/>
							<path fill="#9BBCC6" d="M101.483,67.289c0,0,1.32-0.222,2.64-0.51c1.313-0.273,2.633-0.546,2.633-0.546
								s-1.658,0.243-3.313,0.485c-1.658,0.234-3.319,0.413-3.319,0.413C102.024,66.98,98.665,67.901,101.483,67.289z"/>
							<path fill="#9BBCC6" d="M98.831,67.284l1.285-0.153C99.827,67.152,99.424,67.198,98.831,67.284z"/>
							<path fill="#9BBCC6" d="M194.838,57.587c3.958-0.854,7.121-1.592,10.709-2.529C204.022,55.28,194.136,57.413,194.838,57.587z
								"/>
							<path fill="#9BBCC6" d="M64.097,72.2c0,0,2.2-0.165,4.399-0.329c1.101-0.067,2.199-0.187,3.021-0.285
								c0.824-0.092,1.373-0.153,1.373-0.153s-0.603,0.063-1.5,0.156c-0.897,0.108-2.103,0.208-3.302,0.275
								c-2.4,0.162-4.807,0.323-4.807,0.323L64.097,72.2z"/>
							<path fill="#9BBCC6" d="M22.854,71.957l-1.533-0.138c0,0-1.847,0.041-3.689,0.083c-1.852,0.056-3.689,0.047-3.689,0.047
								l1.551,0.167L22.854,71.957z"/>
							<path fill="#9BBCC6" d="M77.856,82.822c6.117-0.533,10.818-1.585,9.213-1.551l-11.826,1.192
								c3.057,0.213,3.28-0.338,10.15-0.886L77.856,82.822z"/>
						</g>
					</g>
				</g>
			</g>
		</g>
	</g>
</g>
</svg>
