<?xml version="1.0" encoding="utf-8"?>
<!-- Generator: Adobe Illustrator 16.0.0, SVG Export Plug-In . SVG Version: 6.00 Build 0)  -->
<!DOCTYPE svg PUBLIC "-//W3C//DTD SVG 1.1//EN" "http://www.w3.org/Graphics/SVG/1.1/DTD/svg11.dtd">
<svg version="1.1" id="Layer_1" xmlns="http://www.w3.org/2000/svg" xmlns:xlink="http://www.w3.org/1999/xlink" x="0px" y="0px"
	 width="4041.676px" height="564.176px" viewBox="0 0 4041.676 564.176" enable-background="new 0 0 4041.676 564.176"
	 xml:space="preserve">
<g id="path_1_">
	<g>
		<g>
			<g>
				<g>
					<path fill="#C9C9C8" d="M587.963,83.525l6.898-0.257c0,0-3.574,0.071-8.939,0.177c-2.684,0.053-5.814,0.115-9.164,0.181
						c-3.354,0.082-6.93,0.02-10.506,0.037c-3.578-0.002-7.154-0.004-10.508-0.005c-1.678-0.001-3.299-0.002-4.836-0.002
						c-1.537-0.027-2.988-0.053-4.33-0.077c-5.365-0.106-8.941-0.177-8.941-0.177s3.145,0.07,7.861,0.175
						c4.717,0.156,11.01,0.114,17.301,0.146c6.291,0.013,12.582,0.074,17.299-0.059C584.817,83.58,587.963,83.525,587.963,83.525z"
						/>
					<path fill="#C9C9C8" d="M227.717,46.76c16.811,3.166,49.197,8.635,85.436,14.152c36.229,5.575,76.361,10.787,108.5,14.321
						l10.508,1.295c0,0,7.27,0.539,14.539,1.078c3.635,0.263,7.27,0.526,9.996,0.724c2.729,0.161,4.547,0.269,4.547,0.269
						c-4.896-0.35-9.873-0.829-14.928-1.297c-5.053-0.472-10.18-0.951-15.363-1.436c-10.352-1.119-20.947-2.144-31.602-3.46
						c-21.332-2.443-42.973-5.406-63.869-8.405C293.699,57.916,254.928,51.425,227.717,46.76z"/>
					<path fill="#C9C9C8" d="M36.764,15.931c5.924,0.854-4.479-0.341-5.563-0.466c0.531,0.063,1.395,0.163,8.563,1.004
						c1.832,0.216,4.008,0.474,6.58,0.778c2.568,0.332,5.533,0.715,8.943,1.155c3.41,0.441,7.268,0.94,11.617,1.503
						c4.352,0.563,9.188,1.267,14.574,2.008c-4.324-0.648-5.613-0.842-8.041-1.206c-3.873-0.567-8.496-1.16-14.42-1.944
						C53.092,17.987,45.871,16.998,36.764,15.931z"/>
					<path fill="#C9C9C8" d="M73.436,20.709C111.274,26.019,48.698,17,73.436,20.709L73.436,20.709z"/>
					<path fill="#C9C9C8" d="M-59.832,6.811c4.711,0.278,7.854,0.463,7.854,0.463"/>
					<path fill="#C9C9C8" d="M-37.48,8.912c14.074,1.103,30.17,2.828,36.486,3.469c3.152,0.362,3.857,0.491,0.639,0.185
						c-3.223-0.283-10.375-0.91-22.941-2.012c23.943,2.164,41.002,4.011,51.631,5.21c10.627,1.221,14.852,1.661,13.098,1.386
						c-1.756-0.251-9.479-1.314-22.756-2.845C5.381,12.829-13.457,10.727-37.48,8.912z"/>
					<path fill="#C9C9C8" d="M209.293,44.41l37.178,6.451l32.279,5.07C262.596,53.478,207.061,43.813,209.293,44.41z"/>
				</g>
				<g>
					<polygon fill="#C9C9C8" points="1838.858,51.114 1845.76,51.204 1788.576,49.465 					"/>
					<path fill="#C9C9C8" d="M1476.479,39.072c17.086,0.829,49.916,1.619,86.551,2.584c36.629,1.147,77.064,2.366,109.365,3.581
						l10.57,0.519l29.146,0.407c-39.246-1.246-84.354-2.678-126.551-4.018c-10.549-0.33-20.916-0.654-30.963-0.969
						c-10.049-0.257-19.779-0.507-29.053-0.744C1506.998,39.918,1490.278,39.455,1476.479,39.072z"/>
					<path fill="#C9C9C8" d="M1283.094,37.159c5.984-0.092-4.479,0.37-5.57,0.418c0.535-0.022,1.4-0.059,8.615-0.359
						c3.684-0.151,8.76-0.358,15.631-0.64c3.436-0.139,7.32-0.297,11.703-0.474c4.385-0.175,9.273-0.22,14.711-0.354
						c-4.375,0.047-5.68,0.061-8.135,0.087c-3.914,0.038-8.57,0.245-14.541,0.469C1299.537,36.534,1292.254,36.811,1283.094,37.159z
						"/>
					<path fill="#C9C9C8" d="M1320.049,35.838C1358.256,35.058,1295.031,36.122,1320.049,35.838L1320.049,35.838z"/>
					<path fill="#C9C9C8" d="M1143.906,45.662c0,0,12.541-0.956,25.084-1.911c6.27-0.495,12.545-0.935,17.252-1.247
						c4.705-0.322,7.844-0.537,7.844-0.537c-10.582,0.398-55.262,3.625-38.592,2.3c-12.889,0.968-21.891,1.645-27.686,2.081
						c-2.895,0.248-4.988,0.427-6.367,0.544c-0.689,0.067-1.197,0.117-1.539,0.15c-0.342,0.037-0.514,0.062-0.529,0.074
						c-0.029,0.025,0.574,0.003,1.723-0.06c1.148-0.07,2.844-0.172,5-0.303C1130.412,46.489,1136.574,46.111,1143.906,45.662z"/>
					<path fill="#C9C9C8" d="M1096.373,49.732l25.992-2.092C1117.772,47.922,1110.887,48.423,1096.373,49.732z"/>
					<path fill="#C9C9C8" d="M1177.428,43.469l-55.064,4.171c7.195-0.444,7.979-0.239,25.236-1.904
						C1143.18,46.262,1154.028,45.285,1177.428,43.469z"/>
					<path fill="#C9C9C8" d="M1208.664,41.592c7.047-0.389,14.604-0.896,21.201-1.194c6.596-0.303,12.223-0.561,15.393-0.706
						c6.344-0.246,2.859-0.021-22.326,1.495c24.006-1.326,41.131-2.272,51.813-2.862c10.686-0.47,14.922-0.702,13.148-0.697
						c-0.889,0.003-3.279,0.065-7.117,0.187c-3.84,0.123-9.127,0.273-15.801,0.642c-6.676,0.343-14.744,0.758-24.148,1.242
						c-4.703,0.249-9.74,0.515-15.104,0.798C1220.362,40.841,1214.674,41.207,1208.664,41.592z"/>
					<path fill="#C9C9C8" d="M1457.908,39.316l37.709,1.214l32.664,0.629C1511.951,40.844,1455.615,39.031,1457.908,39.316z"/>
					<path fill="#C9C9C8" d="M831.391,69.515c-3.125,0.376,16.932-0.815,20.617-0.885l37.072-2.978
						c-9.523,0.664-23.305,1.719-35.031,2.488C842.323,68.92,832.66,69.536,831.391,69.515z"/>
					<path fill="#C9C9C8" d="M852.008,68.63c0,0-13.84,1.063-27.678,2.125c-6.92,0.527-13.84,1.054-19.029,1.449
						c-5.193,0.364-8.654,0.606-8.654,0.606c12.379-0.769,22.223-1.542,29.984-2.095c7.762-0.583,13.438-1.008,17.467-1.311
						C852.153,68.776,853.619,68.597,852.008,68.63z"/>
					<path fill="#C9C9C8" d="M1087.41,51.211c0,0,22.777-1.864,45.555-3.728c22.787-1.757,45.572-3.514,45.572-3.514
						s-27.164,2.079-54.33,4.158c-27.152,2.224-54.305,4.447-54.305,4.447L1087.41,51.211z"/>
					<path fill="#C9C9C8" d="M619.426,80.991c0,0,7.869-0.333,15.738-0.665c3.934-0.167,7.869-0.333,10.818-0.458
						c2.951-0.113,4.918-0.232,4.918-0.232s-0.875,0.044-2.408,0.122c-1.533,0.062-3.723,0.151-6.35,0.257
						c-5.256,0.213-12.266,0.498-19.273,0.782c-7.008,0.284-14.018,0.568-19.273,0.782c-2.629,0.106-4.818,0.205-6.352,0.222
						c-1.533,0.034-2.408,0.053-2.408,0.053s1.535-0.031,3.84-0.076c2.307-0.086,5.381-0.201,8.453-0.315
						C613.278,81.228,619.426,80.991,619.426,80.991z"/>
					<path fill="#C9C9C8" d="M702.037,78.467c-4.293,0.13-12.578,0.244-43.678,1.556l21.848-0.56
						C686.871,79.158,694.377,78.816,702.037,78.467z"/>
					<path fill="#C9C9C8" d="M680.973,79.44l-0.766,0.022c-11.836,0.529-21.869,0.978-29.828,1.333
						c-7.959,0.251-13.842,0.436-17.367,0.547c3.027-0.091,8.143-0.247,15.941-0.483C656.748,80.515,667.223,80.05,680.973,79.44z"
						/>
					<path fill="#C9C9C8" d="M707.549,78.157c-1.99,0.112-3.521,0.198-5.512,0.31C704.184,78.388,705.408,78.332,707.549,78.157z"/>
					<path fill="#C9C9C8" d="M942.131,62.382c-16.275,1.386-41.377,3.524-54.197,4.616c-12.816,1.124-13.34,1.319,19.555-1.022
						C930.787,63.875,893.156,66.626,942.131,62.382z"/>
					<path fill="#C9C9C8" d="M734.682,77.158c0,0,3.686-0.203,9.213-0.506c2.764-0.152,5.988-0.329,9.443-0.518
						c3.453-0.22,7.137-0.454,10.82-0.688c14.732-0.939,29.465-1.878,29.465-1.878c-1.08-0.043-11.803,0.494,4.412-0.686
						c0,0-15.836,1.11-31.672,2.221c-3.959,0.278-7.918,0.555-11.629,0.815c-3.713,0.231-7.18,0.447-10.15,0.632
						C738.643,76.915,734.682,77.158,734.682,77.158z"/>
					<polygon fill="#C9C9C8" points="705.901,78.921 734.682,77.158 712.858,78.355 					"/>
					<path fill="#C9C9C8" d="M846.91,71.486c-3.52,0.216-3.369,0.174-3.602,0.16C835.969,72.228,833.141,72.467,846.91,71.486z"/>
					<path fill="#C9C9C8" d="M800.147,74.549c8.266-0.574,15.135-1.29,41.99-3.167c23.342-1.552-0.064,0.211,1.172,0.265
						c8.068-0.633,22.215-1.734,27.988-2.288c5.775-0.558,3.193-0.379-22.211,1.351l-7.953,0.632
						c-11.441,0.766-23.699,1.587-35.525,2.379c-11.834,0.689-23.236,1.353-32.955,1.919c-19.439,1.16-32.16,1.671-28.143,1.42
						c3.336-0.101,6.576-0.198,10.037-0.302c3.459-0.149,7.139-0.308,11.354-0.49C774.33,75.881,784.903,75.355,800.147,74.549z"/>
				</g>
				<g>
					<path fill="#C9C9C8" d="M3090.039,65.976l6.828-1.032c0,0-3.545,0.473-8.861,1.181c-5.316,0.71-12.404,1.666-19.504,2.539
						c-7.096,0.894-14.191,1.788-19.514,2.458c-5.328,0.633-8.879,1.056-8.879,1.056s3.125-0.361,7.811-0.902
						c4.682-0.578,10.924-1.349,17.166-2.12c6.24-0.772,12.484-1.53,17.158-2.16C3086.922,66.384,3090.039,65.976,3090.039,65.976z"
						/>
					<path fill="#C9C9C8" d="M2728.354,84.545c8.545,0.41,21.023,0.829,35.949,1.258c7.461,0.199,15.535,0.413,24.033,0.639
						c8.502,0.063,17.432,0.13,26.598,0.199c9.164-0.12,18.566-0.242,28.021-0.365c9.449-0.294,18.951-0.59,28.316-0.882
						c9.359-0.437,18.584-0.867,27.488-1.283c8.9-0.468,17.473-1.046,25.543-1.499c0,0,2.645-0.124,5.287-0.247
						c2.643-0.155,5.285-0.31,5.285-0.31s7.256-0.697,14.512-1.395c3.627-0.349,7.254-0.697,9.973-0.958
						c2.717-0.295,4.529-0.491,4.529-0.491c-9.779,0.869-19.939,1.578-30.318,2.413c-10.385,0.755-21.01,1.373-31.723,2.082
						c-10.723,0.514-21.535,1.11-32.309,1.534c-5.389,0.172-10.768,0.343-16.115,0.513c-2.676,0.085-5.344,0.17-8.002,0.254
						c-2.658,0.086-5.309,0.083-7.947,0.129C2795.24,86.989,2755.948,85.248,2728.354,84.545z"/>
					<path fill="#C9C9C8" d="M2535.098,76.793c11.945,0.695-41.854-1.227,45.061,1.664c-4.367-0.19-5.67-0.248-8.121-0.354
						C2564.221,77.826,2553.414,77.442,2535.098,76.793z"/>
					<path fill="#C9C9C8" d="M2572.037,78.103C2610.203,79.419,2547.061,76.995,2572.037,78.103L2572.037,78.103z"/>
					<path fill="#C9C9C8" d="M2395.774,71.695l50.279,1.702c-10.568-0.574-55.318-2.347-38.609-1.818
						C2355.789,69.711,2366.436,70.287,2395.774,71.695z"/>
					<path fill="#C9C9C8" d="M2348.09,70.368l26.059,0.905C2369.553,71.026,2362.658,70.733,2348.09,70.368z"/>
					<path fill="#C9C9C8" d="M2429.33,73.19l-55.182-1.918c7.199,0.395,7.955,0.655,25.291,0.9
						C2394.987,72.211,2405.875,72.431,2429.33,73.19z"/>
					<path fill="#C9C9C8" d="M2460.592,74.511c28.193,1.25,64.666,2.762,14.234,1.052c24.023,0.936,41.166,1.467,51.857,1.78
						c10.689,0.315,14.932,0.395,13.162,0.271C2536.307,77.337,2508.717,76.382,2460.592,74.511z"/>
					<path fill="#C9C9C8" d="M2709.781,84.783l37.717,1.229l32.666,0.642C2763.832,86.332,2707.489,84.497,2709.781,84.783z"/>
					<path fill="#C9C9C8" d="M2082.61,58.87c-3.146,0.026,16.92,1.078,20.59,1.419l37.172,1.307
						C2121.295,60.726,2085.131,59.197,2082.61,58.87z"/>
					<path fill="#C9C9C8" d="M2103.199,60.289l-55.488-1.947C2097.287,60.345,2106.412,60.583,2103.199,60.289z"/>
					<polygon fill="#C9C9C8" points="2339.016,70.808 2430.383,73.803 2321.467,70.135 					"/>
					<polygon fill="#C9C9C8" points="1870.42,50.539 1901.93,51.376 1845.813,49.791 					"/>
					<path fill="#C9C9C8" d="M1953,54.5c-4.287-0.254-12.553-0.859-43.662-2.121l21.824,1.251
						C1937.828,53.896,1945.338,54.194,1953,54.5z"/>
					<path fill="#C9C9C8" d="M1931.926,53.671l-0.764-0.042c-23.682-0.906-40.158-1.536-47.207-1.806
						C1890.01,52.057,1904.416,52.612,1931.926,53.671z"/>
					<path fill="#C9C9C8" d="M1958.518,54.721c-1.992-0.08-3.525-0.142-5.518-0.221
						C1955.145,54.627,1956.369,54.689,1958.518,54.721z"/>
					<path fill="#C9C9C8" d="M2193.44,64.599c-32.652-1.072-100.709-3.548-34.824-0.538
						C2181.998,64.708,2144.307,62.986,2193.44,64.599z"/>
					<path fill="#C9C9C8" d="M1985.623,56.333l59,2.445c-1.068-0.156-11.791-0.747,4.461-0.22L1985.623,56.333z"/>
					<polygon fill="#C9C9C8" points="1956.805,55.323 1985.623,56.333 1963.785,55.429 					"/>
					<path fill="#C9C9C8" d="M2097.813,62.559c-3.523-0.178-3.367-0.202-3.598-0.243
						C2086.858,62.077,2084.02,61.999,2097.813,62.559z"/>
					<path fill="#C9C9C8" d="M2051.004,60.438c8.279,0.269,15.182,0.371,42.076,1.485c23.365,1.06-0.084,0.203,1.135,0.394
						c16.174,0.528,56.717,1.946,5.846-0.287l-7.973-0.259c-45.816-1.97-104.723-4.852-96.674-4.59
						C2008.733,58.098,2020.522,58.844,2051.004,60.438z"/>
				</g>
				<g>
					<path fill="#C9C9C8" d="M3973.557,45.374"/>
					<path fill="#C9C9C8" d="M3782.59,14.626c5.92,0.9-4.475-0.386-5.564-0.488c-0.541-0.065,1.246,0.124,8.561,1.047
						c3.658,0.457,8.699,1.086,15.523,1.938c6.822,0.861,15.41,2.077,26.188,3.531c-4.326-0.635-5.615-0.825-8.045-1.182
						c-3.875-0.537-8.492-1.176-14.41-1.996C3798.914,16.718,3791.686,15.792,3782.59,14.626z"/>
					<path fill="#C9C9C8" d="M3819.252,19.473C3857.1,24.701,3794.51,15.809,3819.252,19.473L3819.252,19.473z"/>
					<path fill="#C9C9C8" d="M3643.522,4.166c0,0,3.146,0.027,7.867,0.067c4.723-0.03,11.014,0.267,17.307,0.471
						c3.146,0.11,6.295,0.22,9.244,0.323c2.953,0.07,5.695,0.311,8.055,0.428c4.713,0.281,7.854,0.469,7.854,0.469
						c-2.641-0.192-7.418-0.539-12.836-0.932c-5.424-0.29-11.498-0.524-16.717-0.764c-2.609-0.117-5.004-0.223-7-0.313
						c-1.996-0.083-3.592-0.083-4.6-0.117c-2.016-0.05-1.68-0.07,2.508-0.043c-6.471-0.066-11.967-0.123-16.572-0.17
						c-2.303-0.021-4.381-0.039-6.25-0.056c-1.867,0.029-3.523,0.055-4.977,0.077c-2.91,0.058-5.014,0.099-6.398,0.126
						c-0.691,0.022-1.203,0.038-1.547,0.048c-0.344,0.015-0.518,0.027-0.533,0.039c-0.031,0.023,0.572,0.041,1.725,0.054
						c1.15,0.006,2.852,0.015,5.016,0.027c2.162,0.018,4.789-0.022,7.793,0.035C3636.463,4.004,3639.846,4.082,3643.522,4.166z"/>
					<path fill="#C9C9C8" d="M3595.801,5.165c0,0,6.518-0.219,13.035-0.438c6.521-0.094,13.043-0.188,13.043-0.188
						c-2.303-0.01-5.18-0.004-9.305,0.049C3608.449,4.594,3603.084,4.835,3595.801,5.165z"/>
					<path fill="#C9C9C8" d="M3677.121,5.358c0,0-3.453-0.124-8.631-0.31c-5.178-0.167-12.08-0.513-18.988-0.498
						c-6.906-0.046-13.814-0.17-18.992-0.136c-5.178,0.074-8.631,0.124-8.631,0.124c3.607,0.02,5.602,0.086,8.861,0.071
						c3.26-0.009,7.785,0.054,16.459-0.059C3642.746,4.752,3653.647,4.42,3677.121,5.358z"/>
					<path fill="#C9C9C8" d="M3708.356,7.5c7.029,0.633,14.574,1.313,21.154,1.905c6.566,0.705,12.168,1.306,15.324,1.645
						c3.154,0.354,3.861,0.465,0.639,0.188c-1.611-0.146-4.203-0.382-7.965-0.725c-3.762-0.332-8.684-0.871-14.977-1.326
						c5.996,0.452,11.543,1.072,16.676,1.56c5.131,0.506,9.842,0.972,14.135,1.396c8.578,0.952,15.498,1.72,20.814,2.31
						c10.631,1.194,14.84,1.733,13.092,1.425c-0.877-0.143-3.244-0.475-7.051-0.986c-3.807-0.514-9.064-1.104-15.703-1.895
						c-3.32-0.388-6.986-0.816-10.992-1.284c-4.012-0.409-8.365-0.854-13.051-1.331c-4.689-0.454-9.701-1.019-15.057-1.468
						C3720.039,8.47,3714.358,7.999,3708.356,7.5z"/>
					<path fill="#C9C9C8" d="M3955.133,43.02l37.166,6.5l32.246,5.251C4008.424,52.126,3952.908,42.39,3955.133,43.02z"/>
					<path fill="#C9C9C8" d="M3331.336,30.58c-3.096,0.569,16.846-1.932,20.521-2.219c0,0,9.211-1.29,18.42-2.581
						c9.217-1.251,18.432-2.503,18.432-2.503C3369.752,25.6,3333.869,30.42,3331.336,30.58z"/>
					<path fill="#C9C9C8" d="M3351.858,28.361c0,0-13.742,1.966-27.484,3.931c-13.734,2.008-27.471,4.015-27.471,4.015
						C3346.031,29.355,3355.076,28.115,3351.858,28.361z"/>
					<path fill="#C9C9C8" d="M3586.783,6.243c0,0,5.709-0.215,14.271-0.538c2.141-0.078,4.459-0.163,6.912-0.252
						c2.455-0.041,5.043-0.083,7.721-0.126c5.354-0.086,11.066-0.178,16.779-0.27c5.713,0.042,11.426,0.084,16.781,0.124
						c2.68,0.025,5.268,0.049,7.723,0.072c2.455,0.083,4.773,0.162,6.916,0.234c8.566,0.291,14.277,0.484,14.277,0.484
						s-6.807-0.237-17.02-0.593c-5.105-0.249-11.068-0.188-17.453-0.27c-3.191-0.026-6.49-0.054-9.844-0.082
						c-3.352-0.024-6.756,0.083-10.162,0.12c-3.404,0.053-6.809,0.105-10.16,0.157c-3.352,0.046-6.65,0.09-9.84,0.235
						c-6.381,0.234-12.336,0.453-17.439,0.641c-2.553,0.081-4.891,0.185-6.961,0.315c-2.072,0.116-3.879,0.216-5.365,0.299
						c-2.975,0.166-4.676,0.261-4.676,0.261s4.385-0.224,8.77-0.448C3582.395,6.351,3586.783,6.243,3586.783,6.243z"/>
					<path fill="#C9C9C8" d="M3121.073,60.2c0,0,7.797-1.121,15.596-2.242c7.793-1.155,15.586-2.31,15.586-2.31
						s-3.471,0.508-8.676,1.271c-5.209,0.748-12.152,1.746-19.098,2.744c-6.945,0.982-13.893,1.964-19.102,2.701
						c-5.215,0.706-8.691,1.177-8.691,1.177s6.098-0.822,12.195-1.644C3114.979,61.049,3121.073,60.2,3121.073,60.2z"/>
					<path fill="#C9C9C8" d="M3203.067,49.703c-4.264,0.516-12.496,1.465-43.344,5.653l21.703-2.598
						C3188.031,51.825,3195.473,50.774,3203.067,49.703z"/>
					<path fill="#C9C9C8" d="M3182.186,52.664l-0.76,0.094c-23.463,3.313-39.809,5.465-46.797,6.434
						c3.002-0.408,8.074-1.096,15.805-2.146C3158.162,55.979,3168.551,54.545,3182.186,52.664z"/>
					<path fill="#C9C9C8" d="M3208.531,48.924c-1.973,0.281-3.492,0.498-5.465,0.779
						C3205.198,49.441,3206.414,49.28,3208.531,48.924z"/>
					<path fill="#C9C9C8" d="M3441.574,17.692c-32.443,3.873-99.908,13.091-34.465,5c11.586-1.588,8.014-1.27,7.637-1.357
						c-0.189-0.044,0.422-0.189,4.125-0.725C3422.571,20.051,3429.377,19.208,3441.574,17.692z"/>
					<path fill="#C9C9C8" d="M3235.481,45.599l58.465-8.305c-1.08,0.04-11.732,1.394,4.346-1.021L3235.481,45.599z"/>
					<polygon fill="#C9C9C8" points="3206.957,49.825 3235.481,45.599 3213.84,48.668 					"/>
					<path fill="#C9C9C8" d="M3346.951,31.535c-3.5,0.438-3.352,0.387-3.584,0.388C3336.082,32.973,3333.276,33.391,3346.951,31.535
						z"/>
					<path fill="#C9C9C8" d="M3300.52,37.773c8.189-1.233,14.998-2.375,41.66-6.041c23.189-3.028-0.047,0.215,1.188,0.19
						c16.012-2.316,56.186-7.9,5.703-1.302l-7.895,1.135c-45.439,6.133-103.871,14.132-95.914,12.896
						C3258.526,43.144,3270.252,41.699,3300.52,37.773z"/>
				</g>
			</g>
		</g>
	</g>
	<g>
		<g>
			<g>
				<g>
					<g>
						<g>
							<path fill="#B4AE4F" d="M989.686,56.136c4.248-0.396,7.986-0.386,6.4-0.118c8.643-1.073,8.861-0.66,9.918-1.477
								c5.541-0.804,11.523-0.788,5.215,0.016l16.008-1.734l-9.609,0.658c2.57-0.814,15.352-1.051,18.342-2.001l-17.377,1.455
								l0.857-0.271c-3.939,0.534-11.633,1.061-14.314,1.191c0.418-0.134,0.127-0.273,3.189-0.537
								c-20.967,1.638-5.561,1.511-22.941,3.11C986.459,56.327,987.807,56.228,989.686,56.136z"/>
							<path fill="#B4AE4F" d="M971.742,56.084l-7.254,1.342l-12.289,0.784c-0.109,0.272-9.041,1.198-2.971,0.946
								c1.186-0.136,3.52-0.401,5.414-0.528c-1.328,0.675-16.297,1.585-12.65,1.87c9.699-0.925,11.195-0.919,17.137-1.856
								c8.898-0.657,15.389-1.044,19.564-1.17c2.629-0.296,2.973-0.674,6.328-1.013c-0.742,0.067-1.428,0.128-2.281,0.205
								l-0.432-0.821c-2.779,0.403-5.441,0.53-8.541,0.795l14.291-2.145c-4.705-0.42-18.779,1.172-24.449,1.292
								C970.666,55.944,958.069,56.587,971.742,56.084z"/>
							<path fill="#B4AE4F" d="M985.022,56.459c0.094-0.008,0.242-0.021,0.354-0.03C985.264,56.438,985.115,56.451,985.022,56.459z"
								/>
							<path fill="#B4AE4F" d="M-55.849,10.985c-1.061-0.292-10.938-1.202-4.316-0.913"/>
							<path fill="#B4AE4F" d="M-58.775,3.458c0.014-0.027,0.086-0.047-0.088-0.096l-3.123,0.07
								c0.047,0.003,0.066,0.004,0.084,0.005C-60.761,3.444-59.73,3.451-58.775,3.458z"/>
							<path fill="#B4AE4F" d="M34.883,9.195c0,0-3.836-0.334-7.672-0.669c-3.834-0.354-7.68-0.619-7.68-0.619
								c2.07-0.017-5.326-0.746-2.068-0.674c-1.176-0.089-6.654-0.586-5.18-0.302l3.125,0.322c-8.146-0.169-3.283,0.599-16.723-0.28
								c8.27,1.272,11.938,1.317,16.383,1.468c1.49,0.125,2.734,0.23,4.006,0.336c0,0,0.801,0.025,2.006,0.063
								c1.203,0.037,2.813,0.085,4.41,0.163c3.207,0.14,6.414,0.28,6.414,0.28L34.883,9.195z"/>
							<path fill="#B4AE4F" d="M-65.511,13.285c19.412,0.956-2.691-1.667,19.525-0.671c-2.939,0.209,5.895,1.66,16.188,2.66
								c-6.18-0.43-17.609-0.905-25.568-1.59c11.195,1.381-15.459-0.908-9.684,0.223c2.789-0.002,6.498,0.133,10.41,0.35
								c3.912,0.208,8.025,0.513,11.621,0.922l-2.363-0.11c7.646,0.721,13.533,0.237,24.082,1.509
								c5.252,0.47,4.25,0.615,3.309,0.726c4.463,0.292,8.453,0.503,8.445,0.69l-3.947,0.534
								c-10.996-0.985-18.482-1.533-25.623-2.142c-3.566-0.287-7.051-0.633-10.848-0.888c-3.797-0.248-7.902-0.515-12.715-0.829
								c-1.463-0.218,0.873-0.146,2.059-0.111 M-21.002,17.088c0,0-1.754-0.186-3.508-0.373c-1.754-0.161-3.512-0.322-3.512-0.322
								C-26.367,16.661-23.74,16.865-21.002,17.088z"/>
							<path fill="#B4AE4F" d="M873.01,63.946c0.709-0.032,1.508-0.068,2.15-0.097C874.684,63.846,873.875,63.891,873.01,63.946z"/>
							<path fill="#B4AE4F" d="M247.899,45.494l4.035,0.702C250.36,45.907,249.074,45.685,247.899,45.494z"/>
							<path fill="#B4AE4F" d="M339.16,57.115l5.949,0.659C342.772,57.46,340.93,57.277,339.16,57.115z"/>
							<path fill="#B4AE4F" d="M824.239,67.456l-0.205,0.009c-0.332,0.04-0.592,0.071-0.943,0.114L824.239,67.456z"/>
							<path fill="#B4AE4F" d="M522.055,77.238c0.906,0.113,1.922,0.224,3.311,0.338C525.203,77.484,523.963,77.367,522.055,77.238z
								"/>
							<path fill="#B4AE4F" d="M338.071,56.99c0.146,0.028,0.236,0.046,0.355,0.069c0.232,0.018,0.492,0.038,0.734,0.056
								L338.071,56.99z"/>
							<path fill="#B4AE4F" d="M208.311,36.344c-0.877-0.119-1.672-0.226-2.605-0.353C206.932,36.18,207.69,36.276,208.311,36.344z"
								/>
							<path fill="#B4AE4F" d="M213.615,39.673c-0.939-0.137-1.826-0.259-2.529-0.34L213.615,39.673z"/>
							<path fill="#B4AE4F" d="M73.588,15.913l-5.51-0.638C70.783,15.611,72.395,15.813,73.588,15.913z"/>
							<path fill="#B4AE4F" d="M199.285,36.705c-0.32-0.014-0.639-0.028-0.865-0.028C199.178,36.777,199.555,36.79,199.285,36.705z"
								/>
							<path fill="#B4AE4F" d="M908.188,63.76c-0.119,0.01-0.26,0.022-0.334,0.029l-0.121,0.108L908.188,63.76z"/>
							<path fill="#B4AE4F" d="M921.481,61.494c1.578-0.146,3.229-0.298,4.842-0.448C924.522,61.186,922.778,61.344,921.481,61.494z
								"/>
							<path fill="#B4AE4F" d="M601.981,79.255c1.463,0.077,4.896,0.116,3.301,0.306C608.067,79.296,607.869,78.874,601.981,79.255z
								"/>
							<path fill="#B4AE4F" d="M881.756,71.124c0.865-0.181,1.955-0.354,3.043-0.524C882.766,70.881,880.99,71.121,881.756,71.124z"
								/>
							<path fill="#B4AE4F" d="M884.799,70.6c0.998-0.142,2.07-0.294,2.969-0.421C886.721,70.314,885.723,70.456,884.799,70.6z"/>
							<path fill="#B4AE4F" d="M564.85,86.606c-0.373-0.061-0.932-0.113-1.697-0.134C563.375,86.588,563.992,86.618,564.85,86.606z"
								/>
							<path fill="#B4AE4F" d="M930.233,60.871c0.855-0.271,21.857-2.388,4.156-1.079c0.637-0.682,11.32-1.195,16.023-1.727
								c-3.428,0.125,1.678-0.539,0.619-0.68c-2.334,0.263-5.104,0.666-8.969,0.929c-1.805-0.144,4.047-0.807,8.641-1.066
								c-5.67,0.12,7.127-1.069-0.887-0.685c-17.053,1.59-29.104,2.775-41.045,4.609c9.719-0.897,20.602-1.934,28.605-2.329
								l-3.318,0.811c-9.061,0.25-14.604,1.028-23.482,1.666l19.965-1.267c9.375-0.294,3.125,0.309-4.219,0.994
								C928.123,60.91,929.77,60.811,930.233,60.871z"/>
							<path fill="#B4AE4F" d="M917.18,66.68l0.336-0.01c0.285-0.042,0.646-0.083,0.832-0.12L917.18,66.68z"/>
							<path fill="#B4AE4F" d="M73.086,26.959l-1.732-0.036C72.785,27.032,73.235,27.03,73.086,26.959z"/>
							<path fill="#B4AE4F" d="M905.069,64.974l0.02-0.001C904.959,64.988,904.922,64.991,905.069,64.974z"/>
							<path fill="#B4AE4F" d="M115.297,33.167c-0.057,0.005-0.113,0.013-0.227,0.012C115.219,33.186,115.223,33.17,115.297,33.167z
								"/>
							<path fill="#B4AE4F" d="M128.395,23.34c-0.078-0.038-0.102-0.065-0.283-0.119C127.203,23.11,127.643,23.205,128.395,23.34z"
								/>
							<path fill="#B4AE4F" d="M115.342,33.123c-0.002,0.017,0.023,0.037-0.045,0.044C115.338,33.156,115.414,33.15,115.342,33.123z
								"/>
							<path fill="#B4AE4F" d="M320.809,64.576c0,0-0.631-0.189-1.65-0.432C318.764,64.136,319.143,64.252,320.809,64.576z"/>
							<path fill="#B4AE4F" d="M280.369,57.4c-0.254-0.062-0.4-0.098-0.727-0.178L280.369,57.4z"/>
							<path fill="#B4AE4F" d="M592.26,76.979c-2.021,0.017-3.539,0.05-4.818,0.089C588.924,77.064,590.518,77.042,592.26,76.979z"
								/>
							<path fill="#B4AE4F" d="M115.071,33.18c-0.432-0.008-1.047-0.049-2.051-0.123C114.135,33.143,114.713,33.179,115.071,33.18z"
								/>
							<path fill="#B4AE4F" d="M383.182,70.553c-0.436-0.037-0.846-0.071-1.254-0.104c0.238,0.04,0.496,0.083,0.734,0.124
								L383.182,70.553z"/>
							<path fill="#B4AE4F" d="M404.395,73.537c-0.729-0.025-1.068-0.001-1.482,0.005c3.803,0.39,9.195,0.942,13.848,1.419
								c4.652,0.461,8.566,0.799,9.42,0.6c-2.578-0.263-15.914-2.04-13.598-2.132c-5.314-0.41-13.082-1.811-15.943-2.04
								c8.654,1.357,0.887,0.598-5.002,0.088c-5.305-0.807,1.057-0.342-3.518-1c0,0-0.77-0.089-1.928-0.222
								c-1.154-0.146-2.695-0.339-4.236-0.534c-3.082-0.388-6.164-0.775-6.164-0.775l10.721,1.48l-3.33,0.127
								c0.4,0.033,0.678,0.056,1.105,0.092C402.498,72.612,385.723,71.649,404.395,73.537z"/>
							<path fill="#B4AE4F" d="M402.912,73.542c-1.15-0.103-2.156-0.181-2.939-0.215C401.696,73.524,402.367,73.548,402.912,73.542z
								"/>
							<path fill="#B4AE4F" d="M477.348,81.605c0.932,0.059,1.955,0.109,3.244,0.141C479.975,81.731,478.559,81.669,477.348,81.605z
								"/>
							<path fill="#B4AE4F" d="M-65.789,8.688c0.307,0.184,10.926,1.202,10.76,0.762c-3.154-0.246-6.338-0.495-9.529-0.744
								L-65.789,8.688z"/>
							<path fill="#B4AE4F" d="M681.092,79.344l-3.572,0.153c-0.258,0.037-0.5,0.071-0.686,0.098
								C677.563,79.624,679.905,79.438,681.092,79.344z"/>
							<path fill="#B4AE4F" d="M415.883,73.581c-1.951-0.144-2.83-0.17-3.301-0.152C413.846,73.53,415.018,73.601,415.883,73.581z"
								/>
							<path fill="#B4AE4F" d="M681.811,80.33c1.512,0.053,3.754,0.137,4.078,0.285c3.09-0.138,5.258-0.462,8.398-0.686
								C690.735,80.154,686.619,80.3,681.811,80.33z"/>
							<path fill="#B4AE4F" d="M694.547,79.909c-0.094,0.007-0.186,0.014-0.26,0.02C694.379,79.922,694.453,79.916,694.547,79.909z"
								/>
							<path fill="#B4AE4F" d="M-55.638,0.517c1.746-0.292-11.6-0.878-9.221-0.805c9.039,0.388,15.18,0.875,21.035,1.63
								c5.854,0.75,11.451,1.597,19.43,2.489c0.914-0.132,0.764-0.58,6.383-0.402c-1.787,0.237,2.33,0.834-3.982,0.534
								c5.318,0.675,11.676,0.979,16.404,1.269c-11.098-1.285,4.602-0.158,6.676-0.186C6.834,5.738-0.703,5.24-4.256,5.054
								C0.358,5.569,5.774,6.795,8.461,6.467C8.53,6.689,5.274,6.618,0.934,6.39c-4.346-0.188-9.783-0.488-14.064-0.842l5.766,0.614
								c-4.004-0.16-4.742-0.292-10.467-0.9c5.59,0.86,4.996,1.17,3.666,1.349c-0.736-0.132,0.418-0.062-0.283-0.189
								c-4.604-0.544-8.146-0.763-7.107-0.438c-4.197,0.177,6.367,0.962,9.463,1.542c2.365,0.186,4.729,0.371,7.057,0.553
								c0,0,1.508,0.028,3.771,0.069c2.264,0.036,5.273,0.157,8.289,0.244c6.031,0.191,12.063,0.382,12.063,0.382
								c10.266,0.912,14.783,1.979,22.434,3.155l2.152-0.235c8.875,1.151,17.217,2.453,11.453,2.308
								c-0.293-0.204-1.465-0.319-3.387-0.595c-0.268,0.032-0.719,0.021-1.277-0.015c-0.188,0.011-0.305,0.018-0.455,0.027
								c9.521,1.084,15.455,1.76,16.016,1.823c-16.217-1.414-0.936,0.777-3.74,1.286c0,0,4.076,0.469,8.148,0.938
								c4.07,0.503,8.146,1.006,8.146,1.006c-9.813-1.663-0.117-0.447,3.398-0.069c0.895,0.618,13.082,1.83,18.771,2.782
								l-0.438,0.036c5.25,0.967,14.502,2.26,21.082,3.178c-0.27-0.208,8.275,0.315,12.387,0.468
								c-11.234-1.939-4.512-1.089-5.369-1.53c1.158,0.208,3.258,0.542,3.508,0.518c1.635,0.114-2.164-0.526-2.453-0.735
								c-12.014-1.676-24.359-3.437-29.352-3.489c3.627,0.854,6.318,0.645,10.404,1.464c-6.016-0.412-13.648-1.712-23.631-3.121
								l-3.213-0.868l-10.066-1.197c4.217,0.376,1.752-0.405,12.307,1.001c-1.295-0.569-10.459-1.396-16.896-2.418l-3.391,0.104
								c1.318-0.132-12.51-2.01-2.619-1.127c0,0,4.014,0.42,8.021,0.841c4.006,0.453,8.012,0.906,8.012,0.906l-4.389-0.995
								l13.52,1.802l-3.223-0.17c10.879,1.33,12.428,1.887,14.01,2.35c1.578,0.476,3.176,0.921,14.117,2.23
								c6.928,0.383,14.262,1.465,27.574,3.72c-9.672-1.382-1.059,0.299-4.75,0.104c9.797,1.833,13.191,1.85,18.336,2.414
								c2.449,0.748,4.189,1.317-4.586-0.15c-1.221,0.543,11.566,1.735,12.254,2.614c29.064,4.776,23.689,1.454,57.471,8.076
								l-1.318,0.085c21.611,3.252,33.979,5.69,53.957,8.737l15.578,3.3c-3.525-0.449-13.059-1.403-8.711-0.326
								c-7.516-1.991-15.676-3.091-23.834-4.853c-0.877,0.06,2.459,0.759,3.889,1.122c-4.957-0.826-7.396-1.578-13.975-2.546
								c0.285,0.211,7.416,1.601,2,0.79l-8.846-1.967c-11.975-1.773-6.064,0.151-20.064-2.426c2.678,0.016,8.109,0.305,13.564,1.113
								c-6.395-1.165,8.582,1.174,2.775-0.057c-9.332-0.918-13.717-2.171-26.061-3.842c1.457,0.155,1.863,0.098,4.881,0.566
								l-17.779-3.254c4.35,1.105-14.789-2.066-13.227-1.241c18.965,3.405,13.439,2.135,35.027,6.082
								c-6.137-0.906-14.129-1.681-17.928-1.792c-0.182-0.052-0.49-0.122-1.15-0.242c-3.398-0.017-0.059,0.691-0.271,1.622
								c9.99,0.983,16.5,2.649,28.211,4.222c2.281-0.146-6.65-1.793-12.459-2.634l10.326,1.386l-2.061-0.103l26.018,4.538
								c-4.947-0.799-6.668-0.781-9.277-0.986c3.359,0.583,6.66,1.275,10.18,2.018c-0.67-0.618-0.135-0.881,3.133-0.33
								c16.75,2.896,25.992,4.859,32.098,6.408c0.645,0.092,1.363,0.195,1.953,0.279c-2.73-0.96,12.053,1.029,17.338,1.3
								c-0.338,0.48,8.594,1.66,13.387,2.681c2.666-0.197-0.646-1.56-6.451-2.966c-11.424-1.221-6.443-0.439-11.916-0.498
								l-18.275-2.404l4.139,0.178c-9.043-1.662-17.854-2.473-17.09-2.987c4.861,0.389,12.738,1.913,17.564,2.264l-5.971-1.195
								c10.697,1.098,5.344,1.468,18.234,3.103c-4.639-1.274,1.164,0.149,6.715,0.646c-4.355-1.025-22.604-3.454-18.602-3.726
								c6.727,0.711,22.266,4.617,31.227,5.093l-0.439,0.036c12.998,2.098,17.656,2.238,22.582,2.652
								c5.5,1.124,13.217,1.755,19.234,2.581l-0.184,0.241l8.498,1.069c-4.107-0.06-9.934-1.403-17.229-2.353l0.832,0.613
								c-8.318-1.737-14.041-1.726-20.615-2.274c9.527,1.042,26.754,3.994,29.113,3.356l5.803,1.318l2.822,0.192
								c4.338,0.925-0.223,0.981-8.705-0.125c-1.455-0.331-2.184-0.495-1.727-0.534c-3.969-0.346-7.635-0.451-17.133-1.939
								l5.117,0.476c-11.846-1.757-22.648-3.2-26.77-3.331c8.533,1.385,17.006,2.719,25.355,3.975
								c8.355,1.196,16.578,2.408,24.625,3.462c4.887-0.478,10.604-0.356,13.146-1.062c5.406,0.613,11.773,1.335,17.965,2.038
								c6.186,0.728,12.184,1.532,16.861,2.194l-0.891,0.108c4.564,0.597,8.797,0.997,12.332,1.259
								c4.807,0.79-3.377,0.185-0.016,0.694c0,0,0.971,0.083,2.426,0.207c1.455,0.118,3.393,0.306,5.336,0.433
								c3.883,0.278,7.766,0.555,7.766,0.555c-0.502,0.188-4.014-0.024-8.176-0.352c-4.16-0.35-8.963-0.883-12.057-1.191
								c1.168,0.085,3.537,0.263,2.787,0.119c-3.588-0.483-8.756-0.887-13.412-1.297c-4.654-0.428-8.791-0.923-10.322-1.438
								c-3.518-0.304,7.172,0.359-4.676-1.098c-7.912-1.202-10.566-0.916-11.42-0.834c-0.168,0.287,12.418,1.869,8.008,1.668
								c6.184,0.709,8.684,0.666,16.557,1.868c-6.125-0.703-14.508-1.169-17.723-1.969c-12.176-0.99-10.598,0.393-4.891,1.227
								c-1.316-0.549,22.168,2.179,6.34-0.231c3.602,0.181,8.662,0.661,13.992,1.198c5.332,0.531,10.945,1.012,15.631,1.373
								l-0.436,0.054c0,0,2.904,0.281,5.809,0.562c1.453,0.141,2.904,0.281,3.994,0.387c1.09,0.095,1.816,0.158,1.816,0.158
								c-1.65-0.002-5.168-0.288-5.307-0.031c0,0,4.033,0.278,8.072,0.457c4.037,0.201,8.074,0.402,8.074,0.402
								c-9.102-0.376,5.588,0.856,9.691,1.453c1.754-0.227,8.07-0.055,2.059-0.752c-6.756-0.91-3.963-0.147-10.129-0.69l8.777,0.184
								l0.752,0.133l5.295-0.106c11.883,0.975-5.295,0.799,9.982,1.493l-1.924-0.865c8.809,0.814,18.879,1.622,28.307,2.39
								c4.713,0.416,9.27,0.667,13.428,0.889c4.16,0.22,7.92,0.379,11.043,0.439c-3.459,0.247-5.01,0.828-0.279,1.429
								c-2.695-0.184-6.748-0.393-11.096-0.591c-4.348-0.194-8.988-0.372-12.852-0.612c-0.742-0.113,1.684-0.159,5.34-0.122
								c3.66-0.009,8.551,0.072,12.744,0.34c-2.012-0.674-7.299-0.738-12.201-0.787c-4.9-0.099-9.414-0.235-9.869-0.847
								c-21.33-1.726-16.018,0.069-34.098-2.009c-0.285,0.509-5.164-0.146-6.166,0.205c2.643,0.706,8.711,1.129,15.578,1.609
								c3.436,0.228,7.07,0.469,10.584,0.703c3.514,0.193,6.904,0.406,9.846,0.667c-1.16-0.035-3.49-0.102-3.941-0.03
								c8.402,0.676,11.895,0.798,17.789,0.944l-0.738-0.096c10.307-0.046,6.348,0.683,12.387,1.189
								c2.357,0.029,10.773,0.565,9.436,0.117c0,0,0.684,0.063,1.709,0.156c1.027,0.075,2.395,0.176,3.764,0.276
								c2.738,0.2,5.477,0.399,5.477,0.399l-0.51-0.603c6.189,0.134,7.533,0.559,13.145,0.353l0.27-0.519l-15.35-0.601
								c7.793,0.04,2.184-0.445,10.732-0.323c-9.561,0.307,6.758,0.499,7.689,0.967l6.301-0.247l-1.615,0.128
								c4.932,0.309,5.883-0.15,11.648-0.036c-6.805-0.368-11.248-0.706-19.912-0.492c6.311-0.153,18.814-0.451,21.879-0.424
								c1.654-0.042,3.184-0.046,4.643-0.027c1.459-0.01,2.85,0.003,4.227,0.027c2.754,0.046,5.455,0.127,8.551,0.119
								c-5.939,0.179-4.893,0.565-5.34,0.896c-0.223,0.166-0.82,0.317-2.852,0.423c-1.016,0.053-2.389,0.094-4.254,0.119
								c-1.865,0-4.223-0.047-7.203-0.115c0.445-0.098,2.375-0.06,3.117,0.008c-3.17-0.698-14.283-0.07-19.449,0.147
								c1.322,0.398-4.092,0.452,5.076,0.737c-3.002-0.271,7.73-0.803,16.451-0.417l-1.541,0.817c0,0,3.176,0.078,6.352,0.036
								c3.176-0.015,6.352-0.03,6.352-0.03l-1.189,0.054c2.389,0.237,5.779,0.169,9.666,0.068c1.941-0.045,4.01-0.094,6.137-0.144
								c2.131-0.062,4.324-0.12,6.516-0.107c6.316-0.494,30.574-1.018,20.115-1.558c7.883,0.272,14.76-0.604,23.326-0.984
								l-10.703-0.004c12.619-1.011,8.992-0.43,19.064-1.845c1.031,0.179,3.287,0.262,1.254,0.594
								c8.484-0.367,18.785-0.813,28.211-1.222c9.424-0.461,17.969-0.924,22.93-1.587c11.965-0.65,13.896,0.218,30.652-1.126
								c3.523-0.319-2.795-0.616,8.328-1.015c0.748,0.019-10.664,1.226,1.705,0.452c8.77-1.094,20.717-0.968,32.141-2.258
								c6.07-0.171,16.559-0.953,14.402-0.304c-9.594,0.52-23.146,1.522-25.191,1.901c1.299-0.392-6.836,0.157,0.207-0.544
								c-14.512,0.566-9.377,0.975-22.4,1.456c-0.881,0.25,6.723,0.18,9.5-0.171c0.098,0.695-25.625,1.805-14.018,1.97
								c13.908-0.712,17.941-2.446,30.023-2.521c-4.803,0.731-12.367,0.901-18.453,1.995l9.902-0.36l7.158-0.973l-0.422,0.129
								c17.506-0.527,16.117-1.779,31.717-3.158c-9.08,0.122,2.016-1.332-4.82-1.172c10.451-0.765,18.127-1.214,18.248-0.545
								c-19.518,1.918-1.064,0.819-19.09,2.715c2.99,0.05-4.242,1.292,6.541,0.654c12.115-1.297-3.662-0.33,8.426-1.364
								c0.719,0.009,1.465,0.018,1.045,0.149c5.547-0.763,6.51-0.344,13.225-1.23l-1.588,0.254c8.332-0.188,9.047-1.134,16.23-1.2
								c-2.896-0.302,4.771-0.769,9.176-1.41c-7.256,0.335-11.229-0.112-25.523,0.969c-1.697,0.53-0.643,0.678-6.496,1.301
								l9.281-0.726c-2,0.212-3.516,0.427-5.35,0.642l-8.947,0.441c11.309-1.113,6.078-1.166,10.857-1.936
								c10.375-0.578,8.543-0.734,15.061-1.076c-0.607,0.632,20.057-0.426,32.006-0.947c-1.857,0.133-4.244,0.304-5.535,0.396
								c-8.635,1.008,6,0.058,6.326,0.179l6.291-0.784c-1.186,0.133-2.809,0.397-0.109,0.273c8.533-0.771,7.986-1.319,16.52-2.09
								c0.656,0.277-6.51,1.329-1.195,1.09c1.85,0.143,7.74,0.449,19.045-0.715c0.797-0.187,3.736-0.485,7.129-0.801
								c-0.463,0.053-1.055,0.112-1.277,0.152l7.568-0.234c-6.381,1.065-13.002,0.745-19.4,1.804l-0.518,0.572
								c-5.014,0.39-11.811,1.145-14.928,1.662c7.658-0.502,9.262-0.766,17.814-1.537c1.215,0.242-4.783,0.956-5.652,1.059
								l1.258-0.4c-10.248,0.352-15.227,1.688-27.939,2.571c-1.914,0.126-0.748-0.003-0.328-0.136
								c-10.248,1.33-20.393,1.32-30.336,2.736l3.23-0.516c-6.781,0.749-20.066,2.217-33.334,3.683l-0.088,0.213
								c1.486,0.011-3.512,0.387-6.195,0.468l0.018-0.004c-6.658,0.681-13.057,1.335-18.295,1.871
								c1.691,0.015,3.836-0.019,6.311-0.153c2.066-0.38,14.314-0.992,12.602-1.43c5.676-0.055,14.736-1.211,18.904-1.299
								c-7.588,0.198,5.221-0.901,6.518-1.3c2.57,0.162,11.203-0.842,10.252-0.304c1.496,0.013-3.738-0.039-6.934,0.475
								c-7.883,1.01,14.521-0.674,4.686,0.458c12.52-1.231,29.068-2.297,41.959-3.753l-7.258,0.369
								c5.764-0.376,19.352-1.532,20.391-1.386c-4.27,0.372-9.262,0.806-14.719,1.281c-0.219,0.546,13.133-1.019,13.77-0.742
								l15.795-2.097l-6.949,0.508c4.359-0.659,18.914-1.387,29.689-2.186c-6.117,1.218-16.248,1.315-27.555,2.471
								c-8.207,0.909,5.143,0.301-2.645,1.077c2.037,0.011,7.125-0.403,9.619-0.777l3.074-0.106
								c-6.895,1.191-22.492,2.25-32.822,3.616c0.904-0.141,1.689-0.275,1.979-0.375c-8.008,0.356-16.121,1.02-23.895,1.759
								c4.131-0.089,5.746-0.36,8.1-0.618c0.311,0.145-7.041,0.774-9.816,1.146c7.262-0.337,1.385,0.288,5.984,0.06
								c-4.709,0.502-8.543,0.734-14.299,1.084c-3.002-0.03,2.439-0.52,1.809-0.799c-5.904,0.626-8.676,0.048-17.318,1.053
								c11.543-0.703-2.986,0.927-6.949,1.434l1.936-0.118c-3.625,0.646-6.729,0.888-9.281,0.724c4.711-0.5,9.281-0.724,7.916-1.013
								c-3.123,0.244-6.225,0.486-9.748,0.86l3.195-0.514l-15.496,1.196c-2.43,0.503-6.498,1.256-8.611,1.901
								c-3.742-0.063-8.904,0.538-12.422,0.89l1.629-0.25c-6.865,0.162-22.064,1.413-23.328,1.8
								c-4.906,0.054,34.412-4.208-0.104-1.641c-13.129,0.87-8.121,1.521-15.602,2.287c0,0,0.422-0.123-0.326-0.144
								c-5.756,0.26-6.311,0.659-11.029,1.085c3.451-0.051,8.459-0.332,10.053-0.563c-1.707,0.502-11.973,0.65-16.365,1.221
								c5.678-0.948-11.127,0.4-6.715-0.173c-11.453,0.23-23.648,1.504-29.648,2.194c-7.809-0.424-13.615,0.728-26.246,0.944
								c1.939-0.065,5.455-0.344,8.16-0.384c7.168-0.824-13.072,0.339-2.025-0.621c-2.363,0.187-0.156,0.271,2.262,0.082
								c4.246-0.25,8.221-0.65,7.148-0.827l-10.293,0.033l3.58-0.284l-15.615,0.108c-0.424,0.119,1.053,0.176,1.801,0.203
								c-18.086,0.693-38.771,1.488-54.615,1.95c-2.918,1.573-39.072,1.669-51.926,2.109c3.445-0.375,5.334-1.067,3.205-1.375
								c2.859-0.067,8.725-0.476,15.203-0.496c1.045,0.212,9.064,0.366,3.908,0.687c17.932-0.382-2.436-0.583,2.846-1.168
								c-9.93,0.249-17.807,0.446-24.773,0.621c-3.484,0.111-6.742,0.215-9.91,0.316c-3.172,0.105-6.254,0.087-9.393,0.099
								l-0.314-0.174l-9.477,0.055c7.729,0.303,7.336,1.084-2.645,0.536l1.215-0.006c-1.42-0.122-3.225-0.208-5.273-0.276
								c-2.049-0.084-4.34-0.178-6.73-0.276c-4.783-0.167-9.967-0.318-14.41-0.546c0,0-1.514,0.043-3.027,0.085
								c-1.512,0.02-3.025,0.04-3.025,0.04c-8.896-0.61-9.215-1.485-12.072-2.176c-3.48-0.243-6.6-0.376-9.469-0.534
								c-2.869-0.163-5.492-0.274-7.994-0.362c-5.002-0.151-9.504-0.287-14.467-0.437c-4.432-0.79-25.227-2.831-14.158-2.244
								c-12.559-0.831-10.236,1.331-31.59-2.055l5.611,0.243c-5.137-0.506-10.809-1.14-16.584-1.764
								c-5.773-0.639-11.662-1.201-17.182-1.885c-11.049-1.304-20.717-2.478-25.393-3.361c3.857-0.107-2.473-1.33-10.195-2.746
								c-7.729-1.39-16.822-3.137-18.549-4.013c0.973,0.437-6.695-0.609-7.844-0.625c-1.656-0.389-4.414-0.975-7.42-1.177
								c7.902,1.478-5.787,0.451,9.48,2.264c-3.912-0.132-8.363-0.453-13.945-1.044c-5.58-0.6-12.297-1.462-20.701-2.856l0.34-0.479
								l13.289,2.275c-1.283-0.594,5.566,0.504,8.395,0.763c-24.713-4.172,3.424-0.672-21.881-4.634
								c-2.502-0.057-0.896,0.059-7.486-0.867c3.094,0.481,3.703,0.211-1.281-0.6l-4.854-0.356
								c-8.689-2.297,14.721,1.797,7.275-0.032c9.832,1.195,26.785,3.622,23.742,2.456c-15.924-2.72-14.551-1.043-31.174-4.013
								l-1.727-0.574c-5.887-0.774-6.918-0.474-10.164-0.726c-0.268-0.209-1.736-0.576-5.498-1.244
								c-10.002-0.961-16.58-1.947-25.836-2.741c24.385,3.519,20.68,3.993,45.848,7.623c-3.977-0.408-21.652-3.183-22.857-2.638
								l0.324-0.481c-8.209-1.08-16.391-2.186-26.6-4.068l6.297,0.753c-13.621-1.908-22.408-4.582-33.264-5.508
								c3.775,0.679,6.846,1.179,9.193,1.493c-7.021-0.944-15.771-2.458-23.342-3.818l-15.828-1.739
								c0.172-0.237-9.764-1.894-4.9-1.514c-11.232-2.26-16.689-2.315-23.248-3.25c-11.486-2.421,10.068,1.372,11.326,0.836
								c-15.908-2.843-32.859-5.25-41.941-6.153c3.24,0.586,4.807,0.929,4.621,1.029c-0.451-0.253-6.896-1.161-10.482-1.705
								l-2.516-0.029c-5.941-1.122-5.068-1.195,0.047-0.693c-5.693-0.92-12.596-1.292-18.418-2.591
								c9.82,0.931,22.188,3.227,27.316,3.707c-20.43-2.714-20.357-4.138-46.289-7.279c-0.305-0.205,4.121,0.055-0.855-0.604
								c-11.58-1.396-3.117,0.302-6.781,0.204c4.467,0.48,7.729,0.908,10.504,1.354c2.777,0.463,5.076,0.956,7.625,1.532
								l-2.402-0.059c-0.338-0.194-5.916-0.995-7.539-1.332L64.033,26c0.748-0.534-8.129-2.184-15.184-2.875
								c7.037,1.384,5.123,1.109,6.967,2.071c-4.98-0.313-7.746-0.846-10.66-1.39c-2.916-0.514-5.982-1.041-11.563-1.352
								c0.854-0.1,10.539,0.916,2.201-0.245c-6.914-0.861-6.051-0.265-10.705-0.669c5.289,0.111,3.982-0.437,9.729-0.369
								c12.297,1.441,4.971,0.545,17,1.896c0,0-2.525-0.444-5.051-0.887c-2.527-0.423-5.061-0.846-5.061-0.846
								c10.42,1.201,7.643,0.378,8.533,0.275c-17.729-2.774-13.521-0.858-24.943-2.396c-5.563-0.309,10.717,1.368,2.033,0.699
								c-10.697-1.356-2.479,0.042-14.523-1.062l2.039-0.021c-3.645-0.707-7.324-0.72-11.58-1.128
								c-2.346-0.174-1.064,0.421-1.605,0.804c-0.27,0.192-0.994,0.328-2.854,0.295c-1.861-0.013-4.855-0.186-9.666-0.632
								c0.955-0.056,1.307-0.116,1.313-0.176c0,0,4.805-0.642,9.607-1.284c4.813-0.583,9.623-1.167,9.623-1.167
								c-9.756-1.112-20.275-2.07-31.178-3.179c-5.449-0.542-11.006-0.976-16.605-1.492c-2.801-0.253-5.617-0.507-8.438-0.761
								c-2.826-0.22-5.656-0.44-8.49-0.661c-2.643-0.599,1.418-0.517,5.975-0.344c4.557,0.195,9.59,0.575,8.914,0.315l10.328,1.001
								c-0.604,0.316-21.682-1.62-12.385-0.231c9.143,0.625,15.777,1.109,22.287,1.726c6.516,0.607,12.918,1.088,21.607,1.593
								c-2.639-0.74-8.35-1.201-14.791-1.761c-3.223-0.273-6.627-0.558-9.928-0.883c-3.301-0.3-6.502-0.6-9.307-0.996
								c4.729,0.438,8.73,0.637,12.619,0.907c-5.277-0.595-10.76-1.008-16.416-1.545c-5.658-0.505-11.496-1.08-17.529-1.491
								l-2.73,0.034c4.064,0.316,7.504,0.554,10.016,0.782c2.508,0.244,4.092,0.397,4.453,0.432
								c-5.379-0.502-10.357-0.682-14.08-0.737c-3.725-0.049-6.189,0.07-6.563,0.361l1.912,0.145l-3.914-0.053 M-62.47,1.17
								 M-62.177,0.66 M-51.439,2.225c4.135,0.175,8.438,0.496,12.547,0.752c4.111,0.26,8.035,0.487,11.402,0.624
								c-4.064-0.666-10.551-1.381-17.965-2.075 M-61.978,3.427l-0.123,0.004c0.076,0,0.123,0,0.207,0.001
								c1.885,0.098,3.064,0.12,3.125,0.021c6.607,0.018,10.039-0.271,23.008,0.451c-0.914-0.543-11.855-1.3-16.611-1.384
								l-4.129,0.218 M138.135,30.289c-7.107-1.169-14.246-2.344-21.316-3.508c-7.078-1.117-14.088-2.224-20.926-3.304
								c12.271,2.452,22.705,4.575,24.918,5.335c2.215,0.745-3.771-0.007-24.385-3.071l-2.721-0.315
								c5.375,0.964,14.658,2.343,23.416,3.596c3.568,0.31,11.115,0.966,17.738,1.541c3.314,0.278,6.396,0.536,8.635,0.724
								c2.238,0.18,3.635,0.275,3.576,0.229c-2.447-0.744-6.148-0.965-10.676-1.792L138.135,30.289z M147.92,33.979
								c8.031,1.437,6.236,0.868,7.527,0.825c-2.838-0.426-5.674-0.852-8.475-1.272C148.03,33.765,148.549,33.938,147.92,33.979z
								 M155.008,34.481c-0.9-0.151-1.67-0.288-2.07-0.386L155.008,34.481z M-2.236,12.634c0.371,0.028,0.5,0.038,0.836,0.064
								c-1.91-0.2-3.836-0.401-5.836-0.611C-6.463,12.2-4.982,12.371-2.236,12.634z M14.182,14.998l1.98-0.243
								c-1.795-0.211-3.605-0.425-5.48-0.645C11.272,14.38,11.899,14.628,14.182,14.998z M66.826,22.973
								c3.395-0.107,14.529,1.465,15.303,0.931c0.727-0.061-1.607-0.453-4.223-0.874c-2.93-0.429-6.063-0.888-9.379-1.374
								c-0.123,0.077-0.801,0.074-1.918,0.009c3.275,0.5,5.443,0.994,4.064,1.181c-8.316-1.98-7.646-0.411-16.73-1.832
								C50.989,21.074,64.033,22.785,66.826,22.973z M769.862,75.433c0.264,0.037,1.166,0.12,2.441,0.21l-6.449,0.739
								c-5.775,0.332-10.99,0.374-16.055,0.51c-5.064,0.144-9.975,0.394-15.15,1.08c-4.865,0.083-7.492-0.18-10.004-0.376
								c2.381-0.112,4.615-0.207,6.469-0.26c14.533-1.403,18.346-1.321,21.465-1.154C755.696,76.351,758.121,76.617,769.862,75.433z
								 M637.043,81.065c1.191-0.076,1.615-0.192,1.615-0.192c-12.889,0.981-24.65,1.722-34.93,2.266
								c-5.139,0.315-9.914,0.375-14.271,0.492c-4.359,0.097-8.303,0.159-11.787,0.191c2.703,0.424,15.219,0.623,21.164,0.738
								l-5.26,0.587l-3.291-0.369l-9.135,0.587c2.559,0.319,9.949,0.154,14.883,0.362c0.438-0.01,16.199-1.171,20.605-1.614
								l-12.621,0.035c3.412,0.039,20.137-0.605,26.762-0.946c0.121-0.266-11.324-0.311-12.742,0.302
								c-1.369-0.345,11.795-0.761,3.459-0.917c9.855-0.746,25.564-0.818,32.859-0.956l1.264,0.595
								c7.994-0.113,5.363-1.032,14.871-1.09c-11.664,0.661,2.004,0.624-7.281,1.098c2.971,0.11,0.084,0.687,9.391,0.211
								c7.705-1.217,9.838,0.091,17.117-1.005c4.91,0.045-5.242,0.76,4.389,0.435c11.02-0.956,10.367-1.256,11.023-1.925
								c-10.338,0.32-11.555,1.354-20.014,1.593l16.736-1.844c-3.098-0.011-5.389,0.079-7.303,0.209
								c3.365-0.217,6.223-0.507,8.668-0.839c1.391-0.191,2.668-0.368,3.852-0.531c-9.504,0.5-17.955,0.821-19.465,0.638
								l1.297-0.364c-3.381-0.125-8.857,0.345-11.379,0.684c-8.52,0.423-17.004,1.238-18.881,0.928l3.225-0.427
								c-5.234,0.282-8.146,0.438-11.393,0.614C647.221,80.722,643.633,80.843,637.043,81.065z M295.139,56.014
								c3.049,1.044,6.266,2.075,12.387,3.397c3.061,0.656,6.844,1.402,11.701,2.224c4.859,0.808,10.787,1.717,18.127,2.762
								l-2.324-0.269c14.688,2.862,28.969,3.227,46.898,6.321c-8.811-0.731-8.324-0.706-18.119-1.019l9.432,0.918
								c-2.686,0.257,6.727,1.187,13.619,2.102l-6.174-0.071c-4.117-0.75-14.828-2.23-14.537-2.025
								c2.352,0.273-14.021-2.858-23-3.919c0.852,0.615,19.785,3.081,11.236,2.686c7.488,0.719,8.342,1.342,16.152,2.182
								c-7.516-0.646-1.939,0.42-7.543,0.044l12.795,1.51c0.313,0.206-18.66-2.082-8.268-0.111c5.16,0.414,18.793,2.541,19.102,2.03
								l0.295,0.199c9.588,1.266,4.316-0.234,16.066,1.479c0.16-0.248-2.061-0.699-6.291-1.152
								c-3.57-0.313-4.172-0.011-11.518-0.831c-3.246-0.809,8.85,1.127,3.842-0.184c-2.5-0.608-19.408-2.223-13.945-2.282
								l9.547,1.366c0.303-0.469,7.229,0.375,7.094-0.064c5.873,0.509,11.32,1.763,17.354,2.023c2.523-0.072-1.742-1.169,8.123,0.17
								c3.824,0.779,11.432,1.839,19.172,2.603c7.738,0.768,15.588,1.455,19.871,1.778l7.52,0.255
								c-0.303-0.187-3.883-0.458-6.779-0.688s-5.105-0.482-2.686-0.456c0,0,0.73,0.057,1.824,0.143
								c1.096,0.074,2.555,0.174,4.016,0.273c2.92,0.199,5.84,0.397,5.84,0.397l-0.908,0.132c3.861,0.35,7.836,0.445,11.375,0.608
								c-3.67,0.092-12.076-0.725-10.447-0.045c5.475,0.541,6.297,0.811,11.361,1.104c-1.109-0.048-2.061-0.069-1.928,0.019
								c11.09,1.047,10.781,0.091,13.572,0.113c11.215-0.013-11.221-1.37-9.746-1.845c0,0,8.15,0.436,16.303,0.872
								c4.076,0.224,8.15,0.444,11.211,0.529c3.059,0.111,5.098,0.185,5.098,0.185c-2.789,0.052-5.6,0.102-4.568,0.375
								c7.992,0.618,0.166,0.435,11.412,0.92c-0.385-0.395,3.156-0.35,7.787-0.218c4.633,0.048,10.359,0.166,14.334,0.057
								c3.707,0.409,4.471,0.492-3.65,0.28c0.918,0.493,11.82,0.668,15.695,0.725c2.248-0.104,6.076-0.145,8.5-0.235
								c-3.24-0.269-1.855-0.563,5.182-0.716l0.41-0.1c-2.879-0.068-6.16-0.146-9.574-0.228c-3.412-0.095-6.959-0.15-10.367-0.316
								c-6.82-0.273-13.104-0.452-16.721-0.3l2.055-0.187c-6.666-0.331-13.92-0.546-20.283-0.65
								c-3.18-0.066-6.137-0.138-8.678-0.268c-2.541-0.15-4.664-0.393-6.189-0.714c0.588-0.329-2.67-0.251-2.406-0.763l-9.83-0.204
								l2.059-0.11c0,0-4.172-0.236-8.342-0.472c-4.168-0.299-8.334-0.598-8.334-0.598l0.451-0.063
								c-7.955-0.175-14.195-0.193-19.17-0.384c-0.039,0.228,0.475,0.347-2.184,0.267c-2.654-0.135-4.668-0.306-6.455-0.504
								c-0.02,0-0.02,0-0.02,0.001v-0.003c-4.072-0.458-6.77-1.019-11.777-1.657l15.486,1.414c1.297-0.271,0.016-0.798-7.537-1.782
								c3.098,0.276,4.422,0.095,0.592-0.31c-0.436,0.061-10.158-0.703-6.484-0.046c-7.346-0.718-16.939-1.922-27.473-3.288
								c-5.264-0.705-10.768-1.42-16.35-2.08c-5.584-0.656-11.236-1.369-16.818-1.899c16.023,1.651-12.721-2.196,5.018-0.031
								c-12.279-2.254-10.734-0.742-23.314-2.625c-1.037-0.375,6.854,1,9.809,0.958c-20.904-3.163-35.479-4-55.674-7.341
								l-0.789-0.617C303.826,57.228,299.565,56.632,295.139,56.014z M255.08,50.1c-3.896-0.592-7.846-1.193-11.861-1.804
								c0.385,0.069,0.752,0.136,1.156,0.208l-11.732-1.566c7.135,1.387,11.777,2.707,1.695,1.272
								c0.879-0.057-2.02-0.793,1.49-0.325c-6.678-1.41-21.389-4.176-17.662-2.801c13.047,1.488,2.855,1.434,13.102,2.627
								c-5.537-0.438-10.9-1.564-16.08-2.216c5.43,0.506-1.1-1.107-9.113-2.649c-3.527-0.472-12.99-2.17-18.846-2.954
								c2.002,0.792-3.111,0.197,6.35,1.896c-3.492-0.461-8.896-1.283-14.896-2.506c2.402,0.316,6.6,0.961,6.334,0.753
								c-3.826-1.064-8.389-1.791-10.877-2.383c-2.008-0.307-4.043-0.619-6.021-0.922c0.582,0.136,1.088,0.271,1.445,0.396
								l-6.736-0.71c8.91,1.257,4.064,0.882,3.912,1.124c0.324-0.478-5.703-1.018-8.758-1.491l6.525,1.635
								c-3.24-0.262-11.221-2.237-9.637-1.422c13.988,2.503,19.385,3.309,32.09,5.253l-5.072-1.287
								c14.342,2.09,8.695,2.207,24.734,4.874c6.734,0.731,24.123,4.031,24.586,3.301c-2.043-0.097,9.881,2.368,15.434,2.934
								c6.201,0.306,24.6,3.233,19.082,1.991c-4.961-0.828-11.717-1.541-15.627-2.663l9.654,1.441l-6.258-1.433
								C256.74,51.354,256.492,50.921,255.08,50.1z M39.6,12.134c-0.107-0.017-0.24-0.036-0.369-0.055
								c0.143,0.018,0.277,0.035,0.406,0.051L39.6,12.134z"/>
							<path fill="#B4AE4F" d="M913.914,63.387c2.789-0.396,9.719-0.902,8.332-1.184C922.448,62.615,909.885,63.224,913.914,63.387z
								"/>
							<path fill="#B4AE4F" d="M922.229,63.162c0.475-0.139,0.129-0.275,3.229-0.531l-8.535,0.769L922.229,63.162z"/>
							<path fill="#B4AE4F" d="M931.131,65.381c4.395-0.67,7.166-1.071,14.094-1.595c2.682,0.829-11.305,1.194-14.365,2.411
								c12.689-0.915,16.518-2.132,26.947-3.052C952.592,63.126,931.459,64.562,931.131,65.381z"/>
							<polygon fill="#B4AE4F" points="925.608,67.139 932.645,66.342 931.936,66.338 924.897,67.133 							"/>
							<path fill="#B4AE4F" d="M772.078,69.243c-0.652-0.283-5.033,0.329-7.387,0.563C766.606,69.7,769.305,69.607,772.078,69.243z"
								/>
							<path fill="#B4AE4F" d="M593.418,79.525c3.609-0.111,6.717-0.25,9.586-0.459c2.865-0.196,5.484-0.374,8.111-0.553
								c5.254-0.361,10.543-0.702,17.912-1.004c-9.705-0.023-16.098,0.433-22.105,0.874c-3.004,0.21-5.914,0.462-9.084,0.567
								c-3.168,0.092-6.604,0.114-10.668-0.003L593.418,79.525z"/>
							<path fill="#B4AE4F" d="M598.448,76.871c2.406,0.582-11.107,0.854-9.006,1.277c4.857-0.135,5.986-0.295,7.004-0.428
								c1.018-0.139,1.92-0.212,6.346-0.339c0,0-1.086-0.125-2.174-0.25C599.531,77.013,598.448,76.871,598.448,76.871z"/>
							<polygon fill="#B4AE4F" points="664.414,84.741 660.031,85.26 663.565,84.982 							"/>
							<polygon fill="#B4AE4F" points="532.699,77.036 534.297,76.941 527.074,76.551 							"/>
							<path fill="#B4AE4F" d="M535.895,76.844l-1.598,0.097L535.895,76.844z"/>
							<polygon fill="#B4AE4F" points="658.824,86.311 665.36,86.142 668.58,85.713 							"/>
							<path fill="#B4AE4F" d="M601.016,84.949l5.844-0.379C605.698,84.645,597.69,84.644,601.016,84.949z"/>
							<polygon fill="#B4AE4F" points="488.565,74.629 481.475,74.42 482.194,74.526 489.264,74.734 							"/>
							<path fill="#B4AE4F" d="M555.17,86.845c2.025,0.251-0.9,0.26-3.289,0.266c-2.391,0.005-4.246-0.029-0.082,0.251
								C559.221,87.347,556.213,87.077,555.17,86.845z"/>
							<path fill="#B4AE4F" d="M469.492,79.649c-0.965-0.076-1.969-0.139-2.939-0.163C467.707,79.55,468.674,79.604,469.492,79.649z
								"/>
							<path fill="#B4AE4F" d="M469.492,79.649c3.084,0.244,6.154,0.666,8.283,0.698C473.946,79.831,472.537,79.8,469.492,79.649z"
								/>
							<path fill="#B4AE4F" d="M434.123,76.646l2.797,0.297c-2.879-0.038-1.521,0.056,1.039,0.108
								c2.971,0.263,2.816,0.099,3.18,0.031c0.598-0.003,1.197-0.007,1.834-0.011c-0.914-0.022-1.736-0.042-2.445-0.059
								C435.946,76.578,433.143,76.338,434.123,76.646z"/>
							<path fill="#B4AE4F" d="M304.656,51.558c10.207,1.769,12.84,2.265,12.232,2.54c9.688,1.59,8.275,0.724,14.16,1.46
								C320.045,54,317.83,53.49,304.656,51.558z"/>
							<path fill="#B4AE4F" d="M331.049,55.558c1.232,0.174,2.41,0.341,3.846,0.544C333.297,55.853,332.1,55.689,331.049,55.558z"/>
							<polygon fill="#B4AE4F" points="475.156,84.21 468.668,84.258 471.039,84.367 							"/>
							<path fill="#B4AE4F" d="M289.516,48.974c1.887,0.328,4.938,0.804,6.406,1.167C296.53,49.868,287.627,48.646,289.516,48.974z"
								/>
							<path fill="#B4AE4F" d="M327.899,62.173c1.018,0.378,7.596,1.224,10.254,1.707C334.328,63.262,331.305,62.131,327.899,62.173
								z"/>
							<path fill="#B4AE4F" d="M259.946,45.677c1.887,0.335,4.768,1.06,3.451,1.149C266.18,47.105,270.014,47.084,259.946,45.677z"
								/>
							<polygon fill="#B4AE4F" points="309.182,59.256 310.617,59.605 317.664,60.467 							"/>
							<path fill="#B4AE4F" d="M333.422,68.382c7.961,0.747-12.391-2.911,1.277-1.246c-17.492-3.069,1.256,0.813-11.684-1.189
								C330.576,67.223,334.215,68.323,333.422,68.382z"/>
							<path fill="#B4AE4F" d="M323.016,65.947c-1.105-0.177-2.303-0.368-3.592-0.574C320.862,65.603,322.012,65.787,323.016,65.947
								z"/>
							<path fill="#B4AE4F" d="M212.518,45.196c1.146,0.146,1.945,0.23,2.67,0.3C214.281,45.38,213.41,45.279,212.518,45.196z"/>
							<path fill="#B4AE4F" d="M281.639,59.829l11.92,1.26c-7.965-0.839-27.82-4.074-26.689-3.25
								c6.412,1.206,14.178,2.256,17.404,2.5L281.639,59.829z"/>
							<path fill="#B4AE4F" d="M148.043,25.71l5.15,0.57l-6.369-1.105C148.633,25.566,145.26,25.507,148.043,25.71z"/>
							<path fill="#B4AE4F" d="M145.594,24.963l1.23,0.212C146.551,25.115,146.166,25.047,145.594,24.963z"/>
							<path fill="#B4AE4F" d="M234.891,48.633c3.795,0.682,6.848,1.175,10.35,1.644C243.819,49.914,234.338,48.21,234.891,48.633z"
								/>
							<polygon fill="#B4AE4F" points="111.877,20.999 120.342,22.182 111.112,20.82 							"/>
							<polygon fill="#B4AE4F" points="72.545,14.173 71.102,13.845 64.03,13.14 65.496,13.457 							"/>
							<path fill="#B4AE4F" d="M122.217,34.438c5.695,0.959,10.244,1.077,8.775,0.723l-11.072-1.702
								c2.734,0.944,3.072,0.464,9.469,1.593L122.217,34.438z"/>
						</g>
					</g>
				</g>
			</g>
		</g>
	</g>
	<g>
		<g>
			<g>
				<g>
					<g>
						<g>
							<path fill="#E05241" d="M3869.338,30.424c-3.168-0.474-4.119-0.417-4.594-0.388c0,0,8.883,1.368,17.764,2.736
								c8.877,1.414,17.754,2.828,17.754,2.828c-1.076-0.4-11.25-2.312-4.404-1.35c-3.01-0.728-12.32-2.026-13.713-1.916
								l2.625,0.061c-8.26-0.836-13.711-2.546-8.338-1.978l-0.691-0.102c0,0-5.734-0.459-11.469-0.919
								c-2.865-0.228-5.732-0.456-7.883-0.627c-2.15-0.156-3.584-0.261-3.584-0.261
								C3861.121,29.832,3859.301,28.908,3869.338,30.424z"/>
							<path fill="#E05241" d="M3135.762,61.192c4.609-0.705,5.156-0.86,4.625-0.872
								C3138.74,60.606,3137.172,60.892,3135.762,61.192z"/>
							<path fill="#E05241" d="M3847.448,28.121l-7.189-0.524C3843.129,27.875,3845.653,28.054,3847.448,28.121z"/>
							<path fill="#E05241" d="M3897.91,27.804c0.016-0.026,0.096-0.038-0.08-0.104l-3.238-0.247
								c0.047,0.008,0.066,0.011,0.086,0.014C3895.858,27.59,3896.924,27.701,3897.91,27.804z"/>
							<path fill="#E05241" d="M3685.438,12.018c-0.764-0.037-1.43-0.069-2.338-0.114
								C3683.949,11.945,3684.723,11.983,3685.438,12.018z"/>
							<path fill="#E05241" d="M3994.598,40.828l-15.859-2.18c2.148,0.122-5.479-1.101-2.107-0.813
								c-1.215-0.167-6.861-1.03-5.35-0.648l3.221,0.531c-8.43-0.721-3.439,0.4-17.324-1.395c8.496,1.851,12.318,2.099,16.91,2.56
								c1.539,0.225,2.826,0.413,4.135,0.604l13.283,1.265L3994.598,40.828z"/>
							<path fill="#E05241" d="M3355.926,26.126l0.166-0.078C3355.942,26.088,3355.905,26.111,3355.926,26.126z"/>
							<path fill="#E05241" d="M3356.756,25.73l-0.664,0.318C3356.924,25.82,3360.182,25.262,3356.756,25.73z"/>
							<path fill="#E05241" d="M3850.125,28.056c-0.24,0.096-1.176,0.12-2.678,0.064l5.357,0.388
								C3852.059,28.383,3851.063,28.215,3850.125,28.056z"/>
							<path fill="#E05241" d="M3862.408,28.357l13.332,1.959l4.969,0.4C3875.582,30.063,3869.619,29.237,3862.408,28.357z"/>
							<path fill="#E05241" d="M3706.549,13.857c-3.463-0.299-5.955-0.432-7.689-0.564c-1.732-0.127-2.705-0.219-3.133-0.284
								c-0.854-0.131,0.473-0.158,2.27-0.164c3.594-0.017,9.068,0.065,2.705-0.452c-7.709-0.401-10.455-0.187-15.266-0.375
								c22.014,1.1-3.049,1.067,19.115,2.343c-3.195,0.451-16.027-0.277-23.529-0.966c-2.115-0.322-2.705-0.406-2.373-0.5
								c0.334-0.088,1.594-0.089,3.178-0.038c3.172,0.082,7.646,0.249,8.633-0.022c-8.898-0.458-7.344-0.249-11.143-0.093
								c-6.971-0.322-14.195-0.365-20.711-0.482c-3.258-0.059-6.338-0.136-9.125-0.276c-1.393-0.087-2.715-0.134-3.951-0.188
								c-1.234-0.063-2.381-0.151-3.424-0.27c-10.115,0.148-9.451,0.474-15.266,0.832c-1.154,0.729,15.041,0.387,18.771,0.961
								c-0.77-0.062-2.291-0.185-1.846-0.287c0,0,2.184,0.021,4.363,0.095c2.178,0.115,4.355,0.229,4.355,0.229
								c-8.266-0.544,1.168-0.688,5.6-0.59c3.215,0.098,9.625,0.289,8.732,0.459l-4.875-0.013c3.133,0.225,6.596,0.212,10.104,0.222
								c3.508,0.037,7.059-0.024,10.361,0.438c0.336,0.186-2.172,0.101-2.564,0.177c7.461,0.003,14.627,0.431,25.652,0.879
								c0,0-1.607,0.031-3.215,0.11c-1.607,0.078-3.213,0.155-3.213,0.155c4.43-0.174,11.617,0.378,19.42,1.012
								c7.805,0.605,16.211,1.655,23.086,2.555c-1.527-0.276-4.27-0.638-2.602-0.611c8.119,0.641,14.184,1.748,10.393,1.75
								c7.969,0.257,30.059,3.867,40.91,4.549c0,0,3.123,0.166,7.807,0.415c4.689,0.222,10.93,0.649,17.178,1.042
								c6.246,0.409,12.502,0.775,17.186,1.121c4.689,0.341,7.811,0.568,7.811,0.568c-1.865-0.181-3.854-0.398-5.91-0.668
								c-4.402-1.289-6.832-1.568,1.125-1.003c-7.785-0.809-4.902,0.135-16.529-1.45c4.598,0.312,5.854-0.25-5.285-1.864
								c-3.496-0.381-6.846-0.747-10.082-1.1c-3.242-0.283-6.371-0.556-9.42-0.822c-6.1-0.496-11.875-0.934-17.598-1.311
								c-11.439-0.685-22.646-1.356-35.742-2.141c-0.457-0.292-5.807-0.917-12.285-1.608c-6.486-0.581-14.096-1.262-19.078-1.708
								c3.84-0.199,11.26,0.25,18.943,0.816c-4.816-0.467-13.109-1.152-19.262-1.697L3706.549,13.857z"/>
							<path fill="#E05241" d="M3771.58,18.661c-0.689-0.123-1.418-0.231-2.146-0.338
								C3769.815,18.407,3770.465,18.514,3771.58,18.661z"/>
							<path fill="#E05241" d="M3730.727,14.986c0.1-0.009,0.063-0.027,0.102-0.043c-0.811-0.069-1.611-0.137-2.432-0.206
								C3729.215,14.824,3730.151,14.924,3730.727,14.986z"/>
							<path fill="#E05241" d="M3843.758,26.004c1.67,0.128,2.908,0.223,4.578,0.351c-1.023-0.113-2.316-0.257-3.553-0.394
								C3843.604,25.854,3843.037,25.837,3843.758,26.004z"/>
							<path fill="#E05241" d="M3849.201,27.674l-0.914,0.069c0.709,0.121,1.207,0.206,1.838,0.313
								C3850.332,27.978,3850.135,27.856,3849.201,27.674z"/>
							<path fill="#E05241" d="M3600.463,6.925l-2.672,0.186C3599.401,7.054,3600.098,6.99,3600.463,6.925z"/>
							<path fill="#E05241" d="M3675.715,11.089c4.826,0.126,5.125,0.01,5.924-0.122c0.799-0.125,2.098-0.213,8.926,0.226
								l-4.004-0.303c4.908,0.176,11.668,0.52,18.65,1.035c6.977,0.587,14.186,1.194,20.004,1.684
								c-0.67,0.094,1.086,0.317,2.832,0.589c1.746,0.284,3.482,0.587,2.781,0.744c7.949,0.691,15.822,1.379,19.957,1.326
								c4.906,0.673,12.412,1.154,18.648,2.054c-2.607-0.575,9.006,0.104-6.248-1.313c1.236,0.104,0.473-0.046,1.691,0.056
								c-4.881-0.752-8.324-1.081-11.598-1.341c-3.277-0.239-6.391-0.368-10.615-0.793c-5.025-0.775,8.301,0.395,3.547-0.19
								c-5.289-0.391-13.557-1.347-20.439-1.96c-6.883-0.563-12.367-0.91-12.061-0.375c-7.689-0.565-8.732-0.897-11.018-1.247
								c-3.064,0.073-7.416-0.102-12.221-0.384c-4.805-0.247-10.064-0.76-14.941-0.897c-9.758-0.419-17.982-0.748-17.943-0.055
								c4.445,0.101,11.676,0.383,18.211,0.315L3675.715,11.089z"/>
							<path fill="#E05241" d="M3827.631,23.727c-0.596-0.086-1.383-0.201-1.873-0.272
								C3826.305,23.534,3826.996,23.635,3827.631,23.727z"/>
							<path fill="#E05241" d="M3947.918,46.682l-4.15,0.219c-22.82-3.564-31.01-5.186-50.947-8.329
								c-1.504-0.367,0.922-0.057,2.154,0.1c-7.006-1.087-15.756-2.444-24.029-3.728c-8.275-1.261-16.078-2.419-21.213-2.942
								c-4.467-0.664-16.143-2.671-11.674-2.283c-2.18-0.24-4.674-0.528-7.174-0.925c-0.605-0.417,5.615,0.731,5.787,0.488
								c-1.973-0.313-2.73-0.488-3.207-0.454c3.379,0.215-3.297-1.598,12.244,0.708c5.912,1.637-10.797-1.499-7.367-0.149
								c5.158,0.765,4.611,0.356,5.066,0.32c6.559,0.984,6.355,1.166,5.982,1.305c2.553,0.099,10.764,1.695,14.291,1.859
								c12.777,1.908-0.785,0.515,7.555,1.793l4.941-0.095l13.832,2.334c20.107,2.923-2.645-1.908,20.371,1.297
								c-3.078-0.056,6,2.175,16.637,4.116c-6.393-1.027-18.277-2.426-26.488-3.979c11.525,2.521-16-2.484-10.094-0.768
								c5.803,0.57,15.391,2.048,22.82,3.45l-2.455-0.321c7.914,1.388,14.07,1.51,24.971,3.648c5.443,0.87,4.389,0.938,3.398,0.976
								C3943.797,45.965,3947.94,46.497,3947.918,46.682z M3936.037,44.878l-7.264-1.282
								C3930.475,44.018,3933.196,44.461,3936.037,44.878z"/>
							<path fill="#E05241" d="M4034.531,49.365l-5.707-0.847C4031.623,48.98,4033.295,49.217,4034.531,49.365z"/>
							<path fill="#E05241" d="M4033.727,60.395l-1.807-0.098C4033.41,60.456,4033.881,60.471,4033.727,60.395z"/>
							<path fill="#E05241" d="M4077.674,67.877c-0.061,0.004-0.121,0.011-0.238,0.008
								C4077.592,67.894,4077.594,67.878,4077.674,67.877z"/>
							<path fill="#E05241" d="M4091.371,58.284c-0.082-0.04-0.107-0.067-0.295-0.124
								C4090.133,58.035,4090.588,58.136,4091.371,58.284z"/>
							<path fill="#E05241" d="M4077.719,67.833c-0.002,0.016,0.023,0.038-0.045,0.043
								C4077.715,67.866,4077.793,67.862,4077.719,67.833z"/>
							<path fill="#E05241" d="M4077.436,67.885c-0.451-0.018-1.092-0.065-2.139-0.167
								C4076.459,67.834,4077.063,67.875,4077.436,67.885z"/>
							<path fill="#E05241" d="M3890.151,32.3c0.301,0.214,11.234,2.31,11.102,1.854c-3.254-0.566-6.535-1.138-9.826-1.711
								L3890.151,32.3z"/>
							<path fill="#E05241" d="M4072.908,66.696c3.375,0.676,5.008,1.043,4.814,1.14c-0.471-0.248-7.184-1.334-10.918-1.969
								l-2.625-0.094c-6.189-1.277-5.273-1.328,0.059-0.692c-5.93-1.062-13.125-1.62-19.172-3.149
								c10.217,1.327,23.102,3.858,28.441,4.496c-21.287-3.237-21.186-4.638-48.146-8.779c-0.307-0.219,4.293,0.242-0.875-0.644
								c-12.027-1.923-3.26,0.161-7.076-0.104c9.283,1.368,13.539,2.304,18.828,3.642l-2.508-0.144
								c-0.35-0.207-6.15-1.2-7.832-1.629l-1.588,0.304c0.795-0.501-8.41-2.556-15.746-3.568c7.295,1.706,5.309,1.343,7.199,2.39
								c-10.377-1.081-11.473-2.635-23.08-3.88c0.895-0.053,10.953,1.504,2.305-0.122c-7.174-1.247-6.299-0.603-11.139-1.267
								c5.514,0.407,4.182-0.213,10.164,0.174c12.762,2.104,5.148,0.884,17.65,2.784l-10.475-2.235
								c10.814,1.758,7.951,0.75,8.885,0.706c-18.369-3.673-14.055-1.588-25.902-3.742c-5.783-0.619,11.111,1.964,2.09,0.812
								c-11.094-1.962-2.586-0.093-15.088-1.987l2.127,0.118c-3.758-0.957-7.594-1.211-12.006-1.899
								c-4.871-0.658,5.193,2.714-14.752-0.601c1,0.021,1.369-0.011,1.379-0.071l20.184-1.062
								c-20.207-3.389-43.475-7.427-66.85-11.467c-5.377-1.732,16.834,1.979,15.465,1.39l10.646,1.933
								c-0.654,0.26-22.393-3.576-12.848-1.352c18.9,2.848,27.379,4.661,45.391,6.941c-5.412-1.787-23.584-3.813-35.111-6.367
								c4.877,0.861,9.014,1.447,13.039,1.986c-10.908-1.894-22.572-3.99-35.004-6.092l-2.832-0.244
								c8.375,1.441,14.166,2.441,14.906,2.604c-11.109-1.877-20.564-2.897-21.393-2.397l1.973,0.339l-4.059-0.452
								c-2.605-0.459-5.207-0.915-7.789-1.368c-0.945-0.117-1.93-0.238-2.932-0.362l1.533,0.122
								c-2.525-0.435-5.033-0.866-7.541-1.296c-0.914-0.121-1.906-0.252-3.119-0.413c0.482,0.059,0.873,0.073,1.109,0.063
								c-0.814-0.143-1.607-0.282-2.41-0.422c-3.047-0.246-8.326-0.871-13.391-1.478c-5.07-0.575-9.922-1.141-12.107-1.33
								c-5.752-0.644-12.764-1.6-17.152-2.234c4.076,0.563,9.48,1.301,7.904,0.811c-8.238-1.49-12.168-2.706-26.541-4.074
								l8.387,1.148c0,0-4.744-0.415-9.486-0.83c-2.373-0.21-4.742-0.417-6.525-0.545c-1.779-0.137-2.967-0.228-2.967-0.228
								c-6.551-1.239,9.477,0.724,12.133,0.793c-7.354-0.813-14.055-1.81-19.77-2.704c-5.719-0.875-10.455-1.606-13.906-1.604
								c-0.906-0.595-2.41-1.588-12.064-2.647c6.881,1.351-5.828-0.309-0.186,0.938c-3.367-0.105-10.742-1.411-11.34-1.112
								l0.928-0.097c-8.201-1.257-13.689-1.664-18.004-1.85c-4.318-0.157-7.461-0.129-11.014-0.2
								c-9.893-0.708-17.092-1.4-23.846-1.926c-6.756-0.481-13.057-0.947-21.129-1.427c-0.619-0.365-4.975-1.405-11.455-1.602
								c-3.047,0.336-17.668,0.03-19.168,0.545c11.576,0.642,9.484-0.144,16.43-0.034c5.75,0.796,0.5,0.606,8.365,1.236
								c-3.174-0.227-10.361-0.4-17.621-0.618c-3.631-0.087-7.277-0.277-10.457-0.322c-3.18-0.032-5.887-0.103-7.631-0.243
								l2.463-0.077c-5.564-0.171-8.877-0.607-13.125-0.895c-2.123-0.144-4.48-0.251-7.467-0.269c-1.492-0.009-3.143,0.004-5,0.045
								c-1.857,0.037-3.92,0.212-6.238,0.374l-8.838,0.61c0.426-0.069,0.463-0.137,0.695-0.195
								c-7.246,0.185-9.885,0.087-12.711,0.066c-1.414-0.011-2.875-0.002-4.98,0.07c-1.053,0.043-2.268,0.072-3.717,0.179
								c-1.449,0.12-3.133,0.259-5.131,0.423c1.23-0.107,0.451-0.126,1.699-0.233c-9.125,0.185-18.281,1.33-25.168,1.844
								c-4.236-0.24,0.979-0.52,3.555-1.005c-4.01,0.203-8.102,0.357-12.123,0.76c-4.025,0.369-7.99,0.776-11.764,1.193
								c-7.549,0.833-14.328,1.702-19.275,2.371c0,0-0.646,0.032-1.615,0.081c-0.967,0.065-2.258,0.151-3.549,0.238
								c-2.58,0.175-5.162,0.351-5.162,0.351c3.045-0.384,6.426-0.89,8.811-1.289c2.387-0.369,3.773-0.672,2.822-0.742
								c-5.666,0.516-4.537,0.718-12.57,1.364c1.346-0.432,4.686-1.032,8.422-1.77c-16.637,1.074-3.615,1.421-15.303,1.6
								c-5.221,0.49-8.195,1.216-8.738,1.635l-9.482,0.421c-1.002,0.516-12.633,1.868-20.252,2.763
								c-0.904,0.301,6.191-0.182,9.066-0.679c-0.539,0.427-8.625,1.49-13.836,2.056c-1.008-0.364-9.549,0.56-17.068,1.473
								c-7.518,0.932-14.029,1.718-11.014,0.771c-11.682,1.584-25.744,3.373-38.785,5.255c-13.047,1.831-25.1,3.523-32.771,4.819
								c-5.115,0.434-15.486,1.852-9.336,0.54c-18.801,2.57-28.35,4.954-47.037,7.346c-1.564,0.099,8.42-1.207,7.721-1.436
								c-12.135,2.117-22.248,2.745-41.117,5.734c3.18-0.476,4.072-0.808,4.5-0.972c0.359,0.112-7.699,1.448-12.561,2.307
								c-2.76,0.313,3.637-0.642,2.082-0.543c-18.297,2.399-34.361,4.912-50.393,7.485c-16.041,2.512-32.039,5.153-50.236,7.599
								c5.199-0.703,8.76-1.334,11.025-1.853c2.266-0.514,3.242-0.881,3.277-1.02l-10.172,1.394
								c-3.883,0.853-11.525,1.889-17.885,2.996c-0.805-0.013-3.922,0.278-0.775-0.303c-20.184,2.13-31.271,5.293-55.98,8.158
								l29.703-5.129l-7.447,0.499l13.053-2.273c-7.887,0.652-14.6,2.348-15.605,1.982c1.639-0.349,5.631-0.818,5.732-1.098
								c-7.557,0.778-8.105,1.217-13.748,2.037c7.391-1.457,18.395-3.1,29.508-4.704c11.111-1.631,22.324-3.277,30.174-4.429
								c2.451-0.412-2.084,0.525-2.514,0.686c6.404-0.904,10.297-1.104,18.348-2.423c4.943-1.121-3.869,0.233-7.855,0.748
								c0.508-0.44,2.51-0.701,6.926-1.377c1.029,0.348,24.33-3.25,30.125-3.464c23.627-3.531-3.965-0.704,19.154-3.805l6.98-0.438
								c13.338-2.347,30.625-5.226,45.811-7.293l-3.197,0.479c-2.092,0.542,1.447,0.182,3.023,0.078
								c11.49-1.422,21.705-3.546,28.727-3.983c6.5-1.217,15.182-2.736,24.111-4.2c8.938-1.432,18.105-2.901,25.561-4.096
								c4.141,0.171-19.434,3.313-25.596,4.628l13.617-1.883c-8.41,1.171-11.701,1.908-16.686,3.019
								c11.951-1.512,15.787-2.692,27.08-4.439c-0.857,0.32,0.68,0.232,5.895-0.481l1.416-0.689
								c0.104,0.026,0.686-0.017,2.307-0.209l20.111-2.953c-4.305,0.354-4.572-0.04-9.775,0.638
								c1.896,0.039-2.518,0.675-7.723,1.351c4.523-0.926-5.121,0.412-5.039,0.149c10.439-1.407,23.271-3.124,30.113-4.168
								l2.273,0.156c9.971-1.237,20.484-2.715,27.254-3.423l-2.094,0.497c11.979-1.322,23.711-3.088,34.418-3.766
								c5.32-0.815,11.326-1.734,17.09-2.617c5.768-0.869,11.293-1.702,15.648-2.358c4.639-0.993,31.49-2.385,43.533-3.957
								c0.818,0-8.273,1.075-12.389,1.611c8.061-0.53,14.408-1.742,16.979-1.326c-18.082,1.184,1.008,0.412-7.117,1.211
								c8.445-0.66,17.361-1.456,21.488-1.993c-13.689,1.057,4.803-1.217-9.035,0.114c10.684-1.47,25.377-2.325,38.211-2.871
								c-0.113,0.271,1.467,0.307,6.256,0.152c0,0,0.959-0.146,1.916-0.292c0.961-0.125,1.922-0.249,1.922-0.249
								c3.012-0.055,0.113,0.145-2.025,0.33c-1.066,0.116-1.943,0.23-1.799,0.278c0.145,0.056,1.309,0.005,4.334-0.033
								c6.209-0.512,15.582-0.696,24.076-0.924c8.49-0.331,16.123-0.202,18.85-0.85c9.498,0.48-18.072,0.48-3.756,1.069
								c-2.08,0.109-4.357,0.159-6.645,0.183c-2.289,0.041-4.586,0.143-6.709,0.197c-4.25,0.13-7.801,0.262-9.164,0.604
								c8.148-0.414,2.988,0.423,8.242,0.273c0,0,2.27-0.16,4.539-0.321c2.268-0.188,4.541-0.252,4.541-0.252l-2.016-0.023
								c7.625-0.284,17.488-0.356,27.875-0.368c5.195-0.087,10.52,0.208,15.766,0.374c5.244,0.176,10.408,0.349,15.279,0.512
								c2.066-0.01,4.055-0.02,5.986-0.029c1.932,0.009,3.807,0.07,5.656,0.099c3.699,0.078,7.289,0.154,10.982,0.232
								c7.395,0.125,15.172,0.642,25.041,1.488c-5.852-0.148,16.354,1.741,3.873,1.326c4.549,0.514,9.066,1.025,12.488,1.258
								c3.418,0.256,5.729,0.328,5.834,0.206c-8.012-0.895-2.818-0.368-9.549-1.174c4.584,0.139,15.088,1.204,19.385,1.85
								c-1.992-0.229-1.244-0.088-1.699-0.034c9.535,1.267,4.619,0.198,11.541,0.848c2.129,0.724,15.236,1.805,21.492,2.898
								l9.211,0.529c-5.072-0.223,8.727,1.266,10.115,1.833c6.572,0.597,12.125,0.847,22.057,2.33
								c-4.135-0.358,9.033,1.57,9.141,2.048c8.475,1.453,15.559,2.201,22.527,2.958c6.961,0.802,13.807,1.62,21.801,3.162
								c-0.514,0.021-3.805-0.203,0.887,0.629c3.729,0.442,10.189,1.534,14.16,2.124l-0.127-0.008
								c0.076,0.008,0.125,0.013,0.213,0.022c1.941,0.288,3.16,0.43,3.232,0.337c6.838,0.69,10.412,0.778,23.787,2.638
								c-0.898-0.651-12.182-2.307-17.086-2.919l-4.289-0.201c-3.906-1.371-12.049-1.805-15.082-2.538
								c8.141,0.43,31.154,4.309,45.041,6.098c-4.154-1.026-10.805-2.334-18.424-3.675c-7.621-1.325-16.205-2.708-24.211-3.95
								l7.002,1.42l-8.373-1.333l8.021,1.812c-7.912-1.378-14.799-2.292-21.965-3.43c8.402,1.288,11.566,2.458,6.834,1.619
								c-9.287-1.919-9.814-1.199-16.959-2.333c3.973,0.659,9.162,1.468,5.775,1.228c-14.016-2.784-17.9-2.887-30.664-5.42
								c0.738,0.526-3.273-0.065-7.732-0.688c-4.463-0.614-9.363-1.307-10.373-1.11l5.969,0.893l-12.732-1.262
								c-11.596-2.27,10.445,0.76-7.291-2.161c-16.432-2.168-16.107-1.308-29.043-2.827c4.314-0.002,14.617,0.941,25.051,2.269
								l-6.287-1.035c1.688,0.079,6.143,0.575,11.068,1.208c4.916,0.686,10.316,1.439,13.912,1.941
								c-11.955-1.092,5.531,0.935,10.871,2.109c1.066-0.317-6.576-1.321,2.477-0.417c-8.424-1.186-9.668-1.295-20.387-2.959
								c23.178,3.392,21.096,1.311,41.268,4.661c-9.354-1.163,3.156,1.144,4.238,1.532c4.393,0.62,13.293,1.884,16.965,2.332
								l-3.205-1.176c5.902,0.765,9.82,1.656,13.973,2.535c4.146,0.901,8.527,1.789,15.361,2.534
								c1.832-0.115-11.904-2.048-9.453-1.734c9.311,1.279,15.594,2.454,21.598,3.702c5.998,1.271,11.717,2.62,19.904,4.226
								c0.955-0.048,0.832-0.5,6.646,0.097c-1.871,0.102,2.354,1.008-4.168,0.232c5.469,1.067,12.033,1.875,16.908,2.534
								c-11.404-2.156,4.771,0.213,6.922,0.328c5.92,1.064-1.869,0.095-5.531-0.401c4.736,0.906,10.291,2.443,13.094,2.3
								c0.121,0.452-13.486-1.13-22.32-2.502l5.93,1.065c-4.137-0.472-4.893-0.669-10.787-1.715c5.736,1.287,5.1,1.558,3.709,1.629
								c-0.756-0.19,0.438-0.029-0.279-0.211c-4.736-0.902-8.4-1.38-7.344-0.979c-4.371-0.138,6.539,1.433,9.709,2.266
								c2.439,0.371,4.879,0.742,7.281,1.107l24.984,2.349c10.59,1.583,15.248,2.818,23.129,4.44l2.246-0.115
								c9.164,1.614,17.791,3.244,11.809,2.854c-0.297-0.217-1.51-0.384-3.498-0.747c-0.279,0.02-0.746-0.012-1.328-0.072
								c-0.195,0.002-0.314,0.004-0.473,0.006c9.85,1.511,15.994,2.454,16.57,2.542c-16.797-2.142-0.992,0.735-3.924,1.119
								l16.887,2.586c-10.158-2.007-0.111-0.451,3.537,0.05c0.914,0.65,13.555,2.307,19.461,3.368l-0.457,0.025
								c5.447,1.089,15.049,2.658,21.887,3.675 M4092.467,58.089c-12.482-1.854-25.281-3.956-30.469-4.133
								c3.758,0.947,6.559,0.805,10.793,1.728c-6.24-0.585-14.172-2.007-24.508-3.784l-3.318-0.981l-10.434-1.548
								c4.373,0.523,1.832-0.344,12.758,1.431c-1.334-0.619-10.832-1.753-17.492-3.017l-3.518-0.047
								c1.371-0.074-12.922-2.571-2.684-1.245l16.596,2.374l-4.531-1.148l13.992,2.273l-3.34-0.283
								c22.518,3.445,6.441,2.201,29.139,5.376 M4091.371,58.289 M3158.576,57.259c0.666-0.151,1.195-0.294,1.568-0.434
								C3159.752,56.972,3160.223,56.968,3158.576,57.259z M4057.565,57.687c25.475,5.554,43.385,9.522,0.52,2.28l-2.83-0.39
								c5.586,1.104,15.238,2.742,24.352,4.188 M3955.865,41.907c0.385,0.058,0.52,0.078,0.865,0.13
								c-1.971-0.35-3.959-0.703-6.025-1.07C3951.504,41.141,3953.031,41.428,3955.865,41.907z M3972.811,45.376l2.068-0.11
								c-1.855-0.332-3.729-0.667-5.66-1.013C3969.817,44.562,3970.457,44.854,3972.811,45.376z M4027.305,56.168
								c3.537,0.049,15.107,1.991,15.922,1.491c0.754-0.036-1.666-0.51-4.377-1.023c-3.043-0.534-6.295-1.104-9.738-1.709
								c-0.131,0.071-0.834,0.038-1.996-0.078c3.395,0.659,5.646,1.2,4.203,1.347c-8.609-2.32-7.951-0.747-17.373-2.572
								C4010.865,53.548,4024.403,55.853,4027.305,56.168z M3999.365,44.025c-0.115-0.022-0.248-0.049-0.381-0.075
								c0.143,0.025,0.287,0.05,0.42,0.074L3999.365,44.025z"/>
							<path fill="#E05241" d="M3321.918,27.198l-55.699,8.262C3282.248,33.082,3297.047,30.887,3321.918,27.198z"/>
							<polygon fill="#E05241" points="4074.221,55.613 4083.008,56.979 4073.428,55.415 							"/>
							<polygon fill="#E05241" points="4033.494,47.589 4032.002,47.21 4024.688,46.201 4026.199,46.583 							"/>
							<path fill="#E05241" d="M4082.494,68.258c2.848,0.996,3.201,0.532,9.871,1.765l-7.48-0.74"/>
							<path fill="#E05241" d="M3728.129,3.282c2.635-0.092,15.404,1.396,16.031,1.783c-1.723-0.031-8.662-0.591-4.336,0.051
								l10.193,0.178c13.387,1.887-10.34,0.062-16.998-0.297c13.676,1.504,17.801,1.254,32.33,2.975
								c-4.27-0.566-6.955-1.085-9.201-1.524c-0.439-0.646,13.086,1.17,22.773,2.237c-6.129-0.952-2.535-0.792,1.979-0.459
								c0.814,0.085,1.35,0.119,1.732,0.128c0.525,0.039,1.031,0.075,1.537,0.112l-1.16-0.147c0.084-0.056-0.156-0.167-0.975-0.382
								c-8.145-0.837-14.314-1.989-19.545-2.614c2.533,0.775-1.932,0.318-7.855-0.39c-5.932-0.654-13.336-1.486-16.646-1.676
								l-7.629-0.67c0,0-0.711-0.071-1.422-0.142c-0.713-0.062-1.426-0.124-1.426-0.124c-0.574-0.147,0.258-0.243,4.625,0.016
								c-3.641-0.23-15.773-1.229-14.666-0.852c0,0-6.918-0.569-13.834-1.139c-6.932-0.445-13.865-0.889-13.865-0.889
								c-0.865-0.095-1.721-0.199-2.359-0.31c-0.959-0.001-1.119,0.038-1.004,0.094c0,0-1.889-0.121-5.191-0.332
								c-3.309-0.161-8.049-0.292-13.729-0.498c-5.684-0.195-12.314-0.424-19.416-0.668c-7.098,0-14.668-0.001-22.238-0.002
								c-3.787,0.001-7.572,0.002-11.297,0.003c-3.721,0.11-7.383,0.219-10.926,0.324c-7.086,0.213-13.699,0.413-19.367,0.583
								c-1.418,0.043-2.775,0.084-4.066,0.123c-1.289,0.07-2.512,0.137-3.662,0.2c-2.297,0.128-4.301,0.239-5.951,0.331
								c-3.299,0.184-5.186,0.289-5.186,0.289c2.98-0.126,5.76-0.206,8.564-0.282c2.805-0.059,5.627-0.198,8.707-0.202
								c-9.207,0.912,10.076-0.184,7.395,0.5c-4.137,0.359-10.211,0.398-13.816,0.511c-1.33,0.378,3.822,0.365,3.234,0.762
								c15.236-0.102,17.533-1.604,32.428-1.831c-0.578,0.41-5.178,0.777,4.578,0.561c0,0-0.621,0.02-1.24,0.039
								c-0.619,0.013-1.238,0.052-1.238,0.052c15.619-0.431,12.164,0.821,22.006-0.184l-0.256,0.527
								c1.771-0.099,3.961-0.173,6.373-0.229c1.205-0.023,2.465-0.048,3.756-0.073c0.646-0.009,1.299-0.019,1.955-0.028
								c0.658,0.015,1.32,0.029,1.984,0.044c5.307,0.146,10.699,0.29,14.588,0.396l-0.473,0.085
								c10.92,0.093,13.992,0.128,17.383,0.316c3.387,0.23,7.102,0.526,19.324,1.189l-11.277-0.112
								c8.391,0.811,10.35,0.222,16.377,0.743c-0.439,0.091,0.939,0.509-4.771,0.245c0,0,0.465,0.015,1.275,0.042
								c0.813,0.026,1.971,0.059,3.359,0.14c2.777,0.144,6.48,0.336,10.184,0.528c3.705,0.192,7.41,0.384,10.189,0.529
								c2.781,0.13,4.629,0.275,4.629,0.275C3737.674,4.451,3729.198,3.602,3728.129,3.282z"/>
							<path fill="#E05241" d="M3765.35,7.972c1.564,0.208,3.324,0.422,5.416,0.642C3768.754,8.375,3767.014,8.168,3765.35,7.972z"
								/>
							<path fill="#E05241" d="M3556.903,0.067l8.477-0.473C3562.746-0.292,3560.018-0.151,3556.903,0.067z"/>
							<path fill="#E05241" d="M3807.653,12.059c-5.057-0.973,3.852,0.146,4.766,0.068c0,0-4.557-0.618-9.115-1.235
								c-4.564-0.579-9.129-1.158-9.129-1.158c0.061,0.212-1.785,0.207-1.441,0.438c0,0,3.732,0.465,7.463,0.93
								c1.865,0.234,3.73,0.468,5.129,0.643C3806.721,11.933,3807.653,12.059,3807.653,12.059z"/>
							<path fill="#E05241" d="M3788.934,8.681c-0.635,0.062-2.584-0.06-4.764-0.216l10.004,1.269
								C3794.125,9.574,3793.022,9.294,3788.934,8.681z"/>
							<polygon fill="#E05241" points="3789.506,19.683 3786.289,19.291 3781.403,18.827 							"/>
							<path fill="#E05241" d="M3739.192,13.051c3.828,0.696,11.166,1.19,13.627,1.368
								C3744.383,13.574,3748.041,13.83,3739.192,13.051z"/>
							<polygon fill="#E05241" points="3749.266,17.379 3741.139,16.739 3741.883,16.875 							"/>
							<path fill="#E05241" d="M3494.586,6.941c-1.338,0.139-2.635,0.273-3.99,0.414C3492.418,7.183,3493.617,7.055,3494.586,6.941z
								"/>
							<path fill="#E05241" d="M3564.723,1.21c-19.584,0.488,12.787-1.198,6.617-1.617l-10.645,0.838l0.904-0.253l-12.992,0.784
								c2.691,0.2,4.699,0.111,4.137,0.508c-8.674,0.381-10.039,0.423-10.834,0.335c-0.797-0.087-1.018-0.259-7.377-0.001
								l-19.34,1.553l1.566-0.23c-1.633,0.133-2.348,0.234-2.908,0.337c0,0-1.018,0.082-2.797,0.225
								c-1.783,0.125-4.32,0.39-7.367,0.688c-6.09,0.6-14.213,1.401-22.334,2.201c-8.129,0.751-16.229,1.709-22.307,2.398
								c-6.076,0.69-10.129,1.15-10.129,1.15c-11.771,1.587,6.594-0.064-2.053,1.429c6.842-0.722,15.342-1.618,22.279-2.35
								c6.934-0.754,12.313-1.278,12.855-1.718c-0.445,0.144-1.326,0.429,1.453,0.251l7.873-1.351l-7.582,0.528
								c3.957-0.676,12.373-1.593,20.387-2.35c4.002-0.406,7.918-0.668,11.121-0.853c3.203-0.191,5.697-0.304,6.869-0.301
								c-14.643,1.358-7.242,1.369-27.65,2.925c0.928,0.097,4.689,0.066,0.115,0.603c5.967-0.596,11.771-1.246,17.533-1.692
								c5.762-0.449,11.461-0.892,17.186-1.338c5.723-0.459,11.475-0.92,17.344-1.391C3552.526,2.136,3558.52,1.708,3564.723,1.21z"
								/>
							<path fill="#E05241" d="M3325.696,27.253l0.184-0.092C3325.449,27.256,3325.309,27.302,3325.696,27.253z"/>
							<path fill="#E05241" d="M3333.67,26.244l11.465-2.304l-18.016,2.545l-1.24,0.677c1.57-0.345,7.861-1.47,10.334-1.613
								L3333.67,26.244z"/>
							<path fill="#E05241" d="M3358.5,21.659c-9.273,1.495-8.693,2.01-3.574,1.575c-8.512,1.452-4.602-0.005-10.398,1.424
								c0.25,0.395,10.748-1.306,13.164-1.719L3358.5,21.659z"/>
							<polygon fill="#E05241" points="3427.387,13.197 3424.789,13.76 3431.266,13.035 							"/>
							<path fill="#E05241" d="M3424.789,13.76l-6.439,0.72c0.467,0.126,0.932,0.248,1.99,0.244L3424.789,13.76z"/>
							<path fill="#E05241" d="M3401.489,16.367c-2.73,0.279-5.744,0.632-9.389,1.102c0,0,2.346-0.284,4.691-0.569
								C3399.141,16.633,3401.489,16.367,3401.489,16.367z"/>
							<path fill="#E05241" d="M3408.846,15.621l-0.221-0.051l-7.137,0.797C3404.121,16.1,3406.485,15.86,3408.846,15.621z"/>
							<path fill="#E05241" d="M3418.35,14.48c-1.092-0.283-2.361-0.565-11.639,0.683l1.914,0.407L3418.35,14.48z"/>
							<polygon fill="#E05241" points="3690.28,11.705 3682.932,11.464 3683.699,11.578 3691.049,11.818 							"/>
							<path fill="#E05241" d="M3647.934,9.534c-1.82,0.055-3.193,0.144-4.451,0.217C3645.397,9.71,3646.926,9.629,3647.934,9.534z"
								/>
							<path fill="#E05241" d="M3616.426,12.34c-8.631-0.374,11.902-0.622-4.084-0.667c-0.707-0.157,0.811-0.475,3.447-0.63
								c2.635-0.148,6.393-0.224,10.16-0.126c-0.598,0.364-7.336,0.231-2.701,0.604c4.998-0.42,6.893-0.132,5.152-0.682
								c8.424-0.34,9.354-0.73,15.082-1.086c-5.098,0.12-12.99,0.038-21.225,0.013c-8.234-0.14-16.814,0.325-23.264,0.825
								c-7.115,0.871-2.754,1.643-2.766,2.597C3597.317,13.401,3615.742,12.883,3616.426,12.34z"/>
							<path fill="#E05241" d="M3630.006,13.295c3.988,0.048,5.203,0.01,7.65-0.068C3637.002,12.9,3633.223,13.282,3630.006,13.295z
								"/>
							<path fill="#E05241" d="M3537.766,9.643c-0.766,0.194-7.99,0.918-6.424,1.033l10.979-1.016
								C3539.744,9.836,3538.824,9.74,3537.766,9.643z"/>
							<path fill="#E05241" d="M3547.137,9.254c0,0-1.207,0.069-2.41,0.185c-1.203,0.111-2.406,0.222-2.406,0.222
								C3543.522,9.59,3545.008,9.42,3547.137,9.254z"/>
							<path fill="#E05241" d="M3537.237,9.599c0.178,0.015,0.334,0.028,0.529,0.044C3537.918,9.602,3537.877,9.576,3537.237,9.599z
								"/>
							<path fill="#E05241" d="M3374.881,19.585c0.119-0.28-4.738,0.516-7.178,0.915C3369.694,20.261,3372.5,19.979,3374.881,19.585
								z"/>
							<path fill="#E05241" d="M3191.789,46.442l-4.334,0.4C3188.99,46.752,3189.787,46.702,3191.789,46.442z"/>
							<path fill="#E05241" d="M3126.49,62.664c-0.109,0.066-0.43,0.153-0.848,0.25C3126.061,62.824,3126.364,62.739,3126.49,62.664
								z"/>
							<path fill="#E05241" d="M3125.643,62.914c-2.918,0.623-12.041,1.433-15.273,2.188l0.41-0.155l-6.064,0.978
								C3110.414,65.156,3122.393,63.679,3125.643,62.914z"/>
						</g>
					</g>
				</g>
			</g>
		</g>
	</g>
</g>
</svg>
