<?xml version="1.0" encoding="utf-8"?>
<!-- Generator: Adobe Illustrator 16.0.0, SVG Export Plug-In . SVG Version: 6.00 Build 0)  -->
<!DOCTYPE svg PUBLIC "-//W3C//DTD SVG 1.1//EN" "http://www.w3.org/Graphics/SVG/1.1/DTD/svg11.dtd">
<svg version="1.1" id="Layer_1" xmlns="http://www.w3.org/2000/svg" xmlns:xlink="http://www.w3.org/1999/xlink" x="0px" y="0px"
	 width="200px" height="180px" viewBox="0 0 200 180" enable-background="new 0 0 200 180" xml:space="preserve">
<g>
	<g>
		<path fill="#255593" d="M101.094,153.565l-0.144-0.02c-3.437,0-6.413-1.813-9.281-3.581c-2.041-1.252-3.957-2.437-5.919-2.951
			c-1.674-0.372-4.154-0.308-6.622-0.164c-1.173,0.084-2.352,0.164-3.506,0.164c-2.675,0-4.602-0.402-6.24-1.304l-0.352-0.193
			c-2.853-1.589-4.532-4.669-6.142-7.641c-1.148-2.106-2.233-4.111-3.685-5.572c-1.441-1.347-3.447-2.343-5.581-3.402
			c-3.066-1.525-6.246-3.101-7.989-5.974l-0.114-0.193c-1.743-2.892-1.653-6.343-1.575-9.701c0.025-1.154,0.06-2.314,0.01-3.452
			l-0.049-1.012h0.02c-0.05-0.737-0.148-1.51-0.347-2.183c-0.594-2.085-1.967-4.141-3.294-6.133
			c-1.862-2.813-3.778-5.72-3.843-8.944c-0.064-3.279,1.733-6.279,3.467-9.202c1.124-1.862,2.17-3.615,2.764-5.428l0.069-0.209
			c0.089-0.222,0.188-0.435,0.218-0.658c0.455-2.025,0.313-4.269,0.168-6.646c-0.197-3.406-0.426-6.903,1.165-9.797l0.192-0.337
			c0.203-0.371,0.476-0.629,0.709-0.852c0.104-0.094,0.207-0.207,0.302-0.307l0.347-0.415c0.243-0.288,0.48-0.58,0.777-0.833
			c1.59-1.461,3.615-2.586,5.557-3.681c2.154-1.203,4.186-2.341,5.661-3.853c1.486-1.525,2.531-3.616,3.636-5.829
			c1.535-3.036,3.101-6.166,5.908-7.835c2.248-1.348,5.022-1.541,7.419-1.541c0.733,0,1.472,0.03,2.209,0.03
			c0.724,0.034,1.446,0.05,2.175,0.05c1.327,0,3.051-0.05,4.596-0.467c1.981-0.608,3.982-1.926,5.934-3.214
			c2.817-1.862,5.729-3.788,8.975-3.853h0.158h0.024h0.178c3.438,0,6.424,1.833,9.307,3.6c2.03,1.248,3.942,2.423,5.894,2.938
			c1.659,0.366,4.126,0.303,6.617,0.143c1.179-0.063,2.357-0.143,3.517-0.143c2.68,0,4.605,0.402,6.245,1.298l0.312,0.179
			c2.883,1.604,4.552,4.689,6.166,7.661c1.135,2.1,2.215,4.092,3.671,5.552c1.446,1.367,3.467,2.363,5.611,3.423
			c3.061,1.51,6.24,3.101,7.998,5.974l0.188,0.351c1.649,2.734,1.561,6.201,1.481,9.54c-0.06,2.362-0.104,4.783,0.455,6.839
			c0.619,1.976,1.927,3.987,3.214,5.929c1.854,2.808,3.774,5.716,3.835,8.959c0.073,3.259-1.739,6.26-3.508,9.153
			c-1.282,2.12-2.506,4.125-3.001,6.181c-0.5,2.056-0.396,4.383-0.268,6.84c0.114,2.234,0.218,4.531-0.158,6.666
			c-0.089,0.58-0.282,1.109-0.461,1.62c-0.108,0.292-0.124,0.42-0.148,0.529c-0.05,0.292-0.114,0.595-0.282,0.917l-0.272,0.466
			c-1.536,2.764-4.616,4.446-7.603,6.071c-2.105,1.139-4.096,2.215-5.566,3.675c-0.154,0.193-0.352,0.437-0.556,0.693
			c-1.243,1.476-2.173,3.309-3.169,5.266c-1.54,3.001-3.131,6.116-5.948,7.819c-2.239,1.332-4.962,1.511-7.33,1.511
			c-0.763,0-1.521-0.015-2.298-0.034c-0.753-0.016-1.501-0.046-2.254-0.046c-1.352,0-3.11,0.065-4.675,0.511
			c-0.867,0.228-1.743,0.674-2.521,1.124l-0.387,0.243c-0.96,0.56-1.916,1.188-2.857,1.813c-2.823,1.862-5.73,3.789-8.969,3.854
			L101.094,153.565z M101.208,151.718l0.218,0.08c2.764-0.159,5.26-1.813,7.9-3.566c0.826-0.545,1.663-1.104,2.511-1.62l0,0
			l0.436-0.271c0.971-0.565,2.11-1.188,3.313-1.525c1.768-0.5,3.68-0.564,5.15-0.564c0.763,0,1.531,0.015,2.303,0.034
			c0.753,0.03,1.502,0.045,2.249,0.045c2.12,0,4.552-0.159,6.423-1.268c2.394-1.427,3.805-4.191,5.29-7.113
			c0.996-1.94,2.021-3.952,3.378-5.571c0.193-0.242,0.421-0.53,0.635-0.788c1.688-1.669,3.888-2.856,6.007-4.012
			c2.883-1.574,5.621-3.055,6.968-5.477c0-0.016,0.025-0.1,0.064-0.178l0.164-0.239c0.021-0.099,0.045-0.212,0.069-0.337
			c0.04-0.212,0.074-0.405,0.139-0.579l0.079-0.243c0.169-0.45,0.322-0.866,0.377-1.298c0.361-1.961,0.258-4.16,0.143-6.293
			c-0.118-2.478-0.247-5.028,0.333-7.341c0.555-2.313,1.901-4.527,3.204-6.681c1.698-2.809,3.304-5.458,3.239-8.206
			c-0.055-2.729-1.749-5.296-3.537-8.029c-1.352-2.036-2.748-4.142-3.437-6.389c-0.634-2.343-0.589-4.899-0.53-7.371
			c0.089-3.243,0.159-6.294-1.224-8.606c0.011,0.015,0.011,0.028,0.011,0.028c-0.015,0-0.09-0.079-0.153-0.173l-0.145-0.337
			c-1.5-2.362-4.393-3.789-7.187-5.17c-2.159-1.075-4.393-2.186-6.047-3.725c-1.654-1.674-2.838-3.873-3.997-5.992
			c-1.555-2.874-3.035-5.602-5.442-6.954c-0.347-0.13-0.427-0.224-0.48-0.272c-1.224-0.639-2.883-0.981-5.25-0.981
			c-1.12,0-2.273,0.064-3.413,0.129c-2.649,0.179-5.255,0.229-7.142-0.188c-2.229-0.579-4.344-1.882-6.389-3.15
			c-2.674-1.639-5.433-3.338-8.271-3.338c-0.006,0-0.064,0.015-0.129,0.029l-0.233,0.051l-0.208-0.08
			c-2.688,0.109-5.235,1.798-7.924,3.561c-2.046,1.353-4.161,2.75-6.404,3.438c-1.793,0.465-3.655,0.53-5.086,0.53
			c-0.738,0-1.477-0.015-2.224-0.03c-3.026-0.078-6.206-0.242-8.668,1.253c-2.377,1.412-3.773,4.176-5.235,7.113
			c-1.134,2.232-2.298,4.541-3.967,6.26c-1.644,1.703-3.888,2.957-6.052,4.16c-1.857,1.06-3.799,2.135-5.245,3.452
			c-0.242,0.208-0.427,0.436-0.604,0.658l-0.362,0.417c-0.094,0.129-0.263,0.292-0.421,0.449c-0.153,0.164-0.317,0.308-0.396,0.437
			l-0.079,0.224c-0.034,0.063-0.089,0.114-0.144,0.179c-1.303,2.376-1.109,5.473-0.901,8.765c0.144,2.393,0.287,4.885-0.198,7.113
			c-0.06,0.291-0.179,0.613-0.297,0.931c-0.698,2.12-1.858,4.066-2.967,5.928c-1.694,2.809-3.284,5.474-3.225,8.252
			c0.055,2.714,1.759,5.284,3.546,7.998c1.397,2.105,2.844,4.284,3.517,6.632c0.347,1.174,0.411,2.457,0.476,3.596l0.055,1.031
			h-0.064c0,0.832-0.015,1.697-0.029,2.551c-0.074,3.194-0.154,6.2,1.173,8.508c0.064,0.05,0.134,0.149,0.209,0.242l0.129,0.308
			c1.505,2.378,4.397,3.804,7.191,5.186c2.158,1.075,4.383,2.169,6.032,3.725c1.654,1.669,2.848,3.853,3.996,5.987
			c1.541,2.828,2.997,5.508,5.35,6.89l0.277,0.1c0.123,0.079,0.208,0.143,0.268,0.193c1.361,0.723,3.001,1.024,5.299,1.024
			c1.124,0,2.264-0.065,3.393-0.144c1.188-0.064,2.353-0.144,3.502-0.144c1.431,0,2.585,0.113,3.645,0.351
			c2.239,0.58,4.368,1.898,6.435,3.15c2.654,1.635,5.418,3.339,8.227,3.339c0.034-0.015,0.079-0.029,0.144-0.029L101.208,151.718z
			 M100.96,144.557c-0.995,0-1.99-0.064-2.986-0.128l-2.064-0.114c-0.897-0.05-1.788-0.079-2.655-0.193
			c-1.446-0.175-2.893-0.48-4.289-0.787l-1.565-0.337c-0.748-0.16-1.495-0.322-2.224-0.531c-1.352-0.366-2.649-0.866-3.917-1.331
			l-1.249-0.466c-0.906-0.337-1.803-0.674-2.664-1.075c-0.985-0.436-1.941-0.966-2.888-1.496l-1.55-0.847
			c-0.991-0.564-1.991-1.109-2.932-1.738c-0.674-0.431-1.308-0.931-1.962-1.426l-1.055-0.803c-1.198-0.901-2.451-1.848-3.575-2.877
			c-0.546-0.511-1.065-1.041-1.591-1.59l-0.812-0.832c-1.104-1.124-2.254-2.283-3.273-3.552c-0.561-0.688-1.085-1.441-1.601-2.185
			l-0.892-1.268c-0.768-1.074-1.565-2.164-2.253-3.338c-0.491-0.837-0.901-1.688-1.318-2.535l-1.005-2.042
			c-0.485-0.965-0.995-1.94-1.396-2.986c-4.517-11.4-4.952-24.277-1.209-36.272l0.287-0.967c0.327-1.074,0.67-2.169,1.075-3.21
			c0.361-0.886,0.778-1.732,1.204-2.585l0.678-1.367c0.634-1.281,1.298-2.614,2.075-3.882c0.446-0.758,0.951-1.462,1.446-2.185
			l0.49-0.693c7.563-10.871,18.811-18.627,31.673-21.787c1.229-0.322,2.857-0.708,4.521-0.98c1.575-0.243,3.146-0.357,4.631-0.45
			l0.565-0.051c1.203-0.079,2.416-0.173,3.62-0.173l0.352,0.016c1.501,0.015,2.957,0.157,4.368,0.301l0.738,0.085
			c1.332,0.109,2.699,0.238,4.065,0.48c0.906,0.179,1.789,0.401,2.68,0.644l1.564,0.402c1.438,0.366,2.933,0.752,4.369,1.268
			c1.06,0.386,2.065,0.851,3.061,1.316l1.08,0.481c1.272,0.544,2.565,1.108,3.799,1.812c1.287,0.693,2.48,1.512,3.64,2.299
			l1.283,0.852c0.803,0.529,1.604,1.06,2.367,1.669c1.229,0.946,2.348,2.021,3.451,3.066l1.254,1.188
			c0.634,0.58,1.263,1.174,1.848,1.817c0.985,1.075,1.877,2.264,2.754,3.418l0.826,1.095c0.699,0.896,1.388,1.813,2.026,2.808
			c0.718,1.09,1.348,2.263,1.946,3.388l0.658,1.238c0.59,1.124,1.199,2.293,1.714,3.496c0.625,1.466,1.13,2.972,1.591,4.388
			c4.125,12.556,3.54,26.205-1.675,38.424l-0.263,0.594c-0.352,0.868-0.713,1.72-1.114,2.536c-0.718,1.397-1.545,2.75-2.353,4.031
			l-0.564,0.917c-0.52,0.867-1.045,1.733-1.645,2.535c-0.684,0.966-1.461,1.863-2.233,2.749l-0.6,0.688
			c-8.201,9.524-19.35,15.992-31.444,18.212c-0.906,0.158-1.803,0.237-2.729,0.32c-0.406,0.03-0.826,0.081-1.233,0.125l-0.916,0.1
			c-1.118,0.128-2.258,0.271-3.427,0.307L100.96,144.557z M100.302,37.241c-1.174,0-2.328,0.079-3.502,0.164l-0.569,0.044
			c-1.436,0.1-2.977,0.212-4.472,0.436c-1.601,0.272-3.181,0.645-4.368,0.945C74.938,41.896,64.058,49.4,56.737,59.915l-0.5,0.708
			c-0.48,0.688-0.956,1.361-1.387,2.069c-0.733,1.224-1.348,2.457-2.006,3.775l-0.669,1.366c-0.411,0.802-0.812,1.604-1.139,2.437
			c-0.396,1.016-0.713,2.041-1.03,3.086l-0.303,0.961c-3.619,11.614-3.194,24.09,1.17,35.119c0.386,0.967,0.837,1.862,1.337,2.829
			l1.024,2.084c0.388,0.802,0.773,1.625,1.239,2.393c0.648,1.109,1.387,2.119,2.164,3.214l0.916,1.283
			c0.49,0.723,0.98,1.431,1.511,2.09c0.971,1.204,2.04,2.278,3.17,3.418l0.827,0.852c0.5,0.515,0.98,1.03,1.5,1.51
			c1.08,0.981,2.289,1.893,3.463,2.779l1.069,0.818c0.599,0.465,1.203,0.93,1.837,1.331c0.922,0.609,1.878,1.139,2.833,1.668
			l1.541,0.854c0.911,0.515,1.817,1.01,2.763,1.431c0.838,0.401,1.694,0.724,2.556,1.025l1.244,0.48
			c1.297,0.484,2.505,0.936,3.778,1.288c0.693,0.192,1.406,0.352,2.115,0.48l1.58,0.351c1.421,0.308,2.753,0.594,4.135,0.773
			c0.817,0.099,1.654,0.128,2.491,0.178l2.114,0.109c0.957,0.049,1.923,0.113,2.878,0.113h0.53c1.085-0.029,2.189-0.178,3.27-0.287
			l0.921-0.113c0.436-0.051,0.866-0.08,1.282-0.129c0.853-0.065,1.719-0.145,2.581-0.302c11.674-2.14,22.47-8.4,30.419-17.632
			l0.609-0.693c0.763-0.883,1.496-1.72,2.119-2.601c0.59-0.787,1.08-1.604,1.575-2.427l0.476-0.782
			c0.882-1.431,1.693-2.714,2.368-4.047c0.386-0.788,0.728-1.609,1.074-2.427l0.257-0.609c5.042-11.837,5.622-25.036,1.62-37.189
			c-0.445-1.382-0.937-2.843-1.54-4.255c-0.471-1.123-1.075-2.264-1.645-3.357l-0.648-1.218c-0.58-1.11-1.188-2.234-1.882-3.265
			c-0.609-0.961-1.269-1.843-1.932-2.709l-0.848-1.095c-0.832-1.124-1.708-2.264-2.654-3.294c-0.555-0.609-1.148-1.169-1.729-1.713
			l-1.277-1.209c-1.114-1.06-2.164-2.055-3.323-2.951c-0.728-0.58-1.485-1.076-2.253-1.575l-1.308-0.882
			c-1.169-0.802-2.273-1.561-3.487-2.219c-1.179-0.639-2.377-1.169-3.655-1.733l-1.104-0.496c-0.966-0.45-1.927-0.886-2.932-1.252
			c-1.357-0.485-2.81-0.853-4.215-1.223l-1.58-0.402c-0.848-0.237-1.689-0.445-2.546-0.609c-1.277-0.242-2.61-0.352-3.902-0.48
			l-0.748-0.063c-1.388-0.129-2.809-0.274-4.229-0.308H100.302z"/>
	</g>
	<g>
		<path fill="#255593" d="M54.954,79.343v-2.648h0.709v-6.487h-0.709v-2.665h7.306l1.887,1.896v3.547l-1.887,1.896h-3.353v1.813
			h0.703v2.648H54.954z M59.323,79.057v-2.089h-0.709v-2.373h3.566l1.679-1.704v-3.357l-1.719-1.72h-6.913v2.106h0.692v7.048h-0.692
			v2.089H59.323z M55.613,78.705v-1.366h0.674v-7.787h-0.674V68.2h6.32l1.549,1.56v2.908l-1.549,1.569h-3.671v3.102h0.713v1.366
			H55.613z M60.813,72.876l0.743-0.738v-1.867l-0.733-0.719h-2.561v3.324H60.813z M58.614,72.504V69.92h1.977l0.604,0.594v1.381
			l-0.604,0.609H58.614z M60.536,72.217l0.377-0.371v-1.268l-0.377-0.371h-1.629v2.01H60.536z"/>
		<path fill="#255593" d="M66.9,79.343v-2.648h0.698v-6.487H66.9v-2.665h7.29l1.902,1.896v3.036l-0.777,0.754l0.777,0.787v2.679
			h0.723v2.648h-3.972v-4.432l-0.361-0.352h-1.64v2.135h0.709v2.648H66.9z M71.259,79.057v-2.089h-0.714v-2.694h2.066l0.529,0.529
			v4.254h3.348v-2.089h-0.683v-2.84l-0.901-0.916l0.901-0.916v-2.744l-1.719-1.718h-6.904v2.086h0.698v7.048h-0.698v2.089H71.259z
			 M67.544,78.705v-1.366h0.709v-7.787h-0.709V68.2h6.359l1.525,1.56v2.378l-1.055,1.074l1.055,1.076v3.051h0.703v1.366h-2.649
			v-4.066l-0.703-0.723h-2.581v3.423h0.699v1.366H67.544z M72.744,72.569l0.738-0.738v-1.575l-0.703-0.704h-2.581v3.018H72.744z
			 M70.545,72.198V69.92h1.992l0.604,0.608v1.095l-0.604,0.575H70.545z M72.468,71.909l0.376-0.365v-0.951l-0.376-0.386h-1.625
			v1.702H72.468z"/>
		<path fill="#255593" d="M79.787,77.468v-8.029l1.887-1.896h5.196l1.877,1.896v8.029l-1.877,1.875h-5.196L79.787,77.468z
			 M81.764,79.042h5.026l1.685-1.688v-7.802l-1.733-1.718h-4.978l-1.679,1.684v7.836L81.764,79.042z M80.432,77.146V69.76
			l1.555-1.56h4.587l1.554,1.56v7.386l-1.554,1.56h-4.587L80.432,77.146z M83.11,77.339h2.328l0.723-0.724V70.29l-0.747-0.738H83.11
			l-0.728,0.719v6.345L83.11,77.339z M82.734,76.406v-5.907l0.595-0.594h1.887l0.584,0.594v5.907l-0.584,0.596h-1.887L82.734,76.406
			z M83.402,76.694h1.714l0.396-0.366v-5.75l-0.396-0.371h-1.724l-0.376,0.371v5.729L83.402,76.694z"/>
		<path fill="#255593" d="M91.148,79.343v-2.648h0.724v-6.487h-0.724v-2.665h7.32l1.883,1.896v8.029l-1.883,1.875H91.148z
			 M98.315,79.057l1.753-1.718v-7.787l-1.753-1.718h-6.869v2.086h0.688v7.048h-0.688v2.089H98.315z M91.808,78.705v-1.366h0.713
			v-7.787h-0.713V68.2h6.339l1.562,1.56v7.386l-1.562,1.56H91.808z M97.027,77.339l0.738-0.724v-6.345l-0.738-0.719h-2.57v7.787
			H97.027z M94.81,76.968V69.92h2.03l0.564,0.563v5.875l-0.614,0.609H94.81z M96.73,76.694l0.366-0.387v-5.729l-0.361-0.371h-1.619
			v6.487H96.73z"/>
		<path fill="#255593" d="M103.13,70.207v-2.665h4.64v2.665h-0.702v6.121l0.371,0.366h1.719l0.387-0.366v-6.121h-0.714v-2.665h4.66
			v2.665h-0.712v7.261l-1.873,1.875h-5.19l-1.896-1.875v-7.261H103.13z M104.08,69.92v7.483l1.68,1.653h5.101l1.654-1.639V69.92
			h0.688v-2.086h-4.071v2.086h0.709v6.453l-0.604,0.595h-1.848l-0.614-0.609V69.92h0.704v-2.086h-4.072v2.086H104.08z
			 M103.778,69.552V68.2h3.348v1.352h-0.708v7.063l0.723,0.724h2.304l0.748-0.739v-7.048h-0.709V68.2h3.368v1.352h-0.718v7.594
			l-1.565,1.56h-4.542l-1.55-1.574v-7.579H103.778z"/>
		<path fill="#255593" d="M116.487,79.343v-2.648h0.723v-6.487h-0.723v-2.665h4.655v2.665h-0.703v6.487h0.703v2.648H116.487z
			 M120.855,79.057v-2.055h-0.713V69.92h0.713v-2.086h-4.071v2.086h0.708v7.082h-0.708v2.055H120.855z M117.146,78.705v-1.366h0.699
			v-7.787h-0.699V68.2h3.358v1.352h-0.708v7.787h0.708v1.366H117.146z"/>
		<path fill="#255593" d="M123.896,70.9v-3.358h9.975V70.9h-2.675v-0.693h-0.693v6.487h0.693v2.648h-4.65v-2.648h0.708v-6.487
			h-0.708V70.9H123.896z M126.273,70.628V69.92h1.253v7.048h-0.698v2.089h4.096v-2.089h-0.708V69.92h1.278v0.708h2.08v-2.794h-9.386
			v2.794H126.273z M124.53,70.256V68.2h8.683v2.056h-1.367v-0.704h-1.981v7.787h0.688v1.366h-3.372v-1.366h0.718v-7.787h-2.016
			v0.704H124.53z"/>
		<path fill="#255593" d="M136.848,77.468v-2.264h3.229v1.104l0.415,0.387h1.689l0.391-0.366v-1.159l-0.37-0.352h-3.467
			l-1.888-1.896v-3.482l1.888-1.896h5.185l1.907,1.896v2.313h-3.255v-1.174l-0.37-0.371h-1.764l-0.361,0.371v1.188l0.387,0.371
			h3.456l1.907,1.893v3.438l-1.907,1.875h-5.185L136.848,77.468z M138.824,79.057h5.026l1.684-1.653v-3.309l-1.684-1.655h-3.462
			l-0.56-0.594v-1.332l0.56-0.594h1.878l0.589,0.594v0.966h2.679v-1.977l-1.684-1.669h-5.036l-1.685,1.669v3.354l1.685,1.674h3.452
			l0.589,0.56v1.283l-0.619,0.595h-1.833l-0.574-0.595V75.49h-2.699v1.913L138.824,79.057z M137.491,77.146v-1.303h1.941v0.772
			l0.738,0.724h2.328l0.718-0.739v-1.688l-0.737-0.753h-3.398l-1.59-1.575V69.76l1.556-1.56h4.571l1.57,1.575v1.347h-1.972v-0.816
			l-0.737-0.754h-2.309l-0.738,0.719v1.803l0.738,0.719h3.447l1.57,1.589v2.765l-1.541,1.56h-4.605L137.491,77.146z"/>
	</g>
	<g>
		<path fill="#255593" d="M75.261,100.478c0.326,0.05,0.584,0.029,0.763-0.095c0.198-0.112,0.322-0.258,0.4-0.45
			c0.064-0.193,0.07-0.387,0.04-0.609c-0.04-0.212-0.153-0.405-0.332-0.579c-0.545-0.516-1.178-0.932-1.876-1.238
			c-0.724-0.303-1.446-0.529-2.214-0.658c-0.764-0.13-1.526-0.193-2.309-0.208c-0.753-0.016-1.48-0.016-2.189-0.016
			c0.941-1.332,1.967-2.729,3.106-4.19c1.148-1.46,2.327-2.714,3.58-3.743c0.777-0.174,1.59-0.272,2.417-0.287
			c0.852-0.016,1.679,0.015,2.496,0.094c0.822,0.063,1.614,0.163,2.362,0.271c0.753,0.114,1.406,0.229,1.957,0.308
			c0.426,0.063,0.787,0.034,1.079-0.079c0.287-0.114,0.495-0.291,0.619-0.53c0.145-0.228,0.188-0.5,0.184-0.802
			c-0.025-0.308-0.104-0.609-0.248-0.932c-0.629-1.268-1.535-2.185-2.739-2.794c-1.203-0.579-2.506-0.949-3.902-1.109
			c-1.407-0.129-2.818-0.114-4.25,0.079c-1.426,0.179-2.718,0.418-3.837,0.708c-2.438,0.64-4.775,1.477-6.983,2.536
			c-2.209,1.062-4.265,2.442-6.151,4.142c-0.224,0.229-0.392,0.466-0.511,0.743c-0.104,0.252-0.153,0.48-0.114,0.688
			c0.016,0.193,0.129,0.337,0.297,0.451c0.199,0.094,0.48,0.094,0.857-0.015c1.382-0.407,2.778-0.788,4.15-1.109
			c1.382-0.337,2.798-0.675,4.21-1.03c-1.174,1.224-2.328,2.584-3.428,4.081c-1.095,1.511-2.134,3.001-3.149,4.497
			c-1.259,0.559-2.486,1.313-3.734,2.264c-1.233,0.944-2.254,2.214-3.031,3.773c-0.292,0.544-0.292,1.011,0,1.382
			c0.277,0.382,0.728,0.479,1.347,0.337c0.625-0.163,1.332-0.387,2.12-0.645c-0.347,1.367-0.436,2.729-0.272,4.111
			c0.064,0.416,0.179,0.866,0.313,1.367c0.144,0.51,0.352,0.995,0.608,1.461c0.268,0.466,0.57,0.847,0.957,1.169
			c0.386,0.307,0.821,0.466,1.352,0.466c0.44,0,0.827-0.095,1.05-0.322c0.243-0.223,0.44-0.466,0.54-0.769
			c0.124-0.306,0.183-0.644,0.188-0.995c0.009-0.372,0.044-0.723,0.044-1.074c0-1.352,0.213-2.699,0.679-4.002
			c0.476-1.318,1.03-2.6,1.704-3.884c1.005-0.337,2.045-0.693,3.13-1.06c1.085-0.356,2.145-0.679,3.18-0.966
			c1.035-0.286,2.03-0.529,2.986-0.673C73.66,100.383,74.522,100.363,75.261,100.478z"/>
		<path fill="#255593" d="M129.751,89.863c0.594,0.114,1.163,0.08,1.708-0.099c0.54-0.174,1.035-0.48,1.471-0.946
			c0.451-0.465,0.709-1.089,0.817-1.912c0.188-1.01,0-1.797-0.53-2.377c-0.505-0.574-1.139-0.931-1.867-1.055
			c-0.737-0.147-1.48-0.034-2.219,0.288c-0.763,0.337-1.292,0.916-1.569,1.718c-0.297,0.852-0.361,1.556-0.193,2.164
			c0.148,0.615,0.432,1.095,0.847,1.48C128.651,89.492,129.155,89.75,129.751,89.863z"/>
		<path fill="#255593" d="M146.362,91.454c-0.625-0.773-1.407-1.303-2.273-1.561c-0.872-0.253-1.788-0.337-2.734-0.208
			c-0.94,0.113-1.848,0.356-2.773,0.738c-0.896,0.371-1.708,0.787-2.397,1.237c-0.693,0.516-1.366,1.074-2.016,1.749
			c-0.644,0.658-1.213,1.396-1.674,2.204c-0.445,0.816-0.777,1.669-0.946,2.535c-0.173,0.881-0.129,1.764,0.124,2.68
			c0.03,0.085,0.104,0.129,0.124,0.229c-0.198,0.257-0.48,0.594-1.04,1.167c-0.619,0.679-1.357,1.433-2.179,2.284
			c-0.833,0.832-1.675,1.654-2.536,2.486c-0.856,0.822-1.654,1.461-2.327,1.926c-0.753,0.516-1.278,0.629-1.536,0.322
			c-0.262-0.302-0.213-0.866,0.099-1.699c0.466-1.223,1.061-2.377,1.848-3.471c0.753-1.104,1.556-2.265,2.353-3.467
			c0.649-0.932,1.323-1.877,2.006-2.893c0.673-0.996,1.149-2.035,1.471-3.131c0.213-0.931,0.119-1.669-0.332-2.263
			c-0.466-0.565-1.02-0.946-1.684-1.095c-0.684-0.173-1.377-0.079-2.09,0.229c-0.703,0.322-1.219,0.931-1.5,1.827
			c-0.104,0.341-0.283,0.708-0.516,1.109c-0.223,0.387-0.495,0.787-0.788,1.188c-0.277,0.4-0.56,0.803-0.866,1.189
			c-0.287,0.386-0.545,0.752-0.769,1.108c-0.683,1.011-1.366,2.021-2.029,3.037c-0.085,0.123-0.149,0.252-0.229,0.38
			c-0.763,0.823-1.53,1.689-2.343,2.621c-0.906,1.06-1.926,2.04-3.011,2.971c-0.58,0.496-1.05,0.753-1.396,0.804
			c-0.352,0.043-0.396-0.259-0.164-0.888c0.164-0.465,0.387-0.945,0.659-1.461c0.277-0.495,0.564-1.01,0.887-1.49
			c0.297-0.501,0.574-0.947,0.866-1.367c0.302-0.416,0.52-0.788,0.688-1.104c0.387-0.629,0.595-1.239,0.629-1.817
			c0.045-0.56-0.06-1.075-0.297-1.49c-0.232-0.422-0.604-0.739-1.08-0.981c-0.48-0.228-1.06-0.307-1.758-0.258
			c-0.574,0.064-1.114,0.208-1.604,0.451c-0.471,0.237-0.932,0.545-1.317,0.917c-0.401,0.365-0.753,0.751-1.08,1.188
			c-0.347,0.432-0.639,0.848-0.926,1.248c-1.194,1.738-2.382,3.229-3.58,4.468c-1.194,1.253-2.17,2.071-2.913,2.472
			c-0.758,0.4-1.164,0.307-1.208-0.272c-0.056-0.595,0.515-1.848,1.674-3.745c0.658-1.104,1.451-2.198,2.396-3.287
			c0.951-1.075,1.986-2.042,3.141-2.894c1.163-0.852,2.417-1.51,3.749-1.977c1.356-0.466,2.749-0.608,4.239-0.431
			c0.476,0.064,0.887-0.035,1.263-0.271c0.362-0.259,0.624-0.565,0.768-0.947c0.179-0.37,0.209-0.772,0.144-1.188
			c-0.079-0.421-0.292-0.786-0.673-1.108c-0.937-0.773-1.997-1.268-3.105-1.496c-1.14-0.208-2.278-0.238-3.428-0.064
			c-1.159,0.179-2.298,0.516-3.397,0.98c-1.124,0.48-2.11,1.011-3.012,1.624c-1.976,1.299-3.714,2.873-5.249,4.705
			c-1.011,1.204-1.685,2.586-2.432,3.934c-0.169,0.157-0.348,0.336-0.53,0.515c-1.055,1.139-2.12,2.293-3.194,3.452
			c-1.08,1.169-2.234,2.214-3.462,3.159c-0.748,0.594-1.303,0.916-1.604,1.016c-0.308,0.064-0.491,0-0.555-0.227
			c-0.035-0.225,0.039-0.561,0.218-1.026c0.198-0.436,0.431-0.901,0.713-1.396c0.426-0.709,0.832-1.333,1.233-1.911
			c0.445-0.58,0.822-1.16,1.148-1.749c0.357-0.595,0.659-1.224,0.892-1.867c0.258-0.658,0.401-1.377,0.461-2.184
			c0.064-0.868-0.06-1.62-0.337-2.244c-0.297-0.613-0.693-1.159-1.224-1.625c-0.529-0.45-1.109-0.831-1.772-1.138
			c-0.659-0.308-1.348-0.58-2.09-0.804c-0.055-0.609-0.272-1.159-0.674-1.653c-0.416-0.48-0.995-0.818-1.743-0.981
			c-0.614-0.128-1.204-0.078-1.803,0.114c-0.62,0.174-1.189,0.466-1.67,0.867c-0.524,0.416-0.94,0.896-1.272,1.475
			c-0.341,0.581-0.485,1.175-0.485,1.784c0,0.5,0.104,1.045,0.327,1.619c0.232,0.595,0.634,1,1.179,1.188
			c-0.455,1.188-1.065,2.348-1.828,3.487c-0.733,1.153-1.56,2.264-2.387,3.337c-0.866,1.096-1.698,2.121-2.546,3.15
			c-0.842,1.011-1.59,1.977-2.248,2.888c-0.609,0.852-0.857,1.575-0.719,2.204c0.145,0.608,0.466,1.04,1.025,1.269
			c0.54,0.236,1.214,0.236,1.98-0.021c0.783-0.237,1.536-0.816,2.205-1.699c0.52-0.644,1.129-1.539,1.852-2.714
			c0.698-1.174,1.437-2.407,2.185-3.71c0.752-1.282,1.477-2.57,2.174-3.804c0.674-1.252,1.253-2.282,1.674-3.135
			c0.125,0.035,0.313,0.064,0.531,0.1c0.237,0.029,0.465,0.063,0.663,0.078c0.223,0.051,0.416,0.079,0.564,0.16
			c0.158,0.063,0.253,0.162,0.253,0.276c0,0.432-0.233,0.995-0.635,1.649c-0.426,0.658-0.891,1.416-1.387,2.234
			c-0.515,0.816-0.98,1.718-1.396,2.684c-0.4,0.961-0.629,1.942-0.629,2.922c0,1.253,0.347,2.357,1.016,3.353
			c0.659,0.996,1.609,1.626,2.848,1.848c1.069,0.209,2.095,0.1,3.061-0.302c0.961-0.406,1.867-0.98,2.72-1.704
			c0.827-0.758,1.564-1.574,2.263-2.456c0.169-0.243,0.307-0.437,0.476-0.659c0.01,0.144-0.05,0.287-0.04,0.416
			c0.075,1.061,0.372,2.006,0.882,2.843c0.525,0.837,1.397,1.397,2.646,1.705c1.079,0.236,2.06,0.157,2.911-0.273
			c0.867-0.437,1.655-1.06,2.323-1.867c0.714-0.802,1.332-1.699,1.877-2.68s1.07-1.896,1.551-2.743
			c-0.164,0.56-0.297,1.104-0.4,1.654c-0.104,0.544-0.145,1.105-0.145,1.653c0,0.689,0.133,1.333,0.381,1.928
			c0.268,0.594,0.614,1.089,1.04,1.491c0.421,0.415,0.937,0.692,1.556,0.881c0.604,0.192,1.254,0.243,1.951,0.148
			c1.035-0.128,2.145-0.679,3.294-1.591c0.995-0.801,1.916-1.782,2.808-2.812c0.075,0.837,0.248,1.604,0.669,2.312
			c0.445,0.773,1.219,1.348,2.269,1.705c0.966,0.386,1.848,0.495,2.674,0.351c0.828-0.143,1.604-0.45,2.338-0.916
			c0.728-0.465,1.412-1.025,2.03-1.719c0.635-0.673,1.214-1.347,1.769-2.035c0.342-0.451,0.777-0.996,1.332-1.675
			c0.511-0.688,1.05-1.376,1.58-2.099c0.53-0.724,1.03-1.432,1.501-2.121c0.178-0.272,0.258-0.42,0.401-0.643
			c0.46,0.401,0.955,0.737,1.55,0.945c0.669,0.208,1.372,0.356,2.109,0.387c0.758,0.034,1.481-0.03,2.18-0.179
			c0.159-0.06,0.391-0.079,0.674-0.108c0.312,0,0.505,0.064,0.619,0.237c0.158,0.277,0.049,0.644-0.337,1.124
			c-0.387,0.5-0.838,0.996-1.367,1.525c-0.529,0.516-1.06,0.966-1.604,1.367c-0.529,0.386-0.876,0.594-1.05,0.625
			c-0.758-0.317-1.48-0.769-2.145-1.349c-0.44-0.366-0.966-0.578-1.525-0.608c-0.564-0.016-1.11,0.079-1.601,0.338
			c-0.495,0.24-0.931,0.608-1.293,1.088c-0.351,0.5-0.504,1.045-0.504,1.655c0,0.5,0.094,0.95,0.326,1.366
			c0.214,0.416,0.485,0.802,0.822,1.124c0.353,0.337,0.748,0.625,1.164,0.868c0.426,0.241,0.827,0.435,1.243,0.579
			c0.758,0.257,1.669,0.4,2.675,0.415c1.011,0.016,2.08,0.03,3.09-0.257c5.27-1.556,7.578-7.692,6.825-10.099
			c-0.258-0.773-0.476-1.477-0.946-2.056c-0.476-0.58-1.084-1.03-1.832-1.353c-0.763-0.303-1.64-0.432-2.64-0.337
			c-0.204,0-0.466,0.034-0.798,0.084c-0.337,0.064-0.648,0.096-1.011,0.109c-0.346,0.02-0.658,0.02-0.916,0
			c-0.258-0.014-0.415-0.093-0.52-0.238c-0.139-0.227-0.06-0.613,0.262-1.144c0.332-0.545,1.016-1.184,2.031-1.941
			c0.308-0.208,0.669-0.465,1.104-0.738c0.455-0.241,0.906-0.479,1.347-0.709c0.456-0.222,0.856-0.351,1.229-0.444
			c0.387-0.1,0.659-0.064,0.852,0.064c0.193,0.123,0.248,0.38,0.158,0.782c-0.093,0.387-0.36,0.967-0.826,1.754
			c-0.288,0.515-0.298,0.931-0.055,1.253c0.263,0.303,0.708,0.386,1.268,0.207c0.738-0.272,1.432-0.708,2.026-1.302
			c0.574-0.575,1.024-1.219,1.347-1.942c0.282-0.723,0.415-1.475,0.366-2.277C147.214,92.88,146.907,92.162,146.362,91.454z"/>
	</g>
</g>
</svg>
