<?xml version="1.0" encoding="utf-8"?>
<!-- Generator: Adobe Illustrator 16.0.0, SVG Export Plug-In . SVG Version: 6.00 Build 0)  -->
<!DOCTYPE svg PUBLIC "-//W3C//DTD SVG 1.1//EN" "http://www.w3.org/Graphics/SVG/1.1/DTD/svg11.dtd">
<svg version="1.1" id="Layer_1" xmlns="http://www.w3.org/2000/svg" xmlns:xlink="http://www.w3.org/1999/xlink" x="0px" y="0px"
	 width="1711.5px" height="1615.96px" viewBox="0 0 1711.5 1615.96" enable-background="new 0 0 1711.5 1615.96"
	 xml:space="preserve">
<path fill="#1865AA" d="M1196.926,5.907c0.015,0.02,0.026,0.04,0.04,0.06c0.008,0.002,0.016,0.004,0.022,0.005
	C1196.988,5.972,1196.925,5.909,1196.926,5.907"/>
<path fill="#1865AA" d="M891.399,173.411c1.49,3.107,1.899,7.39,1.162,10.774c-1.651,7.583-0.382,15.249-1.534,22.731
	c-0.685,4.451,1.262,8.677,0.389,12.872c-2.928,14.067-3.104,28.393-2.238,42.49c1.183,19.282,1.588,38.567,2.041,57.85
	c0.248,10.475,3.08,21.107-0.858,31.5c-0.904,2.386,0.16,4.67,0.893,6.8c1.988,5.786,2.212,11.731,2.189,17.728
	c-0.036,10.583-2.279,21.109-0.132,31.771c1.178,5.843,0.813,11.849,0.155,17.881c-0.654,5.993,0.804,12.036,4.979,16.661
	c4.668,5.173,9.851,9.886,14.872,14.733c5.595,5.398,11.815,7.127,18.869,2.826c4.605-2.806,8.975-2.121,12.829,1.208
	c2.36,2.038,4.942,3.386,7.839,4.18c4.126,1.132,6.877,3.848,9.072,7.312c5.711,1.273,9.71-1.558,13.235-5.527
	c0.017-0.711,0.3-1.291,0.849-1.741c-0.706-4.229,2.315-4.888,5.325-5.556l0.338-0.606c-0.196-1.571-0.063-3.021,1.457-3.961
	c3.347-24.758-3.088-49.207-2.45-73.965c0.231-8.987-0.757-18.389-1.333-27.592c-2.571,0.661-4.375,1.701-5.295,3.251
	c0.92-1.551,2.725-2.592,5.296-3.254c0.97-6.852-1.276-13.31-2.426-19.902c0.692-5.729,0.543-11.652,3.755-17.846
	c6.486,8.527,12.427,16.338,18.37,24.149c0.401,0.527,1.011,0.989,1.185,1.581c1.651,5.62,2.172,11.273,8.782,14.646
	c5.456,2.784,7.626,9.74,12.195,14.187c3.709,3.61,6.496,8.267,9.26,12.728c6.647,10.726,14.287,20.969,23.144,29.603
	c9.634,9.391,19.099,20.273,33.839,22.549c3.339,0.516,6.208,0.629,9.296-1.748c7.576-5.83,10.867-5.752,18.644-0.626
	c2.753,1.815,5.29,3.958,7.925,5.949c1.277-0.505,2.558-1.009,3.838-1.513c2.627,1.871,5.493,0.6,8.263,0.625
	c0.001-0.001-0.187-0.849-0.187-0.849c5.946,0.17,11.872,0.451,15.592-5.712c0.565-0.938,2.202-1.404,3.438-1.736
	c10.55-2.834,14.952-10.654,16.844-20.552c0.382-3.236,0.625-6.466-0.289-9.663c0.688-13.458,0.871-26.963,3.599-40.24
	c-1.028-6.394,3.265-11.772,3.43-17.938c-2.973-9.472-0.292-19.085-0.617-28.63c-0.561-16.553,7.634-32.226,5.438-49.05
	c-0.154-1.181,0.76-2.519,1.236-3.76c1.482-3.849,1.164-7.786,0.91-11.799c-0.839-13.257,0.392-26.283,2.87-39.41
	c1.36-7.197,3.417-15.131-1.451-22.685c-2.519-3.91-1.587-8.869-1.123-13.957c0.936-10.236,7.778-19.596,4.017-30.696
	c-1.16-3.42-0.432-8.668,1.63-12.628c4.972-9.555,4.902-20.483,8.568-30.418c3.752-10.174,6.826-20.598,10.198-30.912
	c-0.23-8.609-0.462-17.217-0.691-25.826c-2.211-1.661-1.388-4.051-1.496-6.218c-2.749-2.895-0.829-6.664-1.85-9.883
	c-3.058-6.449-4.37-13.655-8.518-19.629c-3.08-0.669-6.153-1.657-9.28-0.2c-4.184,4.633-4.354,4.633-10.434-0.011
	c-1.582-0.22-2.364-1.322-2.934-2.659l-0.121-0.041c-3.337-2.125-7.896-5.462-9.993-0.393c-2.757,6.658-6.05,12.283-11.979,16.303
	c-1.211,0.821-2.14,2.005-1.643,3.292c1.981,5.14-2.041,7.469-4.979,9.595c-2.524,1.827-3.776,3.89-5.378,6.424
	c-4.36,6.899-6.198,14.647-8.176,22.168c-3.829,14.554-13.324,27.32-13.34,43.059c-0.002,2.182-1.412,4.402-3.271,5.982
	c-0.29,2.007-0.58,4.013-0.869,6.019c-0.323,4.997,2.159,10.546-2.877,14.614c-0.203,1.857-0.406,3.714-0.609,5.571l0.25,0.838
	l-0.303,0.82c0.557,2.177,0.475,4.272-0.807,6.211c-0.379,13.079-1.094,26.378-4.63,38.766c-1.719,6.022,1.124,11.747-1.751,17.099
	c1.265,2.708,1.268,5.43,0.102,8.168c1.161,2.753,0.905,5.328-0.973,7.697c0.359,3.018,0.919,6.059-0.988,8.823
	c0.76,3.814,1.209,7.605-0.876,11.197c-0.177,3.459,0.46,7.031-1.433,10.25c0.898,2.038,0.816,3.978-0.579,5.787
	c-6.19,30.087-4.912,60.899-7.795,92.07c-10.022-5.331-13.021-14.732-18.141-22.211c-5.032-7.351-9.902-14.786-15.36-21.852
	c-4.025-5.21-6.783-11.286-10.225-16.905c-10-16.326-20.879-32.05-31.355-48.049c-6.518-9.952-11.723-20.767-19.17-30.159
	c-1.085-1.368-1.3-3.011-1.037-4.718c-0.903-1.927-1.806-3.853-2.71-5.779c-4.801-1.776-6.549-5.841-7.741-10.324
	c-0.917-1.15-2.023-2.199-2.038-3.83c-1.463-0.892-2.161-2.303-2.63-3.872c-0.595,0.093-1.091-0.088-1.486-0.542
	c-6.885-0.904-8.333-6.071-9.183-11.708c-0.281-0.724-0.562-1.448-0.842-2.172c-0.971-0.23-1.524-0.817-1.574-1.836l-0.382-0.411
	c-0.988-0.095-1.549-0.626-1.658-1.62l-0.321-0.295c-8.849-6.321-14.113-14.779-15.317-25.661c-1.563-2.78-3.123-5.56-4.684-8.34
	c-2.748-0.793-3.759-2.959-4.326-5.475c-1.043-0.172-1.739-0.717-1.933-1.802c-5.304-2.595-10.986-4.044-16.654-5.542
	c-1.931,7.152-4.015,8.117-9.304,3.912c-2.259-1.797-3.973-4.281-5.935-6.452c-2.667,0.625-5.299,0.192-7.931-0.264
	c-2.236,3.12-1.784,6.711-1.894,10.24c-0.128,4.14-2.729,4.571-6.035,3.675c-0.747,0.705-1.493,1.41-2.239,2.117
	c0.147,2.322,0.566,4.664,0.4,6.963C888.562,144.865,884.606,159.252,891.399,173.411 M1053.392,327.494L1053.392,327.494
	c-0.131-2.088-1.038-3.327-2.269-4.204C1052.354,324.167,1053.261,325.406,1053.392,327.494 M1050.581,332.071
	c0.19-0.305,0.357-0.628,0.515-0.959C1050.938,331.443,1050.771,331.766,1050.581,332.071 M1051.326,330.61
	c0.523-1.172,1.012-2.369,2.057-3.095C1052.338,328.241,1051.85,329.438,1051.326,330.61 M1054.334,385.606
	c0.089-0.342,0.404-0.772,0.563-1.141c0.001,0,0.001,0,0.002,0.001C1054.738,384.835,1054.423,385.265,1054.334,385.606
	 M1077.466,343.173c0.019,0.019,0.039,0.031,0.058,0.05C1077.505,343.204,1077.484,343.192,1077.466,343.173 M1076.604,341.879
	c0.118,0.223,0.236,0.426,0.353,0.609C1076.841,342.305,1076.723,342.102,1076.604,341.879 M1084.51,342.115l0.001,0.001
	c-3.719,1.539-5.397,2.209-6.597,1.427C1079.113,344.325,1080.792,343.654,1084.51,342.115 M973.354,359.756
	c0-0.016,0.003-0.03,0.003-0.045C973.356,359.726,973.354,359.74,973.354,359.756"/>
<path fill="#1865AA" d="M1410.772,1139.559c1.174-3.544,0.813-6.976-0.76-10.313c0.846-1.279,1.184-2.658,0.825-4.177
	c1.383-4.039-1.439-7.682-1.112-11.625c-2.451-1.229-4.437-2.802-4.348-5.901c-2.695-1.12-4.396-2.952-4.328-6.05
	c-0.002,0-0.452-0.722-0.45-0.725c-3.375-3.921-9.25-2.82-12.809-6.373c1.24-4.98-3.561-5.209-5.83-7.427
	c-0.404-0.838-0.954-1.354-1.958-0.883c-1.702-0.493-3.313-0.298-4.807,0.697c-2.972-1.08-5.22-1.086-5.374,3.042
	c-0.092,2.456,2.578,5.025-0.013,7.202c-3.271,1.375-7.229-2.999-8.604-0.52c-3.197,5.771-6.875,9.892-13.666,10.65
	c-0.42,0.047-0.954,1.005-1.06,1.605c-0.806,4.588-4.882,8.008-4.602,12.965c-1.308,0.393-1.967,1.299-2.087,2.633
	c3.182,6.006,8.039,11.242,8.479,18.432c-0.439-7.189-5.297-12.426-8.48-18.434c-2.511,0.892-1.906,3.112-2.133,4.983
	c-1.392,11.553-4.374,22.621-10.194,32.789c-1.788,3.126-5.234,5.819-4.926,9.508c0.71,8.479-3.717,14.303-8.861,19.98
	c0.521,0.636,1.046,1.271,1.569,1.906c-1.08,1.315-2.159,2.63-3.239,3.944c0.316,1.259,0.983,2.543,0.896,3.772
	c-0.708,9.915-1.63,19.82,0.003,29.731c0,0.001,0.001,0.002,0.001,0.003c-3.469,3.352-3.061,7.008-0.846,10.805
	c0.089,0.748,0.179,1.496,0.269,2.243c0.001,0.004,0.001,0.007,0.003,0.011c-2.136,0.716-3.868,1.074-4.371,4.286
	c-1.477,9.418-2.702,19.104-6.006,27.944c-3.566,9.551-4.139,19.181-5.213,29.013c-1.083,9.902-2.568,19.768-6.222,29.342
	c-2.606,6.832-4.083,13.616-11.949,16.313c-0.761,0.261-1.183,1.524-1.75,2.333c-5.996,8.553-5.989,8.548-13.052,0.293
	c-0.636-0.744-1.42-1.362-2.136-2.039c-1.794-4.275-3.588-8.551-5.384-12.826c0,0,0.002,0.003,0.004,0.003
	c0.004,0.01,0.18-0.462,0.18-0.462l-0.504-0.04c-0.057-0.606-0.377-0.995-0.963-1.163c-2.107-5.903-3.254-12.246-7.646-17.14
	c-0.03-5.043-3.099-8.448-6.28-11.843c-7.211-7.689-12.949-16.266-15.684-26.603c-5.006-10.999-13.292-20.687-13.4-33.649
	c-0.012-1.327-0.5-2.552-2.023-3.07c-13.696-4.661-16.037-17.077-18.93-28.714c-1.076-4.326-0.566-8.645-6.467-9.402
	c-2.179-0.28-2.815-2.598-3.896-4.241c-5.175-7.865-11.035-14.929-20.456-18.043c-1.118-0.37-1.902-1.75-2.841-2.662
	c-4.067-0.204-8.146,1.317-12.205-0.077c-1.771-2.985-4.834-2.386-6.891-1.408c-5.672,2.693-11.766,5.088-14.873,11.252
	c-1.114,0.262-1.767,0.974-2.017,2.075c-4.415,1.483-5.707,5.273-6.765,9.234l-0.003-0.001c-4.02,0.361-6.279,2.398-6.273,6.587
	c-0.004,0.002-0.617,0.086-0.617,0.086c-5.359,2.724-8.822,11.507-6.471,16.485c1.937,4.098,5.269,8.072,5.597,12.286
	c0.7,8.979,1.521,18.124-0.479,27.125c-1.007,2.61-3.156,4.958-1.866,8.1c-1.622,1.626-3.28,3.062-3.888,5.575
	c-3.327,13.771-6.879,27.487-10.285,41.239c-0.555,2.24-1.347,4.642-1.051,6.837c2.248,16.624-4.653,31.795-8.079,47.371
	c-1.835,8.341-3.563,16.593-4.72,25.065c-2.146,15.736,3.1,32.43-6.021,47.279c-0.248,0.403,0.034,1.381,0.383,1.864
	c6.354,8.788,3.109,18.866,2.539,28.009c-0.651,10.466,0.352,21.222-2.782,31.567c-0.833,2.75-0.233,5.941-0.244,8.932
	c-0.021,6.206,2.159,12.927,5.948,16.358c7.419,6.716,16.787,11.342,27.228,12.538c1.913,0.219,4.027,0.729,5.184-1.63
	c1.942,0.165,3.843,0.038,5.612-0.901l0.018,0.379c0,0,0.066-0.409,0.071-0.409c6.211-0.151,10.506-3.18,13.775-8.412
	c2.851-4.561,6.728-8.098,12.021-10.062c4.782-1.774,7.221,1.658,10.595,3.587c3.794,2.169,7.864-0.279,11.604-1.085
	c3.596-0.775,2.593-4.862,2.911-7.707c0.85-7.595,0.626-15.464,2.601-22.744c5.157-19.019,4.712-38.695,7.868-57.922
	c1.285-7.827,1.369-15.921,3.352-23.542c1.37-5.263,1.913-10.229,1.614-15.563c-0.462-8.229,3.795-24.953,7.383-30.242
	c1.756,2.092,3.654,3.973,5.115,6.147c13.789,20.527,27.594,41.044,41.161,61.717c2.602,3.966,5.166,7.674,9.466,9.876
	c1.702,5.952,4.526,11.678,10.746,13.141c4.265,1.002,7.087,3.155,10.1,5.71c3.861,3.272,8.389,6.492,13.368,5.519
	c12.052-2.359,24.499,2.167,36.35-2.528c1.4-0.555,3.277,0.171,4.934,0.161c6.648-0.041,13.295-0.179,19.942-0.198
	c4.543-0.013,8.063-2.238,9.303-6.25c2.51-8.121,6.605-16.003,5.24-24.973c0.381-0.529,1.027-1.026,1.117-1.611
	c3.123-20.24,7.01-40.412,8.929-60.77c0.976-10.362,3.465-20.262,5.587-30.246c2.045-9.634,0.08-20.551,7.873-28.664
	c0.295-0.306,0.062-1.278-0.133-1.872c-1.98-6.054,1.367-10.751,3.697-15.848c3.159-6.91,4.472-13.926-1.957-20.033
	c-0.689-8.638-0.237-17.103,2.859-25.362c1.483-3.954,4.411-8.568,2.042-12.297c-2.382-3.75-1.204-6.061,0.414-8.929
	c1.84-3.26,2.798-6.701,2.802-10.469c0.004-3.671,1.5-7.038,2.344-10.516c1.904-7.85,7.31-13.814,9.821-21.472
	c3.177-9.68,4.828-19.808,8.86-29.284c2.232-5.252,4.921-11.1,2.534-17.325C1411.271,1142.151,1411.367,1140.867,1410.772,1139.559
	 M1086.463,1455.402c0.432,0.354,0.845,0.726,1.224,1.13c0.379,0.405,0.725,0.842,1.024,1.325c-0.3-0.483-0.646-0.92-1.024-1.325
	C1087.308,1456.128,1086.895,1455.756,1086.463,1455.402c-0.434-0.354-0.887-0.688-1.346-1.016
	C1085.576,1454.715,1086.029,1455.049,1086.463,1455.402 M1089.455,1459.454c-0.097-0.293-0.207-0.571-0.332-0.838
	C1089.248,1458.883,1089.358,1459.161,1089.455,1459.454 M1087.63,1459.451c-0.498-0.051-1.002-0.104-1.492-0.129
	C1086.628,1459.347,1087.132,1459.4,1087.63,1459.451 M1088.543,1459.533c-0.064-0.004-0.129-0.009-0.193-0.014
	C1088.414,1459.524,1088.479,1459.529,1088.543,1459.533 M1322.582,1197.448c-0.102,0.389-0.461,0.879-0.645,1.3l-0.001-0.001
	C1322.121,1198.326,1322.48,1197.837,1322.582,1197.448 M1247.4,1333.241c-0.119-0.137-0.214-0.285-0.313-0.43
	C1247.187,1332.956,1247.281,1333.104,1247.4,1333.241 M1246.496,1326.812c-0.416,2.672-0.373,4.432,0.436,5.785
	C1246.123,1331.243,1246.08,1329.483,1246.496,1326.812"/>
<path fill="#1865AA" d="M1478.985,953.496c0.771-13.518,10.98-19.116,21.233-23.685c9.559-4.259,16.75-11.556,24.787-17.593
	c3.119-2.343,5.658-8.584,5.709-13.888c0.037-3.765,1.448-5.747,4.586-7.841c4.021-2.683,7.844-5.926,9.412-11.103
	c2.416-7.978,2.242-8.967-5.123-14.907c-1.32,0.857-2.755,1.16-4.307,0.874c-1.488,2.002-3.602,2.33-5.887,2.199
	c-7.545,7.026-17.498,9.041-26.685,12.509c-9.253,3.492-18.474,6.965-27.19,11.669c-7.025,3.356-13.31,8.688-21.783,8.198
	l0.007-0.113c-3.074,4.153-7.828,4.615-12.337,5.611c-1.137,0.434-2.272,0.865-3.407,1.298c-1.768,3.439-5.29,2.969-8.269,3.709
	c-15.176,7.145-30.011,15.16-46.577,18.823c-4.232,0.936-8.733,1.759-10.687-3.916c0.553-1.241,0.519-2.481-0.024-3.719
	c0.75-2.1,0.64-4.228,0.205-6.364c-2.121,0.994-3.308,2.019-3.396,3.077c0.089-1.059,1.275-2.083,3.396-3.077
	c0.184-1.19,0.368-2.38,0.553-3.568c-1.102-0.275-2.242-0.6-2.824-1.292c-0.13-0.154-0.231-0.327-0.298-0.521
	c0.066,0.194,0.168,0.367,0.298,0.521c0.582,0.692,1.723,1.017,2.824,1.292c1.078-3.965,2.037-7.943,1.656-12.106
	c0.192-1.231,0.386-2.464,0.577-3.696c1.27-1.257,1.974-2.698,1.479-4.529c0.507-0.501,0.717-1.104,0.631-1.808
	c2.456-3.299,3.363-7.364,3.579-11.124c0.638-11.1,5.877-21.48,4.137-33.039c-0.978-6.496,2.083-12.951,4.358-19.137
	c2.629-7.148,9.716-8.235,15.642-10.831c1.886-3.148,4.986-3.704,8.267-3.875c0.718-1.864,2.124-2.752,4.069-2.869
	c0,0.005,0.03-0.658,0.03-0.658l0.6-0.287c-0.711-3.263,0.535-5.8,2.974-7.859c10.253-8.66,21.397-16.042,33.009-22.716
	c1.612-0.926,3.799-0.852,5.721-1.24c0.409,0.393,0.903,0.614,1.477,0.659c1.066-1.314,2.076-2.653,2.042-4.476
	c1.392-0.858,2.782-1.727,4.182-2.585c12.386-7.59,26.749-12.192,36.325-24.043c0.378-0.467,1.102-0.777,1.719-0.909
	c7.982-1.713,15.217-6.374,23.721-6.017c1.33-0.385,2.66-0.77,3.991-1.155c0.81-1.919,2.191-3.337,4.08-4.115
	c3.989-1.641,7.309-3.583,5.157-8.787c5.512-5.215,0.648-12.143,2.943-17.992c1.003-2.559-0.145-5.435-3.032-6.554
	c-10.195-3.948-21.575-7.411-31.589-5.484c-10.521,2.025-21.354,3.629-31.873,6.32c-5.832,1.492-11.61,2.17-16.078,6.611
	c-2.652-0.553-4.423,0.722-5.805,2.793c-2.527,0.804-5.065,1.545-7.771,1.251c-0.319,0.476-0.741,0.597-1.264,0.362
	c-1.155,1.718-2.314,3.429-4.774,3.196c-8.986,3.999-17.945,8.061-26.978,11.955c-2.434,1.048-5.291,1.745-7.503-0.255
	c-2.342-2.116-1.34-4.962-0.313-7.35c1.815-4.225,3.729-8.352,4.922-12.858c0.954-3.61,3.886-5.922,7.396-7.519
	c3.572-1.627,6.957-3.671,10.424-5.532c1.28-2.535,3.636-3.117,6.161-3.392c1.253-3,3.618-4.637,6.668-5.432
	c0,0,0.001,0.001,0.001,0.002c1.916-0.366,3.833-0.731,5.749-1.096c0.034-0.331,0.069-0.662,0.102-0.994
	c0.572-5.808,8.508-1.752,9.456-7.062c0.821-4.595,4.297-7.376,7.249-10.493c1.23-1.299,2.972-1.342,4.646-1.392
	c0.678-0.714,1.355-1.429,2.034-2.143c5.764-8.083,10.269-17.319,19.948-21.825c0.001,0,0.279-0.08,0.279-0.08
	c0.615-0.394,1.229-0.789,1.842-1.18c-0.001,0.003,0.472-0.656,0.472-0.656c2.533-3.418,4.899-7.038,9.525-7.946l0.314-0.129
	l0.423-0.723c0,0,0.706,0.321,0.703,0.324c1.595-0.523,3.19-1.05,4.789-1.576c1.515-2.291,2.938-4.674,5.708-5.706
	c-0.002,0.003,0.362-0.526,0.361-0.524c4.779-13.257-5.394-22.018-9.941-32.426c-0.682-1.559-3.038-3.178-4.765-3.354
	c-9.295-0.949-18.157-4.983-28.075-1.846c-7.011,2.218-13.541,7.566-21.713,5.218c-2.162,2.025-4.101,4.404-7.377,4.67
	c-0.46,1.074-1.333,1.563-2.439,1.719c-0.808,1.587-2.21,2.25-3.879,2.501c-0.944,1.74-2.212,3.046-4.317,3.237
	c-7.961,5.431-15.886,10.915-23.928,16.223c-0.94,0.62-2.522,0.27-3.806,0.37l0.049-0.068c-2.126,2.724-4.97,4.353-8.209,5.375
	c-0.489,0.445-1.064,0.633-1.723,0.563c-7.576,5.325-15.461,9.962-25.091,10.086c-6.508,0.084-12.472,1.501-17.429,5.989
	c0.397,1.259,0.57,2.658,1.241,3.752c-0.671-1.094-0.844-2.493-1.245-3.752c-6.619,1.034-13.614,1.047-16.366,9.347
	c-0.872,2.628-3.61,4.638-5.498,6.923c0.651,2.369,1.306,4.746,1.959,7.124c5.864,2.045,8.97,5.724,8.889,10.209
	c0.081-4.484-3.024-8.163-8.891-10.205c-1.955,1.068-2.226,3.974-4.783,4.374c3.011,8.994,2.382,18.113,1.11,27.299
	c-1.038,7.493-1.497,14.993-3.412,22.445c-1.548,6.024-1.8,12.266-6.43,17.042c0.257,12.028-7.82,21.642-9.609,33.103
	c-0.452,2.893-1.37,5.826-3.47,8.132c1.241,4.916-5.057,5.477-5.509,9.81c-0.434,4.159-1.646,8.428-4.606,11.797
	c-0.156,0.773-0.307,1.552-0.458,2.33c-0.055,0.75-0.11,1.5-0.162,2.253c-0.189,1.279-0.381,2.557-0.572,3.835
	c-7.797,2.184-15.164,6.006-23.492,6.165c-4.978,5.435-11.398,8.182-18.386,9.873c-9.229,5.857-18.381,11.845-27.705,17.548
	c-17.053,10.431-34.204,20.698-51.319,31.024c-6.763,4.08-11.965,10.442-19.539,13.33c-3.783,3.422-8.191,5.578-13.195,6.529
	c0.102,0.525,0.141,1.055,0.121,1.588c5.708,2.356,7.323,2.988,7.121,6.036c0.202-3.048-1.413-3.68-7.122-6.035
	c-1.08,0.211-2.021,0.61-2.397,1.771c-3.109,1.01-5.961,2.369-7.478,5.532c-0.006-0.004-0.426-0.071-0.426-0.071
	c-7.032,2.15-13.314,5.896-19.277,9.982c-3.597,2.464-7.241,3.063-11.257,3.175c-3.046,0.085-3.804-2.143-4.5-4.437l0,0
	c0.875-2.04,0.751-4.134,0.335-6.243c0.002-0.003,0.311-0.692,0.311-0.692l-0.22-0.73c-0.837-16.272,1.803-32.368,2.611-48.558
	c0.283-5.676-0.26-12.378,6.404-15.767c-0.053-1.325-0.105-2.649-0.158-3.975l-0.182-0.691c-1.516-2.282-1.625-4.577-0.064-6.888
	l0.174-0.473c-0.158-1.37-0.316-2.738-0.474-4.106c0.426-0.715,0.852-1.428,1.277-2.142c0.753-22.109,2.235-44.169,4.786-66.145
	c0.456-3.928,1.274-7.872,2.444-11.647c3.823-12.345,3.383-25.496,7.634-37.809c2.951-8.547,2.814-17.638,1.365-26.569
	c-0.457-2.816-0.281-5.25,1.514-7.488c-3.814-9.78-5.966-19.701-2.537-30.092c-0.503-2.039-0.477-4.043,0.396-5.99
	c-0.328,0.07-0.659,0.108-0.993,0.118c0.479-2.015,0.961-4.03,1.44-6.044c0.254-6.54-3.941-11.895-4.822-18.132l-0.191-0.224
	c-1.759-0.658-2.059-2.067-1.906-3.708c-1.434-3.335-2.869-6.67-4.303-10.005c-3.359-2.73-5.131-6.576-7.187-10.223
	c-3.421-2.285-7.318-4.105-8.453-8.629c-2.361-1.088-2.72-3.582-3.783-5.54c-1.723-3.176-3.167-4.938-6.258-0.987
	c-2.03,2.595-5.153,3.092-7.62,0.256c-3.348-3.845-6.981-2.337-10.699-1.022l-0.07,0.052c-2.893,4.062-6.38,6.884-11.807,5.667
	c-2.641,0.151-5.283,0.302-7.924,0.453c-0.162,0.278-0.34,0.549-0.483,0.837c-3.002,6.023-7.539,10.438-13.739,13.11
	c0.639,2.056,1.275,4.111,1.914,6.168c5.83,9.921,5.467,20.972,5.729,31.888c0.03,1.231-0.596,2.521-1.085,3.714
	c-3.764,9.19-4.366,18.896-4.754,28.64c0.088,0.859,0.177,1.717,0.266,2.575c-1.322,0.764-2.1,1.859-2.086,3.429
	c-0.512,2.59-1.021,5.174-1.532,7.757c-0.345,0.646-0.688,1.291-1.033,1.935c2.6,6.311,0.526,12.552-1.564,18.188
	c-1.848,4.983-3.297,9.881-4.475,15.062c-4.01,17.634-8.632,35.129-13.021,52.678c1.002,1.599,0.175,2.699-1.012,3.699
	c0.444,5.541,1.449,11.13-1.382,16.395c0.739,4.281,2.422,8.688-1.65,12.325c-0.542,4.017,0.261,8.24-1.827,12.023
	c0.971,1.825,1.144,3.689,0.281,5.605c1.577,4.42,0.186,8.271-2.284,11.916c0.718,2.034,0.909,4.062-0.088,6.072
	c1.152,1.258,1.418,2.645,0.611,4.188l0.293,0.771l-0.492,0.664c0.95,2.377,0.973,4.707-0.353,6.969
	c0.74,0.917,0.746,1.823-0.041,2.717c0.902,1.556,1.164,3.211,0.776,4.968c0.767,1.129,0.169,1.792-0.797,2.329
	c0.308,21.76,2.714,43.382,4.199,65.064c0.319,4.679,0.423,9.266,3.556,13.145c0.609,0.754,1.24,1.729,1.31,2.645
	c1.085,14.314,10.097,25.554,14.817,38.449c1.692,0.877,2.024,2.297,1.604,4.017c1.187,1.707,1.772,3.576,1.546,5.666
	c1.149,1.368,2.295,2.739,3.439,4.109c9.68,3.985,18.465,9.753,28.051,14.012c4.164,1.851,7.444,6.146,11.558,8.949
	c4.604,3.141,9.543,5.747,14.069,9.09c7.001,5.171,15.899,3.646,23.996,3.633c7.907-0.011,15.742-1.835,22.355-6.887
	c1.391-1.064,3.115-0.953,4.782-0.758c2.114-5.761,8.923-4.3,12.354-8.035c0.612-3.06,2.617-4.383,5.598-4.489
	c-0.025-3.938-0.538-8.079,4.154-10.07c3.937-3.843,7.027-8.821,13.124-9.745c1.792-4.415,0.451-10.317,5.931-12.977
	c5.227-2.538,8.112-6.961,10.396-12.024c0.813-1.8,1.8-3.68,3.188-5.028c4.521-4.399,5.841-11.574,11.509-14.614
	c5.4-2.896,8.576-6.959,10.602-12.423c0.684-1.842,1.307-4.323,2.745-5.169c11.199-6.582,18.906-17.271,29.949-24.334
	c9.192-5.88,19.219-9.879,28.404-15.593c4.96-3.085,8.464-0.775,8.588,5.113c0.239,11.292,0.924,22.753-0.704,33.83
	c-0.773,5.261-0.88,10.021,0.969,14.348c3.237,7.571,3.555,15.437,4.312,23.331c1.554,1.005,1.733,2.466,1.361,4.108
	c5.102,9.515,11.216,18.464,16.156,28.031c3.058,5.921,7.622,9.774,12.714,13.49c4.19,3.059,9.238,5.16,11.8,10.126
	c1.095,0.317,2.188,0.636,3.28,0.954c1.19-0.577,2.529-1.076,3.653-0.231c6.101,4.586,12.133,9.264,18.189,13.91
	c1.492-0.35,2.9-0.221,4.164,0.73c11.073-2.772,22.439-3.884,33.646-5.893c-0.267-0.566-0.105-0.955,0.483-1.167
	c-0.193-2.725,1.189-4.071,3.799-4.345c0.971-2.21,2.225-4.206,4.237-5.63c0.375-3.697,0.84-7.323,5.808-7.434
	c1.639-1.958,2.806-4.527,5.919-4.583c0.227-2.992,0.547-6.176,3.256-7.89c6.802-4.306,13.257-9.241,20.872-12.161
	c0.222-0.51,0.583-0.64,1.076-0.39c4.223-6.04,10.317-9.078,17.342-10.159c7.253-1.116,9.554-10.414,17.466-10.187
	C1477.855,954.287,1478.42,953.891,1478.985,953.496 M1465.373,747.494L1465.373,747.494c-0.597,0.115-1.254,0.207-1.822,0.395
	C1464.119,747.701,1464.776,747.609,1465.373,747.494 M1456.494,718.58c-0.61,0.95-1.639,1.599-3.323,2.319
	C1454.855,720.179,1455.884,719.53,1456.494,718.58 M1206.439,870.866c0.189,0.234,0.328,0.506,0.411,0.803
	C1206.768,871.372,1206.629,871.101,1206.439,870.866 M1159.343,913.467c-2.275,0.009-4.552,0.011-6.828,0.024
	C1154.791,913.478,1157.067,913.476,1159.343,913.467z M1039.389,813.503c0.012-0.008,0.022-0.016,0.022-0.016L1039.389,813.503z
	 M1045.479,797.601l-0.012-0.012C1045.47,797.592,1045.479,797.601,1045.479,797.601 M1045.382,797.505l-0.106-0.108
	C1045.275,797.397,1045.33,797.452,1045.382,797.505 M1095.197,911.549c-0.003,0.318,0.02,0.642,0.063,0.963
	C1095.217,912.19,1095.194,911.867,1095.197,911.549 M1095.23,911.016c0.104-0.945,0.477-1.824,1.252-2.506
	C1095.707,909.191,1095.335,910.07,1095.23,911.016 M1098.264,900.503c0.012-0.178,0.128-0.349,0.354-0.512
	C1098.393,900.154,1098.275,900.325,1098.264,900.503 M1056.866,650.369c0.001,0,0.001,0,0.002,0
	c-0.235,0.536-0.467,1.071-0.7,1.606C1056.401,651.439,1056.634,650.904,1056.866,650.369 M1392.906,969.249
	c-0.096,0.095-0.18,0.198-0.26,0.304C1392.727,969.447,1392.811,969.344,1392.906,969.249 M1392.602,969.606
	c-0.182,0.252-0.321,0.534-0.412,0.848C1392.28,970.141,1392.42,969.858,1392.602,969.606 M1338.833,902.243
	c-0.184,0.425-0.543,0.917-0.644,1.309c0.101-0.393,0.46-0.885,0.642-1.309C1338.832,902.243,1338.833,902.243,1338.833,902.243
	 M1396.598,733.261c-0.003,0.405-0.455,0.987-0.667,1.474l-0.001-0.001C1396.145,734.246,1396.595,733.665,1396.598,733.261
	 M1411.429,752.021c-0.736-0.429-1.618-0.484-2.575-0.333C1409.811,751.537,1410.692,751.592,1411.429,752.021 M1436.666,679.24
	c0.476,0.389,0.909,0.835,1.332,1.286C1437.575,680.075,1437.142,679.629,1436.666,679.24 M1439.989,682.454
	c0.876,0.661,1.885,1.08,3.245,0.917c-1.992-5.558-0.385-10.833,0.882-16.122c-1.267,5.29-2.874,10.564-0.88,16.124
	C1441.875,683.535,1440.865,683.115,1439.989,682.454 M1349.416,707.532L1349.416,707.532l-0.064-0.065L1349.416,707.532
	 M1317.19,859.019c0.776-0.121,1.338-0.724,1.233-1.742v0.001C1318.531,858.294,1317.969,858.897,1317.19,859.019 M1331.357,927.548
	L1331.357,927.548c0.041,0.827,0.156,1.632,0.414,2.38C1331.514,929.18,1331.398,928.375,1331.357,927.548 M1331.997,930.493
	c0.17,0.369,0.382,0.72,0.643,1.05C1332.379,931.213,1332.167,930.862,1331.997,930.493"/>
<path fill="#1865AA" d="M409.516,957.437c-0.004-0.021-0.012-0.039-0.017-0.06c-0.004,0-0.008-0.001-0.012-0.001L409.516,957.437z"
	/>
<path fill="#1865AA" d="M657.235,721.544c0.005,0.034,0.019,0.063,0.025,0.095c0.006,0.001,0.01,0.003,0.016,0.004L657.235,721.544"
	/>
<path fill="#1865AA" d="M518.749,921.889c0.012,0.031,0.021,0.063,0.033,0.094c0.036,0.014,0.065,0.031,0.103,0.044L518.749,921.889
	z"/>
<path fill="#1865AA" d="M375.373,961.371l-0.623-0.554c-0.004,0.001-0.008,0.004-0.012,0.006c-0.007,0.011-0.013,0.021-0.02,0.033
	L375.373,961.371z"/>
<path fill="#1865AA" d="M347,1127.644c-0.002,0.043,0,0.084-0.002,0.127c0.053,0.022,0.1,0.049,0.158,0.068L347,1127.644z"/>
<path fill="#1865AA" d="M355.207,1171.614c-1.173-3.487,0.186-5.51,3.653-6.312c1.202-1.913,2.238-3.564,1.455-6.267
	c-0.956-3.299-1.751-6.998,0.623-10.28c-0.127-0.594,0.083-1.021,0.631-1.284c-0.007-1.316-0.013-2.632-0.02-3.948
	c-0.766-0.826-1.532-1.651-2.298-2.476c-1.275,0.247-2.353-0.027-3.099-1.175l-0.727,0.246c-1.632-0.104-2.303-1.06-2.312-2.604
	c-1.339-1.802-2.679-3.605-4.018-5.407c-1.726-0.965-2.179-2.525-2.097-4.337c-0.989-0.411-1.336-1.215-1.277-2.27
	c-0.536-0.327-0.74-0.799-0.614-1.412c-4.479-3.944-4.79-10.274-8.416-14.706l0,0c1.943-4.387-1.974-6.693-3.99-8.961
	c-4.259-4.791-9.451-8.754-14.26-13.055c1.561-3.394-0.71-5.416-2.488-7.865c-3.378-4.654-7.625-8.938-4.219-15.876
	c1.627-3.313-1.108-6.947-2.943-10.104c-1.331-4.154-2.573-8.409-8.055-8.136c5.482-0.273,6.724,3.98,8.056,8.134
	c-0.14-6.636,4.166-14.35-4.663-18.913c-0.613-0.317-0.529-1.595,0.128-2.593c4.191-6.368,4.292-14.668,9.635-20.513
	c2.572-0.139,4.286-1.506,5.378-3.759c3.82,0.173,5.374-2.58,5.994-5.486c0.902-4.234,3.524-7.004,6.592-9.561
	c1.247-1.04,2.927-1.644,3.131-3.561c0.695-6.53,5.594-10.085,9.848-14.159c1.889-1.81,3.38-4.029,5.091-6.028
	c1.225-1.432,2.465-3.761,4.617-1.709c1.445,1.377,1.819,3.789,0.303,5.434c-4.274,4.637-2.43,13.112-10.123,15.715
	c-1.427,0.482-1.203,3.173,0.255,4.276c2.037,1.541,2.95,4.578,6.076,4.675c-0.625-3.002-0.12-5.679,2.251-7.816
	c-0.314-2.826,1.209-4.246,3.744-4.893c2.605-4.372,5.995-8.07,9.81-11.403c0.753-5.326,2.439-10.059,7.879-12.404
	c2.641-4.596,5.655-8.809,10.962-10.671c2.392-0.84,3.295-3.034,4.71-4.868c4.8-6.224,11.453-5.438,14.454,1.685
	c1.143,2.715,1.66,5.693,2.462,8.553l0.049,0.047c1.074,0.185,1.871,0.685,2.124,1.809c2.555,0.078,4.689,1.547,5.641,3.491
	c4.6,9.402,14.153,13.395,21.415,19.818c4.02,3.556,9.604,5.461,14.549,7.518c4.727,1.966,9.362,4.524,14.435,5.75
	c-0.082,0.505,0.099,0.884,0.544,1.137c2.501,0.673,3.135,2.233,3.225,4.053c-0.09-1.819-0.724-3.378-3.225-4.049
	c-0.67,3.016-0.191,5.481,3.135,6.593v-0.001c0.923,1.877,2.821,3.296,2.67,5.679c3.12,3.993,7.978,6.564,9.632,11.759
	c2.287,1.408,3.319,3.691,4.228,6.062c0.002-0.002-0.037-0.096-0.037-0.096c2.509,0.248,4.044,1.602,4.607,4.059
	c3.692,0.212,4.199,4.553,7.255,5.588c0.015,0.764,0.03,1.528,0.044,2.292c3.451,0.231,3.846,5.447,7.833,4.803
	c0.63,1.228,1.262,2.456,1.895,3.685l0.034,0.031c1.18,0.089,1.771,0.711,1.725,1.906c4.597,2.352,7.022,7.031,10.852,10.17
	c8.16,6.688,16.32,14.34,27.363,14.623c7.54,0.195,12.684,2.157,16.484,8.521c0.953,1.597,1.541,3.755,3.644,4.534
	c0-0.001,0.174,0.149,0.174,0.149c0.627,0.438,1.254,0.874,1.881,1.312l0.471,0.511c5.059,1.292,10.133,2.464,15.368,2.421
	c-5.235,0.043-10.309-1.129-15.369-2.421c5.627,7.637,9.551,8.155,17.622,2.324l1.92-1.007v0.001
	c2.143-0.422,4.078-1.244,5.564-2.925c18.195-3.963,32.623-13.254,43.033-29.021c5.802-8.787,12.729-16.831,19.149-25.21
	c2.027-5.883,4.078-11.757,6.065-17.653c0.642-1.903,2.16-2.263,3.825-2.486c1.629-11.345-1.192-22.595-0.732-33.941
	c0.223-5.509,1.948-11.02,4.799-14.665c5.526-7.067,5.422-13.687,2.603-21.198c-0.888-0.109-1.947-0.062-2.911-0.154
	c0.963,0.093,2.022,0.045,2.909,0.153c0.146-1.895,0.295-3.791,0.443-5.686c0.594-0.402,0.845-0.959,0.751-1.67
	c0-0.001-0.001-0.001-0.002-0.003c1.453-0.972,2.678-2.118,3.002-3.951l0.077-0.188c0-0.002-0.001-0.004-0.002-0.006
	c4.757-5.073,6.661-11.84,6.127-17.989c-0.935-10.774,2.719-20.806,3.027-31.36c0.421-14.412,5.73-28.582,2.477-43.27
	c0.95-2.53,0.31-5.022-0.173-7.515c1.215-8.93,0.248-17.805-1.215-26.571c-0.879-5.267-1.393-10.445-0.912-15.738
	c-0.488-0.311-0.617-0.731-0.388-1.262c-4.987-2.066-3.547-6.535-3.76-10.307c-0.343-6.056-0.501-12.095-7.356-14.952
	c-1.247-0.52-2.542-1.843-2.154-3.036c1.832-5.642-2.268-9.131-4.099-13.589c-1.767-4.304-2.622-8.46-7.145-11.183
	c-1.584-0.955-1.449-4.764-2.099-7.27c-0.837-0.23-1.279-0.761-1.259-1.646c-1.092-0.565-1.68-1.482-1.898-2.657
	c-3.932-0.789-3.668-6.704-8.22-6.735c-4.727,0.498-8.898-0.472-11.905-4.511c-1.392-0.339-2.645-0.859-3.121-2.393
	c-13.194-8.74-29.86-10.914-41.771-22.081c-2.186-0.716-4.44-2.192-6.544-2.004c-6.092,0.545-11-1.558-15.52-5.291
	c-4.251-3.511-8.056-4.713-10.836,1.814c-1.018,2.391-3.58,2.551-6.05,2.404c-7.004-0.419-13.752,0.396-20.219,3.54
	c-1.915,0.93-4.545,0.527-6.844,0.496c-4.902-0.067-9.078-0.125-13.625,3.731c-3.567,3.023-9.053,4.044-12.745,8.049
	c-1.632,1.771-5.169,1.875-6.137-1.929c-0.526-2.069-1.184-4.132-3.651-3.595c-2.824,0.614-3.329,3.362-2.831,5.613
	c0.896,4.048-0.07,6.991-3.655,9.06c-4.37,5.554-10.305,9.436-15.644,13.859c-3.211,2.66-6.448,5.322-9.552,8.131
	c0.48,0.925,0.184,1.349-0.841,1.301l-8.108,8.486c-3.496,11.97-10.59,22.407-14.43,34.284c-2.468,7.634-9.299,12.748-13.359,19.633
	c-3.146,5.335-7.908,9.719-11.951,14.525c0.086,0.65-0.137,1.166-0.67,1.549c0.223,1.604,0.023,3.03-1.625,3.842
	c0.191,1.78-0.439,3.155-2.009,4.065c0.226,3.026-1.172,5.672-1.969,8.46c-0.884,3.091-2.726,4.962-6.058,5.461
	c-3.593,0.538-5.417-1.364-6.749-4.237c-0.542-1.172-1.1-2.336-1.651-3.503c-8.522-5.192-15.996-11.63-22.937-18.787
	c-4.373-4.509-8.733-9.116-15.051-11.2c-2.521-0.832-4.215-3.136-5.77-5.318c-1.693-0.374-3.177-1.021-3.759-2.856
	c-1.065-0.008-1.944-0.345-2.441-1.367c-4.285-0.097-5.801-4.046-8.613-6.191c-0.526,0.12-0.846-0.083-0.962-0.609
	c-3.288-3.714-8.811-3.504-12.239-6.971c-5.411,0.147-10.366-2.019-15.391-3.433c-14.973-4.215-30.2-7.184-45.616-8.571
	c-27.403-2.465-54.349,1-80.862,8.128c-1.919,0.516-3.89,0.836-5.837,1.248c-0.19,0.271-0.336,0.729-0.577,0.786
	c-11.102,2.608-20.874,8.618-31.552,12.304c-1.324,0.297-2.647,0.594-3.971,0.89c-3.496,3.648-7.231,6.401-12.816,6.123
	c-2.444-0.121-5.63,0.817-7.352,2.457c-7.054,6.718-17.054,8.322-24.302,14.766c-4.785,4.254-10.868,6.113-17.497,4.299
	c-8.034,5.166-16.121,10.25-24.086,15.521c-9.927,6.568-18.884,14.254-24.804,24.754c-2.286,4.055-7.428,2.835-9.661,6.395
	c2.015,6.992,0.956,13.947-4.419,18.413C3.77,878.337,2.272,883.293,0,888.187c6.4,4.678,6.457,4.979,2.522,13.381
	c0.223,1.004,0.438,2.007,0.653,3.01c1.432-0.17,2.949,0.268,3.554,1.371c6.085,11.1,16.664,12.778,27.752,13.495
	c1.66,0.107,3.435-0.008,4.95,0.546c6.592,2.412,11.302-0.927,17.177-3.573c16.182-7.291,30.23-18.905,47.702-23.408
	c1.999-0.516,3.708-1.319,5.363-2.471c7.366-5.128,7.388-5.129,14.668-0.134c3.01,2.066,5.329,1.408,7.853-1.137
	c4.119-4.154,7.568-9.088,12.977-11.839c0.114-0.596,0.225-1.192,0.329-1.789c2.617,1.003,5.174-2.167,7.807-0.114l6.068-0.158
	c0.975-1.556,2.384-2.346,4.215-2.392c0.412-0.543,0.824-1.086,1.235-1.628l-0.183,0.016c2.376-1.484,4.766-2.203,7.203-0.125
	c3.504-0.24,4.777,1.919,5.937,4.323c-1.16-2.404-2.433-4.563-5.936-4.321c-0.44,2.995,0.303,5.887,0.58,8.836
	c1.768,18.836,7.955,36.721,11.806,55.101c2.389,11.404,5.35,22.94,12.217,32.84c1.264,6.833,2.444,13.691,6.101,19.787
	c0.241-0.031,0.501-0.124,0.735-0.132c-0.234,0.008-0.493,0.101-0.732,0.132c0.388,0.611,0.773,1.225,1.159,1.838
	c-0.201,2.037-0.084,4.005,1.242,5.711c3.335,1.857,2.675,4.848,2.609,7.67c0.066-2.821,0.726-5.813-2.611-7.669
	c-1.92,2.304-2.477,5.117-2.972,7.952c1.896,0.543,3.793,1.085,5.689,1.628c-0.684,5.416-0.831,10.966-3.923,15.784
	c-2.857,0.482-5.828-0.88-9.386,0.778c0.551,4.506,3.325,8.248,4.996,12.358c-1.232,1.504-1.466,3.309-1.56,5.156
	c-0.137,1.338,0.035,2.541,0.402,3.658c-0.368-1.118-0.54-2.322-0.403-3.663c-0.47-0.439-0.991-0.798-1.567-1.08
	c-1.002,3.838-2.002,7.677-3.002,11.516c-0.355,4.659,2.103,8.376,4.105,12.245c0.714-0.093,1.428-0.188,2.141-0.282l0.011,0.029
	c2.132,0.775,3.443,2.298,4.057,4.455c2.687,2.742,5.374,5.483,8.06,8.227c1.068-0.281,1.829-0.018,2.069,1.168
	c1.21,0.048,1.85,0.682,1.936,1.884c1.266,0.171,2.112,0.866,2.571,2.049c4.048-1.258,7.847-0.785,11.361,1.646
	c6.463,1.126,10.516,4.989,12.739,11.045c4.564,12.436,11.158,24.174,12.845,37.591c0.095,0.649,0.189,1.298,0.284,1.946
	c2.083,3.212,6.384,5.203,5.519,10.036c0.34,1.018,0.681,2.036,1.023,3.052c3.633,1.094,4.343,4.614,6.147,7.273
	c5.599,8.254,8.99,18.15,17.757,24.066c0.598,1.181,1.201,2.364,1.803,3.548c0.607,0.271,1.215,0.541,1.822,0.813
	c1.068-0.235,1.741,0.173,2.012,1.235c7.242,4.964,15.495,7.151,23.971,8.724c0.626-0.475,1.234-0.453,1.822,0.069
	c1.949-0.891,4.005-0.958,6.092-0.778c1.415-2.407,3.887-1.53,5.952-1.916c0.015,0.68,0.029,1.361,0.044,2.042
	c1.332,0.148,2.664,0.296,3.996,0.444c0.077-0.767,0.153-1.532,0.228-2.301c2.111-0.099,4.398,0.252,5.587-2.216
	c3.137,0.229,3.635-3.43,6.123-4.158c2.143-3.561,6.543-3.727,9.384-6.237C354.86,1173.965,355.033,1172.789,355.207,1171.614
	 M489.341,905.535L489.341,905.535c-0.215,1.07-0.274,2.396-1.175,2.843C489.067,907.932,489.125,906.605,489.341,905.535
	 M497.363,893.537c0.458,3.368-0.92,6.453-1.135,9.902C496.443,899.99,497.821,896.905,497.363,893.537L497.363,893.537
	 M488.547,898.063c0.67-0.79,1.434-1.487,2.298-2.084C489.98,896.575,489.217,897.272,488.547,898.063 M487.209,899.987
	c0.321-0.568,0.681-1.095,1.072-1.591C487.891,898.893,487.531,899.419,487.209,899.987 M485.367,905.472
	c-3.269,0.038-3.693-1.945-3.874-4.103c-0.045-0.542-0.075-1.095-0.131-1.629c0.056,0.534,0.086,1.087,0.131,1.629
	C481.674,903.526,482.099,905.51,485.367,905.472C485.367,905.471,485.367,905.471,485.367,905.472 M551.331,978.193
	c-0.684,0.491-1.588,0.76-2.792,0.731C549.743,978.953,550.646,978.685,551.331,978.193c0.661-0.474,1.112-1.159,1.43-1.977
	C552.443,977.034,551.992,977.72,551.331,978.193 M532.081,992.585c0.64,0.067,1.261,0.112,1.861,0.134
	C533.342,992.697,532.721,992.652,532.081,992.585 M672.374,924.125c0.261-0.028,0.51-0.04,0.748-0.033
	C672.884,924.085,672.635,924.097,672.374,924.125 M673.196,924.099c0.681,0.027,1.272,0.19,1.785,0.477
	C674.468,924.289,673.875,924.126,673.196,924.099 M670.272,880.245c0.182,0.239,0.402,0.401,0.675,0.447
	C670.675,880.646,670.455,880.484,670.272,880.245c-0.121-0.159-0.225-0.351-0.317-0.565
	C670.048,879.895,670.152,880.086,670.272,880.245 M669.366,877.534c0.134,0.584,0.268,1.242,0.462,1.81
	C669.633,878.776,669.5,878.118,669.366,877.534z M598.425,887.38c0.184-0.491,0.353-0.993,0.512-1.502
	C598.778,886.387,598.609,886.889,598.425,887.38 M599.066,885.457c0.138-0.455,0.272-0.911,0.406-1.367
	C599.339,884.546,599.205,885.002,599.066,885.457 M578.645,932.479c0.518,1.239,1.137,1.991,2.039,2.441
	c0.361,0.181,0.768,0.312,1.231,0.407c-0.463-0.096-0.87-0.227-1.231-0.407C579.782,934.471,579.163,933.719,578.645,932.479
	 M590.465,1084.481c0.722-0.596,1.834-0.449,3.286,0.346C592.299,1084.033,591.187,1083.887,590.465,1084.481 M670.437,941.275
	c0.153,0.025,0.309,0.044,0.468,0.059C670.746,941.319,670.59,941.301,670.437,941.275 M669.988,941.186
	c0.069,0.017,0.143,0.028,0.214,0.043C670.131,941.214,670.057,941.202,669.988,941.186 M445.01,876.473
	c0.592-1.545,2.219-3.106,2.028-4.473c-1.869-13.39,6.989-20.928,15.244-28.898c0.866-0.836,1.028-2.401,1.517-3.627
	c2.918-8.468,3.539-18.104,12.98-23.109c2.071-1.099,3.333-4.054,4.54-6.376c1.776-3.416,3.997-6.053,7.997-6.699
	c1.324-1.335,2.649-2.669,3.974-4.004c0.268-1.298,0.537-2.594,0.805-3.891c-0.23-1.023,0.03-1.618,1.221-1.403
	c7.078-10.035,14.682-20.544,24.509-26.998c12.312-8.086,23.729-19.158,40.095-20.197c7.524-0.478,14.866-3.349,22.387-4.516
	c5.243-0.813,10.709-0.766,13.96,4.885c0.318,0.553,0.863,1.106,1.435,1.361c12.015,5.34,14.694,16.558,16.124,27.655
	c2.515,19.512,1.553,38.924-5.913,57.534c-0.815,2.622-1.629,5.242-2.443,7.863c0.738,2.057,0.26,4.022-0.441,5.973
	c0.217,1.32,0.06,2.498-1.248,3.229c1.048,2.426-0.036,4.604-0.791,6.82c0.58,2.219,0.393,4.2-1.728,5.582
	c0.255,2.281,0.281,4.525-1.021,6.564c0.463,0.951-0.017,1.478-0.835,1.851c-1.24,7.426-6.1,13.87-5.887,21.687
	c-2.83,6.885-5.169,14.032-8.661,20.563c-2.388,4.467-7.168,7.608-7.645,13.262c0,0,0,0,0,0.001
	c-2.701,4.624-5.744,9.077-7.142,14.348c-0.829,1.559-1.657,3.115-2.486,4.674c0.001,0,0.302,0.398,0.302,0.398l-0.584,0.085
	l-0.043,0.573l-0.522,0.241c0.135,1.062-0.382,1.755-1.267,2.239c0.061,1.703-0.406,3.128-2.074,3.914
	c-0.112,1.084-0.651,1.817-1.7,2.133c0.117,2.179-0.572,3.959-2.536,5.109l-0.252,0.63c0.147,2.738-0.283,5.111-3.581,5.678
	c-0.044,0.591-0.1,1.181-0.167,1.77l-0.001,0.001c-0.724,0.161-1.449,0.321-2.174,0.48c0.114,0.646,0.179,1.298,0.194,1.954
	c0,0,0.039,0.028,0.086,0.063l-0.086-0.063c-1.227,0.755-2.455,1.51-3.681,2.265c-0.11,1.26-0.843,1.876-2.075,1.975
	c-0.308,1.018-0.615,2.035-0.922,3.053c-1.079,0.271-2.164,0.537-3.249,0.804c-0.985,2.507-2.181,4.822-5.592,5.782
	c-2.819-3.002-3.377-8.836-9.12-8.979c-0.327,0.357-0.656,0.716-0.986,1.076c0.33-0.36,0.659-0.72,0.989-1.08
	c-0.578-1.507-1.156-3.015-1.735-4.522c-2.467-2.975-3.689-6.354-3.332-10.245c-2.958-1.896-0.785-5.569-2.708-7.821
	c0.281-0.701,0.562-1.402,0.842-2.103c-0.301-2.054-0.603-4.108-0.905-6.166c-3.976-0.598-5.322-3.148-5.278-6.092
	c-0.044,2.943,1.302,5.493,5.278,6.09c0.376-1.997,0.751-3.993,1.127-5.99c-2.647-5.514-0.841-11.812-3.05-17.402
	c-1.134-0.439-1.408-1.286-1.071-2.424c-0.147-1.324-0.294-2.647-0.441-3.97c-3.587-2.358-3.42-6.178-3.838-9.785
	c-0.455-3.931-1.104-7.97-1.258-11.776c-0.287-7.125-2.626-11.372-9.79-12.566c-0.622-0.104-1.269-0.444-1.767-0.847
	c-3.212-2.59-4.611-9.498-9.298-7.693c-8.594,3.31-18.715,2.716-25.927,8.711c-3.84,3.191-4.631,9.279-5.805,14.426
	c-1.539,6.744-3.01,13.504-4.44,20.271c-0.438,2.074-1.105,4.005-3.495,4.157c-2.434,0.156-3.189-2.046-4.129-3.738
	C440.287,903.73,439.723,890.271,445.01,876.473 M578.591,932.335c-0.121-0.302-0.237-0.639-0.35-0.998
	C578.354,931.696,578.47,932.033,578.591,932.335 M198.439,1043.328c-0.004-0.01-0.007-0.021-0.011-0.03
	C198.433,1043.308,198.436,1043.318,198.439,1043.328 M326.161,1105.073c-0.755-0.638-1.453-1.351-2.101-2.13
	C324.708,1103.723,325.406,1104.436,326.161,1105.073 M330.642,1107.806c-0.43-0.183-0.852-0.376-1.261-0.587
	C329.79,1107.43,330.212,1107.623,330.642,1107.806 M329.29,1107.176c-0.086-0.045-0.167-0.098-0.252-0.144
	C329.123,1107.078,329.204,1107.131,329.29,1107.176 M327.888,1106.347c-0.489-0.316-0.961-0.655-1.414-1.02
	C326.927,1105.691,327.398,1106.03,327.888,1106.347 M358.021,856.822c-0.635,1.906-0.831,4.121-0.61,6.651
	C357.19,860.943,357.387,858.729,358.021,856.822c0.512-1.536,1.308-2.873,2.398-4.014
	C359.33,853.949,358.534,855.286,358.021,856.822 M362.277,851.243c0.693-0.474,1.461-0.898,2.304-1.275
	C363.738,850.345,362.97,850.77,362.277,851.243 M339.415,922.935c-0.568,0.199-1.406,0.381-1.987,0.58c0,0,0,0,0-0.001
	C338.009,923.315,338.847,923.134,339.415,922.935c0.237-0.083,0.425-0.169,0.528-0.26
	C339.84,922.766,339.652,922.852,339.415,922.935 M241.917,870.012c0.432,1.942,2.429,2.351,7.54,3.397l0.198-0.143
	c-0.095,0.068-0.198,0.143-0.198,0.144C244.346,872.362,242.349,871.954,241.917,870.012 M243.994,823.218
	c0.349-0.382,0.778-0.789,1.292-1.246C244.771,822.429,244.343,822.836,243.994,823.218 M242.964,824.847
	c0.04-0.139,0.104-0.275,0.169-0.412C243.068,824.571,243.004,824.708,242.964,824.847 M243.18,824.319
	c0.04-0.075,0.098-0.152,0.145-0.228C243.278,824.167,243.22,824.244,243.18,824.319 M277.376,805.513L277.376,805.513l0.021-0.024
	L277.376,805.513z M127.098,879.626c-0.112-0.465-0.256-0.914-0.439-1.321C126.842,878.712,126.986,879.161,127.098,879.626
	c0.148,0.613,0.241,1.254,0.295,1.864C127.339,880.88,127.246,880.239,127.098,879.626 M250.781,899.457
	c0.171,0.218,0.359,0.414,0.564,0.592C251.14,899.871,250.952,899.675,250.781,899.457 M261.704,923.45
	C261.703,923.45,261.703,923.45,261.704,923.45c0.384-1.367,0.293-2.685-0.401-3.942c0.139-6.766-3.228-12.393-5.925-18.236h0.001
	c-1.112-3.868-2.501-7.699-1.672-11.844c-0.167-1.197-0.334-2.395-0.501-3.592c-3.432-3.132-1.748-6.858-1.217-10.451
	c-0.729-0.742-1.457-1.484-2.185-2.227c-0.349-1.499-0.698-2.998-1.049-4.493c-3.402-4.001-3.575-9.029-3.999-13.825
	c-0.566-6.415-0.534-12.884-0.758-19.329c0.796-1.125,1.592-2.25,2.387-3.372l0,0c16.555-5.782,33.556-6.102,50.732-4.078
	c4.987,0.587,8.158,4.307,5.697,9.129c-4.432,8.685-2.942,16.918-1.598,25.686c0.698,4.553-1.208,9.5-4.246,12.883
	c-7.653,8.52-10.849,19.44-16.539,28.995c-4.092,6.874-8.97,13.097-13.542,19.578c-1.528,2.165-3.211,1.828-4.928,0.219
	C262.223,924.102,262.137,923.735,261.704,923.45 M329.616,1187.247c0,0-0.019,0.021-0.046,0.051
	c-0.054,0.06-0.145,0.157-0.199,0.217c0.054-0.06,0.145-0.157,0.199-0.217C329.597,1187.268,329.616,1187.247,329.616,1187.247
	c-1.492-2.524-2.563-5.201-3.329-7.983C327.053,1182.046,328.124,1184.722,329.616,1187.247c1.308,0.133,2.614,0.266,3.922,0.399
	C332.229,1187.513,330.924,1187.38,329.616,1187.247"/>
<path fill="#1865AA" d="M667.172,1011.291c-0.008,0.001-0.015,0.003-0.022,0.004c-0.002,0.014-0.003,0.027-0.005,0.042
	L667.172,1011.291z"/>
<path fill="#1865AA" d="M561.621,955.749c0.029-0.008,0.048-0.023,0.076-0.032c-0.001-0.008,0-0.016-0.001-0.023L561.621,955.749z"
	/>
<path fill="#1865AA" d="M827.424,815.484c0.198-1.34,0.395-2.681,0.593-4.021c-0.448-2.66-0.683-5.319-0.003-7.979
	c-0.457-1.415-0.288-2.77,0.394-4.075c-0.31-1.291-0.621-2.582-0.932-3.873c-0.16,0.034-0.352,0.063-0.552,0.09
	c-0.3,0.041-0.614,0.079-0.859,0.13c0.245-0.051,0.559-0.089,0.859-0.13c0.2-0.027,0.392-0.056,0.552-0.09
	c0.366-0.749,0.731-1.498,1.097-2.247c-0.338,0.221-0.702,0.28-1.093,0.176c-0.644-0.092-1.374-0.14-1.96-0.37
	c-0.586-0.229-1.029-0.639-1.099-1.454c0.07,0.815,0.513,1.225,1.099,1.454c0.586,0.23,1.316,0.278,1.96,0.37
	c0.472-1.333,0.436-2.623-0.316-3.855c0.079-0.711,0.158-1.421,0.238-2.131c-4.55-1.673-6.272-4.291-5.813-9.69
	c0.558-6.583-0.834-13.332-1.382-20.009c-3.345-3.459-1.733-8.704-4.462-12.385h-0.001c-1.226-3.31-2.452-6.62-3.679-9.93
	c-3.525-4.421-6.182-10.555-10.769-12.878c-7.704-3.901-9.807-10.258-11.803-17.289c-0.674-2.376,0.229-6.091-3.892-5.516
	c-3.217,0.449-3.718,3.366-3.575,6.213c0.06,1.185,1.078,2.555-0.692,3.336c-7.52-0.545-7.52-0.545-14.332-7.917
	c-1.572,0.64-1.104,2.106-1.379,3.302c-2.976,12.944-4.962,14.27-17.664,11.854c-0.652-0.125-1.292-0.328-1.931-0.515
	c-3.091-0.9-5.974-0.8-8.17,1.93c-2.213,2.753-0.382,4.789,1.134,7.094c1.851,2.812,1.639,5.484-2.568,4.676
	c-4.618-0.886-5.749,0.42-5.795,5.029c-0.052,5.113-2.811,10.545,3.778,13.807c0.63,0.312,0.679,1.796,0.998,2.736
	c3.15,1.549,3.648,4.429,3.433,7.433c-0.582,8.093-1.299,16.176-2.033,24.257c-0.154,1.692-1.13,3.001-2.617,3.877
	c-0.452,7.509-0.912,15.014-1.371,22.519c1.991,6.656-0.589,13.731,1.868,20.343c-1.777,3.137-1.192,6.376-0.423,9.624
	c4.429-0.081,7.346,3.003,10.743,5.27c-3.397-2.267-6.314-5.351-10.743-5.27c-0.211,4.979-0.408,9.961-0.635,14.939
	c-0.718,15.77,3.873,30.927,5.464,46.439c0.842,8.213,1.482,16.492,3.251,24.668c2.26,10.446,7.479,19.865,9.61,30.292
	c2.528,8.148,6.438,15.704,9.781,23.486c3.57,8.311,10.371,14.151,13.885,22.203c7.305,5.721,10.957,14.672,18.591,20.309
	c5.234,3.864,9.973,5.604,16.376,4.06c4.231-1.02,9.095-2.69,12.741,1.868c2.643,1.257,3.546,5.757,7.728,4.146
	c9.869,12.833,23.957,12.446,37.946,11.823c8.751-0.389,14.362-5.1,18.058-13.285c2.687-5.946,6.055-11.705,9.646-17.325
	c4.738-7.414,10.636-14.373,13.063-23.185c0.421-1.531,2.363-3.498,0.993-4.48c-4.916-3.525-2.531-9.384-4.866-13.495
	c-2.562-4.513-1.409-7.899,1.054-11.95c2.346-3.861,4.615-8.127,2.615-13.171c-0.557-1.402-0.676-3.687,0.102-4.8
	c8.078-11.579,2.098-26.764,9.954-38.347c0.338-0.499,0.234-1.296,0.342-1.954c2.409-14.882,6.293-29.483,8.044-44.506
	c1.149-9.864,3.882-19.521,4.362-29.503c0,0,0.071-0.051,0.068-0.05c3.577,1.1,4.94-0.713,5.058-3.954
	c0.096-2.653-0.211-5.336,0.065-7.962c2.736-25.941,7.72-51.56,11.165-77.384c1.56-11.684,2.454-23.864-0.344-35.66
	c-1.225-5.166-3.269-10.078-2.437-15.581c0.225-1.483,0.429-4.176-1.354-4.334c-6.71-0.596-4.989-5.673-5.299-9.464
	c-0.221-2.706-0.61-5.212-2.088-7.495c-0.625-0.144-1.249-0.287-1.874-0.43c-1.178,0.12-2.356,0.24-3.533,0.36
	c-2.691,1.75-5.379,3.416-7.849-0.313c-0.429-0.102-0.572-0.363-0.433-0.781l-0.627-0.129c0,0,0.168-0.553,0.176-0.549
	c-3.228-0.827-6.461-1.659-9.693-2.491c-5.55,2.252-10.201,7.022-16.843,5.441c-1.069,10.513-1.069,10.513-9.928,13.188
	c1.128,20.761-0.438,41.208-5.661,61.329c0.189,1.528-0.129,2.902-1.222,4.043c0.311,2.032,1.105,4.113-0.584,5.949
	c0.069,1.694-0.459,3.11-1.908,4.097c0.091,10.753-0.881,21.226-7.921,30.103c0.076,2.018,0.075,4.025-0.916,5.877
	c0.256,2.23-0.483,4.025-2.329,5.339l-0.199,0.714c-2.269,6.503-1.821,13.941-6.732,19.534l-0.123,0.315
	c0.008,0.331,0.121,0.704,0.008,0.986c-5.945,14.862-11.773,29.774-17.931,44.547c-2.874,6.896-3.345,6.86-11.232,5.498
	c-0.142,0.646-0.382,1.293-0.408,1.948c0.026-0.655,0.266-1.302,0.408-1.952l-0.234-0.487c-2.213-4.047-3.48-8.288-4.275-12.624
	c0.795,4.335,2.061,8.574,4.274,12.619c-0.752-11.454,0.548-22.972-1.173-34.387C830.213,827.357,828.74,821.426,827.424,815.484
	 M744.51,904.854c0.27-0.264,0.947-0.348,1.406-0.529c0,0.001,0,0.001,0,0.002C745.455,904.507,744.78,904.592,744.51,904.854
	 M776.086,821.997c0.244-0.562,0.488-1.124,0.732-1.686l0.001,0.001C776.573,820.874,776.33,821.437,776.086,821.997
	 M896.141,736.046c0.545,0.241,1.09,0.48,1.635,0.719c-0.545-0.239-1.091-0.478-1.636-0.717L896.141,736.046z M891.28,941.775
	c0.044-0.09,0.087-0.177,0.126-0.248v0.001C891.367,941.599,891.324,941.686,891.28,941.775c-0.088,0.18-0.179,0.375-0.248,0.48
	C891.102,942.15,891.192,941.955,891.28,941.775 M823.682,805.984c0.027-0.413,0.069-0.827,0.122-1.243
	c0.054-0.416,0.119-0.832,0.194-1.25c-0.075,0.418-0.14,0.834-0.194,1.25C823.751,805.157,823.709,805.571,823.682,805.984
	c-0.027,0.413-0.039,0.825-0.033,1.235C823.643,806.81,823.655,806.397,823.682,805.984 M823.895,842.044
	c0.098,1.332,0.197,2.664,0.307,3.994C824.092,844.708,823.993,843.376,823.895,842.044"/>
<path fill="#1865AA" d="M1412.113,512.857c-0.302,2.964,0.091,7.38,5.715,7.116c2.055-0.096,2.026,3.032,2.906,4.735
	c2.329,4.506,1.313,10.197,4.555,14.644c7.403-6.677,8.421-6.94,16.964-4.722c8.308,2.156,11.585,0.066,13.014-8.497
	c0.64-3.837-0.125-8.155,4.092-10.586c2.337-5.45,5.513-10.287,10.251-13.975c3.904-5.111,7.808-10.223,11.711-15.334
	c1.005-0.924,2.009-1.848,3.013-2.772c2.008-3.527,5.065-4.827,9.009-4.252c1.018-1.238,2.37-1.789,3.931-1.909
	c0.95-1.536,2.479-1.688,4.066-1.693c1.215-1.677,2.851-3.066,4.806-3.349c14.426-2.084,23.78-12.318,34.525-20.624
	c10.261-7.932,19.584-16.877,29.563-25.078c7.922-6.511,15.799-13.025,21.49-21.644c3.883-5.881,10.76-7.375,15.721-11.61
	c1.925-2.106,3.836-4.219,4.451-7.14c-3.833-0.334-7.458-2.399-11.497-1.624c4.039-0.775,7.665,1.29,11.499,1.621
	c1.055-1.027,2.107-2.052,3.16-3.077c0.22-1.079,0.44-2.158,0.659-3.236c1.888-0.807,3.134-2.254,4.033-4.045
	c0.677-0.39,1.354-0.78,2.028-1.169c-0.162-1.298-0.172-2.528-0.049-3.698c-0.123,1.17-0.113,2.399,0.051,3.696
	c11.595-8.732,20.43-20.001,28.995-31.517c1.265-2.716,4.593-4.013,5.026-7.301c-0.029-0.004-0.059-0.005-0.088-0.009
	c1.978-0.705,2.975-2.106,2.966-4.222c0.614-0.502,0.739-1.105,0.374-1.809c-0.001,0-0.002,0-0.002,0
	c0.279-0.753,0.559-1.507,0.839-2.26c0.008-1.357,0.017-2.714,0.024-4.072c-0.344-0.221-0.681-0.453-1.012-0.694
	c0.222-0.433,0.241-0.873,0.066-1.321h0.001l0.803-1.876c0.03-1.412,0.062-2.824,0.093-4.236c0.942-2.875,0.575-5.759,0.183-8.676
	c-0.339-2.518,0.458-4.528,3.196-5.266c0.108-0.848,0.217-1.697,0.324-2.546l-0.657-0.286l0.698-0.154l0.373-0.723l-1.957-10.115
	c-0.154-1.405-0.31-2.811-0.466-4.217c0.544-8.522,0.157-16.996-2.26-25.212c-2.897-9.843-4.063-20.359-13.978-26.996
	c-4.373-2.927-9.317-2.578-13.714-4.866c-2.31-1.203-4.312,3.399-6.751,5.05c-3.55,2.401-6.502,5.423-9.226,8.905
	c-4.3,5.496-9.711,9.966-17.019,11.352c-3.427,0.65-6.643,2.664-7.993,5.569c-3.581,7.704-9.151,13.346-15.454,18.868
	c-14.894,13.046-25.153,30.192-38.158,44.958c-3.518,3.992-7.213,8.047-11.276,10.907c-4.223,2.973-9.594,3.895-8.616,10.706
	c-6.865,6.557-9.705,16.96-19.656,20.571c-2.889,1.048-3.443,3.902-4.633,6.192c-3.762,7.233-7.868,13.875-16.638,16.127
	c-2.36,0.606-5.06,2.766-4.754,5.813c0.709,7.04-5.853,9.972-8.159,15.28c-0.828,1.907-2.873,2.895-5.028,2.508
	c-2.757-0.496-5.277,0.291-7.855,0.914l-0.228,0.014c-0.354,1.169-0.706,2.338-1.06,3.507c0.256,5.888-4.06,9.61-6.695,14.128
	c1.848,6.725-3.163,11.648-4.891,17.396c-0.769,2.563-3.931-0.272-6.028-0.375c-5.105,10.228-10.286,20.418-15.278,30.7
	c-2.173,4.474-2.884,9.398-3.525,14.296c1.404,2.963-0.312,3.949-2.811,4.437c0,0,0.038,0.139,0.039,0.141
	C1410.19,500.471,1412.773,506.361,1412.113,512.857 M1597.279,385.728c0.617-0.357,1.221-0.617,1.815-0.823
	C1598.5,385.11,1597.896,385.371,1597.279,385.728 M1645.724,317.727c0.062,0.01,0.122,0.021,0.183,0.032
	C1645.846,317.748,1645.785,317.735,1645.724,317.727 M1621.799,370.458c0.031-0.223,0.057-0.449,0.097-0.668
	C1621.855,370.009,1621.83,370.235,1621.799,370.458"/>
<path fill="#1865AA" d="M937.191,665.709c0.004,0.006,0.007,0.013,0.011,0.019c0.024,0.005,0.051,0.011,0.076,0.017L937.191,665.709
	"/>
<path fill="#1865AA" d="M1546.363,1432.113c-2.031-0.414-3.377-1.994-4.637-3.59c-1.313-1.663-3.174-2.377-5.231-2.5
	c-12.874-0.765-25.75-1.501-38.626-2.25c-3.487-0.203-6.39,1.633-9.478,2.772c-1.973,0.728-3.968,2.412-3.439,4.376
	c2.38,8.845-4.628,10.528-9.873,13.629c-4.95,2.957-7.604,7.155-7.074,13.076c-2.323,1.362-6.094,2.166-2.28,5.902
	c0.565,3.629-1.64,8.146,3.325,10.361c-0.456,2.741-0.126,5.305,1.685,7.537c-1.27,6.93-0.979,7.464,4.934,9.073
	c0.562,1.522,1.634,2.454,3.228,2.781c1.409,3.453,3.021,5.294,5.443,0.682c1.887,0.202,3.781,0.406,5.676,0.61
	c4.519,3.963,9.185,6.434,14.588,1.442c3.035,0.87,5.989,0.916,8.757-0.887c6.245,0.881,11.277-1.541,15.657-5.746
	c2.497,0.132,4.651-0.646,6.421-2.435c4.943,0.522,8.284-2.092,11.13-5.682c0.511,0.024,0.755-0.22,0.729-0.733
	c1.02,0.235,1.388-0.162,1.135-1.166c0.517-0.025,0.787-0.299,0.81-0.818c1.005,0.241,1.371-0.093,0.995-1.102
	c10.021-5.256,12.124-14.13,10.813-24.338C1559.83,1443.643,1557.938,1434.474,1546.363,1432.113"/>
<path fill="#1865AA" d="M545.4,1137.557c0.019,0,0.037,0,0.056,0l-0.002-0.013L545.4,1137.557"/>
<path fill="#1865AA" d="M1711.475,980.132c-0.201-3.613-0.504-6.604-5.002-7.141c-2.367-0.283-4.948-1.257-4.734-4.132
	c0.284-3.8-1.873-7.948,1.35-11.396c0.146-1.355,0.292-2.713,0.439-4.068c-6.112-14.086-11.571-28.492-20.283-41.302
	c-1.802-0.197-3.507-0.583-4.517-2.325c-0.666,0.188-1.111-0.042-1.341-0.69c-4.406-5.978-16.52-9.87-23.221-6.494
	c-5.527,2.784-13.042,2.892-15.669,10.342c-0.526,1.489-2.255,2.444-3.985,2.558c-6.209,0.406-7.866,4.795-8.806,9.865
	c-0.293,0.624-0.588,1.251-0.881,1.877c-3.307,3.767-3.62,7.842-1.254,12.193c-0.668,3.309-1.335,6.617-2.003,9.928
	c-4.039,5.01-7.114,10.04-9.346,16.584c-4.397,12.891-10.405,25.365-15.721,38.029c-4.933,11.75-9.827,23.527-16.304,34.744
	c-4.778,8.273-7.339,18.275-10.664,27.59c-4.076,11.413-11.382,21.554-13.411,33.792c-0.05,0.308-0.246,0.664-0.487,0.855
	c-4.759,3.754-4.247,9.322-4.992,14.453c-0.605-0.091-0.945,0.163-1.028,0.762c-5.066,1.228-5.275,1.928-2.175,7.305
	c-0.608,1.979-0.421,3.943,0.118,5.899c-2.709,6.541-8.205,12.229-6.189,20.215c-0.832,0.989-0.889,2.047-0.286,3.165
	c-2.622,0.646-4.149,1.979-3.105,4.93c-1.632,2.108-1.403,4.494-1.033,6.902c-2.593,0.852-3.564,2.771-3.525,5.354
	c0.095,6.166-2.879,11.607-4.979,17.012c-4.625,11.892-10.859,23.18-11.227,36.369c-0.026,0.975-0.352,1.964-0.659,2.906
	c-3.805,11.694-5.785,23.758-7.361,35.91c-0.528,4.066-1.59,8.191-6.113,9.409c-6.629,1.786-5.579,6.422-4.579,11.057
	c0.484,2.238,2.796,5.052,2.065,6.425c-4.419,8.298,1.964,16.071,0.521,24.532c-1.286,7.55,4.461,14.935,7.204,22.345
	c4.563,12.326,11.855,15.485,24.92,11.265c2.303,1.614,4.522,2.148,6.48-0.532c-0.111,0.838,0.315,1.243,0.965,0.777
	c0.631-0.453,1.381-1.213,0.081-1.883c0.835-0.589,1.688-1.188,2.542-1.784c2.593,0.875,6.082,1.545,7.658-0.016
	c4.131-4.09,9.223-2.539,13.832-3.615c1.765,0.366,3.352,0.014,4.725-1.194c1.989,1.709,2.845,0.884,3.067-1.372
	c0.584,0.076,0.95-0.174,1.098-0.75c1.024,0.258,1.453-0.173,1.376-1.191c-0.002,0.002,0.339-0.385,0.339-0.385
	c5.91-3.595,9.76-8.452,9.653-15.737c0.14-0.618,0.281-1.236,0.423-1.854c1.633-1.068,1.603-2.533,0.986-4.137
	c0.209-0.669,0.419-1.338,0.628-2.007c1.418,0.144,1.249-0.446,0.594-1.274c2.225-2.7,2.505-6.115,3.178-9.328
	c3.732-17.813,10.319-34.939,12.785-53.056c0.09-0.658,0.138-1.372,0.432-1.943c7.222-14.022,9.438-29.514,13.021-44.594
	c0.779-3.279,1.815-6.358,3.504-9.264c5.406-9.309,10.217-18.94,11.86-29.668c1.282-8.379,4.126-16.003,8.599-23.1
	c7.079-11.226,12.33-23.25,15.828-36.046c8.897-19.15,15.64-39.33,27.324-57.158c0.851-1.299,0.981-3.069,1.446-4.62
	c1.402-0.68,2.047-1.869,2.247-3.357c1.037-0.517,1.545-1.39,1.687-2.51c2.139-0.872,2.313-3.05,3.216-4.771
	c4.626-8.82,4.12-19.416,9.716-27.911c2.173-3.298,3.141-7.179,5.437-10.543C1710.287,988.885,1711.731,984.701,1711.475,980.132
	 M1620.712,1049.154c0.841-0.113,1.475-0.623,1.621-1.625c0.001,0.001,0.001,0.002,0.001,0.004
	C1622.188,1048.531,1621.554,1049.041,1620.712,1049.154 M1685.992,1039.23c0.25-0.44,0.643-0.784,1.232-0.997
	C1686.636,1038.446,1686.242,1038.79,1685.992,1039.23"/>
<path fill="#1865AA" d="M825.275,1525.002c-0.503-0.679-1.008-1.366-1.514-2.053l0.392-0.331c0,0-0.502,0.019-0.507,0.007
	c-0.307-10.295-0.858-20.602-0.857-30.907c0.001-9.091-6.637-17.712-15.549-18.592c-3.878-0.383-7.766-0.827-11.863-0.027
	c-7.182,1.402-14.084,1.196-20.924-3.346c-10.2-6.771-21.339-12.109-31.905-18.351c-11.407-6.737-22.744-13.613-33.868-20.805
	c-8.501-5.496-8.338-7.063-3.317-15.77c2.838-4.922,8.011-8.081,9.673-13.777c1.516-5.195,4.509-9.578,7.717-13.884
	c9.862-13.236,14.996-29.372,25.734-42.115c1.486-1.764,0.804-4.506,0.622-6.829c-0.314-4.007-0.922-8.33,1.027-11.804
	c3.822-6.815,4.499-14.571,7.396-21.621c0.879-2.14,1.631-4.296,0.732-6.752c-1.548-4.231-0.369-8.559-0.097-12.846
	c0.968-15.261,1.893-30.518-2.305-45.516c0.727-1.371,0.969-2.806,0.567-4.324c1.094-1.896,1.471-3.835,0.337-5.859
	c-0.467-3.055-2.871-3.684-5.322-4.252c0.137-0.657-0.052-1.199-0.567-1.627c-3.399,0.275-4.539-1.382-5.303-3.694
	c0.764,2.313,1.904,3.969,5.304,3.693c1.469-6.432-3.456-11.05-4.728-16.706c0.005-0.004,0.258-0.581,0.258-0.581
	c-2.443-0.585-3.331-2.285-3.324-4.628c-0.002,0.001,0.086,0.049,0.086,0.049c-7.057-4.48-11.266-12.66-19.966-15.116
	c-2.064-0.583-3.842-2.475-4.564-4.849c-1.009,0.078-1.559-0.366-1.603-1.393c-4.823-1.107-8.46-4.732-13.297-6.025
	c-3.948-1.056-5.479-4.422-4.794-8.562c-0.003,0.003-0.149,0.139-0.147,0.136c-4.159,0.108-7.066-1.898-10.363-4.465
	c-7.647-5.95-14.339-13.748-24.636-15.474c-3.624-0.608-7.055-1.491-10.189-3.472c-2.078-1.313-4.29-1.605-6.502-0.211
	c-2.186-1.639-4.684-2.052-7.334-1.861c-0.001,0.002-0.002,0.003-0.002,0.005c-1.726-1.764-4.044-2.022-6.278-2.672
	c-4.988-1.448-10.378-2.125-14.132-6.356c-2.779,0.683-5.447,0.484-7.948-1.015c-6.982,1.672-13.924,2.128-20.763-0.691
	c-1.329,0.999-2.672,1.332-4.06,0.121c-7.548,3.753-12.382,4.701-17.086,3.351c-4.814,0.14-9.142,3.365-14.157,2.226
	c-2.79,3.086-6.455,2.073-9.893,2.125c0.074,0.69,0.149,1.379,0.225,2.069c0.001,0.001,0.001,0.001,0.001,0.001
	c-2.066,0.046-4.132,0.091-6.197,0.138c0.107,0.758,0.213,1.516,0.32,2.272c-0.404,2.064-0.432,4.848-1.977,6.025
	c1.544-1.178,1.573-3.962,1.975-6.032c-1.256-1.757-3.454-1.114-5.051-1.998c-2.364,5.029-6.152,6.589-11.369,4.662
	c-1.696,1.097-3.559,1.292-5.511,1.022c-0.006,0.703-0.009,1.407-0.013,2.111l-0.277,0.156c-0.446,2.39-1.705,3.246-3.297,3.477
	c-0.319,0.046-0.651,0.066-0.992,0.07c0.341-0.004,0.673-0.024,0.992-0.07c1.592-0.23,2.851-1.087,3.297-3.478
	c-2.892-0.277-5.414,0.14-6.419,3.41c-1.894-0.782-3.82-0.832-5.774-0.259c-0.215-0.216-0.479-0.642-0.645-0.606
	c-0.56,0.117-1.086,0.401-1.624,0.621c-1.805,0.252-3.609,0.504-5.413,0.758c-6.919,3.422-14.481,5.93-18.732,13.152
	c3.033,0.401,6.198,0.087,8.99,1.732c-2.792-1.646-5.957-1.33-8.99-1.728c-5.012-0.658-7.533,2.65-9.894,6.213
	c0,0-0.12-0.275-0.126-0.294c-0.001-0.003-0.001-0.005-0.002-0.008c-8.124-0.933-13.277,5.533-19.987,8.136
	c-3.204,1.242-5.555,4.57-9.563,4.009c-1.017,0.229-2.033,0.461-3.049,0.691c-1.683,3.979-4.081,6.748-8.969,5.319
	c-2.913,2.121-5.825,4.243-8.737,6.365c-0.197,0.937-0.065,2.3-0.641,2.747c-8.192,6.351-16.47,12.591-24.774,18.796
	c-0.426,0.318-1.265,0.084-1.912,0.107c-0.367,0.569-0.871,0.743-1.51,0.524c-4.333,7.896-9.639,14.997-16.814,20.57
	c-0.601,0.229-1.202,0.461-1.802,0.691c-3.19,0.09-3.826,2.142-3.681,4.79c-2.841,1.668-5.23,3.675-5.496,7.286
	c-3.203,0.41-4.863,2.734-4.788,5.449c0.196,7.106-1.182,13.704-3.701,20.371c-1.671,4.423-0.584,9.586,3.333,12.708
	c2.812,2.24,4.091,4.432,4.988,7.917c1.722,6.69,8.876,9.113,14.824,5.624c3.126-1.834,5.818-4.957,9.669-4.733
	c6.869,0.398,12.072-2.779,17.054-6.795l0.036-0.036c0.717-1.796,1.433-3.593,2.15-5.389c1.285-0.061,2.57-0.12,3.854-0.181
	c0.534-1.329,1.533-2.071,2.932-2.306c0.318-0.844,0.635-1.687,0.952-2.532v-0.001c2.016-0.495,4.032-0.99,6.047-1.484l0.134-0.129
	c0.588-3.904,3.471-3.273,6.123-3.1l0.061-0.537l0.527-0.12c0.001-2.149,0.12-4.162,3.193-2.764c1.22-0.887,2.544-0.895,3.921-0.468
	c0.714-0.268,1.428-0.535,2.142-0.803c3.203-5.855,9.286-8.378,14.3-12.063c3.03-2.227,5.67-1.054,6.463,2.93
	c0.389,1.952,1.013,3.903,1.068,5.867c0.358,12.674,3.203,24.944,5.886,37.242c0.301,1.376,0.19,2.597-0.587,3.762
	c2.976,7.053,5.648,14.177,5.097,22.045c0.177,1.218,0.355,2.435,0.533,3.65c2.46,5.263,2.051,10.812,1.64,16.363
	c1.205,3.453,4.146,6.591,1.939,10.663c1.575,0.631,2.141,1.778,1.751,3.418c0.102,1.64,0.203,3.278,0.304,4.919
	c0.867,0.313,1.735,0.626,2.602,0.939c1.943-0.429,3.829-1.327,5.806-1.222c-1.977-0.105-3.863,0.793-5.806,1.222
	c-0.012,1.346-0.025,2.69-0.038,4.036c-0.162,0.684-0.325,1.365-0.484,2.049c0.835,1.896,0.784,3.818,0.191,5.76
	c1.057,1.94,2.215,3.854,1.679,6.226c0.736,2.817,1.876,5.621,0.253,8.506c0.829,0.466,2.255,0.796,2.395,1.417
	c1.95,8.644,7.169,16.604,5.554,25.996c0.103,1.24,0.2,2.481,0.297,3.722c2.612,2.893,3.765,6.36,4.031,10.18
	c2.073,2.147,2.739,4.761,2.534,7.659c1.869,1.729,1.93,3.818,1.223,6.061c0.008-0.004,0.287-0.058,0.282-0.056
	c3.272,9.559,7.664,18.914,9.425,28.741c1.126,6.284,2.657,12.149,5.418,17.678c3.532,7.071,7.981,13.702,9.238,21.736
	c0.27,1.725,1.261,3.125,2.89,3.763c4.171,1.632,5.064,5.903,7.392,8.999c3.292,4.379,4.502,10.134,8.996,13.745v0.002
	c0.456,0.759,0.911,1.526,1.366,2.294c-0.549,0.555-0.497,0.907,0.155,1.058c-0.013-0.208-0.027-0.416-0.032-0.607
	c0.765,1.017,1.538,2.049,2.311,3.081c-1.309,2.161-0.3,2.98,1.829,3.159c0.017,0.563,0.311,0.843,0.879,0.837
	c1.5,3.042,0.16,7.91,5.465,8.516c0.023,0.714,0.387,1.151,1.091,1.308c-0.544,2.483,0.081,4.283,2.83,4.85
	c0.086,0.71,0.472,1.183,1.157,1.407l-0.104,0.764c0,0,0.754,0.023,0.756,0.03c0.319,2.492,2.099,4.063,3.674,5.762
	c0,0-0.196-0.297-0.196-0.296c0.833,0.622,1.665,1.242,2.498,1.863c1.546,8.226,8.495,12.9,12.61,19.406
	c5.327,8.424,14.459,7.647,22.062,10.511c1.303,0.491,3.941-0.118,5.014-2.23c2.389,0.891,4.618,0.521,6.714-0.871
	c1.176,1.64,2.793,1.109,4.458,1.147c8.63,0.193,17.671-1.772,25.021,5.202c2.493,2.366,4.707,0.66,4.58-2.256
	c-0.335-7.71,1.032-15.17,2.063-22.738c0.69-5.063,0.748-10.525-2.612-15.141c-1.518-4.352-4.087-8.653-4.334-13.084
	c-0.498-8.928-6.438-12.771-12.579-17.569c-8.666-6.773-16.882-14.05-19.181-26.184c-1.895-9.998-5.444-19.767-11.714-28.17
	c-1.412-1.894-1.75-4.309-2.794-6.284c-4.014-7.593-4.305-16.538-8.937-23.857c0-0.001-0.001-0.001-0.002-0.002
	c1.361-2.592,3.219-7.038,6.044-4.924c6.553,4.903,12.822,0.213,19.114,0.987c4.732,0.582,7.343-2.159,8.653-6.422
	c1.854,0.649,3.699,0.704,5.536-0.061c1.259,2.842,3.722,2.354,6.069,2.191c4.159,3.723,7.519,8.732,12.832,10.678
	c7.677,2.81,13.682,8.074,20.467,12.191c9.712,5.895,17.823,13.815,28.224,19.164c10.453,5.374,20.715,11.651,31.072,17.492
	c18.698,10.545,35.302,24.614,55.558,32.603c3.618,1.427,6.746,2.247,10.406,1.555c0.877,1.271,1.966,1.87,3.489,1.106
	c1.164,0.481,2.33,0.969,3.496,1.456c0.299,0.556,0.454,1.391,0.917,1.628c13.703,7.025,34.448-1.208,42.22-15.163
	c0.901-1.617,0.854-3.324-0.484-4.537C832.553,1526.923,829.856,1523.78,825.275,1525.002 M407.469,1247.586l-0.138-0.136
	C407.378,1247.497,407.47,1247.587,407.469,1247.586 M410.686,1231.09c0.111,0.183,0.206,0.376,0.264,0.587
	C410.892,1231.466,410.797,1231.272,410.686,1231.09 M717.828,1200.225c-0.384,0.148-0.895,0.224-1.217,0.408
	C716.933,1200.448,717.444,1200.373,717.828,1200.225L717.828,1200.225z M666.155,1274.346c-1.848-4.427-5.135-11.938-6.104-13.529
	C661.017,1262.4,664.306,1269.917,666.155,1274.346 M666.764,1275.819c-0.093-0.228-0.193-0.473-0.301-0.732
	C666.571,1275.347,666.671,1275.592,666.764,1275.819 M593.287,1369.587L593.287,1369.587l0.092-0.088
	C593.333,1369.544,593.287,1369.588,593.287,1369.587 M588.386,1373.038c0.837-1.127,1.623-2.328,2.796-2.976
	C590.009,1370.71,589.223,1371.911,588.386,1373.038 M541.876,1520.525c1.004,0.259,1.519,1.051,1.836,1.957
	C543.395,1521.577,542.881,1520.785,541.876,1520.525 M544.751,1306.068c0.061,0.157,0.127,0.313,0.199,0.467
	C544.878,1306.382,544.812,1306.227,544.751,1306.068 M543.474,1205.593L543.474,1205.593c0.028-0.044,0.06-0.08,0.089-0.123
	C543.534,1205.513,543.502,1205.549,543.474,1205.593 M551.465,1142.854c-0.012-0.012-0.028-0.021-0.041-0.033
	C551.437,1142.833,551.453,1142.843,551.465,1142.854 M549.876,1141.802c-0.819-0.401-1.74-0.741-2.568-1.138
	C548.136,1141.061,549.057,1141.4,549.876,1141.802 M461.432,1245.548c0.001,0-0.082-0.082-0.089-0.089L461.432,1245.548
	c0.291,0.01,0.582,0.015,0.875,0.016C462.014,1245.563,461.723,1245.558,461.432,1245.548 M464.943,1245.545
	c0.585,0.003,1.167,0.018,1.741,0.063C466.11,1245.563,465.528,1245.548,464.943,1245.545 M641.209,1305.495
	c-3.757,13.428-11.579,25.03-16.863,37.771c-1.445,3.483-6.088,4.104-7.379,7.823v0.001c-3.662,1.361-7.716-3.731-10.103-1.063
	c-4.417,4.94-10.333,4.963-15.627,7.044c-1.172,0.462-3.212,1.437-3.14,1.927c0.881,6.048-5.025,10.604-3.546,16.691
	c-1.211,1.769-1.898,3.647-1.233,5.813c-3.985,8.565-8.351,16.981-11.83,25.749c-2.637,6.644-4.623,1.521-6.95,0.222
	c-0.205-0.847-0.411-1.695-0.617-2.542c-0.001,0-0.001,0-0.002,0c-0.368-5.917-0.956-11.765-2.434-17.58
	c-2.428-9.553-4.601-19.192-6.344-28.893c-2.556-14.224-5.537-28.39-6.831-42.817c1.002-2.114,1.69-4.261,0.686-6.583
	c0.823-3.349-0.662-6.372-1.214-9.557c-1.15-6.638-4.768-13.008-2.482-20.071c0.104-1.267,0.207-2.535,0.311-3.802
	c-0.894-1.985-0.034-4.615-2.25-6.113c0,0-0.236,0.225-0.235,0.225l0.235-0.225c0.004-2.955-0.926-6.342,0.202-8.775
	c2.63-5.675,2.241-11.443,2.185-17.297c-0.869-1.961-1.12-3.939-0.178-5.953c0.049-0.658,0.098-1.316,0.147-1.974
	c-0.102-1.992-0.203-3.984-0.304-5.976c-3.524-4.377-5.201-9.738-7.696-14.656c-1.279-2.52-1.245-5.119,2.188-6.309
	c1.53-0.53,2.948-1.274,3.601-2.91c10.199-0.813,19.613-6.319,30.176-5.041c0.919,0.11,2.178-0.091,2.829-0.661
	c8.14-7.143,18.208-2.8,27.264-4.459c8.078-1.479,16.23,2.446,24.122,2.917c17.305,1.034,26.412,11.894,30.629,28.743
	c2.721,10.874,1.079,21.766,1.724,32.631l-0.46,0.23l0.059,0.512c-0.001-0.001-0.002-0.002-0.002-0.002
	c-1.356,0.465-2.331,1.338-2.281,2.83c0.159,4.718-1.83,8.957-2.731,13.394c-1.8,8.868-7.261,16.137-9.404,24.733
	C643.66,1302.448,641.782,1303.444,641.209,1305.495 M676.041,1173.964c-0.031-0.401,0.04-0.703,0.21-0.887
	c-0.169,0.184-0.24,0.484-0.209,0.885c0.36,0.251,0.746,0.681,1.097,0.854C676.788,1174.643,676.402,1174.213,676.041,1173.964"/>
<path fill="#1865AA" d="M76.705,279.391c0.32,0.62,0.642,1.242,0.964,1.864c6.819,2.351,13.108,5.353,15.785,12.81
	c0.999,2.783,3.479,2.409,5.707,2.799c6.256,1.097,12.071-1.557,18.143-1.946c1.292-0.765,2.641-0.929,4.058-0.393
	c0.772-0.109,1.545-0.219,2.318-0.328c6.371-4.479,12.499-9.495,20.912-9.461l0.116,0.063c3.288-4.135,7.046-7.521,12.665-7.935
	c2.216-1.071,4.432-2.141,6.648-3.212c0.676-1.371,1.715-2.175,3.307-2.118l0.367-0.514l0.628,0.074
	c5.001-4.351,9.372-9.838,17.01-9.436c0.471-0.556,1.025-0.656,1.661-0.299c0.814-0.367,1.628-0.734,2.442-1.101
	c1.579-4.87,5.09-6.831,10.02-6.655c8.208,1.233,10.946-6.178,15.912-10.068c0.969-1.726,2.191-3.199,4.061-4.015
	c1.233-3.39,4.041-3.506,6.976-3.353c2.512,0.131,5.024,0.27,7.536,0.405c-0.035-1.039-0.07-2.079-0.105-3.119
	c0.189-5.273,4.204-7.767,7.956-9.967c6.477-3.798,13.504-5.992,21.192-4.623c0.355-0.997,1.16-1.478,2.209-1.678
	c3.752-4.357,9.537-5.172,14.292-7.655c3.891-2.033,4.783,2.372,4.164,5.403c-1.994,9.77-1.741,19.82-3.6,29.539
	c-2.513,13.135-2.621,26.309-2.695,39.568c-0.118,20.806,1.582,41.527,2.502,62.284c2.128,2.728,2.299,5.817,1.67,9.053
	c0.875,2.13,0.96,4.223-0.295,6.252c0.74,3.26,1.48,6.521,2.22,9.78l0.092,0.089c1.169,1.043,1.298,2.2,0.375,3.469
	c1.358,2.934,1.011,6.128,1.407,9.208c1.227,0.616,2.229,1.344,1.475,2.951c-0.12,1.516-0.24,3.032-0.361,4.549l0.354,0.812
	l-0.137,0.876l0.77,2.75c1.559,0.53,3.738,0.825,3.817,2.711c0.321,7.647,5.228,15.085,1.536,22.852
	c-2.356,4.956-1.206,8.576,2.272,12.512c4.262,4.823,2.685,8.488-3.551,9.305c-1.636,0.214-3.519-0.47-4.956,0.1
	c-5.77,2.287-7.948-0.536-8.613-5.664c-0.329-2.528-0.805-4.928-4.088-3.972c-3.978,1.16-7.645,6.964-6.249,9.511
	c1.218,2.224,3.995,3.494,4.154,6.296c-3.394,3.968-9.244-1.345-12.49,4.142c-2.171,3.67-2.143,8.453-5.863,11.234
	c-1.076,8.737-0.027,11.308,7.022,15.106c2.779,1.497,4.765,3.339,5.971,6.24c3.617,8.699,10.427,13.136,19.526,14.686
	c4.215,0.718,8.296,2.291,12.52,2.877c5.029,0.697,8.474,3.335,11.183,7.33c15.019,1.825,15.731,2.482,19.742,18.202
	c10.638,21.657,21.645,43.144,31.784,65.033c6.945,14.994,15.658,28.453,29.593,37.494c9.735,6.315,18.78,14.592,32.112,13.433
	c4.952-0.431,10.726,0.108,15.116,3.865c2.397,2.051,4.28,1.03,5.901-1.013c1.022-1.288,2.418-2.627,2.68-4.114
	c1.845-10.459,7.665-19.787,8.794-30.362c0.627-5.863,4.52-10.636,3.709-17.153c-1.35-10.845-10.039-22.347-20.653-24.84
	c-1.528-0.359-4.082,0.422-4.306-1.472c-1.008-8.538-6.468-6.61-11.776-5.435c-2.999,0.663-5.197-0.666-6.712-3.146
	c-3.107-5.083-6.67-10.008-6.357-16.422c-1.433-0.8-1.968-2.121-2.122-3.662l-0.111-0.1c-2.896-2.693-3.963-6.592-6.858-9.501
	c-3.894-3.913-2.452-7.402,2.837-9.88c11.327-5.306,23.245-5.088,35.072-2.939c4.66,0.846,9.14,1.623,13.673,0.585
	c7.591-1.738,15.104,0.724,22.646,0.003h0.005c1.084,1.193,2.152,1.359,3.201-0.043l0.17-0.041c1.819,0.084,3.643,0.168,5.467,0.252
	c2.076,0.97,4.204,1.052,6.375,0.369c1.919,0.465,3.841,0.929,5.763,1.393c1.376-0.544,2.756-0.668,4.142-0.037
	c0.606-0.299,1.202-0.278,1.786,0.061c4.055-1.112,8.129-0.968,12.211-0.166c0.514-0.401,1.051-0.768,1.61-1.101
	c0.148-0.761,0.223-1.751,0.944-1.964c-0.721,0.213-0.795,1.203-0.941,1.964c0.819,0.034,1.634,0.069,2.45,0.103
	c1.915,0.51,3.83,1.02,5.745,1.529c2.104-0.301,4.201-0.467,6.249,0.326c0.994-0.544,1.497,0.012,1.88,0.836
	c7.324-0.508,14.652-1.053,21.581,2.245c7.493-0.368,14.766,2.32,22.285,1.594c10.434,2.204,20.311,6.063,30.112,10.146
	c3.325-2.162,6.621-1.558,9.905,0.105c5.336,1.033,8.599-1.646,10.881-6.079c-0.32-1.531,0.006-2.84,1.314-3.809
	c-0.393-1.574-0.271-3.02,1.036-4.172c2.814-4.236,4.033-8.846,3.255-13.922c-6.738-5.082-8.146-13.481-12.457-20.082
	c-8.467-12.962-16.575-26.271-30.99-33.623c-4.261-2.174-7.032-6.006-11.094-8.32c-10.074-5.738-21.015-8.981-31.894-12.808
	c-17.939-6.31-36.482-6.505-54.724-9.6c-7.919-1.343-15.664-0.064-23.36-1.389c-5.979-1.03-6.284-1.694-3.727-6.945
	c2.282-4.686,3.908-9.838,9.82-11.763c2.066-0.673,3.792-2.981,3.871-5.481c0.212-6.668,3.9-10.719,9.233-14.143
	c2.349-1.507,4.931-3.459,5.58-6.762c1.211-6.167,5.094-10.367,9.581-14.655c9.722-9.29,14.598-21.179,15.75-34.574
	c-1.646-0.527-3.042-1.433-3.688-3.078c-2.52-6.421-2.497-6.43-7.645-2.249c-8.254-8.826-6.134-12.961,0.018-22.188
	c1.648-2.472,3.442-4.856,5.3-7.175c0.904-1.128,2.256-1.399,3.536-0.542c1.068,0.714,2.505,1.701,1.484,3.096
	c-3.569,4.877-5.008,9.418,0.831,13.731c0.509,0.376,0.664,2.198,0.228,2.736c-3.777,4.658,0.046,7.941,1.902,11.586
	c2.719-3.669,5.095-7.516,6.244-12.001c-1.307-0.425-2.07-1.453-1.449-2.611c0.57-1.061,1.935-1.151,3.155-0.805l-0.025-0.52
	l0.507-0.112c-0.95-4.725-5.328-5.136-8.829-6.909c1.42-3.388,2.114-5.649,7.202-3.233c4.991,2.37,9.517-2.492,13.901-5.08
	c0.289-1.586,0.576-3.172,0.864-4.759c-1.905-2.634-1.04-5.686-1.187-8.55c-0.411-8.07-0.337-8.074,8.475-8.585
	c-0.801-1.607-0.832-3.226-0.077-4.857c-3.263,1.301-5.978-0.157-5.389-3.236c1.442-7.531-0.46-14.959,0.309-22.391
	c0.069-0.669,1.33-1.214,2.037-1.817c0.382-1.709,1.12-3.219,2.45-4.4c-0.853-1.997,0.711-3.126,1.856-3.963
	c3.357-2.455,3.801-5.159,2.78-9.22c-1.276-5.079-0.365-10.241,3.588-14.324c-0.028-1.814,0.613-3.355,1.895-4.633
	c-0.318-2.752-4.124-4.184-2.853-7.538c-0.553-1.633-1.106-3.267-1.659-4.899c-2.124,0.006-3.365-0.828-3.021-3.172
	c-0.594-0.114-0.891-0.473-0.892-1.078c-5.767-4.589-5.847-5.591-1.166-14.531c-0.318-4.35-0.637-8.7-0.956-13.05
	c-2.282-0.339-4.556-0.768-6.849-0.996c-3.343-0.332-4.816-1.956-3.75-5.27c2.735-8.511-2.574-15.585-4.067-23.338
	c-1.545-1.45-1.94-3.279-1.751-5.298c-0.003,0.004,0.009-0.066,0.009-0.066c-3.944-1.487-7.893-2.971-6.855-8.485
	c-0.588-0.417-0.84-0.985-0.755-1.702c-5.879-4.743-12.361-8.915-15.419-16.322c-1.232-0.291-2.011-1.064-2.403-2.251
	c-3.697-0.364-6.133-2.574-8.069-5.515l-0.127-0.086c-2.303-0.291-3.719-1.604-4.376-3.795c-1.214-0.255-2.428-0.511-3.642-0.766
	c-6.951,0.635-12.92-1.287-17.64-6.635c-2.582-2.925-5.644-4.77-9.655-3.042c-4.486,1.932-6.723-2.78-10.706-3.452
	c-15.351-2.589-30.608-2.183-45.927-1.074c-5.597,0.405-11.24,0.218-16.821,1.706c-3.389,0.903-7.27,0.972-10.649-1.047
	c-7.503,5.205-14.774,10.804-24.854,9.775c-2.484-0.253-5.297,0.659-7.667,1.699c-11.783,5.165-23.942,9.351-35.652,14.796
	c-11.159,5.189-21.383,12.272-33.371,15.926c-5.461,1.664-11.037,3.994-15.484,8.557c-2.527,2.593-7.032,4.388-10.707,4.5
	c-8.175,0.248-15.203,3.515-22.456,6.427c-12.199,7.225-24.213,14.791-36.672,21.533c-6.52,3.529-11.688,9.526-19.442,10.786
	l-2.132,2.075c-0.332,2.115-1.271,3.49-3.705,3.042c-1.941,0.368-3.88,0.736-5.82,1.104l-0.086,0.151
	c-1.046,2.624-3.191,3.699-5.799,4.116c-0.86,1.404-2.215,1.806-3.75,1.843c-1.058,1.704-2.401,2.988-4.547,3.083
	c-0.61,0.263-1.223,0.527-1.836,0.791c-3.383,2.554-6.766,5.109-10.147,7.662c0.001-0.001-0.223,0.173-0.223,0.173
	c-3.158,3.771-6.385,7.486-9.455,11.328c-2.994,3.746-5.904,5.742-11.554,5.239c-5.681-0.505-12.152,0.611-14.188,8.772
	c-1.035,4.144-5.427,7.261-5.218,12.349c0.073,1.761-1.698,3.207-3.266,3.206c-4.019-0.003-4.956,3.861-7.628,5.457
	c0.005,0.001-0.145,0.115-0.145,0.115c-3.181,6.074-5.658,12.274-3.599,19.332c0.18,0.616,0.437,1.488,0.159,1.919
	C73.874,264.417,77.562,272.082,76.705,279.391 M492.483,519.291c2.519-0.381,5.133,0.624,7.694,0.672
	C497.616,519.915,495.003,518.91,492.483,519.291 M482.259,518.759c-0.543-0.603-1.098-0.943-1.667-0.992
	C481.161,517.816,481.716,518.156,482.259,518.759 M526.483,293.089c0.22-0.392,0.967-0.488,1.486-0.713
	c0.68,0.333,0.962,0.929,0.49,1.495c-0.325,0.39-0.997,0.491-1.513,0.72C526.768,294.077,526.307,293.404,526.483,293.089
	 M356.549,514.298c-0.001-0.002-0.002-0.003-0.003-0.004c3.035,0.983,2.369-2.675,3.096-3.552
	C358.916,511.619,359.583,515.279,356.549,514.298 M357.168,418.586c0.071,0.303,0.132,0.61,0.21,0.91c-0.001,0-0.001,0-0.001,0
	C357.3,419.196,357.239,418.889,357.168,418.586 M352.499,490.78c1.132-0.017,1.801,0.896,2.134,2.067
	c0.027,0.961-0.303,1.671-0.896,2.044c0.593-0.372,0.922-1.083,0.893-2.043C354.298,491.676,353.63,490.763,352.499,490.78
	 M353.695,494.911c-0.229,0.135-0.492,0.226-0.791,0.26C353.203,495.137,353.466,495.046,353.695,494.911 M361.158,443.495
	c0.368-0.548,0.734-1.097,1.086-1.653C361.893,442.398,361.526,442.947,361.158,443.495 M358.813,447.281
	c0.133-0.258,0.271-0.513,0.416-0.765C359.084,446.768,358.946,447.023,358.813,447.281 M354.221,510.179
	c-0.374-0.617-0.762-1.222-1.198-1.791C353.459,508.957,353.849,509.562,354.221,510.179 M357.391,419.509L357.391,419.509
	c0.598,0.186,1.238,0.309,1.853,0.47C358.628,419.817,357.988,419.694,357.391,419.509 M441.851,416.011
	c-0.003-3.401,1.334-5.938-0.763-9.12c4.287,0.893,7.57,2.116,7.58,5.266C448.679,416.111,444.232,414.678,441.851,416.011
	 M474.033,375.057c-0.638,2.251-0.985,4.755-3.276,5.84c-5.47,2.59-7.632,7.867-11.037,14.292
	c-4.159-13.975,1.849-24.388,17.26-31.121C474.438,368.007,475.002,371.64,474.033,375.057 M346.409,309.832
	c-0.469-1.643-0.786-3.269,0.52-4.716l-0.169-0.821l0.672-0.563c-1.39-4.07-2.953-7.941-0.803-12.457
	c1.741-3.657,0.764-7.844,0.576-11.823c-0.382-8.057,0.663-15.87,5.147-22.778c1.429-2.202,2.215-3.849,0.282-6.126
	c-3.407-4.014-2.586-8.401-1.43-13.165c2.873-11.841,7.677-23.08,10.676-34.822c2.204-8.628,4.927-17.058,7.307-25.571
	c2.067-7.389,6.58-12.849,10.144-19.013c3.779-6.536,11.379-7.385,17.954-9.322c13.206-3.89,26.879-6.137,39.258-12.799
	c9.677-5.207,19.47-2.298,28.578,2.059c5.315,2.544,8.414,7.375,8.448,13.66c0.036,6.562,0.919,13.112-2.288,19.418
	c-4.171,8.2-4.204,17.973-9.492,25.831c-1.393,2.069-1.678,4.637,0.077,6.523c3.835,4.122,1.804,7.937-0.147,11.83
	c-6.627,13.222-11.647,27.191-20.134,39.562c-6.043,8.808-10.528,18.674-15.921,27.944c-2.308,3.966-4.168,8.387-8.408,10.91
	c0.006,1.425-0.608,2.372-2.059,2.676c-0.006,1.545-0.558,2.759-2.058,3.399c-0.634,2.215-1.178,4.493-3.734,5.372
	c-0.742,0.855-1.485,1.711-2.227,2.567c-0.242,3.446-2.858,4.885-5.399,6.387c-0.344,0.553-0.687,1.106-1.031,1.658
	c-0.92,3.013-1.609,6.193-5.252,7.226c-0.349,0.624-0.879,0.965-1.592,1.024c-5.929,9.716-10.895,20.16-20.473,27.123
	c-1.289,2.433-3.941,3.132-5.936,4.668c-2.768,4.428-9.025,3.102-11.78,8.726c-1.119-5.688-0.451-10.304-5.074-13.354
	c-2.213-1.46-1.331-4.841-0.457-7.414c-1.681-3.95-3.487-7.875-2.436-12.362C345.728,324.235,342.684,317.245,346.409,309.832"/>
<path fill="#1865AA" d="M263.162,218.892c-0.06-0.011-0.118-0.017-0.178-0.028c-0.039,0.108-0.076,0.218-0.104,0.338
	L263.162,218.892z"/>
<path fill="#1865AA" d="M591.368,273.062c0.605,15.131,1.098,30.382,4.328,45.317c0.558,2.578,1.037,5.235,1.049,7.857
	c0.036,8.05,1.01,15.821,4.81,23.104c3.76,7.208,3.693,15.415,5.485,23.13c3.002,12.922,6.188,25.784,10.701,38.241
	c1.29,3.558,1.427,7.146,2.028,10.667c2.681,15.725,9.514,29.549,18.022,42.796c2.253,3.51,5.797,6.609,5.478,11.43
	c2.423,3.518,7.196,5.073,8.181,9.793c9.267,7.514,16.971,16.455,23.856,26.143c3.57,3.465,7.209,6.823,12.303,7.921
	c1.205,0.325,2.409,0.649,3.614,0.974c1.295,0.155,2.921-0.137,3.83,0.538c5.149,3.825,11.039,2.819,16.771,2.937
	c0,0,0.58,0.369,0.607,0.389v0.001c3.371,3.922,9.564,5.128,10.741,11.159c3.309,0.404,6.65,0.755,8.125,4.485
	c3.271,1.424,7.266,1.678,9.006,5.574c4.084,6.322,9.36,6.968,16.154,4.329c8.48-3.293,17.402-5.273,24.39-11.895
	c1.854-1.757,4.26-2.977,5.12-5.514c1.341-3.953,4.239-6.566,7.206-9.178c5.46-7.785,10.577-15.855,18.192-21.845
	c-0.127-1.71,1.024-2.765,2.001-3.908c-0.232-4.076,0.152-7.876,4.451-9.919c2.718-8.604,2.306-16.861-0.433-25.656
	c-2.374-7.626-3.126-15.311,0.357-24.057c3.958-9.941,5.888-21.713-1.341-32.083c-1.208-1.733-2.319-3.846-0.991-5.495
	c4.467-5.547,2.832-12.834,5.77-18.751c0.28-3.388-0.706-6.863,0.686-10.177c-0.204-2.249-0.36-4.504-0.643-6.743
	c-0.078-0.615-0.751-1.167-0.789-1.771c-0.277-4.458,7.982-6.129,3.424-12.537c-2.696-3.792-0.097-8.646,2.142-12.647
	c0.215-4.099,0.43-8.199,0.645-12.299c-0.663-11.755-3.631-23.558,0.918-35.207c0.579-1.485,0.958-3.505,0.424-4.888
	c-2.253-5.83-5.332-11.38-2.101-17.942c0.515-1.047-1.254-1.871-2.82-1.61c-0.652,0.109-3.207,2.303-1.969-0.058
	c3.846-7.336,1.445-14.73,1.555-22.058c0.133-8.85-0.211-17.703,3.773-25.964c-0.581-4.784-1.241-9.574,0.576-14.264
	c-0.848-1.414-0.748-2.666,0.631-3.699c0.626-3.415-0.817-7.078,1.225-10.326c-6.439-4.722-6.636-12.33-8.197-19.036
	c-1.401-6.027-1.791-12.293-3.839-18.234c-1.531-4.443-1.805-8.975-0.19-13.531c2.783-7.851,2.77-16.152,3.735-24.291
	c0.264-2.227-0.551-4.693,1.77-6.32c-0.023-5.139-1.058-10.314,0.512-15.402c-4.874-2.288-9.675-4.833-15.334-4.355
	c-0.663,1.187-1.328,2.379-1.993,3.572c1.486,3.491-1.807,7.504,1.181,10.832c-3.706,2.024-5.599,5.304-5.908,9.22
	c-3.654,1.126-4.314-3.256-7.124-2.897c0.239,9.04-1.04,17.917-2.874,26.733c0.89,7.084,2.372,13.771-2.372,20.779
	c-2.336,3.45-0.848,9.56-0.897,14.468c-0.046,4.721-0.683,9.307-3.366,13.252c-3.843,5.649-6.029,11.565-4.933,18.549
	c0.225,1.433-0.948,3.085-1.477,4.636c0.732,1.491,0.723,2.951-0.188,4.372c1.24,2.567,1.174,5.086-0.272,7.555
	c0.964,4.376-4.438,6.246-4.085,10.38c-1.276,5.467-1.835,11.159-5.051,16.013c0.891,1.42,0.764,2.653-0.672,3.645
	c-1.043,6.164-2.086,12.329-3.129,18.493c0.599,1.34,0.407,2.446-0.952,3.205c-3.649,10.013-6.337,20.143-5.861,31.006
	c0.222,5.076-0.244,9.926-3.762,14.716c-3.197,4.351-2.001,10.855-3.748,16.308c-2.123,6.63-3.648,13.416-7.121,19.559
	c-0.789,1.395-1.48,3.11-1.449,4.663c0.208,10.372-7.221,18.339-8.687,28.153c-11.935,6.707-12.103,21.503-20.881,30.38
	c-0.45,2.317-1.697,4.843-4.016,4.319c-2.915-0.658-3.811-3.68-3.847-6.645c-2.202-1.879-2.545-4.504-2.866-7.138
	c-0.91-0.672-1.06-1.597-0.874-2.633c-1.827-2.47-2.422-5.261-2.155-8.276c-0.16-0.628-0.32-1.256-0.481-1.884
	c-4.315-5.929-5.138-13.03-5.262-19.848c-0.258-14.268-3.735-28.218-3.735-42.439c0-17.765,0.191-35.521,2.075-53.251
	c1.137-10.696,3.293-21.632-2.038-32.138c-1.433-2.825-1.676-6.409-1.867-9.679c-0.51-8.738-4.743-16.276-7.395-24.321
	c-4.229-3.01-5.017-8.307-8.101-12.197c-4.027-5.079-6.103-11.465-11.583-15.787c-4.249-3.351-5.113-9.074-6.459-14.194
	c-0.001,0-0.023,0.077-0.023,0.077c-0.27-0.194-0.696-0.333-0.785-0.59c-3.218-9.304-12.207-13.618-17.946-20.74
	c-1.687-2.094-3.676-1.372-4.86,0.559c-2.862,4.666-6.117,2.437-9.35,0.759c-2.553-1.326-4.241-4.252-7.941-4.162
	c-0.731,1.336-1.349,2.895-2.33,4.178c-2.589,3.389-3.811,6.121,1.669,8.016c2.564,0.886,1.722,3.069,0.425,4.861
	c-1.471,2.031-3.267,3.161-5.915,2.762c-2.142-0.322-3.931-3.089-6.382-1.081c-2.371,1.942-1.039,5.254-2.154,7.269
	c-3.232,5.838-0.257,14.252-7.648,18.233l-0.084,0.017c-1.012,13.603-0.179,27.141,1.148,40.688
	C592.299,244.678,590.802,258.916,591.368,273.062 M721.615,435.056c-0.063-0.033-0.131-0.06-0.19-0.098
	C721.484,434.996,721.552,435.023,721.615,435.056 M721.233,434.807c-0.051-0.041-0.108-0.076-0.155-0.121
	C721.125,434.731,721.182,434.766,721.233,434.807 M718.35,519.679c0.208,0.002,0.422,0.016,0.641,0.045
	C718.772,519.695,718.558,519.681,718.35,519.679 M717.647,490.234C717.647,490.234,717.647,490.235,717.647,490.234
	c-0.499,0.236-1.254,0.359-1.421,0.739C716.393,490.592,717.149,490.47,717.647,490.234"/>
<path fill="#1865AA" d="M199.483,1061.433c0.514,2.249,0.706,4.791,4.057,4.455C202.926,1063.729,201.614,1062.208,199.483,1061.433
	"/>
<path fill="#1865AA" d="M549.478,973.617c0.007-0.004,0.014-0.009,0.021-0.013c0.001-0.014,0.004-0.025,0.005-0.038L549.478,973.617
	"/>
<path fill="#1865AA" d="M569.501,1086.76c-0.627-0.437-1.254-0.874-1.882-1.311C567.803,1086.523,568.414,1086.984,569.501,1086.76"
	/>
<path fill="#1865AA" d="M1463.908,680.525c-4.673,1.045-5.406,5.284-7.566,8.39c-0.073,1.171-0.146,2.342-0.223,3.516
	c4.087,1.403,5.938-2.575,8.966-3.733c0.907-1.71,1.815-3.423,2.724-5.135C1467.153,681.738,1466.869,679.863,1463.908,680.525"/>
<polyline fill="#1865AA" points="531.439,523.441 531.438,523.438 531.431,523.438 531.439,523.441 "/>
<path fill="#1865AA" d="M1026.302,1177.942c-1.402-6.026-1.791-12.292-3.84-18.233c-1.531-4.443-1.806-8.976-0.19-13.531
	c2.783-7.851,2.771-16.151,3.736-24.291c0.264-2.227-0.551-4.692,1.769-6.319c-0.021-5.14-1.057-10.314,0.513-15.402
	c-4.874-2.288-9.676-4.833-15.334-4.355c-0.663,1.187-1.328,2.379-1.993,3.572c1.486,3.491-1.807,7.504,1.182,10.831
	c-3.707,2.025-5.6,5.305-5.909,9.22c-3.653,1.127-4.313-3.256-7.124-2.896c0.239,9.04-1.04,17.916-2.873,26.732
	c0.89,7.084,2.371,13.771-2.373,20.779c-2.336,3.45-0.848,9.56-0.896,14.467c-0.047,4.723-0.684,9.309-3.367,13.253
	c-3.843,5.649-6.029,11.565-4.932,18.55c0.225,1.433-0.949,3.085-1.479,4.635c0.732,1.492,0.724,2.952-0.188,4.373
	c1.24,2.566,1.175,5.086-0.272,7.555c0.964,4.376-4.437,6.246-4.085,10.38c-1.275,5.466-1.834,11.159-5.051,16.014
	c0.891,1.42,0.765,2.652-0.671,3.645c-1.044,6.164-2.087,12.328-3.13,18.493c0.599,1.34,0.406,2.446-0.951,3.205
	c-3.649,10.013-6.338,20.143-5.862,31.006c0.223,5.076-0.244,9.926-3.762,14.715c-3.196,4.353-2.001,10.855-3.748,16.31
	c-2.123,6.63-3.648,13.416-7.121,19.559c-0.789,1.395-1.479,3.11-1.449,4.662c0.208,10.373-7.221,18.34-8.687,28.154
	c-11.936,6.706-12.104,21.502-20.881,30.38c-0.449,2.316-1.697,4.843-4.017,4.318c-2.915-0.658-3.811-3.68-3.847-6.645
	c-2.201-1.879-2.544-4.504-2.866-7.139c-0.91-0.672-1.059-1.597-0.873-2.633c-1.828-2.47-2.423-5.261-2.155-8.276
	c-0.16-0.627-0.32-1.255-0.48-1.884c-4.316-5.929-5.139-13.029-5.262-19.849c-0.26-14.267-3.736-28.217-3.736-42.438
	c0-17.767,0.191-35.521,2.076-53.251c1.137-10.696,3.292-21.633-2.039-32.139c-1.434-2.825-1.675-6.409-1.867-9.68
	c-0.51-8.737-4.743-16.275-7.395-24.32c-4.229-3.01-5.017-8.307-8.102-12.196c-4.026-5.079-6.103-11.466-11.582-15.787
	c-4.249-3.352-5.113-9.074-6.46-14.194c-0.001,0-0.022,0.077-0.022,0.077c-0.27-0.194-0.696-0.334-0.785-0.59
	c-3.218-9.305-12.206-13.618-17.946-20.74c-1.687-2.094-3.675-1.372-4.859,0.559c-2.863,4.666-6.117,2.438-9.351,0.758
	c-2.553-1.324-4.241-4.251-7.941-4.16c-0.73,1.336-1.349,2.895-2.33,4.178c-2.589,3.389-3.811,6.121,1.669,8.016
	c2.564,0.887,1.723,3.069,0.425,4.861c-1.471,2.031-3.267,3.161-5.914,2.762c-2.142-0.322-3.932-3.09-6.383-1.081
	c-2.371,1.942-1.039,5.254-2.154,7.27c-3.231,5.838-0.257,14.252-7.647,18.232l-0.085,0.018c-1.011,13.603-0.179,27.14,1.148,40.688
	c1.387,14.164-0.11,28.402,0.456,42.548c0.606,15.132,1.098,30.383,4.329,45.317c0.558,2.578,1.036,5.235,1.048,7.857
	c0.036,8.05,1.011,15.82,4.81,23.104c3.76,7.208,3.693,15.414,5.485,23.13c3.002,12.922,6.188,25.784,10.702,38.241
	c1.289,3.558,1.427,7.145,2.027,10.667c2.682,15.725,9.514,29.549,18.022,42.796c2.254,3.51,5.797,6.609,5.478,11.43
	c2.423,3.519,7.196,5.073,8.182,9.792c9.267,7.516,16.971,16.456,23.854,26.145c3.57,3.465,7.209,6.823,12.304,7.921
	c1.205,0.325,2.409,0.649,3.613,0.974c1.296,0.154,2.921-0.137,3.83,0.538c5.15,3.825,11.04,2.819,16.771,2.938
	c0,0,0.58,0.369,0.607,0.388c0,0.001-0.001,0.001-0.001,0.002c3.371,3.922,9.564,5.128,10.741,11.159
	c3.311,0.404,6.651,0.755,8.126,4.485c3.271,1.424,7.266,1.677,9.006,5.572c4.083,6.322,9.359,6.97,16.153,4.33
	c8.48-3.293,17.403-5.272,24.391-11.895c1.854-1.757,4.26-2.978,5.12-5.515c1.34-3.952,4.238-6.565,7.206-9.178
	c5.459-7.785,10.576-15.854,18.191-21.845c-0.127-1.71,1.023-2.765,2.001-3.909c-0.232-4.075,0.152-7.875,4.451-9.918
	c2.718-8.606,2.306-16.861-0.433-25.656c-2.375-7.626-3.126-15.311,0.356-24.057c3.959-9.941,5.888-21.714-1.34-32.083
	c-1.209-1.733-2.32-3.847-0.992-5.495c4.467-5.548,2.833-12.834,5.77-18.752c0.28-3.387-0.706-6.862,0.687-10.176
	c-0.204-2.249-0.36-4.504-0.644-6.743c-0.078-0.615-0.751-1.168-0.789-1.771c-0.276-4.458,7.982-6.129,3.426-12.536
	c-2.697-3.792-0.099-8.647,2.141-12.648c0.215-4.098,0.43-8.198,0.645-12.298c-0.662-11.756-3.631-23.559,0.918-35.208
	c0.58-1.484,0.959-3.504,0.425-4.888c-2.252-5.829-5.331-11.38-2.102-17.941c0.516-1.047-1.254-1.871-2.819-1.61
	c-0.652,0.109-3.207,2.304-1.97-0.058c3.847-7.337,1.445-14.73,1.556-22.058c0.134-8.851-0.21-17.703,3.772-25.965
	c-0.581-4.783-1.241-9.573,0.576-14.264c-0.848-1.414-0.747-2.666,0.631-3.699c0.627-3.415-0.816-7.078,1.227-10.327
	C1028.059,1192.257,1027.861,1184.649,1026.302,1177.942 M927.257,1442.679c-0.063-0.033-0.131-0.06-0.19-0.098
	C927.126,1442.619,927.193,1442.646,927.257,1442.679 M926.875,1442.43c-0.052-0.041-0.108-0.076-0.155-0.121
	C926.767,1442.354,926.823,1442.389,926.875,1442.43 M923.289,1497.857L923.289,1497.857c-0.499,0.235-1.254,0.358-1.422,0.738
	C922.035,1498.215,922.791,1498.093,923.289,1497.857 M923.992,1527.302c0.207,0.001,0.422,0.017,0.641,0.045
	C924.414,1527.318,924.199,1527.303,923.992,1527.302"/>
</svg>
