<?xml version="1.0" encoding="utf-8"?>
<!-- Generator: Adobe Illustrator 16.0.0, SVG Export Plug-In . SVG Version: 6.00 Build 0)  -->
<!DOCTYPE svg PUBLIC "-//W3C//DTD SVG 1.1//EN" "http://www.w3.org/Graphics/SVG/1.1/DTD/svg11.dtd">
<svg version="1.1" id="Layer_1" xmlns="http://www.w3.org/2000/svg" xmlns:xlink="http://www.w3.org/1999/xlink" x="0px" y="0px"
	 width="200px" height="180px" viewBox="0 0 200 180" enable-background="new 0 0 200 180" xml:space="preserve">
<g>
	<path fill-rule="evenodd" clip-rule="evenodd" fill="#255593" d="M166.542,67.003L146.87,53.726
		c1.882-1.139,3.457-2.636,4.402-4.205c-7.082-0.421-10.534-1.818-16.076-3.665L100.963,22.78c-0.609-0.415-1.396-0.381-1.976,0.02
		L64.784,45.855c-5.522,1.847-8.975,3.244-16.058,3.665c0.887,1.619,2.556,3.081,4.434,4.19L33.358,67.053
		c-0.48,0.337-0.753,0.882-0.753,1.446v12.976c0,0.962,0.788,1.734,1.734,1.734c0.966,0,1.732-0.772,1.732-1.734v-12.06
		l20.827-14.036c0.837,0.243,1.609,0.388,2.297,0.417c-2.792,2.892-3.932,7.854-3.272,11.693c1.911-2.571,5.136-4.512,8.588-6.009
		c22.787-9.008,48.204-9.008,70.957,0c3.473,1.497,6.681,3.438,8.593,6.009c0.674-3.839-0.48-8.802-3.259-11.693
		c0.753-0.065,1.525-0.223,2.264-0.432l20.841,14.051v12.06c0,0.962,0.788,1.734,1.754,1.734c0.945,0,1.733-0.772,1.733-1.734
		V68.499C167.395,67.875,167.057,67.311,166.542,67.003 M99.66,24.212c0.193-0.129,0.451-0.144,0.66-0.015L130.125,44.3
		c-1.139-0.322-2.283-0.608-3.423-0.901L99.997,25.386L73.233,43.434c-1.14,0.287-2.283,0.579-3.408,0.896L99.66,24.212z
		 M35.306,69.015v12.46c0,0.318-0.258,0.575-0.58,0.575c-0.307,0-0.579-0.257-0.579-0.575V68.708c0-0.193,0.099-0.368,0.258-0.481
		L54.7,54.527c0.436,0.208,0.852,0.386,1.269,0.529L35.306,69.015z M78.275,56.117c-1.654,0.372-3.195-0.45-3.681-2.535
		c-0.287-1.253-0.416-3.388,0.629-3.631c0.738-0.158,1.541,0.658,1.669,1.188c0.095,0.436-0.029,0.803-0.286,1.287
		c0.381,0.897,1.252,1.362,1.733,1.248c0.207-0.043,0.416-0.223,0.336-0.574c-0.257-1.094-2.055-3.372-2.362-4.674
		c-0.401-1.784,0.738-3.34,2.665-3.775c1.237-0.287,2.074,0.084,2.298,1.095c0.113,0.45,0.015,0.932-0.179,1.253
		c-0.431-0.084-0.832-0.084-1.184,0c-0.436,0.095-0.644,0.288-0.55,0.659c0.208,0.945,1.817,2.437,2.17,3.962
		C82.128,54.19,80.167,55.686,78.275,56.117 M124.919,47.559c-0.366-0.223-0.737-0.386-1.089-0.45
		c-0.451-0.064-0.708,0.02-0.772,0.4c-0.159,0.966,0.737,2.942,0.485,4.498c-0.466,2.599-2.843,3.214-4.755,2.892
		c-1.367-0.242-2.328-1.202-2.457-2.698c-1.352,0.966-3.065,1.688-4.481,1.54c-1.654-0.158-2.521-1.06-2.714-2.565
		c-1.268,1.169-2.973,2.185-4.398,2.149c-1.684-0.05-2.57-0.916-2.843-2.422c-0.179,0.188-0.367,0.381-0.544,0.574
		c-0.981,0.95-2.105,1.704-3.022,1.733c-0.882,0.05-1.426-0.208-1.476-1.332c-0.015-0.303,0-0.675,0.064-1.14
		c-0.946,2.025-2.233,2.987-3.194,3.036c-1.288,0.064-1.625-0.658-1.689-1.977c0-0.094,0.021-0.241,0.035-0.366
		c-0.966,1.218-2.185,2.328-2.986,2.437c-0.946,0.129-1.605-0.172-1.783-1.555c-0.034-0.228-0.05-0.516-0.05-0.837
		c-0.416,2.041-1.347,2.714-2.084,2.813c-1.239,0.158-2.265-0.724-2.542-2.686c-0.431-3.223,1.783-6.953,3.938-7.24
		c0.303-0.049,0.466-0.015,0.58,0.064l-0.099-1.237c0.143-0.224,0.4-0.353,0.707-0.401c1.476-0.174,2.393,0.693,2.502,1.461
		c0.034,0.257,0.034,0.822-0.06,1.445c-0.387,2.809-0.486,4.19-0.406,4.755c0.05,0.431,0.148,0.48,0.321,0.466
		c0.422-0.064,1.382-0.98,2.442-2.958c-0.064-0.271-0.114-0.559-0.129-0.815c-0.064-1.349,1.911-3.874,3.422-3.934
		c0.674-0.034,1.061,0.159,1.09,0.817c0.035,0.688-0.48,2.021-1.511,3.868c-0.173,0.787-0.272,1.446-0.252,1.798
		c0.015,0.337,0.144,0.551,0.445,0.53c0.371-0.015,1.045-0.56,1.446-1.041c0.644-2.376,0.882-3.902,0.901-5.764
		c0.208-0.308,0.575-0.437,0.896-0.451c1.203-0.064,2.14,0.773,2.185,1.654c0.015,0.387-0.045,0.833-0.338,1.719
		c-0.4,1.252-1.218,3.308-1.203,3.725c0.015,0.272,0.144,0.336,0.322,0.321c0.401-0.015,1.154-0.643,2.12-1.96
		c0.58-2.889,2.986-5.41,5.026-5.346c1.491,0.03,2.199,0.833,2.165,2.164c-0.045,1.383-1.04,2.457-2.086,2.428
		c-0.48,0-0.771-0.179-0.931-0.436c0.173-0.574,0.257-1.074,0.257-1.363c0.016-0.291-0.147-0.45-0.257-0.465
		c-0.421,0-1.224,1.362-1.288,3.547c-0.029,1.188,0.277,1.689,1.125,1.704c0.98,0.028,2.263-0.738,3.373-1.962
		c0.772-2.824,3.308-5.215,5.154-5.021c1.512,0.123,2.25,0.931,2.105,2.436c-0.178,1.818-1.367,3.116-4.383,3.502
		c-0.1,0.98,0.045,1.525,0.882,1.604c1.075,0.114,2.441-0.43,3.646-1.41c0.351-0.996,0.896-1.897,1.619-1.769
		c0.737,0.129,1.174,1.189,1.079,1.719c-0.084,0.451-0.321,0.737-0.757,1.095c0.015,0.962,0.608,1.734,1.108,1.813
		c0.208,0.034,0.48-0.049,0.53-0.416c0.193-1.095-0.594-3.887-0.371-5.221c0.321-1.783,1.991-2.777,3.938-2.441
		c1.232,0.214,1.862,0.868,1.684,1.897C125.484,46.95,125.227,47.351,124.919,47.559 M75.383,42.918l24.614-16.601l24.556,16.572
		C108.269,39.145,91.682,39.194,75.383,42.918 M165.834,81.475c0,0.318-0.252,0.575-0.56,0.575c-0.322,0-0.594-0.257-0.594-0.575
		v-12.46l-20.648-13.938c0.445-0.148,0.866-0.342,1.282-0.529l20.247,13.664c0.178,0.094,0.272,0.272,0.272,0.496V81.475z"/>
	<path fill-rule="evenodd" clip-rule="evenodd" fill="#255593" d="M165.661,96.774c-0.966,0-1.754,0.787-1.754,1.753v12.061
		l-20.841,14.051c-0.738-0.214-1.511-0.372-2.264-0.451c2.778-2.873,3.933-7.835,3.259-11.674c-1.912,2.57-5.12,4.497-8.593,6.004
		c-10.866,4.288-22.352,6.521-33.847,6.715c-0.207,0.496-0.624,1.154-1.382,2.021c-0.852-0.015-1.445-0.673-1.396-1.927
		c0-0.03,0.015-0.048,0.015-0.079c-11.674-0.144-23.313-2.362-34.347-6.729c-3.452-1.507-6.677-3.434-8.588-6.004
		c-0.659,3.839,0.48,8.801,3.272,11.674c-0.688,0.029-1.46,0.192-2.297,0.43l-20.827-14.029V98.527c0-0.966-0.767-1.753-1.732-1.753
		c-0.946,0-1.734,0.787-1.734,1.753v12.977c0,0.623,0.337,1.184,0.837,1.491l19.718,13.297c-1.878,1.104-3.547,2.566-4.434,4.176
		c7.083,0.431,10.535,1.827,16.058,3.66l34.237,23.089c0.624,0.417,1.396,0.387,1.977-0.014l34.198-23.075
		c5.542-1.833,8.994-3.229,16.076-3.66c-0.945-1.576-2.521-3.051-4.402-4.21l19.751-13.313c0.5-0.336,0.773-0.882,0.773-1.44V98.527
		C167.395,97.562,166.606,96.774,165.661,96.774 M113.266,127.511c0.545-0.064,1.268,0.094,1.377,0.802
		c0.193-0.243,0.372-0.352,0.723-0.386c0.867-0.109,1.446,0.996,1.561,1.976c0.129,1.031,0.015,1.897-0.293,3.131
		c0.065,0.05,0.229,0.129,0.451,0.114c0.629-0.094,1.175-0.659,1.754-1.878c0.094-0.021,0.188,0,0.287,0.015
		c-0.193-0.321-0.322-0.673-0.401-0.995c-0.307-1.237,1.045-3.917,2.343-4.239c0.723-0.178,0.966,0.029,1.124,0.674
		c0.129,0.515,0.208,2.07-0.113,3.229c0.9-3.021,2.119-4.32,3.056-4.563c0.961-0.223,1.604,0.288,1.813,1.11
		c0.129,0.559,0.144,1.347-0.064,2.455c-0.144,1.026-0.451,2.68-0.322,3.21c0.064,0.242,0.179,0.307,0.372,0.242
		c0.416-0.098,1.49-1.495,2.327-3.693c0.417-0.095,0.896,0.079,0.996,0.499c0.322,1.333-2.362,5.766-4.304,6.231
		c-1.238,0.302-1.799-0.13-2.07-1.303c-0.357-1.382,0.208-3.773,0.094-4.24c-0.049-0.157-0.144-0.242-0.322-0.192
		c-0.193,0.05-0.802,0.529-1.347,1.882c0.094,1.685,0.208,2.665,0.495,4.11c-0.159,0.272-0.287,0.367-0.783,0.481
		c-1.173,0.287-2.313-0.609-2.635-1.883c-0.063-0.237-0.099-0.529-0.113-0.782c-0.515,0.817-1.348,1.604-2.422,1.748
		c-0.387,0.029-0.629,0-0.887-0.129c-0.866,1.525-1.911,2.457-3.417,2.62c-1.525,0.188-2.858-0.679-3.101-2.778
		C109.007,131.398,110.982,127.798,113.266,127.511 M124.553,137.114l-24.556,16.557l-24.614-16.592
		C91.682,140.809,108.269,140.854,124.553,137.114 M69.796,131.284c0.193-0.787,0.723-1.813,1.332-2.699
		c-0.079-0.431,0.016-0.932,0.129-1.361c0.322-1.224,2.393-2.348,3.71-2.011c0.608,0.163,0.837,0.485,0.673,1.124
		c-0.143,0.515-0.479,1.224-1.282,2.199c2.229-2.244,3.437-2.581,4.368-2.342c0.783,0.207,1.09,0.865,0.911,1.559
		c-0.144,0.545-0.287,1.026-1.06,1.893c2.397-2.135,3.774-2.729,4.704-2.486c0.967,0.258,1.239,1.104,1.03,1.926
		c-0.144,0.546-0.515,1.233-1.123,2.021c-0.63,0.821-1.942,2.427-2.071,2.957c-0.064,0.223,0.015,0.336,0.208,0.387
		c0.387,0.107,2.006-0.645,3.982-2.313c0.05,0,0.095,0.029,0.144,0.044c1.046-2.392,3.294-4.283,4.993-4.091
		c0.307,0.03,0.45,0.079,0.55,0.208l0.192-1.253c0.208-0.178,0.495-0.223,0.803-0.193c1.461,0.159,2.149,1.238,2.07,1.992
		c-0.035,0.287-0.164,0.802-0.401,1.396c-1.061,2.635-1.476,3.968-1.54,4.527c-0.05,0.436,0.029,0.5,0.207,0.529
		c0.432,0.035,1.635-0.653,3.225-2.438c0.035,0,0.064,0.016,0.085,0.016c-0.035-0.256-0.035-0.515-0.035-0.752
		c0.05-1.273,2.056-3.502,3.388-3.457c1.01,0.05,1.074,0.58,1.045,1.431c-0.015,0.56-0.416,1.461-0.837,2.362
		c-0.658,1.477-0.961,2.164-0.977,2.65c0,0.238,0.095,0.337,0.303,0.337c0.243,0.015,0.966-0.437,2.056-1.719
		c0.163-0.887,0.516-1.669,1.158-1.688c0.753-0.03,1.397,0.931,1.412,1.48c0.015,0.445-0.158,0.782-0.515,1.203
		c0.192,0.945,0.95,1.57,1.461,1.556c0.208,0,0.451-0.144,0.436-0.516c-0.035-1.104-1.382-3.689-1.432-5.043
		c-0.044-1.812,1.383-3.114,3.358-3.179c1.269-0.044,2.021,0.485,2.055,1.526c0,0.45-0.178,0.901-0.415,1.173
		c-0.437-0.157-0.823-0.238-1.174-0.223c-0.451,0.015-0.693,0.159-0.674,0.545c0.03,0.98,1.332,2.743,1.382,4.318
		c0.079,2.62-2.12,3.711-4.081,3.789c-1.496,0.051-2.729-0.832-3.035-2.535c-1.22,1.237-2.844,2.343-3.969,2.313
		c-1.282-0.034-1.684-0.63-1.653-1.813c0.02-0.402,0.084-0.822,0.192-1.254c-1.331,1.318-3.432,2.65-4.462,2.536
		c-0.945-0.1-1.511-0.545-1.367-1.927c0.034-0.242,0.084-0.529,0.163-0.852c-0.916,1.897-1.961,2.327-2.714,2.249
		c-1.188-0.129-1.976-1.203-1.813-3.065c-1.575,1.316-4.468,2.743-5.879,2.377c-1.238-0.321-1.525-0.981-1.219-2.141
		c0.367-1.381,2.264-3.56,2.373-4.011c0.034-0.178-0.016-0.292-0.193-0.322c-0.188-0.049-1.025,0.208-2.149,1.124
		c-0.708,1.541-1.218,2.649-1.669,4.061c-0.258,0.165-0.465,0.229-0.917,0.1c-1.173-0.291-1.847-0.98-1.539-2.248
		c0.207-0.803,0.866-1.962,1.51-2.857c0.288-0.436,0.595-0.867,0.654-1.08c0.049-0.173-0.03-0.271-0.188-0.317
		c-0.193-0.05-0.772,0.145-1.897,1.06c-0.708,1.541-1.203,2.665-1.64,4.077c-0.257,0.158-0.43,0.193-0.91,0.064
		c-0.1-0.03-0.179-0.079-0.277-0.114l-0.561-0.387C69.811,133.147,69.573,132.201,69.796,131.284 M34.438,111.791
		c-0.179-0.099-0.292-0.287-0.292-0.499V98.527c0-0.322,0.272-0.58,0.579-0.58c0.322,0,0.58,0.258,0.58,0.58v12.461l20.663,13.937
		c-0.417,0.159-0.833,0.337-1.269,0.53L34.438,111.791z M100.34,155.786c-0.213,0.129-0.451,0.147-0.659,0l-29.855-20.119
		c1.125,0.308,2.249,0.61,3.393,0.882l26.779,18.067l26.705-18.017c1.14-0.288,2.284-0.58,3.423-0.897L100.34,155.786z
		 M165.834,111.292L165.834,111.292c0,0.191-0.079,0.369-0.252,0.484l-20.268,13.664c-0.416-0.179-0.837-0.372-1.282-0.53
		l20.648-13.922V98.527c0-0.322,0.271-0.58,0.594-0.58c0.308,0,0.56,0.258,0.56,0.58V111.292z"/>
	<path fill-rule="evenodd" clip-rule="evenodd" fill="#255593" d="M114.099,46.643c0.049-0.465-0.114-0.737-0.367-0.769
		c-0.293-0.019-0.951,0.66-1.238,2.15C113.711,47.931,114.033,47.287,114.099,46.643"/>
	<path fill-rule="evenodd" clip-rule="evenodd" fill="#255593" d="M85.659,50.259c0.114,0.802,0.386,0.852,0.674,0.802
		c0.307-0.035,0.579-0.287,0.787-0.645l0.1-4.561C86.239,46.678,85.437,48.604,85.659,50.259"/>
	<path fill-rule="evenodd" clip-rule="evenodd" fill="#255593" d="M88.631,134.543c0.308,0.035,0.624-0.158,0.916-0.45l1.189-4.412
		c-1.159,0.574-2.393,2.247-2.571,3.917C88.087,134.385,88.323,134.514,88.631,134.543"/>
	<path fill-rule="evenodd" clip-rule="evenodd" fill="#255593" d="M113.33,135.073c0.53-0.064,0.976-0.623,1.248-1.639
		c-0.252-0.64-0.381-1.269-0.465-1.843c-0.08-0.723-0.08-1.896,0.178-2.555c-1.268,0.787-2.104,3.001-1.896,4.769
		C112.522,134.865,112.944,135.123,113.33,135.073"/>
	<path fill="#255593" d="M142.442,74.938c-0.049-0.387-0.164-0.773-0.356-1.124c-0.724-0.608-1.685-0.931-2.665-0.738
		c-2.664,0.495-5.105,1.798-6.81,3.982c-1.525,1.961-2.343,4.27-2.902,6.667c-0.723,3.08-0.821,6.26-1.095,9.423
		c-0.144,1.526-0.431,3.032-0.495,4.563c-0.049,1.055,0.108,8.604-2.556,6.34c-1.188-0.996-1.075-3.468-1.075-4.814
		c-0.033-5.141-0.644-10.263-0.693-15.402c-0.015-2.313-0.094-4.621-0.416-6.904c-0.223-1.605-0.579-3.194-1.089-4.721
		c-0.193-0.563-0.437-1.123-0.723-1.653c-0.179-0.337-0.372-0.689-0.58-1.045c-0.144-0.129-0.272-0.257-0.416-0.401
		c-1.332-1.348-3.278-1.848-5.106-1.748c-2.199,0.108-4.21,1.331-5.671,2.887c-1.283,1.353-2.135,3.215-2.648,5.013
		c-0.561,1.941-0.962,3.902-1.189,5.894c-0.208,1.862-0.416,3.738-0.416,5.622c0,2.663,0.192,5.327,0.208,8.009
		c-0.016,1.653-0.193,3.263-0.416,4.882c-0.258,1.783-0.372,4.834-1.798,6.137c-1.496,1.361-2.923-0.501-3.695-1.768
		c-0.945-1.784-1.654-3.759-2.199-5.701c-0.099-0.401-0.178-0.802-0.257-1.203c-0.466-2.457-0.624-4.947-0.803-7.454
		c-0.113-1.412-0.179-2.837-0.193-4.27c-0.063-3.209-0.079-6.472-0.688-9.633c-0.321-1.689-0.723-3.471-1.575-4.978
		c-0.207-0.401-0.435-0.822-0.673-1.224c-0.164-0.158-0.322-0.302-0.466-0.465c-0.659-0.674-1.496-1.154-2.348-1.556
		c-1.911-0.886-4.269-1.158-6.23-0.257c-1.125,0.515-1.906,1.139-2.743,2.006c-0.659,0.673-1.11,1.476-1.576,2.278
		c-0.723,1.238-1.188,2.604-1.555,3.968c-0.45,1.573-0.821,3.134-1.094,4.739c-0.917,5.17-0.095,10.435-0.045,15.655
		c-0.035,2.744,0.381,7.162-0.917,9.667c-1.124,2.12-2.218-1.495-2.505-2.698c-0.58-2.457-0.773-4.993-1.11-7.5
		c-0.495-3.759-0.866-7.547-1.49-11.307c-0.208-1.282-0.466-2.565-0.788-3.838c-0.416-1.62-0.851-3.288-1.668-4.765
		c-0.273-0.501-0.58-0.98-0.902-1.446c-0.644-0.673-1.396-1.237-2.328-1.574c-1.045-0.371-2.198-0.579-3.308-0.353
		c-1.303,0.272-2.344,0.739-3.452,1.462c-1.432,0.96-1.769,2.951-1.045,4.433c0.594,1.219,2.184,0.382,3.021,0.382
		c2.313,0,3.194,2.476,3.689,4.289c0.229,0.916,0.422,1.832,0.58,2.763c0.758,4.319,1.224,8.667,1.753,13.021
		c0.193,1.654,0.353,3.309,0.659,4.948c0.353,1.941,0.782,3.997,1.714,5.765c0.277,0.481,0.515,0.977,0.837,1.44
		c0.179,0.194,0.352,0.387,0.545,0.565c0.658,0.658,1.51,1.188,2.377,1.555c1.941,0.809,3.981,0.63,5.765-0.511
		c1.254-0.786,2.155-2.232,2.715-3.565c0.579-1.381,0.945-2.872,1.218-4.332c0.421-2.313,0.579-4.662,0.659-7.004
		c0.049-1.813,0.084-3.616,0-5.429c-0.08-2.44-0.272-4.883-0.287-7.319c0.049-2.67,0.415-5.284,1.074-7.87
		c0.258-0.966,0.802-3.402,1.961-3.774c1.813-0.579,2.973,2.699,3.274,3.952c0.673,2.888,0.787,5.924,0.837,8.896
		c0.064,3.353,0.208,6.661,0.56,10.004c0.258,2.65,0.772,5.235,1.64,7.757c0.495,1.441,1.01,2.887,1.718,4.254
		c0.417,0.802,0.882,1.62,1.427,2.393c0.451,0.495,0.951,0.916,1.511,1.268c1.094,0.658,2.283,1.269,3.58,1.269
		c1.397,0.014,2.729-0.129,3.982-0.788c1.253-0.657,2.313-1.412,3.215-2.521c0.723-0.868,1.297-1.878,1.763-2.908
		c0.803-1.876,1.253-3.947,1.561-5.973c0.321-2.055,0.608-4.125,0.608-6.195c0-2.7-0.192-5.38-0.223-8.063
		c0.016-1.734,0.209-3.467,0.401-5.186c0.193-1.749,0.158-3.61,0.803-5.285c0.688-1.777,3.13-3.303,3.967-0.673
		c0.847,2.6,0.832,6.122,0.911,8.851c0.034,1.332,0.034,2.665,0.065,3.997c0.098,2.699,0.291,5.378,0.436,8.078
		c0.079,1.347,0.158,2.693,0.193,4.046c0.029,0.995,0,1.991,0.064,2.987c0.093,1.217,0.302,2.52,0.831,3.63
		c0.213,0.43,0.466,0.882,0.743,1.297c0.317,0.321,0.674,0.61,1.04,0.837c1.238,0.725,2.506,1.348,3.981,1.412
		c1.382,0.064,2.829-0.05,4.066-0.688c0.64-0.338,1.283-0.66,1.798-1.16c0.337-0.337,0.723-0.659,1.011-1.04
		c0.287-0.387,0.529-0.822,0.787-1.254c0.609-1.045,0.916-2.297,1.125-3.485c0.336-2.021,0.237-4.076,0.4-6.117
		c0.129-1.447,0.387-2.893,0.496-4.338c0.257-3.002,0.386-6.053,1.108-8.989c0.803-2.601,1.525-3.15,3.839-4.354
		C141.283,78.023,142.715,76.964,142.442,74.938 M62.313,78.47l-1.124-0.224c-0.367-0.064-0.724-0.129-1.11-0.194
		c-0.381-0.049-0.768-0.093-1.247-0.143c0.123-0.208,0.316-0.352,0.51-0.48c0.208-0.128,0.436-0.228,0.658-0.293
		c0.466-0.128,0.951-0.128,1.397-0.043c0.465,0.079,0.901,0.252,1.287,0.509c0.381,0.272,0.723,0.595,0.912,1.045
		C63.114,78.617,62.714,78.534,62.313,78.47 M64.977,80.816c-0.044,0.094-0.094,0.192-0.208,0.258c-0.144-0.021-0.223-0.021-0.302,0
		c-0.099,0.015-0.148,0.015-0.213,0.015c-0.095,0-0.174-0.035-0.237-0.1c-0.051-0.064-0.1-0.173-0.079-0.316
		c0-0.084,0-0.164,0.044-0.258c0.02-0.034,0.035-0.084,0.064-0.128c0.034-0.021,0.049-0.05,0.064-0.064l0.064-0.064h0.099
		c0.015,0,0.045,0,0.079-0.015h0.064c0.03,0,0.05,0,0.064,0c0.08-0.021,0.144-0.021,0.193-0.021c0.129,0,0.192,0.035,0.258,0.114
		c0.063,0.064,0.094,0.178,0.094,0.336C65.026,80.639,65.012,80.738,64.977,80.816 M65.491,83.575
		c-0.093-0.015-0.143-0.03-0.192-0.044c-0.113-0.035-0.178-0.085-0.208-0.164c-0.05-0.079-0.05-0.193-0.015-0.322
		c0.029-0.064,0.064-0.143,0.109-0.223c0.034-0.03,0.063-0.08,0.099-0.113c0.015-0.015,0.029-0.03,0.064-0.046l0.079-0.063
		l0.099,0.03c0.03,0,0.045,0,0.079,0c0.045,0.014,0.079,0.014,0.13,0.014c0.093,0.02,0.143,0.035,0.207,0.051
		c0.114,0.033,0.174,0.098,0.224,0.193c0.034,0.078,0.05,0.207,0,0.351c-0.015,0.085-0.064,0.144-0.109,0.229
		c-0.064,0.078-0.148,0.158-0.277,0.192C65.65,83.625,65.571,83.596,65.491,83.575 M66.729,90.42
		c-0.242-0.421-0.386-0.808-0.5-1.208c-0.128-0.401-0.192-0.783-0.257-1.189c-0.045-0.401-0.064-0.803-0.045-1.218
		c0.015-0.416,0.045-0.853,0.208-1.317c0.322,0.371,0.529,0.757,0.703,1.139c0.149,0.401,0.259,0.822,0.322,1.238
		c0.05,0.415,0.05,0.852,0,1.282C67.082,89.583,66.988,90.014,66.729,90.42 M71.817,108.066c-0.446-0.594-0.783-1.303-0.996-2.026
		c-0.208-0.723-0.303-1.461-0.253-2.213c0.015-0.372,0.064-0.737,0.144-1.094c0.095-0.368,0.208-0.724,0.366-1.061
		c0.1,0.371,0.149,0.724,0.229,1.078c0.044,0.339,0.109,0.675,0.173,1.012c0.149,0.674,0.293,1.317,0.486,1.956
		c0.172,0.645,0.4,1.268,0.639,1.883c0.148,0.301,0.271,0.623,0.435,0.931c0.145,0.321,0.303,0.639,0.467,0.979
		C72.832,109.19,72.268,108.675,71.817,108.066 M75.977,110.761c-0.015,0.085-0.029,0.129-0.064,0.192
		c-0.063,0.114-0.158,0.179-0.321,0.193c-0.064,0.015-0.158,0-0.272-0.029c-0.095-0.035-0.193-0.1-0.258-0.208
		c-0.079-0.1-0.094-0.193-0.079-0.307c0.015-0.095,0.064-0.194,0.179-0.272c0.128-0.015,0.223-0.035,0.286-0.064
		c0.064-0.035,0.1-0.079,0.1-0.129c0.015-0.064-0.02-0.1-0.035-0.129c-0.014-0.015-0.029-0.03-0.029-0.03
		c0.016,0,0.079,0.03,0.174,0.095c0.049,0.029,0.113,0.064,0.163,0.129c0.064,0.064,0.129,0.129,0.208,0.243
		C76.012,110.588,75.992,110.667,75.977,110.761 M78.498,97.819c0.079-0.145,0.208-0.302,0.466-0.401
		c0.242,0.164,0.356,0.272,0.45,0.372c0.095,0.108,0.144,0.208,0.158,0.321c0.021,0.108,0,0.237-0.063,0.366
		c-0.08,0.145-0.174,0.287-0.382,0.467c-0.258-0.081-0.421-0.18-0.53-0.288c-0.114-0.114-0.178-0.243-0.193-0.387
		C78.389,98.126,78.403,97.962,78.498,97.819 M79.543,106.363c-0.193,0.723-0.5,1.431-0.932,2.04
		c-0.436,0.624-0.98,1.154-1.639,1.525c0.144-0.356,0.307-0.674,0.436-0.996c0.144-0.322,0.271-0.644,0.386-0.966
		c0.238-0.624,0.446-1.267,0.609-1.911c0.174-0.64,0.322-1.298,0.451-1.972c0.064-0.336,0.124-0.693,0.188-1.03
		c0.063-0.352,0.129-0.708,0.228-1.074c0.158,0.336,0.272,0.688,0.352,1.06c0.099,0.352,0.129,0.724,0.163,1.09
		C79.815,104.887,79.736,105.64,79.543,106.363 M83.01,72.193c-0.321,0.417-0.624,0.833-0.916,1.254
		c-0.287,0.416-0.575,0.831-0.848,1.282c-0.292,0.432-0.564,0.896-0.916,1.397c-0.129-0.596-0.079-1.189,0.064-1.749
		c0.144-0.579,0.387-1.125,0.723-1.609c0.337-0.495,0.753-0.912,1.254-1.253c0.479-0.317,1.01-0.575,1.619-0.675
		C83.653,71.356,83.316,71.773,83.01,72.193 M86.031,70.54c-0.064,0.108-0.144,0.158-0.208,0.158
		c-0.064,0.014-0.148-0.015-0.228-0.079c-0.03-0.05-0.08-0.1-0.13-0.158c-0.015-0.035-0.044-0.065-0.079-0.1l-0.049-0.064
		l-0.064-0.079l0.02-0.1v-0.079c0-0.05,0.029-0.079,0.029-0.129c0.035-0.094,0.064-0.157,0.1-0.207
		c0.064-0.095,0.158-0.159,0.237-0.179c0.079,0,0.164,0.02,0.243,0.114c0.079,0.064,0.158,0.178,0.287,0.4
		C86.175,70.312,86.11,70.44,86.031,70.54 M91.088,70.862c-0.366-0.114-0.708-0.229-1.061-0.357
		c-0.337-0.109-0.688-0.208-1.045-0.336c-0.366-0.114-0.737-0.209-1.188-0.368c0.357-0.341,0.807-0.484,1.253-0.548
		c0.466-0.065,0.916,0,1.353,0.147c0.431,0.124,0.832,0.367,1.169,0.654c0.337,0.307,0.614,0.657,0.757,1.108
		C91.86,71.099,91.475,70.971,91.088,70.862 M97.625,102.653c-0.307,0-0.549-0.114-0.758-0.273
		c-0.173-0.144-0.337-0.351-0.416-0.578c-0.079-0.224-0.114-0.467-0.079-0.704c0.029-0.257,0.129-0.5,0.352-0.723
		c0.272,0.193,0.416,0.366,0.545,0.51c0.129,0.163,0.208,0.321,0.272,0.485c0.064,0.158,0.114,0.337,0.129,0.545
		C97.689,102.122,97.704,102.346,97.625,102.653 M100.448,108.353c-0.451-0.286-0.816-0.658-1.124-1.089
		c-0.303-0.436-0.545-0.9-0.674-1.416c-0.129-0.495-0.178-1.025-0.05-1.556c0.356,0.416,0.629,0.802,0.901,1.17
		c0.272,0.386,0.516,0.758,0.773,1.108c0.272,0.372,0.529,0.724,0.802,1.095c0.273,0.366,0.56,0.753,0.853,1.203
		C101.38,108.835,100.884,108.627,100.448,108.353 M105.044,109.572c-0.099,0.085-0.228,0.149-0.321,0.179
		c-0.099,0.014-0.164,0.033-0.229,0.014c-0.063,0-0.108-0.028-0.158-0.063c-0.099-0.044-0.228-0.144-0.466-0.253
		c-0.049-0.277,0.05-0.485,0.179-0.629c0.144-0.13,0.303-0.192,0.352-0.209c0.016-0.014,0.016,0,0.016,0.031
		c0.015,0.019,0.034,0.048,0.078,0.048c0.1,0.035,0.258-0.015,0.53-0.048c0.193,0.193,0.258,0.386,0.208,0.613
		C105.218,109.364,105.139,109.479,105.044,109.572 M108.096,103.599c-0.149,0.659-0.371,1.288-0.693,1.863
		c-0.303,0.594-0.709,1.144-1.239,1.574c0.115-0.673,0.243-1.283,0.372-1.892l0.401-1.798c0.129-0.596,0.257-1.189,0.4-1.803
		c0.164-0.61,0.308-1.219,0.531-1.863c0.271,0.645,0.37,1.304,0.4,1.962C108.304,102.301,108.219,102.96,108.096,103.599
		 M113.519,70.826c-0.64,0.337-1.268,0.709-1.862,1.124c-0.594,0.417-1.153,0.868-1.699,1.368c-0.564,0.495-1.079,1.025-1.639,1.604
		c0.05-0.401,0.179-0.788,0.337-1.159c0.158-0.366,0.371-0.719,0.594-1.06c0.48-0.658,1.075-1.248,1.733-1.714
		c0.674-0.471,1.432-0.837,2.219-1.03c0.401-0.095,0.803-0.159,1.204-0.178c0.416,0,0.816,0.034,1.218,0.147
		C114.871,70.203,114.178,70.49,113.519,70.826 M119.834,72.432c-0.258-0.208-0.501-0.432-0.724-0.658
		c-0.243-0.238-0.45-0.467-0.658-0.724c-0.209-0.253-0.437-0.51-0.693-0.867c0.436-0.108,0.836-0.029,1.208,0.114
		c0.366,0.144,0.703,0.372,0.976,0.644c0.272,0.272,0.485,0.595,0.644,0.946c0.144,0.353,0.242,0.739,0.193,1.173
		C120.393,72.868,120.105,72.659,119.834,72.432 M121.101,75.26c-0.079,0-0.128-0.016-0.144-0.051
		c-0.034-0.048-0.034-0.129,0.03-0.257c0.049-0.094,0.144-0.237,0.387-0.352c0.258,0.029,0.365,0.015,0.479,0.029
		c0.099,0,0.163,0.035,0.179,0.114c0.029,0.079,0.045,0.179-0.016,0.321c-0.083,0.129-0.213,0.258-0.465,0.272
		C121.324,75.244,121.195,75.26,121.101,75.26 M122.785,79.786c-0.05,0.293-0.158,0.565-0.387,0.837
		c-0.272-0.242-0.401-0.479-0.53-0.723c-0.108-0.243-0.192-0.48-0.222-0.724c-0.05-0.241-0.064-0.516-0.015-0.771
		c0.029-0.273,0.093-0.546,0.286-0.848c0.288,0.188,0.466,0.431,0.609,0.674c0.144,0.238,0.228,0.479,0.272,0.753
		C122.85,79.242,122.85,79.515,122.785,79.786 M125.133,107.58c-0.485-0.157-0.901-0.444-1.238-0.816
		c-0.322-0.367-0.564-0.817-0.674-1.302c-0.113-0.466-0.113-0.947,0.064-1.427c0.322,0.401,0.545,0.737,0.787,1.059
		c0.223,0.322,0.466,0.61,0.704,0.883c0.242,0.272,0.5,0.53,0.787,0.787c0.307,0.272,0.624,0.53,0.995,0.853
		C126.094,107.773,125.578,107.729,125.133,107.58 M129.179,106.878c-0.113,0.193-0.257,0.286-0.42,0.322
		c-0.145,0.044-0.288,0.044-0.432-0.05c-0.084-0.035-0.144-0.079-0.208-0.164c-0.034-0.029-0.064-0.079-0.1-0.123
		c0-0.035-0.014-0.05-0.029-0.085c-0.02-0.029-0.02-0.063-0.034-0.093c0.034-0.036,0.05-0.051,0.063-0.08
		c0.016-0.02,0.016-0.05,0.035-0.085l0.08-0.108c0.049-0.063,0.078-0.128,0.108-0.178c0.084-0.096,0.128-0.144,0.192-0.159
		c0.064-0.02,0.114,0,0.194,0.045c0.034,0.035,0.063,0.064,0.143,0.114c0.035,0.015,0.085,0.015,0.129,0.034c0.021,0,0.05,0,0.064,0
		c0.035,0,0.064-0.02,0.1-0.02c0.029,0.02,0.049,0.035,0.078,0.05c0.035,0.033,0.05,0.05,0.065,0.079
		c0.034,0.049,0.034,0.113,0.049,0.178C129.258,106.686,129.224,106.778,129.179,106.878 M130.655,103.871
		c-0.1,0.064-0.243,0.114-0.48,0.149c-0.243-0.1-0.357-0.179-0.436-0.258c-0.08-0.079-0.114-0.144-0.095-0.228
		c0-0.065,0.045-0.13,0.144-0.188c0.094-0.05,0.223-0.113,0.48-0.148c0.223,0.099,0.352,0.178,0.437,0.257
		c0.079,0.08,0.108,0.164,0.093,0.229C130.798,103.748,130.749,103.827,130.655,103.871 M131.571,98.656
		c-0.049,0.367-0.129,0.723-0.258,1.061c-0.129,0.351-0.292,0.688-0.58,1.024c-0.207-0.401-0.286-0.767-0.336-1.139
		c-0.05-0.367-0.034-0.725,0-1.091c0.05-0.354,0.129-0.707,0.258-1.059c0.129-0.337,0.302-0.694,0.594-1.016
		c0.193,0.386,0.273,0.758,0.337,1.124C131.615,97.933,131.615,98.3,131.571,98.656 M138.569,76.013
		c-0.387,0.144-0.753,0.272-1.124,0.401c-0.366,0.113-0.738,0.228-1.124,0.356c-0.401,0.108-0.788,0.223-1.269,0.337
		c0.144-0.481,0.451-0.852,0.803-1.159c0.356-0.303,0.772-0.511,1.224-0.674c0.431-0.129,0.896-0.194,1.361-0.174
		c0.45,0.03,0.916,0.124,1.332,0.383C139.342,75.726,138.956,75.869,138.569,76.013"/>
</g>
</svg>
