<?xml version="1.0" encoding="utf-8"?>
<!-- Generator: Adobe Illustrator 16.0.0, SVG Export Plug-In . SVG Version: 6.00 Build 0)  -->
<!DOCTYPE svg PUBLIC "-//W3C//DTD SVG 1.1//EN" "http://www.w3.org/Graphics/SVG/1.1/DTD/svg11.dtd">
<svg version="1.1" id="Layer_1" xmlns="http://www.w3.org/2000/svg" xmlns:xlink="http://www.w3.org/1999/xlink" x="0px" y="0px"
	 width="233px" height="160.174px" viewBox="249.5 185.499 233 160.174" enable-background="new 249.5 185.499 233 160.174"
	 xml:space="preserve">
<g id="Calque_2">
</g>
<g>
	<path fill="#255492" d="M301.478,299.459c-1.181-4.025-2.498-8.017-3.519-12.084c-4.568-18.158-6.423-36.487-3.491-55.148
		c1.255-7.984,5.292-13.893,12.983-16.184c7.792-2.325,15.878-4.85,23.885-5.024c18.757-0.413,37.543,0.504,56.315,0.948
		c1.924,0.043,3.848,0.461,5.755,0.814c16.408,3.034,21.666,5.609,25.711,27.19c0.95,5.069,1.211,10.266,1.851,15.961
		c6.781,2.441,14.133,5.534,16.796,13.146c1.537,4.397,1.399,9.809,0.581,14.513c-1.913,11.014-5.064,15.139-10.553,15.502
		c-3.612-11.041-10.764-17.982-23.165-17.116c-11.16,0.778-17.23,7.759-19.827,17.963c-12.296,0-24.316,0-36.432,0
		c-4.065-11.119-10.701-18.399-22.899-18.07c-11.67,0.312-17.482,8.397-21.556,18.609
		C303.101,300.138,302.29,299.798,301.478,299.459z M348.697,268.206c7.953,0,14.835,0.037,21.713-0.016
		c3.984-0.028,5.871-2.14,5.859-6.119c-0.032-10.811-0.025-21.624-0.002-32.438c0.007-3.924-1.73-6.123-5.806-6.123
		c-18.812-0.009-37.625-0.013-56.438,0.001c-3.31,0.003-5.409,1.496-5.424,5.019c-0.046,11.459-0.046,22.919-0.032,34.382
		c0.004,3.034,1.469,5.079,4.595,5.165c5.751,0.16,11.51,0.047,17.849,0.047c-0.618-5.313-1.135-9.752-1.626-13.972
		c-2.2-1.185-4.05-2.178-6.137-3.298c0.181-6.667-2.906-12.988-2.041-19.572c0.638-0.101,1.275-0.205,1.913-0.306
		c1.16,4.563,2.32,9.127,3.479,13.691c0.585-0.132,1.169-0.264,1.754-0.396c-0.356-4.636-0.713-9.272-1.069-13.905
		c0.653-0.104,1.307-0.21,1.959-0.314c1.194,4.628,2.39,9.257,3.583,13.885c3.582-4.914-1.644-10.252,2.788-16.209
		c1.019,5.716,1.553,10.149,2.645,14.443c1.169,4.588,0.924,8.479-3.808,11.15c1.184,5.047,2.3,9.812,3.337,14.234
		c4.549,1.626,5.442-0.79,6.123-3.906c2.083-9.482,4.303-18.937,6.489-28.399c0.834-3.615,2.863-5.997,6.837-5.192
		c4.066,0.827,4.734,3.785,3.871,7.443c-1.531,6.491-2.978,13.003-4.501,19.689c-1.967-0.127-3.557-0.23-5.428-0.349
		C350.38,260.494,349.656,263.812,348.697,268.206z M411.166,257.82c-1.307-8.654-2.046-16.813-3.884-24.716
		c-1.495-6.428-10.089-11.17-16.404-9.523c-1.876,0.489-4.458,2.756-4.658,4.452c-1.185,10.035-1.635,20.133,1.102,30.282
		C395.031,260.418,402.314,260.971,411.166,257.82z"/>
	<path fill="#255492" d="M326.171,320.257c-9.254-0.104-17.031-7.663-17.18-16.708c-0.149-9.068,8.743-17.783,17.871-17.514
		c8.75,0.257,16.676,8.403,16.763,17.221C343.713,312.535,335.681,320.36,326.171,320.257z M320.351,302.908
		c-0.132,3.593,2.243,6.279,5.701,6.454c3.646,0.183,6.149-2.125,6.266-5.776c0.121-3.704-2.178-6.387-5.639-6.578
		C323.225,296.815,320.478,299.376,320.351,302.908z"/>
	<path fill="#255492" d="M389.348,303.403c-0.006-9.544,7.779-17.452,17.097-17.368c9.476,0.088,16.869,7.864,16.76,17.637
		c-0.102,9.242-7.727,16.653-17.054,16.578C396.84,320.173,389.351,312.668,389.348,303.403z M412.674,303.131
		c-0.062-3.089-3.206-6.128-6.354-6.136c-3.192-0.009-6.372,2.99-6.438,6.07c-0.074,3.529,3.047,6.456,6.728,6.303
		C410.116,309.225,412.74,306.528,412.674,303.131z"/>
</g>
</svg>
