<?xml version="1.0" encoding="utf-8"?>
<!-- Generator: Adobe Illustrator 16.0.0, SVG Export Plug-In . SVG Version: 6.00 Build 0)  -->
<!DOCTYPE svg PUBLIC "-//W3C//DTD SVG 1.1//EN" "http://www.w3.org/Graphics/SVG/1.1/DTD/svg11.dtd">
<svg version="1.1" id="Layer_1" xmlns="http://www.w3.org/2000/svg" xmlns:xlink="http://www.w3.org/1999/xlink" x="0px" y="0px"
	 width="200px" height="180px" viewBox="0 0 200 180" enable-background="new 0 0 200 180" xml:space="preserve">
<g>
	<path fill="#255593" d="M103.086,157.465c-0.503,0-1.003-0.103-1.484-0.307l-57.363-23.766c-1.218-0.5-1.976-1.554-1.976-2.749
		V28.311c0-1.678,1.554-3.044,3.464-3.044h114.72c1.907,0,3.459,1.366,3.459,3.044v102.333c0,1.197-0.758,2.251-1.978,2.751
		l-57.36,23.766C104.089,157.362,103.589,157.465,103.086,157.465z M45.728,26.629c-1.159,0-2.102,0.754-2.102,1.682v102.333
		c0,0.642,0.424,1.198,1.133,1.49l57.369,23.769c0.634,0.268,1.287,0.266,1.918,0.001l57.364-23.769
		c0.712-0.292,1.136-0.849,1.136-1.491V28.311c0-0.912-0.96-1.682-2.098-1.682H45.728z"/>
	<polygon fill-rule="evenodd" clip-rule="evenodd" fill="#255593" points="91.858,145.676 114.319,145.676 103.086,151.168 	"/>
	<path fill="#255593" d="M105.884,87.881c-0.555-1.44-1.016-2.712-1.486-4.174c-0.504,0.064-1.02,0.099-1.524,0.064
		c0.856,1.817,1.356,3.981,1.763,5.978c0.02,0.079,0.01,0.159-0.024,0.224c-0.069,0.257-0.298,0.896-0.471,1.138
		c-0.247,0.373-0.595,0.609-0.852,0.967c0.015,0.045,0.03,0.094,0.04,0.174c0,0.064-0.009,0.112-0.015,0.162c0.005,0,0.025,0,0.03,0
		c0.361-0.02,0.604-0.193,0.802-0.466c0.02-0.019,0.035-0.049,0.064-0.063c0.1-0.129,0.243-0.164,0.381-0.129
		c0.149,0.05,0.313,0.109,0.466,0.158c0.079,0.016,0.148,0.1,0.198,0.179l0.015,0.03c0.381,0.821,1.521,0.613,2.233,0.613
		c0.054,0,0.104,0.015,0.154,0.03c0.198,0.064,0.401,0.129,0.599,0.193c0.268,0.094,0.526,0.193,0.782,0.272
		c0.094,0.033,0.193,0.064,0.288,0.099c0.401,0.108,0.772,0.223,1.164,0.317c0.178,0.063,0.361,0.099,0.539,0.148
		c0.041,0.015,0.055,0.015,0.08,0.029c1.749,0.645,1.099-0.223,0.219-0.208c-0.025,0.015-0.05,0-0.075,0
		c-0.193-0.05-0.391-0.1-0.594-0.129c-0.129-0.034-0.258-0.079-0.392-0.114c-0.064-0.028-0.129-0.044-0.188-0.063
		c-0.148-0.046-0.288-0.094-0.431-0.158c-0.054-0.017-0.104-0.035-0.153-0.064c-0.119-0.05-0.248-0.115-0.367-0.164
		c-0.064-0.029-0.124-0.06-0.193-0.094c-0.084-0.03-0.139-0.095-0.168-0.178c-0.035-0.096-0.025-0.175,0.005-0.259
		c0.04-0.078,0.114-0.158,0.193-0.174c0.113-0.049,0.218-0.079,0.331-0.128c1.075-0.387,2.189-0.693,3.314-0.867
		c0.411-0.049,0.817-0.114,1.238-0.163h0.064c0.079,0,0.619,0.049,0.575-0.144c-0.109-0.466-0.937-0.302-1.259-0.109
		c-0.054,0.03-0.089,0.03-0.139,0.045c-0.723,0.1-1.436,0.193-2.149,0.293c-0.139,0.015-0.282,0.029-0.426,0.044
		c-0.867,0.063-1.719,0.144-2.585,0.228c-0.119,0-0.203-0.034-0.257-0.1c-0.049-0.064-0.094-0.108-0.134-0.157
		c-0.564-0.609-0.708-1.046-0.98-1.832c-0.034-0.096-0.074-0.193-0.124-0.272c-0.125-0.289-0.263-0.561-0.401-0.833
		C105.988,88.11,105.929,87.995,105.884,87.881"/>
	<path fill="#255593" d="M124.214,37.899c0.51-0.808,1.194-1.145,1.996-1.08c-0.787-1.041-1.807-0.574-2.803-0.946
		c-5.468,1.154-6.909,6.791-10.227,12.541c-0.184,0.287-0.362,0.579-0.545,0.881c1.257-0.317,2.561-0.594,3.996-0.782
		c0.154,0,0.273,0.094,0.292,0.223c0.015,0.129-0.084,0.258-0.218,0.272c-3.59,0.609-6.528,1.54-9.708,3.18
		c-4.189,2.105-11.371,7.965-12.035,12.476c-0.104,0.629,0.01,1.174,0.297,1.526c1.877,2.49,9.732-0.575,12.06-1.927
		c0.208-0.13,0.426-0.258,0.639-0.366c0.153-0.085,0.292-0.035,0.372,0.079c0.064,0.113,0.024,0.271-0.09,0.337
		c-0.168,0.114-0.346,0.242-0.515,0.351c-0.961,0.644-2.744,1.541-4.725,2.249c0.02,0.015,0.039,0.015,0.063,0.035
		c3.066,1.654,6.572-0.45,8.984-2.393c0.134-0.113,0.263-0.213,0.401-0.308c0.11-0.099,0.273-0.064,0.362,0.03
		c0.08,0.113,0.064,0.277-0.039,0.356c-0.129,0.109-0.258,0.223-0.396,0.322c-0.852,0.752-1.768,1.44-2.719,2.021
		c3.442,0.816,7.008-2.185,9.127-4.577c0.119-0.144,0.312-0.144,0.431-0.029c0.129,0.109,0.139,0.288,0.035,0.417
		c-2.451,2.906-6.265,6.066-10.237,4.913c-0.128-0.051-0.296-0.08-0.44-0.145c-2.115,0.981-4.393,1.188-6.666-0.271
		c-2.933,0.881-6.013,1.188-7.371-0.516c-2.689-3.659,4.19-10.069,9.103-13.441c-2.005,0.1-3.7-0.079-5.641-0.916
		c-0.06-0.03-0.124-0.045-0.178-0.079c-0.064,0.064-0.159,0.099-0.257,0.112c-0.095,0.015-0.193,0-0.282-0.048
		c-0.129-0.064-0.248-0.129-0.382-0.175c-1.272-0.628-2.273-1.337-3.333-2.153c0.223,0.609,0.456,1.203,0.699,1.797
		c0.079,0.193-0.025,0.437-0.229,0.516c-0.198,0.078-0.43-0.015-0.52-0.208c-2.145-5.042-3.788-10.742-2.689-16.25
		c0.129-0.659,0.282-1.353-0.792-1.08c-3.076,0.679-3.709,4.642-2.69,7.146c0.079,0.193,0.119,0.308,0.119,0.308
		c0,0.015,0.005,0.015,0.005,0.015c0.074,0.209-0.03,0.436-0.233,0.5c-0.188,0.064-0.401-0.034-0.48-0.212
		c0,0-0.055-0.124-0.134-0.337c-0.446-0.996-0.614-2.135-0.55-3.259c0,0-0.015-0.03-0.069-0.129
		c-0.039-0.095-0.104-0.224-0.179-0.402c-0.063-0.193-0.153-0.45-0.223-0.702c-0.124-0.4-0.163-1.016-0.693-1.061
		c-0.223-0.019-0.535,0.095-0.827,0.273c-0.585,0.365-1.064,1.039-1.332,1.782c-0.129,0.382-0.218,0.768-0.258,1.169
		c-0.119,1.927,0.654,3.452,1.713,4.977c0.005,0.021,0.005,0.021,0.015,0.021c0.104,0.172,0.065,0.38-0.089,0.494
		c-0.158,0.1-0.371,0.064-0.475-0.079c-0.911-1.203-1.604-2.361-1.892-3.725c-0.04-0.085-0.089-0.163-0.164-0.271
		c-0.094-0.114-0.198-0.243-0.317-0.357c-0.138-0.108-0.252-0.143-0.371-0.128c-0.417,0.034-0.892,0.594-1.11,0.95
		c-1.361,2.536-0.495,4.829,1.269,7.241c0.01,0,0.01,0,0.02,0.015c0.104,0.145,0.069,0.352-0.064,0.467
		c-0.144,0.098-0.337,0.063-0.441-0.051c-0.723-0.847-1.313-1.733-1.728-2.664c0-0.015-0.025-0.031-0.075-0.096
		c-0.015-0.019-0.04-0.063-0.07-0.099c-0.034-0.044-0.074-0.078-0.113-0.128c-0.104-0.094-0.218-0.208-0.347-0.287
		c-0.144-0.08-0.288-0.114-0.377-0.08c-0.302,0.064-0.599,0.64-0.748,1.061c-0.738,2.551,0.828,4.814,2.65,6.503
		c0.01,0,0.02,0.015,0.024,0.015c0.139,0.129,0.144,0.337,0.021,0.48c-0.125,0.129-0.333,0.149-0.461,0.035
		c-0.466-0.387-0.896-0.802-1.293-1.238c-0.039-0.03-0.088-0.03-0.118-0.064c0,0-0.025-0.03-0.08-0.095
		c-0.025-0.034-0.04-0.05-0.084-0.064c-0.029-0.034-0.068-0.064-0.109-0.099c-0.099-0.045-0.217-0.129-0.356-0.158
		c-0.134-0.034-0.297-0.034-0.426,0.016c-0.614,0.191-0.718,1.41-0.639,1.896c0.272,1.877,1.867,3.372,3.333,4.413
		c0.234,0.162,0.377,0.257,0.377,0.257s0.004,0.015,0.015,0.015c0.139,0.099,0.168,0.292,0.074,0.437
		c-0.089,0.129-0.282,0.178-0.421,0.079c0,0-0.154-0.079-0.406-0.238c-0.243-0.162-0.49-0.322-0.732-0.501l-0.011-0.015
		c-0.212-0.113-0.495-0.178-0.752-0.162c-0.674,0.033-0.699,0.723-0.66,1.271c0.461,2.373,3.205,3.581,5.171,4.285
		c0.01,0,0.015,0,0.015,0.015c0.179,0.05,0.268,0.242,0.213,0.421c-0.059,0.158-0.242,0.258-0.406,0.208
		c-0.496-0.144-1-0.308-1.525-0.516c-0.015,0-0.03,0.015-0.045,0.015c-0.282-0.063-0.748-0.173-1.005,0
		c-0.594,0.272-0.579,1.095-0.361,1.625c0.451,0.896,1.252,1.461,2.154,1.848c0.377,0.193,0.783,0.352,1.18,0.509
		c2.104,0.823,3.273,1.273,5.264,2.686c0.153,0.094,0.188,0.302,0.089,0.451c-0.104,0.129-0.287,0.173-0.441,0.079
		c-0.009,0-0.024-0.015-0.039-0.015c-0.925-0.565-1.857-1.03-2.813-1.446c2.411,4.497,6.274,7.612,11.292,9.022
		c-0.129-0.386-0.243-0.772-0.312-1.188c-0.937-0.802-1.278-1.782-1.417-2.794c-0.005-0.164-0.015-0.307-0.024-0.45
		c-0.015-0.179,0.114-0.352,0.297-0.352c0.168-0.015,0.322,0.108,0.337,0.302c0.019,0.149,0.034,0.292,0.044,0.436
		c0.174,1.045,0.471,1.655,1.298,2.299c0.143,0.109,0.153,0.252,0.193,0.401c0.451,2.165,1.54,3.238,3.338,4.189
		c3.125,1.512,7.637,1.011,9.683-2.169c0.01-0.015,0.02-0.03,0.024-0.05c0.025-0.029,0.075-0.064,0.104-0.094
		c0.129-0.099,0.257-0.193,0.396-0.287c2.055-1.833,2.368-4.13,2.486-7.019c0.01-0.193,0.164-0.337,0.337-0.322
		c0.177,0,0.316,0.159,0.306,0.353c-0.079,2.649-0.416,5.041-1.981,6.858c2.109-0.307,4.705-1.524,6.156-3.051
		c-0.505,0.174-1.011,0.317-1.501,0.401c-0.371,0.045-0.515-0.466-0.04-0.594c3.893-0.952,7.86-5.076,9.455-9.459
		c2.308-6.325,1.456-14.051-0.184-19.431c-0.104-0.386-0.104-0.4-0.198-0.786c-0.035-0.13-0.089-0.288-0.04-0.451
		c0.044-0.159,0.213-0.208,0.343-0.144c0.113,0.064,0.163,0.242,0.217,0.386c0.015,0.064,0.03,0.113,0.05,0.158
		c0.193,0.035,0.521,0.064,0.659,0.064c-0.386-0.529-0.684-1.09-0.925-1.685c-0.041-0.099-0.041-0.192,0-0.286
		c0.034-0.085,0.088-0.163,0.163-0.193c-0.084-0.242-0.203-0.644-0.218-0.951c-0.98-0.673-1.164-1.906-0.649-3.145
		C122.772,40.207,122.347,38.25,124.214,37.899 M111.599,54.149c-5.933,0.401-10.287,3.259-14.219,7.914
		c-0.178,0.192-0.336,0.386-0.515,0.579c-0.04,0.03-0.094,0.064-0.153,0.064c-0.055,0-0.104-0.02-0.134-0.049
		c-0.075-0.063-0.089-0.194-0.035-0.273c0.164-0.207,0.307-0.415,0.451-0.629c3.551-4.942,8.464-8.265,14.596-8.008
		c0.113,0,0.203,0.094,0.203,0.208C111.782,54.05,111.703,54.129,111.599,54.149"/>
	<path fill="#255593" d="M107.771,90.388c0.015,0.015,0.04,0.05,0.055,0.08c0.054,0.084,0.129,0.163,0.193,0.228
		c0.005,0.015,0.025,0.015,0.029,0.029c0.218-0.015,0.451-0.029,0.674-0.064c-0.054-0.015-0.094-0.044-0.148-0.094
		c-0.292-0.258-0.678-0.481-1.08-0.658c0.019,0.05,0.044,0.093,0.064,0.144C107.617,90.181,107.697,90.279,107.771,90.388"/>
	<path fill="#255593" d="M129.038,38.25c-0.555,0.516-1.59,0.303-2.145,0.962c0.218,0.129,0.361,0.257,0.5,0.401
		c0.803,0.035,1.892-0.046,2.645-0.317c-0.015-0.034-0.029-0.064-0.044-0.099C129.776,38.766,129.414,38.489,129.038,38.25"/>
	<path fill="#255593" d="M126.299,37.721c-0.192-0.015-0.569,0.064-0.624,0.287c-0.01,0.035,0,0.035,0.015,0.035
		c0.065,0,0.184-0.05,0.218,0c0.064,0.079,0.069,0.207,0.159,0.287c0.094,0.095,0.347,0.095,0.44,0.015
		c0.074-0.08,0.06-0.193,0.129-0.258c0.05-0.029,0.139,0.021,0.193,0.021c0.049,0.015,0.049,0,0.039-0.035
		C126.839,37.899,126.581,37.735,126.299,37.721"/>
	<path fill="#255593" d="M131.494,39.133c-0.312-0.883-0.772-1.383-1.332-1.784c0.064-1.282-0.714-2.035-1.303-2.614
		c-0.114-0.099-0.223-0.229-0.322-0.322c-0.014-0.035-0.025-0.158-0.04-0.272c-0.005-0.099-0.015-0.193-0.03-0.307
		c-0.04-0.302-0.312-0.575-0.619-0.674l-0.01-0.015c-0.069-0.307-0.401-0.58-0.723-0.609c-0.044,0-0.094,0-0.148,0
		c-0.074-0.293-0.168-0.564-0.317-0.724c-0.184-0.207-0.456-0.336-0.688-0.307c-0.223,0.015-0.451,0.113-0.594,0.272
		c-0.139-0.064-0.283-0.079-0.426-0.094c-0.054,0-0.114,0-0.158,0c-0.139-0.114-0.322-0.179-0.476-0.193
		c-0.104,0-0.208,0.015-0.307,0.05c-0.312-0.308-0.634-0.387-0.891-0.401c-0.486,0.015-1.041,0.352-1.353,1.01
		c-0.361,0.769-0.461,1.863-0.099,2.823c-3.798,1.397-5.626,4.898-7.746,8.915c-0.634,1.203-1.293,2.473-2.055,3.74
		c-0.258,0.435-0.525,0.865-0.797,1.316c-1.565,0.466-3.075,1.075-4.734,1.897c-0.515,0.258-1.159,0.608-1.838,1.04
		c-2.778,0.084-4.73-0.253-5.953-1.061l-0.49-0.316c-0.277-0.163-0.634-0.243-0.976-0.148c-0.074,0.02-0.129,0.034-0.193,0.063
		c-0.966-0.494-1.837-1.104-2.749-1.763l-0.342-0.258c-1.585-4.719-2.001-8.702-1.288-12.173c0.129-0.754,0.204-1.62-0.287-2.294
		c-0.313-0.436-0.788-0.692-1.412-0.787c-0.446-0.063-0.827-0.016-1.124,0.065c-1.421,0.321-2.566,1.152-3.333,2.376
		c-0.055-0.064-0.119-0.129-0.204-0.179c-0.327-0.223-0.728-0.351-1.144-0.386c-0.614,0-1.208,0.163-1.823,0.564
		c-0.887,0.575-1.585,1.525-1.972,2.649c-0.104,0.302-0.192,0.609-0.248,0.912c-0.049,0-0.093,0-0.143,0
		c-1.303,0.099-2.145,1.287-2.457,1.817c-0.619,1.153-0.902,2.328-0.842,3.531c-0.891,0.192-1.59,0.979-1.976,2.232
		c-0.417,1.492-0.283,3.003,0.391,4.449c-1.099,0.673-1.476,2.214-1.253,3.48c0.178,1.062,0.659,2.075,1.416,3.008
		c-0.45,0.431-0.852,1.217-0.683,2.6c0.272,1.382,1.05,2.551,2.342,3.502c-0.569,0.831-0.595,2.021-0.183,2.967
		c0.569,1.173,1.59,2.074,3.001,2.669c0.802,0.366,1.624,0.639,2.373,0.882c2.446,5.284,6.715,8.751,12.698,10.341
		c0.683,1.203,1.708,2.119,3.22,2.923c0.836,0.4,1.708,0.707,2.639,0.852c0.347,0.881,0.758,2.04,1.06,3.08
		c-0.104,0.064-0.213,0.129-0.351,0.193c-0.555,0.207-1,0.579-1.308,1.125c-0.169,0.291-0.12,0.673,0.128,0.916
		c0.248,0.223,0.634,0.272,0.916,0.079c0.208-0.129,0.352-0.193,0.481-0.208c0.197,0.064,0.401,0.098,0.599,0.112
		c0.009,0.225-0.02,0.324-0.055,0.387c-0.054,0.109-0.104,0.224-0.168,0.288l-0.361,0.416c-0.095,0.114-0.198,0.228-0.288,0.372
		c-0.04,0.049-0.089,0.128-0.153,0.271c-0.04,0.051-0.064,0.095-0.08,0.145c-0.322,0.163-0.619,0.37-0.886,0.643
		c-0.238,0.238-0.317,0.739-0.158,1.026c0.178,0.336,0.594,0.529,0.955,0.45c0.104-0.029,0.218-0.049,0.327-0.064
		c0.045,0.016,0.09,0.035,0.139,0.05c0.709,0.179,1.501,0.272,2.234-0.164c0.792,0.694,2.07,0.694,2.778,0.659
		c1.075,0.515,2.071,0.852,3.289,1.095c0.049,0.014,0.955,0.351,1.758,0.288c0.163,0.128,0.411,0.241,0.604,0.241
		c0.068,0,0.168-0.015,0.232-0.034c0.387-0.108,0.649-0.466,0.639-0.847c-0.005-0.322-0.079-0.645-0.223-0.951
		c-0.029-0.466-0.218-0.866-0.54-1.169c-0.041-0.034-0.08-0.064-0.12-0.114c0.332-0.049,0.659-0.099,1.031-0.163
		c0.534,0.02,1-0.095,1.332-0.336c0.297,0.113,0.64,0.049,0.882-0.174c0.233-0.194,0.347-0.679,0.233-0.966
		c-0.158-0.387-0.426-0.724-0.788-0.962c-0.069-0.127-0.154-0.241-0.258-0.321c0.114-0.049,0.218-0.099,0.322-0.144
		c0.243-0.034,0.516,0.063,0.862,0.271c0.277,0.175,0.634,0.131,0.881-0.083c0.232-0.223,0.312-0.575,0.178-0.866
		c-0.268-0.575-0.852-1.313-2.233-1.556c-0.907-0.114-2.026-0.164-3.383-0.129c-0.213-0.387-0.585-0.658-1.1-0.802
		c-0.47-0.129-0.882-0.129-1.233-0.129c-0.486-0.016-0.777-0.016-1.159-0.308c-0.505-0.4-0.922-1.526-1.218-2.377
		c1.173-0.59,2.184-1.427,2.951-2.521c0.124-0.188,0.173-0.272,0.213-0.352c0.005-0.015,0.02-0.015,0.04-0.029
		c3.194-0.114,6.969-2.155,8.627-4.675c3.155-1.893,6.032-5.394,7.35-8.989c2.333-6.38,1.58-13.923-0.01-19.286
		c0.1,0.015,0.208,0.015,0.332,0.015c0.262-0.035,0.496-0.158,0.673-0.372c0.392-0.43,0.366-1.104-0.064-1.524l-0.188-0.174
		c-0.223-0.272-0.406-0.53-0.584-0.838c0.074-0.192,0.089-0.386,0.055-0.579c0.659-0.128,1.232-0.479,1.634-1.01
		c0.496-0.644,0.655-1.477,0.505-2.357c0.728-0.064,1.411-0.213,2.03-0.437C131.416,40.307,131.693,39.713,131.494,39.133
		 M130.603,39.806c-0.901,0.337-1.861,0.451-2.828,0.437c0.971,2.021-0.322,3.63-2.12,3.309c0.064,0.257,0.148,0.494,0.252,0.787
		c0.094,0.208,0.03,0.416-0.129,0.51c0.238,0.515,0.496,0.932,0.872,1.367c0.084,0.079,0.153,0.145,0.232,0.223
		c0.149,0.148,0.154,0.372,0.021,0.516c-0.05,0.063-0.124,0.1-0.204,0.114c-0.584-0.015-0.891-0.079-1.303-0.164
		c1.857,5.508,2.739,13.441,0.372,19.915c-1.268,3.467-4.125,6.934-7.201,8.687c-1.565,2.521-5.438,4.497-8.375,4.479
		c-0.113,0.099-0.208,0.207-0.326,0.306c-0.1,0.179-0.035,0.08-0.257,0.451c-0.842,1.168-1.986,1.99-3.255,2.486
		c0.362,1.029,0.862,2.714,1.694,3.373c0.926,0.723,1.665,0.308,2.645,0.579c0.659,0.193,0.744,0.56,0.753,0.852
		c1.708-0.064,2.937,0,3.838,0.109c0.853,0.128,1.382,0.515,1.655,1.11c-0.476-0.289-0.971-0.451-1.5-0.353
		c-0.386,0.271-0.991,0.257-1.64,0.174c-1.748,0.45-3.556,0.112-5.329-0.045c0.743,0.639,0.882,1.312,0.718,1.604
		c0.422-0.035,0.837-0.079,1.263-0.114c0.139,0,0.268-0.015,0.401-0.049c0.079,0,0.154-0.016,0.232-0.03
		c0.619-0.078,1.238-0.158,1.857-0.243c0.664-0.386,1.773-0.386,2.135,0.401c0.302,0.193,0.52,0.421,0.649,0.723
		c0.04,0.114-0.08,0.209-0.184,0.165c-0.164-0.1-0.312-0.13-0.465-0.149c-0.168,0.406-0.772,0.471-1.149,0.436
		c-1.412,0.224-2.521,0.436-3.893,0.817c0.079,0.034,0.158,0.05,0.248,0.084c0.064,0.015,0.129,0.031,0.192,0.045
		c0.12,0.05,0.233,0.101,0.352,0.114c0.179,0.034,0.357,0.079,0.531,0.129c0.762-0.035,1.51,0.337,1.51,1.203
		c0.138,0.228,0.208,0.479,0.208,0.772c0,0.044-0.029,0.094-0.089,0.108c-0.005,0-0.015,0.021-0.029,0.021
		c-0.05,0-0.089-0.035-0.115-0.064c-0.069-0.114-0.143-0.208-0.242-0.293c-0.352,0.258-1.362,0-1.749-0.144
		c-1.243-0.257-2.253-0.579-3.403-1.153c-0.886,0.045-2.337,0.079-2.749-0.901c-0.04-0.016-0.069-0.016-0.104-0.03
		c-0.609,0.703-1.292,0.689-2.12,0.481c-0.064-0.016-0.109-0.05-0.154-0.095c-0.233,0.015-0.456,0.045-0.653,0.095
		c-0.01,0-0.02,0.014-0.025,0.014c-0.059,0-0.098-0.029-0.124-0.063c-0.025-0.045-0.015-0.109,0.025-0.159
		c0.307-0.307,0.653-0.515,1.02-0.609c0-0.034,0-0.063,0-0.099c0.014-0.079,0.04-0.193,0.079-0.272
		c0.02-0.015,0.024-0.029,0.035-0.05c0.03-0.044,0.055-0.108,0.079-0.143c0.074-0.115,0.154-0.209,0.243-0.288
		c0.068-0.099,0.143-0.163,0.208-0.258c0.079-0.078,0.129-0.128,0.183-0.192c0.129-0.158,0.208-0.352,0.307-0.545
		c0.129-0.271,0.084-0.803-0.039-1.462c-0.347,0.144-0.718,0.158-1.12,0c-0.367-0.019-0.688,0.144-1,0.337
		c0.213-0.37,0.52-0.644,0.936-0.802c0.401-0.179,0.693-0.421,0.916-0.673c-0.391-1.447-0.986-3.051-1.367-3.968
		c-0.976-0.129-1.946-0.4-2.838-0.837c-1.391-0.753-2.402-1.654-3.045-2.922c-5.834-1.462-10.153-4.721-12.634-10.277
		c-0.05-0.016-0.084-0.03-0.114-0.049c-0.802-0.238-1.669-0.53-2.511-0.931c-1.12-0.451-2.105-1.189-2.65-2.295
		c-0.401-0.949-0.232-2.268,0.753-2.748c-1.381-0.787-2.53-1.912-2.853-3.547c-0.084-0.737-0.015-1.624,0.668-2.075
		c0.154-0.108,0.313-0.157,0.465-0.188c-0.916-0.916-1.629-1.991-1.852-3.328c-0.179-0.961,0.104-2.486,1.204-2.838
		c0.143-0.064,0.277-0.064,0.425-0.064c-0.866-1.381-1.268-2.957-0.797-4.689c0.228-0.724,0.659-1.576,1.471-1.72
		c0.217-0.033,0.426-0.015,0.594,0.05c0.025,0,0.05,0.015,0.064,0.029c-0.252-1.281-0.113-2.599,0.624-3.981
		c0.397-0.658,1.06-1.362,1.858-1.412c0.223-0.015,0.44,0.03,0.624,0.129c0.055,0.03,0.089,0.065,0.139,0.095
		c0-0.079-0.01-0.174,0-0.272c0.025-0.451,0.119-0.932,0.277-1.383c0.317-0.916,0.876-1.732,1.679-2.263
		c0.401-0.257,0.861-0.45,1.391-0.432c0.263,0.016,0.521,0.095,0.744,0.253c0.425,0.338,0.525,0.595,0.653,1.095
		c0.005,0.029,0.015,0.065,0.025,0.095c0.529-1.57,1.659-2.872,3.452-3.289c0.257-0.05,0.535-0.099,0.841-0.05
		c1.298,0.179,1.239,1.284,1.075,2.215c-0.867,4.21,0.01,8.672,1.396,12.782c1.229,0.867,2.413,1.783,3.799,2.407
		c0.064-0.108,0.159-0.173,0.298-0.208c0.133-0.029,0.281-0.015,0.39,0.064c0.164,0.1,0.332,0.208,0.491,0.307
		c1.783,1.174,4.536,1.238,6.567,1.174c0.748-0.465,1.416-0.852,1.951-1.108c1.68-0.817,3.259-1.461,4.883-1.942
		c0.322-0.515,0.644-1.03,0.961-1.561c3.432-5.813,4.987-11.222,10.287-12.604c-1.447-1.653,0.079-5.056,1.045-2.743
		c0.014,0.029,0.039,0.045,0.078,0.045c0.03-0.016,0.055-0.03,0.065-0.045c0.054-0.148,0.119-0.276,0.218-0.406
		c0.015-0.016,0.039-0.016,0.069-0.016c0.025,0,0.05,0,0.064,0.035c0.099,0.144,0.164,0.322,0.218,0.481
		c0.01,0.029,0.039,0.049,0.074,0.049c0.04,0,0.064-0.02,0.069-0.049c0.035-0.08,0.08-0.243,0.154-0.323
		c0.016-0.015,0.04,0.145,0.064,0.145c0.03,0,0.075-0.159,0.089-0.145c0.133,0.193,0.208,0.516,0.302,0.709
		c0.01,0.029,0.035,0.05,0.064,0.05c0.114,0.016,0.525-0.773,0.555-0.888c0.01-0.029,0.035-0.049,0.08-0.049
		c0.267-0.016,0.421,1.382,0.371,1.654c0,0.034,0.015,0.049,0.05,0.063c0.03,0.021,0.064,0,0.079-0.015
		c0.223-0.257,0.327-0.351,0.476-0.643c0.02-0.03,0.055-0.045,0.084-0.03c0.035,0,0.06,0.016,0.06,0.05
		c0.089,0.337,0.134,0.674,0.158,1.024c0,0.035,0.025,0.05,0.064,0.05c0.035,0.016,0.065,0,0.079-0.035
		c0.064-0.143,0.124-0.286,0.164-0.445c0.004-0.034,0.04-0.05,0.069-0.05c0.05,0,0.075,0.03,0.084,0.064
		c0.054,0.387,0.015,0.709,0.248,0.961c0.599,0.659,1.575,1.287,1.421,2.557c-0.01,0.093-0.05,0.178-0.074,0.242
		c0.708,0.416,1.159,0.831,1.471,1.683C130.85,39.567,130.771,39.742,130.603,39.806"/>
	<g>
		<path fill-rule="evenodd" clip-rule="evenodd" fill="#255593" d="M154.961,98.223H51.206l5.498,11.229l-5.498,11.237h103.755
			l-5.493-11.237L154.961,98.223z M67.634,115.295h-2.323l-4.913-12.237h2.957l3.115,7.79l3.116-7.79h2.951L67.634,115.295z
			 M84.003,113.592c-1.238,1.223-2.764,1.832-4.562,1.832c-1.813,0-3.338-0.609-4.576-1.832c-1.229-1.204-1.852-2.699-1.852-4.498
			c0-1.797,0.624-3.288,1.852-4.512c1.238-1.203,2.763-1.813,4.576-1.813c1.798,0,3.323,0.609,4.562,1.813
			c1.243,1.224,1.857,2.715,1.857,4.512C85.86,110.893,85.246,112.388,84.003,113.592z M96.112,115.295h-7.949v-12.237h2.729v9.796
			h5.22V115.295z M106.82,115.295l-1.129-2.65h-5.126l-1.144,2.65h-2.908l5.28-12.237h2.65l5.294,12.237H106.82z M113.873,115.295
			h-2.734v-12.237h2.734V115.295z M124.838,115.295h-7.954v-12.237h2.728v9.796h5.226V115.295z M134.769,115.295h-7.949v-12.237
			h2.733v9.796h5.216V115.295z M145.773,115.295h-9.009v-12.237h8.815v2.426h-6.086v2.521h5.491v2.327h-5.491v2.536h6.279V115.295z"
			/>
		<path fill-rule="evenodd" clip-rule="evenodd" fill="#255593" d="M79.451,105.162c-1.021,0-1.887,0.386-2.585,1.154
			c-0.698,0.758-1.05,1.688-1.05,2.777c0,1.11,0.352,2.026,1.05,2.778c0.699,0.772,1.564,1.159,2.585,1.159
			c1.02,0,1.877-0.387,2.575-1.159c0.698-0.752,1.056-1.668,1.056-2.778c0-1.089-0.357-2.02-1.056-2.777
			C81.328,105.548,80.471,105.162,79.451,105.162z"/>
		<polygon fill-rule="evenodd" clip-rule="evenodd" fill="#255593" points="101.595,110.254 104.66,110.254 103.13,106.702 		"/>
	</g>
	<path fill="#255593" d="M73.464,129.267h1.555l-0.555,1.362h-1.564l-1.09,2.729c-1.639,4.096-3.992,4.705-5.557,4.705
		c-2.843,0-4.175-1.911-4.175-3.838c0-2.101,1.62-3.933,4.239-3.725v2.249c-1.604-0.129-1.922,0.866-1.922,1.476
		c0,0.966,0.823,1.59,1.649,1.59c1.531,0,2.64-1.506,3.611-3.839l0.53-1.347h-1.516l0.559-1.362h1.521l1.525-3.774
		c-1.793-0.128-3.695-0.901-5.042-0.901c-1.263,0-1.744,0.659-1.744,1.303c0,0.674,0.555,1.012,1.075,1.012
		c0.698,0,1.198-0.53,1.198-0.53l1.09,1.669c0,0-0.94,0.932-2.441,0.932c-1.59,0-3.131-1.075-3.131-3.037
		c0-1.749,1.199-3.452,3.903-3.452c2.233,0,4.601,1.188,6.478,0.838c0.595-0.516,1.392-0.817,2.175-0.817l0.5,1.461
		c0,0-0.876,0.352-1.382,1.604L73.464,129.267z M72.899,135.687c0.787-0.754,2.348-3.161,3.977-6.807
		c-0.297-0.321-0.525-0.594-0.525-1.03c0-0.866,0.906-1.797,1.605-2.021l1.109,0.624l-0.555,1.368
		c0.708,0.608,2.803,1.569,2.803,2.857c0,0.193-0.049,0.45-0.198,0.831l-0.485,1.225c-0.792,1.955-0.352,2.184-0.134,2.184
		c0.48,0,1.323-1.074,2.615-3.294c0.361,0.035,0.822,0.352,0.946,0.675c-1.297,2.282-2.669,4.288-4.552,4.288
		c-1.332,0-2.744-0.979-1.515-4.017l0.545-1.377c0.138-0.336,0.153-0.5,0.153-0.594c0-0.336-0.351-0.63-0.837-1.045
		c-1.465,3.209-3.12,6.036-4.006,6.81C73.483,136.329,73.038,136.008,72.899,135.687"/>
	<path fill="#255593" d="M94.255,132.299c-1.332,2.326-2.987,4.288-5.071,4.288c-1.778,0-2-1.412-2-1.412s-1.174,1.412-2.68,1.412
		c-1.278,0-1.922-0.996-1.922-2.233c0-1.828,1.447-7.063,4.715-7.063c1.645,0,2.021,1.381,2.021,1.381l3.194-1.158l-2.115,5.221
		c-0.773,1.926-0.476,2.184-0.174,2.184c0.684,0,1.843-1.203,3.076-3.294C93.656,131.659,94.112,131.976,94.255,132.299
		 M87.495,133.199l1.11-2.729c0,0-0.015-0.966-0.773-0.966c-1.347,0-2.604,3.194-2.604,4.288c0,0.452,0.208,0.624,0.545,0.624
		C86.707,134.417,87.495,133.199,87.495,133.199"/>
	<path fill="#255593" d="M104.254,132.299c-1.357,2.376-3.007,4.288-5.051,4.288c-1.773,0-2.506-1.366-1.308-4.384l0.262-0.629
		c0.332-0.816,0.604-1.475,0.604-1.733c0-0.237-0.208-0.366-0.46-0.366c-0.417,0-1.194,0.382-1.917,1.204l-2.303,5.686h-2.714
		l3.585-8.851l2.353,0.901c0.089-0.1,1.352-1.124,2.803-1.124c1.075,0,1.64,0.574,1.64,1.475c0,0.467-0.154,1.045-0.515,1.928
		l-0.837,2.041c-0.782,1.955-0.465,2.184-0.173,2.184c0.688,0,1.867-1.203,3.076-3.294
		C103.661,131.659,104.125,131.976,104.254,132.299"/>
	<path fill="#255593" d="M105.037,136.409c-1.387-0.387-2.061-1.412-2.061-2.844c0-2.278,1.748-6.274,5.344-6.274
		c2.427,0,3.542,1.698,2.1,4.591h-2.724c0.98-2.005,1.045-2.456,0.505-2.456c-1.476,0-2.665,3.065-2.665,4.204
		c0,1.109,1.125,1.288,1.744,1.288c1.718,0,3.561-1.139,4.774-3.294c0.362,0.035,0.822,0.352,0.965,0.675
		c-1.158,2.024-3.204,4.21-6.359,4.288l-0.322,0.609c0.56,0.178,0.916,0.466,0.916,1.124c0,1.977-2.921,2.298-4.209,1.495
		l0.763-1.174c0.476,0.258,1.367,0.353,1.367-0.177c0-0.388-0.44-0.388-1.075-0.323L105.037,136.409z"/>
	<path fill="#255593" d="M123.184,132.299c-1.332,2.326-2.986,4.288-5.071,4.288c-1.778,0-2.001-1.412-2.001-1.412
		s-1.174,1.412-2.675,1.412c-1.282,0-1.926-0.996-1.926-2.233c0-1.828,1.447-7.063,4.714-7.063c1.654,0,2.031,1.381,2.031,1.381
		l3.185-1.158l-2.12,5.221c-0.763,1.926-0.471,2.184-0.168,2.184c0.683,0,1.847-1.203,3.076-3.294
		C122.58,131.659,123.05,131.976,123.184,132.299 M116.423,133.199l1.114-2.729c0,0-0.015-0.966-0.778-0.966
		c-1.347,0-2.61,3.194-2.61,4.288c0,0.452,0.208,0.624,0.55,0.624C115.636,134.417,116.423,133.199,116.423,133.199"/>
	<path fill="#255593" d="M128.339,132.317c-1.317,2.293-3.021,4.27-4.987,4.27c-1.556,0-2.65-1.239-1.397-4.319l1.927-4.754h2.714
		l-2.105,5.221c-0.788,1.94-0.471,2.184-0.183,2.184c0.684,0,1.862-1.188,3.076-3.294
		C127.745,131.659,128.201,131.976,128.339,132.317 M124.62,125.28c0-0.832,0.669-1.477,1.501-1.477
		c0.797,0,1.496,0.645,1.496,1.477c0,0.807-0.699,1.511-1.496,1.511C125.289,126.791,124.62,126.087,124.62,125.28"/>
	<path fill="#255593" d="M127.394,131.624c0.679-1.153,1.788-3.294,2.438-4.719l2.361,0.608c-0.45,2.406-0.099,5.091-0.079,6.166
		c0,0.466-0.034,0.708-0.079,0.916c0.907-0.723,1.604-1.639,2.367-2.972c0.362,0.035,0.817,0.352,0.961,0.675
		c-1.253,2.248-2.922,4.288-5.791,4.288c-2.109,0-2.862-1.14-2.882-1.154l1.506-0.951c0.148,0.179,0.287,0.243,0.53,0.243
		c0.535,0,0.881-0.45,0.881-2.12c0-0.737-0.064-1.797-0.035-2.649c-0.44,0.866-0.886,1.748-1.228,2.344
		C127.983,132.268,127.518,131.946,127.394,131.624"/>
	<path fill="#255593" d="M144.089,132.299c-1.144,2.055-3.229,4.288-6.523,4.288c-2.372,0-3.511-1.154-3.511-3.021
		c0-2.278,1.728-6.274,5.374-6.274c1.927,0,3.566,1.253,2.477,3.725c-0.708,1.54-2.075,2.536-5.235,2.135
		c0,0-0.505,1.768,1.669,1.768c1.748,0,3.595-1.139,4.799-3.294C143.495,131.659,143.96,131.976,144.089,132.299 M137.135,131.674
		c1.57,0.272,2.085-0.451,2.422-1.253c0.229-0.516,0.323-0.966-0.258-0.966C138.032,129.455,137.135,131.674,137.135,131.674"/>
	<polygon fill="#1F71B7" points="147.011,66.927 152.742,39.262 149.676,38.617 143.396,68.902 	"/>
	<polygon fill="#FFFFFF" points="150.622,64.936 155.827,39.904 152.742,39.262 147.011,66.927 	"/>
	<polygon fill="#BC2026" points="154.237,62.964 158.894,40.528 155.827,39.904 150.622,64.936 	"/>
	<polygon fill="#1F71B7" points="163.405,64.455 158.858,36.581 155.763,37.077 160.74,67.605 	"/>
	<polygon fill="#FFFFFF" points="166.084,61.325 161.958,36.082 158.858,36.581 163.405,64.455 	"/>
	<polygon fill="#BC2026" points="168.753,58.175 165.059,35.566 161.958,36.082 166.069,61.311 	"/>
	<path fill="#BE2026" d="M174.083,27.301c0,0.787-0.515,1.506-0.609,2.262c-0.114,0.769,0.158,1.62-0.05,2.344
		c-0.222,0.737-0.916,1.304-1.238,2.006c-0.316,0.693-0.287,1.59-0.702,2.234c-0.402,0.644-1.239,0.979-1.734,1.574
		c-0.515,0.58-0.723,1.446-1.318,1.942c-0.579,0.5-1.461,0.594-2.104,1.029c-0.644,0.401-1.11,1.169-1.798,1.49
		c-0.708,0.323-1.59,0.164-2.328,0.388c-0.723,0.207-1.381,0.816-2.154,0.931c-0.752,0.094-1.54-0.308-2.328-0.308
		c-0.767,0-1.574,0.401-2.327,0.308c-0.773-0.114-1.412-0.724-2.149-0.931c-0.744-0.224-1.625-0.064-2.313-0.388
		c-0.709-0.321-1.16-1.089-1.799-1.49c-0.658-0.436-1.545-0.529-2.12-1.029c-0.58-0.496-0.802-1.362-1.302-1.942
		c-0.515-0.595-1.333-0.931-1.749-1.574c-0.421-0.645-0.387-1.541-0.708-2.234c-0.322-0.702-1.011-1.269-1.238-2.006
		c-0.208-0.724,0.064-1.575-0.03-2.344c-0.114-0.756-0.628-1.475-0.628-2.262c0-0.789,0.515-1.512,0.628-2.264
		c0.095-0.773-0.178-1.624,0.03-2.348c0.228-0.738,0.917-1.298,1.238-2.006c0.321-0.693,0.287-1.59,0.708-2.234
		c0.416-0.639,1.233-0.98,1.749-1.574c0.5-0.575,0.723-1.441,1.302-1.941c0.575-0.495,1.461-0.595,2.12-1.025
		c0.639-0.4,1.09-1.175,1.799-1.496c0.688-0.32,1.569-0.158,2.313-0.387c0.737-0.208,1.376-0.816,2.149-0.931
		c0.753-0.095,1.56,0.292,2.327,0.292c0.788,0,1.576-0.387,2.328-0.292c0.773,0.114,1.431,0.723,2.154,0.931
		c0.738,0.229,1.62,0.066,2.328,0.387c0.688,0.321,1.154,1.096,1.798,1.496c0.644,0.431,1.525,0.53,2.104,1.025
		c0.595,0.5,0.803,1.366,1.318,1.941c0.495,0.594,1.332,0.936,1.734,1.574c0.415,0.645,0.386,1.541,0.702,2.234
		c0.322,0.708,1.016,1.268,1.238,2.006c0.208,0.724-0.063,1.574,0.05,2.348C173.568,25.789,174.083,26.512,174.083,27.301"/>
	<path fill="#FFFFFF" d="M168.011,27.301c0,0.48-0.481,0.931-0.56,1.396c-0.064,0.479,0.287,1.04,0.158,1.505
		c-0.144,0.451-0.737,0.758-0.931,1.174c-0.208,0.45-0.03,1.095-0.302,1.496c-0.258,0.401-0.901,0.51-1.223,0.867
		c-0.302,0.366-0.322,1.024-0.688,1.332c-0.352,0.321-1.01,0.242-1.432,0.515c-0.401,0.238-0.594,0.882-1.04,1.075
		c-0.436,0.193-1.045-0.05-1.495,0.079c-0.451,0.129-0.837,0.674-1.318,0.753c-0.465,0.063-0.98-0.352-1.461-0.352
		c-0.479,0-0.995,0.415-1.46,0.352c-0.48-0.079-0.852-0.624-1.297-0.753c-0.486-0.129-1.08,0.114-1.511-0.079
		c-0.45-0.193-0.644-0.837-1.045-1.075c-0.401-0.272-1.06-0.193-1.431-0.515c-0.352-0.308-0.366-0.966-0.688-1.332
		c-0.322-0.357-0.961-0.466-1.219-0.867s-0.099-1.046-0.292-1.496c-0.208-0.431-0.788-0.723-0.931-1.174
		c-0.129-0.465,0.208-1.025,0.143-1.505c-0.079-0.466-0.559-0.916-0.559-1.396c0-0.486,0.48-0.933,0.559-1.397
		c0.065-0.486-0.272-1.045-0.143-1.51c0.143-0.451,0.724-0.759,0.931-1.174c0.193-0.451,0.035-1.091,0.292-1.491
		c0.257-0.401,0.896-0.516,1.219-0.867c0.322-0.371,0.337-1.029,0.688-1.336c0.371-0.318,1.03-0.239,1.431-0.511
		c0.401-0.243,0.595-0.888,1.045-1.08c0.431-0.188,1.025,0.05,1.511-0.079c0.445-0.144,0.817-0.673,1.297-0.753
		c0.465-0.064,0.981,0.352,1.46,0.352c0.481,0,0.996-0.416,1.461-0.352c0.48,0.08,0.867,0.609,1.318,0.753
		c0.45,0.129,1.075-0.109,1.495,0.079c0.446,0.192,0.639,0.837,1.04,1.08c0.421,0.271,1.08,0.192,1.432,0.511
		c0.366,0.307,0.386,0.965,0.688,1.336c0.322,0.352,0.965,0.466,1.223,0.867c0.272,0.4,0.094,1.04,0.302,1.491
		c0.193,0.436,0.787,0.723,0.931,1.174c0.129,0.465-0.222,1.023-0.158,1.51C167.53,26.368,168.011,26.814,168.011,27.301"/>
	<path fill="#2072B8" d="M163.306,27.301c0,0.258-0.466,0.48-0.495,0.737c-0.034,0.237,0.352,0.595,0.287,0.832
		c-0.079,0.258-0.594,0.337-0.704,0.564c-0.113,0.224,0.173,0.674,0.031,0.882c-0.144,0.229-0.659,0.164-0.818,0.337
		c-0.179,0.208-0.034,0.708-0.228,0.866c-0.193,0.179-0.659-0.029-0.881,0.099c-0.208,0.13-0.208,0.659-0.451,0.77
		c-0.238,0.112-0.624-0.225-0.881-0.16c-0.243,0.064-0.386,0.561-0.659,0.61c-0.243,0.034-0.53-0.402-0.788-0.402
		c-0.257,0-0.544,0.437-0.787,0.402c-0.257-0.05-0.416-0.546-0.659-0.61c-0.252-0.064-0.639,0.272-0.881,0.16
		c-0.223-0.11-0.223-0.64-0.451-0.77c-0.208-0.128-0.688,0.08-0.881-0.099c-0.193-0.158-0.05-0.658-0.223-0.866
		c-0.164-0.173-0.679-0.108-0.823-0.337c-0.144-0.208,0.144-0.658,0.035-0.882c-0.114-0.228-0.629-0.307-0.694-0.564
		c-0.079-0.237,0.322-0.595,0.273-0.832c-0.03-0.257-0.495-0.479-0.495-0.737s0.465-0.486,0.495-0.738
		c0.049-0.242-0.352-0.595-0.273-0.838c0.064-0.258,0.58-0.337,0.694-0.563c0.109-0.225-0.179-0.676-0.035-0.884
		c0.144-0.222,0.659-0.157,0.823-0.336c0.173-0.208,0.03-0.708,0.223-0.866c0.193-0.178,0.673,0.029,0.881-0.095
		c0.228-0.148,0.228-0.658,0.451-0.772c0.242-0.114,0.628,0.223,0.881,0.159c0.243-0.064,0.402-0.575,0.659-0.61
		c0.243-0.029,0.53,0.401,0.787,0.401c0.258,0,0.545-0.431,0.788-0.401c0.273,0.035,0.416,0.546,0.659,0.61
		c0.257,0.063,0.644-0.273,0.881-0.159c0.243,0.114,0.243,0.624,0.451,0.772c0.223,0.124,0.688-0.083,0.881,0.095
		c0.193,0.158,0.049,0.658,0.228,0.866c0.159,0.179,0.674,0.114,0.818,0.336c0.143,0.208-0.144,0.659-0.031,0.884
		c0.109,0.226,0.625,0.305,0.704,0.563c0.064,0.243-0.321,0.596-0.287,0.838C162.84,26.814,163.306,27.043,163.306,27.301"/>
	<g opacity="0.26">
		<g>
			<defs>
				<rect id="SVGID_1_" x="158.299" y="26.672" width="15.813" height="2.683"/>
			</defs>
			<clipPath id="SVGID_2_">
				<use xlink:href="#SVGID_1_"  overflow="visible"/>
			</clipPath>
			<defs>
				<filter id="Adobe_OpacityMaskFilter" filterUnits="userSpaceOnUse" x="158.299" y="26.672" width="15.813" height="2.683">
					<feFlood  style="flood-color:white;flood-opacity:1" result="back"/>
					<feBlend  in="SourceGraphic" in2="back" mode="normal"/>
				</filter>
			</defs>
			<mask maskUnits="userSpaceOnUse" x="158.299" y="26.672" width="15.813" height="2.683" id="SVGID_3_">
				<g filter="url(#Adobe_OpacityMaskFilter)">
					<g enable-background="new    ">
						<g>
							<defs>
								<rect id="SVGID_4_" x="158.056" y="26.449" width="16.299" height="3.164"/>
							</defs>
							<clipPath id="SVGID_5_" clip-path="url(#SVGID_2_)">
								<use xlink:href="#SVGID_4_"  overflow="visible"/>
							</clipPath>
							<g transform="matrix(1 0 0 1 -1.525879e-005 -1.907349e-006)" clip-path="url(#SVGID_5_)">
								
									<image overflow="visible" width="598" height="116" xlink:href="C4860A39.jpg"  transform="matrix(0.0272 0 0 0.0272 158.0557 26.4492)">
								</image>
							</g>
						</g>
					</g>
				</g>
			</mask>
			<g clip-path="url(#SVGID_2_)" mask="url(#SVGID_3_)">
				<g>
					<defs>
						<rect id="SVGID_6_" x="158.299" y="26.672" width="15.813" height="2.683"/>
					</defs>
					<clipPath id="SVGID_7_">
						<use xlink:href="#SVGID_6_"  overflow="visible"/>
					</clipPath>
				</g>
			</g>
		</g>
	</g>
	<g opacity="0.26">
		<g>
			<defs>
				<rect id="SVGID_8_" x="158.477" y="27.236" width="13.101" height="10.019"/>
			</defs>
			<clipPath id="SVGID_9_">
				<use xlink:href="#SVGID_8_"  overflow="visible"/>
			</clipPath>
			<defs>
				<filter id="Adobe_OpacityMaskFilter_1_" filterUnits="userSpaceOnUse" x="158.477" y="27.236" width="13.101" height="10.019">
					<feFlood  style="flood-color:white;flood-opacity:1" result="back"/>
					<feBlend  in="SourceGraphic" in2="back" mode="normal"/>
				</filter>
			</defs>
			<mask maskUnits="userSpaceOnUse" x="158.477" y="27.236" width="13.101" height="10.019" id="SVGID_10_">
				<g filter="url(#Adobe_OpacityMaskFilter_1_)">
					<g enable-background="new    ">
						<g>
							<defs>
								<rect id="SVGID_11_" x="158.249" y="27.008" width="13.57" height="10.485"/>
							</defs>
							<clipPath id="SVGID_12_" clip-path="url(#SVGID_9_)">
								<use xlink:href="#SVGID_11_"  overflow="visible"/>
							</clipPath>
							<g transform="matrix(1 0 0 1 -1.525879e-005 -1.907349e-006)" clip-path="url(#SVGID_12_)">
								
									<image overflow="visible" width="498" height="385" xlink:href="C4860A3B.jpg"  transform="matrix(0.0272 0 0 0.0272 158.249 27.0078)">
								</image>
							</g>
						</g>
					</g>
				</g>
			</mask>
			<g clip-path="url(#SVGID_9_)" mask="url(#SVGID_10_)">
				<g>
					<defs>
						<rect id="SVGID_13_" x="158.477" y="27.236" width="13.101" height="10.019"/>
					</defs>
					<clipPath id="SVGID_14_">
						<use xlink:href="#SVGID_13_"  overflow="visible"/>
					</clipPath>
				</g>
			</g>
		</g>
	</g>
	<g opacity="0.26">
		<g>
			<defs>
				<rect id="SVGID_15_" x="158.715" y="27.201" width="9.717" height="13.091"/>
			</defs>
			<clipPath id="SVGID_16_">
				<use xlink:href="#SVGID_15_"  overflow="visible"/>
			</clipPath>
			<defs>
				<filter id="Adobe_OpacityMaskFilter_2_" filterUnits="userSpaceOnUse" x="158.715" y="27.201" width="9.717" height="13.091">
					<feFlood  style="flood-color:white;flood-opacity:1" result="back"/>
					<feBlend  in="SourceGraphic" in2="back" mode="normal"/>
				</filter>
			</defs>
			<mask maskUnits="userSpaceOnUse" x="158.715" y="27.201" width="9.717" height="13.091" id="SVGID_17_">
				<g filter="url(#Adobe_OpacityMaskFilter_2_)">
					<g enable-background="new    ">
						<g>
							<defs>
								<rect id="SVGID_18_" x="158.492" y="26.979" width="10.163" height="13.549"/>
							</defs>
							<clipPath id="SVGID_19_" clip-path="url(#SVGID_16_)">
								<use xlink:href="#SVGID_18_"  overflow="visible"/>
							</clipPath>
							<g transform="matrix(1 0 0 1 0 -1.907349e-006)" clip-path="url(#SVGID_19_)">
								
									<image overflow="visible" width="373" height="498" xlink:href="C4860A3E.jpg"  transform="matrix(0.0272 0 0 0.0272 158.4917 26.9795)">
								</image>
							</g>
						</g>
					</g>
				</g>
			</mask>
			<g clip-path="url(#SVGID_16_)" mask="url(#SVGID_17_)">
				<g>
					<defs>
						<rect id="SVGID_20_" x="158.715" y="27.201" width="9.717" height="13.091"/>
					</defs>
					<clipPath id="SVGID_21_">
						<use xlink:href="#SVGID_20_"  overflow="visible"/>
					</clipPath>
				</g>
			</g>
		</g>
	</g>
	<g opacity="0.26">
		<g>
			<defs>
				<rect id="SVGID_22_" x="158.299" y="27.622" width="6.26" height="14.625"/>
			</defs>
			<clipPath id="SVGID_23_">
				<use xlink:href="#SVGID_22_"  overflow="visible"/>
			</clipPath>
			<defs>
				<filter id="Adobe_OpacityMaskFilter_3_" filterUnits="userSpaceOnUse" x="158.299" y="27.622" width="6.26" height="14.625">
					<feFlood  style="flood-color:white;flood-opacity:1" result="back"/>
					<feBlend  in="SourceGraphic" in2="back" mode="normal"/>
				</filter>
			</defs>
			<mask maskUnits="userSpaceOnUse" x="158.299" y="27.622" width="6.26" height="14.625" id="SVGID_24_">
				<g filter="url(#Adobe_OpacityMaskFilter_3_)">
					<g enable-background="new    ">
						<g>
							<defs>
								<rect id="SVGID_25_" x="158.056" y="27.395" width="6.746" height="15.081"/>
							</defs>
							<clipPath id="SVGID_26_" clip-path="url(#SVGID_23_)">
								<use xlink:href="#SVGID_25_"  overflow="visible"/>
							</clipPath>
							<g transform="matrix(1 0 0 1 -1.525879e-005 -1.907349e-006)" clip-path="url(#SVGID_26_)">
								
									<image overflow="visible" width="247" height="554" xlink:href="C4860A3F.jpg"  transform="matrix(0.0272 0 0 0.0272 158.0557 27.3945)">
								</image>
							</g>
						</g>
					</g>
				</g>
			</mask>
			<g clip-path="url(#SVGID_23_)" mask="url(#SVGID_24_)">
				<g>
					<defs>
						<rect id="SVGID_27_" x="158.299" y="27.622" width="6.26" height="14.625"/>
					</defs>
					<clipPath id="SVGID_28_">
						<use xlink:href="#SVGID_27_"  overflow="visible"/>
					</clipPath>
				</g>
			</g>
		</g>
	</g>
	<g opacity="0.26">
		<g>
			<defs>
				<rect id="SVGID_29_" x="157.991" y="27.236" width="15.255" height="5.908"/>
			</defs>
			<clipPath id="SVGID_30_">
				<use xlink:href="#SVGID_29_"  overflow="visible"/>
			</clipPath>
			<defs>
				<filter id="Adobe_OpacityMaskFilter_4_" filterUnits="userSpaceOnUse" x="157.991" y="27.236" width="15.255" height="5.908">
					<feFlood  style="flood-color:white;flood-opacity:1" result="back"/>
					<feBlend  in="SourceGraphic" in2="back" mode="normal"/>
				</filter>
			</defs>
			<mask maskUnits="userSpaceOnUse" x="157.991" y="27.236" width="15.255" height="5.908" id="SVGID_31_">
				<g filter="url(#Adobe_OpacityMaskFilter_4_)">
					<g enable-background="new    ">
						<g>
							<defs>
								<rect id="SVGID_32_" x="157.769" y="27.008" width="15.72" height="6.374"/>
							</defs>
							<clipPath id="SVGID_33_" clip-path="url(#SVGID_30_)">
								<use xlink:href="#SVGID_32_"  overflow="visible"/>
							</clipPath>
							<g transform="matrix(1 0 0 1 0 -1.907349e-006)" clip-path="url(#SVGID_33_)">
								
									<image overflow="visible" width="577" height="234" xlink:href="C4860A3A.jpg"  transform="matrix(0.0272 0 0 0.0272 157.7686 27.0078)">
								</image>
							</g>
						</g>
					</g>
				</g>
			</mask>
			<g clip-path="url(#SVGID_30_)" mask="url(#SVGID_31_)">
				<g>
					<defs>
						<rect id="SVGID_34_" x="157.991" y="27.236" width="15.255" height="5.908"/>
					</defs>
					<clipPath id="SVGID_35_">
						<use xlink:href="#SVGID_34_"  overflow="visible"/>
					</clipPath>
				</g>
			</g>
		</g>
	</g>
	<g opacity="0.26">
		<g>
			<defs>
				<rect id="SVGID_36_" x="158.363" y="27.666" width="2.04" height="15.739"/>
			</defs>
			<clipPath id="SVGID_37_">
				<use xlink:href="#SVGID_36_"  overflow="visible"/>
			</clipPath>
			<defs>
				<filter id="Adobe_OpacityMaskFilter_5_" filterUnits="userSpaceOnUse" x="158.363" y="27.666" width="2.04" height="15.739">
					<feFlood  style="flood-color:white;flood-opacity:1" result="back"/>
					<feBlend  in="SourceGraphic" in2="back" mode="normal"/>
				</filter>
			</defs>
			<mask maskUnits="userSpaceOnUse" x="158.363" y="27.666" width="2.04" height="15.739" id="SVGID_38_">
				<g filter="url(#Adobe_OpacityMaskFilter_5_)">
					<g enable-background="new    ">
						<g>
							<defs>
								<rect id="SVGID_39_" x="158.135" y="27.444" width="2.525" height="16.186"/>
							</defs>
							<clipPath id="SVGID_40_" clip-path="url(#SVGID_37_)">
								<use xlink:href="#SVGID_39_"  overflow="visible"/>
							</clipPath>
							<g transform="matrix(1 0 0 1 0 -1.907349e-006)" clip-path="url(#SVGID_40_)">
								
									<image overflow="visible" width="92" height="594" xlink:href="C4860A35.jpg"  transform="matrix(0.0272 0 0 0.0272 158.1353 27.4443)">
								</image>
							</g>
						</g>
					</g>
				</g>
			</mask>
			<g clip-path="url(#SVGID_37_)" mask="url(#SVGID_38_)">
				<g>
					<defs>
						<rect id="SVGID_41_" x="158.363" y="27.666" width="2.04" height="15.739"/>
					</defs>
					<clipPath id="SVGID_42_">
						<use xlink:href="#SVGID_41_"  overflow="visible"/>
					</clipPath>
				</g>
			</g>
		</g>
	</g>
	<g opacity="0.26">
		<g>
			<defs>
				<rect id="SVGID_43_" x="150.255" y="27.909" width="7.707" height="14.531"/>
			</defs>
			<clipPath id="SVGID_44_">
				<use xlink:href="#SVGID_43_"  overflow="visible"/>
			</clipPath>
			<defs>
				<filter id="Adobe_OpacityMaskFilter_6_" filterUnits="userSpaceOnUse" x="150.255" y="27.909" width="7.707" height="14.531">
					<feFlood  style="flood-color:white;flood-opacity:1" result="back"/>
					<feBlend  in="SourceGraphic" in2="back" mode="normal"/>
				</filter>
			</defs>
			<mask maskUnits="userSpaceOnUse" x="150.255" y="27.909" width="7.707" height="14.531" id="SVGID_45_">
				<g filter="url(#Adobe_OpacityMaskFilter_6_)">
					<g enable-background="new    ">
						<g>
							<defs>
								<rect id="SVGID_46_" x="150.013" y="27.682" width="8.172" height="15.018"/>
							</defs>
							<clipPath id="SVGID_47_" clip-path="url(#SVGID_44_)">
								<use xlink:href="#SVGID_46_"  overflow="visible"/>
							</clipPath>
							<g transform="matrix(1 0 0 1 -1.525879e-005 -1.907349e-006)" clip-path="url(#SVGID_47_)">
								
									<image overflow="visible" width="300" height="551" xlink:href="C4860A36.jpg"  transform="matrix(0.0272 0 0 0.0272 150.0127 27.6816)">
								</image>
							</g>
						</g>
					</g>
				</g>
			</mask>
			<g clip-path="url(#SVGID_44_)" mask="url(#SVGID_45_)">
				<g>
					<defs>
						<rect id="SVGID_48_" x="150.255" y="27.909" width="7.707" height="14.531"/>
					</defs>
					<clipPath id="SVGID_49_">
						<use xlink:href="#SVGID_48_"  overflow="visible"/>
					</clipPath>
				</g>
			</g>
		</g>
	</g>
	<g opacity="0.26">
		<g>
			<defs>
				<rect id="SVGID_50_" x="146.526" y="28.211" width="11.421" height="11.867"/>
			</defs>
			<clipPath id="SVGID_51_">
				<use xlink:href="#SVGID_50_"  overflow="visible"/>
			</clipPath>
			<defs>
				<filter id="Adobe_OpacityMaskFilter_7_" filterUnits="userSpaceOnUse" x="146.526" y="28.211" width="11.421" height="11.867">
					<feFlood  style="flood-color:white;flood-opacity:1" result="back"/>
					<feBlend  in="SourceGraphic" in2="back" mode="normal"/>
				</filter>
			</defs>
			<mask maskUnits="userSpaceOnUse" x="146.526" y="28.211" width="11.421" height="11.867" id="SVGID_52_">
				<g filter="url(#Adobe_OpacityMaskFilter_7_)">
					<g enable-background="new    ">
						<g>
							<defs>
								<rect id="SVGID_53_" x="146.303" y="27.988" width="11.881" height="12.318"/>
							</defs>
							<clipPath id="SVGID_54_" clip-path="url(#SVGID_51_)">
								<use xlink:href="#SVGID_53_"  overflow="visible"/>
							</clipPath>
							<g transform="matrix(1 0 0 1 0 -1.907349e-006)" clip-path="url(#SVGID_54_)">
								
									<image overflow="visible" width="436" height="452" xlink:href="C4860A37.jpg"  transform="matrix(0.0272 0 0 0.0272 146.3032 27.9883)">
								</image>
							</g>
						</g>
					</g>
				</g>
			</mask>
			<g clip-path="url(#SVGID_51_)" mask="url(#SVGID_52_)">
				<g>
					<defs>
						<rect id="SVGID_55_" x="146.526" y="28.211" width="11.421" height="11.867"/>
					</defs>
					<clipPath id="SVGID_56_">
						<use xlink:href="#SVGID_55_"  overflow="visible"/>
					</clipPath>
				</g>
			</g>
		</g>
	</g>
	<g opacity="0.26">
		<g>
			<defs>
				<rect id="SVGID_57_" x="143.876" y="27.811" width="13.585" height="8.866"/>
			</defs>
			<clipPath id="SVGID_58_">
				<use xlink:href="#SVGID_57_"  overflow="visible"/>
			</clipPath>
			<defs>
				<filter id="Adobe_OpacityMaskFilter_8_" filterUnits="userSpaceOnUse" x="143.876" y="27.811" width="13.585" height="8.866">
					<feFlood  style="flood-color:white;flood-opacity:1" result="back"/>
					<feBlend  in="SourceGraphic" in2="back" mode="normal"/>
				</filter>
			</defs>
			<mask maskUnits="userSpaceOnUse" x="143.876" y="27.811" width="13.585" height="8.866" id="SVGID_59_">
				<g filter="url(#Adobe_OpacityMaskFilter_8_)">
					<g enable-background="new    ">
						<g>
							<defs>
								<rect id="SVGID_60_" x="143.653" y="27.588" width="14.051" height="9.311"/>
							</defs>
							<clipPath id="SVGID_61_" clip-path="url(#SVGID_58_)">
								<use xlink:href="#SVGID_60_"  overflow="visible"/>
							</clipPath>
							<g transform="matrix(1 0 0 1 -1.525879e-005 -1.907349e-006)" clip-path="url(#SVGID_61_)">
								
									<image overflow="visible" width="516" height="342" xlink:href="C4860A49.jpg"  transform="matrix(0.0272 0 0 0.0272 143.6533 27.5879)">
								</image>
							</g>
						</g>
					</g>
				</g>
			</mask>
			<g clip-path="url(#SVGID_58_)" mask="url(#SVGID_59_)">
				<g>
					<defs>
						<rect id="SVGID_62_" x="143.876" y="27.811" width="13.585" height="8.866"/>
					</defs>
					<clipPath id="SVGID_63_">
						<use xlink:href="#SVGID_62_"  overflow="visible"/>
					</clipPath>
				</g>
			</g>
		</g>
	</g>
	<g opacity="0.26">
		<g>
			<defs>
				<rect id="SVGID_64_" x="154.46" y="27.909" width="3.209" height="15.8"/>
			</defs>
			<clipPath id="SVGID_65_">
				<use xlink:href="#SVGID_64_"  overflow="visible"/>
			</clipPath>
			<defs>
				<filter id="Adobe_OpacityMaskFilter_9_" filterUnits="userSpaceOnUse" x="154.46" y="27.909" width="3.209" height="15.8">
					<feFlood  style="flood-color:white;flood-opacity:1" result="back"/>
					<feBlend  in="SourceGraphic" in2="back" mode="normal"/>
				</filter>
			</defs>
			<mask maskUnits="userSpaceOnUse" x="154.46" y="27.909" width="3.209" height="15.8" id="SVGID_66_">
				<g filter="url(#Adobe_OpacityMaskFilter_9_)">
					<g enable-background="new    ">
						<g>
							<defs>
								<rect id="SVGID_67_" x="154.237" y="27.682" width="3.675" height="16.27"/>
							</defs>
							<clipPath id="SVGID_68_" clip-path="url(#SVGID_65_)">
								<use xlink:href="#SVGID_67_"  overflow="visible"/>
							</clipPath>
							<g transform="matrix(1 0 0 1 -1.525879e-005 -1.907349e-006)" clip-path="url(#SVGID_68_)">
								
									<image overflow="visible" width="135" height="597" xlink:href="675F7A42.jpg"  transform="matrix(0.0272 0 0 0.0272 154.2368 27.6816)">
								</image>
							</g>
						</g>
					</g>
				</g>
			</mask>
			<g clip-path="url(#SVGID_65_)" mask="url(#SVGID_66_)">
				<g>
					<defs>
						<rect id="SVGID_69_" x="154.46" y="27.909" width="3.209" height="15.8"/>
					</defs>
					<clipPath id="SVGID_70_">
						<use xlink:href="#SVGID_69_"  overflow="visible"/>
					</clipPath>
				</g>
			</g>
		</g>
	</g>
	<g opacity="0.26">
		<g>
			<defs>
				<rect id="SVGID_71_" x="142.449" y="27.122" width="14.839" height="5.587"/>
			</defs>
			<clipPath id="SVGID_72_">
				<use xlink:href="#SVGID_71_"  overflow="visible"/>
			</clipPath>
			<defs>
				<filter id="Adobe_OpacityMaskFilter_10_" filterUnits="userSpaceOnUse" x="142.449" y="27.122" width="14.839" height="5.587">
					<feFlood  style="flood-color:white;flood-opacity:1" result="back"/>
					<feBlend  in="SourceGraphic" in2="back" mode="normal"/>
				</filter>
			</defs>
			<mask maskUnits="userSpaceOnUse" x="142.449" y="27.122" width="14.839" height="5.587" id="SVGID_73_">
				<g filter="url(#Adobe_OpacityMaskFilter_10_)">
					<g enable-background="new    ">
						<g>
							<defs>
								<rect id="SVGID_74_" x="142.222" y="26.898" width="15.324" height="6.037"/>
							</defs>
							<clipPath id="SVGID_75_" clip-path="url(#SVGID_72_)">
								<use xlink:href="#SVGID_74_"  overflow="visible"/>
							</clipPath>
							<g transform="matrix(1 0 0 1 -1.525879e-005 -1.907349e-006)" clip-path="url(#SVGID_75_)">
								
									<image overflow="visible" width="562" height="222" xlink:href="675F7A45.jpg"  transform="matrix(0.0272 0 0 0.0272 142.2217 26.8984)">
								</image>
							</g>
						</g>
					</g>
				</g>
			</mask>
			<g clip-path="url(#SVGID_72_)" mask="url(#SVGID_73_)">
				<g>
					<defs>
						<rect id="SVGID_76_" x="142.449" y="27.122" width="14.839" height="5.587"/>
					</defs>
					<clipPath id="SVGID_77_">
						<use xlink:href="#SVGID_76_"  overflow="visible"/>
					</clipPath>
				</g>
			</g>
		</g>
	</g>
</g>
</svg>
